<?xml version="1.0" encoding="UTF-8" standalone="no"?>
<!DOCTYPE svg PUBLIC "-//W3C//DTD SVG 1.1//EN"
 "http://www.w3.org/Graphics/SVG/1.1/DTD/svg11.dtd">
<!-- Generated by graphviz version 12.0.0 (20240704.0754)
 -->
<!-- Pages: 1 -->
<svg width="292pt" height="202pt"
 viewBox="0.00 0.00 292.31 202.31" xmlns="http://www.w3.org/2000/svg" xmlns:xlink="http://www.w3.org/1999/xlink">
<g id="graph0" class="graph" transform="scale(1 1) rotate(0) translate(14.4 187.91)">
<polygon fill="white" stroke="none" points="-14.4,14.4 -14.4,-187.91 277.91,-187.91 277.91,14.4 -14.4,14.4"/>
<!-- 0 -->
<g id="node1" class="node">
<title>0</title>
<ellipse fill="none" stroke="black" stroke-width="2" cx="86.75" cy="-155.51" rx="18" ry="18"/>
<text text-anchor="middle" x="86.75" y="-150.83" font-family="monospace" font-size="14.00">0</text>
</g>
<!-- 1 -->
<g id="node2" class="node">
<title>1</title>
<ellipse fill="none" stroke="black" stroke-width="2" cx="155.51" cy="-86.75" rx="18" ry="18"/>
<text text-anchor="middle" x="155.51" y="-82.08" font-family="monospace" font-size="14.00">1</text>
</g>
<!-- 0&#45;&gt;1 -->
<g id="edge1" class="edge">
<title>0&#45;&gt;1</title>
<path fill="none" stroke="black" d="M104.88,-137.39C114.9,-127.37 127.31,-114.95 137.34,-104.92"/>
<polygon fill="black" stroke="black" points="103.52,-135.78 100.76,-141.51 106.49,-138.75 103.52,-135.78"/>
<polygon fill="black" stroke="black" points="138.81,-106.43 141.57,-100.7 135.84,-103.46 138.81,-106.43"/>
</g>
<!-- 2 -->
<g id="node3" class="node">
<title>2</title>
<ellipse fill="none" stroke="black" stroke-width="2" cx="18" cy="-86.75" rx="18" ry="18"/>
<text text-anchor="middle" x="18" y="-82.08" font-family="monospace" font-size="14.00">2</text>
</g>
<!-- 0&#45;&gt;2 -->
<g id="edge2" class="edge">
<title>0&#45;&gt;2</title>
<path fill="none" stroke="black" d="M73.82,-142.58C63.16,-131.92 47.92,-116.68 36.06,-104.81"/>
<polygon fill="black" stroke="black" points="37.67,-103.46 31.94,-100.7 34.7,-106.43 37.67,-103.46"/>
</g>
<!-- 3 -->
<g id="node4" class="node">
<title>3</title>
<ellipse fill="none" stroke="black" stroke-width="2" cx="86.75" cy="-18" rx="18" ry="18"/>
<text text-anchor="middle" x="86.75" y="-13.32" font-family="monospace" font-size="14.00">3</text>
</g>
<!-- 1&#45;&gt;3 -->
<g id="edge3" class="edge">
<title>1&#45;&gt;3</title>
<path fill="none" stroke="black" d="M142.58,-73.82C131.92,-63.16 116.68,-47.92 104.81,-36.06"/>
<polygon fill="black" stroke="black" points="106.43,-34.7 100.7,-31.94 103.46,-37.67 106.43,-34.7"/>
</g>
<!-- 4 -->
<g id="node5" class="node">
<title>4</title>
<ellipse fill="none" stroke="black" stroke-width="2" cx="245.51" cy="-86.75" rx="18" ry="18"/>
<text text-anchor="middle" x="245.51" y="-82.08" font-family="monospace" font-size="14.00">4</text>
</g>
<!-- 1&#45;&gt;4 -->
<g id="edge4" class="edge">
<title>1&#45;&gt;4</title>
<path fill="none" stroke="black" d="M181.03,-86.75C193.16,-86.75 207.63,-86.75 219.79,-86.75"/>
<polygon fill="black" stroke="black" points="181.24,-84.66 175.24,-86.75 181.24,-88.86 181.24,-84.66"/>
<polygon fill="black" stroke="black" points="219.5,-88.86 225.5,-86.75 219.5,-84.66 219.5,-88.86"/>
</g>
<!-- 3&#45;&gt;0 -->
<g id="edge5" class="edge">
<title>3&#45;&gt;0</title>
<path fill="none" stroke="black" d="M86.75,-36.26C86.75,-60.3 86.75,-102.7 86.75,-129.92"/>
<polygon fill="black" stroke="black" points="84.66,-129.66 86.75,-135.66 88.86,-129.66 84.66,-129.66"/>
</g>
<!-- 3&#45;&gt;2 -->
<g id="edge6" class="edge">
<title>3&#45;&gt;2</title>
<path fill="none" stroke="black" d="M73.82,-30.93C63.16,-41.59 47.92,-56.83 36.06,-68.7"/>
<polygon fill="black" stroke="black" points="34.7,-67.08 31.94,-72.81 37.67,-70.05 34.7,-67.08"/>
</g>
</g>
</svg>
