<?xml version="1.0" encoding="UTF-8" standalone="no"?>
<!DOCTYPE svg PUBLIC "-//W3C//DTD SVG 1.1//EN"
 "http://www.w3.org/Graphics/SVG/1.1/DTD/svg11.dtd">
<!-- Generated by graphviz version 12.0.0 (20240704.0754)
 -->
<!-- Pages: 1 -->
<svg width="219pt" height="219pt"
 viewBox="0.00 0.00 218.68 218.68" xmlns="http://www.w3.org/2000/svg" xmlns:xlink="http://www.w3.org/1999/xlink">
<g id="graph0" class="graph" transform="scale(1 1) rotate(0) translate(14.4 204.28)">
<polygon fill="white" stroke="none" points="-14.4,14.4 -14.4,-204.28 204.28,-204.28 204.28,14.4 -14.4,14.4"/>
<!-- 0 -->
<g id="node1" class="node">
<title>0</title>
<ellipse fill="none" stroke="black" stroke-width="2" cx="94.94" cy="-21.6" rx="21.6" ry="21.6"/>
<text text-anchor="middle" x="94.94" y="-16.93" font-family="monospace" font-size="14.00">0</text>
</g>
<!-- 1 -->
<g id="node2" class="node">
<title>1</title>
<ellipse fill="none" stroke="black" stroke-width="2" cx="21.6" cy="-94.94" rx="21.6" ry="21.6"/>
<text text-anchor="middle" x="21.6" y="-90.26" font-family="monospace" font-size="14.00">1</text>
</g>
<!-- 0&#45;&gt;1 -->
<g id="edge1" class="edge">
<title>0&#45;&gt;1</title>
<path fill="none" stroke="black" d="M76.17,-32.52C64.13,-42.59 48.77,-57.69 37.36,-70.56"/>
<polygon fill="black" stroke="black" points="36.05,-68.87 33.72,-74.78 39.23,-71.61 36.05,-68.87"/>
</g>
<!-- 0&#45;&gt;1 -->
<g id="edge4" class="edge">
<title>0&#45;&gt;1</title>
<path fill="none" stroke="red" stroke-width="2" d="M84.02,-40.36C73.95,-52.41 58.85,-67.76 45.97,-79.18"/>
<polygon fill="red" stroke="red" stroke-width="2" points="46.07,-76.32 42.91,-81.83 48.82,-79.5 46.07,-76.32"/>
</g>
<!-- 2 -->
<g id="node3" class="node">
<title>2</title>
<ellipse fill="none" stroke="black" stroke-width="2" cx="94.94" cy="-168.28" rx="21.6" ry="21.6"/>
<text text-anchor="middle" x="94.94" y="-163.6" font-family="monospace" font-size="14.00">2</text>
</g>
<!-- 1&#45;&gt;2 -->
<g id="edge2" class="edge">
<title>1&#45;&gt;2</title>
<path fill="none" stroke="black" d="M37.15,-110.49C47.95,-121.28 62.44,-135.78 74.21,-147.55"/>
<polygon fill="black" stroke="black" points="72.61,-148.92 78.34,-151.68 75.58,-145.95 72.61,-148.92"/>
</g>
<!-- 3 -->
<g id="node4" class="node">
<title>3</title>
<ellipse fill="none" stroke="black" stroke-width="2" cx="168.28" cy="-94.94" rx="21.6" ry="21.6"/>
<text text-anchor="middle" x="168.28" y="-90.26" font-family="monospace" font-size="14.00">3</text>
</g>
<!-- 3&#45;&gt;0 -->
<!-- 3&#45;&gt;2 -->
<g id="edge3" class="edge">
<title>3&#45;&gt;2</title>
<path fill="none" stroke="black" d="M152.72,-110.49C141.93,-121.28 127.44,-135.78 115.66,-147.55"/>
<polygon fill="black" stroke="black" points="114.3,-145.95 111.54,-151.68 117.27,-148.92 114.3,-145.95"/>
</g>
</g>
</svg>
