<?xml version="1.0" encoding="UTF-8" standalone="no"?>
<!DOCTYPE svg PUBLIC "-//W3C//DTD SVG 1.1//EN"
 "http://www.w3.org/Graphics/SVG/1.1/DTD/svg11.dtd">
<!-- Generated by graphviz version 12.0.0 (20240704.0754)
 -->
<!-- Pages: 1 -->
<svg width="312pt" height="219pt"
 viewBox="0.00 0.00 312.28 218.68" xmlns="http://www.w3.org/2000/svg" xmlns:xlink="http://www.w3.org/1999/xlink">
<g id="graph0" class="graph" transform="scale(1 1) rotate(0) translate(14.4 204.28)">
<polygon fill="white" stroke="none" points="-14.4,14.4 -14.4,-204.28 297.88,-204.28 297.88,14.4 -14.4,14.4"/>
<!-- 0 -->
<g id="node1" class="node">
<title>0</title>
<ellipse fill="none" stroke="black" stroke-width="2" cx="94.94" cy="-168.28" rx="21.6" ry="21.6"/>
<text text-anchor="middle" x="94.94" y="-163.6" font-family="monospace" font-size="14.00">0</text>
</g>
<!-- 1 -->
<g id="node2" class="node">
<title>1</title>
<ellipse fill="none" stroke="black" stroke-width="2" cx="168.28" cy="-94.94" rx="21.6" ry="21.6"/>
<text text-anchor="middle" x="168.28" y="-90.26" font-family="monospace" font-size="14.00">1</text>
</g>
<!-- 0&#45;&gt;1 -->
<g id="edge1" class="edge">
<title>0&#45;&gt;1</title>
<path fill="none" stroke="black" d="M115.69,-147.53C125.62,-137.59 137.5,-125.72 147.44,-115.77"/>
<polygon fill="black" stroke="black" points="114.32,-145.93 111.56,-151.65 117.29,-148.9 114.32,-145.93"/>
<polygon fill="black" stroke="black" points="148.92,-117.27 151.68,-111.54 145.95,-114.3 148.92,-117.27"/>
</g>
<!-- 2 -->
<g id="node3" class="node">
<title>2</title>
<ellipse fill="none" stroke="black" stroke-width="2" cx="21.6" cy="-94.94" rx="21.6" ry="21.6"/>
<text text-anchor="middle" x="21.6" y="-90.26" font-family="monospace" font-size="14.00">2</text>
</g>
<!-- 0&#45;&gt;2 -->
<g id="edge2" class="edge">
<title>0&#45;&gt;2</title>
<path fill="none" stroke="black" d="M79.39,-152.72C68.59,-141.93 54.1,-127.44 42.33,-115.66"/>
<polygon fill="black" stroke="black" points="43.93,-114.3 38.2,-111.54 40.96,-117.27 43.93,-114.3"/>
</g>
<!-- 3 -->
<g id="node4" class="node">
<title>3</title>
<ellipse fill="none" stroke="black" stroke-width="2" cx="94.94" cy="-21.6" rx="21.6" ry="21.6"/>
<text text-anchor="middle" x="94.94" y="-16.93" font-family="monospace" font-size="14.00">3</text>
</g>
<!-- 1&#45;&gt;3 -->
<g id="edge3" class="edge">
<title>1&#45;&gt;3</title>
<path fill="none" stroke="black" d="M152.72,-79.39C141.93,-68.59 127.44,-54.1 115.66,-42.33"/>
<polygon fill="black" stroke="black" points="117.27,-40.96 111.54,-38.2 114.3,-43.93 117.27,-40.96"/>
</g>
<!-- 4 -->
<g id="node5" class="node">
<title>4</title>
<ellipse fill="none" stroke="black" stroke-width="2" cx="261.88" cy="-94.94" rx="21.6" ry="21.6"/>
<text text-anchor="middle" x="261.88" y="-90.26" font-family="monospace" font-size="14.00">4</text>
</g>
<!-- 1&#45;&gt;4 -->
<g id="edge4" class="edge">
<title>1&#45;&gt;4</title>
<path fill="none" stroke="black" d="M197.34,-94.94C208.52,-94.94 221.28,-94.94 232.49,-94.94"/>
<polygon fill="black" stroke="black" points="197.5,-92.84 191.5,-94.94 197.5,-97.04 197.5,-92.84"/>
<polygon fill="black" stroke="black" points="232.45,-97.04 238.45,-94.94 232.45,-92.84 232.45,-97.04"/>
</g>
<!-- 3&#45;&gt;0 -->
<g id="edge5" class="edge">
<title>3&#45;&gt;0</title>
<path fill="none" stroke="black" d="M94.94,-43.56C94.94,-69.09 94.94,-111.31 94.94,-139.46"/>
<polygon fill="black" stroke="black" points="92.84,-139.13 94.94,-145.13 97.04,-139.13 92.84,-139.13"/>
</g>
<!-- 3&#45;&gt;2 -->
<g id="edge6" class="edge">
<title>3&#45;&gt;2</title>
<path fill="none" stroke="black" d="M79.39,-37.15C68.59,-47.95 54.1,-62.44 42.33,-74.21"/>
<polygon fill="black" stroke="black" points="40.96,-72.61 38.2,-78.34 43.93,-75.58 40.96,-72.61"/>
</g>
</g>
</svg>
