<?xml version="1.0" encoding="UTF-8" standalone="no"?>
<!DOCTYPE svg PUBLIC "-//W3C//DTD SVG 1.1//EN"
 "http://www.w3.org/Graphics/SVG/1.1/DTD/svg11.dtd">
<!-- Generated by graphviz version 12.0.0 (20240704.0754)
 -->
<!-- Pages: 1 -->
<svg width="246pt" height="161pt"
 viewBox="0.00 0.00 246.06 160.74" xmlns="http://www.w3.org/2000/svg" xmlns:xlink="http://www.w3.org/1999/xlink">
<g id="graph0" class="graph" transform="scale(1 1) rotate(0) translate(14.4 146.34)">
<polygon fill="white" stroke="none" points="-14.4,14.4 -14.4,-146.34 231.66,-146.34 231.66,14.4 -14.4,14.4"/>
<!-- 0 -->
<g id="node1" class="node">
<title>0</title>
<ellipse fill="none" stroke="black" stroke-width="2" cx="59.83" cy="-52.32" rx="18" ry="18"/>
<text text-anchor="middle" x="59.83" y="-47.65" font-family="monospace" font-size="14.00">0</text>
</g>
<!-- 1 -->
<g id="node2" class="node">
<title>1</title>
<ellipse fill="none" stroke="black" stroke-width="2" cx="134.37" cy="-52.32" rx="18" ry="18"/>
<text text-anchor="middle" x="134.37" y="-47.65" font-family="monospace" font-size="14.00">1</text>
</g>
<!-- 0&#45;&gt;1 -->
<g id="edge1" class="edge">
<title>0&#45;&gt;1</title>
<path fill="none" stroke="black" d="M85.59,-52.32C93.07,-52.32 101.24,-52.32 108.71,-52.32"/>
<polygon fill="black" stroke="black" points="85.77,-50.22 79.77,-52.32 85.77,-54.42 85.77,-50.22"/>
<polygon fill="black" stroke="black" points="108.39,-54.42 114.39,-52.32 108.39,-50.22 108.39,-54.42"/>
</g>
<!-- 2 -->
<g id="node3" class="node">
<title>2</title>
<ellipse fill="none" stroke="black" stroke-width="2" cx="18" cy="-113.88" rx="18" ry="18"/>
<text text-anchor="middle" x="18" y="-109.2" font-family="monospace" font-size="14.00">2</text>
</g>
<!-- 0&#45;&gt;2 -->
<g id="edge2" class="edge">
<title>0&#45;&gt;2</title>
<path fill="none" stroke="black" d="M49.49,-67.54C44.33,-75.14 37.99,-84.47 32.36,-92.75"/>
<polygon fill="black" stroke="black" points="30.71,-91.44 29.07,-97.59 34.18,-93.8 30.71,-91.44"/>
</g>
<!-- 3 -->
<g id="node4" class="node">
<title>3</title>
<ellipse fill="none" stroke="black" stroke-width="2" cx="92.43" cy="-113.94" rx="18" ry="18"/>
<text text-anchor="middle" x="92.43" y="-109.26" font-family="monospace" font-size="14.00">3</text>
</g>
<!-- 1&#45;&gt;3 -->
<g id="edge3" class="edge">
<title>1&#45;&gt;3</title>
<path fill="none" stroke="black" d="M124,-67.55C118.82,-75.16 112.47,-84.5 106.82,-92.79"/>
<polygon fill="black" stroke="black" points="105.17,-91.49 103.53,-97.63 108.64,-93.85 105.17,-91.49"/>
</g>
<!-- 4 -->
<g id="node5" class="node">
<title>4</title>
<ellipse fill="none" stroke="black" stroke-width="2" cx="199.26" cy="-18" rx="18" ry="18"/>
<text text-anchor="middle" x="199.26" y="-13.32" font-family="monospace" font-size="14.00">4</text>
</g>
<!-- 1&#45;&gt;4 -->
<g id="edge4" class="edge">
<title>1&#45;&gt;4</title>
<path fill="none" stroke="black" d="M157,-40.35C163.28,-37.03 170.09,-33.43 176.39,-30.1"/>
<polygon fill="black" stroke="black" points="156.07,-38.47 151.75,-43.13 158.04,-42.18 156.07,-38.47"/>
<polygon fill="black" stroke="black" points="177.3,-31.99 181.62,-27.33 175.33,-28.28 177.3,-31.99"/>
</g>
<!-- 3&#45;&gt;0 -->
<g id="edge5" class="edge">
<title>3&#45;&gt;0</title>
<path fill="none" stroke="black" d="M83.86,-97.75C80.22,-90.87 75.92,-82.72 71.96,-75.24"/>
<polygon fill="black" stroke="black" points="73.82,-74.28 69.16,-69.96 70.11,-76.24 73.82,-74.28"/>
</g>
<!-- 3&#45;&gt;2 -->
<g id="edge6" class="edge">
<title>3&#45;&gt;2</title>
<path fill="none" stroke="black" d="M74.03,-113.92C64.9,-113.92 53.73,-113.91 43.77,-113.9"/>
<polygon fill="black" stroke="black" points="43.96,-111.8 37.96,-113.89 43.96,-116 43.96,-111.8"/>
</g>
</g>
</svg>
