<?xml version="1.0" encoding="UTF-8" standalone="no"?>
<!DOCTYPE svg PUBLIC "-//W3C//DTD SVG 1.1//EN"
 "http://www.w3.org/Graphics/SVG/1.1/DTD/svg11.dtd">
<!-- Generated by graphviz version 12.0.0 (20240704.0754)
 -->
<!-- Pages: 1 -->
<svg width="320pt" height="321pt"
 viewBox="0.00 0.00 319.80 320.80" xmlns="http://www.w3.org/2000/svg" xmlns:xlink="http://www.w3.org/1999/xlink">
<g id="graph0" class="graph" transform="scale(1 1) rotate(0) translate(10.8 310)">
<polygon fill="white" stroke="none" points="-10.8,10.8 -10.8,-310 309,-310 309,10.8 -10.8,10.8"/>
<!-- 0 -->
<!-- 6 -->
<g id="node7" class="node">
<title>6</title>
<polygon fill="none" stroke="white" points="43.2,-248 0,-248 0,-204.8 43.2,-204.8 43.2,-248"/>
<text text-anchor="middle" x="21.6" y="-221.72" font-family="monospace" font-size="14.00">u=0</text>
</g>
<!-- 0&#45;&gt;6 -->
<!-- 1 -->
<g id="node2" class="node">
<title>1</title>
<polygon fill="none" stroke="white" points="94.2,-299.2 51,-299.2 51,-256 94.2,-256 94.2,-299.2"/>
<text text-anchor="middle" x="72.6" y="-272.92" font-family="monospace" font-size="14.00">v=0</text>
</g>
<!-- 7 -->
<g id="node12" class="node">
<title>7</title>
<polygon fill="none" stroke="#aaaaaa" stroke-dasharray="5,2" points="94.2,-248 51,-248 51,-204.8 94.2,-204.8 94.2,-248"/>
<text text-anchor="middle" x="72.6" y="-221.72" font-family="monospace" font-size="14.00" fill="white">0</text>
</g>
<!-- 1&#45;&gt;7 -->
<!-- 2 -->
<g id="node3" class="node">
<title>2</title>
<polygon fill="none" stroke="white" points="145.2,-299.2 102,-299.2 102,-256 145.2,-256 145.2,-299.2"/>
<text text-anchor="middle" x="123.6" y="-272.92" font-family="monospace" font-size="14.00">v=1</text>
</g>
<!-- 8 -->
<g id="node13" class="node">
<title>8</title>
<polygon fill="gray" stroke="gray" points="145.2,-248 102,-248 102,-204.8 145.2,-204.8 145.2,-248"/>
<text text-anchor="middle" x="123.6" y="-221.72" font-family="monospace" font-size="14.00" fill="white">1</text>
</g>
<!-- 2&#45;&gt;8 -->
<!-- 3 -->
<g id="node4" class="node">
<title>3</title>
<polygon fill="none" stroke="white" points="196.2,-299.2 153,-299.2 153,-256 196.2,-256 196.2,-299.2"/>
<text text-anchor="middle" x="174.6" y="-272.92" font-family="monospace" font-size="14.00">v=2</text>
</g>
<!-- 9 -->
<g id="node14" class="node">
<title>9</title>
<polygon fill="gray" stroke="gray" points="196.2,-248 153,-248 153,-204.8 196.2,-204.8 196.2,-248"/>
<text text-anchor="middle" x="174.6" y="-221.72" font-family="monospace" font-size="14.00" fill="white">1</text>
</g>
<!-- 3&#45;&gt;9 -->
<!-- 4 -->
<g id="node5" class="node">
<title>4</title>
<polygon fill="none" stroke="white" points="247.2,-299.2 204,-299.2 204,-256 247.2,-256 247.2,-299.2"/>
<text text-anchor="middle" x="225.6" y="-272.92" font-family="monospace" font-size="14.00">v=3</text>
</g>
<!-- 10 -->
<g id="node15" class="node">
<title>10</title>
<polygon fill="#dddddd" stroke="#dddddd" points="247.2,-248 204,-248 204,-204.8 247.2,-204.8 247.2,-248"/>
<text text-anchor="middle" x="225.6" y="-221.72" font-family="monospace" font-size="14.00" fill="#555555">0</text>
</g>
<!-- 4&#45;&gt;10 -->
<!-- 5 -->
<g id="node6" class="node">
<title>5</title>
<polygon fill="none" stroke="white" points="298.2,-299.2 255,-299.2 255,-256 298.2,-256 298.2,-299.2"/>
<text text-anchor="middle" x="276.6" y="-272.92" font-family="monospace" font-size="14.00">v=4</text>
</g>
<!-- 11 -->
<g id="node16" class="node">
<title>11</title>
<polygon fill="#dddddd" stroke="#dddddd" points="298.2,-248 255,-248 255,-204.8 298.2,-204.8 298.2,-248"/>
<text text-anchor="middle" x="276.6" y="-221.72" font-family="monospace" font-size="14.00" fill="#555555">0</text>
</g>
<!-- 5&#45;&gt;11 -->
<!-- 12 -->
<g id="node8" class="node">
<title>12</title>
<polygon fill="none" stroke="white" points="43.2,-196.8 0,-196.8 0,-153.6 43.2,-153.6 43.2,-196.8"/>
<text text-anchor="middle" x="21.6" y="-170.52" font-family="monospace" font-size="14.00">u=1</text>
</g>
<!-- 6&#45;&gt;12 -->
<!-- 18 -->
<g id="node9" class="node">
<title>18</title>
<polygon fill="none" stroke="white" points="43.2,-145.6 0,-145.6 0,-102.4 43.2,-102.4 43.2,-145.6"/>
<text text-anchor="middle" x="21.6" y="-119.33" font-family="monospace" font-size="14.00">u=2</text>
</g>
<!-- 12&#45;&gt;18 -->
<!-- 24 -->
<g id="node10" class="node">
<title>24</title>
<polygon fill="none" stroke="white" points="43.2,-94.4 0,-94.4 0,-51.2 43.2,-51.2 43.2,-94.4"/>
<text text-anchor="middle" x="21.6" y="-68.12" font-family="monospace" font-size="14.00">u=3</text>
</g>
<!-- 18&#45;&gt;24 -->
<!-- 30 -->
<g id="node11" class="node">
<title>30</title>
<polygon fill="none" stroke="white" points="43.2,-43.2 0,-43.2 0,0 43.2,0 43.2,-43.2"/>
<text text-anchor="middle" x="21.6" y="-16.92" font-family="monospace" font-size="14.00">u=4</text>
</g>
<!-- 24&#45;&gt;30 -->
<!-- 13 -->
<g id="node17" class="node">
<title>13</title>
<polygon fill="gray" stroke="gray" points="94.2,-196.8 51,-196.8 51,-153.6 94.2,-153.6 94.2,-196.8"/>
<text text-anchor="middle" x="72.6" y="-170.52" font-family="monospace" font-size="14.00" fill="white">1</text>
</g>
<!-- 7&#45;&gt;13 -->
<!-- 14 -->
<g id="node18" class="node">
<title>14</title>
<polygon fill="none" stroke="#aaaaaa" stroke-dasharray="5,2" points="145.2,-196.8 102,-196.8 102,-153.6 145.2,-153.6 145.2,-196.8"/>
<text text-anchor="middle" x="123.6" y="-170.52" font-family="monospace" font-size="14.00" fill="white">0</text>
</g>
<!-- 8&#45;&gt;14 -->
<!-- 15 -->
<g id="node19" class="node">
<title>15</title>
<polygon fill="#dddddd" stroke="#dddddd" points="196.2,-196.8 153,-196.8 153,-153.6 196.2,-153.6 196.2,-196.8"/>
<text text-anchor="middle" x="174.6" y="-170.52" font-family="monospace" font-size="14.00" fill="#555555">0</text>
</g>
<!-- 9&#45;&gt;15 -->
<!-- 16 -->
<g id="node20" class="node">
<title>16</title>
<polygon fill="gray" stroke="gray" points="247.2,-196.8 204,-196.8 204,-153.6 247.2,-153.6 247.2,-196.8"/>
<text text-anchor="middle" x="225.6" y="-170.52" font-family="monospace" font-size="14.00" fill="white">1</text>
</g>
<!-- 10&#45;&gt;16 -->
<!-- 17 -->
<g id="node21" class="node">
<title>17</title>
<polygon fill="gray" stroke="gray" points="298.2,-196.8 255,-196.8 255,-153.6 298.2,-153.6 298.2,-196.8"/>
<text text-anchor="middle" x="276.6" y="-170.52" font-family="monospace" font-size="14.00" fill="white">1</text>
</g>
<!-- 11&#45;&gt;17 -->
<!-- 19 -->
<g id="node22" class="node">
<title>19</title>
<polygon fill="#dddddd" stroke="#dddddd" points="94.2,-145.6 51,-145.6 51,-102.4 94.2,-102.4 94.2,-145.6"/>
<text text-anchor="middle" x="72.6" y="-119.33" font-family="monospace" font-size="14.00" fill="#555555">0</text>
</g>
<!-- 13&#45;&gt;19 -->
<!-- 20 -->
<g id="node23" class="node">
<title>20</title>
<polygon fill="#dddddd" stroke="#dddddd" points="145.2,-145.6 102,-145.6 102,-102.4 145.2,-102.4 145.2,-145.6"/>
<text text-anchor="middle" x="123.6" y="-119.33" font-family="monospace" font-size="14.00" fill="#555555">0</text>
</g>
<!-- 14&#45;&gt;20 -->
<!-- 21 -->
<g id="node24" class="node">
<title>21</title>
<polygon fill="none" stroke="#aaaaaa" stroke-dasharray="5,2" points="196.2,-145.6 153,-145.6 153,-102.4 196.2,-102.4 196.2,-145.6"/>
<text text-anchor="middle" x="174.6" y="-119.33" font-family="monospace" font-size="14.00" fill="white">0</text>
</g>
<!-- 15&#45;&gt;21 -->
<!-- 22 -->
<g id="node25" class="node">
<title>22</title>
<polygon fill="#dddddd" stroke="#dddddd" points="247.2,-145.6 204,-145.6 204,-102.4 247.2,-102.4 247.2,-145.6"/>
<text text-anchor="middle" x="225.6" y="-119.33" font-family="monospace" font-size="14.00" fill="#555555">0</text>
</g>
<!-- 16&#45;&gt;22 -->
<!-- 23 -->
<g id="node26" class="node">
<title>23</title>
<polygon fill="#dddddd" stroke="#dddddd" points="298.2,-145.6 255,-145.6 255,-102.4 298.2,-102.4 298.2,-145.6"/>
<text text-anchor="middle" x="276.6" y="-119.33" font-family="monospace" font-size="14.00" fill="#555555">0</text>
</g>
<!-- 17&#45;&gt;23 -->
<!-- 25 -->
<g id="node27" class="node">
<title>25</title>
<polygon fill="gray" stroke="gray" points="94.2,-94.4 51,-94.4 51,-51.2 94.2,-51.2 94.2,-94.4"/>
<text text-anchor="middle" x="72.6" y="-68.12" font-family="monospace" font-size="14.00" fill="white">1</text>
</g>
<!-- 19&#45;&gt;25 -->
<!-- 26 -->
<g id="node28" class="node">
<title>26</title>
<polygon fill="#dddddd" stroke="#dddddd" points="145.2,-94.4 102,-94.4 102,-51.2 145.2,-51.2 145.2,-94.4"/>
<text text-anchor="middle" x="123.6" y="-68.12" font-family="monospace" font-size="14.00" fill="#555555">0</text>
</g>
<!-- 20&#45;&gt;26 -->
<!-- 27 -->
<g id="node29" class="node">
<title>27</title>
<polygon fill="gray" stroke="gray" points="196.2,-94.4 153,-94.4 153,-51.2 196.2,-51.2 196.2,-94.4"/>
<text text-anchor="middle" x="174.6" y="-68.12" font-family="monospace" font-size="14.00" fill="white">1</text>
</g>
<!-- 21&#45;&gt;27 -->
<!-- 28 -->
<g id="node30" class="node">
<title>28</title>
<polygon fill="none" stroke="#aaaaaa" stroke-dasharray="5,2" points="247.2,-94.4 204,-94.4 204,-51.2 247.2,-51.2 247.2,-94.4"/>
<text text-anchor="middle" x="225.6" y="-68.12" font-family="monospace" font-size="14.00" fill="white">0</text>
</g>
<!-- 22&#45;&gt;28 -->
<!-- 29 -->
<g id="node31" class="node">
<title>29</title>
<polygon fill="#dddddd" stroke="#dddddd" points="298.2,-94.4 255,-94.4 255,-51.2 298.2,-51.2 298.2,-94.4"/>
<text text-anchor="middle" x="276.6" y="-68.12" font-family="monospace" font-size="14.00" fill="#555555">0</text>
</g>
<!-- 23&#45;&gt;29 -->
<!-- 31 -->
<g id="node32" class="node">
<title>31</title>
<polygon fill="#dddddd" stroke="#dddddd" points="94.2,-43.2 51,-43.2 51,0 94.2,0 94.2,-43.2"/>
<text text-anchor="middle" x="72.6" y="-16.92" font-family="monospace" font-size="14.00" fill="#555555">0</text>
</g>
<!-- 25&#45;&gt;31 -->
<!-- 32 -->
<g id="node33" class="node">
<title>32</title>
<polygon fill="gray" stroke="gray" points="145.2,-43.2 102,-43.2 102,0 145.2,0 145.2,-43.2"/>
<text text-anchor="middle" x="123.6" y="-16.92" font-family="monospace" font-size="14.00" fill="white">1</text>
</g>
<!-- 26&#45;&gt;32 -->
<!-- 33 -->
<g id="node34" class="node">
<title>33</title>
<polygon fill="#dddddd" stroke="#dddddd" points="196.2,-43.2 153,-43.2 153,0 196.2,0 196.2,-43.2"/>
<text text-anchor="middle" x="174.6" y="-16.92" font-family="monospace" font-size="14.00" fill="#555555">0</text>
</g>
<!-- 27&#45;&gt;33 -->
<!-- 34 -->
<g id="node35" class="node">
<title>34</title>
<polygon fill="#dddddd" stroke="#dddddd" points="247.2,-43.2 204,-43.2 204,0 247.2,0 247.2,-43.2"/>
<text text-anchor="middle" x="225.6" y="-16.92" font-family="monospace" font-size="14.00" fill="#555555">0</text>
</g>
<!-- 28&#45;&gt;34 -->
<!-- 35 -->
<g id="node36" class="node">
<title>35</title>
<polygon fill="none" stroke="#aaaaaa" stroke-dasharray="5,2" points="298.2,-43.2 255,-43.2 255,0 298.2,0 298.2,-43.2"/>
<text text-anchor="middle" x="276.6" y="-16.92" font-family="monospace" font-size="14.00" fill="white">0</text>
</g>
<!-- 29&#45;&gt;35 -->
</g>
</svg>
