<?xml version="1.0" encoding="UTF-8" standalone="no"?>
<!DOCTYPE svg PUBLIC "-//W3C//DTD SVG 1.1//EN"
 "http://www.w3.org/Graphics/SVG/1.1/DTD/svg11.dtd">
<!-- Generated by graphviz version 12.0.0 (20240704.0754)
 -->
<!-- Pages: 1 -->
<svg width="322pt" height="328pt"
 viewBox="0.00 0.00 322.00 328.00" xmlns="http://www.w3.org/2000/svg" xmlns:xlink="http://www.w3.org/1999/xlink">
<g id="graph0" class="graph" transform="scale(1 1) rotate(0) translate(14.4 313.6)">
<polygon fill="white" stroke="none" points="-14.4,14.4 -14.4,-313.6 307.6,-313.6 307.6,14.4 -14.4,14.4"/>
<!-- 0 -->
<!-- 6 -->
<g id="node7" class="node">
<title>6</title>
<polygon fill="none" stroke="white" points="43.2,-248 0,-248 0,-204.8 43.2,-204.8 43.2,-248"/>
<text text-anchor="middle" x="21.6" y="-221.72" font-family="monospace" font-size="14.00">u=0</text>
</g>
<!-- 0&#45;&gt;6 -->
<!-- 1 -->
<g id="node2" class="node">
<title>1</title>
<polygon fill="none" stroke="white" points="93.2,-299.2 50,-299.2 50,-256 93.2,-256 93.2,-299.2"/>
<text text-anchor="middle" x="71.6" y="-272.92" font-family="monospace" font-size="14.00">v=0</text>
</g>
<!-- 7 -->
<g id="node12" class="node">
<title>7</title>
<polygon fill="none" stroke="#bbbbbb" stroke-dasharray="5,2" points="93.2,-248 50,-248 50,-204.8 93.2,-204.8 93.2,-248"/>
<text text-anchor="middle" x="71.6" y="-221.72" font-family="monospace" font-size="14.00" fill="white">0</text>
</g>
<!-- 1&#45;&gt;7 -->
<!-- 2 -->
<g id="node3" class="node">
<title>2</title>
<polygon fill="none" stroke="white" points="143.2,-299.2 100,-299.2 100,-256 143.2,-256 143.2,-299.2"/>
<text text-anchor="middle" x="121.6" y="-272.92" font-family="monospace" font-size="14.00">v=1</text>
</g>
<!-- 8 -->
<g id="node13" class="node">
<title>8</title>
<polygon fill="gray" stroke="gray" points="143.2,-248 100,-248 100,-204.8 143.2,-204.8 143.2,-248"/>
<text text-anchor="middle" x="121.6" y="-221.72" font-family="monospace" font-size="14.00" fill="white">1</text>
</g>
<!-- 2&#45;&gt;8 -->
<!-- 3 -->
<g id="node4" class="node">
<title>3</title>
<polygon fill="none" stroke="white" points="193.2,-299.2 150,-299.2 150,-256 193.2,-256 193.2,-299.2"/>
<text text-anchor="middle" x="171.6" y="-272.92" font-family="monospace" font-size="14.00">v=2</text>
</g>
<!-- 9 -->
<g id="node14" class="node">
<title>9</title>
<polygon fill="gray" stroke="gray" points="193.2,-248 150,-248 150,-204.8 193.2,-204.8 193.2,-248"/>
<text text-anchor="middle" x="171.6" y="-221.72" font-family="monospace" font-size="14.00" fill="white">1</text>
</g>
<!-- 3&#45;&gt;9 -->
<!-- 4 -->
<g id="node5" class="node">
<title>4</title>
<polygon fill="none" stroke="white" points="243.2,-299.2 200,-299.2 200,-256 243.2,-256 243.2,-299.2"/>
<text text-anchor="middle" x="221.6" y="-272.92" font-family="monospace" font-size="14.00">v=3</text>
</g>
<!-- 10 -->
<g id="node15" class="node">
<title>10</title>
<polygon fill="#dddddd" stroke="#dddddd" points="243.2,-248 200,-248 200,-204.8 243.2,-204.8 243.2,-248"/>
<text text-anchor="middle" x="221.6" y="-221.72" font-family="monospace" font-size="14.00" fill="#555555">0</text>
</g>
<!-- 4&#45;&gt;10 -->
<!-- 5 -->
<g id="node6" class="node">
<title>5</title>
<polygon fill="none" stroke="white" points="293.2,-299.2 250,-299.2 250,-256 293.2,-256 293.2,-299.2"/>
<text text-anchor="middle" x="271.6" y="-272.92" font-family="monospace" font-size="14.00">v=4</text>
</g>
<!-- 11 -->
<g id="node16" class="node">
<title>11</title>
<polygon fill="#dddddd" stroke="#dddddd" points="293.2,-248 250,-248 250,-204.8 293.2,-204.8 293.2,-248"/>
<text text-anchor="middle" x="271.6" y="-221.72" font-family="monospace" font-size="14.00" fill="#555555">0</text>
</g>
<!-- 5&#45;&gt;11 -->
<!-- 12 -->
<g id="node8" class="node">
<title>12</title>
<polygon fill="none" stroke="white" points="43.2,-196.8 0,-196.8 0,-153.6 43.2,-153.6 43.2,-196.8"/>
<text text-anchor="middle" x="21.6" y="-170.52" font-family="monospace" font-size="14.00">u=1</text>
</g>
<!-- 6&#45;&gt;12 -->
<!-- 18 -->
<g id="node9" class="node">
<title>18</title>
<polygon fill="none" stroke="white" points="43.2,-145.6 0,-145.6 0,-102.4 43.2,-102.4 43.2,-145.6"/>
<text text-anchor="middle" x="21.6" y="-119.33" font-family="monospace" font-size="14.00">u=2</text>
</g>
<!-- 12&#45;&gt;18 -->
<!-- 24 -->
<g id="node10" class="node">
<title>24</title>
<polygon fill="none" stroke="white" points="43.2,-94.4 0,-94.4 0,-51.2 43.2,-51.2 43.2,-94.4"/>
<text text-anchor="middle" x="21.6" y="-68.12" font-family="monospace" font-size="14.00">u=3</text>
</g>
<!-- 18&#45;&gt;24 -->
<!-- 30 -->
<g id="node11" class="node">
<title>30</title>
<polygon fill="none" stroke="white" points="43.2,-43.2 0,-43.2 0,0 43.2,0 43.2,-43.2"/>
<text text-anchor="middle" x="21.6" y="-16.92" font-family="monospace" font-size="14.00">u=4</text>
</g>
<!-- 24&#45;&gt;30 -->
<!-- 13 -->
<g id="node17" class="node">
<title>13</title>
<polygon fill="gray" stroke="gray" points="93.2,-196.8 50,-196.8 50,-153.6 93.2,-153.6 93.2,-196.8"/>
<text text-anchor="middle" x="71.6" y="-170.52" font-family="monospace" font-size="14.00" fill="white">1</text>
</g>
<!-- 7&#45;&gt;13 -->
<!-- 14 -->
<g id="node18" class="node">
<title>14</title>
<polygon fill="none" stroke="#bbbbbb" stroke-dasharray="5,2" points="143.2,-196.8 100,-196.8 100,-153.6 143.2,-153.6 143.2,-196.8"/>
<text text-anchor="middle" x="121.6" y="-170.52" font-family="monospace" font-size="14.00" fill="white">0</text>
</g>
<!-- 8&#45;&gt;14 -->
<!-- 15 -->
<g id="node19" class="node">
<title>15</title>
<polygon fill="#dddddd" stroke="#dddddd" points="193.2,-196.8 150,-196.8 150,-153.6 193.2,-153.6 193.2,-196.8"/>
<text text-anchor="middle" x="171.6" y="-170.52" font-family="monospace" font-size="14.00" fill="#555555">0</text>
</g>
<!-- 9&#45;&gt;15 -->
<!-- 16 -->
<g id="node20" class="node">
<title>16</title>
<polygon fill="gray" stroke="gray" points="243.2,-196.8 200,-196.8 200,-153.6 243.2,-153.6 243.2,-196.8"/>
<text text-anchor="middle" x="221.6" y="-170.52" font-family="monospace" font-size="14.00" fill="white">1</text>
</g>
<!-- 10&#45;&gt;16 -->
<!-- 17 -->
<g id="node21" class="node">
<title>17</title>
<polygon fill="gray" stroke="gray" points="293.2,-196.8 250,-196.8 250,-153.6 293.2,-153.6 293.2,-196.8"/>
<text text-anchor="middle" x="271.6" y="-170.52" font-family="monospace" font-size="14.00" fill="white">1</text>
</g>
<!-- 11&#45;&gt;17 -->
<!-- 19 -->
<g id="node22" class="node">
<title>19</title>
<polygon fill="#dddddd" stroke="#dddddd" points="93.2,-145.6 50,-145.6 50,-102.4 93.2,-102.4 93.2,-145.6"/>
<text text-anchor="middle" x="71.6" y="-119.33" font-family="monospace" font-size="14.00" fill="#555555">0</text>
</g>
<!-- 13&#45;&gt;19 -->
<!-- 20 -->
<g id="node23" class="node">
<title>20</title>
<polygon fill="#dddddd" stroke="#dddddd" points="143.2,-145.6 100,-145.6 100,-102.4 143.2,-102.4 143.2,-145.6"/>
<text text-anchor="middle" x="121.6" y="-119.33" font-family="monospace" font-size="14.00" fill="#555555">0</text>
</g>
<!-- 14&#45;&gt;20 -->
<!-- 21 -->
<g id="node24" class="node">
<title>21</title>
<polygon fill="none" stroke="#bbbbbb" stroke-dasharray="5,2" points="193.2,-145.6 150,-145.6 150,-102.4 193.2,-102.4 193.2,-145.6"/>
<text text-anchor="middle" x="171.6" y="-119.33" font-family="monospace" font-size="14.00" fill="white">0</text>
</g>
<!-- 15&#45;&gt;21 -->
<!-- 22 -->
<g id="node25" class="node">
<title>22</title>
<polygon fill="#dddddd" stroke="#dddddd" points="243.2,-145.6 200,-145.6 200,-102.4 243.2,-102.4 243.2,-145.6"/>
<text text-anchor="middle" x="221.6" y="-119.33" font-family="monospace" font-size="14.00" fill="#555555">0</text>
</g>
<!-- 16&#45;&gt;22 -->
<!-- 23 -->
<g id="node26" class="node">
<title>23</title>
<polygon fill="#dddddd" stroke="#dddddd" points="293.2,-145.6 250,-145.6 250,-102.4 293.2,-102.4 293.2,-145.6"/>
<text text-anchor="middle" x="271.6" y="-119.33" font-family="monospace" font-size="14.00" fill="#555555">0</text>
</g>
<!-- 17&#45;&gt;23 -->
<!-- 25 -->
<g id="node27" class="node">
<title>25</title>
<polygon fill="gray" stroke="gray" points="93.2,-94.4 50,-94.4 50,-51.2 93.2,-51.2 93.2,-94.4"/>
<text text-anchor="middle" x="71.6" y="-68.12" font-family="monospace" font-size="14.00" fill="white">1</text>
</g>
<!-- 19&#45;&gt;25 -->
<!-- 26 -->
<g id="node28" class="node">
<title>26</title>
<polygon fill="#dddddd" stroke="#dddddd" points="143.2,-94.4 100,-94.4 100,-51.2 143.2,-51.2 143.2,-94.4"/>
<text text-anchor="middle" x="121.6" y="-68.12" font-family="monospace" font-size="14.00" fill="#555555">0</text>
</g>
<!-- 20&#45;&gt;26 -->
<!-- 27 -->
<g id="node29" class="node">
<title>27</title>
<polygon fill="gray" stroke="gray" points="193.2,-94.4 150,-94.4 150,-51.2 193.2,-51.2 193.2,-94.4"/>
<text text-anchor="middle" x="171.6" y="-68.12" font-family="monospace" font-size="14.00" fill="white">1</text>
</g>
<!-- 21&#45;&gt;27 -->
<!-- 28 -->
<g id="node30" class="node">
<title>28</title>
<polygon fill="none" stroke="#bbbbbb" stroke-dasharray="5,2" points="243.2,-94.4 200,-94.4 200,-51.2 243.2,-51.2 243.2,-94.4"/>
<text text-anchor="middle" x="221.6" y="-68.12" font-family="monospace" font-size="14.00" fill="white">0</text>
</g>
<!-- 22&#45;&gt;28 -->
<!-- 29 -->
<g id="node31" class="node">
<title>29</title>
<polygon fill="#dddddd" stroke="#dddddd" points="293.2,-94.4 250,-94.4 250,-51.2 293.2,-51.2 293.2,-94.4"/>
<text text-anchor="middle" x="271.6" y="-68.12" font-family="monospace" font-size="14.00" fill="#555555">0</text>
</g>
<!-- 23&#45;&gt;29 -->
<!-- 31 -->
<g id="node32" class="node">
<title>31</title>
<polygon fill="#dddddd" stroke="#dddddd" points="93.2,-43.2 50,-43.2 50,0 93.2,0 93.2,-43.2"/>
<text text-anchor="middle" x="71.6" y="-16.92" font-family="monospace" font-size="14.00" fill="#555555">0</text>
</g>
<!-- 25&#45;&gt;31 -->
<!-- 32 -->
<g id="node33" class="node">
<title>32</title>
<polygon fill="gray" stroke="gray" points="143.2,-43.2 100,-43.2 100,0 143.2,0 143.2,-43.2"/>
<text text-anchor="middle" x="121.6" y="-16.92" font-family="monospace" font-size="14.00" fill="white">1</text>
</g>
<!-- 26&#45;&gt;32 -->
<!-- 33 -->
<g id="node34" class="node">
<title>33</title>
<polygon fill="#dddddd" stroke="#dddddd" points="193.2,-43.2 150,-43.2 150,0 193.2,0 193.2,-43.2"/>
<text text-anchor="middle" x="171.6" y="-16.92" font-family="monospace" font-size="14.00" fill="#555555">0</text>
</g>
<!-- 27&#45;&gt;33 -->
<!-- 34 -->
<g id="node35" class="node">
<title>34</title>
<polygon fill="#dddddd" stroke="#dddddd" points="243.2,-43.2 200,-43.2 200,0 243.2,0 243.2,-43.2"/>
<text text-anchor="middle" x="221.6" y="-16.92" font-family="monospace" font-size="14.00" fill="#555555">0</text>
</g>
<!-- 28&#45;&gt;34 -->
<!-- 35 -->
<g id="node36" class="node">
<title>35</title>
<polygon fill="none" stroke="#bbbbbb" stroke-dasharray="5,2" points="293.2,-43.2 250,-43.2 250,0 293.2,0 293.2,-43.2"/>
<text text-anchor="middle" x="271.6" y="-16.92" font-family="monospace" font-size="14.00" fill="white">0</text>
</g>
<!-- 29&#45;&gt;35 -->
</g>
</svg>
