<?xml version="1.0" encoding="UTF-8" standalone="no"?>
<!DOCTYPE svg PUBLIC "-//W3C//DTD SVG 1.1//EN"
 "http://www.w3.org/Graphics/SVG/1.1/DTD/svg11.dtd">
<!-- Generated by graphviz version 12.0.0 (20240704.0754)
 -->
<!-- Pages: 1 -->
<svg width="219pt" height="219pt"
 viewBox="0.00 0.00 218.68 218.68" xmlns="http://www.w3.org/2000/svg" xmlns:xlink="http://www.w3.org/1999/xlink">
<g id="graph0" class="graph" transform="scale(1 1) rotate(0) translate(14.4 204.28)">
<polygon fill="white" stroke="none" points="-14.4,14.4 -14.4,-204.28 204.28,-204.28 204.28,14.4 -14.4,14.4"/>
<!-- 0 -->
<g id="node1" class="node">
<title>0</title>
<ellipse fill="none" stroke="black" stroke-width="2" cx="94.94" cy="-21.6" rx="21.6" ry="21.6"/>
<text text-anchor="middle" x="94.94" y="-16.93" font-family="monospace" font-size="14.00">0</text>
</g>
<!-- 1 -->
<g id="node2" class="node">
<title>1</title>
<ellipse fill="none" stroke="black" stroke-width="2" cx="21.6" cy="-94.94" rx="21.6" ry="21.6"/>
<text text-anchor="middle" x="21.6" y="-90.26" font-family="monospace" font-size="14.00">1</text>
</g>
<!-- 0&#45;&gt;1 -->
<g id="edge1" class="edge">
<title>0&#45;&gt;1</title>
<path fill="none" stroke="black" d="M79.39,-37.15C68.59,-47.95 54.1,-62.44 42.33,-74.21"/>
<polygon fill="black" stroke="black" points="40.96,-72.61 38.2,-78.34 43.93,-75.58 40.96,-72.61"/>
</g>
<!-- 2 -->
<g id="node3" class="node">
<title>2</title>
<ellipse fill="none" stroke="black" stroke-width="2" cx="94.94" cy="-168.28" rx="21.6" ry="21.6"/>
<text text-anchor="middle" x="94.94" y="-163.6" font-family="monospace" font-size="14.00">2</text>
</g>
<!-- 1&#45;&gt;2 -->
<g id="edge2" class="edge">
<title>1&#45;&gt;2</title>
<path fill="none" stroke="black" d="M37.15,-110.49C47.95,-121.28 62.44,-135.78 74.21,-147.55"/>
<polygon fill="black" stroke="black" points="72.61,-148.92 78.34,-151.68 75.58,-145.95 72.61,-148.92"/>
</g>
<!-- 2&#45;&gt;2 -->
<g id="edge5" class="edge">
<title>2&#45;&gt;2</title>
<path fill="none" stroke="red" stroke-width="2" d="M115.72,-174.86C125.71,-175.68 134.54,-173.48 134.54,-168.28 134.54,-164.37 129.58,-162.16 122.88,-161.65"/>
<polygon fill="red" stroke="red" stroke-width="2" points="124.73,-159.53 118.75,-161.67 124.76,-163.73 124.73,-159.53"/>
</g>
<!-- 3 -->
<g id="node4" class="node">
<title>3</title>
<ellipse fill="none" stroke="black" stroke-width="2" cx="168.28" cy="-94.94" rx="21.6" ry="21.6"/>
<text text-anchor="middle" x="168.28" y="-90.26" font-family="monospace" font-size="14.00">3</text>
</g>
<!-- 3&#45;&gt;0 -->
<!-- 3&#45;&gt;2 -->
<g id="edge3" class="edge">
<title>3&#45;&gt;2</title>
<path fill="none" stroke="black" d="M152.72,-110.49C141.93,-121.28 127.44,-135.78 115.66,-147.55"/>
<polygon fill="black" stroke="black" points="114.3,-145.95 111.54,-151.68 117.27,-148.92 114.3,-145.95"/>
</g>
</g>
</svg>
