<?xml version="1.0" encoding="UTF-8" standalone="no"?>
<!DOCTYPE svg PUBLIC "-//W3C//DTD SVG 1.1//EN"
 "http://www.w3.org/Graphics/SVG/1.1/DTD/svg11.dtd">
<!-- Generated by graphviz version 12.0.0 (20240704.0754)
 -->
<!-- Pages: 1 -->
<svg width="143pt" height="143pt"
 viewBox="0.00 0.00 142.75 142.75" xmlns="http://www.w3.org/2000/svg" xmlns:xlink="http://www.w3.org/1999/xlink">
<g id="graph0" class="graph" transform="scale(1 1) rotate(0) translate(14.4 128.35)">
<polygon fill="white" stroke="none" points="-14.4,14.4 -14.4,-128.35 128.35,-128.35 128.35,14.4 -14.4,14.4"/>
<!-- 0 -->
<g id="node1" class="node">
<title>0</title>
<ellipse fill="none" stroke="black" stroke-width="2" cx="18" cy="-18" rx="18" ry="18"/>
<text text-anchor="middle" x="18" y="-13.32" font-family="monospace" font-size="14.00">0</text>
</g>
<!-- 1 -->
<g id="node2" class="node">
<title>1</title>
<ellipse fill="none" stroke="black" stroke-width="2" cx="95.95" cy="-18" rx="18" ry="18"/>
<text text-anchor="middle" x="95.95" y="-13.33" font-family="monospace" font-size="14.00">1</text>
</g>
<!-- 0&#45;&gt;1 -->
<g id="edge1" class="edge">
<title>0&#45;&gt;1</title>
<path fill="none" stroke="black" d="M35.3,-23.72C45.82,-24.84 59.44,-25.05 71.1,-24.34"/>
<polygon fill="black" stroke="black" points="71.11,-26.45 76.92,-23.87 70.77,-22.26 71.11,-26.45"/>
</g>
<!-- 0&#45;&gt;1 -->
<g id="edge4" class="edge">
<title>0&#45;&gt;1</title>
<path fill="none" stroke="red" stroke-width="2" d="M35.3,-12.28C45.82,-11.16 59.44,-10.95 71.1,-11.66"/>
<polygon fill="red" stroke="red" stroke-width="2" points="69.26,-13.62 75.41,-12.01 69.6,-9.43 69.26,-13.62"/>
</g>
<!-- 2 -->
<g id="node3" class="node">
<title>2</title>
<ellipse fill="none" stroke="black" stroke-width="2" cx="95.95" cy="-95.95" rx="18" ry="18"/>
<text text-anchor="middle" x="95.95" y="-91.27" font-family="monospace" font-size="14.00">2</text>
</g>
<!-- 1&#45;&gt;2 -->
<g id="edge2" class="edge">
<title>1&#45;&gt;2</title>
<path fill="none" stroke="black" d="M95.95,-36.47C95.95,-46.57 95.95,-59.23 95.95,-70.27"/>
<polygon fill="black" stroke="black" points="93.85,-70.09 95.95,-76.09 98.05,-70.09 93.85,-70.09"/>
</g>
<!-- 3 -->
<g id="node4" class="node">
<title>3</title>
<ellipse fill="none" stroke="black" stroke-width="2" cx="18" cy="-95.95" rx="18" ry="18"/>
<text text-anchor="middle" x="18" y="-91.27" font-family="monospace" font-size="14.00">3</text>
</g>
<!-- 3&#45;&gt;0 -->
<!-- 3&#45;&gt;2 -->
<g id="edge3" class="edge">
<title>3&#45;&gt;2</title>
<path fill="none" stroke="black" d="M36.47,-95.95C46.57,-95.95 59.23,-95.95 70.27,-95.95"/>
<polygon fill="black" stroke="black" points="70.09,-98.05 76.09,-95.95 70.09,-93.85 70.09,-98.05"/>
</g>
</g>
</svg>
