<?xml version="1.0" encoding="UTF-8" standalone="no"?>
<!DOCTYPE svg PUBLIC "-//W3C//DTD SVG 1.1//EN"
 "http://www.w3.org/Graphics/SVG/1.1/DTD/svg11.dtd">
<!-- Generated by graphviz version 12.0.0 (20240704.0754)
 -->
<!-- Pages: 1 -->
<svg width="370pt" height="228pt"
 viewBox="0.00 0.00 369.62 228.27" xmlns="http://www.w3.org/2000/svg" xmlns:xlink="http://www.w3.org/1999/xlink">
<g id="graph0" class="graph" transform="scale(1 1) rotate(0) translate(14.4 213.87)">
<polygon fill="white" stroke="none" points="-14.4,14.4 -14.4,-213.87 355.22,-213.87 355.22,14.4 -14.4,14.4"/>
<!-- 0 -->
<g id="node1" class="node">
<title>0</title>
<ellipse fill="none" stroke="black" cx="114.09" cy="-181.47" rx="18" ry="18"/>
<text text-anchor="middle" x="114.09" y="-176.8" font-family="monospace" font-size="14.00">0</text>
</g>
<!-- 1 -->
<g id="node2" class="node">
<title>1</title>
<ellipse fill="none" stroke="black" cx="173.47" cy="-99.74" rx="18" ry="18"/>
<text text-anchor="middle" x="173.47" y="-95.06" font-family="monospace" font-size="14.00">1</text>
</g>
<!-- 0&#45;&gt;1 -->
<g id="edge1" class="edge">
<title>0&#45;&gt;1</title>
<path fill="none" stroke="black" d="M128.98,-160.98C138.01,-148.55 149.49,-132.75 158.53,-120.31"/>
<polygon fill="black" stroke="black" points="127.42,-159.55 125.59,-165.64 130.82,-162.02 127.42,-159.55"/>
<polygon fill="black" stroke="black" points="160.03,-121.81 161.86,-115.72 156.63,-119.34 160.03,-121.81"/>
</g>
<!-- 4 -->
<g id="node5" class="node">
<title>4</title>
<ellipse fill="none" stroke="black" cx="18" cy="-150.25" rx="18" ry="18"/>
<text text-anchor="middle" x="18" y="-145.58" font-family="monospace" font-size="14.00">4</text>
</g>
<!-- 0&#45;&gt;4 -->
<g id="edge2" class="edge">
<title>0&#45;&gt;4</title>
<path fill="none" stroke="black" d="M96.91,-175.89C81.7,-170.95 59.33,-163.68 42.29,-158.15"/>
<polygon fill="black" stroke="black" points="43.15,-156.22 36.79,-156.36 41.85,-160.21 43.15,-156.22"/>
</g>
<!-- 7 -->
<g id="node8" class="node">
<title>7</title>
<ellipse fill="none" stroke="black" cx="245.47" cy="-99.74" rx="18" ry="18"/>
<text text-anchor="middle" x="245.47" y="-95.06" font-family="monospace" font-size="14.00">7</text>
</g>
<!-- 0&#45;&gt;7 -->
<g id="edge3" class="edge">
<title>0&#45;&gt;7</title>
<path fill="none" stroke="black" d="M129.68,-171.78C152.99,-157.28 197.02,-129.88 223.56,-113.37"/>
<polygon fill="black" stroke="black" points="224.64,-115.17 228.62,-110.22 222.42,-111.61 224.64,-115.17"/>
</g>
<!-- 2 -->
<g id="node3" class="node">
<title>2</title>
<ellipse fill="none" stroke="black" cx="114.09" cy="-18" rx="18" ry="18"/>
<text text-anchor="middle" x="114.09" y="-13.32" font-family="monospace" font-size="14.00">2</text>
</g>
<!-- 1&#45;&gt;2 -->
<g id="edge4" class="edge">
<title>1&#45;&gt;2</title>
<path fill="none" stroke="black" d="M162.86,-85.12C153.46,-72.19 139.63,-53.16 129.1,-38.67"/>
<polygon fill="black" stroke="black" points="130.93,-37.61 125.7,-33.99 127.53,-40.08 130.93,-37.61"/>
</g>
<!-- 1&#45;&gt;7 -->
<g id="edge5" class="edge">
<title>1&#45;&gt;7</title>
<path fill="none" stroke="black" d="M191.64,-99.74C200.1,-99.74 210.32,-99.74 219.58,-99.74"/>
<polygon fill="black" stroke="black" points="219.55,-101.84 225.55,-99.74 219.55,-97.64 219.55,-101.84"/>
</g>
<!-- 3 -->
<g id="node4" class="node">
<title>3</title>
<ellipse fill="none" stroke="black" cx="18" cy="-49.22" rx="18" ry="18"/>
<text text-anchor="middle" x="18" y="-44.55" font-family="monospace" font-size="14.00">3</text>
</g>
<!-- 2&#45;&gt;3 -->
<g id="edge6" class="edge">
<title>2&#45;&gt;3</title>
<path fill="none" stroke="black" d="M89.99,-25.83C75.38,-30.58 56.8,-36.61 42.18,-41.36"/>
<polygon fill="black" stroke="black" points="90.41,-27.9 95.47,-24.05 89.11,-23.91 90.41,-27.9"/>
<polygon fill="black" stroke="black" points="41.85,-39.26 36.79,-43.11 43.15,-43.26 41.85,-39.26"/>
</g>
<!-- 3&#45;&gt;4 -->
<g id="edge7" class="edge">
<title>3&#45;&gt;4</title>
<path fill="none" stroke="black" d="M18,-67.28C18,-83.28 18,-106.79 18,-124.71"/>
<polygon fill="black" stroke="black" points="15.9,-124.49 18,-130.49 20.1,-124.49 15.9,-124.49"/>
</g>
<!-- 4&#45;&gt;2 -->
<g id="edge8" class="edge">
<title>4&#45;&gt;2</title>
<path fill="none" stroke="black" d="M28.84,-135.34C46.01,-111.7 79.53,-65.56 99.03,-38.72"/>
<polygon fill="black" stroke="black" points="100.72,-39.97 102.55,-33.88 97.32,-37.5 100.72,-39.97"/>
</g>
<!-- 5 -->
<g id="node6" class="node">
<title>5</title>
<ellipse fill="none" stroke="black" cx="322.82" cy="-144.39" rx="18" ry="18"/>
<text text-anchor="middle" x="322.82" y="-139.72" font-family="monospace" font-size="14.00">5</text>
</g>
<!-- 6 -->
<g id="node7" class="node">
<title>6</title>
<ellipse fill="none" stroke="black" cx="322.82" cy="-55.08" rx="18" ry="18"/>
<text text-anchor="middle" x="322.82" y="-50.4" font-family="monospace" font-size="14.00">6</text>
</g>
<!-- 5&#45;&gt;6 -->
<g id="edge9" class="edge">
<title>5&#45;&gt;6</title>
<path fill="none" stroke="black" d="M322.82,-126.32C322.82,-113.21 322.82,-95.3 322.82,-80.71"/>
<polygon fill="black" stroke="black" points="324.92,-80.95 322.82,-74.95 320.72,-80.95 324.92,-80.95"/>
</g>
<!-- 6&#45;&gt;7 -->
<g id="edge10" class="edge">
<title>6&#45;&gt;7</title>
<path fill="none" stroke="black" d="M307.17,-64.12C295.82,-70.67 280.3,-79.63 267.67,-86.92"/>
<polygon fill="black" stroke="black" points="266.83,-84.98 262.68,-89.8 268.93,-88.62 266.83,-84.98"/>
</g>
<!-- 7&#45;&gt;5 -->
<g id="edge11" class="edge">
<title>7&#45;&gt;5</title>
<path fill="none" stroke="black" d="M261.13,-108.77C272.48,-115.33 287.99,-124.29 300.62,-131.58"/>
<polygon fill="black" stroke="black" points="299.37,-133.28 305.62,-134.46 301.47,-129.64 299.37,-133.28"/>
</g>
</g>
</svg>
