<?xml version="1.0" encoding="UTF-8" standalone="no"?>
<!DOCTYPE svg PUBLIC "-//W3C//DTD SVG 1.1//EN"
 "http://www.w3.org/Graphics/SVG/1.1/DTD/svg11.dtd">
<!-- Generated by graphviz version 12.0.0 (20240704.0754)
 -->
<!-- Pages: 1 -->
<svg width="310pt" height="228pt"
 viewBox="0.00 0.00 310.27 228.27" xmlns="http://www.w3.org/2000/svg" xmlns:xlink="http://www.w3.org/1999/xlink">
<g id="graph0" class="graph" transform="scale(1 1) rotate(0) translate(14.4 213.87)">
<polygon fill="white" stroke="none" points="-14.4,14.4 -14.4,-213.87 295.87,-213.87 295.87,14.4 -14.4,14.4"/>
<!-- 0 -->
<g id="node1" class="node">
<title>0</title>
<ellipse fill="none" stroke="black" cx="18" cy="-49.22" rx="18" ry="18"/>
<text text-anchor="middle" x="18" y="-44.55" font-family="monospace" font-size="14.00">0</text>
</g>
<!-- 4 -->
<g id="node5" class="node">
<title>4</title>
<ellipse fill="none" stroke="black" cx="18" cy="-150.25" rx="18" ry="18"/>
<text text-anchor="middle" x="18" y="-145.58" font-family="monospace" font-size="14.00">4</text>
</g>
<!-- 0&#45;&gt;4 -->
<g id="edge1" class="edge">
<title>0&#45;&gt;4</title>
<path fill="none" stroke="black" d="M18,-67.28C18,-83.56 18,-107.63 18,-125.66"/>
<polygon fill="black" stroke="black" points="16.25,-125.49 18,-130.49 19.75,-125.49 16.25,-125.49"/>
</g>
<!-- 1 -->
<g id="node2" class="node">
<title>1</title>
<ellipse fill="none" stroke="black" cx="114.09" cy="-18" rx="18" ry="18"/>
<text text-anchor="middle" x="114.09" y="-13.32" font-family="monospace" font-size="14.00">1</text>
</g>
<!-- 1&#45;&gt;0 -->
<g id="edge2" class="edge">
<title>1&#45;&gt;0</title>
<path fill="none" stroke="black" d="M96.91,-23.58C81.43,-28.61 58.53,-36.05 41.39,-41.62"/>
<polygon fill="black" stroke="black" points="41.01,-39.91 36.79,-43.11 42.09,-43.23 41.01,-39.91"/>
</g>
<!-- 2 -->
<g id="node3" class="node">
<title>2</title>
<ellipse fill="none" stroke="black" cx="173.47" cy="-99.74" rx="18" ry="18"/>
<text text-anchor="middle" x="173.47" y="-95.06" font-family="monospace" font-size="14.00">2</text>
</g>
<!-- 2&#45;&gt;1 -->
<g id="edge3" class="edge">
<title>2&#45;&gt;1</title>
<path fill="none" stroke="black" d="M162.86,-85.12C153.29,-71.96 139.14,-52.48 128.54,-37.89"/>
<polygon fill="black" stroke="black" points="130.06,-37 125.7,-33.99 127.23,-39.06 130.06,-37"/>
</g>
<!-- 3 -->
<g id="node4" class="node">
<title>3</title>
<ellipse fill="none" stroke="black" cx="263.47" cy="-99.74" rx="18" ry="18"/>
<text text-anchor="middle" x="263.47" y="-95.06" font-family="monospace" font-size="14.00">3</text>
</g>
<!-- 2&#45;&gt;3 -->
<g id="edge4" class="edge">
<title>2&#45;&gt;3</title>
<path fill="none" stroke="black" d="M191.69,-99.74C205.26,-99.74 223.94,-99.74 238.85,-99.74"/>
<polygon fill="black" stroke="black" points="238.47,-101.49 243.47,-99.74 238.47,-97.99 238.47,-101.49"/>
</g>
<!-- 5 -->
<g id="node6" class="node">
<title>5</title>
<ellipse fill="none" stroke="black" cx="114.09" cy="-181.47" rx="18" ry="18"/>
<text text-anchor="middle" x="114.09" y="-176.8" font-family="monospace" font-size="14.00">5</text>
</g>
<!-- 2&#45;&gt;5 -->
<g id="edge5" class="edge">
<title>2&#45;&gt;5</title>
<path fill="none" stroke="black" d="M162.86,-114.35C153.29,-127.52 139.14,-146.99 128.54,-161.58"/>
<polygon fill="black" stroke="black" points="127.23,-160.41 125.7,-165.49 130.06,-162.47 127.23,-160.41"/>
</g>
<!-- 5&#45;&gt;4 -->
<g id="edge6" class="edge">
<title>5&#45;&gt;4</title>
<path fill="none" stroke="black" d="M96.91,-175.89C81.43,-170.86 58.53,-163.42 41.39,-157.85"/>
<polygon fill="black" stroke="black" points="42.09,-156.24 36.79,-156.36 41.01,-159.57 42.09,-156.24"/>
</g>
</g>
</svg>
