<?xml version="1.0" encoding="UTF-8" standalone="no"?>
<!DOCTYPE svg PUBLIC "-//W3C//DTD SVG 1.1//EN"
 "http://www.w3.org/Graphics/SVG/1.1/DTD/svg11.dtd">
<!-- Generated by graphviz version 12.0.0 (20240704.0754)
 -->
<!-- Pages: 1 -->
<svg width="142pt" height="337pt"
 viewBox="0.00 0.00 141.67 336.66" xmlns="http://www.w3.org/2000/svg" xmlns:xlink="http://www.w3.org/1999/xlink">
<g id="graph0" class="graph" transform="scale(1 1) rotate(0) translate(14.4 322.26)">
<polygon fill="white" stroke="none" points="-14.4,14.4 -14.4,-322.26 127.27,-322.26 127.27,14.4 -14.4,14.4"/>
<!-- 0 -->
<g id="node1" class="node">
<title>0</title>
<ellipse fill="none" stroke="black" cx="18.51" cy="-149.18" rx="18" ry="18"/>
<text text-anchor="middle" x="18.51" y="-144.51" font-family="monospace" font-size="14.00">0</text>
</g>
<!-- 1 -->
<g id="node2" class="node">
<title>1</title>
<ellipse fill="none" stroke="black" cx="94.36" cy="-149.18" rx="18" ry="18"/>
<text text-anchor="middle" x="94.36" y="-144.51" font-family="monospace" font-size="14.00">1</text>
</g>
<!-- 0&#45;&gt;1 -->
<g id="edge1" class="edge">
<title>0&#45;&gt;1</title>
<path fill="none" stroke="black" d="M44.16,-149.18C52.13,-149.18 60.91,-149.18 68.87,-149.18"/>
<polygon fill="black" stroke="black" points="44.38,-147.08 38.38,-149.18 44.38,-151.28 44.38,-147.08"/>
<polygon fill="black" stroke="black" points="68.39,-151.28 74.39,-149.18 68.39,-147.08 68.39,-151.28"/>
</g>
<!-- 4 -->
<g id="node5" class="node">
<title>4</title>
<ellipse fill="none" stroke="black" cx="18" cy="-227.53" rx="18" ry="18"/>
<text text-anchor="middle" x="18" y="-222.86" font-family="monospace" font-size="14.00">4</text>
</g>
<!-- 0&#45;&gt;4 -->
<g id="edge2" class="edge">
<title>0&#45;&gt;4</title>
<path fill="none" stroke="black" d="M18.39,-167.36C18.33,-177.57 18.24,-190.48 18.17,-201.72"/>
<polygon fill="black" stroke="black" points="16.07,-201.66 18.13,-207.67 20.27,-201.69 16.07,-201.66"/>
</g>
<!-- 7 -->
<g id="node8" class="node">
<title>7</title>
<ellipse fill="none" stroke="black" cx="56.44" cy="-84.64" rx="18" ry="18"/>
<text text-anchor="middle" x="56.44" y="-79.97" font-family="monospace" font-size="14.00">7</text>
</g>
<!-- 0&#45;&gt;7 -->
<g id="edge3" class="edge">
<title>0&#45;&gt;7</title>
<path fill="none" stroke="black" d="M27.69,-133.56C32.37,-125.59 38.15,-115.76 43.29,-107.01"/>
<polygon fill="black" stroke="black" points="45.08,-108.11 46.31,-101.88 41.46,-105.99 45.08,-108.11"/>
</g>
<!-- 2 -->
<g id="node3" class="node">
<title>2</title>
<ellipse fill="none" stroke="black" cx="94.87" cy="-227.54" rx="18" ry="18"/>
<text text-anchor="middle" x="94.87" y="-222.86" font-family="monospace" font-size="14.00">2</text>
</g>
<!-- 1&#45;&gt;2 -->
<g id="edge4" class="edge">
<title>1&#45;&gt;2</title>
<path fill="none" stroke="black" d="M94.48,-167.36C94.54,-177.57 94.63,-190.48 94.7,-201.73"/>
<polygon fill="black" stroke="black" points="92.6,-201.69 94.74,-207.68 96.8,-201.66 92.6,-201.69"/>
</g>
<!-- 1&#45;&gt;7 -->
<g id="edge5" class="edge">
<title>1&#45;&gt;7</title>
<path fill="none" stroke="black" d="M85.18,-133.56C80.5,-125.59 74.72,-115.76 69.58,-107.01"/>
<polygon fill="black" stroke="black" points="71.41,-105.99 66.56,-101.88 67.79,-108.11 71.41,-105.99"/>
</g>
<!-- 3 -->
<g id="node4" class="node">
<title>3</title>
<ellipse fill="none" stroke="black" cx="56.43" cy="-289.86" rx="18" ry="18"/>
<text text-anchor="middle" x="56.43" y="-285.19" font-family="monospace" font-size="14.00">3</text>
</g>
<!-- 2&#45;&gt;3 -->
<g id="edge6" class="edge">
<title>2&#45;&gt;3</title>
<path fill="none" stroke="black" d="M81.42,-249.34C77.69,-255.4 73.63,-261.98 69.89,-268.04"/>
<polygon fill="black" stroke="black" points="83.01,-250.76 84.37,-244.55 79.44,-248.56 83.01,-250.76"/>
<polygon fill="black" stroke="black" points="68.15,-266.86 66.79,-273.07 71.73,-269.06 68.15,-266.86"/>
</g>
<!-- 3&#45;&gt;4 -->
<g id="edge7" class="edge">
<title>3&#45;&gt;4</title>
<path fill="none" stroke="black" d="M46.73,-274.14C42.06,-266.55 36.37,-257.33 31.3,-249.1"/>
<polygon fill="black" stroke="black" points="33.29,-248.33 28.36,-244.33 29.72,-250.54 33.29,-248.33"/>
</g>
<!-- 4&#45;&gt;2 -->
<g id="edge8" class="edge">
<title>4&#45;&gt;2</title>
<path fill="none" stroke="black" d="M36.22,-227.53C46.1,-227.53 58.48,-227.53 69.31,-227.53"/>
<polygon fill="black" stroke="black" points="69,-229.63 75,-227.54 69,-225.43 69,-229.63"/>
</g>
<!-- 5 -->
<g id="node6" class="node">
<title>5</title>
<ellipse fill="none" stroke="black" cx="91.24" cy="-18" rx="18" ry="18"/>
<text text-anchor="middle" x="91.24" y="-13.33" font-family="monospace" font-size="14.00">5</text>
</g>
<!-- 6 -->
<g id="node7" class="node">
<title>6</title>
<ellipse fill="none" stroke="black" cx="21.63" cy="-18" rx="18" ry="18"/>
<text text-anchor="middle" x="21.63" y="-13.32" font-family="monospace" font-size="14.00">6</text>
</g>
<!-- 5&#45;&gt;6 -->
<g id="edge9" class="edge">
<title>5&#45;&gt;6</title>
<path fill="none" stroke="black" d="M72.95,-18C65.18,-18 55.98,-18 47.53,-18"/>
<polygon fill="black" stroke="black" points="47.56,-15.9 41.56,-18 47.56,-20.1 47.56,-15.9"/>
</g>
<!-- 6&#45;&gt;7 -->
<g id="edge10" class="edge">
<title>6&#45;&gt;7</title>
<path fill="none" stroke="black" d="M30.06,-34.13C34.46,-42.56 39.92,-53.02 44.73,-62.22"/>
<polygon fill="black" stroke="black" points="42.75,-62.97 47.39,-67.32 46.47,-61.03 42.75,-62.97"/>
</g>
<!-- 7&#45;&gt;5 -->
<g id="edge11" class="edge">
<title>7&#45;&gt;5</title>
<path fill="none" stroke="black" d="M64.86,-68.51C69.26,-60.08 74.72,-49.63 79.53,-40.42"/>
<polygon fill="black" stroke="black" points="81.28,-41.62 82.19,-35.33 77.55,-39.67 81.28,-41.62"/>
</g>
</g>
</svg>
