<?xml version="1.0" encoding="UTF-8" standalone="no"?>
<!DOCTYPE svg PUBLIC "-//W3C//DTD SVG 1.1//EN"
 "http://www.w3.org/Graphics/SVG/1.1/DTD/svg11.dtd">
<!-- Generated by graphviz version 12.0.0 (20240704.0754)
 -->
<!-- Pages: 1 -->
<svg width="259pt" height="188pt"
 viewBox="0.00 0.00 259.09 188.48" xmlns="http://www.w3.org/2000/svg" xmlns:xlink="http://www.w3.org/1999/xlink">
<g id="graph0" class="graph" transform="scale(1 1) rotate(0) translate(14.4 174.08)">
<polygon fill="white" stroke="none" points="-14.4,14.4 -14.4,-174.08 244.69,-174.08 244.69,14.4 -14.4,14.4"/>
<!-- 1 -->
<g id="node1" class="node">
<title>1</title>
<ellipse fill="none" stroke="black" cx="18" cy="-79.66" rx="18" ry="18"/>
<text text-anchor="middle" x="18" y="-74.99" font-family="monospace" font-size="14.00">1</text>
</g>
<!-- 2 -->
<g id="node2" class="node">
<title>2</title>
<ellipse fill="none" stroke="black" cx="92.67" cy="-79.66" rx="18" ry="18"/>
<text text-anchor="middle" x="92.67" y="-74.99" font-family="monospace" font-size="14.00">2</text>
</g>
<!-- 1&#45;&gt;2 -->
<g id="edge3" class="edge">
<title>1&#45;&gt;2</title>
<path fill="none" stroke="black" d="M36.46,-79.66C45.95,-79.66 57.66,-79.66 67.92,-79.66"/>
<polygon fill="black" stroke="black" points="67.91,-81.41 72.91,-79.66 67.91,-77.91 67.91,-81.41"/>
<text text-anchor="middle" x="46.94" y="-82.36" font-family="monospace" font-size="9.00">&#45;5</text>
</g>
<!-- 3 -->
<g id="node3" class="node">
<title>3</title>
<ellipse fill="none" stroke="black" cx="137.39" cy="-18.22" rx="18" ry="18"/>
<text text-anchor="middle" x="137.39" y="-13.54" font-family="monospace" font-size="14.00">3</text>
</g>
<!-- 2&#45;&gt;3 -->
<g id="edge4" class="edge">
<title>2&#45;&gt;3</title>
<path fill="none" stroke="black" d="M103.49,-64.79C109.32,-56.79 116.57,-46.81 122.88,-38.15"/>
<polygon fill="black" stroke="black" points="124.24,-39.25 125.77,-34.18 121.41,-37.19 124.24,-39.25"/>
<text text-anchor="middle" x="105.31" y="-42.92" font-family="monospace" font-size="9.00"> &#45;2</text>
</g>
<!-- 4 -->
<g id="node4" class="node">
<title>4</title>
<ellipse fill="none" stroke="black" cx="168.66" cy="-78.74" rx="18" ry="18"/>
<text text-anchor="middle" x="168.66" y="-74.06" font-family="monospace" font-size="14.00">4</text>
</g>
<!-- 2&#45;&gt;4 -->
<g id="edge5" class="edge">
<title>2&#45;&gt;4</title>
<path fill="none" stroke="black" d="M111.06,-79.44C120.89,-79.32 133.11,-79.17 143.77,-79.04"/>
<polygon fill="black" stroke="black" points="143.68,-80.79 148.66,-78.98 143.64,-77.29 143.68,-80.79"/>
<text text-anchor="middle" x="124.79" y="-81.94" font-family="monospace" font-size="9.00">4</text>
</g>
<!-- 5 -->
<g id="node5" class="node">
<title>5</title>
<ellipse fill="none" stroke="black" cx="212.29" cy="-18" rx="18" ry="18"/>
<text text-anchor="middle" x="212.29" y="-13.32" font-family="monospace" font-size="14.00">5</text>
</g>
<!-- 3&#45;&gt;5 -->
<g id="edge6" class="edge">
<title>3&#45;&gt;5</title>
<path fill="none" stroke="black" d="M154.78,-23.97C164.82,-24.99 177.6,-25.13 188.56,-24.4"/>
<polygon fill="black" stroke="black" points="188.43,-26.17 193.26,-24 188.13,-22.68 188.43,-26.17"/>
<text text-anchor="middle" x="166.42" y="-26.88" font-family="monospace" font-size="9.00">&#45;2</text>
</g>
<!-- 4&#45;&gt;3 -->
<g id="edge7" class="edge">
<title>4&#45;&gt;3</title>
<path fill="none" stroke="black" d="M160.28,-62.52C156.7,-55.6 152.48,-47.42 148.64,-39.99"/>
<polygon fill="black" stroke="black" points="150.34,-39.46 146.49,-35.82 147.23,-41.07 150.34,-39.46"/>
<text text-anchor="middle" x="143.96" y="-42.7" font-family="monospace" font-size="9.00">10 &#160;</text>
</g>
<!-- 4&#45;&gt;5 -->
<g id="edge8" class="edge">
<title>4&#45;&gt;5</title>
<path fill="none" stroke="black" d="M183.49,-68.03C190.25,-60.45 197.89,-50.1 203.73,-40.75"/>
<polygon fill="black" stroke="black" points="205.09,-41.88 206.16,-36.69 202.09,-40.08 205.09,-41.88"/>
<text text-anchor="middle" x="188.36" y="-45.84" font-family="monospace" font-size="9.00">9 </text>
</g>
<!-- 5&#45;&gt;3 -->
<g id="edge9" class="edge">
<title>5&#45;&gt;3</title>
<path fill="none" stroke="black" d="M194.9,-12.25C184.86,-11.22 172.08,-11.08 161.12,-11.82"/>
<polygon fill="black" stroke="black" points="161.25,-10.05 156.42,-12.22 161.55,-13.54 161.25,-10.05"/>
<text text-anchor="middle" x="175.39" y="-14.73" font-family="monospace" font-size="9.00">5</text>
</g>
<!-- 5&#45;&gt;4 -->
<g id="edge10" class="edge">
<title>5&#45;&gt;4</title>
<path fill="none" stroke="black" d="M197.46,-28.7C190.71,-36.29 183.06,-46.64 177.23,-55.99"/>
<polygon fill="black" stroke="black" points="175.86,-54.86 174.8,-60.05 178.87,-56.65 175.86,-54.86"/>
<text text-anchor="middle" x="179.47" y="-33.79" font-family="monospace" font-size="9.00">&#45;3 </text>
</g>
<!-- 0 -->
<g id="node6" class="node">
<title>0</title>
<ellipse fill="none" stroke="black" cx="50.91" cy="-141.68" rx="18" ry="18"/>
<text text-anchor="middle" x="50.91" y="-137.01" font-family="monospace" font-size="14.00">0</text>
</g>
<!-- 0&#45;&gt;1 -->
<g id="edge1" class="edge">
<title>0&#45;&gt;1</title>
<path fill="none" stroke="black" d="M42.27,-125.39C38.3,-117.92 33.56,-108.98 29.32,-100.98"/>
<polygon fill="black" stroke="black" points="31.08,-100.57 27.19,-96.97 27.98,-102.21 31.08,-100.57"/>
<text text-anchor="middle" x="27.92" y="-104.64" font-family="monospace" font-size="9.00">8 &#160;</text>
</g>
<!-- 0&#45;&gt;2 -->
<g id="edge2" class="edge">
<title>0&#45;&gt;2</title>
<path fill="none" stroke="black" d="M61.24,-126.35C66.6,-118.39 73.21,-108.56 78.99,-99.97"/>
<polygon fill="black" stroke="black" points="80.28,-101.2 81.62,-96.07 77.38,-99.24 80.28,-101.2"/>
<text text-anchor="middle" x="64.86" y="-104.61" font-family="monospace" font-size="9.00">3 </text>
</g>
</g>
</svg>
