<?xml version="1.0" encoding="UTF-8" standalone="no"?>
<!DOCTYPE svg PUBLIC "-//W3C//DTD SVG 1.1//EN"
 "http://www.w3.org/Graphics/SVG/1.1/DTD/svg11.dtd">
<!-- Generated by graphviz version 12.0.0 (20240704.0754)
 -->
<!-- Pages: 1 -->
<svg width="297pt" height="221pt"
 viewBox="0.00 0.00 296.99 221.37" xmlns="http://www.w3.org/2000/svg" xmlns:xlink="http://www.w3.org/1999/xlink">
<g id="graph0" class="graph" transform="scale(1 1) rotate(0) translate(14.4 206.97)">
<polygon fill="white" stroke="none" points="-14.4,14.4 -14.4,-206.97 282.59,-206.97 282.59,14.4 -14.4,14.4"/>
<!-- 1 -->
<g id="node1" class="node">
<title>1</title>
<ellipse fill="none" stroke="black" cx="18" cy="-100.19" rx="18" ry="18"/>
<text text-anchor="middle" x="18" y="-95.51" font-family="monospace" font-size="14.00">1</text>
</g>
<!-- 2 -->
<g id="node2" class="node">
<title>2</title>
<ellipse fill="none" stroke="black" cx="107.65" cy="-100.19" rx="18" ry="18"/>
<text text-anchor="middle" x="107.65" y="-95.51" font-family="monospace" font-size="14.00">2</text>
</g>
<!-- 1&#45;&gt;2 -->
<g id="edge3" class="edge">
<title>1&#45;&gt;2</title>
<path fill="none" stroke="black" d="M36.14,-100.19C49.54,-100.19 67.94,-100.19 82.73,-100.19"/>
<polygon fill="black" stroke="black" points="82.72,-101.94 87.72,-100.19 82.72,-98.44 82.72,-101.94"/>
<text text-anchor="start" x="45.93" y="-105.89" font-family="monospace" font-size="9.00">&#45;5</text>
</g>
<!-- 3 -->
<g id="node3" class="node">
<title>3</title>
<ellipse fill="none" stroke="black" cx="198.82" cy="-97.97" rx="18" ry="18"/>
<text text-anchor="middle" x="198.82" y="-93.29" font-family="monospace" font-size="14.00">3</text>
</g>
<!-- 2&#45;&gt;3 -->
<g id="edge4" class="edge">
<title>2&#45;&gt;3</title>
<path fill="none" stroke="black" d="M126.1,-99.74C139.94,-99.4 159.03,-98.94 174.17,-98.57"/>
<polygon fill="black" stroke="black" points="173.93,-100.33 178.88,-98.45 173.84,-96.83 173.93,-100.33"/>
<text text-anchor="start" x="137.64" y="-103.85" font-family="monospace" font-size="9.00">&#45;2</text>
</g>
<!-- 4 -->
<g id="node4" class="node">
<title>4</title>
<ellipse fill="none" stroke="black" cx="160.4" cy="-25.8" rx="18" ry="18"/>
<text text-anchor="middle" x="160.4" y="-21.12" font-family="monospace" font-size="14.00">4</text>
</g>
<!-- 2&#45;&gt;4 -->
<g id="edge5" class="edge">
<title>2&#45;&gt;4</title>
<path fill="none" stroke="black" d="M118.33,-85.13C126.33,-73.84 137.38,-58.27 146.14,-45.91"/>
<polygon fill="black" stroke="black" points="147.4,-47.16 148.86,-42.06 144.55,-45.13 147.4,-47.16"/>
<text text-anchor="start" x="123.98" y="-53.97" font-family="monospace" font-size="9.00">4</text>
</g>
<!-- 5 -->
<g id="node5" class="node">
<title>5</title>
<ellipse fill="none" stroke="black" cx="250.19" cy="-24.31" rx="18" ry="18"/>
<text text-anchor="middle" x="250.19" y="-19.63" font-family="monospace" font-size="14.00">5</text>
</g>
<!-- 3&#45;&gt;5 -->
<g id="edge6" class="edge">
<title>3&#45;&gt;5</title>
<path fill="none" stroke="black" d="M213.2,-86.89C222.34,-76.41 233.67,-60.5 241.51,-47.32"/>
<polygon fill="black" stroke="black" points="242.92,-48.38 243.89,-43.17 239.88,-46.64 242.92,-48.38"/>
<text text-anchor="start" x="230.36" y="-72.8" font-family="monospace" font-size="9.00">&#45;2</text>
</g>
<!-- 4&#45;&gt;3 -->
<g id="edge7" class="edge">
<title>4&#45;&gt;3</title>
<path fill="none" stroke="black" d="M168.92,-41.82C174.31,-51.93 181.33,-65.13 187.22,-76.19"/>
<polygon fill="black" stroke="black" points="185.58,-76.82 189.47,-80.41 188.67,-75.17 185.58,-76.82"/>
<text text-anchor="start" x="165.57" y="-63.7" font-family="monospace" font-size="9.00">10</text>
</g>
<!-- 4&#45;&gt;5 -->
<g id="edge8" class="edge">
<title>4&#45;&gt;5</title>
<path fill="none" stroke="black" d="M177.8,-30.97C191.65,-32.24 211.17,-32.11 226.46,-30.74"/>
<polygon fill="black" stroke="black" points="226.42,-32.51 231.21,-30.24 226.06,-29.03 226.42,-32.51"/>
<text text-anchor="start" x="193.88" y="-36.56" font-family="monospace" font-size="9.00">9</text>
</g>
<!-- 5&#45;&gt;3 -->
<g id="edge9" class="edge">
<title>5&#45;&gt;3</title>
<path fill="none" stroke="black" d="M235.81,-35.39C226.67,-45.87 215.34,-61.77 207.5,-74.96"/>
<polygon fill="black" stroke="black" points="206.09,-73.9 205.12,-79.11 209.13,-75.64 206.09,-73.9"/>
<polygon fill="#ffffff" fill-opacity="0.733333" stroke="none" points="210.41,-57.17 210.41,-72.42 219.66,-72.42 219.66,-57.17 210.41,-57.17"/>
<text text-anchor="start" x="212.41" y="-61.87" font-family="monospace" font-size="9.00">5</text>
</g>
<!-- 5&#45;&gt;4 -->
<g id="edge10" class="edge">
<title>5&#45;&gt;4</title>
<path fill="none" stroke="black" d="M232.79,-19.14C218.94,-17.87 199.42,-18 184.13,-19.36"/>
<polygon fill="black" stroke="black" points="184.17,-17.6 179.38,-19.86 184.53,-21.08 184.17,-17.6"/>
<text text-anchor="start" x="193.96" y="-6.7" font-family="monospace" font-size="9.00">&#45;3</text>
</g>
<!-- 0 -->
<g id="node6" class="node">
<title>0</title>
<ellipse fill="none" stroke="black" cx="57.6" cy="-174.57" rx="18" ry="18"/>
<text text-anchor="middle" x="57.6" y="-169.89" font-family="monospace" font-size="14.00">0</text>
</g>
<!-- 0&#45;&gt;1 -->
<g id="edge1" class="edge">
<title>0&#45;&gt;1</title>
<path fill="none" stroke="black" d="M49,-158.43C43.3,-147.71 35.74,-133.5 29.51,-121.81"/>
<polygon fill="black" stroke="black" points="31.18,-121.22 27.29,-117.63 28.09,-122.87 31.18,-121.22"/>
<text text-anchor="start" x="32.01" y="-144.82" font-family="monospace" font-size="9.00">8</text>
</g>
<!-- 0&#45;&gt;2 -->
<g id="edge2" class="edge">
<title>0&#45;&gt;2</title>
<path fill="none" stroke="black" d="M67.73,-159.51C75.21,-148.4 85.48,-133.13 93.74,-120.87"/>
<polygon fill="black" stroke="black" points="95.18,-121.85 96.52,-116.73 92.28,-119.9 95.18,-121.85"/>
<text text-anchor="start" x="72.48" y="-128.64" font-family="monospace" font-size="9.00">3</text>
</g>
</g>
</svg>
