<?xml version="1.0" encoding="UTF-8" standalone="no"?>
<!DOCTYPE svg PUBLIC "-//W3C//DTD SVG 1.1//EN"
 "http://www.w3.org/Graphics/SVG/1.1/DTD/svg11.dtd">
<!-- Generated by graphviz version 12.0.0 (20240704.0754)
 -->
<!-- Pages: 1 -->
<svg width="370pt" height="228pt"
 viewBox="0.00 0.00 369.62 228.27" xmlns="http://www.w3.org/2000/svg" xmlns:xlink="http://www.w3.org/1999/xlink">
<g id="graph0" class="graph" transform="scale(1 1) rotate(0) translate(14.4 213.87)">
<polygon fill="white" stroke="none" points="-14.4,14.4 -14.4,-213.87 355.22,-213.87 355.22,14.4 -14.4,14.4"/>
<!-- 0 -->
<g id="node1" class="node">
<title>0</title>
<ellipse fill="none" stroke="black" cx="114.09" cy="-181.47" rx="18" ry="18"/>
<text text-anchor="middle" x="114.09" y="-176.8" font-family="monospace" font-size="14.00">0</text>
</g>
<!-- 1 -->
<g id="node2" class="node">
<title>1</title>
<ellipse fill="none" stroke="black" cx="173.47" cy="-99.74" rx="18" ry="18"/>
<text text-anchor="middle" x="173.47" y="-95.06" font-family="monospace" font-size="14.00">1</text>
</g>
<!-- 0&#45;&gt;1 -->
<g id="edge1" class="edge">
<title>0&#45;&gt;1</title>
<path fill="none" stroke="black" d="M128.42,-161.75C137.67,-149.01 149.66,-132.51 158.95,-119.73"/>
<polygon fill="black" stroke="black" points="127.12,-160.56 125.59,-165.64 129.95,-162.62 127.12,-160.56"/>
<polygon fill="black" stroke="black" points="160.34,-120.8 161.86,-115.72 157.5,-118.74 160.34,-120.8"/>
</g>
<!-- 4 -->
<g id="node5" class="node">
<title>4</title>
<ellipse fill="none" stroke="black" cx="18" cy="-150.25" rx="18" ry="18"/>
<text text-anchor="middle" x="18" y="-145.58" font-family="monospace" font-size="14.00">4</text>
</g>
<!-- 0&#45;&gt;4 -->
<g id="edge2" class="edge">
<title>0&#45;&gt;4</title>
<path fill="none" stroke="black" d="M96.91,-175.89C81.43,-170.86 58.53,-163.42 41.39,-157.85"/>
<polygon fill="black" stroke="black" points="42.09,-156.24 36.79,-156.36 41.01,-159.57 42.09,-156.24"/>
</g>
<!-- 7 -->
<g id="node8" class="node">
<title>7</title>
<ellipse fill="none" stroke="black" cx="245.47" cy="-99.74" rx="18" ry="18"/>
<text text-anchor="middle" x="245.47" y="-95.06" font-family="monospace" font-size="14.00">7</text>
</g>
<!-- 0&#45;&gt;7 -->
<g id="edge3" class="edge">
<title>0&#45;&gt;7</title>
<path fill="none" stroke="black" d="M129.68,-171.78C153.28,-157.09 198.14,-129.18 224.56,-112.75"/>
<polygon fill="black" stroke="black" points="225.3,-114.35 228.62,-110.22 223.45,-111.38 225.3,-114.35"/>
</g>
<!-- 2 -->
<g id="node3" class="node">
<title>2</title>
<ellipse fill="none" stroke="black" cx="114.09" cy="-18" rx="18" ry="18"/>
<text text-anchor="middle" x="114.09" y="-13.32" font-family="monospace" font-size="14.00">2</text>
</g>
<!-- 1&#45;&gt;2 -->
<g id="edge4" class="edge">
<title>1&#45;&gt;2</title>
<path fill="none" stroke="black" d="M162.86,-85.12C153.29,-71.96 139.14,-52.48 128.54,-37.89"/>
<polygon fill="black" stroke="black" points="130.06,-37 125.7,-33.99 127.23,-39.06 130.06,-37"/>
</g>
<!-- 1&#45;&gt;7 -->
<g id="edge5" class="edge">
<title>1&#45;&gt;7</title>
<path fill="none" stroke="black" d="M191.64,-99.74C200.44,-99.74 211.15,-99.74 220.68,-99.74"/>
<polygon fill="black" stroke="black" points="220.55,-101.49 225.55,-99.74 220.55,-97.99 220.55,-101.49"/>
</g>
<!-- 3 -->
<g id="node4" class="node">
<title>3</title>
<ellipse fill="none" stroke="black" cx="18" cy="-49.22" rx="18" ry="18"/>
<text text-anchor="middle" x="18" y="-44.55" font-family="monospace" font-size="14.00">3</text>
</g>
<!-- 2&#45;&gt;3 -->
<g id="edge6" class="edge">
<title>2&#45;&gt;3</title>
<path fill="none" stroke="black" d="M90.89,-25.54C75.93,-30.4 56.52,-36.7 41.5,-41.59"/>
<polygon fill="black" stroke="black" points="91.26,-27.26 95.47,-24.05 90.17,-23.93 91.26,-27.26"/>
<polygon fill="black" stroke="black" points="41.01,-39.91 36.79,-43.11 42.09,-43.23 41.01,-39.91"/>
</g>
<!-- 3&#45;&gt;4 -->
<g id="edge7" class="edge">
<title>3&#45;&gt;4</title>
<path fill="none" stroke="black" d="M18,-67.28C18,-83.56 18,-107.63 18,-125.66"/>
<polygon fill="black" stroke="black" points="16.25,-125.49 18,-130.49 19.75,-125.49 16.25,-125.49"/>
</g>
<!-- 4&#45;&gt;2 -->
<g id="edge8" class="edge">
<title>4&#45;&gt;2</title>
<path fill="none" stroke="black" d="M28.84,-135.34C46.23,-111.4 80.39,-64.39 99.77,-37.71"/>
<polygon fill="black" stroke="black" points="101.03,-38.96 102.55,-33.88 98.19,-36.9 101.03,-38.96"/>
</g>
<!-- 5 -->
<g id="node6" class="node">
<title>5</title>
<ellipse fill="none" stroke="black" cx="322.82" cy="-144.39" rx="18" ry="18"/>
<text text-anchor="middle" x="322.82" y="-139.72" font-family="monospace" font-size="14.00">5</text>
</g>
<!-- 6 -->
<g id="node7" class="node">
<title>6</title>
<ellipse fill="none" stroke="black" cx="322.82" cy="-55.08" rx="18" ry="18"/>
<text text-anchor="middle" x="322.82" y="-50.4" font-family="monospace" font-size="14.00">6</text>
</g>
<!-- 5&#45;&gt;6 -->
<g id="edge9" class="edge">
<title>5&#45;&gt;6</title>
<path fill="none" stroke="black" d="M322.82,-126.32C322.82,-112.97 322.82,-94.64 322.82,-79.91"/>
<polygon fill="black" stroke="black" points="324.57,-79.95 322.82,-74.95 321.07,-79.95 324.57,-79.95"/>
</g>
<!-- 6&#45;&gt;7 -->
<g id="edge10" class="edge">
<title>6&#45;&gt;7</title>
<path fill="none" stroke="black" d="M307.17,-64.12C295.61,-70.79 279.73,-79.96 266.98,-87.32"/>
<polygon fill="black" stroke="black" points="266.13,-85.79 262.68,-89.8 267.88,-88.82 266.13,-85.79"/>
</g>
<!-- 7&#45;&gt;5 -->
<g id="edge11" class="edge">
<title>7&#45;&gt;5</title>
<path fill="none" stroke="black" d="M261.13,-108.77C272.69,-115.45 288.56,-124.62 301.32,-131.98"/>
<polygon fill="black" stroke="black" points="300.41,-133.48 305.62,-134.46 302.16,-130.45 300.41,-133.48"/>
</g>
</g>
</svg>
