<?xml version="1.0" encoding="UTF-8" standalone="no"?>
<!DOCTYPE svg PUBLIC "-//W3C//DTD SVG 1.1//EN"
 "http://www.w3.org/Graphics/SVG/1.1/DTD/svg11.dtd">
<!-- Generated by graphviz version 12.0.0 (20240704.0754)
 -->
<!-- Pages: 1 -->
<svg width="190pt" height="266pt"
 viewBox="0.00 0.00 190.30 265.99" xmlns="http://www.w3.org/2000/svg" xmlns:xlink="http://www.w3.org/1999/xlink">
<g id="graph0" class="graph" transform="scale(1 1) rotate(0) translate(14.4 251.59)">
<polygon fill="white" stroke="none" points="-14.4,14.4 -14.4,-251.59 175.9,-251.59 175.9,14.4 -14.4,14.4"/>
<!-- 0 -->
<g id="node1" class="node">
<title>0</title>
<ellipse fill="none" stroke="black" cx="41.41" cy="-219.19" rx="18" ry="18"/>
<text text-anchor="middle" x="41.41" y="-214.51" font-family="monospace" font-size="14.00">0</text>
</g>
<!-- 4 -->
<g id="node2" class="node">
<title>4</title>
<ellipse fill="none" stroke="black" cx="120.09" cy="-219.19" rx="18" ry="18"/>
<text text-anchor="middle" x="120.09" y="-214.51" font-family="monospace" font-size="14.00">4</text>
</g>
<!-- 0&#45;&gt;4 -->
<g id="edge1" class="edge">
<title>0&#45;&gt;4</title>
<path fill="none" stroke="black" d="M59.66,-219.19C69.91,-219.19 82.88,-219.19 94.17,-219.19"/>
<polygon fill="black" stroke="black" points="94.15,-221.29 100.15,-219.19 94.15,-217.09 94.15,-221.29"/>
</g>
<!-- 1 -->
<g id="node3" class="node">
<title>1</title>
<ellipse fill="none" stroke="black" cx="18" cy="-143.68" rx="18" ry="18"/>
<text text-anchor="middle" x="18" y="-139" font-family="monospace" font-size="14.00">1</text>
</g>
<!-- 1&#45;&gt;0 -->
<g id="edge2" class="edge">
<title>1&#45;&gt;0</title>
<path fill="none" stroke="black" d="M23.43,-161.19C26.53,-171.2 30.47,-183.9 33.87,-194.86"/>
<polygon fill="black" stroke="black" points="31.78,-195.22 35.56,-200.32 35.79,-193.97 31.78,-195.22"/>
</g>
<!-- 2 -->
<g id="node4" class="node">
<title>2</title>
<ellipse fill="none" stroke="black" cx="80.75" cy="-93.96" rx="18" ry="18"/>
<text text-anchor="middle" x="80.75" y="-89.28" font-family="monospace" font-size="14.00">2</text>
</g>
<!-- 2&#45;&gt;1 -->
<g id="edge3" class="edge">
<title>2&#45;&gt;1</title>
<path fill="none" stroke="black" d="M66.51,-105.24C58.09,-111.92 47.29,-120.47 38.01,-127.82"/>
<polygon fill="black" stroke="black" points="36.77,-126.13 33.37,-131.5 39.38,-129.42 36.77,-126.13"/>
</g>
<!-- 3 -->
<g id="node5" class="node">
<title>3</title>
<ellipse fill="none" stroke="black" cx="80.75" cy="-18" rx="18" ry="18"/>
<text text-anchor="middle" x="80.75" y="-13.32" font-family="monospace" font-size="14.00">3</text>
</g>
<!-- 2&#45;&gt;3 -->
<g id="edge4" class="edge">
<title>2&#45;&gt;3</title>
<path fill="none" stroke="black" d="M80.75,-75.57C80.75,-66.03 80.75,-54.22 80.75,-43.79"/>
<polygon fill="black" stroke="black" points="82.85,-43.99 80.75,-37.99 78.65,-43.99 82.85,-43.99"/>
</g>
<!-- 5 -->
<g id="node6" class="node">
<title>5</title>
<ellipse fill="none" stroke="black" cx="143.5" cy="-143.68" rx="18" ry="18"/>
<text text-anchor="middle" x="143.5" y="-139" font-family="monospace" font-size="14.00">5</text>
</g>
<!-- 2&#45;&gt;5 -->
<g id="edge5" class="edge">
<title>2&#45;&gt;5</title>
<path fill="none" stroke="black" d="M94.99,-105.24C103.41,-111.92 114.21,-120.47 123.49,-127.82"/>
<polygon fill="black" stroke="black" points="122.12,-129.42 128.13,-131.5 124.73,-126.13 122.12,-129.42"/>
</g>
<!-- 5&#45;&gt;4 -->
<g id="edge6" class="edge">
<title>5&#45;&gt;4</title>
<path fill="none" stroke="black" d="M138.07,-161.19C134.97,-171.2 131.03,-183.9 127.63,-194.86"/>
<polygon fill="black" stroke="black" points="125.71,-193.97 125.94,-200.33 129.72,-195.22 125.71,-193.97"/>
</g>
</g>
</svg>
