<?xml version="1.0" encoding="UTF-8" standalone="no"?>
<!DOCTYPE svg PUBLIC "-//W3C//DTD SVG 1.1//EN"
 "http://www.w3.org/Graphics/SVG/1.1/DTD/svg11.dtd">
<!-- Generated by graphviz version 12.0.0 (20240704.0754)
 -->
<!-- Pages: 1 -->
<svg width="310pt" height="228pt"
 viewBox="0.00 0.00 310.27 228.27" xmlns="http://www.w3.org/2000/svg" xmlns:xlink="http://www.w3.org/1999/xlink">
<g id="graph0" class="graph" transform="scale(1 1) rotate(0) translate(14.4 213.87)">
<polygon fill="white" stroke="none" points="-14.4,14.4 -14.4,-213.87 295.87,-213.87 295.87,14.4 -14.4,14.4"/>
<!-- 0 -->
<g id="node1" class="node">
<title>0</title>
<ellipse fill="none" stroke="black" cx="18" cy="-49.22" rx="18" ry="18"/>
<text text-anchor="middle" x="18" y="-44.55" font-family="monospace" font-size="14.00">0</text>
</g>
<!-- 4 -->
<g id="node2" class="node">
<title>4</title>
<ellipse fill="none" stroke="black" cx="18" cy="-150.25" rx="18" ry="18"/>
<text text-anchor="middle" x="18" y="-145.58" font-family="monospace" font-size="14.00">4</text>
</g>
<!-- 0&#45;&gt;4 -->
<g id="edge1" class="edge">
<title>0&#45;&gt;4</title>
<path fill="none" stroke="black" d="M18,-67.28C18,-83.28 18,-106.79 18,-124.71"/>
<polygon fill="black" stroke="black" points="15.9,-124.49 18,-130.49 20.1,-124.49 15.9,-124.49"/>
</g>
<!-- 1 -->
<g id="node3" class="node">
<title>1</title>
<ellipse fill="none" stroke="black" cx="114.09" cy="-18" rx="18" ry="18"/>
<text text-anchor="middle" x="114.09" y="-13.32" font-family="monospace" font-size="14.00">1</text>
</g>
<!-- 1&#45;&gt;0 -->
<g id="edge2" class="edge">
<title>1&#45;&gt;0</title>
<path fill="none" stroke="black" d="M96.91,-23.58C81.7,-28.52 59.33,-35.79 42.29,-41.33"/>
<polygon fill="black" stroke="black" points="41.85,-39.26 36.79,-43.11 43.15,-43.26 41.85,-39.26"/>
</g>
<!-- 2 -->
<g id="node4" class="node">
<title>2</title>
<ellipse fill="none" stroke="black" cx="173.47" cy="-99.74" rx="18" ry="18"/>
<text text-anchor="middle" x="173.47" y="-95.06" font-family="monospace" font-size="14.00">2</text>
</g>
<!-- 2&#45;&gt;1 -->
<g id="edge3" class="edge">
<title>2&#45;&gt;1</title>
<path fill="none" stroke="black" d="M162.86,-85.12C153.46,-72.19 139.63,-53.16 129.1,-38.67"/>
<polygon fill="black" stroke="black" points="130.93,-37.61 125.7,-33.99 127.53,-40.08 130.93,-37.61"/>
</g>
<!-- 3 -->
<g id="node5" class="node">
<title>3</title>
<ellipse fill="none" stroke="black" cx="263.47" cy="-99.74" rx="18" ry="18"/>
<text text-anchor="middle" x="263.47" y="-95.06" font-family="monospace" font-size="14.00">3</text>
</g>
<!-- 2&#45;&gt;3 -->
<g id="edge4" class="edge">
<title>2&#45;&gt;3</title>
<path fill="none" stroke="black" d="M191.69,-99.74C204.9,-99.74 222.95,-99.74 237.64,-99.74"/>
<polygon fill="black" stroke="black" points="237.47,-101.84 243.47,-99.74 237.47,-97.64 237.47,-101.84"/>
</g>
<!-- 5 -->
<g id="node6" class="node">
<title>5</title>
<ellipse fill="none" stroke="black" cx="114.09" cy="-181.47" rx="18" ry="18"/>
<text text-anchor="middle" x="114.09" y="-176.8" font-family="monospace" font-size="14.00">5</text>
</g>
<!-- 2&#45;&gt;5 -->
<g id="edge5" class="edge">
<title>2&#45;&gt;5</title>
<path fill="none" stroke="black" d="M162.86,-114.35C153.46,-127.29 139.63,-146.31 129.1,-160.81"/>
<polygon fill="black" stroke="black" points="127.53,-159.4 125.7,-165.49 130.93,-161.87 127.53,-159.4"/>
</g>
<!-- 5&#45;&gt;4 -->
<g id="edge6" class="edge">
<title>5&#45;&gt;4</title>
<path fill="none" stroke="black" d="M96.91,-175.89C81.7,-170.95 59.33,-163.68 42.29,-158.15"/>
<polygon fill="black" stroke="black" points="43.15,-156.22 36.79,-156.36 41.85,-160.21 43.15,-156.22"/>
</g>
</g>
</svg>
