<?xml version="1.0" encoding="UTF-8" standalone="no"?>
<!DOCTYPE svg PUBLIC "-//W3C//DTD SVG 1.1//EN"
 "http://www.w3.org/Graphics/SVG/1.1/DTD/svg11.dtd">
<!-- Generated by graphviz version 12.0.0 (20240704.0754)
 -->
<!-- Pages: 1 -->
<svg width="297pt" height="223pt"
 viewBox="0.00 0.00 296.99 223.37" xmlns="http://www.w3.org/2000/svg" xmlns:xlink="http://www.w3.org/1999/xlink">
<g id="graph0" class="graph" transform="scale(1 1) rotate(0) translate(14.4 208.97)">
<polygon fill="white" stroke="none" points="-14.4,14.4 -14.4,-208.97 282.59,-208.97 282.59,14.4 -14.4,14.4"/>
<!-- 1 -->
<g id="node1" class="node">
<title>1</title>
<ellipse fill="none" stroke="black" cx="18" cy="-102.19" rx="18" ry="18"/>
<text text-anchor="middle" x="18" y="-97.51" font-family="monospace" font-size="14.00">1</text>
</g>
<!-- 2 -->
<g id="node2" class="node">
<title>2</title>
<ellipse fill="none" stroke="black" cx="107.65" cy="-102.19" rx="18" ry="18"/>
<text text-anchor="middle" x="107.65" y="-97.51" font-family="monospace" font-size="14.00">2</text>
</g>
<!-- 1&#45;&gt;2 -->
<g id="edge3" class="edge">
<title>1&#45;&gt;2</title>
<path fill="none" stroke="black" d="M36.14,-102.19C49.54,-102.19 67.94,-102.19 82.73,-102.19"/>
<polygon fill="black" stroke="black" points="82.72,-103.94 87.72,-102.19 82.72,-100.44 82.72,-103.94"/>
<polygon fill="#ffffff" fill-opacity="0.800000" stroke="none" points="41.93,-105.19 41.93,-120.44 56.43,-120.44 56.43,-105.19 41.93,-105.19"/>
<text text-anchor="start" x="43.93" y="-109.89" font-family="monospace" font-size="9.00">&#45;5</text>
</g>
<!-- 3 -->
<g id="node3" class="node">
<title>3</title>
<ellipse fill="none" stroke="black" cx="198.82" cy="-99.97" rx="18" ry="18"/>
<text text-anchor="middle" x="198.82" y="-95.29" font-family="monospace" font-size="14.00">3</text>
</g>
<!-- 2&#45;&gt;3 -->
<g id="edge4" class="edge">
<title>2&#45;&gt;3</title>
<path fill="none" stroke="black" d="M126.1,-101.74C139.94,-101.4 159.03,-100.94 174.17,-100.57"/>
<polygon fill="black" stroke="black" points="173.93,-102.33 178.88,-100.45 173.84,-98.83 173.93,-102.33"/>
<polygon fill="#ffffff" fill-opacity="0.800000" stroke="none" points="132.64,-104.15 132.64,-119.4 147.14,-119.4 147.14,-104.15 132.64,-104.15"/>
<text text-anchor="start" x="134.64" y="-108.85" font-family="monospace" font-size="9.00">&#45;2</text>
</g>
<!-- 4 -->
<g id="node4" class="node">
<title>4</title>
<ellipse fill="none" stroke="black" cx="160.4" cy="-27.8" rx="18" ry="18"/>
<text text-anchor="middle" x="160.4" y="-23.12" font-family="monospace" font-size="14.00">4</text>
</g>
<!-- 2&#45;&gt;4 -->
<g id="edge5" class="edge">
<title>2&#45;&gt;4</title>
<path fill="none" stroke="black" d="M118.33,-87.13C126.33,-75.84 137.38,-60.27 146.14,-47.91"/>
<polygon fill="black" stroke="black" points="147.4,-49.16 148.86,-44.06 144.55,-47.13 147.4,-49.16"/>
<polygon fill="#ffffff" fill-opacity="0.800000" stroke="none" points="119.98,-49.27 119.98,-64.52 129.23,-64.52 129.23,-49.27 119.98,-49.27"/>
<text text-anchor="start" x="121.98" y="-53.97" font-family="monospace" font-size="9.00">4</text>
</g>
<!-- 5 -->
<g id="node5" class="node">
<title>5</title>
<ellipse fill="none" stroke="black" cx="250.19" cy="-26.31" rx="18" ry="18"/>
<text text-anchor="middle" x="250.19" y="-21.63" font-family="monospace" font-size="14.00">5</text>
</g>
<!-- 3&#45;&gt;5 -->
<g id="edge6" class="edge">
<title>3&#45;&gt;5</title>
<path fill="none" stroke="black" d="M213.2,-88.89C222.34,-78.41 233.67,-62.5 241.51,-49.32"/>
<polygon fill="black" stroke="black" points="242.92,-50.38 243.89,-45.17 239.88,-48.64 242.92,-50.38"/>
<polygon fill="#ffffff" fill-opacity="0.800000" stroke="none" points="230.36,-72.1 230.36,-87.35 244.86,-87.35 244.86,-72.1 230.36,-72.1"/>
<text text-anchor="start" x="232.36" y="-76.8" font-family="monospace" font-size="9.00">&#45;2</text>
</g>
<!-- 4&#45;&gt;3 -->
<g id="edge7" class="edge">
<title>4&#45;&gt;3</title>
<path fill="none" stroke="black" d="M168.92,-43.82C174.31,-53.93 181.33,-67.13 187.22,-78.19"/>
<polygon fill="black" stroke="black" points="185.58,-78.82 189.47,-82.41 188.67,-77.17 185.58,-78.82"/>
<polygon fill="#ffffff" fill-opacity="0.800000" stroke="none" points="160.57,-64 160.57,-79.25 175.07,-79.25 175.07,-64 160.57,-64"/>
<text text-anchor="start" x="162.57" y="-68.7" font-family="monospace" font-size="9.00">10</text>
</g>
<!-- 4&#45;&gt;5 -->
<g id="edge8" class="edge">
<title>4&#45;&gt;5</title>
<path fill="none" stroke="black" d="M177.8,-32.97C191.65,-34.24 211.17,-34.11 226.46,-32.74"/>
<polygon fill="black" stroke="black" points="226.42,-34.51 231.21,-32.24 226.06,-31.03 226.42,-34.51"/>
<polygon fill="#ffffff" fill-opacity="0.800000" stroke="none" points="189.88,-35.86 189.88,-51.11 199.13,-51.11 199.13,-35.86 189.88,-35.86"/>
<text text-anchor="start" x="191.88" y="-40.56" font-family="monospace" font-size="9.00">9</text>
</g>
<!-- 5&#45;&gt;3 -->
<g id="edge9" class="edge">
<title>5&#45;&gt;3</title>
<path fill="none" stroke="black" d="M235.81,-37.39C226.67,-47.87 215.34,-63.77 207.5,-76.96"/>
<polygon fill="black" stroke="black" points="206.09,-75.9 205.12,-81.11 209.13,-77.64 206.09,-75.9"/>
<polygon fill="#ffffff" fill-opacity="0.800000" stroke="none" points="209.41,-60.17 209.41,-75.42 218.66,-75.42 218.66,-60.17 209.41,-60.17"/>
<text text-anchor="start" x="211.41" y="-64.87" font-family="monospace" font-size="9.00">5</text>
</g>
<!-- 5&#45;&gt;4 -->
<g id="edge10" class="edge">
<title>5&#45;&gt;4</title>
<path fill="none" stroke="black" d="M232.79,-21.14C218.94,-19.87 199.42,-20 184.13,-21.36"/>
<polygon fill="black" stroke="black" points="184.17,-19.6 179.38,-21.86 184.53,-23.08 184.17,-19.6"/>
<polygon fill="#ffffff" fill-opacity="0.800000" stroke="none" points="190.96,-3 190.96,-18.25 205.46,-18.25 205.46,-3 190.96,-3"/>
<text text-anchor="start" x="192.96" y="-7.7" font-family="monospace" font-size="9.00">&#45;3</text>
</g>
<!-- 0 -->
<g id="node6" class="node">
<title>0</title>
<ellipse fill="none" stroke="black" cx="57.6" cy="-176.57" rx="18" ry="18"/>
<text text-anchor="middle" x="57.6" y="-171.89" font-family="monospace" font-size="14.00">0</text>
</g>
<!-- 0&#45;&gt;1 -->
<g id="edge1" class="edge">
<title>0&#45;&gt;1</title>
<path fill="none" stroke="black" d="M49,-160.43C43.3,-149.71 35.74,-135.5 29.51,-123.81"/>
<polygon fill="black" stroke="black" points="31.18,-123.22 27.29,-119.63 28.09,-124.87 31.18,-123.22"/>
<polygon fill="#ffffff" fill-opacity="0.800000" stroke="none" points="27.01,-145.12 27.01,-160.37 36.26,-160.37 36.26,-145.12 27.01,-145.12"/>
<text text-anchor="start" x="29.01" y="-149.82" font-family="monospace" font-size="9.00">8</text>
</g>
<!-- 0&#45;&gt;2 -->
<g id="edge2" class="edge">
<title>0&#45;&gt;2</title>
<path fill="none" stroke="black" d="M67.73,-161.51C75.21,-150.4 85.48,-135.13 93.74,-122.87"/>
<polygon fill="black" stroke="black" points="95.18,-123.85 96.52,-118.73 92.28,-121.9 95.18,-123.85"/>
<polygon fill="#ffffff" fill-opacity="0.800000" stroke="none" points="68.48,-123.94 68.48,-139.19 77.73,-139.19 77.73,-123.94 68.48,-123.94"/>
<text text-anchor="start" x="70.48" y="-128.64" font-family="monospace" font-size="9.00">3</text>
</g>
</g>
</svg>
