<?xml version="1.0" encoding="UTF-8" standalone="no"?>
<!DOCTYPE svg PUBLIC "-//W3C//DTD SVG 1.1//EN"
 "http://www.w3.org/Graphics/SVG/1.1/DTD/svg11.dtd">
<!-- Generated by graphviz version 12.0.0 (20240704.0754)
 -->
<!-- Pages: 1 -->
<svg width="143pt" height="266pt"
 viewBox="0.00 0.00 142.70 266.05" xmlns="http://www.w3.org/2000/svg" xmlns:xlink="http://www.w3.org/1999/xlink">
<g id="graph0" class="graph" transform="scale(1 1) rotate(0) translate(14.4 251.65)">
<polygon fill="white" stroke="none" points="-14.4,14.4 -14.4,-251.65 128.3,-251.65 128.3,14.4 -14.4,14.4"/>
<!-- 1 -->
<g id="node1" class="node">
<title>1</title>
<ellipse fill="none" stroke="black" cx="18" cy="-157.78" rx="18" ry="18"/>
<text text-anchor="middle" x="18" y="-153.11" font-family="monospace" font-size="14.00">1</text>
</g>
<!-- 2 -->
<g id="node2" class="node">
<title>2</title>
<ellipse fill="none" stroke="black" cx="95.52" cy="-157.78" rx="18" ry="18"/>
<text text-anchor="middle" x="95.52" y="-153.11" font-family="monospace" font-size="14.00">2</text>
</g>
<!-- 1&#45;&gt;2 -->
<g id="edge3" class="edge">
<title>1&#45;&gt;2</title>
<path fill="none" stroke="black" d="M35.2,-163.5C45.97,-164.66 59.98,-164.84 71.79,-164.06"/>
<polygon fill="black" stroke="black" points="71.75,-165.82 76.58,-163.65 71.45,-162.33 71.75,-165.82"/>
<text text-anchor="middle" x="48.25" y="-166.48" font-family="monospace" font-size="9.00">6 </text>
</g>
<!-- 3 -->
<g id="node3" class="node">
<title>3</title>
<ellipse fill="none" stroke="black" cx="18.38" cy="-79.42" rx="18" ry="18"/>
<text text-anchor="middle" x="18.38" y="-74.74" font-family="monospace" font-size="14.00">3</text>
</g>
<!-- 1&#45;&gt;3 -->
<g id="edge4" class="edge">
<title>1&#45;&gt;3</title>
<path fill="none" stroke="black" d="M18.09,-139.61C18.14,-129.1 18.21,-115.73 18.26,-104.26"/>
<polygon fill="black" stroke="black" points="20.01,-104.29 18.29,-99.28 16.51,-104.27 20.01,-104.29"/>
<text text-anchor="middle" x="12.93" y="-124.63" font-family="monospace" font-size="9.00"> 2</text>
</g>
<!-- 2&#45;&gt;1 -->
<g id="edge5" class="edge">
<title>2&#45;&gt;1</title>
<path fill="none" stroke="black" d="M78.31,-152.06C67.55,-150.91 53.53,-150.73 41.72,-151.51"/>
<polygon fill="black" stroke="black" points="41.77,-149.75 36.93,-151.91 42.06,-153.23 41.77,-149.75"/>
<text text-anchor="middle" x="57.39" y="-154.48" font-family="monospace" font-size="9.00">2</text>
</g>
<!-- 4 -->
<g id="node4" class="node">
<title>4</title>
<ellipse fill="none" stroke="black" cx="95.9" cy="-79.52" rx="18" ry="18"/>
<text text-anchor="middle" x="95.9" y="-74.84" font-family="monospace" font-size="14.00">4</text>
</g>
<!-- 2&#45;&gt;4 -->
<g id="edge6" class="edge">
<title>2&#45;&gt;4</title>
<path fill="none" stroke="black" d="M101.32,-140.44C102.54,-129.5 102.79,-115.23 102.05,-103.25"/>
<polygon fill="black" stroke="black" points="103.8,-103.22 101.65,-98.38 100.31,-103.5 103.8,-103.22"/>
<text text-anchor="middle" x="96.43" y="-124.55" font-family="monospace" font-size="9.00"> 1</text>
</g>
<!-- 5 -->
<g id="node5" class="node">
<title>5</title>
<ellipse fill="none" stroke="black" cx="57.27" cy="-18" rx="18" ry="18"/>
<text text-anchor="middle" x="57.27" y="-13.32" font-family="monospace" font-size="14.00">5</text>
</g>
<!-- 3&#45;&gt;5 -->
<g id="edge7" class="edge">
<title>3&#45;&gt;5</title>
<path fill="none" stroke="black" d="M32.53,-67.99C38.52,-60.42 45.13,-50.3 50.14,-41.13"/>
<polygon fill="black" stroke="black" points="51.58,-42.15 52.34,-36.91 48.48,-40.53 51.58,-42.15"/>
<text text-anchor="middle" x="36.09" y="-46.01" font-family="monospace" font-size="9.00"> 1</text>
</g>
<!-- 4&#45;&gt;2 -->
<g id="edge8" class="edge">
<title>4&#45;&gt;2</title>
<path fill="none" stroke="black" d="M90.1,-96.86C88.88,-107.8 88.63,-122.07 89.37,-134.05"/>
<polygon fill="black" stroke="black" points="87.62,-134.08 89.77,-138.93 91.11,-133.8 87.62,-134.08"/>
<text text-anchor="middle" x="84.49" y="-118.15" font-family="monospace" font-size="9.00">2 </text>
</g>
<!-- 4&#45;&gt;3 -->
<g id="edge9" class="edge">
<title>4&#45;&gt;3</title>
<path fill="none" stroke="black" d="M77.53,-79.49C67.2,-79.48 54.17,-79.46 42.97,-79.45"/>
<polygon fill="black" stroke="black" points="43.14,-77.7 38.14,-79.44 43.14,-81.2 43.14,-77.7"/>
<text text-anchor="middle" x="57.63" y="-82.17" font-family="monospace" font-size="9.00">2</text>
</g>
<!-- 4&#45;&gt;5 -->
<g id="edge10" class="edge">
<title>4&#45;&gt;5</title>
<path fill="none" stroke="black" d="M86.15,-63.99C81.36,-56.36 75.51,-47.05 70.34,-38.81"/>
<polygon fill="black" stroke="black" points="71.83,-37.89 67.69,-34.59 68.86,-39.75 71.83,-37.89"/>
<text text-anchor="middle" x="70.37" y="-42.85" font-family="monospace" font-size="9.00">7 &#160;</text>
</g>
<!-- 5&#45;&gt;3 -->
<g id="edge11" class="edge">
<title>5&#45;&gt;3</title>
<path fill="none" stroke="black" d="M43.12,-29.43C37.13,-37 30.53,-47.12 25.51,-56.29"/>
<polygon fill="black" stroke="black" points="24.07,-55.26 23.31,-60.51 27.17,-56.88 24.07,-55.26"/>
<text text-anchor="middle" x="29.06" y="-34.31" font-family="monospace" font-size="9.00">2 </text>
</g>
<!-- 0 -->
<g id="node6" class="node">
<title>0</title>
<ellipse fill="none" stroke="black" cx="56.95" cy="-219.25" rx="18" ry="18"/>
<text text-anchor="middle" x="56.95" y="-214.58" font-family="monospace" font-size="14.00">0</text>
</g>
<!-- 0&#45;&gt;1 -->
<g id="edge1" class="edge">
<title>0&#45;&gt;1</title>
<path fill="none" stroke="black" d="M47.12,-203.74C42.29,-196.11 36.39,-186.81 31.17,-178.57"/>
<polygon fill="black" stroke="black" points="32.65,-177.64 28.5,-174.36 29.7,-179.52 32.65,-177.64"/>
<text text-anchor="middle" x="31.27" y="-182.61" font-family="monospace" font-size="9.00">9 &#160;</text>
</g>
<!-- 0&#45;&gt;2 -->
<g id="edge2" class="edge">
<title>0&#45;&gt;2</title>
<path fill="none" stroke="black" d="M66.68,-203.74C71.47,-196.11 77.3,-186.81 82.47,-178.57"/>
<polygon fill="black" stroke="black" points="83.94,-179.52 85.12,-174.36 80.98,-177.66 83.94,-179.52"/>
<text text-anchor="middle" x="71.95" y="-182.61" font-family="monospace" font-size="9.00">3</text>
</g>
</g>
</svg>
