<?xml version="1.0" encoding="UTF-8" standalone="no"?>
<!DOCTYPE svg PUBLIC "-//W3C//DTD SVG 1.1//EN"
 "http://www.w3.org/Graphics/SVG/1.1/DTD/svg11.dtd">
<!-- Generated by graphviz version 12.0.0 (20240704.0754)
 -->
<!-- Pages: 1 -->
<svg width="269pt" height="197pt"
 viewBox="0.00 0.00 269.09 196.84" xmlns="http://www.w3.org/2000/svg" xmlns:xlink="http://www.w3.org/1999/xlink">
<g id="graph0" class="graph" transform="scale(1 1) rotate(0) translate(14.4 182.44)">
<polygon fill="white" stroke="none" points="-14.4,14.4 -14.4,-182.44 254.69,-182.44 254.69,14.4 -14.4,14.4"/>
<!-- 0 -->
<g id="node1" class="node">
<title>0</title>
<ellipse fill="none" stroke="black" cx="18" cy="-146.79" rx="18" ry="18"/>
<text text-anchor="middle" x="18" y="-142.11" font-family="monospace" font-size="14.00">0</text>
</g>
<!-- 1 -->
<g id="node2" class="node">
<title>1</title>
<ellipse fill="none" stroke="black" cx="105.2" cy="-146.79" rx="18" ry="18"/>
<text text-anchor="middle" x="105.2" y="-142.11" font-family="monospace" font-size="14.00">1</text>
</g>
<!-- 0&#45;&gt;1 -->
<g id="edge1" class="edge">
<title>0&#45;&gt;1</title>
<path fill="none" stroke="black" d="M36.49,-146.79C49.33,-146.79 66.56,-146.79 80.56,-146.79"/>
<polygon fill="black" stroke="black" points="80.22,-148.54 85.22,-146.79 80.22,-145.04 80.22,-148.54"/>
<polygon fill="#ffffff" fill-opacity="0.800000" stroke="none" points="46.27,-149.79 46.27,-165.04 55.52,-165.04 55.52,-149.79 46.27,-149.79"/>
<text text-anchor="start" x="48.27" y="-154.49" font-family="monospace" font-size="9.00">9</text>
</g>
<!-- 2 -->
<g id="node3" class="node">
<title>2</title>
<ellipse fill="none" stroke="black" cx="55.6" cy="-68.11" rx="18" ry="18"/>
<text text-anchor="middle" x="55.6" y="-63.43" font-family="monospace" font-size="14.00">2</text>
</g>
<!-- 0&#45;&gt;2 -->
<g id="edge2" class="edge">
<title>0&#45;&gt;2</title>
<path fill="none" stroke="black" d="M25.97,-130.1C31.51,-118.52 38.94,-102.97 44.98,-90.34"/>
<polygon fill="black" stroke="black" points="46.41,-91.4 46.99,-86.14 43.25,-89.89 46.41,-91.4"/>
<polygon fill="#ffffff" fill-opacity="0.800000" stroke="none" points="23.23,-91.97 23.23,-107.22 32.48,-107.22 32.48,-91.97 23.23,-91.97"/>
<text text-anchor="start" x="25.23" y="-96.67" font-family="monospace" font-size="9.00">3</text>
</g>
<!-- 1&#45;&gt;2 -->
<g id="edge3" class="edge">
<title>1&#45;&gt;2</title>
<path fill="none" stroke="black" d="M100.45,-129.1C93.96,-115.84 82.86,-97.89 73.21,-84.87"/>
<polygon fill="black" stroke="black" points="74.81,-84.07 70.38,-81.16 72.03,-86.2 74.81,-84.07"/>
<polygon fill="#ffffff" fill-opacity="0.800000" stroke="none" points="89.83,-109.98 89.83,-125.23 99.08,-125.23 99.08,-109.98 89.83,-109.98"/>
<text text-anchor="start" x="91.83" y="-114.68" font-family="monospace" font-size="9.00">6</text>
</g>
<!-- 3 -->
<g id="node4" class="node">
<title>3</title>
<ellipse fill="none" stroke="black" cx="184.69" cy="-96.67" rx="18" ry="18"/>
<text text-anchor="middle" x="184.69" y="-92" font-family="monospace" font-size="14.00">3</text>
</g>
<!-- 1&#45;&gt;3 -->
<g id="edge4" class="edge">
<title>1&#45;&gt;3</title>
<path fill="none" stroke="black" d="M120.53,-137.12C132.87,-129.34 150.35,-118.32 163.95,-109.75"/>
<polygon fill="black" stroke="black" points="164.56,-111.43 167.86,-107.28 162.7,-108.47 164.56,-111.43"/>
<polygon fill="#ffffff" fill-opacity="0.800000" stroke="none" points="129.99,-126.44 129.99,-141.69 139.24,-141.69 139.24,-126.44 129.99,-126.44"/>
<text text-anchor="start" x="131.99" y="-131.14" font-family="monospace" font-size="9.00">2</text>
</g>
<!-- 2&#45;&gt;1 -->
<g id="edge5" class="edge">
<title>2&#45;&gt;1</title>
<path fill="none" stroke="black" d="M60.35,-85.79C66.85,-99.05 77.94,-117 87.59,-130.03"/>
<polygon fill="black" stroke="black" points="85.99,-130.82 90.42,-133.73 88.78,-128.7 85.99,-130.82"/>
<polygon fill="#ffffff" fill-opacity="0.800000" stroke="none" points="61.72,-110.91 61.72,-126.16 70.97,-126.16 70.97,-110.91 61.72,-110.91"/>
<text text-anchor="start" x="63.72" y="-115.61" font-family="monospace" font-size="9.00">2</text>
</g>
<!-- 4 -->
<g id="node5" class="node">
<title>4</title>
<ellipse fill="none" stroke="black" cx="135.09" cy="-18" rx="18" ry="18"/>
<text text-anchor="middle" x="135.09" y="-13.32" font-family="monospace" font-size="14.00">4</text>
</g>
<!-- 2&#45;&gt;4 -->
<g id="edge6" class="edge">
<title>2&#45;&gt;4</title>
<path fill="none" stroke="black" d="M73.44,-63.26C86.83,-56.69 104.96,-45.47 118.13,-35.74"/>
<polygon fill="black" stroke="black" points="118.97,-37.3 121.89,-32.87 116.85,-34.51 118.97,-37.3"/>
<polygon fill="#ffffff" fill-opacity="0.800000" stroke="none" points="83.54,-52.5 83.54,-67.75 92.79,-67.75 92.79,-52.5 83.54,-52.5"/>
<text text-anchor="start" x="85.54" y="-57.2" font-family="monospace" font-size="9.00">1</text>
</g>
<!-- 5 -->
<g id="node6" class="node">
<title>5</title>
<ellipse fill="none" stroke="black" cx="222.29" cy="-18" rx="18" ry="18"/>
<text text-anchor="middle" x="222.29" y="-13.33" font-family="monospace" font-size="14.00">5</text>
</g>
<!-- 3&#45;&gt;5 -->
<g id="edge7" class="edge">
<title>3&#45;&gt;5</title>
<path fill="none" stroke="black" d="M197.31,-83.15C204.22,-71.91 212.17,-55.7 217.46,-42.25"/>
<polygon fill="black" stroke="black" points="219.05,-43 219.17,-37.71 215.77,-41.77 219.05,-43"/>
<polygon fill="#ffffff" fill-opacity="0.800000" stroke="none" points="210.39,-65.7 210.39,-80.95 219.64,-80.95 219.64,-65.7 210.39,-65.7"/>
<text text-anchor="start" x="212.39" y="-70.4" font-family="monospace" font-size="9.00">1</text>
</g>
<!-- 4&#45;&gt;2 -->
<g id="edge8" class="edge">
<title>4&#45;&gt;2</title>
<path fill="none" stroke="black" d="M117.26,-22.85C103.87,-29.42 85.74,-40.63 72.57,-50.37"/>
<polygon fill="black" stroke="black" points="71.72,-48.81 68.81,-53.24 73.85,-51.6 71.72,-48.81"/>
<polygon fill="#ffffff" fill-opacity="0.800000" stroke="none" points="82.66,-18.36 82.66,-33.61 91.91,-33.61 91.91,-18.36 82.66,-18.36"/>
<text text-anchor="start" x="84.66" y="-23.06" font-family="monospace" font-size="9.00">2</text>
</g>
<!-- 4&#45;&gt;3 -->
<g id="edge9" class="edge">
<title>4&#45;&gt;3</title>
<path fill="none" stroke="black" d="M144.89,-33.54C152.5,-45.61 163.13,-62.47 171.48,-75.72"/>
<polygon fill="black" stroke="black" points="169.96,-76.59 174.11,-79.88 172.92,-74.72 169.96,-76.59"/>
<polygon fill="#ffffff" fill-opacity="0.800000" stroke="none" points="145.94,-57.63 145.94,-72.88 155.19,-72.88 155.19,-57.63 145.94,-57.63"/>
<text text-anchor="start" x="147.94" y="-62.33" font-family="monospace" font-size="9.00">2</text>
</g>
<!-- 4&#45;&gt;5 -->
<g id="edge10" class="edge">
<title>4&#45;&gt;5</title>
<path fill="none" stroke="black" d="M153.59,-18C166.42,-18 183.65,-18 197.65,-18"/>
<polygon fill="black" stroke="black" points="197.31,-19.75 202.31,-18 197.31,-16.25 197.31,-19.75"/>
<polygon fill="#ffffff" fill-opacity="0.800000" stroke="none" points="163.37,-21 163.37,-36.25 172.62,-36.25 172.62,-21 163.37,-21"/>
<text text-anchor="start" x="165.37" y="-25.7" font-family="monospace" font-size="9.00">7</text>
</g>
<!-- 5&#45;&gt;3 -->
<g id="edge11" class="edge">
<title>5&#45;&gt;3</title>
<path fill="none" stroke="black" d="M209.68,-31.53C202.77,-42.77 194.82,-58.97 189.52,-72.42"/>
<polygon fill="black" stroke="black" points="187.93,-71.67 187.82,-76.97 191.21,-72.9 187.93,-71.67"/>
<polygon fill="#ffffff" fill-opacity="0.800000" stroke="none" points="187.35,-54.98 187.35,-70.23 196.6,-70.23 196.6,-54.98 187.35,-54.98"/>
<text text-anchor="start" x="189.35" y="-59.68" font-family="monospace" font-size="9.00">2</text>
</g>
</g>
</svg>
