<?xml version="1.0" encoding="UTF-8" standalone="no"?>
<!DOCTYPE svg PUBLIC "-//W3C//DTD SVG 1.1//EN"
 "http://www.w3.org/Graphics/SVG/1.1/DTD/svg11.dtd">
<!-- Generated by graphviz version 12.0.0 (20240704.0754)
 -->
<!-- Pages: 1 -->
<svg width="256pt" height="234pt"
 viewBox="0.00 0.00 255.75 233.97" xmlns="http://www.w3.org/2000/svg" xmlns:xlink="http://www.w3.org/1999/xlink">
<g id="graph0" class="graph" transform="scale(1 1) rotate(0) translate(14.4 219.57)">
<polygon fill="white" stroke="none" points="-14.4,14.4 -14.4,-219.57 241.35,-219.57 241.35,14.4 -14.4,14.4"/>
<!-- 0 -->
<g id="node1" class="node">
<title>0</title>
<ellipse fill="none" stroke="black" cx="95.65" cy="-187.17" rx="18" ry="18"/>
<text text-anchor="middle" x="95.65" y="-182.5" font-family="monospace" font-size="14.00">0</text>
</g>
<!-- 1 -->
<g id="node2" class="node">
<title>1</title>
<ellipse fill="none" stroke="black" cx="163.08" cy="-187.17" rx="18" ry="18"/>
<text text-anchor="middle" x="163.08" y="-182.5" font-family="monospace" font-size="14.00">1</text>
</g>
<!-- 0&#45;&gt;1 -->
<g id="edge1" class="edge">
<title>0&#45;&gt;1</title>
<path fill="none" stroke="black" d="M114.08,-187.17C121.21,-187.17 129.51,-187.17 137.22,-187.17"/>
<polygon fill="black" stroke="black" points="137.16,-189.27 143.16,-187.17 137.16,-185.07 137.16,-189.27"/>
</g>
<!-- 2 -->
<g id="node3" class="node">
<title>2</title>
<ellipse fill="none" stroke="black" cx="135.09" cy="-116.99" rx="18" ry="18"/>
<text text-anchor="middle" x="135.09" y="-112.31" font-family="monospace" font-size="14.00">2</text>
</g>
<!-- 0&#45;&gt;2 -->
<g id="edge2" class="edge">
<title>0&#45;&gt;2</title>
<path fill="none" stroke="black" d="M104.6,-171.25C109.9,-161.83 116.68,-149.74 122.51,-139.37"/>
<polygon fill="black" stroke="black" points="124.33,-140.43 125.43,-134.17 120.66,-138.37 124.33,-140.43"/>
</g>
<!-- 3 -->
<g id="node4" class="node">
<title>3</title>
<ellipse fill="none" stroke="black" cx="208.95" cy="-132.9" rx="18" ry="18"/>
<text text-anchor="middle" x="208.95" y="-128.23" font-family="monospace" font-size="14.00">3</text>
</g>
<!-- 1&#45;&gt;3 -->
<g id="edge3" class="edge">
<title>1&#45;&gt;3</title>
<path fill="none" stroke="black" d="M174.89,-173.2C180.2,-166.92 186.56,-159.39 192.34,-152.56"/>
<polygon fill="black" stroke="black" points="193.77,-154.11 196.04,-148.18 190.57,-151.4 193.77,-154.11"/>
</g>
<!-- 2&#45;&gt;1 -->
<g id="edge4" class="edge">
<title>2&#45;&gt;1</title>
<path fill="none" stroke="black" d="M141.86,-133.98C145.4,-142.86 149.79,-153.87 153.66,-163.56"/>
<polygon fill="black" stroke="black" points="151.63,-164.14 155.8,-168.93 155.53,-162.58 151.63,-164.14"/>
</g>
<!-- 2&#45;&gt;3 -->
<g id="edge5" class="edge">
<title>2&#45;&gt;3</title>
<path fill="none" stroke="black" d="M152.97,-120.84C162.25,-122.84 173.73,-125.31 183.88,-127.5"/>
<polygon fill="black" stroke="black" points="183.2,-129.5 189.5,-128.71 184.08,-125.4 183.2,-129.5"/>
</g>
<!-- 4 -->
<g id="node5" class="node">
<title>4</title>
<ellipse fill="none" stroke="black" cx="74.63" cy="-65.87" rx="18" ry="18"/>
<text text-anchor="middle" x="74.63" y="-61.2" font-family="monospace" font-size="14.00">4</text>
</g>
<!-- 2&#45;&gt;4 -->
<g id="edge6" class="edge">
<title>2&#45;&gt;4</title>
<path fill="none" stroke="black" d="M121.07,-105.13C112.98,-98.3 102.69,-89.6 93.86,-82.13"/>
<polygon fill="black" stroke="black" points="95.67,-80.91 89.73,-78.64 92.96,-84.12 95.67,-80.91"/>
</g>
<!-- 5 -->
<g id="node6" class="node">
<title>5</title>
<ellipse fill="none" stroke="black" cx="197.74" cy="-66.42" rx="18" ry="18"/>
<text text-anchor="middle" x="197.74" y="-61.75" font-family="monospace" font-size="14.00">5</text>
</g>
<!-- 2&#45;&gt;5 -->
<g id="edge7" class="edge">
<title>2&#45;&gt;5</title>
<path fill="none" stroke="black" d="M149.31,-105.51C157.72,-98.73 168.5,-90.02 177.76,-82.55"/>
<polygon fill="black" stroke="black" points="179.05,-84.2 182.4,-78.8 176.41,-80.94 179.05,-84.2"/>
</g>
<!-- 3&#45;&gt;5 -->
<g id="edge8" class="edge">
<title>3&#45;&gt;5</title>
<path fill="none" stroke="black" d="M205.89,-114.74C204.7,-107.7 203.32,-99.52 202.04,-91.92"/>
<polygon fill="black" stroke="black" points="204.12,-91.63 201.05,-86.06 199.98,-92.32 204.12,-91.63"/>
</g>
<!-- 6 -->
<g id="node7" class="node">
<title>6</title>
<ellipse fill="none" stroke="black" cx="18" cy="-18" rx="18" ry="18"/>
<text text-anchor="middle" x="18" y="-13.32" font-family="monospace" font-size="14.00">6</text>
</g>
<!-- 4&#45;&gt;6 -->
<g id="edge9" class="edge">
<title>4&#45;&gt;6</title>
<path fill="none" stroke="black" d="M60.63,-54.04C53.64,-48.13 45.06,-40.88 37.44,-34.43"/>
<polygon fill="black" stroke="black" points="38.93,-32.95 32.99,-30.68 36.22,-36.15 38.93,-32.95"/>
</g>
</g>
</svg>
