<?xml version="1.0" encoding="UTF-8" standalone="no"?>
<!DOCTYPE svg PUBLIC "-//W3C//DTD SVG 1.1//EN"
 "http://www.w3.org/Graphics/SVG/1.1/DTD/svg11.dtd">
<!-- Generated by graphviz version 12.0.0 (20240704.0754)
 -->
<!-- Pages: 1 -->
<svg width="235pt" height="172pt"
 viewBox="0.00 0.00 235.05 172.12" xmlns="http://www.w3.org/2000/svg" xmlns:xlink="http://www.w3.org/1999/xlink">
<g id="graph0" class="graph" transform="scale(1 1) rotate(0) translate(14.4 157.72)">
<polygon fill="white" stroke="none" points="-14.4,14.4 -14.4,-157.72 220.65,-157.72 220.65,14.4 -14.4,14.4"/>
<!-- 0 -->
<g id="node1" class="node">
<title>0</title>
<ellipse fill="none" stroke="black" cx="18" cy="-125.32" rx="18" ry="18"/>
<text text-anchor="middle" x="18" y="-120.64" font-family="monospace" font-size="14.00">0</text>
</g>
<!-- 1 -->
<g id="node2" class="node">
<title>1</title>
<ellipse fill="none" stroke="black" cx="90.67" cy="-125.32" rx="18" ry="18"/>
<text text-anchor="middle" x="90.67" y="-120.64" font-family="monospace" font-size="14.00">1</text>
</g>
<!-- 0&#45;&gt;1 -->
<g id="edge1" class="edge">
<title>0&#45;&gt;1</title>
<path fill="none" stroke="black" d="M36.34,-125.32C45.29,-125.32 56.19,-125.32 65.87,-125.32"/>
<polygon fill="black" stroke="black" points="65.82,-127.07 70.82,-125.32 65.82,-123.57 65.82,-127.07"/>
<text text-anchor="start" x="43.85" y="-130.02" font-family="monospace" font-size="9.00">9</text>
</g>
<!-- 2 -->
<g id="node3" class="node">
<title>2</title>
<ellipse fill="none" stroke="black" cx="49.34" cy="-59.75" rx="18" ry="18"/>
<text text-anchor="middle" x="49.34" y="-55.08" font-family="monospace" font-size="14.00">2</text>
</g>
<!-- 0&#45;&gt;2 -->
<g id="edge2" class="edge">
<title>0&#45;&gt;2</title>
<path fill="none" stroke="black" d="M25.91,-108.77C29.8,-100.64 34.54,-90.71 38.74,-81.93"/>
<polygon fill="black" stroke="black" points="40.31,-82.7 40.89,-77.43 37.15,-81.19 40.31,-82.7"/>
<text text-anchor="start" x="25.07" y="-84.8" font-family="monospace" font-size="9.00">3</text>
</g>
<!-- 1&#45;&gt;2 -->
<g id="edge3" class="edge">
<title>1&#45;&gt;2</title>
<path fill="none" stroke="black" d="M86.34,-107.72C81.54,-97.93 74.15,-85.88 67.15,-76.27"/>
<polygon fill="black" stroke="black" points="68.65,-75.35 64.24,-72.42 65.86,-77.47 68.65,-75.35"/>
<text text-anchor="start" x="79.74" y="-80.44" font-family="monospace" font-size="9.00">6</text>
</g>
<!-- 3 -->
<g id="node4" class="node">
<title>3</title>
<ellipse fill="none" stroke="black" cx="156.91" cy="-83.56" rx="18" ry="18"/>
<text text-anchor="middle" x="156.91" y="-78.89" font-family="monospace" font-size="14.00">3</text>
</g>
<!-- 1&#45;&gt;3 -->
<g id="edge4" class="edge">
<title>1&#45;&gt;3</title>
<path fill="none" stroke="black" d="M106.03,-115.63C115.06,-109.94 126.59,-102.67 136.39,-96.5"/>
<polygon fill="black" stroke="black" points="137.05,-98.15 140.35,-94 135.18,-95.19 137.05,-98.15"/>
<text text-anchor="start" x="111.96" y="-93.51" font-family="monospace" font-size="9.00">2</text>
</g>
<!-- 2&#45;&gt;1 -->
<g id="edge5" class="edge">
<title>2&#45;&gt;1</title>
<path fill="none" stroke="black" d="M53.67,-77.36C58.47,-87.14 65.86,-99.19 72.86,-108.8"/>
<polygon fill="black" stroke="black" points="71.36,-109.72 75.77,-112.65 74.15,-107.61 71.36,-109.72"/>
<text text-anchor="start" x="56.02" y="-97.78" font-family="monospace" font-size="9.00">2</text>
</g>
<!-- 4 -->
<g id="node5" class="node">
<title>4</title>
<ellipse fill="none" stroke="black" cx="115.58" cy="-18" rx="18" ry="18"/>
<text text-anchor="middle" x="115.58" y="-13.33" font-family="monospace" font-size="14.00">4</text>
</g>
<!-- 2&#45;&gt;4 -->
<g id="edge6" class="edge">
<title>2&#45;&gt;4</title>
<path fill="none" stroke="black" d="M67.09,-55.33C76.97,-50.47 89.15,-43.01 98.86,-35.94"/>
<polygon fill="black" stroke="black" points="99.83,-37.4 102.76,-32.99 97.72,-34.61 99.83,-37.4"/>
<text text-anchor="start" x="88.97" y="-54.34" font-family="monospace" font-size="9.00">1</text>
</g>
<!-- 5 -->
<g id="node6" class="node">
<title>5</title>
<ellipse fill="none" stroke="black" cx="188.25" cy="-18" rx="18" ry="18"/>
<text text-anchor="middle" x="188.25" y="-13.32" font-family="monospace" font-size="14.00">5</text>
</g>
<!-- 3&#45;&gt;5 -->
<g id="edge7" class="edge">
<title>3&#45;&gt;5</title>
<path fill="none" stroke="black" d="M169.6,-70.54C174.65,-62.32 180.01,-51.5 183.91,-41.8"/>
<polygon fill="black" stroke="black" points="185.46,-42.65 185.59,-37.35 182.19,-41.41 185.46,-42.65"/>
<text text-anchor="start" x="179.76" y="-61.87" font-family="monospace" font-size="9.00">1</text>
</g>
<!-- 4&#45;&gt;2 -->
<g id="edge8" class="edge">
<title>4&#45;&gt;2</title>
<path fill="none" stroke="black" d="M97.83,-22.43C87.95,-27.29 75.77,-34.75 66.06,-41.81"/>
<polygon fill="black" stroke="black" points="65.09,-40.35 62.16,-44.77 67.2,-43.15 65.09,-40.35"/>
<text text-anchor="start" x="71.69" y="-18.57" font-family="monospace" font-size="9.00">2</text>
</g>
<!-- 4&#45;&gt;3 -->
<g id="edge9" class="edge">
<title>4&#45;&gt;3</title>
<path fill="none" stroke="black" d="M125.37,-33.54C130.88,-42.28 137.83,-53.3 143.8,-62.77"/>
<polygon fill="black" stroke="black" points="142.23,-63.56 146.38,-66.86 145.19,-61.69 142.23,-63.56"/>
<text text-anchor="start" x="127.34" y="-52.85" font-family="monospace" font-size="9.00">2</text>
</g>
<!-- 4&#45;&gt;5 -->
<g id="edge10" class="edge">
<title>4&#45;&gt;5</title>
<path fill="none" stroke="black" d="M133.92,-18C142.87,-18 153.77,-18 163.45,-18"/>
<polygon fill="black" stroke="black" points="163.4,-19.75 168.4,-18 163.4,-16.25 163.4,-19.75"/>
<text text-anchor="start" x="141.43" y="-22.7" font-family="monospace" font-size="9.00">7</text>
</g>
<!-- 5&#45;&gt;3 -->
<g id="edge11" class="edge">
<title>5&#45;&gt;3</title>
<path fill="none" stroke="black" d="M175.55,-31.02C170.5,-39.24 165.14,-50.06 161.24,-59.76"/>
<polygon fill="black" stroke="black" points="159.7,-58.91 159.56,-64.21 162.97,-60.15 159.7,-58.91"/>
<text text-anchor="start" x="158.15" y="-31.84" font-family="monospace" font-size="9.00">2</text>
</g>
</g>
</svg>
