<?xml version="1.0" encoding="UTF-8" standalone="no"?>
<!DOCTYPE svg PUBLIC "-//W3C//DTD SVG 1.1//EN"
 "http://www.w3.org/Graphics/SVG/1.1/DTD/svg11.dtd">
<!-- Generated by graphviz version 12.0.0 (20240704.0754)
 -->
<!-- Pages: 1 -->
<svg width="302pt" height="386pt"
 viewBox="0.00 0.00 302.10 385.72" xmlns="http://www.w3.org/2000/svg" xmlns:xlink="http://www.w3.org/1999/xlink">
<g id="graph0" class="graph" transform="scale(1 1) rotate(0) translate(14.4 371.32)">
<polygon fill="white" stroke="none" points="-14.4,14.4 -14.4,-371.32 287.7,-371.32 287.7,14.4 -14.4,14.4"/>
<!-- 0 -->
<g id="node1" class="node">
<title>0</title>
<ellipse fill="none" stroke="lightsalmon" stroke-width="2" cx="153.24" cy="-85.7" rx="27" ry="27"/>
<text text-anchor="start" x="149.12" y="-87.65" font-family="monospace" font-size="14.00">0</text>
<text text-anchor="start" x="137.49" y="-73.15" font-family="monospace" font-size="9.00">c(0)=0</text>
</g>
<!-- 1 -->
<g id="node2" class="node">
<title>1</title>
<ellipse fill="none" stroke="lightsalmon" stroke-width="2" cx="246.3" cy="-109.01" rx="27" ry="27"/>
<text text-anchor="start" x="242.17" y="-110.96" font-family="monospace" font-size="14.00">1</text>
<text text-anchor="start" x="230.55" y="-96.46" font-family="monospace" font-size="9.00">c(1)=0</text>
</g>
<!-- 0&#45;&gt;1 -->
<g id="edge1" class="edge">
<title>0&#45;&gt;1</title>
<path fill="none" stroke="lightsalmon" stroke-width="2" d="M179.66,-92.32C189.97,-94.9 201.92,-97.89 212.83,-100.63"/>
<polygon fill="lightsalmon" stroke="lightsalmon" stroke-width="2" points="210.55,-102.22 216.88,-101.64 211.57,-98.15 210.55,-102.22"/>
</g>
<!-- 5 -->
<g id="node6" class="node">
<title>5</title>
<ellipse fill="none" stroke="#bbbbbb" cx="119.56" cy="-177.02" rx="27" ry="27"/>
<text text-anchor="start" x="115.43" y="-172.34" font-family="monospace" font-size="14.00" fill="#bbbbbb">5</text>
</g>
<!-- 0&#45;&gt;5 -->
<!-- 2 -->
<g id="node3" class="node">
<title>2</title>
<ellipse fill="none" stroke="lightsalmon" stroke-width="2" cx="217.75" cy="-27" rx="27" ry="27"/>
<text text-anchor="start" x="213.62" y="-28.95" font-family="monospace" font-size="14.00">2</text>
<text text-anchor="start" x="202" y="-14.45" font-family="monospace" font-size="9.00">c(2)=0</text>
</g>
<!-- 1&#45;&gt;2 -->
<g id="edge3" class="edge">
<title>1&#45;&gt;2</title>
<path fill="none" stroke="lightsalmon" stroke-width="2" d="M237.26,-83.06C234.69,-75.66 231.85,-67.5 229.15,-59.75"/>
<polygon fill="lightsalmon" stroke="lightsalmon" stroke-width="2" points="231.67,-60.62 227.72,-55.64 227.71,-62 231.67,-60.62"/>
</g>
<!-- 3 -->
<g id="node4" class="node">
<title>3</title>
<ellipse fill="none" stroke="#bbbbbb" cx="219.72" cy="-199.47" rx="27" ry="27"/>
<text text-anchor="start" x="215.6" y="-194.8" font-family="monospace" font-size="14.00" fill="#bbbbbb">3</text>
</g>
<!-- 1&#45;&gt;3 -->
<!-- 2&#45;&gt;0 -->
<g id="edge5" class="edge">
<title>2&#45;&gt;0</title>
<path fill="none" stroke="lightsalmon" stroke-width="2" d="M197.69,-45.25C191.68,-50.72 185.01,-56.79 178.7,-62.53"/>
<polygon fill="lightsalmon" stroke="lightsalmon" stroke-width="2" points="178.77,-59.63 175.75,-65.22 181.6,-62.73 178.77,-59.63"/>
</g>
<!-- 4 -->
<g id="node5" class="node">
<title>4</title>
<ellipse fill="none" stroke="#bbbbbb" cx="161.29" cy="-250.17" rx="27" ry="27"/>
<text text-anchor="start" x="157.16" y="-245.49" font-family="monospace" font-size="14.00" fill="#bbbbbb">4</text>
</g>
<!-- 3&#45;&gt;4 -->
<g id="edge6" class="edge">
<title>3&#45;&gt;4</title>
<path fill="none" stroke="#bbbbbb" d="M198.96,-217.49C195.26,-220.7 191.35,-224.09 187.52,-227.41"/>
<polygon fill="#bbbbbb" stroke="#bbbbbb" points="186.29,-225.7 183.13,-231.22 189.04,-228.87 186.29,-225.7"/>
</g>
<!-- 3&#45;&gt;5 -->
<g id="edge7" class="edge">
<title>3&#45;&gt;5</title>
<path fill="none" stroke="#bbbbbb" d="M193.14,-193.51C180.92,-190.77 166.28,-187.49 153.28,-184.58"/>
<polygon fill="#bbbbbb" stroke="#bbbbbb" points="154.05,-182.6 147.74,-183.33 153.13,-186.7 154.05,-182.6"/>
</g>
<!-- 4&#45;&gt;5 -->
<g id="edge8" class="edge">
<title>4&#45;&gt;5</title>
<path fill="none" stroke="#bbbbbb" d="M147.86,-226.62C144.32,-220.42 140.45,-213.64 136.74,-207.14"/>
<polygon fill="#bbbbbb" stroke="#bbbbbb" points="138.66,-206.26 133.86,-202.08 135.01,-208.34 138.66,-206.26"/>
</g>
<!-- 6 -->
<g id="node7" class="node">
<title>6</title>
<ellipse fill="none" stroke="#bbbbbb" cx="140.99" cy="-329.92" rx="27" ry="27"/>
<text text-anchor="start" x="136.86" y="-325.25" font-family="monospace" font-size="14.00" fill="#bbbbbb">6</text>
</g>
<!-- 4&#45;&gt;6 -->
<g id="edge9" class="edge">
<title>4&#45;&gt;6</title>
<path fill="none" stroke="#bbbbbb" d="M154.53,-276.72C152.92,-283.05 151.18,-289.87 149.51,-296.46"/>
<polygon fill="#bbbbbb" stroke="#bbbbbb" points="147.54,-295.68 148.09,-302.01 151.61,-296.72 147.54,-295.68"/>
</g>
<!-- 8 -->
<g id="node9" class="node">
<title>8</title>
<ellipse fill="none" stroke="#bbbbbb" cx="27" cy="-185.58" rx="27" ry="27"/>
<text text-anchor="start" x="22.88" y="-180.9" font-family="monospace" font-size="14.00" fill="#bbbbbb">8</text>
</g>
<!-- 5&#45;&gt;8 -->
<g id="edge10" class="edge">
<title>5&#45;&gt;8</title>
<path fill="none" stroke="#bbbbbb" d="M92.29,-179.54C82.59,-180.43 71.54,-181.46 61.33,-182.4"/>
<polygon fill="#bbbbbb" stroke="#bbbbbb" points="61.36,-180.29 55.58,-182.93 61.75,-184.47 61.36,-180.29"/>
</g>
<!-- 7 -->
<g id="node8" class="node">
<title>7</title>
<ellipse fill="none" stroke="#bbbbbb" cx="239.73" cy="-298.38" rx="27" ry="27"/>
<text text-anchor="start" x="235.6" y="-293.71" font-family="monospace" font-size="14.00" fill="#bbbbbb">7</text>
</g>
<!-- 6&#45;&gt;7 -->
<g id="edge11" class="edge">
<title>6&#45;&gt;7</title>
<path fill="none" stroke="#bbbbbb" d="M166.93,-321.64C179.08,-317.75 193.69,-313.09 206.63,-308.95"/>
<polygon fill="#bbbbbb" stroke="#bbbbbb" points="207.1,-311.01 212.17,-307.18 205.82,-307.01 207.1,-311.01"/>
</g>
<!-- 9 -->
<g id="node10" class="node">
<title>9</title>
<ellipse fill="none" stroke="#bbbbbb" cx="67.5" cy="-260.15" rx="27" ry="27"/>
<text text-anchor="start" x="63.38" y="-255.47" font-family="monospace" font-size="14.00" fill="#bbbbbb">9</text>
</g>
<!-- 6&#45;&gt;9 -->
<g id="edge12" class="edge">
<title>6&#45;&gt;9</title>
<path fill="none" stroke="#bbbbbb" d="M121.3,-311.22C112.48,-302.86 101.99,-292.89 92.62,-283.99"/>
<polygon fill="#bbbbbb" stroke="#bbbbbb" points="94.14,-282.55 88.35,-279.94 91.25,-285.59 94.14,-282.55"/>
</g>
<!-- 7&#45;&gt;3 -->
<g id="edge13" class="edge">
<title>7&#45;&gt;3</title>
<path fill="none" stroke="#bbbbbb" d="M234.31,-271.62C231.93,-259.85 229.11,-245.9 226.59,-233.41"/>
<polygon fill="#bbbbbb" stroke="#bbbbbb" points="228.69,-233.21 225.44,-227.74 224.57,-234.04 228.69,-233.21"/>
</g>
<!-- 8&#45;&gt;9 -->
<g id="edge14" class="edge">
<title>8&#45;&gt;9</title>
<path fill="none" stroke="#bbbbbb" d="M40.04,-209.58C43.51,-215.97 47.3,-222.95 50.93,-229.64"/>
<polygon fill="#bbbbbb" stroke="#bbbbbb" points="49.06,-230.59 53.77,-234.86 52.75,-228.58 49.06,-230.59"/>
</g>
<!-- 9&#45;&gt;5 -->
<g id="edge15" class="edge">
<title>9&#45;&gt;5</title>
<path fill="none" stroke="#bbbbbb" d="M82,-236.99C87.98,-227.44 94.98,-216.27 101.3,-206.17"/>
<polygon fill="#bbbbbb" stroke="#bbbbbb" points="102.93,-207.53 104.33,-201.33 99.37,-205.3 102.93,-207.53"/>
</g>
</g>
</svg>
