<?xml version="1.0" encoding="UTF-8" standalone="no"?>
<!DOCTYPE svg PUBLIC "-//W3C//DTD SVG 1.1//EN"
 "http://www.w3.org/Graphics/SVG/1.1/DTD/svg11.dtd">
<!-- Generated by graphviz version 12.0.0 (20240704.0754)
 -->
<!-- Pages: 1 -->
<svg width="289pt" height="226pt"
 viewBox="0.00 0.00 289.31 225.67" xmlns="http://www.w3.org/2000/svg" xmlns:xlink="http://www.w3.org/1999/xlink">
<g id="graph0" class="graph" transform="scale(1 1) rotate(0) translate(14.4 211.27)">
<polygon fill="white" stroke="none" points="-14.4,14.4 -14.4,-211.27 274.91,-211.27 274.91,14.4 -14.4,14.4"/>
<!-- 3 -->
<g id="node1" class="node">
<title>3</title>
<ellipse fill="none" stroke="#aaaaaa" cx="81.64" cy="-178.87" rx="18" ry="18"/>
<text text-anchor="middle" x="81.64" y="-174.2" font-family="monospace" font-size="14.00" fill="#aaaaaa">3</text>
</g>
<!-- 0 -->
<g id="node2" class="node">
<title>0</title>
<ellipse fill="none" stroke="red" stroke-width="2" cx="178.87" cy="-178.87" rx="18" ry="18"/>
<text text-anchor="middle" x="178.87" y="-174.2" font-family="monospace" font-size="14.00">0</text>
</g>
<!-- 3&#45;&gt;0 -->
<g id="edge2" class="edge">
<title>3&#45;&gt;0</title>
<path fill="none" stroke="#aaaaaa" d="M99.93,-178.87C115,-178.87 136.56,-178.87 153.33,-178.87"/>
<polygon fill="#aaaaaa" stroke="#aaaaaa" points="153.15,-180.97 159.15,-178.87 153.15,-176.77 153.15,-180.97"/>
</g>
<!-- 1 -->
<g id="node3" class="node">
<title>1</title>
<ellipse fill="none" stroke="red" stroke-width="2" cx="178.87" cy="-81.64" rx="18" ry="18"/>
<text text-anchor="middle" x="178.87" y="-76.96" font-family="monospace" font-size="14.00">1</text>
</g>
<!-- 0&#45;&gt;1 -->
<g id="edge1" class="edge">
<title>0&#45;&gt;1</title>
<path fill="none" stroke="red" stroke-width="2" d="M184.19,-161.49C185.86,-146.1 186.07,-123.47 184.83,-106.22"/>
<polygon fill="red" stroke="red" stroke-width="2" points="187.1,-108.01 184.48,-102.22 182.91,-108.38 187.1,-108.01"/>
</g>
<!-- 1&#45;&gt;0 -->
<g id="edge10" class="edge">
<title>1&#45;&gt;0</title>
<path fill="none" stroke="black" stroke-dasharray="5,2" d="M173.56,-99.02C171.89,-114.41 171.68,-137.05 172.92,-154.29"/>
<polygon fill="black" stroke="black" points="170.79,-154.01 173.41,-159.81 174.97,-153.64 170.79,-154.01"/>
</g>
<!-- 2 -->
<g id="node4" class="node">
<title>2</title>
<ellipse fill="none" stroke="red" stroke-width="2" cx="81.64" cy="-81.64" rx="18" ry="18"/>
<text text-anchor="middle" x="81.64" y="-76.96" font-family="monospace" font-size="14.00">2</text>
</g>
<!-- 1&#45;&gt;2 -->
<g id="edge3" class="edge">
<title>1&#45;&gt;2</title>
<path fill="none" stroke="red" stroke-width="2" d="M161.49,-76.32C146.1,-74.66 123.47,-74.44 106.22,-75.68"/>
<polygon fill="red" stroke="red" stroke-width="2" points="108.01,-73.42 102.22,-76.04 108.38,-77.6 108.01,-73.42"/>
</g>
<!-- 4 -->
<g id="node5" class="node">
<title>4</title>
<ellipse fill="none" stroke="red" stroke-width="2" cx="242.51" cy="-18" rx="18" ry="18"/>
<text text-anchor="middle" x="242.51" y="-13.32" font-family="monospace" font-size="14.00">4</text>
</g>
<!-- 1&#45;&gt;4 -->
<g id="edge5" class="edge">
<title>1&#45;&gt;4</title>
<path fill="none" stroke="red" stroke-width="2" d="M195,-73.23C205.74,-64.59 219.51,-51.11 229.54,-39.57"/>
<polygon fill="red" stroke="red" stroke-width="2" points="229.95,-42.36 232.19,-36.41 226.73,-39.66 229.95,-42.36"/>
</g>
<!-- 2&#45;&gt;3 -->
<!-- 2&#45;&gt;1 -->
<g id="edge8" class="edge">
<title>2&#45;&gt;1</title>
<path fill="none" stroke="black" stroke-dasharray="5,2" d="M99.02,-86.96C114.41,-88.62 137.05,-88.84 154.29,-87.6"/>
<polygon fill="black" stroke="black" points="154.01,-89.73 159.81,-87.11 153.64,-85.54 154.01,-89.73"/>
</g>
<!-- 5 -->
<g id="node6" class="node">
<title>5</title>
<ellipse fill="none" stroke="red" stroke-width="2" cx="18" cy="-18" rx="18" ry="18"/>
<text text-anchor="middle" x="18" y="-13.32" font-family="monospace" font-size="14.00">5</text>
</g>
<!-- 2&#45;&gt;5 -->
<g id="edge6" class="edge">
<title>2&#45;&gt;5</title>
<path fill="none" stroke="red" stroke-width="2" d="M73.23,-65.51C64.59,-54.78 51.11,-41 39.57,-30.97"/>
<polygon fill="red" stroke="red" stroke-width="2" points="42.36,-30.57 36.41,-28.32 39.66,-33.79 42.36,-30.57"/>
</g>
<!-- 4&#45;&gt;1 -->
<g id="edge9" class="edge">
<title>4&#45;&gt;1</title>
<path fill="none" stroke="black" stroke-dasharray="5,2" d="M226.38,-26.41C215.65,-35.05 201.88,-48.53 191.84,-60.07"/>
<polygon fill="black" stroke="black" points="190.47,-58.44 188.22,-64.39 193.69,-61.14 190.47,-58.44"/>
</g>
<!-- 5&#45;&gt;2 -->
<g id="edge7" class="edge">
<title>5&#45;&gt;2</title>
<path fill="none" stroke="black" stroke-dasharray="5,2" d="M26.41,-34.13C35.05,-44.86 48.53,-58.64 60.07,-68.67"/>
<polygon fill="black" stroke="black" points="58.44,-70.04 64.39,-72.29 61.14,-66.83 58.44,-70.04"/>
</g>
</g>
</svg>
