<?xml version="1.0" encoding="UTF-8" standalone="no"?>
<!DOCTYPE svg PUBLIC "-//W3C//DTD SVG 1.1//EN"
 "http://www.w3.org/Graphics/SVG/1.1/DTD/svg11.dtd">
<!-- Generated by graphviz version 12.0.0 (20240704.0754)
 -->
<!-- Pages: 1 -->
<svg width="360pt" height="217pt"
 viewBox="0.00 0.00 360.28 216.71" xmlns="http://www.w3.org/2000/svg" xmlns:xlink="http://www.w3.org/1999/xlink">
<g id="graph0" class="graph" transform="scale(1 1) rotate(0) translate(14.4 202.31)">
<polygon fill="white" stroke="none" points="-14.4,14.4 -14.4,-202.31 345.88,-202.31 345.88,14.4 -14.4,14.4"/>
<!-- 3 -->
<g id="node1" class="node">
<title>3</title>
<ellipse fill="none" stroke="red" stroke-width="2" cx="179.92" cy="-169.91" rx="18" ry="18"/>
<text text-anchor="start" x="175.79" y="-165.24" font-family="monospace" font-size="14.00">3</text>
</g>
<!-- 0 -->
<g id="node2" class="node">
<title>0</title>
<ellipse fill="none" stroke="red" stroke-width="2" cx="259.04" cy="-169.91" rx="18" ry="18"/>
<text text-anchor="start" x="254.91" y="-165.24" font-family="monospace" font-size="14.00">0</text>
</g>
<!-- 3&#45;&gt;0 -->
<g id="edge1" class="edge">
<title>3&#45;&gt;0</title>
<path fill="none" stroke="red" stroke-width="2" d="M198.27,-169.91C208.75,-169.91 222.06,-169.91 233.55,-169.91"/>
<polygon fill="red" stroke="red" stroke-width="2" points="231.76,-172.01 237.76,-169.91 231.76,-167.81 231.76,-172.01"/>
</g>
<!-- 1 -->
<g id="node3" class="node">
<title>1</title>
<ellipse fill="none" stroke="red" stroke-width="2" cx="249.07" cy="-89.14" rx="18" ry="18"/>
<text text-anchor="start" x="244.95" y="-84.47" font-family="monospace" font-size="14.00">1</text>
</g>
<!-- 0&#45;&gt;1 -->
<g id="edge2" class="edge">
<title>0&#45;&gt;1</title>
<path fill="none" stroke="red" stroke-width="2" d="M256.78,-151.58C255.42,-140.64 253.69,-126.57 252.21,-114.56"/>
<polygon fill="red" stroke="red" stroke-width="2" points="254.51,-116.1 251.69,-110.4 250.34,-116.62 254.51,-116.1"/>
</g>
<!-- 2 -->
<g id="node4" class="node">
<title>2</title>
<ellipse fill="none" stroke="red" stroke-width="2" cx="167.74" cy="-88.69" rx="18" ry="18"/>
<text text-anchor="start" x="163.61" y="-84.01" font-family="monospace" font-size="14.00">2</text>
</g>
<!-- 1&#45;&gt;2 -->
<g id="edge3" class="edge">
<title>1&#45;&gt;2</title>
<path fill="none" stroke="red" stroke-width="2" d="M230.61,-89.04C219.59,-88.98 205.43,-88.9 193.34,-88.83"/>
<polygon fill="red" stroke="red" stroke-width="2" points="195.16,-86.74 189.15,-88.81 195.13,-90.94 195.16,-86.74"/>
</g>
<!-- 4 -->
<g id="node8" class="node">
<title>4</title>
<ellipse fill="none" stroke="#bbbbbb" cx="313.48" cy="-45.81" rx="18" ry="18"/>
<text text-anchor="start" x="309.36" y="-41.13" font-family="monospace" font-size="14.00" fill="#bbbbbb">4</text>
</g>
<!-- 1&#45;&gt;4 -->
<g id="edge4" class="edge">
<title>1&#45;&gt;4</title>
<path fill="none" stroke="#bbbbbb" d="M264.34,-78.87C272.68,-73.26 283.14,-66.22 292.27,-60.08"/>
<polygon fill="#bbbbbb" stroke="#bbbbbb" points="293.27,-61.94 297.07,-56.85 290.92,-58.46 293.27,-61.94"/>
</g>
<!-- 2&#45;&gt;3 -->
<g id="edge5" class="edge">
<title>2&#45;&gt;3</title>
<path fill="none" stroke="#bbbbbb" d="M170.44,-106.71C172.1,-117.78 174.25,-132.13 176.09,-144.36"/>
<polygon fill="#bbbbbb" stroke="#bbbbbb" points="173.99,-144.54 176.95,-150.16 178.14,-143.91 173.99,-144.54"/>
</g>
<!-- 6 -->
<g id="node6" class="node">
<title>6</title>
<ellipse fill="none" stroke="skyblue" stroke-width="2" cx="92.82" cy="-70.55" rx="18" ry="18"/>
<text text-anchor="start" x="88.7" y="-65.87" font-family="monospace" font-size="14.00">6</text>
</g>
<!-- 2&#45;&gt;6 -->
<g id="edge7" class="edge">
<title>2&#45;&gt;6</title>
<path fill="none" stroke="#bbbbbb" d="M149.98,-84.39C140.35,-82.06 128.29,-79.14 117.73,-76.58"/>
<polygon fill="#bbbbbb" stroke="#bbbbbb" points="118.5,-74.61 112.18,-75.23 117.52,-78.69 118.5,-74.61"/>
</g>
<!-- 5 -->
<g id="node7" class="node">
<title>5</title>
<ellipse fill="none" stroke="skyblue" stroke-width="2" cx="137.75" cy="-18" rx="18" ry="18"/>
<text text-anchor="start" x="133.63" y="-13.32" font-family="monospace" font-size="14.00">5</text>
</g>
<!-- 2&#45;&gt;5 -->
<g id="edge6" class="edge">
<title>2&#45;&gt;5</title>
<path fill="none" stroke="#bbbbbb" d="M160.63,-71.94C156.75,-62.78 151.88,-51.3 147.63,-41.28"/>
<polygon fill="#bbbbbb" stroke="#bbbbbb" points="149.67,-40.73 145.4,-36.03 145.81,-42.37 149.67,-40.73"/>
</g>
<!-- 7 -->
<g id="node5" class="node">
<title>7</title>
<ellipse fill="none" stroke="skyblue" stroke-width="2" cx="18" cy="-65.55" rx="18" ry="18"/>
<text text-anchor="start" x="13.88" y="-60.88" font-family="monospace" font-size="14.00">7</text>
</g>
<!-- 7&#45;&gt;6 -->
<g id="edge10" class="edge">
<title>7&#45;&gt;6</title>
<path fill="none" stroke="skyblue" stroke-width="2" d="M34.97,-72.5C44.56,-74.15 56.73,-75.17 67.44,-75.27"/>
<polygon fill="skyblue" stroke="skyblue" stroke-width="2" points="65.91,-77.39 71.89,-75.22 65.86,-73.19 65.91,-77.39"/>
</g>
<!-- 6&#45;&gt;7 -->
<g id="edge9" class="edge">
<title>6&#45;&gt;7</title>
<path fill="none" stroke="#bbbbbb" d="M75.85,-63.6C66.26,-61.94 54.09,-60.93 43.38,-60.83"/>
<polygon fill="#bbbbbb" stroke="#bbbbbb" points="43.39,-58.73 37.42,-60.9 43.44,-62.93 43.39,-58.73"/>
</g>
<!-- 6&#45;&gt;5 -->
<g id="edge8" class="edge">
<title>6&#45;&gt;5</title>
<path fill="none" stroke="skyblue" stroke-width="2" d="M104.63,-56.74C109.64,-50.87 115.58,-43.93 121.04,-37.55"/>
<polygon fill="skyblue" stroke="skyblue" stroke-width="2" points="121.6,-40.12 123.9,-34.2 118.41,-37.39 121.6,-40.12"/>
</g>
</g>
</svg>
