<?xml version="1.0" encoding="UTF-8" standalone="no"?>
<!DOCTYPE svg PUBLIC "-//W3C//DTD SVG 1.1//EN"
 "http://www.w3.org/Graphics/SVG/1.1/DTD/svg11.dtd">
<!-- Generated by graphviz version 12.0.0 (20240704.0754)
 -->
<!-- Pages: 1 -->
<svg width="202pt" height="202pt"
 viewBox="0.00 0.00 202.31 202.31" xmlns="http://www.w3.org/2000/svg" xmlns:xlink="http://www.w3.org/1999/xlink">
<g id="graph0" class="graph" transform="scale(1 1) rotate(0) translate(14.4 187.91)">
<polygon fill="white" stroke="none" points="-14.4,14.4 -14.4,-187.91 187.91,-187.91 187.91,14.4 -14.4,14.4"/>
<!-- 0 -->
<g id="node1" class="node">
<title>0</title>
<ellipse fill="none" stroke="black" stroke-width="2" cx="86.75" cy="-18" rx="18" ry="18"/>
<text text-anchor="middle" x="86.75" y="-13.32" font-family="monospace" font-size="14.00">0</text>
</g>
<!-- 1 -->
<g id="node2" class="node">
<title>1</title>
<ellipse fill="none" stroke="black" stroke-width="2" cx="155.51" cy="-86.75" rx="18" ry="18"/>
<text text-anchor="middle" x="155.51" y="-82.08" font-family="monospace" font-size="14.00">1</text>
</g>
<!-- 0&#45;&gt;1 -->
<g id="edge3" class="edge">
<title>0&#45;&gt;1</title>
<path fill="none" stroke="red" stroke-width="2" d="M95.29,-34.05C104.99,-46.11 120.84,-62.27 133.91,-73.58"/>
<polygon fill="red" stroke="red" stroke-width="2" points="131.05,-73.92 137,-76.17 133.75,-70.7 131.05,-73.92"/>
</g>
<!-- 2 -->
<g id="node3" class="node">
<title>2</title>
<ellipse fill="none" stroke="black" stroke-width="2" cx="86.75" cy="-155.51" rx="18" ry="18"/>
<text text-anchor="middle" x="86.75" y="-150.83" font-family="monospace" font-size="14.00">2</text>
</g>
<!-- 0&#45;&gt;2 -->
<g id="edge1" class="edge">
<title>0&#45;&gt;2</title>
<path fill="none" stroke="lightgray" d="M86.75,-43.5C86.75,-68.15 86.75,-105.28 86.75,-129.95"/>
<polygon fill="lightgray" stroke="lightgray" points="88.86,-43.77 86.75,-37.77 84.66,-43.77 88.86,-43.77"/>
<polygon fill="lightgray" stroke="lightgray" points="84.66,-129.66 86.75,-135.66 88.86,-129.66 84.66,-129.66"/>
</g>
<!-- 3 -->
<g id="node4" class="node">
<title>3</title>
<ellipse fill="none" stroke="black" stroke-width="2" cx="18" cy="-86.75" rx="18" ry="18"/>
<text text-anchor="middle" x="18" y="-82.08" font-family="monospace" font-size="14.00">3</text>
</g>
<!-- 0&#45;&gt;3 -->
<g id="edge2" class="edge">
<title>0&#45;&gt;3</title>
<path fill="none" stroke="lightgray" d="M68.63,-36.12C58.61,-46.14 46.2,-58.56 36.17,-68.59"/>
<polygon fill="lightgray" stroke="lightgray" points="69.99,-37.73 72.75,-32 67.02,-34.76 69.99,-37.73"/>
<polygon fill="lightgray" stroke="lightgray" points="34.7,-67.08 31.94,-72.81 37.67,-70.05 34.7,-67.08"/>
</g>
<!-- 1&#45;&gt;0 -->
<g id="edge4" class="edge">
<title>1&#45;&gt;0</title>
<path fill="none" stroke="lightgray" d="M146.98,-70.7C137.27,-58.64 121.42,-42.49 108.35,-31.17"/>
<polygon fill="lightgray" stroke="lightgray" points="110.05,-29.86 104.11,-27.62 107.36,-33.08 110.05,-29.86"/>
</g>
<!-- 1&#45;&gt;2 -->
<g id="edge5" class="edge">
<title>1&#45;&gt;2</title>
<path fill="none" stroke="red" stroke-width="2" d="M139.46,-95.29C127.4,-104.99 111.24,-120.84 99.93,-133.91"/>
<polygon fill="red" stroke="red" stroke-width="2" points="99.59,-131.05 97.34,-137 102.81,-133.75 99.59,-131.05"/>
</g>
<!-- 2&#45;&gt;1 -->
<g id="edge6" class="edge">
<title>2&#45;&gt;1</title>
<path fill="none" stroke="lightgray" d="M102.81,-146.98C114.87,-137.27 131.02,-121.42 142.34,-108.35"/>
<polygon fill="lightgray" stroke="lightgray" points="143.65,-110.05 145.89,-104.11 140.43,-107.36 143.65,-110.05"/>
</g>
<!-- 2&#45;&gt;3 -->
<g id="edge7" class="edge">
<title>2&#45;&gt;3</title>
<path fill="none" stroke="red" stroke-width="2" d="M78.22,-139.46C68.52,-127.4 52.67,-111.24 39.6,-99.93"/>
<polygon fill="red" stroke="red" stroke-width="2" points="42.46,-99.59 36.51,-97.34 39.76,-102.81 42.46,-99.59"/>
</g>
<!-- 3&#45;&gt;1 -->
<g id="edge8" class="edge">
<title>3&#45;&gt;1</title>
<path fill="none" stroke="lightgray" d="M43.5,-86.75C68.15,-86.75 105.28,-86.75 129.95,-86.75"/>
<polygon fill="lightgray" stroke="lightgray" points="43.77,-84.66 37.77,-86.75 43.77,-88.86 43.77,-84.66"/>
<polygon fill="lightgray" stroke="lightgray" points="129.66,-88.86 135.66,-86.75 129.66,-84.66 129.66,-88.86"/>
</g>
<!-- 3&#45;&gt;2 -->
<g id="edge9" class="edge">
<title>3&#45;&gt;2</title>
<path fill="none" stroke="lightgray" d="M26.53,-102.81C36.24,-114.87 52.09,-131.02 65.16,-142.34"/>
<polygon fill="lightgray" stroke="lightgray" points="63.46,-143.65 69.4,-145.89 66.15,-140.43 63.46,-143.65"/>
</g>
</g>
</svg>
