<?xml version="1.0" encoding="UTF-8" standalone="no"?>
<!DOCTYPE svg PUBLIC "-//W3C//DTD SVG 1.1//EN"
 "http://www.w3.org/Graphics/SVG/1.1/DTD/svg11.dtd">
<!-- Generated by graphviz version 12.0.0 (20240704.0754)
 -->
<!-- Pages: 1 -->
<svg width="296pt" height="401pt"
 viewBox="0.00 0.00 295.69 400.95" xmlns="http://www.w3.org/2000/svg" xmlns:xlink="http://www.w3.org/1999/xlink">
<g id="graph0" class="graph" transform="scale(1 1) rotate(0) translate(14.4 386.55)">
<polygon fill="white" stroke="none" points="-14.4,14.4 -14.4,-386.55 281.29,-386.55 281.29,14.4 -14.4,14.4"/>
<!-- 3 -->
<g id="node1" class="node">
<title>3</title>
<ellipse fill="none" stroke="red" stroke-width="2" cx="71.5" cy="-354.15" rx="18" ry="18"/>
<text text-anchor="middle" x="71.5" y="-349.47" font-family="monospace" font-size="14.00">3</text>
</g>
<!-- 0 -->
<g id="node2" class="node">
<title>0</title>
<ellipse fill="none" stroke="red" stroke-width="2" cx="160.82" cy="-354.15" rx="18" ry="18"/>
<text text-anchor="middle" x="160.82" y="-349.47" font-family="monospace" font-size="14.00">0</text>
</g>
<!-- 3&#45;&gt;0 -->
<g id="edge1" class="edge">
<title>3&#45;&gt;0</title>
<path fill="none" stroke="red" stroke-width="2" d="M89.58,-354.15C102.68,-354.15 120.6,-354.15 135.18,-354.15"/>
<polygon fill="red" stroke="red" stroke-width="2" points="133.44,-356.25 139.44,-354.15 133.44,-352.05 133.44,-356.25"/>
</g>
<!-- 1 -->
<g id="node3" class="node">
<title>1</title>
<ellipse fill="none" stroke="red" stroke-width="2" cx="116.16" cy="-276.8" rx="18" ry="18"/>
<text text-anchor="middle" x="116.16" y="-272.12" font-family="monospace" font-size="14.00">1</text>
</g>
<!-- 0&#45;&gt;1 -->
<g id="edge2" class="edge">
<title>0&#45;&gt;1</title>
<path fill="none" stroke="red" stroke-width="2" d="M151.78,-338.5C145.23,-327.14 136.27,-311.63 128.98,-299"/>
<polygon fill="red" stroke="red" stroke-width="2" points="131.67,-299.46 126.85,-295.32 128.03,-301.56 131.67,-299.46"/>
</g>
<!-- 2 -->
<g id="node4" class="node">
<title>2</title>
<ellipse fill="none" stroke="red" stroke-width="2" cx="107.32" cy="-185.35" rx="18" ry="18"/>
<text text-anchor="middle" x="107.32" y="-180.67" font-family="monospace" font-size="14.00">2</text>
</g>
<!-- 1&#45;&gt;2 -->
<g id="edge3" class="edge">
<title>1&#45;&gt;2</title>
<path fill="none" stroke="red" stroke-width="2" d="M114.41,-258.73C113.09,-245.04 111.25,-226.06 109.78,-210.83"/>
<polygon fill="red" stroke="red" stroke-width="2" points="112.05,-212.48 109.38,-206.71 107.87,-212.88 112.05,-212.48"/>
</g>
<!-- 4 -->
<g id="node5" class="node">
<title>4</title>
<ellipse fill="none" stroke="#bbbbbb" cx="248.89" cy="-141.59" rx="18" ry="18"/>
<text text-anchor="middle" x="248.89" y="-136.92" font-family="monospace" font-size="14.00" fill="#bbbbbb">4</text>
</g>
<!-- 1&#45;&gt;4 -->
<g id="edge4" class="edge">
<title>1&#45;&gt;4</title>
<path fill="none" stroke="#bbbbbb" d="M128.89,-263.83C152.61,-239.67 203.65,-187.68 230.89,-159.93"/>
<polygon fill="#bbbbbb" stroke="#bbbbbb" points="232.24,-161.55 234.95,-155.8 229.24,-158.61 232.24,-161.55"/>
</g>
<!-- 2&#45;&gt;3 -->
<g id="edge5" class="edge">
<title>2&#45;&gt;3</title>
<path fill="none" stroke="#bbbbbb" d="M103.48,-203.41C97.07,-233.62 84.17,-294.44 76.86,-328.88"/>
<polygon fill="#bbbbbb" stroke="#bbbbbb" points="74.81,-328.43 75.62,-334.73 78.92,-329.3 74.81,-328.43"/>
</g>
<!-- 6 -->
<g id="node7" class="node">
<title>6</title>
<ellipse fill="none" stroke="skyblue" stroke-width="2" cx="62.66" cy="-108" rx="18" ry="18"/>
<text text-anchor="middle" x="62.66" y="-103.33" font-family="monospace" font-size="14.00">6</text>
</g>
<!-- 2&#45;&gt;6 -->
<g id="edge7" class="edge">
<title>2&#45;&gt;6</title>
<path fill="none" stroke="#bbbbbb" d="M98.28,-169.7C91.72,-158.34 82.77,-142.83 75.47,-130.2"/>
<polygon fill="#bbbbbb" stroke="#bbbbbb" points="77.41,-129.35 72.59,-125.21 73.77,-131.45 77.41,-129.35"/>
</g>
<!-- 5 -->
<g id="node8" class="node">
<title>5</title>
<ellipse fill="none" stroke="skyblue" stroke-width="2" cx="18" cy="-185.35" rx="18" ry="18"/>
<text text-anchor="middle" x="18" y="-180.67" font-family="monospace" font-size="14.00">5</text>
</g>
<!-- 2&#45;&gt;5 -->
<g id="edge6" class="edge">
<title>2&#45;&gt;5</title>
<path fill="none" stroke="#bbbbbb" d="M89.24,-185.35C76.13,-185.35 58.22,-185.35 43.63,-185.35"/>
<polygon fill="#bbbbbb" stroke="#bbbbbb" points="43.87,-183.25 37.87,-185.35 43.87,-187.45 43.87,-183.25"/>
</g>
<!-- 7 -->
<g id="node6" class="node">
<title>7</title>
<ellipse fill="none" stroke="skyblue" stroke-width="2" cx="62.66" cy="-18" rx="18" ry="18"/>
<text text-anchor="middle" x="62.66" y="-13.32" font-family="monospace" font-size="14.00">7</text>
</g>
<!-- 7&#45;&gt;6 -->
<g id="edge10" class="edge">
<title>7&#45;&gt;6</title>
<path fill="none" stroke="skyblue" stroke-width="2" d="M57.2,-35.35C55.73,-48.96 55.51,-68.08 56.56,-83.28"/>
<polygon fill="skyblue" stroke="skyblue" stroke-width="2" points="54.3,-81.58 56.91,-87.38 58.49,-81.22 54.3,-81.58"/>
</g>
<!-- 6&#45;&gt;7 -->
<g id="edge9" class="edge">
<title>6&#45;&gt;7</title>
<path fill="none" stroke="#bbbbbb" d="M68.12,-90.65C69.59,-77.04 69.8,-57.92 68.76,-42.72"/>
<polygon fill="#bbbbbb" stroke="#bbbbbb" points="70.88,-42.91 68.27,-37.11 66.7,-43.27 70.88,-42.91"/>
</g>
<!-- 6&#45;&gt;5 -->
<g id="edge8" class="edge">
<title>6&#45;&gt;5</title>
<path fill="none" stroke="skyblue" stroke-width="2" d="M53.62,-123.65C47.07,-135.01 38.11,-150.52 30.82,-163.15"/>
<polygon fill="skyblue" stroke="skyblue" stroke-width="2" points="29.87,-160.59 28.69,-166.83 33.51,-162.69 29.87,-160.59"/>
</g>
</g>
</svg>
