<?xml version="1.0" encoding="UTF-8" standalone="no"?>
<!DOCTYPE svg PUBLIC "-//W3C//DTD SVG 1.1//EN"
 "http://www.w3.org/Graphics/SVG/1.1/DTD/svg11.dtd">
<!-- Generated by graphviz version 12.0.0 (20240704.0754)
 -->
<!-- Pages: 1 -->
<svg width="306pt" height="216pt"
 viewBox="0.00 0.00 306.29 216.45" xmlns="http://www.w3.org/2000/svg" xmlns:xlink="http://www.w3.org/1999/xlink">
<g id="graph0" class="graph" transform="scale(1 1) rotate(0) translate(14.4 202.05)">
<polygon fill="white" stroke="none" points="-14.4,14.4 -14.4,-202.05 291.89,-202.05 291.89,14.4 -14.4,14.4"/>
<!-- 3 -->
<g id="node1" class="node">
<title>3</title>
<ellipse fill="none" stroke="#bbbbbb" cx="91.17" cy="-169.65" rx="18" ry="18"/>
<text text-anchor="middle" x="91.17" y="-164.98" font-family="monospace" font-size="14.00" fill="#bbbbbb">3</text>
</g>
<!-- 0 -->
<g id="node2" class="node">
<title>0</title>
<ellipse fill="none" stroke="red" stroke-width="2" cx="186.31" cy="-169.65" rx="18" ry="18"/>
<text text-anchor="middle" x="186.31" y="-164.98" font-family="monospace" font-size="14.00">0</text>
</g>
<!-- 3&#45;&gt;0 -->
<g id="edge2" class="edge">
<title>3&#45;&gt;0</title>
<path fill="none" stroke="#bbbbbb" d="M109.51,-169.65C124.12,-169.65 144.74,-169.65 160.93,-169.65"/>
<polygon fill="#bbbbbb" stroke="#bbbbbb" points="160.51,-171.75 166.51,-169.65 160.51,-167.55 160.51,-171.75"/>
</g>
<!-- 1 -->
<g id="node3" class="node">
<title>1</title>
<ellipse fill="none" stroke="red" stroke-width="2" cx="186.63" cy="-73.27" rx="18" ry="18"/>
<text text-anchor="middle" x="186.63" y="-68.6" font-family="monospace" font-size="14.00">1</text>
</g>
<!-- 0&#45;&gt;1 -->
<g id="edge1" class="edge">
<title>0&#45;&gt;1</title>
<path fill="none" stroke="red" stroke-width="2" d="M186.37,-151.53C186.42,-136.68 186.49,-115.49 186.55,-98.9"/>
<polygon fill="red" stroke="red" stroke-width="2" points="188.64,-100.68 186.56,-94.67 184.44,-100.67 188.64,-100.68"/>
<text text-anchor="middle" x="173.45" y="-94.35" font-family="monospace" font-size="9.00">t=1 &#160;</text>
<text text-anchor="middle" x="173.25" y="-142.98" font-family="monospace" font-size="9.00">t=0 &#160;</text>
</g>
<!-- 2 -->
<g id="node4" class="node">
<title>2</title>
<ellipse fill="none" stroke="red" stroke-width="2" cx="90.85" cy="-73.27" rx="18" ry="18"/>
<text text-anchor="middle" x="90.85" y="-68.59" font-family="monospace" font-size="14.00">2</text>
</g>
<!-- 1&#45;&gt;2 -->
<g id="edge3" class="edge">
<title>1&#45;&gt;2</title>
<path fill="none" stroke="red" stroke-width="2" d="M168.17,-73.27C153.46,-73.27 132.7,-73.27 116.4,-73.27"/>
<polygon fill="red" stroke="red" stroke-width="2" points="118.29,-71.17 112.29,-73.27 118.29,-75.37 118.29,-71.17"/>
<text text-anchor="middle" x="125.01" y="-75.97" font-family="monospace" font-size="9.00"> &#160;&#160;t=2</text>
</g>
<!-- 4 -->
<g id="node5" class="node">
<title>4</title>
<ellipse fill="none" stroke="red" stroke-width="2" cx="259.49" cy="-18.01" rx="18" ry="18"/>
<text text-anchor="middle" x="259.49" y="-13.33" font-family="monospace" font-size="14.00">4</text>
</g>
<!-- 1&#45;&gt;4 -->
<g id="edge5" class="edge">
<title>1&#45;&gt;4</title>
<path fill="none" stroke="red" stroke-width="2" d="M201.03,-62.35C212,-54.03 227.26,-42.46 239.43,-33.22"/>
<polygon fill="red" stroke="red" stroke-width="2" points="239.2,-36.03 242.71,-30.73 236.66,-32.68 239.2,-36.03"/>
<text text-anchor="middle" x="229.37" y="-31.6" font-family="monospace" font-size="9.00">t=3 &#160;&#160;</text>
</g>
<!-- 2&#45;&gt;3 -->
<!-- 5 -->
<g id="node6" class="node">
<title>5</title>
<ellipse fill="none" stroke="red" stroke-width="2" cx="18" cy="-18" rx="18" ry="18"/>
<text text-anchor="middle" x="18" y="-13.32" font-family="monospace" font-size="14.00">5</text>
</g>
<!-- 2&#45;&gt;5 -->
<g id="edge6" class="edge">
<title>2&#45;&gt;5</title>
<path fill="none" stroke="red" stroke-width="2" d="M76.46,-62.35C65.48,-54.02 50.23,-42.45 38.06,-33.22"/>
<polygon fill="red" stroke="red" stroke-width="2" points="40.82,-32.68 34.77,-30.73 38.29,-36.02 40.82,-32.68"/>
<text text-anchor="middle" x="50.74" y="-31.6" font-family="monospace" font-size="9.00"> &#160;&#160;t=4 </text>
</g>
</g>
</svg>
