<?xml version="1.0" encoding="UTF-8" standalone="no"?>
<!DOCTYPE svg PUBLIC "-//W3C//DTD SVG 1.1//EN"
 "http://www.w3.org/Graphics/SVG/1.1/DTD/svg11.dtd">
<!-- Generated by graphviz version 12.0.0 (20240704.0754)
 -->
<!-- Pages: 1 -->
<svg width="521pt" height="291pt"
 viewBox="0.00 0.00 521.44 291.20" xmlns="http://www.w3.org/2000/svg" xmlns:xlink="http://www.w3.org/1999/xlink">
<g id="graph0" class="graph" transform="scale(1 1) rotate(0) translate(14.4 276.8)">
<polygon fill="white" stroke="none" points="-14.4,14.4 -14.4,-276.8 507.04,-276.8 507.04,14.4 -14.4,14.4"/>
<!-- 3 -->
<g id="node1" class="node">
<title>3</title>
<ellipse fill="none" stroke="red" stroke-width="2" cx="186.16" cy="-235.4" rx="27" ry="27"/>
<text text-anchor="start" x="182.04" y="-237.35" font-family="monospace" font-size="14.00">3</text>
<text text-anchor="start" x="170.41" y="-222.85" font-family="monospace" font-size="9.00">t(3)=0</text>
</g>
<!-- 0 -->
<g id="node2" class="node">
<title>0</title>
<ellipse fill="none" stroke="red" stroke-width="2" cx="306.48" cy="-235.4" rx="27" ry="27"/>
<text text-anchor="start" x="302.36" y="-237.35" font-family="monospace" font-size="14.00">0</text>
<text text-anchor="start" x="290.73" y="-222.85" font-family="monospace" font-size="9.00">t(0)=2</text>
</g>
<!-- 3&#45;&gt;0 -->
<g id="edge1" class="edge">
<title>3&#45;&gt;0</title>
<path fill="none" stroke="red" stroke-width="2" d="M213.46,-235.4C230.85,-235.4 253.51,-235.4 272.11,-235.4"/>
<polygon fill="red" stroke="red" stroke-width="2" points="270.26,-237.5 276.26,-235.4 270.26,-233.3 270.26,-237.5"/>
</g>
<!-- 1 -->
<g id="node3" class="node">
<title>1</title>
<ellipse fill="none" stroke="red" stroke-width="2" cx="366.64" cy="-131.2" rx="27" ry="27"/>
<text text-anchor="start" x="362.52" y="-133.15" font-family="monospace" font-size="14.00">1</text>
<text text-anchor="start" x="350.89" y="-118.65" font-family="monospace" font-size="9.00">t(1)=4</text>
</g>
<!-- 0&#45;&gt;1 -->
<g id="edge2" class="edge">
<title>0&#45;&gt;1</title>
<path fill="none" stroke="red" stroke-width="2" d="M320.13,-211.76C328.82,-196.7 340.16,-177.08 349.46,-160.96"/>
<polygon fill="red" stroke="red" stroke-width="2" points="350.35,-163.62 351.53,-157.37 346.71,-161.52 350.35,-163.62"/>
</g>
<!-- 2 -->
<g id="node4" class="node">
<title>2</title>
<ellipse fill="none" stroke="red" stroke-width="2" cx="306.48" cy="-27" rx="27" ry="27"/>
<text text-anchor="start" x="302.36" y="-28.95" font-family="monospace" font-size="14.00">2</text>
<text text-anchor="start" x="290.73" y="-14.45" font-family="monospace" font-size="9.00">t(2)=6</text>
</g>
<!-- 1&#45;&gt;2 -->
<g id="edge3" class="edge">
<title>1&#45;&gt;2</title>
<path fill="none" stroke="red" stroke-width="2" d="M352.99,-107.56C344.3,-92.5 332.97,-72.87 323.67,-56.76"/>
<polygon fill="red" stroke="red" stroke-width="2" points="326.41,-57.32 321.59,-53.17 322.77,-59.42 326.41,-57.32"/>
</g>
<!-- 4 -->
<g id="node5" class="node">
<title>4</title>
<ellipse fill="none" stroke="red" stroke-width="2" cx="465.64" cy="-131.2" rx="27" ry="27"/>
<text text-anchor="start" x="461.52" y="-133.15" font-family="monospace" font-size="14.00">4</text>
<text text-anchor="start" x="449.89" y="-118.65" font-family="monospace" font-size="9.00">t(4)=7</text>
</g>
<!-- 1&#45;&gt;4 -->
<g id="edge4" class="edge">
<title>1&#45;&gt;4</title>
<path fill="none" stroke="red" stroke-width="2" d="M393.96,-131.2C405.43,-131.2 418.9,-131.2 431.05,-131.2"/>
<polygon fill="red" stroke="red" stroke-width="2" points="429.39,-133.3 435.39,-131.2 429.39,-129.1 429.39,-133.3"/>
</g>
<!-- 5 -->
<g id="node8" class="node">
<title>5</title>
<ellipse fill="none" stroke="blue" stroke-width="2" cx="186.16" cy="-27" rx="27" ry="27"/>
<text text-anchor="start" x="182.04" y="-28.95" font-family="monospace" font-size="14.00">5</text>
<text text-anchor="start" x="170.41" y="-14.45" font-family="monospace" font-size="9.00">t(5)=5</text>
</g>
<!-- 1&#45;&gt;5 -->
<!-- 2&#45;&gt;3 -->
<g id="edge5" class="edge">
<title>2&#45;&gt;3</title>
<path fill="none" stroke="#aaaaaa" d="M292.91,-50.5C270.98,-88.49 227.75,-163.37 203.57,-205.24"/>
<polygon fill="#aaaaaa" stroke="#aaaaaa" points="201.8,-204.11 200.62,-210.36 205.44,-206.21 201.8,-204.11"/>
</g>
<!-- 6 -->
<g id="node7" class="node">
<title>6</title>
<ellipse fill="none" stroke="blue" stroke-width="2" cx="126" cy="-131.2" rx="27" ry="27"/>
<text text-anchor="start" x="121.88" y="-133.15" font-family="monospace" font-size="14.00">6</text>
<text text-anchor="start" x="110.25" y="-118.65" font-family="monospace" font-size="9.00">t(6)=3</text>
</g>
<!-- 2&#45;&gt;6 -->
<g id="edge7" class="edge">
<title>2&#45;&gt;6</title>
<path fill="none" stroke="#aaaaaa" d="M282.89,-40.62C250.32,-59.42 191.6,-93.32 155.97,-113.9"/>
<polygon fill="#aaaaaa" stroke="#aaaaaa" points="155.06,-112 150.91,-116.82 157.16,-115.64 155.06,-112"/>
</g>
<!-- 2&#45;&gt;5 -->
<g id="edge6" class="edge">
<title>2&#45;&gt;5</title>
<path fill="none" stroke="#aaaaaa" d="M279.18,-27C261.8,-27 239.13,-27 220.53,-27"/>
<polygon fill="#aaaaaa" stroke="#aaaaaa" points="220.87,-24.9 214.87,-27 220.87,-29.1 220.87,-24.9"/>
</g>
<!-- 7 -->
<g id="node6" class="node">
<title>7</title>
<ellipse fill="none" stroke="blue" stroke-width="2" cx="27" cy="-131.2" rx="27" ry="27"/>
<text text-anchor="start" x="22.88" y="-133.15" font-family="monospace" font-size="14.00">7</text>
<text text-anchor="start" x="11.25" y="-118.65" font-family="monospace" font-size="9.00">t(7)=1</text>
</g>
<!-- 7&#45;&gt;6 -->
<g id="edge10" class="edge">
<title>7&#45;&gt;6</title>
<path fill="none" stroke="blue" stroke-width="2" d="M53.79,-137.28C65.57,-138.03 79.53,-138.15 92.03,-137.65"/>
<polygon fill="blue" stroke="blue" stroke-width="2" points="90.28,-139.84 96.16,-137.43 90.06,-135.65 90.28,-139.84"/>
</g>
<!-- 6&#45;&gt;7 -->
<g id="edge9" class="edge">
<title>6&#45;&gt;7</title>
<path fill="none" stroke="#aaaaaa" d="M99.21,-125.13C87.43,-124.37 73.47,-124.25 60.97,-124.76"/>
<polygon fill="#aaaaaa" stroke="#aaaaaa" points="61.21,-122.64 55.32,-125.05 61.42,-126.83 61.21,-122.64"/>
</g>
<!-- 6&#45;&gt;5 -->
<g id="edge8" class="edge">
<title>6&#45;&gt;5</title>
<path fill="none" stroke="blue" stroke-width="2" d="M139.65,-107.56C148.34,-92.5 159.68,-72.87 168.98,-56.76"/>
<polygon fill="blue" stroke="blue" stroke-width="2" points="169.87,-59.42 171.05,-53.17 166.23,-57.32 169.87,-59.42"/>
</g>
</g>
</svg>
