<?xml version="1.0" encoding="UTF-8" standalone="no"?>
<!DOCTYPE svg PUBLIC "-//W3C//DTD SVG 1.1//EN"
 "http://www.w3.org/Graphics/SVG/1.1/DTD/svg11.dtd">
<!-- Generated by graphviz version 12.0.0 (20240704.0754)
 -->
<!-- Pages: 1 -->
<svg width="213pt" height="221pt"
 viewBox="0.00 0.00 213.48 221.13" xmlns="http://www.w3.org/2000/svg" xmlns:xlink="http://www.w3.org/1999/xlink">
<g id="graph0" class="graph" transform="scale(1 1) rotate(0) translate(14.4 206.73)">
<polygon fill="white" stroke="none" points="-14.4,14.4 -14.4,-206.73 199.08,-206.73 199.08,14.4 -14.4,14.4"/>
<!-- 3 -->
<g id="node1" class="node">
<title>3</title>
<ellipse fill="none" stroke="#bbbbbb" cx="18" cy="-96.17" rx="18" ry="18"/>
<text text-anchor="start" x="13.88" y="-91.49" font-family="monospace" font-size="14.00" fill="#bbbbbb">3</text>
</g>
<!-- 0 -->
<g id="node2" class="node">
<title>0</title>
<ellipse fill="none" stroke="red" stroke-width="2" cx="100.19" cy="-96.17" rx="18" ry="18"/>
<text text-anchor="start" x="96.07" y="-91.49" font-family="monospace" font-size="14.00">0</text>
</g>
<!-- 3&#45;&gt;0 -->
<g id="edge9" class="edge">
<title>3&#45;&gt;0</title>
<path fill="none" stroke="#bbbbbb" d="M35.43,-101.8C47.09,-103.05 62.61,-103.25 75.53,-102.41"/>
<polygon fill="#bbbbbb" stroke="#bbbbbb" points="75.48,-104.53 81.28,-101.93 75.12,-100.34 75.48,-104.53"/>
</g>
<!-- 4 -->
<g id="node5" class="node">
<title>4</title>
<ellipse fill="none" stroke="red" stroke-width="2" cx="74.79" cy="-18" rx="18" ry="18"/>
<text text-anchor="start" x="70.67" y="-13.32" font-family="monospace" font-size="14.00">4</text>
</g>
<!-- 3&#45;&gt;4 -->
<!-- 5 -->
<g id="node6" class="node">
<title>5</title>
<ellipse fill="none" stroke="red" stroke-width="2" cx="74.8" cy="-174.33" rx="18" ry="18"/>
<text text-anchor="start" x="70.67" y="-169.66" font-family="monospace" font-size="14.00">5</text>
</g>
<!-- 3&#45;&gt;5 -->
<!-- 0&#45;&gt;3 -->
<g id="edge3" class="edge">
<title>0&#45;&gt;3</title>
<path fill="none" stroke="black" stroke-dasharray="5,2" d="M82.76,-90.53C71.1,-89.29 55.59,-89.09 42.67,-89.92"/>
<polygon fill="black" stroke="black" points="42.72,-87.81 36.91,-90.41 43.07,-92 42.72,-87.81"/>
<text text-anchor="start" x="55.21" y="-93.08" font-family="monospace" font-size="12.00">âˆ</text>
</g>
<!-- 1 -->
<g id="node3" class="node">
<title>1</title>
<ellipse fill="none" stroke="red" stroke-width="2" cx="166.68" cy="-47.85" rx="18" ry="18"/>
<text text-anchor="start" x="162.56" y="-43.18" font-family="monospace" font-size="14.00">1</text>
</g>
<!-- 0&#45;&gt;1 -->
<g id="edge1" class="edge">
<title>0&#45;&gt;1</title>
<path fill="none" stroke="red" stroke-width="2" d="M114.95,-85.45C124.07,-78.82 135.92,-70.2 145.98,-62.9"/>
<polygon fill="red" stroke="red" stroke-width="2" points="145.9,-65.55 149.52,-60.33 143.43,-62.15 145.9,-65.55"/>
</g>
<!-- 2 -->
<g id="node4" class="node">
<title>2</title>
<ellipse fill="none" stroke="red" stroke-width="2" cx="166.68" cy="-144.48" rx="18" ry="18"/>
<text text-anchor="start" x="162.56" y="-139.8" font-family="monospace" font-size="14.00">2</text>
</g>
<!-- 0&#45;&gt;2 -->
<g id="edge2" class="edge">
<title>0&#45;&gt;2</title>
<path fill="none" stroke="black" stroke-dasharray="5,2" d="M114.95,-106.89C124.07,-113.52 135.92,-122.13 145.98,-129.43"/>
<polygon fill="black" stroke="black" points="144.66,-131.07 150.74,-132.9 147.12,-127.67 144.66,-131.07"/>
<polygon fill="#ffffff" fill-opacity="0.666667" stroke="none" points="119.21,-118.16 119.21,-135.41 130.46,-135.41 130.46,-118.16 119.21,-118.16"/>
<text text-anchor="start" x="122.21" y="-123.86" font-family="monospace" font-size="9.00">2</text>
</g>
<!-- 0&#45;&gt;4 -->
<g id="edge4" class="edge">
<title>0&#45;&gt;4</title>
<path fill="none" stroke="black" stroke-dasharray="5,2" d="M94.56,-78.82C91.1,-68.17 86.61,-54.36 82.78,-42.59"/>
<polygon fill="black" stroke="black" points="84.82,-42.07 80.97,-37.01 80.83,-43.36 84.82,-42.07"/>
<polygon fill="#ffffff" fill-opacity="0.666667" stroke="none" points="77.42,-60.7 77.42,-77.95 88.67,-77.95 88.67,-60.7 77.42,-60.7"/>
<text text-anchor="start" x="80.42" y="-66.4" font-family="monospace" font-size="9.00">2</text>
</g>
<!-- 0&#45;&gt;5 -->
<g id="edge5" class="edge">
<title>0&#45;&gt;5</title>
<path fill="none" stroke="black" stroke-dasharray="5,2" d="M94.56,-113.52C91.1,-124.17 86.61,-137.98 82.78,-149.75"/>
<polygon fill="black" stroke="black" points="80.83,-148.97 80.97,-155.33 84.82,-150.27 80.83,-148.97"/>
<text text-anchor="start" x="75.17" y="-137.33" font-family="monospace" font-size="9.00"> 3</text>
</g>
<!-- 1&#45;&gt;2 -->
<g id="edge6" class="edge">
<title>1&#45;&gt;2</title>
<path fill="none" stroke="red" stroke-width="2" d="M166.68,-66.03C166.68,-80.91 166.68,-102.15 166.68,-118.78"/>
<polygon fill="red" stroke="red" stroke-width="2" points="164.58,-117.03 166.68,-123.03 168.78,-117.03 164.58,-117.03"/>
</g>
<!-- 1&#45;&gt;4 -->
<g id="edge7" class="edge">
<title>1&#45;&gt;4</title>
<path fill="none" stroke="red" stroke-width="2" d="M149.4,-42.24C135.24,-37.64 115.04,-31.08 99.23,-25.94"/>
<polygon fill="red" stroke="red" stroke-width="2" points="101.55,-24.48 95.19,-24.63 100.25,-28.48 101.55,-24.48"/>
</g>
<!-- 2&#45;&gt;5 -->
<g id="edge8" class="edge">
<title>2&#45;&gt;5</title>
<path fill="none" stroke="red" stroke-width="2" d="M149.4,-150.09C135.24,-154.69 115.04,-161.26 99.23,-166.39"/>
<polygon fill="red" stroke="red" stroke-width="2" points="100.25,-163.86 95.19,-167.71 101.55,-167.85 100.25,-163.86"/>
</g>
</g>
</svg>
