<?xml version="1.0" encoding="UTF-8" standalone="no"?>
<!DOCTYPE svg PUBLIC "-//W3C//DTD SVG 1.1//EN"
 "http://www.w3.org/Graphics/SVG/1.1/DTD/svg11.dtd">
<!-- Generated by graphviz version 12.0.0 (20240704.0754)
 -->
<!-- Pages: 1 -->
<svg width="313pt" height="253pt"
 viewBox="0.00 0.00 312.71 253.41" xmlns="http://www.w3.org/2000/svg" xmlns:xlink="http://www.w3.org/1999/xlink">
<g id="graph0" class="graph" transform="scale(1 1) rotate(0) translate(14.4 239.01)">
<polygon fill="white" stroke="none" points="-14.4,14.4 -14.4,-239.01 298.31,-239.01 298.31,14.4 -14.4,14.4"/>
<!-- 3 -->
<g id="node1" class="node">
<title>3</title>
<ellipse fill="none" stroke="#bbbbbb" cx="18" cy="-93.94" rx="18" ry="18"/>
<text text-anchor="start" x="13.88" y="-89.26" font-family="monospace" font-size="14.00" fill="#bbbbbb">3</text>
</g>
<!-- 0 -->
<g id="node3" class="node">
<title>0</title>
<ellipse fill="none" stroke="red" stroke-width="2" cx="91.66" cy="-93.94" rx="18" ry="18"/>
<text text-anchor="start" x="87.54" y="-89.26" font-family="monospace" font-size="14.00">0</text>
</g>
<!-- 3&#45;&gt;0 -->
<g id="edge2" class="edge">
<title>3&#45;&gt;0</title>
<path fill="none" stroke="#bbbbbb" d="M36.21,-93.94C45.24,-93.94 56.3,-93.94 66.16,-93.94"/>
<polygon fill="#bbbbbb" stroke="#bbbbbb" points="65.89,-96.04 71.89,-93.94 65.89,-91.84 65.89,-96.04"/>
</g>
<!-- 4 -->
<g id="node2" class="node">
<title>4</title>
<ellipse fill="none" stroke="#bbbbbb" cx="202.07" cy="-18" rx="18" ry="18"/>
<text text-anchor="start" x="197.95" y="-13.32" font-family="monospace" font-size="14.00" fill="#bbbbbb">4</text>
</g>
<!-- 1 -->
<g id="node4" class="node">
<title>1</title>
<ellipse fill="none" stroke="red" stroke-width="2" cx="169.39" cy="-89.91" rx="18" ry="18"/>
<text text-anchor="start" x="165.27" y="-85.24" font-family="monospace" font-size="14.00">1</text>
</g>
<!-- 0&#45;&gt;1 -->
<g id="edge1" class="edge">
<title>0&#45;&gt;1</title>
<path fill="none" stroke="red" stroke-width="2" d="M110.08,-92.98C120.15,-92.46 132.78,-91.81 143.79,-91.24"/>
<polygon fill="red" stroke="red" stroke-width="2" points="142.2,-93.42 148.08,-91.02 141.98,-89.23 142.2,-93.42"/>
</g>
<!-- 1&#45;&gt;4 -->
<g id="edge4" class="edge">
<title>1&#45;&gt;4</title>
<path fill="none" stroke="#bbbbbb" d="M176.97,-73.23C181.3,-63.7 186.8,-51.61 191.54,-41.17"/>
<polygon fill="#bbbbbb" stroke="#bbbbbb" points="193.34,-42.3 193.91,-35.97 189.51,-40.56 193.34,-42.3"/>
</g>
<!-- 2 -->
<g id="node5" class="node">
<title>2</title>
<ellipse fill="none" stroke="red" stroke-width="2" cx="217.47" cy="-151.12" rx="18" ry="18"/>
<text text-anchor="start" x="213.34" y="-146.44" font-family="monospace" font-size="14.00">2</text>
</g>
<!-- 1&#45;&gt;2 -->
<g id="edge3" class="edge">
<title>1&#45;&gt;2</title>
<path fill="none" stroke="red" stroke-width="2" d="M180.79,-104.42C187.01,-112.34 194.82,-122.29 201.63,-130.96"/>
<polygon fill="red" stroke="red" stroke-width="2" points="198.93,-130.91 204.29,-134.34 202.23,-128.32 198.93,-130.91"/>
</g>
<!-- 5 -->
<g id="node6" class="node">
<title>5</title>
<ellipse fill="none" stroke="red" stroke-width="2" cx="265.91" cy="-206.61" rx="18" ry="18"/>
<text text-anchor="start" x="261.79" y="-201.94" font-family="monospace" font-size="14.00">5</text>
</g>
<!-- 2&#45;&gt;5 -->
<g id="edge5" class="edge">
<title>2&#45;&gt;5</title>
<path fill="none" stroke="red" stroke-width="2" d="M229.44,-164.83C235.43,-171.69 242.76,-180.09 249.29,-187.56"/>
<polygon fill="red" stroke="red" stroke-width="2" points="246.56,-187.63 252.09,-190.77 249.72,-184.87 246.56,-187.63"/>
</g>
</g>
</svg>
