<?xml version="1.0" encoding="UTF-8" standalone="no"?>
<!DOCTYPE svg PUBLIC "-//W3C//DTD SVG 1.1//EN"
 "http://www.w3.org/Graphics/SVG/1.1/DTD/svg11.dtd">
<!-- Generated by graphviz version 12.0.0 (20240704.0754)
 -->
<!-- Pages: 1 -->
<svg width="443pt" height="65pt"
 viewBox="0.00 0.00 442.80 64.80" xmlns="http://www.w3.org/2000/svg" xmlns:xlink="http://www.w3.org/1999/xlink">
<g id="graph0" class="graph" transform="scale(1 1) rotate(0) translate(14.4 50.4)">
<polygon fill="white" stroke="none" points="-14.4,14.4 -14.4,-50.4 428.4,-50.4 428.4,14.4 -14.4,14.4"/>
<!-- 0 -->
<g id="node1" class="node">
<title>0</title>
<ellipse fill="none" stroke="black" stroke-width="2" cx="180" cy="-18" rx="18" ry="18"/>
<text text-anchor="middle" x="180" y="-13.32" font-family="monospace" font-size="14.00">0</text>
</g>
<!-- 1 -->
<g id="node2" class="node">
<title>1</title>
<ellipse fill="none" stroke="black" cx="288" cy="-18" rx="18" ry="18"/>
<text text-anchor="middle" x="288" y="-13.32" font-family="monospace" font-size="14.00">1</text>
</g>
<!-- 0&#45;&gt;1 -->
<g id="edge1" class="edge">
<title>0&#45;&gt;1</title>
<path fill="none" stroke="black" d="M198.32,-18C216.16,-18 243.41,-18 263.19,-18"/>
<polygon fill="black" stroke="black" points="263.08,-19.75 268.08,-18 263.08,-16.25 263.08,-19.75"/>
</g>
<!-- 2 -->
<g id="node3" class="node">
<title>2</title>
<ellipse fill="none" stroke="black" cx="396" cy="-18" rx="18" ry="18"/>
<text text-anchor="middle" x="396" y="-13.32" font-family="monospace" font-size="14.00">2</text>
</g>
<!-- 1&#45;&gt;2 -->
<g id="edge2" class="edge">
<title>1&#45;&gt;2</title>
<path fill="none" stroke="black" d="M306.32,-18C324.16,-18 351.41,-18 371.19,-18"/>
<polygon fill="black" stroke="black" points="371.08,-19.75 376.08,-18 371.08,-16.25 371.08,-19.75"/>
</g>
<!-- 3 -->
<g id="node4" class="node">
<title>3</title>
<ellipse fill="none" stroke="black" cx="18" cy="-18" rx="18" ry="18"/>
<text text-anchor="middle" x="18" y="-13.33" font-family="monospace" font-size="14.00">3</text>
</g>
<!-- 3&#45;&gt;0 -->
<g id="edge3" class="edge">
<title>3&#45;&gt;0</title>
<path fill="none" stroke="black" d="M36.27,-18C65.44,-18 122.57,-18 155.34,-18"/>
<polygon fill="black" stroke="black" points="155.04,-19.75 160.04,-18 155.04,-16.25 155.04,-19.75"/>
</g>
</g>
</svg>
