<?xml version="1.0" encoding="UTF-8" standalone="no"?>
<!DOCTYPE svg PUBLIC "-//W3C//DTD SVG 1.1//EN"
 "http://www.w3.org/Graphics/SVG/1.1/DTD/svg11.dtd">
<!-- Generated by graphviz version 12.0.0 (20240704.0754)
 -->
<!-- Pages: 1 -->
<svg width="169pt" height="169pt"
 viewBox="0.00 0.00 169.09 169.09" xmlns="http://www.w3.org/2000/svg" xmlns:xlink="http://www.w3.org/1999/xlink">
<g id="graph0" class="graph" transform="scale(1 1) rotate(0) translate(14.4 154.69)">
<polygon fill="white" stroke="none" points="-14.4,14.4 -14.4,-154.69 154.69,-154.69 154.69,14.4 -14.4,14.4"/>
<!-- 0 -->
<g id="node1" class="node">
<title>0</title>
<ellipse fill="none" stroke="red" stroke-width="2" cx="18" cy="-70.15" rx="18" ry="18"/>
<text text-anchor="middle" x="18" y="-65.47" font-family="monospace" font-size="14.00">0</text>
</g>
<!-- 1 -->
<g id="node2" class="node">
<title>1</title>
<ellipse fill="none" stroke="red" stroke-width="2" cx="122.29" cy="-70.15" rx="18" ry="18"/>
<text text-anchor="middle" x="122.29" y="-65.47" font-family="monospace" font-size="14.00">1</text>
</g>
<!-- 0&#45;&gt;1 -->
<g id="edge3" class="edge">
<title>0&#45;&gt;1</title>
<path fill="none" stroke="red" stroke-width="2" d="M35.69,-75.36C52.65,-77.17 78.41,-77.38 97.43,-76"/>
<polygon fill="red" stroke="red" stroke-width="2" points="96.06,-78.23 101.85,-75.6 95.68,-74.04 96.06,-78.23"/>
</g>
<!-- 2 -->
<g id="node3" class="node">
<title>2</title>
<ellipse fill="none" stroke="red" stroke-width="2" cx="70.15" cy="-18" rx="18" ry="18"/>
<text text-anchor="middle" x="70.15" y="-13.32" font-family="monospace" font-size="14.00">2</text>
</g>
<!-- 0&#45;&gt;2 -->
<g id="edge1" class="edge">
<title>0&#45;&gt;2</title>
<path fill="none" stroke="#bbbbbb" d="M36.06,-52.09C41.34,-46.81 47.09,-41.05 52.35,-35.8"/>
<polygon fill="#bbbbbb" stroke="#bbbbbb" points="34.72,-50.46 31.96,-56.19 37.69,-53.43 34.72,-50.46"/>
<polygon fill="#bbbbbb" stroke="#bbbbbb" points="53.58,-37.54 56.34,-31.81 50.61,-34.57 53.58,-37.54"/>
</g>
<!-- 3 -->
<g id="node4" class="node">
<title>3</title>
<ellipse fill="none" stroke="red" stroke-width="2" cx="70.14" cy="-122.29" rx="18" ry="18"/>
<text text-anchor="middle" x="70.14" y="-117.62" font-family="monospace" font-size="14.00">3</text>
</g>
<!-- 0&#45;&gt;3 -->
<g id="edge2" class="edge">
<title>0&#45;&gt;3</title>
<path fill="none" stroke="#bbbbbb" d="M36.06,-88.21C41.33,-93.48 47.09,-99.24 52.35,-104.5"/>
<polygon fill="#bbbbbb" stroke="#bbbbbb" points="37.69,-86.86 31.96,-84.11 34.72,-89.83 37.69,-86.86"/>
<polygon fill="#bbbbbb" stroke="#bbbbbb" points="50.6,-105.72 56.33,-108.48 53.57,-102.75 50.6,-105.72"/>
</g>
<!-- 1&#45;&gt;0 -->
<g id="edge4" class="edge">
<title>1&#45;&gt;0</title>
<path fill="none" stroke="#bbbbbb" d="M104.6,-64.93C87.64,-63.12 61.89,-62.91 42.87,-64.29"/>
<polygon fill="#bbbbbb" stroke="#bbbbbb" points="42.73,-62.2 36.94,-64.82 43.1,-66.38 42.73,-62.2"/>
</g>
<!-- 1&#45;&gt;2 -->
<g id="edge5" class="edge">
<title>1&#45;&gt;2</title>
<path fill="none" stroke="red" stroke-width="2" d="M114.07,-53.66C108.01,-46.21 99.67,-37.61 91.84,-30.66"/>
<polygon fill="red" stroke="red" stroke-width="2" points="94.77,-30.4 88.84,-28.11 92.05,-33.6 94.77,-30.4"/>
</g>
<!-- 2&#45;&gt;1 -->
<g id="edge6" class="edge">
<title>2&#45;&gt;1</title>
<path fill="none" stroke="#bbbbbb" d="M78.38,-34.49C84.43,-41.94 92.77,-50.54 100.6,-57.49"/>
<polygon fill="#bbbbbb" stroke="#bbbbbb" points="98.82,-58.73 104.75,-61.02 101.54,-55.53 98.82,-58.73"/>
</g>
<!-- 2&#45;&gt;3 -->
<g id="edge7" class="edge">
<title>2&#45;&gt;3</title>
<path fill="none" stroke="red" stroke-width="2" d="M64.93,-35.69C63.13,-52.65 62.91,-78.41 64.29,-97.43"/>
<polygon fill="red" stroke="red" stroke-width="2" points="62.06,-96.06 64.69,-101.85 66.25,-95.69 62.06,-96.06"/>
</g>
<!-- 3&#45;&gt;1 -->
<g id="edge8" class="edge">
<title>3&#45;&gt;1</title>
<path fill="none" stroke="#bbbbbb" d="M88.21,-104.23C93.48,-98.96 99.24,-93.2 104.5,-87.94"/>
<polygon fill="#bbbbbb" stroke="#bbbbbb" points="86.86,-102.61 84.1,-108.33 89.83,-105.58 86.86,-102.61"/>
<polygon fill="#bbbbbb" stroke="#bbbbbb" points="105.72,-89.69 108.48,-83.96 102.75,-86.72 105.72,-89.69"/>
</g>
<!-- 3&#45;&gt;2 -->
<g id="edge9" class="edge">
<title>3&#45;&gt;2</title>
<path fill="none" stroke="#bbbbbb" d="M75.36,-104.6C77.17,-87.64 77.38,-61.89 76,-42.87"/>
<polygon fill="#bbbbbb" stroke="#bbbbbb" points="78.09,-42.73 75.47,-36.94 73.91,-43.1 78.09,-42.73"/>
</g>
</g>
</svg>
