<?xml version="1.0" encoding="UTF-8" standalone="no"?>
<!DOCTYPE svg PUBLIC "-//W3C//DTD SVG 1.1//EN"
 "http://www.w3.org/Graphics/SVG/1.1/DTD/svg11.dtd">
<!-- Generated by graphviz version 12.0.0 (20240704.0754)
 -->
<!-- Pages: 1 -->
<svg width="366pt" height="330pt"
 viewBox="0.00 0.00 365.97 329.93" xmlns="http://www.w3.org/2000/svg" xmlns:xlink="http://www.w3.org/1999/xlink">
<g id="graph0" class="graph" transform="scale(1 1) rotate(0) translate(14.4 315.53)">
<polygon fill="white" stroke="none" points="-14.4,14.4 -14.4,-315.53 351.57,-315.53 351.57,14.4 -14.4,14.4"/>
<!-- 3 -->
<g id="node1" class="node">
<title>3</title>
<ellipse fill="none" stroke="red" stroke-width="2" cx="147.08" cy="-274.13" rx="27" ry="27"/>
<text text-anchor="start" x="142.96" y="-276.08" font-family="monospace" font-size="14.00">3</text>
<text text-anchor="start" x="131.33" y="-261.58" font-family="monospace" font-size="9.00">t(3)=0</text>
</g>
<!-- 0 -->
<g id="node2" class="node">
<title>0</title>
<ellipse fill="none" stroke="red" stroke-width="2" cx="241.94" cy="-274.13" rx="27" ry="27"/>
<text text-anchor="start" x="237.82" y="-276.08" font-family="monospace" font-size="14.00">0</text>
<text text-anchor="start" x="226.19" y="-261.58" font-family="monospace" font-size="9.00">t(0)=2</text>
</g>
<!-- 3&#45;&gt;0 -->
<g id="edge1" class="edge">
<title>3&#45;&gt;0</title>
<path fill="none" stroke="red" stroke-width="2" d="M174.52,-274.13C184.74,-274.13 196.49,-274.13 207.28,-274.13"/>
<polygon fill="red" stroke="red" stroke-width="2" points="205.54,-276.23 211.54,-274.13 205.54,-272.03 205.54,-276.23"/>
</g>
<!-- 1 -->
<g id="node3" class="node">
<title>1</title>
<ellipse fill="none" stroke="red" stroke-width="2" cx="230.66" cy="-176.91" rx="27" ry="27"/>
<text text-anchor="start" x="226.53" y="-178.86" font-family="monospace" font-size="14.00">1</text>
<text text-anchor="start" x="214.91" y="-164.36" font-family="monospace" font-size="9.00">t(1)=4</text>
</g>
<!-- 0&#45;&gt;1 -->
<g id="edge2" class="edge">
<title>0&#45;&gt;1</title>
<path fill="none" stroke="red" stroke-width="2" d="M238.8,-247.05C237.53,-236.08 236.04,-223.28 234.69,-211.64"/>
<polygon fill="red" stroke="red" stroke-width="2" points="236.95,-212.91 234.17,-207.19 232.78,-213.4 236.95,-212.91"/>
</g>
<!-- 2 -->
<g id="node4" class="node">
<title>2</title>
<ellipse fill="none" stroke="red" stroke-width="2" cx="133.14" cy="-176.36" rx="27" ry="27"/>
<text text-anchor="start" x="129.02" y="-178.31" font-family="monospace" font-size="14.00">2</text>
<text text-anchor="start" x="117.39" y="-163.81" font-family="monospace" font-size="9.00">t(2)=6</text>
</g>
<!-- 1&#45;&gt;2 -->
<g id="edge3" class="edge">
<title>1&#45;&gt;2</title>
<path fill="none" stroke="red" stroke-width="2" d="M203.24,-176.76C192.24,-176.7 179.43,-176.62 167.8,-176.56"/>
<polygon fill="red" stroke="red" stroke-width="2" points="169.4,-174.47 163.39,-176.53 169.37,-178.67 169.4,-174.47"/>
</g>
<!-- 4 -->
<g id="node5" class="node">
<title>4</title>
<ellipse fill="none" stroke="red" stroke-width="2" cx="310.17" cy="-128.46" rx="27" ry="27"/>
<text text-anchor="start" x="306.04" y="-130.41" font-family="monospace" font-size="14.00">4</text>
<text text-anchor="start" x="294.42" y="-115.91" font-family="monospace" font-size="9.00">t(4)=7</text>
</g>
<!-- 1&#45;&gt;4 -->
<g id="edge4" class="edge">
<title>1&#45;&gt;4</title>
<path fill="none" stroke="red" stroke-width="2" d="M254.09,-162.64C262.42,-157.56 271.9,-151.78 280.68,-146.44"/>
<polygon fill="red" stroke="red" stroke-width="2" points="280.3,-149.13 284.33,-144.21 278.11,-145.54 280.3,-149.13"/>
</g>
<!-- 2&#45;&gt;3 -->
<g id="edge5" class="edge">
<title>2&#45;&gt;3</title>
<path fill="none" stroke="#bbbbbb" d="M136.99,-203.33C138.6,-214.66 140.5,-227.97 142.21,-239.97"/>
<polygon fill="#bbbbbb" stroke="#bbbbbb" points="140.11,-240.1 143.03,-245.74 144.27,-239.51 140.11,-240.1"/>
</g>
<!-- 6 -->
<g id="node7" class="node">
<title>6</title>
<ellipse fill="none" stroke="skyblue" stroke-width="2" cx="75.53" cy="-103.25" rx="27" ry="27"/>
<text text-anchor="start" x="71.41" y="-105.2" font-family="monospace" font-size="14.00">6</text>
<text text-anchor="start" x="59.78" y="-90.7" font-family="monospace" font-size="9.00">t(6)=3</text>
</g>
<!-- 2&#45;&gt;6 -->
<g id="edge7" class="edge">
<title>2&#45;&gt;6</title>
<path fill="none" stroke="#bbbbbb" d="M116.17,-154.82C110.07,-147.09 103.12,-138.27 96.72,-130.13"/>
<polygon fill="#bbbbbb" stroke="#bbbbbb" points="98.68,-129.24 93.32,-125.83 95.39,-131.84 98.68,-129.24"/>
</g>
<!-- 5 -->
<g id="node8" class="node">
<title>5</title>
<ellipse fill="none" stroke="skyblue" stroke-width="2" cx="41.93" cy="-179.61" rx="27" ry="27"/>
<text text-anchor="start" x="37.8" y="-181.56" font-family="monospace" font-size="14.00">5</text>
<text text-anchor="start" x="26.18" y="-167.06" font-family="monospace" font-size="9.00">t(5)=5</text>
</g>
<!-- 2&#45;&gt;5 -->
<g id="edge6" class="edge">
<title>2&#45;&gt;5</title>
<path fill="none" stroke="#bbbbbb" d="M105.77,-177.34C96.57,-177.66 86.19,-178.03 76.51,-178.38"/>
<polygon fill="#bbbbbb" stroke="#bbbbbb" points="76.71,-176.27 70.79,-178.58 76.86,-180.47 76.71,-176.27"/>
</g>
<!-- 7 -->
<g id="node6" class="node">
<title>7</title>
<ellipse fill="none" stroke="skyblue" stroke-width="2" cx="27" cy="-27" rx="27" ry="27"/>
<text text-anchor="start" x="22.88" y="-28.95" font-family="monospace" font-size="14.00">7</text>
<text text-anchor="start" x="11.25" y="-14.45" font-family="monospace" font-size="9.00">t(7)=1</text>
</g>
<!-- 7&#45;&gt;6 -->
<g id="edge10" class="edge">
<title>7&#45;&gt;6</title>
<path fill="none" stroke="skyblue" stroke-width="2" d="M36.05,-52.8C40.57,-60.95 46.14,-69.92 51.69,-78.03"/>
<polygon fill="skyblue" stroke="skyblue" stroke-width="2" points="49,-77.85 54.18,-81.55 52.44,-75.43 49,-77.85"/>
</g>
<!-- 6&#45;&gt;7 -->
<g id="edge9" class="edge">
<title>6&#45;&gt;7</title>
<path fill="none" stroke="#bbbbbb" d="M66.48,-77.45C61.96,-69.3 56.39,-60.33 50.84,-52.23"/>
<polygon fill="#bbbbbb" stroke="#bbbbbb" points="52.66,-51.16 47.49,-47.46 49.22,-53.58 52.66,-51.16"/>
</g>
<!-- 6&#45;&gt;5 -->
<g id="edge8" class="edge">
<title>6&#45;&gt;5</title>
<path fill="none" stroke="skyblue" stroke-width="2" d="M64.53,-128.26C61.74,-134.58 58.72,-141.46 55.81,-148.07"/>
<polygon fill="skyblue" stroke="skyblue" stroke-width="2" points="54.67,-145.45 54.17,-151.78 58.51,-147.14 54.67,-145.45"/>
</g>
</g>
</svg>
