<?xml version="1.0" encoding="UTF-8" standalone="no"?>
<!DOCTYPE svg PUBLIC "-//W3C//DTD SVG 1.1//EN"
 "http://www.w3.org/Graphics/SVG/1.1/DTD/svg11.dtd">
<!-- Generated by graphviz version 12.0.0 (20240704.0754)
 -->
<!-- Pages: 1 -->
<svg width="479pt" height="263pt"
 viewBox="0.00 0.00 479.22 262.54" xmlns="http://www.w3.org/2000/svg" xmlns:xlink="http://www.w3.org/1999/xlink">
<g id="graph0" class="graph" transform="scale(1 1) rotate(0) translate(14.4 248.14)">
<polygon fill="white" stroke="none" points="-14.4,14.4 -14.4,-248.14 464.82,-248.14 464.82,14.4 -14.4,14.4"/>
<!-- 3 -->
<g id="node1" class="node">
<title>3</title>
<ellipse fill="none" stroke="red" stroke-width="2" cx="170.2" cy="-212.14" rx="21.6" ry="21.6"/>
<text text-anchor="start" x="166.08" y="-207.46" font-family="monospace" font-size="14.00">3</text>
</g>
<!-- 0 -->
<g id="node2" class="node">
<title>0</title>
<ellipse fill="none" stroke="red" stroke-width="2" cx="280.21" cy="-212.14" rx="21.6" ry="21.6"/>
<text text-anchor="start" x="276.09" y="-207.46" font-family="monospace" font-size="14.00">0</text>
</g>
<!-- 3&#45;&gt;0 -->
<g id="edge1" class="edge">
<title>3&#45;&gt;0</title>
<path fill="none" stroke="red" stroke-width="2" d="M192.2,-212.14C209.14,-212.14 232.7,-212.14 251.19,-212.14"/>
<polygon fill="red" stroke="red" stroke-width="2" points="249.23,-214.24 255.23,-212.14 249.23,-210.04 249.23,-214.24"/>
</g>
<!-- 1 -->
<g id="node3" class="node">
<title>1</title>
<ellipse fill="none" stroke="red" stroke-width="2" cx="335.22" cy="-116.87" rx="21.6" ry="21.6"/>
<text text-anchor="start" x="331.09" y="-112.19" font-family="monospace" font-size="14.00">1</text>
</g>
<!-- 0&#45;&gt;1 -->
<g id="edge2" class="edge">
<title>0&#45;&gt;1</title>
<path fill="none" stroke="red" stroke-width="2" d="M291.08,-193.32C299.54,-178.67 311.36,-158.2 320.64,-142.12"/>
<polygon fill="red" stroke="red" stroke-width="2" points="321.49,-144.85 322.67,-138.6 317.85,-142.75 321.49,-144.85"/>
</g>
<!-- 2 -->
<g id="node4" class="node">
<title>2</title>
<ellipse fill="none" stroke="red" stroke-width="2" cx="280.21" cy="-21.6" rx="21.6" ry="21.6"/>
<text text-anchor="start" x="276.09" y="-16.93" font-family="monospace" font-size="14.00">2</text>
</g>
<!-- 1&#45;&gt;2 -->
<g id="edge3" class="edge">
<title>1&#45;&gt;2</title>
<path fill="none" stroke="red" stroke-width="2" d="M324.35,-98.05C315.89,-83.4 304.07,-62.93 294.79,-46.85"/>
<polygon fill="red" stroke="red" stroke-width="2" points="297.58,-47.48 292.76,-43.33 293.94,-49.58 297.58,-47.48"/>
</g>
<!-- 5 -->
<g id="node7" class="node">
<title>5</title>
<ellipse fill="none" stroke="blue" stroke-width="2" cx="170.2" cy="-21.6" rx="21.6" ry="21.6"/>
<text text-anchor="start" x="166.08" y="-16.92" font-family="monospace" font-size="14.00">5</text>
</g>
<!-- 1&#45;&gt;5 -->
<!-- 4 -->
<g id="node8" class="node">
<title>4</title>
<ellipse fill="none" stroke="#aaaaaa" cx="428.82" cy="-116.87" rx="21.6" ry="21.6"/>
<text text-anchor="start" x="424.69" y="-112.19" font-family="monospace" font-size="14.00" fill="#aaaaaa">4</text>
</g>
<!-- 1&#45;&gt;4 -->
<g id="edge4" class="edge">
<title>1&#45;&gt;4</title>
<path fill="none" stroke="#aaaaaa" d="M356.92,-116.87C369.59,-116.87 385.74,-116.87 399.52,-116.87"/>
<polygon fill="#aaaaaa" stroke="#aaaaaa" points="399.39,-118.97 405.39,-116.87 399.39,-114.77 399.39,-118.97"/>
</g>
<!-- 2&#45;&gt;3 -->
<g id="edge5" class="edge">
<title>2&#45;&gt;3</title>
<path fill="none" stroke="#aaaaaa" d="M269.26,-40.57C249.33,-75.09 207.12,-148.2 184.78,-186.89"/>
<polygon fill="#aaaaaa" stroke="#aaaaaa" points="183.05,-185.69 181.87,-191.94 186.69,-187.79 183.05,-185.69"/>
</g>
<!-- 6 -->
<g id="node6" class="node">
<title>6</title>
<ellipse fill="none" stroke="blue" stroke-width="2" cx="115.2" cy="-116.87" rx="21.6" ry="21.6"/>
<text text-anchor="start" x="111.07" y="-112.19" font-family="monospace" font-size="14.00">6</text>
</g>
<!-- 2&#45;&gt;6 -->
<g id="edge7" class="edge">
<title>2&#45;&gt;6</title>
<path fill="none" stroke="#aaaaaa" d="M261.28,-32.53C231.52,-49.71 173.76,-83.06 140.48,-102.28"/>
<polygon fill="#aaaaaa" stroke="#aaaaaa" points="139.62,-100.35 135.47,-105.17 141.72,-103.98 139.62,-100.35"/>
</g>
<!-- 2&#45;&gt;5 -->
<g id="edge6" class="edge">
<title>2&#45;&gt;5</title>
<path fill="none" stroke="#aaaaaa" d="M258.21,-21.6C241.28,-21.6 217.71,-21.6 199.23,-21.6"/>
<polygon fill="#aaaaaa" stroke="#aaaaaa" points="199.68,-19.5 193.68,-21.6 199.68,-23.7 199.68,-19.5"/>
</g>
<!-- 7 -->
<g id="node5" class="node">
<title>7</title>
<ellipse fill="none" stroke="blue" stroke-width="2" cx="21.6" cy="-116.87" rx="21.6" ry="21.6"/>
<text text-anchor="start" x="17.47" y="-112.19" font-family="monospace" font-size="14.00">7</text>
</g>
<!-- 7&#45;&gt;6 -->
<g id="edge10" class="edge">
<title>7&#45;&gt;6</title>
<path fill="none" stroke="blue" stroke-width="2" d="M42.84,-122.63C55.88,-123.76 72.75,-123.92 86.92,-123.13"/>
<polygon fill="blue" stroke="blue" stroke-width="2" points="85.19,-125.35 91.03,-122.84 84.89,-121.16 85.19,-125.35"/>
</g>
<!-- 6&#45;&gt;7 -->
<g id="edge9" class="edge">
<title>6&#45;&gt;7</title>
<path fill="none" stroke="#aaaaaa" d="M93.96,-111.11C80.92,-109.98 64.05,-109.82 49.88,-110.61"/>
<polygon fill="#aaaaaa" stroke="#aaaaaa" points="50.1,-108.49 44.27,-111.01 50.4,-112.68 50.1,-108.49"/>
</g>
<!-- 6&#45;&gt;5 -->
<g id="edge8" class="edge">
<title>6&#45;&gt;5</title>
<path fill="none" stroke="blue" stroke-width="2" d="M126.07,-98.05C134.52,-83.4 146.34,-62.93 155.62,-46.85"/>
<polygon fill="blue" stroke="blue" stroke-width="2" points="156.48,-49.58 157.66,-43.33 152.84,-47.48 156.48,-49.58"/>
</g>
</g>
</svg>
