<?xml version="1.0" encoding="UTF-8" standalone="no"?>
<!DOCTYPE svg PUBLIC "-//W3C//DTD SVG 1.1//EN"
 "http://www.w3.org/Graphics/SVG/1.1/DTD/svg11.dtd">
<!-- Generated by graphviz version 12.0.0 (20240704.0754)
 -->
<!-- Pages: 1 -->
<svg width="380pt" height="309pt"
 viewBox="0.00 0.00 380.29 309.09" xmlns="http://www.w3.org/2000/svg" xmlns:xlink="http://www.w3.org/1999/xlink">
<g id="graph0" class="graph" transform="scale(1 1) rotate(0) translate(14.4 294.69)">
<polygon fill="white" stroke="none" points="-14.4,14.4 -14.4,-294.69 365.89,-294.69 365.89,14.4 -14.4,14.4"/>
<!-- 3 -->
<g id="node1" class="node">
<title>3</title>
<ellipse fill="none" stroke="#bbbbbb" cx="27" cy="-118.12" rx="27" ry="27"/>
<text text-anchor="start" x="22.88" y="-113.45" font-family="monospace" font-size="14.00" fill="#bbbbbb">3</text>
</g>
<!-- 0 -->
<g id="node2" class="node">
<title>0</title>
<ellipse fill="none" stroke="red" stroke-width="2" cx="115.39" cy="-118.12" rx="27" ry="27"/>
<text text-anchor="start" x="111.26" y="-120.07" font-family="monospace" font-size="14.00">0</text>
<text text-anchor="start" x="99.64" y="-105.57" font-family="monospace" font-size="9.00">d(0)=0</text>
</g>
<!-- 3&#45;&gt;0 -->
<g id="edge2" class="edge">
<title>3&#45;&gt;0</title>
<path fill="none" stroke="#bbbbbb" d="M54.48,-118.12C62.71,-118.12 71.85,-118.12 80.49,-118.12"/>
<polygon fill="#bbbbbb" stroke="#bbbbbb" points="80.41,-120.22 86.41,-118.12 80.41,-116.02 80.41,-120.22"/>
</g>
<!-- 1 -->
<g id="node3" class="node">
<title>1</title>
<ellipse fill="none" stroke="red" stroke-width="2" cx="208.65" cy="-113.28" rx="27" ry="27"/>
<text text-anchor="start" x="204.53" y="-115.23" font-family="monospace" font-size="14.00">1</text>
<text text-anchor="start" x="192.9" y="-100.73" font-family="monospace" font-size="9.00">d(1)=1</text>
</g>
<!-- 0&#45;&gt;1 -->
<g id="edge1" class="edge">
<title>0&#45;&gt;1</title>
<path fill="none" stroke="red" stroke-width="2" d="M142.36,-116.72C152.23,-116.21 163.54,-115.62 173.99,-115.08"/>
<polygon fill="red" stroke="red" stroke-width="2" points="172.51,-117.26 178.39,-114.85 172.29,-113.07 172.51,-117.26"/>
</g>
<!-- 2 -->
<g id="node4" class="node">
<title>2</title>
<ellipse fill="none" stroke="red" stroke-width="2" cx="266.35" cy="-186.71" rx="27" ry="27"/>
<text text-anchor="start" x="262.22" y="-188.66" font-family="monospace" font-size="14.00">2</text>
<text text-anchor="start" x="250.6" y="-174.16" font-family="monospace" font-size="9.00">d(2)=2</text>
</g>
<!-- 1&#45;&gt;2 -->
<g id="edge3" class="edge">
<title>1&#45;&gt;2</title>
<path fill="none" stroke="red" stroke-width="2" d="M225.34,-134.52C231.5,-142.37 238.58,-151.37 245.09,-159.66"/>
<polygon fill="red" stroke="red" stroke-width="2" points="242.27,-159.46 247.63,-162.88 245.57,-156.87 242.27,-159.46"/>
</g>
<!-- 4 -->
<g id="node5" class="node">
<title>4</title>
<ellipse fill="none" stroke="red" stroke-width="2" cx="247.86" cy="-27" rx="27" ry="27"/>
<text text-anchor="start" x="243.73" y="-28.95" font-family="monospace" font-size="14.00">4</text>
<text text-anchor="start" x="232.11" y="-14.45" font-family="monospace" font-size="9.00">d(4)=2</text>
</g>
<!-- 1&#45;&gt;4 -->
<g id="edge4" class="edge">
<title>1&#45;&gt;4</title>
<path fill="none" stroke="red" stroke-width="2" d="M219.99,-88.33C224.22,-79.02 229.07,-68.34 233.53,-58.53"/>
<polygon fill="red" stroke="red" stroke-width="2" points="234.72,-60.99 235.29,-54.66 230.9,-59.25 234.72,-60.99"/>
</g>
<!-- 5 -->
<g id="node6" class="node">
<title>5</title>
<ellipse fill="none" stroke="red" stroke-width="2" cx="324.49" cy="-253.29" rx="27" ry="27"/>
<text text-anchor="start" x="320.36" y="-255.24" font-family="monospace" font-size="14.00">5</text>
<text text-anchor="start" x="308.74" y="-240.74" font-family="monospace" font-size="9.00">d(5)=3</text>
</g>
<!-- 2&#45;&gt;5 -->
<g id="edge5" class="edge">
<title>2&#45;&gt;5</title>
<path fill="none" stroke="red" stroke-width="2" d="M284.42,-207.41C289.95,-213.73 296.09,-220.77 301.87,-227.39"/>
<polygon fill="red" stroke="red" stroke-width="2" points="299.1,-227.41 304.63,-230.55 302.27,-224.65 299.1,-227.41"/>
</g>
</g>
</svg>
