<?xml version="1.0" encoding="UTF-8" standalone="no"?>
<!DOCTYPE svg PUBLIC "-//W3C//DTD SVG 1.1//EN"
 "http://www.w3.org/Graphics/SVG/1.1/DTD/svg11.dtd">
<!-- Generated by graphviz version 12.0.0 (20240704.0754)
 -->
<!-- Pages: 1 -->
<svg width="202pt" height="202pt"
 viewBox="0.00 0.00 202.31 202.31" xmlns="http://www.w3.org/2000/svg" xmlns:xlink="http://www.w3.org/1999/xlink">
<g id="graph0" class="graph" transform="scale(1 1) rotate(0) translate(14.4 187.91)">
<polygon fill="white" stroke="none" points="-14.4,14.4 -14.4,-187.91 187.91,-187.91 187.91,14.4 -14.4,14.4"/>
<!-- 0 -->
<g id="node1" class="node">
<title>0</title>
<ellipse fill="none" stroke="black" stroke-width="2" cx="86.75" cy="-18" rx="18" ry="18"/>
<text text-anchor="middle" x="86.75" y="-13.32" font-family="monospace" font-size="14.00">0</text>
</g>
<!-- 1 -->
<g id="node2" class="node">
<title>1</title>
<ellipse fill="none" stroke="black" stroke-width="2" cx="155.51" cy="-86.75" rx="18" ry="18"/>
<text text-anchor="middle" x="155.51" y="-82.08" font-family="monospace" font-size="14.00">1</text>
</g>
<!-- 0&#45;&gt;1 -->
<g id="edge3" class="edge">
<title>0&#45;&gt;1</title>
<path fill="none" stroke="red" stroke-width="2" d="M95.29,-34.05C105.16,-46.33 121.41,-62.85 134.61,-74.18"/>
<polygon fill="red" stroke="red" stroke-width="2" points="132.03,-74.31 137,-76.17 134.28,-71.63 132.03,-74.31"/>
</g>
<!-- 2 -->
<g id="node3" class="node">
<title>2</title>
<ellipse fill="none" stroke="black" stroke-width="2" cx="86.75" cy="-155.51" rx="18" ry="18"/>
<text text-anchor="middle" x="86.75" y="-150.83" font-family="monospace" font-size="14.00">2</text>
</g>
<!-- 0&#45;&gt;2 -->
<g id="edge1" class="edge">
<title>0&#45;&gt;2</title>
<path fill="none" stroke="lightgray" d="M86.75,-42.46C86.75,-67.38 86.75,-105.81 86.75,-130.81"/>
<polygon fill="lightgray" stroke="lightgray" points="88.51,-42.77 86.75,-37.77 85.01,-42.77 88.51,-42.77"/>
<polygon fill="lightgray" stroke="lightgray" points="85.01,-130.66 86.75,-135.66 88.51,-130.66 85.01,-130.66"/>
</g>
<!-- 3 -->
<g id="node4" class="node">
<title>3</title>
<ellipse fill="none" stroke="black" stroke-width="2" cx="18" cy="-86.75" rx="18" ry="18"/>
<text text-anchor="middle" x="18" y="-82.08" font-family="monospace" font-size="14.00">3</text>
</g>
<!-- 0&#45;&gt;3 -->
<g id="edge2" class="edge">
<title>0&#45;&gt;3</title>
<path fill="none" stroke="lightgray" d="M69.27,-35.49C58.89,-45.86 45.79,-58.97 35.42,-69.33"/>
<polygon fill="lightgray" stroke="lightgray" points="70.45,-36.78 72.75,-32 67.98,-34.3 70.45,-36.78"/>
<polygon fill="lightgray" stroke="lightgray" points="34.24,-68.04 31.94,-72.81 36.72,-70.51 34.24,-68.04"/>
</g>
<!-- 1&#45;&gt;0 -->
<g id="edge4" class="edge">
<title>1&#45;&gt;0</title>
<path fill="none" stroke="lightgray" d="M146.98,-70.7C137.1,-58.43 120.85,-41.91 107.65,-30.57"/>
<polygon fill="lightgray" stroke="lightgray" points="109.07,-29.47 104.11,-27.61 106.83,-32.16 109.07,-29.47"/>
</g>
<!-- 1&#45;&gt;2 -->
<g id="edge5" class="edge">
<title>1&#45;&gt;2</title>
<path fill="none" stroke="red" stroke-width="2" d="M139.46,-95.29C127.18,-105.16 110.66,-121.41 99.33,-134.61"/>
<polygon fill="red" stroke="red" stroke-width="2" points="99.2,-132.03 97.34,-137 101.88,-134.28 99.2,-132.03"/>
</g>
<!-- 2&#45;&gt;1 -->
<g id="edge6" class="edge">
<title>2&#45;&gt;1</title>
<path fill="none" stroke="lightgray" d="M102.81,-146.98C115.08,-137.1 131.6,-120.85 142.94,-107.65"/>
<polygon fill="lightgray" stroke="lightgray" points="144.04,-109.07 145.9,-104.11 141.35,-106.83 144.04,-109.07"/>
</g>
<!-- 2&#45;&gt;3 -->
<g id="edge7" class="edge">
<title>2&#45;&gt;3</title>
<path fill="none" stroke="red" stroke-width="2" d="M78.22,-139.46C68.34,-127.18 52.1,-110.66 38.9,-99.33"/>
<polygon fill="red" stroke="red" stroke-width="2" points="41.48,-99.2 36.51,-97.34 39.23,-101.88 41.48,-99.2"/>
</g>
<!-- 3&#45;&gt;1 -->
<g id="edge8" class="edge">
<title>3&#45;&gt;1</title>
<path fill="none" stroke="lightgray" d="M42.46,-86.75C67.38,-86.75 105.81,-86.75 130.81,-86.75"/>
<polygon fill="lightgray" stroke="lightgray" points="42.77,-85.01 37.77,-86.75 42.77,-88.51 42.77,-85.01"/>
<polygon fill="lightgray" stroke="lightgray" points="130.66,-88.51 135.66,-86.75 130.66,-85.01 130.66,-88.51"/>
</g>
<!-- 3&#45;&gt;2 -->
<g id="edge9" class="edge">
<title>3&#45;&gt;2</title>
<path fill="none" stroke="lightgray" d="M26.53,-102.81C36.41,-115.08 52.66,-131.6 65.86,-142.94"/>
<polygon fill="lightgray" stroke="lightgray" points="64.44,-144.04 69.4,-145.9 66.68,-141.35 64.44,-144.04"/>
</g>
</g>
</svg>
