<?xml version="1.0" encoding="UTF-8" standalone="no"?>
<!DOCTYPE svg PUBLIC "-//W3C//DTD SVG 1.1//EN"
 "http://www.w3.org/Graphics/SVG/1.1/DTD/svg11.dtd">
<!-- Generated by graphviz version 12.0.0 (20240704.0754)
 -->
<!-- Pages: 1 -->
<svg width="309pt" height="349pt"
 viewBox="0.00 0.00 309.04 349.30" xmlns="http://www.w3.org/2000/svg" xmlns:xlink="http://www.w3.org/1999/xlink">
<g id="graph0" class="graph" transform="scale(1 1) rotate(0) translate(14.4 334.9)">
<polygon fill="white" stroke="none" points="-14.4,14.4 -14.4,-334.9 294.64,-334.9 294.64,14.4 -14.4,14.4"/>
<!-- 0 -->
<g id="node1" class="node">
<title>0</title>
<ellipse fill="salmon" stroke="salmon" cx="18" cy="-231.01" rx="18" ry="18"/>
<text text-anchor="start" x="13.88" y="-226.34" font-family="monospace" font-size="14.00" fill="white">0</text>
</g>
<!-- 1 -->
<g id="node2" class="node">
<title>1</title>
<ellipse fill="salmon" stroke="salmon" cx="129.67" cy="-231.01" rx="18" ry="18"/>
<text text-anchor="start" x="125.54" y="-226.34" font-family="monospace" font-size="14.00" fill="white">1</text>
</g>
<!-- 0&#45;&gt;1 -->
<g id="edge6" class="edge">
<title>0&#45;&gt;1</title>
<path fill="none" stroke="red" stroke-width="2" d="M36.44,-231.01C54.79,-231.01 83.1,-231.01 103.72,-231.01"/>
<polygon fill="red" stroke="red" stroke-width="2" points="102.18,-233.11 108.18,-231.01 102.18,-228.91 102.18,-233.11"/>
</g>
<!-- 2 -->
<g id="node3" class="node">
<title>2</title>
<ellipse fill="salmon" stroke="salmon" cx="160.42" cy="-144.83" rx="18" ry="18"/>
<text text-anchor="start" x="156.29" y="-140.15" font-family="monospace" font-size="14.00" fill="white">2</text>
</g>
<!-- 1&#45;&gt;2 -->
<g id="edge7" class="edge">
<title>1&#45;&gt;2</title>
<path fill="none" stroke="red" stroke-width="2" d="M135.74,-213.98C140.35,-201.08 146.73,-183.19 151.85,-168.84"/>
<polygon fill="red" stroke="red" stroke-width="2" points="153.19,-171.32 153.23,-164.96 149.24,-169.91 153.19,-171.32"/>
</g>
<!-- 4 -->
<g id="node5" class="node">
<title>4</title>
<ellipse fill="salmon" stroke="salmon" cx="107.04" cy="-302.5" rx="18" ry="18"/>
<text text-anchor="start" x="102.92" y="-297.83" font-family="monospace" font-size="14.00" fill="white">4</text>
</g>
<!-- 1&#45;&gt;4 -->
<g id="edge8" class="edge">
<title>1&#45;&gt;4</title>
<path fill="none" stroke="red" stroke-width="2" d="M124.19,-248.32C121.38,-257.21 117.9,-268.2 114.81,-277.95"/>
<polygon fill="red" stroke="red" stroke-width="2" points="113.27,-275.87 113.46,-282.22 117.27,-277.14 113.27,-275.87"/>
</g>
<!-- 3 -->
<g id="node4" class="node">
<title>3</title>
<ellipse fill="salmon" stroke="salmon" cx="82.91" cy="-193.47" rx="18" ry="18"/>
<text text-anchor="start" x="78.79" y="-188.79" font-family="monospace" font-size="14.00" fill="white">3</text>
</g>
<!-- 2&#45;&gt;3 -->
<g id="edge9" class="edge">
<title>2&#45;&gt;3</title>
<path fill="none" stroke="#bbbbbb" d="M142.57,-149.58C129.99,-155.73 113.28,-165.97 100.71,-175.12"/>
<polygon fill="#bbbbbb" stroke="#bbbbbb" points="99.64,-173.3 96.12,-178.59 102.17,-176.65 99.64,-173.3"/>
</g>
<!-- 5 -->
<g id="node6" class="node">
<title>5</title>
<ellipse fill="skyblue" stroke="skyblue" cx="243.49" cy="-106.34" rx="18" ry="18"/>
<text text-anchor="start" x="239.36" y="-101.67" font-family="monospace" font-size="14.00">5</text>
</g>
<!-- 2&#45;&gt;5 -->
<g id="edge10" class="edge">
<title>2&#45;&gt;5</title>
<path fill="none" stroke="#bbbbbb" d="M176.83,-137.22C189.26,-131.46 206.51,-123.47 220.34,-117.07"/>
<polygon fill="#bbbbbb" stroke="#bbbbbb" points="220.89,-119.13 225.45,-114.7 219.12,-115.32 220.89,-119.13"/>
</g>
<!-- 6 -->
<g id="node7" class="node">
<title>6</title>
<ellipse fill="skyblue" stroke="skyblue" cx="180.03" cy="-55.4" rx="18" ry="18"/>
<text text-anchor="start" x="175.91" y="-50.73" font-family="monospace" font-size="14.00">6</text>
</g>
<!-- 2&#45;&gt;6 -->
<g id="edge11" class="edge">
<title>2&#45;&gt;6</title>
<path fill="none" stroke="#bbbbbb" d="M164.29,-127.16C167.23,-113.77 171.3,-95.21 174.57,-80.32"/>
<polygon fill="#bbbbbb" stroke="#bbbbbb" points="176.54,-81.13 175.78,-74.82 172.44,-80.23 176.54,-81.13"/>
</g>
<!-- 3&#45;&gt;0 -->
<g id="edge1" class="edge">
<title>3&#45;&gt;0</title>
<path fill="none" stroke="black" stroke-dasharray="5,2" d="M64.95,-197.15C56,-201.15 45.24,-207.15 36.25,-213.07"/>
<polygon fill="black" stroke="black" points="35.06,-211.34 31.32,-216.48 37.45,-214.8 35.06,-211.34"/>
<polygon fill="#ffffff" fill-opacity="0.800000" stroke="none" points="37.07,-193.09 37.07,-210.34 48.32,-210.34 48.32,-193.09 37.07,-193.09"/>
<text text-anchor="start" x="40.07" y="-198.79" font-family="monospace" font-size="9.00">1</text>
</g>
<!-- 3&#45;&gt;0 -->
<g id="edge2" class="edge">
<title>3&#45;&gt;0</title>
<path fill="none" stroke="red" stroke-width="2" d="M70.76,-207.2C62.83,-212.96 52.27,-219.3 42.65,-224.14"/>
<polygon fill="red" stroke="red" stroke-width="2" points="43.12,-221.59 38.61,-226.06 44.93,-225.38 43.12,-221.59"/>
</g>
<!-- 3&#45;&gt;1 -->
<g id="edge3" class="edge">
<title>3&#45;&gt;1</title>
<path fill="none" stroke="black" stroke-dasharray="5,2" d="M97.19,-204.94C101.18,-208.14 105.59,-211.68 109.84,-215.09"/>
<polygon fill="black" stroke="black" points="108.3,-216.55 114.29,-218.67 110.93,-213.27 108.3,-216.55"/>
<polygon fill="#ffffff" fill-opacity="0.800000" stroke="none" points="109.85,-197.36 109.85,-214.61 121.1,-214.61 121.1,-197.36 109.85,-197.36"/>
<text text-anchor="start" x="112.85" y="-203.06" font-family="monospace" font-size="9.00">2</text>
</g>
<!-- 3&#45;&gt;2 -->
<g id="edge5" class="edge">
<title>3&#45;&gt;2</title>
<path fill="none" stroke="black" stroke-dasharray="5,2" d="M100.76,-188.71C113.34,-182.57 130.05,-172.32 142.62,-163.17"/>
<polygon fill="black" stroke="black" points="143.69,-165 147.21,-159.71 141.16,-161.65 143.69,-165"/>
<polygon fill="#ffffff" fill-opacity="0.800000" stroke="none" points="131.17,-166.79 131.17,-182.04 140.42,-182.04 140.42,-166.79 131.17,-166.79"/>
<text text-anchor="start" x="133.17" y="-171.49" font-family="monospace" font-size="9.00">3</text>
</g>
<!-- 3&#45;&gt;4 -->
<g id="edge4" class="edge">
<title>3&#45;&gt;4</title>
<path fill="none" stroke="black" stroke-dasharray="5,2" d="M86.9,-211.47C90.86,-229.39 96.98,-257.04 101.43,-277.16"/>
<polygon fill="black" stroke="black" points="99.38,-277.59 102.72,-282.99 103.48,-276.68 99.38,-277.59"/>
<polygon fill="#ffffff" fill-opacity="0.800000" stroke="none" points="86.8,-262.22 86.8,-279.47 98.05,-279.47 98.05,-262.22 86.8,-262.22"/>
<text text-anchor="start" x="89.8" y="-267.92" font-family="monospace" font-size="9.00">3</text>
</g>
<!-- 6&#45;&gt;5 -->
<g id="edge12" class="edge">
<title>6&#45;&gt;5</title>
<path fill="none" stroke="skyblue" stroke-width="2" d="M194.43,-66.96C203.03,-73.87 214.08,-82.74 223.52,-90.31"/>
<polygon fill="skyblue" stroke="skyblue" stroke-width="2" points="220.79,-90.82 226.78,-92.94 223.42,-87.54 220.79,-90.82"/>
</g>
<!-- 7 -->
<g id="node8" class="node">
<title>7</title>
<ellipse fill="skyblue" stroke="skyblue" cx="262.24" cy="-18" rx="18" ry="18"/>
<text text-anchor="start" x="258.12" y="-13.32" font-family="monospace" font-size="14.00">7</text>
</g>
<!-- 6&#45;&gt;7 -->
<g id="edge13" class="edge">
<title>6&#45;&gt;7</title>
<path fill="none" stroke="#bbbbbb" d="M197.89,-58.63C212.53,-55.97 232.8,-47.3 246.76,-38.06"/>
<polygon fill="#bbbbbb" stroke="#bbbbbb" points="247.81,-39.88 251.46,-34.67 245.36,-36.48 247.81,-39.88"/>
</g>
<!-- 7&#45;&gt;5 -->
<g id="edge14" class="edge">
<title>7&#45;&gt;5</title>
<path fill="none" stroke="black" stroke-dasharray="5,2" d="M258.45,-35.88C255.67,-48.93 251.88,-66.8 248.81,-81.28"/>
<polygon fill="black" stroke="black" points="246.78,-80.71 247.59,-87.01 250.89,-81.58 246.78,-80.71"/>
<polygon fill="#ffffff" fill-opacity="0.800000" stroke="none" points="234.03,-69.24 234.03,-86.49 245.28,-86.49 245.28,-69.24 234.03,-69.24"/>
<text text-anchor="start" x="237.03" y="-74.94" font-family="monospace" font-size="9.00">2</text>
</g>
<!-- 7&#45;&gt;6 -->
<g id="edge15" class="edge">
<title>7&#45;&gt;6</title>
<path fill="none" stroke="black" stroke-dasharray="5,2" d="M244.39,-14.77C229.75,-17.43 209.48,-26.1 195.52,-35.35"/>
<polygon fill="black" stroke="black" points="194.46,-33.52 190.82,-38.73 196.92,-36.93 194.46,-33.52"/>
<polygon fill="#ffffff" fill-opacity="0.800000" stroke="none" points="195.59,-16.36 195.59,-33.61 206.84,-33.61 206.84,-16.36 195.59,-16.36"/>
<text text-anchor="start" x="198.59" y="-22.06" font-family="monospace" font-size="9.00">1</text>
</g>
<!-- 7&#45;&gt;6 -->
<g id="edge16" class="edge">
<title>7&#45;&gt;6</title>
<path fill="none" stroke="skyblue" stroke-width="2" d="M245.61,-25.57C233.46,-31.09 216.83,-38.66 203.36,-44.79"/>
<polygon fill="skyblue" stroke="skyblue" stroke-width="2" points="203.99,-42.19 199.4,-46.59 205.73,-46.02 203.99,-42.19"/>
</g>
</g>
</svg>
