<?xml version="1.0" encoding="UTF-8" standalone="no"?>
<!DOCTYPE svg PUBLIC "-//W3C//DTD SVG 1.1//EN"
 "http://www.w3.org/Graphics/SVG/1.1/DTD/svg11.dtd">
<!-- Generated by graphviz version 12.0.0 (20240704.0754)
 -->
<!-- Pages: 1 -->
<svg width="313pt" height="253pt"
 viewBox="0.00 0.00 312.71 253.41" xmlns="http://www.w3.org/2000/svg" xmlns:xlink="http://www.w3.org/1999/xlink">
<g id="graph0" class="graph" transform="scale(1 1) rotate(0) translate(14.4 239.01)">
<polygon fill="white" stroke="none" points="-14.4,14.4 -14.4,-239.01 298.31,-239.01 298.31,14.4 -14.4,14.4"/>
<!-- 3 -->
<g id="node1" class="node">
<title>3</title>
<ellipse fill="none" stroke="#bbbbbb" cx="18" cy="-93.94" rx="18" ry="18"/>
<text text-anchor="start" x="13.88" y="-89.27" font-family="monospace" font-size="14.00" fill="#bbbbbb">3</text>
</g>
<!-- 0 -->
<g id="node2" class="node">
<title>0</title>
<ellipse fill="none" stroke="red" stroke-width="2" cx="91.66" cy="-93.94" rx="18" ry="18"/>
<text text-anchor="start" x="87.54" y="-89.27" font-family="monospace" font-size="14.00">0</text>
</g>
<!-- 3&#45;&gt;0 -->
<g id="edge2" class="edge">
<title>3&#45;&gt;0</title>
<path fill="none" stroke="#bbbbbb" d="M36.21,-93.94C45.24,-93.94 56.3,-93.94 66.16,-93.94"/>
<polygon fill="#bbbbbb" stroke="#bbbbbb" points="65.89,-96.04 71.89,-93.94 65.89,-91.84 65.89,-96.04"/>
</g>
<!-- 1 -->
<g id="node3" class="node">
<title>1</title>
<ellipse fill="none" stroke="red" stroke-width="2" cx="169.39" cy="-89.91" rx="18" ry="18"/>
<text text-anchor="start" x="165.26" y="-85.24" font-family="monospace" font-size="14.00">1</text>
</g>
<!-- 0&#45;&gt;1 -->
<g id="edge1" class="edge">
<title>0&#45;&gt;1</title>
<path fill="none" stroke="red" stroke-width="2" d="M109.21,-98.76C119.76,-99.33 133.35,-98.84 144.94,-97.53"/>
<polygon fill="red" stroke="red" stroke-width="2" points="143.55,-99.83 149.22,-96.96 142.99,-95.67 143.55,-99.83"/>
</g>
<!-- 1&#45;&gt;0 -->
<g id="edge9" class="edge">
<title>1&#45;&gt;0</title>
<path fill="none" stroke="black" stroke-dasharray="5,2" d="M151.84,-85.09C141.29,-84.52 127.71,-85.02 116.11,-86.33"/>
<polygon fill="black" stroke="black" points="116,-84.22 110.34,-87.1 116.56,-88.38 116,-84.22"/>
</g>
<!-- 2 -->
<g id="node4" class="node">
<title>2</title>
<ellipse fill="none" stroke="red" stroke-width="2" cx="217.47" cy="-151.12" rx="18" ry="18"/>
<text text-anchor="start" x="213.34" y="-146.44" font-family="monospace" font-size="14.00">2</text>
</g>
<!-- 1&#45;&gt;2 -->
<g id="edge3" class="edge">
<title>1&#45;&gt;2</title>
<path fill="none" stroke="red" stroke-width="2" d="M175.56,-107.03C181.26,-116.13 189.68,-127.16 197.54,-135.95"/>
<polygon fill="red" stroke="red" stroke-width="2" points="194.65,-135.93 200.27,-138.89 197.72,-133.06 194.65,-135.93"/>
</g>
<!-- 4 -->
<g id="node5" class="node">
<title>4</title>
<ellipse fill="none" stroke="red" stroke-width="2" cx="202.07" cy="-18" rx="18" ry="18"/>
<text text-anchor="start" x="197.95" y="-13.32" font-family="monospace" font-size="14.00">4</text>
</g>
<!-- 1&#45;&gt;4 -->
<g id="edge4" class="edge">
<title>1&#45;&gt;4</title>
<path fill="none" stroke="red" stroke-width="2" d="M181.85,-76.32C187.32,-67.01 193.26,-54.43 197.51,-43.32"/>
<polygon fill="red" stroke="red" stroke-width="2" points="198.97,-45.49 199.02,-39.13 195.01,-44.06 198.97,-45.49"/>
</g>
<!-- 2&#45;&gt;1 -->
<g id="edge7" class="edge">
<title>2&#45;&gt;1</title>
<path fill="none" stroke="black" stroke-dasharray="5,2" d="M211.3,-134C205.59,-124.9 197.18,-113.87 189.32,-105.08"/>
<polygon fill="black" stroke="black" points="191.18,-104 185.56,-101.04 188.11,-106.86 191.18,-104"/>
</g>
<!-- 5 -->
<g id="node6" class="node">
<title>5</title>
<ellipse fill="none" stroke="red" stroke-width="2" cx="265.91" cy="-206.61" rx="18" ry="18"/>
<text text-anchor="start" x="261.79" y="-201.94" font-family="monospace" font-size="14.00">5</text>
</g>
<!-- 2&#45;&gt;5 -->
<g id="edge5" class="edge">
<title>2&#45;&gt;5</title>
<path fill="none" stroke="red" stroke-width="2" d="M224.55,-168.11C230.08,-175.95 237.81,-185.08 245.14,-192.53"/>
<polygon fill="red" stroke="red" stroke-width="2" points="242.19,-192.59 247.96,-195.27 245.13,-189.58 242.19,-192.59"/>
</g>
<!-- 4&#45;&gt;1 -->
<g id="edge8" class="edge">
<title>4&#45;&gt;1</title>
<path fill="none" stroke="black" stroke-dasharray="5,2" d="M189.61,-31.59C184.14,-40.9 178.2,-53.49 173.95,-64.6"/>
<polygon fill="black" stroke="black" points="171.98,-63.85 171.93,-70.21 175.94,-65.27 171.98,-63.85"/>
</g>
<!-- 5&#45;&gt;2 -->
<g id="edge6" class="edge">
<title>5&#45;&gt;2</title>
<path fill="none" stroke="black" stroke-dasharray="5,2" d="M258.83,-189.62C253.3,-181.78 245.57,-172.65 238.24,-165.2"/>
<polygon fill="black" stroke="black" points="240.1,-164.08 234.34,-161.4 237.17,-167.09 240.1,-164.08"/>
</g>
</g>
</svg>
