<?xml version="1.0" encoding="UTF-8" standalone="no"?>
<!DOCTYPE svg PUBLIC "-//W3C//DTD SVG 1.1//EN"
 "http://www.w3.org/Graphics/SVG/1.1/DTD/svg11.dtd">
<!-- Generated by graphviz version 12.0.0 (20240704.0754)
 -->
<!-- Pages: 1 -->
<svg width="346pt" height="274pt"
 viewBox="0.00 0.00 345.63 274.36" xmlns="http://www.w3.org/2000/svg" xmlns:xlink="http://www.w3.org/1999/xlink">
<g id="graph0" class="graph" transform="scale(1 1) rotate(0) translate(14.4 259.96)">
<polygon fill="white" stroke="none" points="-14.4,14.4 -14.4,-259.96 331.23,-259.96 331.23,14.4 -14.4,14.4"/>
<!-- 3 -->
<g id="node1" class="node">
<title>3</title>
<ellipse fill="none" stroke="#aaaaaa" cx="100.08" cy="-216.76" rx="28.8" ry="28.8"/>
<text text-anchor="start" x="95.95" y="-212.08" font-family="monospace" font-size="14.00" fill="#aaaaaa">3</text>
</g>
<!-- 0 -->
<g id="node2" class="node">
<title>0</title>
<ellipse fill="none" stroke="red" stroke-width="2" cx="216.76" cy="-216.76" rx="28.8" ry="28.8"/>
<text text-anchor="start" x="212.63" y="-218.71" font-family="monospace" font-size="14.00">0</text>
<text text-anchor="start" x="200.26" y="-204.21" font-family="monospace" font-size="9.00">p(0)=⊥</text>
</g>
<!-- 3&#45;&gt;0 -->
<g id="edge2" class="edge">
<title>3&#45;&gt;0</title>
<path fill="none" stroke="#aaaaaa" d="M129.22,-216.76C144.67,-216.76 163.81,-216.76 180.24,-216.76"/>
<polygon fill="#aaaaaa" stroke="#aaaaaa" points="180.07,-218.86 186.07,-216.76 180.07,-214.66 180.07,-218.86"/>
</g>
<!-- 1 -->
<g id="node3" class="node">
<title>1</title>
<ellipse fill="none" stroke="red" stroke-width="2" cx="216.76" cy="-100.08" rx="28.8" ry="28.8"/>
<text text-anchor="start" x="212.63" y="-102.03" font-family="monospace" font-size="14.00">1</text>
<text text-anchor="start" x="201.01" y="-87.53" font-family="monospace" font-size="9.00">p(1)=0</text>
</g>
<!-- 0&#45;&gt;1 -->
<g id="edge1" class="edge">
<title>0&#45;&gt;1</title>
<path fill="none" stroke="red" stroke-width="2" d="M216.76,-187.61C216.76,-172.16 216.76,-153.03 216.76,-136.59"/>
<polygon fill="red" stroke="red" stroke-width="2" points="218.86,-138.28 216.76,-132.28 214.66,-138.28 218.86,-138.28"/>
</g>
<!-- 2 -->
<g id="node4" class="node">
<title>2</title>
<ellipse fill="none" stroke="red" stroke-width="2" cx="100.08" cy="-100.08" rx="28.8" ry="28.8"/>
<text text-anchor="start" x="95.95" y="-102.03" font-family="monospace" font-size="14.00">2</text>
<text text-anchor="start" x="84.33" y="-87.53" font-family="monospace" font-size="9.00">p(2)=1</text>
</g>
<!-- 1&#45;&gt;2 -->
<g id="edge3" class="edge">
<title>1&#45;&gt;2</title>
<path fill="none" stroke="red" stroke-width="2" d="M187.61,-100.08C172.16,-100.08 153.03,-100.08 136.59,-100.08"/>
<polygon fill="red" stroke="red" stroke-width="2" points="138.28,-97.98 132.28,-100.08 138.28,-102.18 138.28,-97.98"/>
</g>
<!-- 4 -->
<g id="node5" class="node">
<title>4</title>
<ellipse fill="none" stroke="red" stroke-width="2" cx="288.03" cy="-28.8" rx="28.8" ry="28.8"/>
<text text-anchor="start" x="283.91" y="-30.75" font-family="monospace" font-size="14.00">4</text>
<text text-anchor="start" x="272.28" y="-16.25" font-family="monospace" font-size="9.00">p(4)=1</text>
</g>
<!-- 1&#45;&gt;4 -->
<g id="edge5" class="edge">
<title>1&#45;&gt;4</title>
<path fill="none" stroke="red" stroke-width="2" d="M237.37,-79.46C245.27,-71.56 254.38,-62.46 262.67,-54.16"/>
<polygon fill="red" stroke="red" stroke-width="2" points="262.81,-56.99 265.57,-51.26 259.84,-54.02 262.81,-56.99"/>
</g>
<!-- 2&#45;&gt;3 -->
<!-- 5 -->
<g id="node6" class="node">
<title>5</title>
<ellipse fill="none" stroke="red" stroke-width="2" cx="28.8" cy="-28.8" rx="28.8" ry="28.8"/>
<text text-anchor="start" x="24.67" y="-30.75" font-family="monospace" font-size="14.00">5</text>
<text text-anchor="start" x="13.05" y="-16.25" font-family="monospace" font-size="9.00">p(5)=2</text>
</g>
<!-- 2&#45;&gt;5 -->
<g id="edge6" class="edge">
<title>2&#45;&gt;5</title>
<path fill="none" stroke="red" stroke-width="2" d="M79.46,-79.46C71.56,-71.56 62.46,-62.46 54.16,-54.16"/>
<polygon fill="red" stroke="red" stroke-width="2" points="56.99,-54.02 51.26,-51.26 54.02,-56.99 56.99,-54.02"/>
</g>
</g>
</svg>
