<?xml version="1.0" encoding="UTF-8" standalone="no"?>
<!DOCTYPE svg PUBLIC "-//W3C//DTD SVG 1.1//EN"
 "http://www.w3.org/Graphics/SVG/1.1/DTD/svg11.dtd">
<!-- Generated by graphviz version 12.0.0 (20240704.0754)
 -->
<!-- Pages: 1 -->
<svg width="336pt" height="266pt"
 viewBox="0.00 0.00 336.25 266.24" xmlns="http://www.w3.org/2000/svg" xmlns:xlink="http://www.w3.org/1999/xlink">
<g id="graph0" class="graph" transform="scale(1 1) rotate(0) translate(14.4 251.84)">
<polygon fill="white" stroke="none" points="-14.4,14.4 -14.4,-251.84 321.85,-251.84 321.85,14.4 -14.4,14.4"/>
<!-- 3 -->
<g id="node1" class="node">
<title>3</title>
<ellipse fill="none" stroke="#bbbbbb" cx="97" cy="-210.44" rx="27" ry="27"/>
<text text-anchor="start" x="92.88" y="-205.77" font-family="monospace" font-size="14.00" fill="#bbbbbb">3</text>
</g>
<!-- 0 -->
<g id="node2" class="node">
<title>0</title>
<ellipse fill="none" stroke="red" stroke-width="2" cx="210.44" cy="-210.44" rx="27" ry="27"/>
<text text-anchor="start" x="206.32" y="-212.39" font-family="monospace" font-size="14.00">0</text>
<text text-anchor="start" x="193.94" y="-197.89" font-family="monospace" font-size="9.00">p(0)=⊥</text>
</g>
<!-- 3&#45;&gt;0 -->
<g id="edge2" class="edge">
<title>3&#45;&gt;0</title>
<path fill="none" stroke="#bbbbbb" d="M124.46,-210.44C139.93,-210.44 159.39,-210.44 175.89,-210.44"/>
<polygon fill="#bbbbbb" stroke="#bbbbbb" points="175.72,-212.54 181.72,-210.44 175.72,-208.34 175.72,-212.54"/>
</g>
<!-- 1 -->
<g id="node3" class="node">
<title>1</title>
<ellipse fill="none" stroke="red" stroke-width="2" cx="210.44" cy="-97" rx="27" ry="27"/>
<text text-anchor="start" x="206.32" y="-98.95" font-family="monospace" font-size="14.00">1</text>
<text text-anchor="start" x="194.69" y="-84.45" font-family="monospace" font-size="9.00">p(1)=0</text>
</g>
<!-- 0&#45;&gt;1 -->
<g id="edge1" class="edge">
<title>0&#45;&gt;1</title>
<path fill="none" stroke="red" stroke-width="2" d="M210.44,-182.98C210.44,-167.52 210.44,-148.05 210.44,-131.56"/>
<polygon fill="red" stroke="red" stroke-width="2" points="212.54,-133.24 210.44,-127.24 208.34,-133.24 212.54,-133.24"/>
</g>
<!-- 2 -->
<g id="node4" class="node">
<title>2</title>
<ellipse fill="none" stroke="red" stroke-width="2" cx="97" cy="-97" rx="27" ry="27"/>
<text text-anchor="start" x="92.88" y="-98.95" font-family="monospace" font-size="14.00">2</text>
<text text-anchor="start" x="81.25" y="-84.45" font-family="monospace" font-size="9.00">p(2)=1</text>
</g>
<!-- 1&#45;&gt;2 -->
<g id="edge3" class="edge">
<title>1&#45;&gt;2</title>
<path fill="none" stroke="red" stroke-width="2" d="M182.98,-97C167.52,-97 148.05,-97 131.56,-97"/>
<polygon fill="red" stroke="red" stroke-width="2" points="133.24,-94.9 127.24,-97 133.24,-99.1 133.24,-94.9"/>
</g>
<!-- 4 -->
<g id="node5" class="node">
<title>4</title>
<ellipse fill="none" stroke="red" stroke-width="2" cx="280.45" cy="-27" rx="27" ry="27"/>
<text text-anchor="start" x="276.32" y="-28.95" font-family="monospace" font-size="14.00">4</text>
<text text-anchor="start" x="264.7" y="-14.45" font-family="monospace" font-size="9.00">p(4)=1</text>
</g>
<!-- 1&#45;&gt;4 -->
<g id="edge5" class="edge">
<title>1&#45;&gt;4</title>
<path fill="none" stroke="red" stroke-width="2" d="M229.57,-77.87C237.75,-69.69 247.4,-60.05 256.08,-51.37"/>
<polygon fill="red" stroke="red" stroke-width="2" points="256.44,-53.97 259.2,-48.25 253.47,-51 256.44,-53.97"/>
</g>
<!-- 2&#45;&gt;3 -->
<!-- 5 -->
<g id="node6" class="node">
<title>5</title>
<ellipse fill="none" stroke="red" stroke-width="2" cx="27" cy="-27" rx="27" ry="27"/>
<text text-anchor="start" x="22.87" y="-28.95" font-family="monospace" font-size="14.00">5</text>
<text text-anchor="start" x="11.25" y="-14.45" font-family="monospace" font-size="9.00">p(5)=2</text>
</g>
<!-- 2&#45;&gt;5 -->
<g id="edge6" class="edge">
<title>2&#45;&gt;5</title>
<path fill="none" stroke="red" stroke-width="2" d="M77.87,-77.87C69.69,-69.69 60.05,-60.05 51.37,-51.37"/>
<polygon fill="red" stroke="red" stroke-width="2" points="53.97,-51 48.25,-48.25 51,-53.97 53.97,-51"/>
</g>
</g>
</svg>
