<?xml version="1.0" encoding="UTF-8" standalone="no"?>
<!DOCTYPE svg PUBLIC "-//W3C//DTD SVG 1.1//EN"
 "http://www.w3.org/Graphics/SVG/1.1/DTD/svg11.dtd">
<!-- Generated by graphviz version 12.0.0 (20240704.0754)
 -->
<!-- Pages: 1 -->
<svg width="317pt" height="396pt"
 viewBox="0.00 0.00 316.51 395.52" xmlns="http://www.w3.org/2000/svg" xmlns:xlink="http://www.w3.org/1999/xlink">
<g id="graph0" class="graph" transform="scale(1 1) rotate(0) translate(14.4 381.12)">
<polygon fill="white" stroke="none" points="-14.4,14.4 -14.4,-381.12 302.11,-381.12 302.11,14.4 -14.4,14.4"/>
<!-- 0 -->
<g id="node1" class="node">
<title>0</title>
<ellipse fill="none" stroke="lightsalmon" stroke-width="2" cx="125.86" cy="-99.59" rx="27" ry="27"/>
<text text-anchor="start" x="121.74" y="-101.54" font-family="monospace" font-size="14.00">0</text>
<text text-anchor="start" x="110.11" y="-87.04" font-family="monospace" font-size="9.00">c(0)=0</text>
</g>
<!-- 1 -->
<g id="node2" class="node">
<title>1</title>
<ellipse fill="none" stroke="lightsalmon" stroke-width="2" cx="222.39" cy="-99.59" rx="27" ry="27"/>
<text text-anchor="start" x="218.26" y="-101.54" font-family="monospace" font-size="14.00">1</text>
<text text-anchor="start" x="206.64" y="-87.04" font-family="monospace" font-size="9.00">c(1)=0</text>
</g>
<!-- 0&#45;&gt;1 -->
<g id="edge1" class="edge">
<title>0&#45;&gt;1</title>
<path fill="none" stroke="lightsalmon" stroke-width="2" d="M153.27,-99.59C163.96,-99.59 176.36,-99.59 187.67,-99.59"/>
<polygon fill="lightsalmon" stroke="lightsalmon" stroke-width="2" points="185.89,-101.69 191.89,-99.59 185.89,-97.49 185.89,-101.69"/>
</g>
<!-- 5 -->
<g id="node6" class="node">
<title>5</title>
<ellipse fill="none" stroke="#bbbbbb" cx="114.95" cy="-196.33" rx="27" ry="27"/>
<text text-anchor="start" x="110.83" y="-191.66" font-family="monospace" font-size="14.00" fill="#bbbbbb">5</text>
</g>
<!-- 0&#45;&gt;5 -->
<!-- 2 -->
<g id="node3" class="node">
<title>2</title>
<ellipse fill="none" stroke="lightsalmon" stroke-width="2" cx="174.11" cy="-27" rx="27" ry="27"/>
<text text-anchor="start" x="169.98" y="-28.95" font-family="monospace" font-size="14.00">2</text>
<text text-anchor="start" x="158.36" y="-14.45" font-family="monospace" font-size="9.00">c(2)=0</text>
</g>
<!-- 1&#45;&gt;2 -->
<g id="edge3" class="edge">
<title>1&#45;&gt;2</title>
<path fill="none" stroke="lightsalmon" stroke-width="2" d="M207.38,-77.02C202.88,-70.26 197.88,-62.75 193.16,-55.65"/>
<polygon fill="lightsalmon" stroke="lightsalmon" stroke-width="2" points="196.02,-56.16 190.95,-52.33 192.53,-58.48 196.02,-56.16"/>
</g>
<!-- 3 -->
<g id="node4" class="node">
<title>3</title>
<ellipse fill="none" stroke="#bbbbbb" cx="218.16" cy="-194.11" rx="27" ry="27"/>
<text text-anchor="start" x="214.04" y="-189.44" font-family="monospace" font-size="14.00" fill="#bbbbbb">3</text>
</g>
<!-- 1&#45;&gt;3 -->
<!-- 2&#45;&gt;0 -->
<g id="edge5" class="edge">
<title>2&#45;&gt;0</title>
<path fill="none" stroke="lightsalmon" stroke-width="2" d="M159.11,-49.57C154.61,-56.33 149.62,-63.84 144.9,-70.94"/>
<polygon fill="lightsalmon" stroke="lightsalmon" stroke-width="2" points="144.27,-68.1 142.7,-74.26 147.77,-70.43 144.27,-68.1"/>
</g>
<!-- 4 -->
<g id="node5" class="node">
<title>4</title>
<ellipse fill="none" stroke="#bbbbbb" cx="174.08" cy="-257.33" rx="27" ry="27"/>
<text text-anchor="start" x="169.96" y="-252.66" font-family="monospace" font-size="14.00" fill="#bbbbbb">4</text>
</g>
<!-- 3&#45;&gt;4 -->
<g id="edge6" class="edge">
<title>3&#45;&gt;4</title>
<path fill="none" stroke="#bbbbbb" d="M202.5,-216.58C199.71,-220.58 196.76,-224.8 193.87,-228.95"/>
<polygon fill="#bbbbbb" stroke="#bbbbbb" points="192.27,-227.57 190.56,-233.69 195.72,-229.97 192.27,-227.57"/>
</g>
<!-- 3&#45;&gt;5 -->
<g id="edge7" class="edge">
<title>3&#45;&gt;5</title>
<path fill="none" stroke="#bbbbbb" d="M190.78,-194.7C178.08,-194.97 162.85,-195.3 149.38,-195.59"/>
<polygon fill="#bbbbbb" stroke="#bbbbbb" points="149.58,-193.49 143.62,-195.71 149.67,-197.68 149.58,-193.49"/>
</g>
<!-- 4&#45;&gt;5 -->
<g id="edge8" class="edge">
<title>4&#45;&gt;5</title>
<path fill="none" stroke="#bbbbbb" d="M155.05,-237.69C149.98,-232.47 144.45,-226.76 139.15,-221.29"/>
<polygon fill="#bbbbbb" stroke="#bbbbbb" points="140.69,-219.86 135.01,-217.02 137.67,-222.79 140.69,-219.86"/>
</g>
<!-- 6 -->
<g id="node7" class="node">
<title>6</title>
<ellipse fill="none" stroke="#bbbbbb" cx="171.83" cy="-339.72" rx="27" ry="27"/>
<text text-anchor="start" x="167.71" y="-335.04" font-family="monospace" font-size="14.00" fill="#bbbbbb">6</text>
</g>
<!-- 4&#45;&gt;6 -->
<g id="edge9" class="edge">
<title>4&#45;&gt;6</title>
<path fill="none" stroke="#bbbbbb" d="M173.33,-284.77C173.15,-291.3 172.96,-298.35 172.78,-305.15"/>
<polygon fill="#bbbbbb" stroke="#bbbbbb" points="170.68,-304.84 172.62,-310.89 174.88,-304.95 170.68,-304.84"/>
</g>
<!-- 8 -->
<g id="node9" class="node">
<title>8</title>
<ellipse fill="none" stroke="#bbbbbb" cx="27" cy="-227.26" rx="27" ry="27"/>
<text text-anchor="start" x="22.88" y="-222.59" font-family="monospace" font-size="14.00" fill="#bbbbbb">8</text>
</g>
<!-- 5&#45;&gt;8 -->
<g id="edge10" class="edge">
<title>5&#45;&gt;8</title>
<path fill="none" stroke="#bbbbbb" d="M89.04,-205.44C79.83,-208.69 69.33,-212.38 59.63,-215.79"/>
<polygon fill="#bbbbbb" stroke="#bbbbbb" points="59.12,-213.74 54.16,-217.71 60.51,-217.7 59.12,-213.74"/>
</g>
<!-- 7 -->
<g id="node8" class="node">
<title>7</title>
<ellipse fill="none" stroke="#bbbbbb" cx="260.71" cy="-285.7" rx="27" ry="27"/>
<text text-anchor="start" x="256.58" y="-281.02" font-family="monospace" font-size="14.00" fill="#bbbbbb">7</text>
</g>
<!-- 6&#45;&gt;7 -->
<g id="edge11" class="edge">
<title>6&#45;&gt;7</title>
<path fill="none" stroke="#bbbbbb" d="M195.18,-325.53C206.2,-318.83 219.48,-310.76 231.19,-303.64"/>
<polygon fill="#bbbbbb" stroke="#bbbbbb" points="232.18,-305.49 236.22,-300.58 230,-301.91 232.18,-305.49"/>
</g>
<!-- 9 -->
<g id="node10" class="node">
<title>9</title>
<ellipse fill="none" stroke="#bbbbbb" cx="83.69" cy="-289.64" rx="27" ry="27"/>
<text text-anchor="start" x="79.57" y="-284.97" font-family="monospace" font-size="14.00" fill="#bbbbbb">9</text>
</g>
<!-- 6&#45;&gt;9 -->
<g id="edge12" class="edge">
<title>6&#45;&gt;9</title>
<path fill="none" stroke="#bbbbbb" d="M148.21,-326.3C137.64,-320.29 125.05,-313.14 113.81,-306.75"/>
<polygon fill="#bbbbbb" stroke="#bbbbbb" points="114.95,-304.98 108.69,-303.85 112.87,-308.63 114.95,-304.98"/>
</g>
<!-- 7&#45;&gt;3 -->
<g id="edge13" class="edge">
<title>7&#45;&gt;3</title>
<path fill="none" stroke="#bbbbbb" d="M249.31,-261.16C244.24,-250.26 238.23,-237.3 232.83,-225.69"/>
<polygon fill="#bbbbbb" stroke="#bbbbbb" points="234.81,-224.97 230.38,-220.41 231.01,-226.74 234.81,-224.97"/>
</g>
<!-- 8&#45;&gt;9 -->
<g id="edge14" class="edge">
<title>8&#45;&gt;9</title>
<path fill="none" stroke="#bbbbbb" d="M45.25,-247.34C50.11,-252.69 55.42,-258.53 60.5,-264.12"/>
<polygon fill="#bbbbbb" stroke="#bbbbbb" points="58.87,-265.45 64.46,-268.48 61.98,-262.63 58.87,-265.45"/>
</g>
<!-- 9&#45;&gt;5 -->
<g id="edge15" class="edge">
<title>9&#45;&gt;5</title>
<path fill="none" stroke="#bbbbbb" d="M92.4,-263.65C95.99,-252.93 100.19,-240.39 103.99,-229.06"/>
<polygon fill="#bbbbbb" stroke="#bbbbbb" points="105.9,-229.98 105.81,-223.62 101.91,-228.64 105.9,-229.98"/>
</g>
</g>
</svg>
