<?xml version="1.0" encoding="UTF-8" standalone="no"?>
<!DOCTYPE svg PUBLIC "-//W3C//DTD SVG 1.1//EN"
 "http://www.w3.org/Graphics/SVG/1.1/DTD/svg11.dtd">
<!-- Generated by graphviz version 12.0.0 (20240704.0754)
 -->
<!-- Pages: 1 -->
<svg width="289pt" height="226pt"
 viewBox="0.00 0.00 289.31 225.67" xmlns="http://www.w3.org/2000/svg" xmlns:xlink="http://www.w3.org/1999/xlink">
<g id="graph0" class="graph" transform="scale(1 1) rotate(0) translate(14.4 211.27)">
<polygon fill="white" stroke="none" points="-14.4,14.4 -14.4,-211.27 274.91,-211.27 274.91,14.4 -14.4,14.4"/>
<!-- 3 -->
<g id="node1" class="node">
<title>3</title>
<ellipse fill="none" stroke="#aaaaaa" cx="81.64" cy="-178.87" rx="18" ry="18"/>
<text text-anchor="middle" x="81.64" y="-174.2" font-family="monospace" font-size="14.00" fill="#aaaaaa">3</text>
</g>
<!-- 0 -->
<g id="node2" class="node">
<title>0</title>
<ellipse fill="none" stroke="red" stroke-width="2" cx="178.87" cy="-178.87" rx="18" ry="18"/>
<text text-anchor="middle" x="178.87" y="-174.2" font-family="monospace" font-size="14.00">0</text>
</g>
<!-- 3&#45;&gt;0 -->
<g id="edge2" class="edge">
<title>3&#45;&gt;0</title>
<path fill="none" stroke="#aaaaaa" d="M99.93,-178.87C115,-178.87 136.56,-178.87 153.33,-178.87"/>
<polygon fill="#aaaaaa" stroke="#aaaaaa" points="153.15,-180.97 159.15,-178.87 153.15,-176.77 153.15,-180.97"/>
</g>
<!-- 1 -->
<g id="node3" class="node">
<title>1</title>
<ellipse fill="none" stroke="red" stroke-width="2" cx="178.87" cy="-81.64" rx="18" ry="18"/>
<text text-anchor="middle" x="178.87" y="-76.96" font-family="monospace" font-size="14.00">1</text>
</g>
<!-- 0&#45;&gt;1 -->
<g id="edge1" class="edge">
<title>0&#45;&gt;1</title>
<path fill="none" stroke="red" stroke-width="2" d="M178.87,-160.58C178.87,-145.51 178.87,-123.96 178.87,-107.18"/>
<polygon fill="red" stroke="red" stroke-width="2" points="180.97,-108.87 178.87,-102.87 176.77,-108.87 180.97,-108.87"/>
<text text-anchor="middle" x="165.75" y="-102.55" font-family="monospace" font-size="9.00">p=0 &#160;</text>
<text text-anchor="middle" x="163.12" y="-152.03" font-family="monospace" font-size="9.00">p={} &#160;</text>
</g>
<!-- 2 -->
<g id="node4" class="node">
<title>2</title>
<ellipse fill="none" stroke="red" stroke-width="2" cx="81.64" cy="-81.64" rx="18" ry="18"/>
<text text-anchor="middle" x="81.64" y="-76.96" font-family="monospace" font-size="14.00">2</text>
</g>
<!-- 1&#45;&gt;2 -->
<g id="edge3" class="edge">
<title>1&#45;&gt;2</title>
<path fill="none" stroke="red" stroke-width="2" d="M160.58,-81.64C145.51,-81.64 123.96,-81.64 107.18,-81.64"/>
<polygon fill="red" stroke="red" stroke-width="2" points="108.87,-79.54 102.87,-81.64 108.87,-83.74 108.87,-79.54"/>
<text text-anchor="middle" x="112.97" y="-84.34" font-family="monospace" font-size="9.00"> &#160;p=1</text>
</g>
<!-- 4 -->
<g id="node5" class="node">
<title>4</title>
<ellipse fill="none" stroke="red" stroke-width="2" cx="242.51" cy="-18" rx="18" ry="18"/>
<text text-anchor="middle" x="242.51" y="-13.32" font-family="monospace" font-size="14.00">4</text>
</g>
<!-- 1&#45;&gt;4 -->
<g id="edge5" class="edge">
<title>1&#45;&gt;4</title>
<path fill="none" stroke="red" stroke-width="2" d="M191.75,-68.76C201.15,-59.36 214.03,-46.49 224.45,-36.06"/>
<polygon fill="red" stroke="red" stroke-width="2" points="224.76,-38.73 227.51,-33 221.79,-35.76 224.76,-38.73"/>
<text text-anchor="middle" x="213.9" y="-33.56" font-family="monospace" font-size="9.00">p=1 &#160;&#160;</text>
</g>
<!-- 2&#45;&gt;3 -->
<!-- 5 -->
<g id="node6" class="node">
<title>5</title>
<ellipse fill="none" stroke="red" stroke-width="2" cx="18" cy="-18" rx="18" ry="18"/>
<text text-anchor="middle" x="18" y="-13.32" font-family="monospace" font-size="14.00">5</text>
</g>
<!-- 2&#45;&gt;5 -->
<g id="edge6" class="edge">
<title>2&#45;&gt;5</title>
<path fill="none" stroke="red" stroke-width="2" d="M68.76,-68.76C59.36,-59.36 46.49,-46.49 36.06,-36.06"/>
<polygon fill="red" stroke="red" stroke-width="2" points="38.73,-35.76 33,-33 35.76,-38.73 38.73,-35.76"/>
<text text-anchor="middle" x="49.23" y="-33.56" font-family="monospace" font-size="9.00"> &#160;&#160;p=2 </text>
</g>
</g>
</svg>
