<?xml version="1.0" encoding="UTF-8" standalone="no"?>
<!DOCTYPE svg PUBLIC "-//W3C//DTD SVG 1.1//EN"
 "http://www.w3.org/Graphics/SVG/1.1/DTD/svg11.dtd">
<!-- Generated by graphviz version 12.0.0 (20240704.0754)
 -->
<!-- Pages: 1 -->
<svg width="309pt" height="349pt"
 viewBox="0.00 0.00 309.04 349.32" xmlns="http://www.w3.org/2000/svg" xmlns:xlink="http://www.w3.org/1999/xlink">
<g id="graph0" class="graph" transform="scale(1 1) rotate(0) translate(14.4 334.92)">
<polygon fill="white" stroke="none" points="-14.4,14.4 -14.4,-334.92 294.64,-334.92 294.64,14.4 -14.4,14.4"/>
<!-- 3 -->
<g id="node1" class="node">
<title>3</title>
<ellipse fill="none" stroke="red" stroke-width="2" cx="150.54" cy="-231.03" rx="18" ry="18"/>
<polygon fill="#ffffff" fill-opacity="0.800000" stroke="none" points="145.41,-221.41 145.41,-240.66 155.66,-240.66 155.66,-221.41 145.41,-221.41"/>
<text text-anchor="start" x="146.41" y="-226.36" font-family="monospace" font-size="14.00">3</text>
</g>
<!-- 0 -->
<g id="node2" class="node">
<title>0</title>
<ellipse fill="none" stroke="red" stroke-width="2" cx="262.24" cy="-231.03" rx="18" ry="18"/>
<polygon fill="#ffffff" fill-opacity="0.800000" stroke="none" points="257.11,-221.41 257.11,-240.66 267.36,-240.66 267.36,-221.41 257.11,-221.41"/>
<text text-anchor="start" x="258.11" y="-226.36" font-family="monospace" font-size="14.00">0</text>
</g>
<!-- 3&#45;&gt;0 -->
<g id="edge1" class="edge">
<title>3&#45;&gt;0</title>
<path fill="none" stroke="red" stroke-width="2" d="M168.98,-231.03C187.34,-231.03 215.66,-231.03 236.28,-231.03"/>
<polygon fill="red" stroke="red" stroke-width="2" points="234.74,-233.13 240.74,-231.03 234.74,-228.93 234.74,-233.13"/>
<polygon fill="#ffffff" fill-opacity="0.800000" stroke="none" points="194.38,-232.03 194.38,-245.28 201.63,-245.28 201.63,-232.03 194.38,-232.03"/>
<text text-anchor="start" x="195.38" y="-235.73" font-family="monospace" font-size="9.00">1</text>
</g>
<!-- 1 -->
<g id="node3" class="node">
<title>1</title>
<ellipse fill="none" stroke="red" stroke-width="2" cx="197.32" cy="-193.48" rx="18" ry="18"/>
<polygon fill="#ffffff" fill-opacity="0.800000" stroke="none" points="192.2,-183.85 192.2,-203.1 202.45,-203.1 202.45,-183.85 192.2,-183.85"/>
<text text-anchor="start" x="193.2" y="-188.8" font-family="monospace" font-size="14.00">1</text>
</g>
<!-- 3&#45;&gt;1 -->
<g id="edge2" class="edge">
<title>3&#45;&gt;1</title>
<path fill="none" stroke="black" stroke-dasharray="5,2" d="M164.83,-219.56C168.82,-216.36 173.23,-212.82 177.48,-209.41"/>
<polygon fill="black" stroke="black" points="178.57,-211.22 181.94,-205.82 175.94,-207.94 178.57,-211.22"/>
<polygon fill="#ffffff" fill-opacity="0.800000" stroke="none" points="173.15,-216.48 173.15,-229.73 180.4,-229.73 180.4,-216.48 173.15,-216.48"/>
<text text-anchor="start" x="174.15" y="-220.18" font-family="monospace" font-size="9.00">2</text>
</g>
<!-- 2 -->
<g id="node4" class="node">
<title>2</title>
<ellipse fill="none" stroke="red" stroke-width="2" cx="119.81" cy="-144.83" rx="18" ry="18"/>
<polygon fill="#ffffff" fill-opacity="0.800000" stroke="none" points="114.69,-135.21 114.69,-154.46 124.94,-154.46 124.94,-135.21 114.69,-135.21"/>
<text text-anchor="start" x="115.69" y="-140.16" font-family="monospace" font-size="14.00">2</text>
</g>
<!-- 3&#45;&gt;2 -->
<g id="edge4" class="edge">
<title>3&#45;&gt;2</title>
<path fill="none" stroke="black" stroke-dasharray="5,2" d="M149.76,-212.58C146.48,-198.96 140.09,-180.43 133.88,-166.18"/>
<polygon fill="black" stroke="black" points="135.89,-165.53 131.48,-160.95 132.07,-167.28 135.89,-165.53"/>
<polygon fill="#ffffff" stroke="none" points="134.57,-189.38 134.57,-202.63 141.82,-202.63 141.82,-189.38 134.57,-189.38"/>
<text text-anchor="start" x="135.57" y="-193.08" font-family="monospace" font-size="9.00">3</text>
</g>
<!-- 4 -->
<g id="node5" class="node">
<title>4</title>
<ellipse fill="none" stroke="red" stroke-width="2" cx="173.19" cy="-302.52" rx="18" ry="18"/>
<polygon fill="#ffffff" fill-opacity="0.800000" stroke="none" points="168.06,-292.9 168.06,-312.15 178.31,-312.15 178.31,-292.9 168.06,-292.9"/>
<text text-anchor="start" x="169.06" y="-297.85" font-family="monospace" font-size="14.00">4</text>
</g>
<!-- 3&#45;&gt;4 -->
<g id="edge3" class="edge">
<title>3&#45;&gt;4</title>
<path fill="none" stroke="black" stroke-dasharray="5,2" d="M156.02,-248.34C158.84,-257.23 162.32,-268.21 165.41,-277.97"/>
<polygon fill="black" stroke="black" points="163.4,-278.6 167.22,-283.68 167.41,-277.33 163.4,-278.6"/>
<polygon fill="#ffffff" fill-opacity="0.800000" stroke="none" points="151.46,-265.15 151.46,-278.4 158.71,-278.4 158.71,-265.15 151.46,-265.15"/>
<text text-anchor="start" x="152.46" y="-268.85" font-family="monospace" font-size="9.00">3</text>
</g>
<!-- 0&#45;&gt;1 -->
<g id="edge5" class="edge">
<title>0&#45;&gt;1</title>
<path fill="none" stroke="red" stroke-width="2" d="M246.52,-221.94C238.31,-217.19 228.13,-211.3 219.16,-206.11"/>
<polygon fill="red" stroke="red" stroke-width="2" points="221.76,-205.19 215.51,-204 219.65,-208.82 221.76,-205.19"/>
<polygon fill="#ffffff" fill-opacity="0.800000" stroke="none" points="225.59,-214.02 225.59,-227.27 232.84,-227.27 232.84,-214.02 225.59,-214.02"/>
<text text-anchor="start" x="226.59" y="-217.72" font-family="monospace" font-size="9.00">1</text>
</g>
<!-- 1&#45;&gt;2 -->
<g id="edge6" class="edge">
<title>1&#45;&gt;2</title>
<path fill="none" stroke="red" stroke-width="2" d="M182.01,-183.87C170.41,-176.58 154.31,-166.49 141.41,-158.39"/>
<polygon fill="red" stroke="red" stroke-width="2" points="144.12,-157.61 137.92,-156.2 141.89,-161.17 144.12,-157.61"/>
<polygon fill="#ffffff" fill-opacity="0.800000" stroke="none" points="152.46,-173.13 152.46,-186.38 159.71,-186.38 159.71,-173.13 152.46,-173.13"/>
<text text-anchor="start" x="153.46" y="-176.83" font-family="monospace" font-size="9.00">1</text>
</g>
<!-- 1&#45;&gt;4 -->
<g id="edge7" class="edge">
<title>1&#45;&gt;4</title>
<path fill="none" stroke="red" stroke-width="2" d="M193.34,-211.48C189.37,-229.4 183.25,-257.05 178.79,-277.18"/>
<polygon fill="red" stroke="red" stroke-width="2" points="177.08,-275.22 177.83,-281.53 181.18,-276.13 177.08,-275.22"/>
<polygon fill="#ffffff" fill-opacity="0.800000" stroke="none" points="176.82,-246.33 176.82,-259.58 184.07,-259.58 184.07,-246.33 176.82,-246.33"/>
<text text-anchor="start" x="177.82" y="-250.03" font-family="monospace" font-size="9.00">1</text>
</g>
<!-- 2&#45;&gt;3 -->
<g id="edge8" class="edge">
<title>2&#45;&gt;3</title>
<path fill="none" stroke="#bbbbbb" d="M120.59,-163.29C123.87,-176.9 130.26,-195.43 136.47,-209.68"/>
<polygon fill="#bbbbbb" stroke="#bbbbbb" points="134.46,-210.33 138.87,-214.92 138.28,-208.59 134.46,-210.33"/>
<polygon fill="#ffffff" fill-opacity="0.800000" stroke="none" points="119.28,-188.48 119.28,-201.73 126.53,-201.73 126.53,-188.48 119.28,-188.48"/>
<text text-anchor="start" x="120.28" y="-192.18" font-family="monospace" font-size="9.00">1</text>
</g>
<!-- 6 -->
<g id="node7" class="node">
<title>6</title>
<ellipse fill="none" stroke="skyblue" stroke-width="2" cx="100.2" cy="-55.41" rx="18" ry="18"/>
<polygon fill="#ffffff" fill-opacity="0.800000" stroke="none" points="95.08,-45.79 95.08,-65.04 105.33,-65.04 105.33,-45.79 95.08,-45.79"/>
<text text-anchor="start" x="96.08" y="-50.74" font-family="monospace" font-size="14.00">6</text>
</g>
<!-- 2&#45;&gt;6 -->
<g id="edge10" class="edge">
<title>2&#45;&gt;6</title>
<path fill="none" stroke="#bbbbbb" d="M115.94,-127.17C113,-113.78 108.93,-95.22 105.67,-80.33"/>
<polygon fill="#bbbbbb" stroke="#bbbbbb" points="107.8,-80.24 104.46,-74.83 103.7,-81.14 107.8,-80.24"/>
<polygon fill="#ffffff" fill-opacity="0.800000" stroke="none" points="103.55,-103.75 103.55,-117 110.8,-117 110.8,-103.75 103.55,-103.75"/>
<text text-anchor="start" x="104.55" y="-107.45" font-family="monospace" font-size="9.00">1</text>
</g>
<!-- 5 -->
<g id="node8" class="node">
<title>5</title>
<ellipse fill="none" stroke="skyblue" stroke-width="2" cx="36.75" cy="-106.35" rx="18" ry="18"/>
<polygon fill="#ffffff" fill-opacity="0.800000" stroke="none" points="31.62,-96.73 31.62,-115.98 41.87,-115.98 41.87,-96.73 31.62,-96.73"/>
<text text-anchor="start" x="32.62" y="-101.68" font-family="monospace" font-size="14.00">5</text>
</g>
<!-- 2&#45;&gt;5 -->
<g id="edge9" class="edge">
<title>2&#45;&gt;5</title>
<path fill="none" stroke="#bbbbbb" d="M103.4,-137.23C90.97,-131.47 73.72,-123.48 59.89,-117.07"/>
<polygon fill="#bbbbbb" stroke="#bbbbbb" points="61.11,-115.32 54.78,-114.71 59.34,-119.13 61.11,-115.32"/>
<polygon fill="#ffffff" fill-opacity="0.800000" stroke="none" points="72.4,-129.15 72.4,-142.4 79.65,-142.4 79.65,-129.15 72.4,-129.15"/>
<text text-anchor="start" x="73.4" y="-132.85" font-family="monospace" font-size="9.00">1</text>
</g>
<!-- 7 -->
<g id="node6" class="node">
<title>7</title>
<ellipse fill="none" stroke="skyblue" stroke-width="2" cx="18" cy="-18" rx="18" ry="18"/>
<polygon fill="#ffffff" fill-opacity="0.800000" stroke="none" points="12.88,-8.38 12.88,-27.62 23.12,-27.62 23.12,-8.38 12.88,-8.38"/>
<text text-anchor="start" x="13.88" y="-13.32" font-family="monospace" font-size="14.00">7</text>
</g>
<!-- 7&#45;&gt;6 -->
<g id="edge13" class="edge">
<title>7&#45;&gt;6</title>
<path fill="none" stroke="skyblue" stroke-width="2" d="M31.59,-30.18C43.48,-37.22 61,-45.42 75.38,-50.79"/>
<polygon fill="skyblue" stroke="skyblue" stroke-width="2" points="72.93,-52.16 79.29,-52.18 74.33,-48.2 72.93,-52.16"/>
<polygon fill="#ffffff" fill-opacity="0.800000" stroke="none" points="44.23,-42.49 44.23,-55.74 51.48,-55.74 51.48,-42.49 44.23,-42.49"/>
<text text-anchor="start" x="45.23" y="-46.19" font-family="monospace" font-size="9.00">1</text>
</g>
<!-- 7&#45;&gt;5 -->
<g id="edge14" class="edge">
<title>7&#45;&gt;5</title>
<path fill="none" stroke="black" stroke-dasharray="5,2" d="M21.79,-35.88C24.56,-48.93 28.36,-66.8 31.43,-81.28"/>
<polygon fill="black" stroke="black" points="29.35,-81.58 32.65,-87.02 33.45,-80.71 29.35,-81.58"/>
<polygon fill="#ffffff" fill-opacity="0.800000" stroke="none" points="17.36,-60.58 17.36,-73.83 24.61,-73.83 24.61,-60.58 17.36,-60.58"/>
<text text-anchor="start" x="18.36" y="-64.28" font-family="monospace" font-size="9.00">2</text>
</g>
<!-- 6&#45;&gt;7 -->
<g id="edge12" class="edge">
<title>6&#45;&gt;7</title>
<path fill="none" stroke="#bbbbbb" d="M86.62,-43.23C74.72,-36.19 57.2,-27.99 42.83,-22.62"/>
<polygon fill="#bbbbbb" stroke="#bbbbbb" points="43.84,-20.75 37.49,-20.73 42.44,-24.71 43.84,-20.75"/>
<polygon fill="#ffffff" fill-opacity="0.800000" stroke="none" points="55.47,-17.68 55.47,-30.93 62.72,-30.93 62.72,-17.68 55.47,-17.68"/>
<text text-anchor="start" x="56.47" y="-21.38" font-family="monospace" font-size="9.00">1</text>
</g>
<!-- 6&#45;&gt;5 -->
<g id="edge11" class="edge">
<title>6&#45;&gt;5</title>
<path fill="none" stroke="skyblue" stroke-width="2" d="M85.81,-66.97C77.21,-73.88 66.15,-82.75 56.72,-90.32"/>
<polygon fill="skyblue" stroke="skyblue" stroke-width="2" points="56.82,-87.55 53.45,-92.94 59.44,-90.83 56.82,-87.55"/>
<polygon fill="#ffffff" fill-opacity="0.800000" stroke="none" points="64.01,-78.65 64.01,-91.9 71.26,-91.9 71.26,-78.65 64.01,-78.65"/>
<text text-anchor="start" x="65.01" y="-82.35" font-family="monospace" font-size="9.00">1</text>
</g>
</g>
</svg>
