<?xml version="1.0" encoding="UTF-8" standalone="no"?>
<!DOCTYPE svg PUBLIC "-//W3C//DTD SVG 1.1//EN"
 "http://www.w3.org/Graphics/SVG/1.1/DTD/svg11.dtd">
<!-- Generated by graphviz version 12.0.0 (20240704.0754)
 -->
<!-- Pages: 1 -->
<svg width="308pt" height="242pt"
 viewBox="0.00 0.00 308.09 241.90" xmlns="http://www.w3.org/2000/svg" xmlns:xlink="http://www.w3.org/1999/xlink">
<g id="graph0" class="graph" transform="scale(1 1) rotate(0) translate(14.4 227.5)">
<polygon fill="white" stroke="none" points="-14.4,14.4 -14.4,-227.5 293.69,-227.5 293.69,14.4 -14.4,14.4"/>
<!-- 3 -->
<g id="node1" class="node">
<title>3</title>
<ellipse fill="none" stroke="#aaaaaa" cx="87.79" cy="-191.5" rx="21.6" ry="21.6"/>
<text text-anchor="start" x="83.66" y="-186.83" font-family="monospace" font-size="14.00" fill="#aaaaaa">3</text>
</g>
<!-- 0 -->
<g id="node3" class="node">
<title>0</title>
<ellipse fill="none" stroke="red" stroke-width="2" cx="191.5" cy="-191.5" rx="21.6" ry="21.6"/>
<text text-anchor="start" x="187.38" y="-186.83" font-family="monospace" font-size="14.00">0</text>
</g>
<!-- 3&#45;&gt;0 -->
<g id="edge2" class="edge">
<title>3&#45;&gt;0</title>
<path fill="none" stroke="#aaaaaa" d="M109.78,-191.5C125.04,-191.5 145.54,-191.5 162.19,-191.5"/>
<polygon fill="#aaaaaa" stroke="#aaaaaa" points="162.02,-193.6 168.02,-191.5 162.02,-189.4 162.02,-193.6"/>
</g>
<!-- 4 -->
<g id="node2" class="node">
<title>4</title>
<ellipse fill="none" stroke="#aaaaaa" cx="257.69" cy="-21.6" rx="21.6" ry="21.6"/>
<text text-anchor="start" x="253.56" y="-16.92" font-family="monospace" font-size="14.00" fill="#aaaaaa">4</text>
</g>
<!-- 1 -->
<g id="node4" class="node">
<title>1</title>
<ellipse fill="none" stroke="red" stroke-width="2" cx="191.5" cy="-87.79" rx="21.6" ry="21.6"/>
<text text-anchor="start" x="187.38" y="-83.11" font-family="monospace" font-size="14.00">1</text>
</g>
<!-- 0&#45;&gt;1 -->
<g id="edge1" class="edge">
<title>0&#45;&gt;1</title>
<path fill="none" stroke="red" stroke-width="2" d="M191.5,-169.51C191.5,-154.24 191.5,-133.74 191.5,-117.09"/>
<polygon fill="red" stroke="red" stroke-width="2" points="193.6,-118.78 191.5,-112.78 189.4,-118.78 193.6,-118.78"/>
</g>
<!-- 1&#45;&gt;4 -->
<g id="edge5" class="edge">
<title>1&#45;&gt;4</title>
<path fill="none" stroke="#aaaaaa" d="M206.85,-72.43C215.87,-63.41 227.39,-51.89 237.18,-42.1"/>
<polygon fill="#aaaaaa" stroke="#aaaaaa" points="238.59,-43.67 241.35,-37.94 235.62,-40.7 238.59,-43.67"/>
</g>
<!-- 2 -->
<g id="node5" class="node">
<title>2</title>
<ellipse fill="none" stroke="red" stroke-width="2" cx="87.79" cy="-87.79" rx="21.6" ry="21.6"/>
<text text-anchor="start" x="83.66" y="-83.11" font-family="monospace" font-size="14.00">2</text>
</g>
<!-- 1&#45;&gt;2 -->
<g id="edge3" class="edge">
<title>1&#45;&gt;2</title>
<path fill="none" stroke="red" stroke-width="2" d="M169.51,-87.79C154.24,-87.79 133.74,-87.79 117.09,-87.79"/>
<polygon fill="red" stroke="red" stroke-width="2" points="118.78,-85.69 112.78,-87.79 118.78,-89.89 118.78,-85.69"/>
</g>
<!-- 2&#45;&gt;3 -->
<!-- 5 -->
<g id="node6" class="node">
<title>5</title>
<ellipse fill="none" stroke="red" stroke-width="2" cx="21.6" cy="-21.6" rx="21.6" ry="21.6"/>
<text text-anchor="start" x="17.47" y="-16.93" font-family="monospace" font-size="14.00">5</text>
</g>
<!-- 2&#45;&gt;5 -->
<g id="edge6" class="edge">
<title>2&#45;&gt;5</title>
<path fill="none" stroke="red" stroke-width="2" d="M72.43,-72.43C63.41,-63.41 51.89,-51.89 42.1,-42.1"/>
<polygon fill="red" stroke="red" stroke-width="2" points="44.74,-41.77 39.01,-39.01 41.77,-44.74 44.74,-41.77"/>
</g>
</g>
</svg>
