<?xml version="1.0" encoding="UTF-8" standalone="no"?>
<!DOCTYPE svg PUBLIC "-//W3C//DTD SVG 1.1//EN"
 "http://www.w3.org/Graphics/SVG/1.1/DTD/svg11.dtd">
<!-- Generated by graphviz version 12.0.0 (20240704.0754)
 -->
<!-- Pages: 1 -->
<svg width="451pt" height="243pt"
 viewBox="0.00 0.00 451.06 243.43" xmlns="http://www.w3.org/2000/svg" xmlns:xlink="http://www.w3.org/1999/xlink">
<g id="graph0" class="graph" transform="scale(1 1) rotate(0) translate(14.4 229.03)">
<polygon fill="white" stroke="none" points="-14.4,14.4 -14.4,-229.03 436.66,-229.03 436.66,14.4 -14.4,14.4"/>
<!-- 3 -->
<g id="node1" class="node">
<title>3</title>
<ellipse fill="none" stroke="red" stroke-width="2" cx="159.57" cy="-196.63" rx="18" ry="18"/>
<text text-anchor="start" x="155.44" y="-191.96" font-family="monospace" font-size="14.00">3</text>
</g>
<!-- 0 -->
<g id="node2" class="node">
<title>0</title>
<ellipse fill="none" stroke="red" stroke-width="2" cx="262.7" cy="-196.63" rx="18" ry="18"/>
<text text-anchor="start" x="258.57" y="-191.96" font-family="monospace" font-size="14.00">0</text>
</g>
<!-- 3&#45;&gt;0 -->
<g id="edge1" class="edge">
<title>3&#45;&gt;0</title>
<path fill="none" stroke="red" stroke-width="2" d="M178,-196.63C194.43,-196.63 218.63,-196.63 236.96,-196.63"/>
<polygon fill="red" stroke="red" stroke-width="2" points="235.39,-198.73 241.39,-196.63 235.39,-194.53 235.39,-198.73"/>
</g>
<!-- 1 -->
<g id="node3" class="node">
<title>1</title>
<ellipse fill="none" stroke="red" stroke-width="2" cx="314.26" cy="-107.32" rx="18" ry="18"/>
<text text-anchor="start" x="310.14" y="-102.64" font-family="monospace" font-size="14.00">1</text>
</g>
<!-- 0&#45;&gt;1 -->
<g id="edge2" class="edge">
<title>0&#45;&gt;1</title>
<path fill="none" stroke="red" stroke-width="2" d="M271.92,-180.66C280.13,-166.44 292.23,-145.48 301.4,-129.6"/>
<polygon fill="red" stroke="red" stroke-width="2" points="302.43,-132.01 303.61,-125.77 298.79,-129.91 302.43,-132.01"/>
</g>
<!-- 2 -->
<g id="node4" class="node">
<title>2</title>
<ellipse fill="none" stroke="red" stroke-width="2" cx="262.7" cy="-18" rx="18" ry="18"/>
<text text-anchor="start" x="258.57" y="-13.33" font-family="monospace" font-size="14.00">2</text>
</g>
<!-- 1&#45;&gt;2 -->
<g id="edge3" class="edge">
<title>1&#45;&gt;2</title>
<path fill="none" stroke="red" stroke-width="2" d="M305.05,-91.35C296.83,-77.12 284.73,-56.16 275.57,-40.29"/>
<polygon fill="red" stroke="red" stroke-width="2" points="278.17,-40.6 273.35,-36.45 274.53,-42.7 278.17,-40.6"/>
</g>
<!-- 5 -->
<g id="node7" class="node">
<title>5</title>
<ellipse fill="none" stroke="blue" stroke-width="2" cx="159.57" cy="-18" rx="18" ry="18"/>
<text text-anchor="start" x="155.44" y="-13.32" font-family="monospace" font-size="14.00">5</text>
</g>
<!-- 1&#45;&gt;5 -->
<!-- 4 -->
<g id="node8" class="node">
<title>4</title>
<ellipse fill="none" stroke="#bbbbbb" cx="404.26" cy="-107.32" rx="18" ry="18"/>
<text text-anchor="start" x="400.14" y="-102.64" font-family="monospace" font-size="14.00" fill="#bbbbbb">4</text>
</g>
<!-- 1&#45;&gt;4 -->
<g id="edge4" class="edge">
<title>1&#45;&gt;4</title>
<path fill="none" stroke="#bbbbbb" d="M332.48,-107.32C345.69,-107.32 363.74,-107.32 378.43,-107.32"/>
<polygon fill="#bbbbbb" stroke="#bbbbbb" points="378.26,-109.42 384.26,-107.32 378.26,-105.22 378.26,-109.42"/>
</g>
<!-- 2&#45;&gt;3 -->
<g id="edge5" class="edge">
<title>2&#45;&gt;3</title>
<path fill="none" stroke="#bbbbbb" d="M253.55,-33.85C235.12,-65.76 193.52,-137.82 172.39,-174.41"/>
<polygon fill="#bbbbbb" stroke="#bbbbbb" points="170.64,-173.26 169.45,-179.5 174.27,-175.36 170.64,-173.26"/>
</g>
<!-- 6 -->
<g id="node6" class="node">
<title>6</title>
<ellipse fill="none" stroke="blue" stroke-width="2" cx="108" cy="-107.32" rx="18" ry="18"/>
<text text-anchor="start" x="103.88" y="-102.64" font-family="monospace" font-size="14.00">6</text>
</g>
<!-- 2&#45;&gt;6 -->
<g id="edge7" class="edge">
<title>2&#45;&gt;6</title>
<path fill="none" stroke="#bbbbbb" d="M246.73,-27.22C218.91,-43.28 161.52,-76.41 129.98,-94.63"/>
<polygon fill="#bbbbbb" stroke="#bbbbbb" points="129.11,-92.7 124.97,-97.52 131.21,-96.34 129.11,-92.7"/>
</g>
<!-- 2&#45;&gt;5 -->
<g id="edge6" class="edge">
<title>2&#45;&gt;5</title>
<path fill="none" stroke="#bbbbbb" d="M244.26,-18C227.84,-18 203.63,-18 185.3,-18"/>
<polygon fill="#bbbbbb" stroke="#bbbbbb" points="185.36,-15.9 179.36,-18 185.36,-20.1 185.36,-15.9"/>
</g>
<!-- 7 -->
<g id="node5" class="node">
<title>7</title>
<ellipse fill="none" stroke="blue" stroke-width="2" cx="18" cy="-107.32" rx="18" ry="18"/>
<text text-anchor="start" x="13.88" y="-102.64" font-family="monospace" font-size="14.00">7</text>
</g>
<!-- 7&#45;&gt;6 -->
<g id="edge10" class="edge">
<title>7&#45;&gt;6</title>
<path fill="none" stroke="blue" stroke-width="2" d="M35.35,-112.77C48.96,-114.25 68.08,-114.46 83.28,-113.41"/>
<polygon fill="blue" stroke="blue" stroke-width="2" points="81.58,-115.67 87.38,-113.06 81.22,-111.49 81.58,-115.67"/>
</g>
<!-- 6&#45;&gt;7 -->
<g id="edge9" class="edge">
<title>6&#45;&gt;7</title>
<path fill="none" stroke="#bbbbbb" d="M90.65,-101.86C77.04,-100.38 57.92,-100.17 42.72,-101.22"/>
<polygon fill="#bbbbbb" stroke="#bbbbbb" points="42.91,-99.09 37.11,-101.7 43.27,-103.28 42.91,-99.09"/>
</g>
<!-- 6&#45;&gt;5 -->
<g id="edge8" class="edge">
<title>6&#45;&gt;5</title>
<path fill="none" stroke="blue" stroke-width="2" d="M117.22,-91.35C125.43,-77.12 137.53,-56.16 146.7,-40.29"/>
<polygon fill="blue" stroke="blue" stroke-width="2" points="147.73,-42.7 148.91,-36.45 144.09,-40.6 147.73,-42.7"/>
</g>
</g>
</svg>
