<?xml version="1.0" encoding="UTF-8" standalone="no"?>
<!DOCTYPE svg PUBLIC "-//W3C//DTD SVG 1.1//EN"
 "http://www.w3.org/Graphics/SVG/1.1/DTD/svg11.dtd">
<!-- Generated by graphviz version 12.0.0 (20240704.0754)
 -->
<!-- Pages: 1 -->
<svg width="317pt" height="396pt"
 viewBox="0.00 0.00 316.51 395.52" xmlns="http://www.w3.org/2000/svg" xmlns:xlink="http://www.w3.org/1999/xlink">
<g id="graph0" class="graph" transform="scale(1 1) rotate(0) translate(14.4 381.12)">
<polygon fill="white" stroke="none" points="-14.4,14.4 -14.4,-381.12 302.11,-381.12 302.11,14.4 -14.4,14.4"/>
<!-- 0 -->
<g id="node1" class="node">
<title>0</title>
<ellipse fill="none" stroke="lightsalmon" stroke-width="2" cx="125.86" cy="-99.59" rx="27" ry="27"/>
<text text-anchor="start" x="121.74" y="-101.54" font-family="monospace" font-size="14.00">0</text>
<text text-anchor="start" x="110.11" y="-87.04" font-family="monospace" font-size="9.00">c(0)=0</text>
</g>
<!-- 1 -->
<g id="node2" class="node">
<title>1</title>
<ellipse fill="none" stroke="lightsalmon" stroke-width="2" cx="222.39" cy="-99.59" rx="27" ry="27"/>
<text text-anchor="start" x="218.26" y="-101.54" font-family="monospace" font-size="14.00">1</text>
<text text-anchor="start" x="206.64" y="-87.04" font-family="monospace" font-size="9.00">c(1)=0</text>
</g>
<!-- 0&#45;&gt;1 -->
<g id="edge1" class="edge">
<title>0&#45;&gt;1</title>
<path fill="none" stroke="lightsalmon" stroke-width="2" d="M153.27,-99.59C163.96,-99.59 176.36,-99.59 187.67,-99.59"/>
<polygon fill="lightsalmon" stroke="lightsalmon" stroke-width="2" points="185.89,-101.69 191.89,-99.59 185.89,-97.49 185.89,-101.69"/>
</g>
<!-- 5 -->
<g id="node6" class="node">
<title>5</title>
<ellipse fill="none" stroke="#cd96cd" stroke-width="2" cx="114.95" cy="-196.33" rx="27" ry="27"/>
<text text-anchor="start" x="110.83" y="-198.28" font-family="monospace" font-size="14.00">5</text>
<text text-anchor="start" x="99.2" y="-183.78" font-family="monospace" font-size="9.00">c(5)=1</text>
</g>
<!-- 0&#45;&gt;5 -->
<!-- 2 -->
<g id="node3" class="node">
<title>2</title>
<ellipse fill="none" stroke="lightsalmon" stroke-width="2" cx="174.11" cy="-27" rx="27" ry="27"/>
<text text-anchor="start" x="169.98" y="-28.95" font-family="monospace" font-size="14.00">2</text>
<text text-anchor="start" x="158.36" y="-14.45" font-family="monospace" font-size="9.00">c(2)=0</text>
</g>
<!-- 1&#45;&gt;2 -->
<g id="edge3" class="edge">
<title>1&#45;&gt;2</title>
<path fill="none" stroke="lightsalmon" stroke-width="2" d="M207.38,-77.02C202.88,-70.26 197.88,-62.75 193.16,-55.65"/>
<polygon fill="lightsalmon" stroke="lightsalmon" stroke-width="2" points="196.02,-56.16 190.95,-52.33 192.53,-58.48 196.02,-56.16"/>
</g>
<!-- 3 -->
<g id="node4" class="node">
<title>3</title>
<ellipse fill="none" stroke="#7ccd7c" stroke-width="2" cx="218.16" cy="-194.11" rx="27" ry="27"/>
<text text-anchor="start" x="214.04" y="-196.06" font-family="monospace" font-size="14.00">3</text>
<text text-anchor="start" x="202.41" y="-181.56" font-family="monospace" font-size="9.00">c(3)=2</text>
</g>
<!-- 1&#45;&gt;3 -->
<!-- 2&#45;&gt;0 -->
<g id="edge5" class="edge">
<title>2&#45;&gt;0</title>
<path fill="none" stroke="lightsalmon" stroke-width="2" d="M159.11,-49.57C154.61,-56.33 149.62,-63.84 144.9,-70.94"/>
<polygon fill="lightsalmon" stroke="lightsalmon" stroke-width="2" points="144.27,-68.1 142.7,-74.26 147.77,-70.43 144.27,-68.1"/>
</g>
<!-- 4 -->
<g id="node5" class="node">
<title>4</title>
<ellipse fill="none" stroke="#7ccd7c" stroke-width="2" cx="174.08" cy="-257.33" rx="27" ry="27"/>
<text text-anchor="start" x="169.96" y="-259.28" font-family="monospace" font-size="14.00">4</text>
<text text-anchor="start" x="158.33" y="-244.78" font-family="monospace" font-size="9.00">c(4)=2</text>
</g>
<!-- 3&#45;&gt;4 -->
<g id="edge6" class="edge">
<title>3&#45;&gt;4</title>
<path fill="none" stroke="#7ccd7c" stroke-width="2" d="M202.5,-216.58C199.71,-220.58 196.76,-224.8 193.87,-228.95"/>
<polygon fill="#7ccd7c" stroke="#7ccd7c" stroke-width="2" points="193.14,-226.33 191.43,-232.45 196.58,-228.73 193.14,-226.33"/>
</g>
<!-- 3&#45;&gt;5 -->
<!-- 4&#45;&gt;5 -->
<!-- 6 -->
<g id="node7" class="node">
<title>6</title>
<ellipse fill="none" stroke="#7ccd7c" stroke-width="2" cx="171.83" cy="-339.72" rx="27" ry="27"/>
<text text-anchor="start" x="167.71" y="-341.67" font-family="monospace" font-size="14.00">6</text>
<text text-anchor="start" x="156.08" y="-327.17" font-family="monospace" font-size="9.00">c(6)=2</text>
</g>
<!-- 4&#45;&gt;6 -->
<g id="edge9" class="edge">
<title>4&#45;&gt;6</title>
<path fill="none" stroke="#7ccd7c" stroke-width="2" d="M173.33,-284.77C173.15,-291.3 172.96,-298.35 172.78,-305.15"/>
<polygon fill="#7ccd7c" stroke="#7ccd7c" stroke-width="2" points="170.73,-303.32 172.66,-309.38 174.92,-303.44 170.73,-303.32"/>
</g>
<!-- 8 -->
<g id="node9" class="node">
<title>8</title>
<ellipse fill="none" stroke="#cd96cd" stroke-width="2" cx="27" cy="-227.26" rx="27" ry="27"/>
<text text-anchor="start" x="22.88" y="-229.21" font-family="monospace" font-size="14.00">8</text>
<text text-anchor="start" x="11.25" y="-214.71" font-family="monospace" font-size="9.00">c(8)=1</text>
</g>
<!-- 5&#45;&gt;8 -->
<g id="edge10" class="edge">
<title>5&#45;&gt;8</title>
<path fill="none" stroke="#cd96cd" stroke-width="2" d="M89.04,-205.44C79.83,-208.69 69.33,-212.38 59.63,-215.79"/>
<polygon fill="#cd96cd" stroke="#cd96cd" stroke-width="2" points="60.55,-213.24 55.58,-217.21 61.94,-217.2 60.55,-213.24"/>
</g>
<!-- 7 -->
<g id="node8" class="node">
<title>7</title>
<ellipse fill="none" stroke="#7ccd7c" stroke-width="2" cx="260.71" cy="-285.7" rx="27" ry="27"/>
<text text-anchor="start" x="256.58" y="-287.65" font-family="monospace" font-size="14.00">7</text>
<text text-anchor="start" x="244.96" y="-273.15" font-family="monospace" font-size="9.00">c(7)=2</text>
</g>
<!-- 6&#45;&gt;7 -->
<g id="edge11" class="edge">
<title>6&#45;&gt;7</title>
<path fill="none" stroke="#7ccd7c" stroke-width="2" d="M195.18,-325.53C206.2,-318.83 219.48,-310.76 231.19,-303.64"/>
<polygon fill="#7ccd7c" stroke="#7ccd7c" stroke-width="2" points="230.89,-306.28 234.92,-301.37 228.71,-302.69 230.89,-306.28"/>
</g>
<!-- 9 -->
<g id="node10" class="node">
<title>9</title>
<ellipse fill="none" stroke="#cd96cd" stroke-width="2" cx="83.69" cy="-289.64" rx="27" ry="27"/>
<text text-anchor="start" x="79.57" y="-291.59" font-family="monospace" font-size="14.00">9</text>
<text text-anchor="start" x="67.94" y="-277.09" font-family="monospace" font-size="9.00">c(9)=1</text>
</g>
<!-- 6&#45;&gt;9 -->
<!-- 7&#45;&gt;3 -->
<g id="edge13" class="edge">
<title>7&#45;&gt;3</title>
<path fill="none" stroke="#7ccd7c" stroke-width="2" d="M249.31,-261.16C244.24,-250.26 238.23,-237.3 232.83,-225.69"/>
<polygon fill="#7ccd7c" stroke="#7ccd7c" stroke-width="2" points="235.45,-226.34 231.02,-221.79 231.64,-228.11 235.45,-226.34"/>
</g>
<!-- 8&#45;&gt;9 -->
<g id="edge14" class="edge">
<title>8&#45;&gt;9</title>
<path fill="none" stroke="#cd96cd" stroke-width="2" d="M45.25,-247.34C50.11,-252.69 55.42,-258.53 60.5,-264.12"/>
<polygon fill="#cd96cd" stroke="#cd96cd" stroke-width="2" points="57.85,-264.33 63.44,-267.36 60.96,-261.51 57.85,-264.33"/>
</g>
<!-- 9&#45;&gt;5 -->
<g id="edge15" class="edge">
<title>9&#45;&gt;5</title>
<path fill="none" stroke="#cd96cd" stroke-width="2" d="M92.4,-263.65C95.99,-252.93 100.19,-240.39 103.99,-229.06"/>
<polygon fill="#cd96cd" stroke="#cd96cd" stroke-width="2" points="105.42,-231.41 105.33,-225.05 101.43,-230.08 105.42,-231.41"/>
</g>
</g>
</svg>
