<?xml version="1.0" encoding="UTF-8" standalone="no"?>
<!DOCTYPE svg PUBLIC "-//W3C//DTD SVG 1.1//EN"
 "http://www.w3.org/Graphics/SVG/1.1/DTD/svg11.dtd">
<!-- Generated by graphviz version 12.0.0 (20240704.0754)
 -->
<!-- Pages: 1 -->
<svg width="302pt" height="386pt"
 viewBox="0.00 0.00 302.10 385.72" xmlns="http://www.w3.org/2000/svg" xmlns:xlink="http://www.w3.org/1999/xlink">
<g id="graph0" class="graph" transform="scale(1 1) rotate(0) translate(14.4 371.32)">
<polygon fill="white" stroke="none" points="-14.4,14.4 -14.4,-371.32 287.7,-371.32 287.7,14.4 -14.4,14.4"/>
<!-- 0 -->
<g id="node1" class="node">
<title>0</title>
<ellipse fill="none" stroke="lightsalmon" stroke-width="2" cx="153.24" cy="-85.7" rx="27" ry="27"/>
<text text-anchor="start" x="149.12" y="-87.65" font-family="monospace" font-size="14.00">0</text>
<text text-anchor="start" x="137.49" y="-73.15" font-family="monospace" font-size="9.00">c(0)=0</text>
</g>
<!-- 1 -->
<g id="node2" class="node">
<title>1</title>
<ellipse fill="none" stroke="lightsalmon" stroke-width="2" cx="246.3" cy="-109.01" rx="27" ry="27"/>
<text text-anchor="start" x="242.17" y="-110.96" font-family="monospace" font-size="14.00">1</text>
<text text-anchor="start" x="230.55" y="-96.46" font-family="monospace" font-size="9.00">c(1)=0</text>
</g>
<!-- 0&#45;&gt;1 -->
<g id="edge1" class="edge">
<title>0&#45;&gt;1</title>
<path fill="none" stroke="lightsalmon" stroke-width="2" d="M179.66,-92.32C189.97,-94.9 201.92,-97.89 212.83,-100.63"/>
<polygon fill="lightsalmon" stroke="lightsalmon" stroke-width="2" points="210.55,-102.22 216.88,-101.64 211.57,-98.15 210.55,-102.22"/>
</g>
<!-- 5 -->
<g id="node6" class="node">
<title>5</title>
<ellipse fill="none" stroke="#cd96cd" stroke-width="2" cx="119.56" cy="-177.02" rx="27" ry="27"/>
<text text-anchor="start" x="115.43" y="-178.97" font-family="monospace" font-size="14.00">5</text>
<text text-anchor="start" x="103.81" y="-164.47" font-family="monospace" font-size="9.00">c(5)=1</text>
</g>
<!-- 0&#45;&gt;5 -->
<!-- 2 -->
<g id="node3" class="node">
<title>2</title>
<ellipse fill="none" stroke="lightsalmon" stroke-width="2" cx="217.75" cy="-27" rx="27" ry="27"/>
<text text-anchor="start" x="213.62" y="-28.95" font-family="monospace" font-size="14.00">2</text>
<text text-anchor="start" x="202" y="-14.45" font-family="monospace" font-size="9.00">c(2)=0</text>
</g>
<!-- 1&#45;&gt;2 -->
<g id="edge2" class="edge">
<title>1&#45;&gt;2</title>
<path fill="none" stroke="lightsalmon" stroke-width="2" d="M237.26,-83.06C234.69,-75.66 231.85,-67.5 229.15,-59.75"/>
<polygon fill="lightsalmon" stroke="lightsalmon" stroke-width="2" points="231.67,-60.62 227.72,-55.64 227.71,-62 231.67,-60.62"/>
</g>
<!-- 3 -->
<g id="node4" class="node">
<title>3</title>
<ellipse fill="none" stroke="#7ccd7c" stroke-width="2" cx="219.72" cy="-199.47" rx="27" ry="27"/>
<text text-anchor="start" x="215.6" y="-201.42" font-family="monospace" font-size="14.00">3</text>
<text text-anchor="start" x="203.97" y="-186.92" font-family="monospace" font-size="9.00">c(3)=2</text>
</g>
<!-- 1&#45;&gt;3 -->
<!-- 2&#45;&gt;0 -->
<g id="edge4" class="edge">
<title>2&#45;&gt;0</title>
<path fill="none" stroke="lightsalmon" stroke-width="2" d="M197.69,-45.25C191.68,-50.72 185.01,-56.79 178.7,-62.53"/>
<polygon fill="lightsalmon" stroke="lightsalmon" stroke-width="2" points="178.77,-59.63 175.75,-65.22 181.6,-62.73 178.77,-59.63"/>
</g>
<!-- 4 -->
<g id="node5" class="node">
<title>4</title>
<ellipse fill="none" stroke="#7ccd7c" stroke-width="2" cx="161.29" cy="-250.17" rx="27" ry="27"/>
<text text-anchor="start" x="157.16" y="-252.12" font-family="monospace" font-size="14.00">4</text>
<text text-anchor="start" x="145.54" y="-237.62" font-family="monospace" font-size="9.00">c(4)=2</text>
</g>
<!-- 3&#45;&gt;4 -->
<g id="edge5" class="edge">
<title>3&#45;&gt;4</title>
<path fill="none" stroke="#7ccd7c" stroke-width="2" d="M198.96,-217.49C195.26,-220.7 191.35,-224.09 187.52,-227.41"/>
<polygon fill="#7ccd7c" stroke="#7ccd7c" stroke-width="2" points="187.43,-224.71 184.28,-230.23 190.18,-227.88 187.43,-224.71"/>
</g>
<!-- 3&#45;&gt;5 -->
<!-- 4&#45;&gt;5 -->
<!-- 6 -->
<g id="node7" class="node">
<title>6</title>
<ellipse fill="none" stroke="#7ccd7c" stroke-width="2" cx="140.99" cy="-329.92" rx="27" ry="27"/>
<text text-anchor="start" x="136.86" y="-331.87" font-family="monospace" font-size="14.00">6</text>
<text text-anchor="start" x="125.24" y="-317.37" font-family="monospace" font-size="9.00">c(6)=2</text>
</g>
<!-- 4&#45;&gt;6 -->
<g id="edge8" class="edge">
<title>4&#45;&gt;6</title>
<path fill="none" stroke="#7ccd7c" stroke-width="2" d="M154.53,-276.72C152.92,-283.05 151.18,-289.87 149.51,-296.46"/>
<polygon fill="#7ccd7c" stroke="#7ccd7c" stroke-width="2" points="147.91,-294.22 148.47,-300.55 151.98,-295.25 147.91,-294.22"/>
</g>
<!-- 8 -->
<g id="node9" class="node">
<title>8</title>
<ellipse fill="none" stroke="#cd96cd" stroke-width="2" cx="27" cy="-185.58" rx="27" ry="27"/>
<text text-anchor="start" x="22.88" y="-187.53" font-family="monospace" font-size="14.00">8</text>
<text text-anchor="start" x="11.25" y="-173.03" font-family="monospace" font-size="9.00">c(8)=1</text>
</g>
<!-- 5&#45;&gt;8 -->
<g id="edge11" class="edge">
<title>5&#45;&gt;8</title>
<path fill="none" stroke="#cd96cd" stroke-width="2" d="M92.29,-179.54C82.59,-180.43 71.54,-181.46 61.33,-182.4"/>
<polygon fill="#cd96cd" stroke="#cd96cd" stroke-width="2" points="62.87,-180.15 57.09,-182.79 63.26,-184.33 62.87,-180.15"/>
</g>
<!-- 7 -->
<g id="node8" class="node">
<title>7</title>
<ellipse fill="none" stroke="#7ccd7c" stroke-width="2" cx="239.73" cy="-298.38" rx="27" ry="27"/>
<text text-anchor="start" x="235.6" y="-300.33" font-family="monospace" font-size="14.00">7</text>
<text text-anchor="start" x="223.98" y="-285.83" font-family="monospace" font-size="9.00">c(7)=2</text>
</g>
<!-- 6&#45;&gt;7 -->
<g id="edge9" class="edge">
<title>6&#45;&gt;7</title>
<path fill="none" stroke="#7ccd7c" stroke-width="2" d="M166.93,-321.64C179.08,-317.75 193.69,-313.09 206.63,-308.95"/>
<polygon fill="#7ccd7c" stroke="#7ccd7c" stroke-width="2" points="205.66,-311.47 210.73,-307.64 204.38,-307.47 205.66,-311.47"/>
</g>
<!-- 9 -->
<g id="node10" class="node">
<title>9</title>
<ellipse fill="none" stroke="#cd96cd" stroke-width="2" cx="67.5" cy="-260.15" rx="27" ry="27"/>
<text text-anchor="start" x="63.38" y="-262.1" font-family="monospace" font-size="14.00">9</text>
<text text-anchor="start" x="51.75" y="-247.6" font-family="monospace" font-size="9.00">c(9)=1</text>
</g>
<!-- 6&#45;&gt;9 -->
<!-- 7&#45;&gt;3 -->
<g id="edge10" class="edge">
<title>7&#45;&gt;3</title>
<path fill="none" stroke="#7ccd7c" stroke-width="2" d="M234.31,-271.62C231.93,-259.85 229.11,-245.9 226.59,-233.41"/>
<polygon fill="#7ccd7c" stroke="#7ccd7c" stroke-width="2" points="228.99,-234.69 225.74,-229.23 224.87,-235.52 228.99,-234.69"/>
</g>
<!-- 8&#45;&gt;9 -->
<g id="edge12" class="edge">
<title>8&#45;&gt;9</title>
<path fill="none" stroke="#cd96cd" stroke-width="2" d="M40.04,-209.58C43.51,-215.97 47.3,-222.95 50.93,-229.64"/>
<polygon fill="#cd96cd" stroke="#cd96cd" stroke-width="2" points="48.33,-229.26 53.04,-233.53 52.02,-227.25 48.33,-229.26"/>
</g>
<!-- 9&#45;&gt;5 -->
<g id="edge13" class="edge">
<title>9&#45;&gt;5</title>
<path fill="none" stroke="#cd96cd" stroke-width="2" d="M82,-236.99C87.98,-227.44 94.98,-216.27 101.3,-206.17"/>
<polygon fill="#cd96cd" stroke="#cd96cd" stroke-width="2" points="102.12,-208.81 103.53,-202.61 98.56,-206.58 102.12,-208.81"/>
</g>
</g>
</svg>
