<?xml version="1.0" encoding="UTF-8" standalone="no"?>
<!DOCTYPE svg PUBLIC "-//W3C//DTD SVG 1.1//EN"
 "http://www.w3.org/Graphics/SVG/1.1/DTD/svg11.dtd">
<!-- Generated by graphviz version 12.0.0 (20240704.0754)
 -->
<!-- Pages: 1 -->
<svg width="240pt" height="236pt"
 viewBox="0.00 0.00 240.49 236.09" xmlns="http://www.w3.org/2000/svg" xmlns:xlink="http://www.w3.org/1999/xlink">
<g id="graph0" class="graph" transform="scale(1 1) rotate(0) translate(14.4 221.69)">
<polygon fill="white" stroke="none" points="-14.4,14.4 -14.4,-221.69 226.09,-221.69 226.09,14.4 -14.4,14.4"/>
<!-- 4 -->
<g id="node1" class="node">
<title>4</title>
<ellipse fill="salmon" stroke="salmon" cx="92.03" cy="-125.67" rx="18" ry="18"/>
<text text-anchor="middle" x="92.03" y="-120.99" font-family="monospace" font-size="14.00" fill="white">4</text>
</g>
<!-- 5 -->
<g id="node2" class="node">
<title>5</title>
<ellipse fill="salmon" stroke="salmon" cx="119.67" cy="-81.62" rx="18" ry="18"/>
<text text-anchor="middle" x="119.67" y="-76.95" font-family="monospace" font-size="14.00" fill="white">5</text>
</g>
<!-- 0 -->
<g id="node3" class="node">
<title>0</title>
<ellipse fill="skyblue" stroke="skyblue" cx="18" cy="-118.69" rx="18" ry="18"/>
<text text-anchor="middle" x="18" y="-114.02" font-family="monospace" font-size="14.00" fill="white">0</text>
</g>
<!-- 0&#45;&gt;4 -->
<g id="edge1" class="edge">
<title>0&#45;&gt;4</title>
<path fill="none" stroke="black" d="M43.58,-121.1C51.01,-121.8 59.12,-122.57 66.54,-123.27"/>
<polygon fill="black" stroke="black" points="43.98,-119.03 37.81,-120.56 43.58,-123.21 43.98,-119.03"/>
<polygon fill="black" stroke="black" points="66,-125.33 72.17,-123.8 66.4,-121.14 66,-125.33"/>
</g>
<!-- 0&#45;&gt;5 -->
<g id="edge2" class="edge">
<title>0&#45;&gt;5</title>
<path fill="none" stroke="black" d="M42.24,-109.86C58.29,-104 79.26,-96.36 95.33,-90.5"/>
<polygon fill="black" stroke="black" points="41.59,-107.86 36.67,-111.89 43.02,-111.8 41.59,-107.86"/>
<polygon fill="black" stroke="black" points="96,-92.49 100.91,-88.46 94.56,-88.54 96,-92.49"/>
</g>
<!-- 1 -->
<g id="node4" class="node">
<title>1</title>
<ellipse fill="skyblue" stroke="skyblue" cx="130.48" cy="-189.29" rx="18" ry="18"/>
<text text-anchor="middle" x="130.48" y="-184.61" font-family="monospace" font-size="14.00" fill="white">1</text>
</g>
<!-- 1&#45;&gt;4 -->
<g id="edge3" class="edge">
<title>1&#45;&gt;4</title>
<path fill="none" stroke="black" d="M117.16,-167.25C113.27,-160.82 109.02,-153.79 105.15,-147.38"/>
<polygon fill="black" stroke="black" points="115.29,-168.22 120.19,-172.27 118.88,-166.05 115.29,-168.22"/>
<polygon fill="black" stroke="black" points="107.1,-146.56 102.2,-142.51 103.51,-148.73 107.1,-146.56"/>
</g>
<!-- 1&#45;&gt;5 -->
<g id="edge4" class="edge">
<title>1&#45;&gt;5</title>
<path fill="none" stroke="black" d="M127.9,-163.62C126.19,-146.63 123.96,-124.41 122.25,-107.39"/>
<polygon fill="black" stroke="black" points="125.8,-163.76 128.49,-169.52 129.98,-163.34 125.8,-163.76"/>
<polygon fill="black" stroke="black" points="124.35,-107.24 121.66,-101.48 120.17,-107.66 124.35,-107.24"/>
</g>
<!-- 2 -->
<g id="node5" class="node">
<title>2</title>
<ellipse fill="skyblue" stroke="skyblue" cx="193.69" cy="-88.6" rx="18" ry="18"/>
<text text-anchor="middle" x="193.69" y="-83.92" font-family="monospace" font-size="14.00" fill="white">2</text>
</g>
<!-- 2&#45;&gt;4 -->
<g id="edge5" class="edge">
<title>2&#45;&gt;4</title>
<path fill="none" stroke="black" d="M169.45,-97.43C153.4,-103.29 132.43,-110.93 116.36,-116.79"/>
<polygon fill="black" stroke="black" points="170.1,-99.43 175.02,-95.4 168.66,-95.49 170.1,-99.43"/>
<polygon fill="black" stroke="black" points="115.7,-114.8 110.78,-118.83 117.13,-118.75 115.7,-114.8"/>
</g>
<!-- 2&#45;&gt;5 -->
<g id="edge6" class="edge">
<title>2&#45;&gt;5</title>
<path fill="none" stroke="black" d="M168.11,-86.19C160.68,-85.49 152.57,-84.72 145.15,-84.02"/>
<polygon fill="black" stroke="black" points="167.71,-88.26 173.88,-86.73 168.11,-84.08 167.71,-88.26"/>
<polygon fill="black" stroke="black" points="145.69,-81.97 139.52,-83.49 145.29,-86.15 145.69,-81.97"/>
</g>
<!-- 3 -->
<g id="node6" class="node">
<title>3</title>
<ellipse fill="skyblue" stroke="skyblue" cx="81.22" cy="-18" rx="18" ry="18"/>
<text text-anchor="middle" x="81.22" y="-13.32" font-family="monospace" font-size="14.00" fill="white">3</text>
</g>
<!-- 3&#45;&gt;4 -->
<g id="edge7" class="edge">
<title>3&#45;&gt;4</title>
<path fill="none" stroke="black" d="M83.79,-43.67C85.5,-60.66 87.73,-82.88 89.44,-99.9"/>
<polygon fill="black" stroke="black" points="85.89,-43.53 83.2,-37.77 81.71,-43.95 85.89,-43.53"/>
<polygon fill="black" stroke="black" points="87.34,-100.05 90.03,-105.81 91.52,-99.63 87.34,-100.05"/>
</g>
<!-- 3&#45;&gt;5 -->
<g id="edge8" class="edge">
<title>3&#45;&gt;5</title>
<path fill="none" stroke="black" d="M94.53,-40.04C98.42,-46.47 102.67,-53.5 106.55,-59.91"/>
<polygon fill="black" stroke="black" points="96.41,-39.07 91.5,-35.02 92.81,-41.24 96.41,-39.07"/>
<polygon fill="black" stroke="black" points="104.59,-60.73 109.49,-64.78 108.18,-58.56 104.59,-60.73"/>
</g>
</g>
</svg>
