<?xml version="1.0" encoding="UTF-8" standalone="no"?>
<!DOCTYPE svg PUBLIC "-//W3C//DTD SVG 1.1//EN"
 "http://www.w3.org/Graphics/SVG/1.1/DTD/svg11.dtd">
<!-- Generated by graphviz version 12.0.0 (20240704.0754)
 -->
<!-- Pages: 1 -->
<svg width="220pt" height="228pt"
 viewBox="0.00 0.00 220.27 228.27" xmlns="http://www.w3.org/2000/svg" xmlns:xlink="http://www.w3.org/1999/xlink">
<g id="graph0" class="graph" transform="scale(1 1) rotate(0) translate(14.4 213.87)">
<polygon fill="white" stroke="none" points="-14.4,14.4 -14.4,-213.87 205.87,-213.87 205.87,14.4 -14.4,14.4"/>
<!-- 0 -->
<g id="node1" class="node">
<title>0</title>
<ellipse fill="none" stroke="black" cx="114.09" cy="-18" rx="18" ry="18"/>
<text text-anchor="middle" x="114.09" y="-13.32" font-family="monospace" font-size="14.00">0</text>
</g>
<!-- 2 -->
<g id="node3" class="node">
<title>2</title>
<ellipse fill="none" stroke="black" cx="18" cy="-49.22" rx="18" ry="18"/>
<text text-anchor="middle" x="18" y="-44.55" font-family="monospace" font-size="14.00">2</text>
</g>
<!-- 0&#45;&gt;2 -->
<g id="edge1" class="edge">
<title>0&#45;&gt;2</title>
<path fill="none" stroke="black" d="M90.89,-25.54C75.93,-30.4 56.52,-36.7 41.5,-41.59"/>
<polygon fill="black" stroke="black" points="91.26,-27.26 95.47,-24.05 90.17,-23.93 91.26,-27.26"/>
<polygon fill="black" stroke="black" points="41.01,-39.91 36.79,-43.11 42.09,-43.23 41.01,-39.91"/>
</g>
<!-- 3 -->
<g id="node4" class="node">
<title>3</title>
<ellipse fill="none" stroke="black" cx="173.47" cy="-99.74" rx="18" ry="18"/>
<text text-anchor="middle" x="173.47" y="-95.06" font-family="monospace" font-size="14.00">3</text>
</g>
<!-- 0&#45;&gt;3 -->
<g id="edge3" class="edge">
<title>0&#45;&gt;3</title>
<path fill="none" stroke="black" d="M128.42,-37.73C137.67,-50.46 149.66,-66.97 158.95,-79.75"/>
<polygon fill="black" stroke="black" points="129.95,-36.85 125.59,-33.84 127.12,-38.91 129.95,-36.85"/>
<polygon fill="black" stroke="black" points="157.5,-80.73 161.86,-83.75 160.34,-78.68 157.5,-80.73"/>
</g>
<!-- 4 -->
<g id="node5" class="node">
<title>4</title>
<ellipse fill="none" stroke="black" cx="18" cy="-150.25" rx="18" ry="18"/>
<text text-anchor="middle" x="18" y="-145.58" font-family="monospace" font-size="14.00">4</text>
</g>
<!-- 0&#45;&gt;4 -->
<g id="edge5" class="edge">
<title>0&#45;&gt;4</title>
<path fill="none" stroke="black" d="M99.56,-38C81.37,-63.04 50.39,-105.67 32.3,-130.57"/>
<polygon fill="black" stroke="black" points="100.84,-39.21 102.36,-34.14 98.01,-37.16 100.84,-39.21"/>
<polygon fill="black" stroke="black" points="31.06,-129.3 29.54,-134.37 33.89,-131.35 31.06,-129.3"/>
</g>
<!-- 1 -->
<g id="node2" class="node">
<title>1</title>
<ellipse fill="none" stroke="black" cx="114.09" cy="-181.47" rx="18" ry="18"/>
<text text-anchor="middle" x="114.09" y="-176.8" font-family="monospace" font-size="14.00">1</text>
</g>
<!-- 1&#45;&gt;2 -->
<g id="edge2" class="edge">
<title>1&#45;&gt;2</title>
<path fill="none" stroke="black" d="M99.56,-161.48C81.37,-136.44 50.39,-93.81 32.3,-68.91"/>
<polygon fill="black" stroke="black" points="98.01,-162.32 102.36,-165.34 100.84,-160.26 98.01,-162.32"/>
<polygon fill="black" stroke="black" points="33.89,-68.12 29.54,-65.1 31.06,-70.18 33.89,-68.12"/>
</g>
<!-- 1&#45;&gt;3 -->
<g id="edge4" class="edge">
<title>1&#45;&gt;3</title>
<path fill="none" stroke="black" d="M128.42,-161.75C137.67,-149.01 149.66,-132.51 158.95,-119.73"/>
<polygon fill="black" stroke="black" points="127.12,-160.56 125.59,-165.64 129.95,-162.62 127.12,-160.56"/>
<polygon fill="black" stroke="black" points="160.34,-120.8 161.86,-115.72 157.5,-118.74 160.34,-120.8"/>
</g>
<!-- 1&#45;&gt;4 -->
<g id="edge6" class="edge">
<title>1&#45;&gt;4</title>
<path fill="none" stroke="black" d="M90.89,-173.94C75.93,-169.08 56.52,-162.77 41.5,-157.89"/>
<polygon fill="black" stroke="black" points="90.17,-175.54 95.47,-175.43 91.26,-172.22 90.17,-175.54"/>
<polygon fill="black" stroke="black" points="42.09,-156.24 36.79,-156.36 41.01,-159.57 42.09,-156.24"/>
</g>
</g>
</svg>
