<?xml version="1.0" encoding="UTF-8" standalone="no"?>
<!DOCTYPE svg PUBLIC "-//W3C//DTD SVG 1.1//EN"
 "http://www.w3.org/Graphics/SVG/1.1/DTD/svg11.dtd">
<!-- Generated by graphviz version 12.0.0 (20240704.0754)
 -->
<!-- Pages: 1 -->
<svg width="196pt" height="189pt"
 viewBox="0.00 0.00 195.58 189.18" xmlns="http://www.w3.org/2000/svg" xmlns:xlink="http://www.w3.org/1999/xlink">
<g id="graph0" class="graph" transform="scale(1 1) rotate(0) translate(14.4 174.78)">
<polygon fill="white" stroke="none" points="-14.4,14.4 -14.4,-174.78 181.18,-174.78 181.18,14.4 -14.4,14.4"/>
<!-- 0 -->
<g id="node1" class="node">
<title>0</title>
<ellipse fill="none" stroke="black" cx="42.98" cy="-142.38" rx="18" ry="18"/>
<text text-anchor="middle" x="42.98" y="-137.7" font-family="monospace" font-size="14.00">0</text>
</g>
<!-- 2 -->
<g id="node3" class="node">
<title>2</title>
<ellipse fill="none" stroke="black" cx="123.8" cy="-142.38" rx="18" ry="18"/>
<text text-anchor="middle" x="123.8" y="-137.7" font-family="monospace" font-size="14.00">2</text>
</g>
<!-- 0&#45;&gt;2 -->
<g id="edge1" class="edge">
<title>0&#45;&gt;2</title>
<path fill="none" stroke="black" d="M68.49,-142.38C77.98,-142.38 88.75,-142.38 98.24,-142.38"/>
<polygon fill="black" stroke="black" points="68.83,-140.28 62.83,-142.38 68.83,-144.48 68.83,-140.28"/>
<polygon fill="black" stroke="black" points="98.02,-144.48 104.02,-142.38 98.02,-140.28 98.02,-144.48"/>
</g>
<!-- 3 -->
<g id="node4" class="node">
<title>3</title>
<ellipse fill="none" stroke="black" cx="18" cy="-65.51" rx="18" ry="18"/>
<text text-anchor="middle" x="18" y="-60.83" font-family="monospace" font-size="14.00">3</text>
</g>
<!-- 0&#45;&gt;3 -->
<g id="edge3" class="edge">
<title>0&#45;&gt;3</title>
<path fill="none" stroke="black" d="M35.09,-118.11C32.16,-109.08 28.83,-98.85 25.9,-89.82"/>
<polygon fill="black" stroke="black" points="32.99,-118.44 36.84,-123.5 36.98,-117.14 32.99,-118.44"/>
<polygon fill="black" stroke="black" points="27.96,-89.38 24.11,-84.32 23.97,-90.68 27.96,-89.38"/>
</g>
<!-- 4 -->
<g id="node5" class="node">
<title>4</title>
<ellipse fill="none" stroke="black" cx="148.78" cy="-65.51" rx="18" ry="18"/>
<text text-anchor="middle" x="148.78" y="-60.83" font-family="monospace" font-size="14.00">4</text>
</g>
<!-- 0&#45;&gt;4 -->
<g id="edge5" class="edge">
<title>0&#45;&gt;4</title>
<path fill="none" stroke="black" d="M63.73,-127.3C82.28,-113.83 109.31,-94.18 127.9,-80.68"/>
<polygon fill="black" stroke="black" points="62.53,-125.58 58.91,-130.8 65,-128.97 62.53,-125.58"/>
<polygon fill="black" stroke="black" points="129.01,-82.47 132.63,-77.24 126.54,-79.07 129.01,-82.47"/>
</g>
<!-- 1 -->
<g id="node2" class="node">
<title>1</title>
<ellipse fill="none" stroke="black" cx="83.39" cy="-18" rx="18" ry="18"/>
<text text-anchor="middle" x="83.39" y="-13.32" font-family="monospace" font-size="14.00">1</text>
</g>
<!-- 1&#45;&gt;2 -->
<g id="edge2" class="edge">
<title>1&#45;&gt;2</title>
<path fill="none" stroke="black" d="M91.41,-42.68C98.5,-64.51 108.79,-96.18 115.86,-117.94"/>
<polygon fill="black" stroke="black" points="93.41,-42.05 89.56,-37 89.42,-43.35 93.41,-42.05"/>
<polygon fill="black" stroke="black" points="113.81,-118.41 117.66,-123.47 117.8,-117.12 113.81,-118.41"/>
</g>
<!-- 1&#45;&gt;3 -->
<g id="edge4" class="edge">
<title>1&#45;&gt;3</title>
<path fill="none" stroke="black" d="M62.75,-33C54.99,-38.63 46.19,-45.03 38.45,-50.65"/>
<polygon fill="black" stroke="black" points="63.71,-34.9 67.33,-29.67 61.24,-31.5 63.71,-34.9"/>
<polygon fill="black" stroke="black" points="37.62,-48.66 34,-53.88 40.09,-52.05 37.62,-48.66"/>
</g>
<!-- 1&#45;&gt;4 -->
<g id="edge6" class="edge">
<title>1&#45;&gt;4</title>
<path fill="none" stroke="black" d="M104.03,-33C111.79,-38.63 120.59,-45.03 128.33,-50.65"/>
<polygon fill="black" stroke="black" points="105.54,-31.5 99.45,-29.67 103.07,-34.9 105.54,-31.5"/>
<polygon fill="black" stroke="black" points="126.69,-52.05 132.78,-53.88 129.16,-48.66 126.69,-52.05"/>
</g>
</g>
</svg>
