<?xml version="1.0" encoding="UTF-8" standalone="no"?>
<!DOCTYPE svg PUBLIC "-//W3C//DTD SVG 1.1//EN"
 "http://www.w3.org/Graphics/SVG/1.1/DTD/svg11.dtd">
<!-- Generated by graphviz version 12.0.0 (20240704.0754)
 -->
<!-- Pages: 1 -->
<svg width="220pt" height="228pt"
 viewBox="0.00 0.00 220.27 228.27" xmlns="http://www.w3.org/2000/svg" xmlns:xlink="http://www.w3.org/1999/xlink">
<g id="graph0" class="graph" transform="scale(1 1) rotate(0) translate(14.4 213.87)">
<polygon fill="white" stroke="none" points="-14.4,14.4 -14.4,-213.87 205.87,-213.87 205.87,14.4 -14.4,14.4"/>
<!-- 0 -->
<g id="node1" class="node">
<title>0</title>
<ellipse fill="none" stroke="black" cx="114.09" cy="-18" rx="18" ry="18"/>
<text text-anchor="middle" x="114.09" y="-13.32" font-family="monospace" font-size="14.00">0</text>
</g>
<!-- 2 -->
<g id="node3" class="node">
<title>2</title>
<ellipse fill="none" stroke="black" cx="18" cy="-49.22" rx="18" ry="18"/>
<text text-anchor="middle" x="18" y="-44.55" font-family="monospace" font-size="14.00">2</text>
</g>
<!-- 0&#45;&gt;2 -->
<g id="edge1" class="edge">
<title>0&#45;&gt;2</title>
<path fill="none" stroke="black" d="M89.99,-25.83C75.38,-30.58 56.8,-36.61 42.18,-41.36"/>
<polygon fill="black" stroke="black" points="90.41,-27.9 95.47,-24.05 89.11,-23.91 90.41,-27.9"/>
<polygon fill="black" stroke="black" points="41.85,-39.26 36.79,-43.11 43.15,-43.26 41.85,-39.26"/>
</g>
<!-- 3 -->
<g id="node4" class="node">
<title>3</title>
<ellipse fill="none" stroke="black" cx="173.47" cy="-99.74" rx="18" ry="18"/>
<text text-anchor="middle" x="173.47" y="-95.06" font-family="monospace" font-size="14.00">3</text>
</g>
<!-- 0&#45;&gt;3 -->
<g id="edge3" class="edge">
<title>0&#45;&gt;3</title>
<path fill="none" stroke="black" d="M128.98,-38.5C138.01,-50.93 149.49,-66.73 158.53,-79.17"/>
<polygon fill="black" stroke="black" points="130.82,-37.46 125.59,-33.84 127.42,-39.93 130.82,-37.46"/>
<polygon fill="black" stroke="black" points="156.63,-80.13 161.86,-83.75 160.03,-77.66 156.63,-80.13"/>
</g>
<!-- 4 -->
<g id="node5" class="node">
<title>4</title>
<ellipse fill="none" stroke="black" cx="18" cy="-150.25" rx="18" ry="18"/>
<text text-anchor="middle" x="18" y="-145.58" font-family="monospace" font-size="14.00">4</text>
</g>
<!-- 0&#45;&gt;4 -->
<g id="edge5" class="edge">
<title>0&#45;&gt;4</title>
<path fill="none" stroke="black" d="M99.07,-38.67C81.03,-63.5 50.96,-104.89 32.95,-129.67"/>
<polygon fill="black" stroke="black" points="100.53,-40.23 102.36,-34.14 97.14,-37.76 100.53,-40.23"/>
<polygon fill="black" stroke="black" points="31.37,-128.28 29.54,-134.37 34.76,-130.75 31.37,-128.28"/>
</g>
<!-- 1 -->
<g id="node2" class="node">
<title>1</title>
<ellipse fill="none" stroke="black" cx="114.09" cy="-181.47" rx="18" ry="18"/>
<text text-anchor="middle" x="114.09" y="-176.8" font-family="monospace" font-size="14.00">1</text>
</g>
<!-- 1&#45;&gt;2 -->
<g id="edge2" class="edge">
<title>1&#45;&gt;2</title>
<path fill="none" stroke="black" d="M99.07,-160.8C81.03,-135.98 50.96,-94.59 32.95,-69.8"/>
<polygon fill="black" stroke="black" points="97.14,-161.72 102.36,-165.34 100.53,-159.25 97.14,-161.72"/>
<polygon fill="black" stroke="black" points="34.76,-68.72 29.54,-65.1 31.37,-71.19 34.76,-68.72"/>
</g>
<!-- 1&#45;&gt;3 -->
<g id="edge4" class="edge">
<title>1&#45;&gt;3</title>
<path fill="none" stroke="black" d="M128.98,-160.98C138.01,-148.55 149.49,-132.75 158.53,-120.31"/>
<polygon fill="black" stroke="black" points="127.42,-159.55 125.59,-165.64 130.82,-162.02 127.42,-159.55"/>
<polygon fill="black" stroke="black" points="160.03,-121.81 161.86,-115.72 156.63,-119.34 160.03,-121.81"/>
</g>
<!-- 1&#45;&gt;4 -->
<g id="edge6" class="edge">
<title>1&#45;&gt;4</title>
<path fill="none" stroke="black" d="M89.99,-173.64C75.38,-168.9 56.8,-162.86 42.18,-158.11"/>
<polygon fill="black" stroke="black" points="89.11,-175.57 95.47,-175.43 90.41,-171.57 89.11,-175.57"/>
<polygon fill="black" stroke="black" points="43.15,-156.22 36.79,-156.36 41.85,-160.21 43.15,-156.22"/>
</g>
</g>
</svg>
