<?xml version="1.0" encoding="UTF-8" standalone="no"?>
<!DOCTYPE svg PUBLIC "-//W3C//DTD SVG 1.1//EN"
 "http://www.w3.org/Graphics/SVG/1.1/DTD/svg11.dtd">
<!-- Generated by graphviz version 12.0.0 (20240704.0754)
 -->
<!-- Pages: 1 -->
<svg width="271pt" height="243pt"
 viewBox="0.00 0.00 271.06 243.43" xmlns="http://www.w3.org/2000/svg" xmlns:xlink="http://www.w3.org/1999/xlink">
<g id="graph0" class="graph" transform="scale(1 1) rotate(0) translate(14.4 229.03)">
<polygon fill="white" stroke="none" points="-14.4,14.4 -14.4,-229.03 256.66,-229.03 256.66,14.4 -14.4,14.4"/>
<!-- 0 -->
<g id="node1" class="node">
<title>0</title>
<ellipse fill="none" stroke="black" cx="172.7" cy="-18" rx="18" ry="18"/>
<text text-anchor="middle" x="172.7" y="-13.32" font-family="monospace" font-size="14.00">0</text>
</g>
<!-- 3 -->
<g id="node4" class="node">
<title>3</title>
<ellipse fill="none" stroke="black" cx="69.57" cy="-196.63" rx="18" ry="18"/>
<text text-anchor="middle" x="69.57" y="-191.96" font-family="monospace" font-size="14.00">3</text>
</g>
<!-- 0&#45;&gt;3 -->
<g id="edge1" class="edge">
<title>0&#45;&gt;3</title>
<path fill="none" stroke="black" d="M160.37,-39.36C140.55,-73.69 101.8,-140.79 81.95,-175.19"/>
<polygon fill="black" stroke="black" points="161.81,-40.37 162.79,-35.16 158.77,-38.62 161.81,-40.37"/>
<polygon fill="black" stroke="black" points="80.44,-174.3 79.45,-179.5 83.47,-176.05 80.44,-174.3"/>
</g>
<!-- 4 -->
<g id="node5" class="node">
<title>4</title>
<ellipse fill="none" stroke="black" cx="224.26" cy="-107.32" rx="18" ry="18"/>
<text text-anchor="middle" x="224.26" y="-102.64" font-family="monospace" font-size="14.00">4</text>
</g>
<!-- 0&#45;&gt;4 -->
<g id="edge2" class="edge">
<title>0&#45;&gt;4</title>
<path fill="none" stroke="black" d="M185.17,-39.59C193.32,-53.72 203.93,-72.1 212.04,-86.14"/>
<polygon fill="black" stroke="black" points="186.69,-38.73 182.67,-35.28 183.66,-40.48 186.69,-38.73"/>
<polygon fill="black" stroke="black" points="210.35,-86.72 214.37,-90.17 213.38,-84.97 210.35,-86.72"/>
</g>
<!-- 5 -->
<g id="node6" class="node">
<title>5</title>
<ellipse fill="none" stroke="black" cx="69.57" cy="-18" rx="18" ry="18"/>
<text text-anchor="middle" x="69.57" y="-13.33" font-family="monospace" font-size="14.00">5</text>
</g>
<!-- 0&#45;&gt;5 -->
<g id="edge3" class="edge">
<title>0&#45;&gt;5</title>
<path fill="none" stroke="black" d="M147.76,-18C131.45,-18 110.23,-18 94.01,-18"/>
<polygon fill="black" stroke="black" points="147.75,-19.75 152.75,-18 147.75,-16.25 147.75,-19.75"/>
<polygon fill="black" stroke="black" points="94.36,-16.25 89.36,-18 94.36,-19.75 94.36,-16.25"/>
</g>
<!-- 1 -->
<g id="node2" class="node">
<title>1</title>
<ellipse fill="none" stroke="black" cx="18" cy="-107.32" rx="18" ry="18"/>
<text text-anchor="middle" x="18" y="-102.64" font-family="monospace" font-size="14.00">1</text>
</g>
<!-- 1&#45;&gt;3 -->
<g id="edge4" class="edge">
<title>1&#45;&gt;3</title>
<path fill="none" stroke="black" d="M30.47,-128.91C38.63,-143.04 49.23,-161.41 57.34,-175.46"/>
<polygon fill="black" stroke="black" points="31.99,-128.05 27.98,-124.59 28.96,-129.8 31.99,-128.05"/>
<polygon fill="black" stroke="black" points="55.65,-176.04 59.67,-179.49 58.69,-174.29 55.65,-176.04"/>
</g>
<!-- 1&#45;&gt;4 -->
<g id="edge5" class="edge">
<title>1&#45;&gt;4</title>
<path fill="none" stroke="black" d="M42.66,-107.32C82.31,-107.32 159.79,-107.32 199.5,-107.32"/>
<polygon fill="black" stroke="black" points="42.82,-105.57 37.82,-107.32 42.82,-109.07 42.82,-105.57"/>
<polygon fill="black" stroke="black" points="199.49,-109.07 204.49,-107.32 199.49,-105.57 199.49,-109.07"/>
</g>
<!-- 1&#45;&gt;5 -->
<g id="edge6" class="edge">
<title>1&#45;&gt;5</title>
<path fill="none" stroke="black" d="M30.47,-85.72C38.63,-71.59 49.23,-53.22 57.34,-39.17"/>
<polygon fill="black" stroke="black" points="28.96,-84.83 27.98,-90.04 31.99,-86.58 28.96,-84.83"/>
<polygon fill="black" stroke="black" points="58.69,-40.35 59.67,-35.14 55.65,-38.6 58.69,-40.35"/>
</g>
<!-- 2 -->
<g id="node3" class="node">
<title>2</title>
<ellipse fill="none" stroke="black" cx="172.7" cy="-196.63" rx="18" ry="18"/>
<text text-anchor="middle" x="172.7" y="-191.96" font-family="monospace" font-size="14.00">2</text>
</g>
<!-- 2&#45;&gt;3 -->
<g id="edge7" class="edge">
<title>2&#45;&gt;3</title>
<path fill="none" stroke="black" d="M147.76,-196.63C131.45,-196.63 110.23,-196.63 94.01,-196.63"/>
<polygon fill="black" stroke="black" points="147.75,-198.38 152.75,-196.63 147.75,-194.88 147.75,-198.38"/>
<polygon fill="black" stroke="black" points="94.36,-194.88 89.36,-196.63 94.36,-198.38 94.36,-194.88"/>
</g>
<!-- 2&#45;&gt;4 -->
<g id="edge8" class="edge">
<title>2&#45;&gt;4</title>
<path fill="none" stroke="black" d="M185.17,-175.04C193.32,-160.91 203.93,-142.53 212.04,-128.49"/>
<polygon fill="black" stroke="black" points="183.66,-174.15 182.67,-179.35 186.69,-175.9 183.66,-174.15"/>
<polygon fill="black" stroke="black" points="213.38,-129.66 214.37,-124.46 210.35,-127.91 213.38,-129.66"/>
</g>
<!-- 2&#45;&gt;5 -->
<g id="edge9" class="edge">
<title>2&#45;&gt;5</title>
<path fill="none" stroke="black" d="M160.37,-175.28C140.55,-140.94 101.8,-73.84 81.95,-39.44"/>
<polygon fill="black" stroke="black" points="158.77,-176.01 162.79,-179.47 161.81,-174.26 158.77,-176.01"/>
<polygon fill="black" stroke="black" points="83.47,-38.58 79.45,-35.13 80.44,-40.33 83.47,-38.58"/>
</g>
</g>
</svg>
