<?xml version="1.0" encoding="UTF-8" standalone="no"?>
<!DOCTYPE svg PUBLIC "-//W3C//DTD SVG 1.1//EN"
 "http://www.w3.org/Graphics/SVG/1.1/DTD/svg11.dtd">
<!-- Generated by graphviz version 12.0.0 (20240704.0754)
 -->
<!-- Pages: 1 -->
<svg width="205pt" height="169pt"
 viewBox="0.00 0.00 204.80 168.80" xmlns="http://www.w3.org/2000/svg" xmlns:xlink="http://www.w3.org/1999/xlink">
<g id="graph0" class="graph" transform="scale(1 1) rotate(0) translate(14.4 154.4)">
<polygon fill="white" stroke="none" points="-14.4,14.4 -14.4,-154.4 190.4,-154.4 190.4,14.4 -14.4,14.4"/>
<g id="clust1" class="cluster">
<title>cluster_0</title>
<polygon fill="none" stroke="black" stroke-dasharray="5,2" points="35,-80 35,-132 141,-132 141,-80 35,-80"/>
</g>
<g id="clust2" class="cluster">
<title>cluster_1</title>
<polygon fill="none" stroke="black" stroke-dasharray="5,2" points="8,-8 8,-60 168,-60 168,-8 8,-8"/>
</g>
<!-- 0 -->
<g id="node1" class="node">
<title>0</title>
<ellipse fill="none" stroke="black" cx="61" cy="-106" rx="18" ry="18"/>
<text text-anchor="middle" x="61" y="-101.33" font-family="Operator Mono" font-size="14.00">0</text>
</g>
<!-- 2 -->
<g id="node3" class="node">
<title>2</title>
<ellipse fill="none" stroke="black" cx="88" cy="-34" rx="18" ry="18"/>
<text text-anchor="middle" x="88" y="-29.32" font-family="Operator Mono" font-size="14.00">2</text>
</g>
<!-- 0&#45;&gt;2 -->
<g id="edge1" class="edge">
<title>0&#45;&gt;2</title>
<path fill="none" stroke="black" d="M69.51,-82.93C72.68,-74.72 76.27,-65.41 79.44,-57.18"/>
<polygon fill="black" stroke="black" points="67.97,-82.06 67.81,-87.35 71.24,-83.32 67.97,-82.06"/>
<polygon fill="black" stroke="black" points="81.06,-57.85 81.23,-52.56 77.79,-56.59 81.06,-57.85"/>
</g>
<!-- 3 -->
<g id="node4" class="node">
<title>3</title>
<ellipse fill="none" stroke="black" cx="142" cy="-34" rx="18" ry="18"/>
<text text-anchor="middle" x="142" y="-29.32" font-family="Operator Mono" font-size="14.00">3</text>
</g>
<!-- 0&#45;&gt;3 -->
<g id="edge3" class="edge">
<title>0&#45;&gt;3</title>
<path fill="none" stroke="black" d="M78.42,-88.35C81.56,-85.5 84.84,-82.62 88,-80 99.5,-70.47 103.5,-69.53 115,-60 118.16,-57.38 121.44,-54.5 124.58,-51.65"/>
<polygon fill="black" stroke="black" points="77.25,-87.05 74.76,-91.73 79.63,-89.62 77.25,-87.05"/>
<polygon fill="black" stroke="black" points="125.75,-52.95 128.24,-48.27 123.37,-50.38 125.75,-52.95"/>
</g>
<!-- 4 -->
<g id="node5" class="node">
<title>4</title>
<ellipse fill="none" stroke="black" cx="34" cy="-34" rx="18" ry="18"/>
<text text-anchor="middle" x="34" y="-29.32" font-family="Operator Mono" font-size="14.00">4</text>
</g>
<!-- 0&#45;&gt;4 -->
<g id="edge5" class="edge">
<title>0&#45;&gt;4</title>
<path fill="none" stroke="black" d="M52.49,-82.93C49.32,-74.72 45.73,-65.41 42.56,-57.18"/>
<polygon fill="black" stroke="black" points="50.76,-83.32 54.19,-87.35 54.03,-82.06 50.76,-83.32"/>
<polygon fill="black" stroke="black" points="44.21,-56.59 40.77,-52.56 40.94,-57.85 44.21,-56.59"/>
</g>
<!-- 1 -->
<g id="node2" class="node">
<title>1</title>
<ellipse fill="none" stroke="black" cx="115" cy="-106" rx="18" ry="18"/>
<text text-anchor="middle" x="115" y="-101.33" font-family="Operator Mono" font-size="14.00">1</text>
</g>
<!-- 1&#45;&gt;2 -->
<g id="edge2" class="edge">
<title>1&#45;&gt;2</title>
<path fill="none" stroke="black" d="M106.49,-82.93C103.32,-74.72 99.73,-65.41 96.56,-57.18"/>
<polygon fill="black" stroke="black" points="104.76,-83.32 108.19,-87.35 108.03,-82.06 104.76,-83.32"/>
<polygon fill="black" stroke="black" points="98.21,-56.59 94.77,-52.56 94.94,-57.85 98.21,-56.59"/>
</g>
<!-- 1&#45;&gt;3 -->
<g id="edge4" class="edge">
<title>1&#45;&gt;3</title>
<path fill="none" stroke="black" d="M123.51,-82.93C126.68,-74.72 130.27,-65.41 133.44,-57.18"/>
<polygon fill="black" stroke="black" points="121.97,-82.06 121.81,-87.35 125.24,-83.32 121.97,-82.06"/>
<polygon fill="black" stroke="black" points="135.06,-57.85 135.23,-52.56 131.79,-56.59 135.06,-57.85"/>
</g>
<!-- 1&#45;&gt;4 -->
<g id="edge6" class="edge">
<title>1&#45;&gt;4</title>
<path fill="none" stroke="black" d="M97.58,-88.35C94.44,-85.5 91.16,-82.62 88,-80 76.5,-70.47 72.5,-69.53 61,-60 57.84,-57.38 54.56,-54.5 51.42,-51.65"/>
<polygon fill="black" stroke="black" points="96.37,-89.62 101.24,-91.73 98.75,-87.05 96.37,-89.62"/>
<polygon fill="black" stroke="black" points="52.63,-50.38 47.76,-48.27 50.25,-52.95 52.63,-50.38"/>
</g>
</g>
</svg>
