<?xml version="1.0" encoding="UTF-8" standalone="no"?>
<!DOCTYPE svg PUBLIC "-//W3C//DTD SVG 1.1//EN"
 "http://www.w3.org/Graphics/SVG/1.1/DTD/svg11.dtd">
<!-- Generated by graphviz version 12.0.0 (20240704.0754)
 -->
<!-- Pages: 1 -->
<svg width="194pt" height="214pt"
 viewBox="0.00 0.00 194.40 214.45" xmlns="http://www.w3.org/2000/svg" xmlns:xlink="http://www.w3.org/1999/xlink">
<g id="graph0" class="graph" transform="scale(1 1) rotate(0) translate(14.4 200.05)">
<polygon fill="white" stroke="none" points="-14.4,14.4 -14.4,-200.05 180,-200.05 180,14.4 -14.4,14.4"/>
<!-- 0 -->
<g id="node1" class="node">
<title>0</title>
<ellipse fill="none" stroke="black" cx="61.2" cy="-92.82" rx="18" ry="18"/>
<text text-anchor="middle" x="61.2" y="-88.15" font-family="monospace" font-size="14.00">0</text>
</g>
<!-- 1 -->
<g id="node2" class="node">
<title>1</title>
<ellipse fill="none" stroke="black" cx="147.6" cy="-92.82" rx="18" ry="18"/>
<text text-anchor="middle" x="147.6" y="-88.15" font-family="monospace" font-size="14.00">1</text>
</g>
<!-- 0&#45;&gt;1 -->
<g id="edge1" class="edge">
<title>0&#45;&gt;1</title>
<path fill="none" stroke="black" d="M86.78,-92.82C97.88,-92.82 110.85,-92.82 121.96,-92.82"/>
<polygon fill="black" stroke="black" points="87.04,-90.72 81.04,-92.82 87.04,-94.92 87.04,-90.72"/>
<polygon fill="black" stroke="black" points="121.79,-94.92 127.79,-92.82 121.79,-90.72 121.79,-94.92"/>
</g>
<!-- 2 -->
<g id="node3" class="node">
<title>2</title>
<ellipse fill="none" stroke="black" cx="18" cy="-167.65" rx="18" ry="18"/>
<text text-anchor="middle" x="18" y="-162.97" font-family="monospace" font-size="14.00">2</text>
</g>
<!-- 0&#45;&gt;2 -->
<g id="edge2" class="edge">
<title>0&#45;&gt;2</title>
<path fill="none" stroke="black" d="M48.41,-114.97C42.86,-124.59 36.37,-135.82 30.82,-145.44"/>
<polygon fill="black" stroke="black" points="50.1,-116.25 51.28,-110 46.46,-114.15 50.1,-116.25"/>
<polygon fill="black" stroke="black" points="29.09,-144.25 27.91,-150.49 32.72,-146.35 29.09,-144.25"/>
</g>
<!-- 3 -->
<g id="node4" class="node">
<title>3</title>
<ellipse fill="none" stroke="black" cx="18" cy="-18" rx="18" ry="18"/>
<text text-anchor="middle" x="18" y="-13.32" font-family="monospace" font-size="14.00">3</text>
</g>
<!-- 0&#45;&gt;3 -->
<g id="edge3" class="edge">
<title>0&#45;&gt;3</title>
<path fill="none" stroke="black" d="M48.41,-70.67C42.86,-61.06 36.37,-49.83 30.82,-40.21"/>
<polygon fill="black" stroke="black" points="46.46,-71.5 51.28,-75.65 50.1,-69.4 46.46,-71.5"/>
<polygon fill="black" stroke="black" points="32.72,-39.3 27.91,-35.16 29.09,-41.4 32.72,-39.3"/>
</g>
</g>
</svg>
