<?xml version="1.0" encoding="UTF-8" standalone="no"?>
<!DOCTYPE svg PUBLIC "-//W3C//DTD SVG 1.1//EN"
 "http://www.w3.org/Graphics/SVG/1.1/DTD/svg11.dtd">
<!-- Generated by graphviz version 12.0.0 (20240704.0754)
 -->
<!-- Pages: 1 -->
<svg width="226pt" height="174pt"
 viewBox="0.00 0.00 225.85 173.68" xmlns="http://www.w3.org/2000/svg" xmlns:xlink="http://www.w3.org/1999/xlink">
<g id="graph0" class="graph" transform="scale(1 1) rotate(0) translate(14.4 159.28)">
<polygon fill="white" stroke="none" points="-14.4,14.4 -14.4,-159.28 211.45,-159.28 211.45,14.4 -14.4,14.4"/>
<!-- 0 -->
<g id="node1" class="node">
<title>0</title>
<ellipse fill="salmon" stroke="salmon" cx="89.72" cy="-18" rx="18" ry="18"/>
<text text-anchor="middle" x="89.72" y="-13.32" font-family="monospace" font-size="14.00" fill="white">0</text>
</g>
<!-- 2 -->
<g id="node3" class="node">
<title>2</title>
<ellipse fill="skyblue" stroke="skyblue" cx="179.05" cy="-18" rx="18" ry="18"/>
<text text-anchor="middle" x="179.05" y="-13.32" font-family="monospace" font-size="14.00" fill="white">2</text>
</g>
<!-- 0&#45;&gt;2 -->
<g id="edge1" class="edge">
<title>0&#45;&gt;2</title>
<path fill="none" stroke="black" d="M115.05,-18C127.09,-18 141.45,-18 153.52,-18"/>
<polygon fill="black" stroke="black" points="115.31,-15.9 109.31,-18 115.31,-20.1 115.31,-15.9"/>
<polygon fill="black" stroke="black" points="153.18,-20.1 159.18,-18 153.18,-15.9 153.18,-20.1"/>
</g>
<!-- 3 -->
<g id="node4" class="node">
<title>3</title>
<ellipse fill="skyblue" stroke="skyblue" cx="60.05" cy="-126.88" rx="18" ry="18"/>
<text text-anchor="middle" x="60.05" y="-122.21" font-family="monospace" font-size="14.00" fill="white">3</text>
</g>
<!-- 0&#45;&gt;3 -->
<g id="edge3" class="edge">
<title>0&#45;&gt;3</title>
<path fill="none" stroke="black" d="M83.03,-42.55C78.21,-60.24 71.72,-84.04 66.87,-101.84"/>
<polygon fill="black" stroke="black" points="85.01,-43.3 84.56,-36.95 80.95,-42.19 85.01,-43.3"/>
<polygon fill="black" stroke="black" points="64.85,-101.27 65.3,-107.61 68.9,-102.37 64.85,-101.27"/>
</g>
<!-- 4 -->
<g id="node5" class="node">
<title>4</title>
<ellipse fill="skyblue" stroke="skyblue" cx="18" cy="-26.89" rx="18" ry="18"/>
<text text-anchor="middle" x="18" y="-22.22" font-family="monospace" font-size="14.00" fill="white">4</text>
</g>
<!-- 0&#45;&gt;4 -->
<g id="edge5" class="edge">
<title>0&#45;&gt;4</title>
<path fill="none" stroke="black" d="M64.19,-21.17C57.44,-22 50.15,-22.91 43.4,-23.74"/>
<polygon fill="black" stroke="black" points="64.43,-23.25 70.12,-20.43 63.91,-19.08 64.43,-23.25"/>
<polygon fill="black" stroke="black" points="43.54,-21.61 37.84,-24.43 44.06,-25.78 43.54,-21.61"/>
</g>
<!-- 1 -->
<g id="node2" class="node">
<title>1</title>
<ellipse fill="salmon" stroke="salmon" cx="116.58" cy="-81.85" rx="18" ry="18"/>
<text text-anchor="middle" x="116.58" y="-77.17" font-family="monospace" font-size="14.00" fill="white">1</text>
</g>
<!-- 1&#45;&gt;2 -->
<g id="edge2" class="edge">
<title>1&#45;&gt;2</title>
<path fill="none" stroke="black" d="M134.33,-63.71C142.81,-55.04 152.93,-44.7 161.4,-36.04"/>
<polygon fill="black" stroke="black" points="132.97,-62.09 130.28,-67.84 135.97,-65.02 132.97,-62.09"/>
<polygon fill="black" stroke="black" points="162.67,-37.74 165.37,-31.98 159.67,-34.8 162.67,-37.74"/>
</g>
<!-- 1&#45;&gt;3 -->
<g id="edge4" class="edge">
<title>1&#45;&gt;3</title>
<path fill="none" stroke="black" d="M96.45,-97.88C91.13,-102.12 85.38,-106.7 80.07,-110.93"/>
<polygon fill="black" stroke="black" points="97.74,-99.53 101.13,-94.15 95.13,-96.25 97.74,-99.53"/>
<polygon fill="black" stroke="black" points="79.07,-109.04 75.69,-114.42 81.69,-112.33 79.07,-109.04"/>
</g>
<!-- 1&#45;&gt;4 -->
<g id="edge6" class="edge">
<title>1&#45;&gt;4</title>
<path fill="none" stroke="black" d="M94.35,-69.46C78.33,-60.53 56.79,-48.52 40.67,-39.53"/>
<polygon fill="black" stroke="black" points="93.15,-71.19 99.42,-72.28 95.2,-67.52 93.15,-71.19"/>
<polygon fill="black" stroke="black" points="41.71,-37.71 35.45,-36.62 39.67,-41.38 41.71,-37.71"/>
</g>
</g>
</svg>
