<?xml version="1.0" encoding="UTF-8" standalone="no"?>
<!DOCTYPE svg PUBLIC "-//W3C//DTD SVG 1.1//EN"
 "http://www.w3.org/Graphics/SVG/1.1/DTD/svg11.dtd">
<!-- Generated by graphviz version 12.0.0 (20240704.0754)
 -->
<!-- Pages: 1 -->
<svg width="227pt" height="252pt"
 viewBox="0.00 0.00 226.80 251.86" xmlns="http://www.w3.org/2000/svg" xmlns:xlink="http://www.w3.org/1999/xlink">
<g id="graph0" class="graph" transform="scale(1 1) rotate(0) translate(14.4 237.46)">
<polygon fill="white" stroke="none" points="-14.4,14.4 -14.4,-237.46 212.4,-237.46 212.4,14.4 -14.4,14.4"/>
<!-- 0 -->
<g id="node1" class="node">
<title>0</title>
<ellipse fill="none" stroke="black" cx="72" cy="-111.53" rx="18" ry="18"/>
<text text-anchor="middle" x="72" y="-106.86" font-family="monospace" font-size="14.00">0</text>
</g>
<!-- 1 -->
<g id="node2" class="node">
<title>1</title>
<ellipse fill="none" stroke="black" cx="180" cy="-111.53" rx="18" ry="18"/>
<text text-anchor="middle" x="180" y="-106.86" font-family="monospace" font-size="14.00">1</text>
</g>
<!-- 0&#45;&gt;1 -->
<g id="edge1" class="edge">
<title>0&#45;&gt;1</title>
<path fill="none" stroke="black" d="M97.75,-111.53C114.8,-111.53 137.08,-111.53 154.15,-111.53"/>
<polygon fill="black" stroke="black" points="97.83,-109.43 91.83,-111.53 97.83,-113.63 97.83,-109.43"/>
<polygon fill="black" stroke="black" points="154.08,-113.63 160.08,-111.53 154.08,-109.43 154.08,-113.63"/>
</g>
<!-- 2 -->
<g id="node3" class="node">
<title>2</title>
<ellipse fill="none" stroke="black" cx="18" cy="-205.06" rx="18" ry="18"/>
<text text-anchor="middle" x="18" y="-200.39" font-family="monospace" font-size="14.00">2</text>
</g>
<!-- 0&#45;&gt;2 -->
<g id="edge2" class="edge">
<title>0&#45;&gt;2</title>
<path fill="none" stroke="black" d="M59.13,-133.83C50.6,-148.59 39.46,-167.89 30.93,-182.67"/>
<polygon fill="black" stroke="black" points="60.9,-134.95 62.08,-128.71 57.26,-132.85 60.9,-134.95"/>
<polygon fill="black" stroke="black" points="29.14,-181.56 27.96,-187.81 32.78,-183.66 29.14,-181.56"/>
</g>
<!-- 3 -->
<g id="node4" class="node">
<title>3</title>
<ellipse fill="none" stroke="black" cx="18" cy="-18" rx="18" ry="18"/>
<text text-anchor="middle" x="18" y="-13.32" font-family="monospace" font-size="14.00">3</text>
</g>
<!-- 0&#45;&gt;3 -->
<g id="edge3" class="edge">
<title>0&#45;&gt;3</title>
<path fill="none" stroke="black" d="M59.13,-89.23C50.6,-74.47 39.46,-55.17 30.93,-40.39"/>
<polygon fill="black" stroke="black" points="57.26,-90.21 62.08,-94.35 60.9,-88.11 57.26,-90.21"/>
<polygon fill="black" stroke="black" points="32.78,-39.4 27.96,-35.25 29.14,-41.5 32.78,-39.4"/>
</g>
</g>
</svg>
