<?xml version="1.0" encoding="UTF-8" standalone="no"?>
<!DOCTYPE svg PUBLIC "-//W3C//DTD SVG 1.1//EN"
 "http://www.w3.org/Graphics/SVG/1.1/DTD/svg11.dtd">
<!-- Generated by graphviz version 12.0.0 (20240704.0754)
 -->
<!-- Pages: 1 -->
<svg width="271pt" height="243pt"
 viewBox="0.00 0.00 271.06 243.43" xmlns="http://www.w3.org/2000/svg" xmlns:xlink="http://www.w3.org/1999/xlink">
<g id="graph0" class="graph" transform="scale(1 1) rotate(0) translate(14.4 229.03)">
<polygon fill="white" stroke="none" points="-14.4,14.4 -14.4,-229.03 256.66,-229.03 256.66,14.4 -14.4,14.4"/>
<!-- 0 -->
<g id="node1" class="node">
<title>0</title>
<ellipse fill="none" stroke="black" cx="172.7" cy="-18" rx="18" ry="18"/>
<text text-anchor="middle" x="172.7" y="-13.32" font-family="monospace" font-size="14.00">0</text>
</g>
<!-- 3 -->
<g id="node4" class="node">
<title>3</title>
<ellipse fill="none" stroke="black" cx="69.57" cy="-196.63" rx="18" ry="18"/>
<text text-anchor="middle" x="69.57" y="-191.96" font-family="monospace" font-size="14.00">3</text>
</g>
<!-- 0&#45;&gt;3 -->
<g id="edge1" class="edge">
<title>0&#45;&gt;3</title>
<path fill="none" stroke="black" d="M159.85,-40.26C140.03,-74.59 102.23,-140.06 82.41,-174.38"/>
<polygon fill="black" stroke="black" points="161.61,-41.41 162.79,-35.16 157.97,-39.31 161.61,-41.41"/>
<polygon fill="black" stroke="black" points="80.64,-173.26 79.45,-179.5 84.27,-175.36 80.64,-173.26"/>
</g>
<!-- 4 -->
<g id="node5" class="node">
<title>4</title>
<ellipse fill="none" stroke="black" cx="224.26" cy="-107.32" rx="18" ry="18"/>
<text text-anchor="middle" x="224.26" y="-102.64" font-family="monospace" font-size="14.00">4</text>
</g>
<!-- 0&#45;&gt;4 -->
<g id="edge2" class="edge">
<title>0&#45;&gt;4</title>
<path fill="none" stroke="black" d="M185.66,-40.44C193.55,-54.11 203.59,-71.51 211.46,-85.13"/>
<polygon fill="black" stroke="black" points="187.49,-39.42 182.67,-35.28 183.86,-41.52 187.49,-39.42"/>
<polygon fill="black" stroke="black" points="209.55,-86.03 214.37,-90.17 213.19,-83.93 209.55,-86.03"/>
</g>
<!-- 5 -->
<g id="node6" class="node">
<title>5</title>
<ellipse fill="none" stroke="black" cx="69.57" cy="-18" rx="18" ry="18"/>
<text text-anchor="middle" x="69.57" y="-13.33" font-family="monospace" font-size="14.00">5</text>
</g>
<!-- 0&#45;&gt;5 -->
<g id="edge3" class="edge">
<title>0&#45;&gt;5</title>
<path fill="none" stroke="black" d="M146.78,-18C131,-18 110.91,-18 95.18,-18"/>
<polygon fill="black" stroke="black" points="146.75,-20.1 152.75,-18 146.75,-15.9 146.75,-20.1"/>
<polygon fill="black" stroke="black" points="95.36,-15.9 89.36,-18 95.36,-20.1 95.36,-15.9"/>
</g>
<!-- 1 -->
<g id="node2" class="node">
<title>1</title>
<ellipse fill="none" stroke="black" cx="18" cy="-107.32" rx="18" ry="18"/>
<text text-anchor="middle" x="18" y="-102.64" font-family="monospace" font-size="14.00">1</text>
</g>
<!-- 1&#45;&gt;3 -->
<g id="edge4" class="edge">
<title>1&#45;&gt;3</title>
<path fill="none" stroke="black" d="M30.96,-129.76C38.85,-143.43 48.89,-160.83 56.76,-174.45"/>
<polygon fill="black" stroke="black" points="32.79,-128.74 27.98,-124.59 29.16,-130.84 32.79,-128.74"/>
<polygon fill="black" stroke="black" points="54.85,-175.34 59.67,-179.49 58.49,-173.24 54.85,-175.34"/>
</g>
<!-- 1&#45;&gt;4 -->
<g id="edge5" class="edge">
<title>1&#45;&gt;4</title>
<path fill="none" stroke="black" d="M43.7,-107.32C83.34,-107.32 158.95,-107.32 198.58,-107.32"/>
<polygon fill="black" stroke="black" points="43.82,-105.22 37.82,-107.32 43.82,-109.42 43.82,-105.22"/>
<polygon fill="black" stroke="black" points="198.49,-109.42 204.49,-107.32 198.49,-105.22 198.49,-109.42"/>
</g>
<!-- 1&#45;&gt;5 -->
<g id="edge6" class="edge">
<title>1&#45;&gt;5</title>
<path fill="none" stroke="black" d="M30.96,-84.87C38.85,-71.2 48.89,-53.8 56.76,-40.18"/>
<polygon fill="black" stroke="black" points="29.16,-83.79 27.98,-90.04 32.79,-85.89 29.16,-83.79"/>
<polygon fill="black" stroke="black" points="58.49,-41.39 59.67,-35.14 54.85,-39.29 58.49,-41.39"/>
</g>
<!-- 2 -->
<g id="node3" class="node">
<title>2</title>
<ellipse fill="none" stroke="black" cx="172.7" cy="-196.63" rx="18" ry="18"/>
<text text-anchor="middle" x="172.7" y="-191.96" font-family="monospace" font-size="14.00">2</text>
</g>
<!-- 2&#45;&gt;3 -->
<g id="edge7" class="edge">
<title>2&#45;&gt;3</title>
<path fill="none" stroke="black" d="M146.78,-196.63C131,-196.63 110.91,-196.63 95.18,-196.63"/>
<polygon fill="black" stroke="black" points="146.75,-198.73 152.75,-196.63 146.75,-194.53 146.75,-198.73"/>
<polygon fill="black" stroke="black" points="95.36,-194.53 89.36,-196.63 95.36,-198.73 95.36,-194.53"/>
</g>
<!-- 2&#45;&gt;4 -->
<g id="edge8" class="edge">
<title>2&#45;&gt;4</title>
<path fill="none" stroke="black" d="M185.66,-174.19C193.55,-160.52 203.59,-143.12 211.46,-129.5"/>
<polygon fill="black" stroke="black" points="183.86,-173.11 182.67,-179.35 187.49,-175.21 183.86,-173.11"/>
<polygon fill="black" stroke="black" points="213.19,-130.7 214.37,-124.46 209.55,-128.6 213.19,-130.7"/>
</g>
<!-- 2&#45;&gt;5 -->
<g id="edge9" class="edge">
<title>2&#45;&gt;5</title>
<path fill="none" stroke="black" d="M159.85,-174.37C140.03,-140.04 102.23,-74.57 82.41,-40.25"/>
<polygon fill="black" stroke="black" points="157.97,-175.32 162.79,-179.47 161.61,-173.22 157.97,-175.32"/>
<polygon fill="black" stroke="black" points="84.27,-39.27 79.45,-35.13 80.64,-41.37 84.27,-39.27"/>
</g>
</g>
</svg>
