<?xml version="1.0" encoding="UTF-8" standalone="no"?>
<!DOCTYPE svg PUBLIC "-//W3C//DTD SVG 1.1//EN"
 "http://www.w3.org/Graphics/SVG/1.1/DTD/svg11.dtd">
<!-- Generated by graphviz version 12.0.0 (20240704.0754)
 -->
<!-- Pages: 1 -->
<svg width="271pt" height="243pt"
 viewBox="0.00 0.00 271.06 243.43" xmlns="http://www.w3.org/2000/svg" xmlns:xlink="http://www.w3.org/1999/xlink">
<g id="graph0" class="graph" transform="scale(1 1) rotate(0) translate(14.4 229.03)">
<polygon fill="white" stroke="none" points="-14.4,14.4 -14.4,-229.03 256.66,-229.03 256.66,14.4 -14.4,14.4"/>
<!-- 0 -->
<g id="node1" class="node">
<title>0</title>
<ellipse fill="none" stroke="black" cx="172.7" cy="-18" rx="18" ry="18"/>
<text text-anchor="middle" x="172.7" y="-13.32" font-family="monospace" font-size="14.00">0</text>
</g>
<!-- 4 -->
<g id="node5" class="node">
<title>4</title>
<ellipse fill="none" stroke="black" cx="69.57" cy="-18" rx="18" ry="18"/>
<text text-anchor="middle" x="69.57" y="-13.33" font-family="monospace" font-size="14.00">4</text>
</g>
<!-- 0&#45;&gt;4 -->
<g id="edge1" class="edge">
<title>0&#45;&gt;4</title>
<path fill="none" stroke="black" d="M146.78,-18C131,-18 110.91,-18 95.18,-18"/>
<polygon fill="black" stroke="black" points="146.75,-20.1 152.75,-18 146.75,-15.9 146.75,-20.1"/>
<polygon fill="black" stroke="black" points="95.36,-15.9 89.36,-18 95.36,-20.1 95.36,-15.9"/>
</g>
<!-- 5 -->
<g id="node6" class="node">
<title>5</title>
<ellipse fill="none" stroke="black" cx="172.7" cy="-196.63" rx="18" ry="18"/>
<text text-anchor="middle" x="172.7" y="-191.96" font-family="monospace" font-size="14.00">5</text>
</g>
<!-- 0&#45;&gt;5 -->
<g id="edge2" class="edge">
<title>0&#45;&gt;5</title>
<path fill="none" stroke="black" d="M172.7,-43.77C172.7,-77.75 172.7,-137.18 172.7,-171.06"/>
<polygon fill="black" stroke="black" points="174.8,-43.96 172.7,-37.96 170.6,-43.96 174.8,-43.96"/>
<polygon fill="black" stroke="black" points="170.6,-170.77 172.7,-176.77 174.8,-170.77 170.6,-170.77"/>
</g>
<!-- 1 -->
<g id="node2" class="node">
<title>1</title>
<ellipse fill="none" stroke="black" cx="18" cy="-107.32" rx="18" ry="18"/>
<text text-anchor="middle" x="18" y="-102.64" font-family="monospace" font-size="14.00">1</text>
</g>
<!-- 1&#45;&gt;4 -->
<g id="edge3" class="edge">
<title>1&#45;&gt;4</title>
<path fill="none" stroke="black" d="M30.96,-84.87C38.85,-71.2 48.89,-53.8 56.76,-40.18"/>
<polygon fill="black" stroke="black" points="29.16,-83.79 27.98,-90.04 32.79,-85.89 29.16,-83.79"/>
<polygon fill="black" stroke="black" points="58.49,-41.39 59.67,-35.14 54.85,-39.29 58.49,-41.39"/>
</g>
<!-- 1&#45;&gt;5 -->
<g id="edge4" class="edge">
<title>1&#45;&gt;5</title>
<path fill="none" stroke="black" d="M40.34,-120.21C69.85,-137.25 121.51,-167.08 150.8,-183.99"/>
<polygon fill="black" stroke="black" points="41.53,-118.48 35.28,-117.29 39.43,-122.11 41.53,-118.48"/>
<polygon fill="black" stroke="black" points="149.49,-185.65 155.73,-186.84 151.59,-182.02 149.49,-185.65"/>
</g>
<!-- 2 -->
<g id="node3" class="node">
<title>2</title>
<ellipse fill="none" stroke="black" cx="224.26" cy="-107.32" rx="18" ry="18"/>
<text text-anchor="middle" x="224.26" y="-102.64" font-family="monospace" font-size="14.00">2</text>
</g>
<!-- 2&#45;&gt;4 -->
<g id="edge5" class="edge">
<title>2&#45;&gt;4</title>
<path fill="none" stroke="black" d="M201.93,-94.42C172.41,-77.38 120.76,-47.55 91.46,-30.64"/>
<polygon fill="black" stroke="black" points="200.74,-96.16 206.98,-97.34 202.84,-92.52 200.74,-96.16"/>
<polygon fill="black" stroke="black" points="92.78,-28.98 86.53,-27.8 90.68,-32.61 92.78,-28.98"/>
</g>
<!-- 2&#45;&gt;5 -->
<g id="edge6" class="edge">
<title>2&#45;&gt;5</title>
<path fill="none" stroke="black" d="M211.31,-129.76C203.41,-143.43 193.37,-160.83 185.5,-174.45"/>
<polygon fill="black" stroke="black" points="213.11,-130.84 214.29,-124.59 209.47,-128.74 213.11,-130.84"/>
<polygon fill="black" stroke="black" points="183.78,-173.24 182.59,-179.49 187.41,-175.34 183.78,-173.24"/>
</g>
<!-- 3 -->
<g id="node4" class="node">
<title>3</title>
<ellipse fill="none" stroke="black" cx="69.57" cy="-196.63" rx="18" ry="18"/>
<text text-anchor="middle" x="69.57" y="-191.96" font-family="monospace" font-size="14.00">3</text>
</g>
<!-- 3&#45;&gt;4 -->
<g id="edge7" class="edge">
<title>3&#45;&gt;4</title>
<path fill="none" stroke="black" d="M69.57,-170.86C69.57,-136.88 69.57,-77.45 69.57,-43.57"/>
<polygon fill="black" stroke="black" points="67.47,-170.67 69.57,-176.67 71.67,-170.67 67.47,-170.67"/>
<polygon fill="black" stroke="black" points="71.67,-43.86 69.57,-37.86 67.47,-43.86 71.67,-43.86"/>
</g>
<!-- 3&#45;&gt;5 -->
<g id="edge8" class="edge">
<title>3&#45;&gt;5</title>
<path fill="none" stroke="black" d="M95.48,-196.63C111.27,-196.63 131.36,-196.63 147.09,-196.63"/>
<polygon fill="black" stroke="black" points="95.52,-194.53 89.52,-196.63 95.52,-198.73 95.52,-194.53"/>
<polygon fill="black" stroke="black" points="146.91,-198.73 152.91,-196.63 146.91,-194.53 146.91,-198.73"/>
</g>
</g>
</svg>
