<?xml version="1.0" encoding="UTF-8" standalone="no"?>
<!DOCTYPE svg PUBLIC "-//W3C//DTD SVG 1.1//EN"
 "http://www.w3.org/Graphics/SVG/1.1/DTD/svg11.dtd">
<!-- Generated by graphviz version 12.0.0 (20240704.0754)
 -->
<!-- Pages: 1 -->
<svg width="220pt" height="228pt"
 viewBox="0.00 0.00 220.27 228.27" xmlns="http://www.w3.org/2000/svg" xmlns:xlink="http://www.w3.org/1999/xlink">
<g id="graph0" class="graph" transform="scale(1 1) rotate(0) translate(14.4 213.87)">
<polygon fill="white" stroke="none" points="-14.4,14.4 -14.4,-213.87 205.87,-213.87 205.87,14.4 -14.4,14.4"/>
<!-- 0 -->
<g id="node1" class="node">
<title>0</title>
<ellipse fill="none" stroke="black" cx="114.09" cy="-18" rx="18" ry="18"/>
<text text-anchor="middle" x="114.09" y="-13.32" font-family="Operator Mono" font-size="14.00">0</text>
</g>
<!-- 2 -->
<g id="node3" class="node">
<title>2</title>
<ellipse fill="none" stroke="black" cx="18" cy="-49.22" rx="18" ry="18"/>
<text text-anchor="middle" x="18" y="-44.55" font-family="Operator Mono" font-size="14.00">2</text>
</g>
<!-- 0&#45;&gt;2 -->
<g id="edge1" class="edge">
<title>0&#45;&gt;2</title>
<path fill="none" stroke="black" d="M95.72,-18.43C79.47,-21.85 55.8,-29.35 38.84,-36.32"/>
<polygon fill="black" stroke="black" points="38.22,-34.68 34.32,-38.26 39.6,-37.9 38.22,-34.68"/>
</g>
<!-- 3 -->
<g id="node4" class="node">
<title>3</title>
<ellipse fill="none" stroke="black" cx="173.47" cy="-99.74" rx="18" ry="18"/>
<text text-anchor="middle" x="173.47" y="-95.06" font-family="Operator Mono" font-size="14.00">3</text>
</g>
<!-- 0&#45;&gt;3 -->
<g id="edge2" class="edge">
<title>0&#45;&gt;3</title>
<path fill="none" stroke="black" d="M120.17,-35.33C128.45,-49.73 142.89,-69.93 154.76,-83.9"/>
<polygon fill="black" stroke="black" points="153.4,-85 158.01,-87.61 156.03,-82.69 153.4,-85"/>
</g>
<!-- 4 -->
<g id="node5" class="node">
<title>4</title>
<ellipse fill="none" stroke="black" cx="18" cy="-150.25" rx="18" ry="18"/>
<text text-anchor="middle" x="18" y="-145.58" font-family="Operator Mono" font-size="14.00">4</text>
</g>
<!-- 0&#45;&gt;4 -->
<g id="edge3" class="edge">
<title>0&#45;&gt;4</title>
<path fill="none" stroke="black" d="M100.27,-29.58C80.62,-51.58 45.68,-99.35 28.19,-127.79"/>
<polygon fill="black" stroke="black" points="26.79,-126.73 25.71,-131.91 29.79,-128.53 26.79,-126.73"/>
</g>
<!-- 1 -->
<g id="node2" class="node">
<title>1</title>
<ellipse fill="none" stroke="black" cx="114.09" cy="-181.47" rx="18" ry="18"/>
<text text-anchor="middle" x="114.09" y="-176.8" font-family="Operator Mono" font-size="14.00">1</text>
</g>
<!-- 1&#45;&gt;2 -->
<g id="edge4" class="edge">
<title>1&#45;&gt;2</title>
<path fill="none" stroke="black" d="M107.18,-164.48C92.23,-138.91 57.71,-91.08 36.14,-65.77"/>
<polygon fill="black" stroke="black" points="37.61,-64.79 33.01,-62.16 34.97,-67.09 37.61,-64.79"/>
</g>
<!-- 1&#45;&gt;3 -->
<g id="edge5" class="edge">
<title>1&#45;&gt;3</title>
<path fill="none" stroke="black" d="M128.69,-170.33C139.83,-158.01 154.58,-138.03 164.2,-122.42"/>
<polygon fill="black" stroke="black" points="165.66,-123.39 166.72,-118.19 162.65,-121.59 165.66,-123.39"/>
</g>
<!-- 1&#45;&gt;4 -->
<g id="edge6" class="edge">
<title>1&#45;&gt;4</title>
<path fill="none" stroke="black" d="M98.98,-171.03C83.82,-164.24 60.26,-156.39 42.44,-152.07"/>
<polygon fill="black" stroke="black" points="42.91,-150.38 37.64,-150.98 42.13,-153.79 42.91,-150.38"/>
</g>
<!-- 2&#45;&gt;0 -->
<g id="edge7" class="edge">
<title>2&#45;&gt;0</title>
<path fill="none" stroke="black" d="M36.36,-48.79C52.62,-45.37 76.29,-37.87 93.25,-30.9"/>
<polygon fill="black" stroke="black" points="93.87,-32.54 97.77,-28.96 92.49,-29.32 93.87,-32.54"/>
</g>
<!-- 2&#45;&gt;1 -->
<g id="edge8" class="edge">
<title>2&#45;&gt;1</title>
<path fill="none" stroke="black" d="M24.91,-66.21C39.86,-91.79 74.38,-139.61 95.94,-164.92"/>
<polygon fill="black" stroke="black" points="94.48,-165.91 99.08,-168.53 97.12,-163.61 94.48,-165.91"/>
</g>
<!-- 3&#45;&gt;0 -->
<g id="edge9" class="edge">
<title>3&#45;&gt;0</title>
<path fill="none" stroke="black" d="M167.39,-82.4C159.11,-68 144.67,-47.81 132.8,-33.83"/>
<polygon fill="black" stroke="black" points="134.16,-32.74 129.55,-30.13 131.53,-35.04 134.16,-32.74"/>
</g>
<!-- 3&#45;&gt;1 -->
<g id="edge10" class="edge">
<title>3&#45;&gt;1</title>
<path fill="none" stroke="black" d="M158.87,-110.88C147.73,-123.2 132.98,-143.18 123.37,-158.79"/>
<polygon fill="black" stroke="black" points="121.9,-157.83 120.84,-163.02 124.91,-159.62 121.9,-157.83"/>
</g>
<!-- 4&#45;&gt;0 -->
<g id="edge11" class="edge">
<title>4&#45;&gt;0</title>
<path fill="none" stroke="black" d="M31.82,-138.67C51.46,-116.67 86.41,-68.91 103.9,-40.46"/>
<polygon fill="black" stroke="black" points="105.3,-41.53 106.37,-36.34 102.3,-39.73 105.3,-41.53"/>
</g>
<!-- 4&#45;&gt;1 -->
<g id="edge12" class="edge">
<title>4&#45;&gt;1</title>
<path fill="none" stroke="black" d="M33.11,-160.7C48.27,-167.49 71.83,-175.34 89.64,-179.66"/>
<polygon fill="black" stroke="black" points="89.18,-181.35 94.45,-180.75 89.96,-177.94 89.18,-181.35"/>
</g>
</g>
</svg>
