<?xml version="1.0" encoding="UTF-8" standalone="no"?>
<!DOCTYPE svg PUBLIC "-//W3C//DTD SVG 1.1//EN" "http://www.w3.org/Graphics/SVG/1.1/DTD/svg11.dtd">
<!-- Generated by graphviz version 12.0.0 (20240704.0754)
 -->
<!-- Pages: 1 -->
<svg width="271pt" height="243pt" viewBox="0.00 0.00 271.06 243.43" xmlns="http://www.w3.org/2000/svg"
    xmlns:xlink="http://www.w3.org/1999/xlink">
    <g id="graph0" class="graph" transform="scale(1 1) rotate(0) translate(14.4 229.03)">
        <polygon fill="white" stroke="none" points="-14.4,14.4 -14.4,-229.03 256.66,-229.03 256.66,14.4 -14.4,14.4" />
        <!-- 0 -->
        <g id="node1" class="node">
            <title>0</title>
            <ellipse fill="none" stroke="black" cx="172.7" cy="-18" rx="18" ry="18" />
            <text text-anchor="middle" x="172.7" y="-13.32" font-family="monospace" font-size="14.00">0</text>
        </g>
        <!-- 4 -->
        <g id="node5" class="node">
            <title>4</title>
            <ellipse fill="none" stroke="black" cx="69.57" cy="-18" rx="18" ry="18" />
            <text text-anchor="middle" x="69.57" y="-13.33" font-family="monospace" font-size="14.00">4</text>
        </g>
        <!-- 0&#45;&gt;4 -->
        <g id="edge1" class="edge">
            <title>0&#45;&gt;4</title>
            <path fill="none" stroke="black" d="M147.76,-18C131.45,-18 110.23,-18 94.01,-18" />
            <polygon fill="black" stroke="black" points="147.75,-19.75 152.75,-18 147.75,-16.25 147.75,-19.75" />
            <polygon fill="black" stroke="black" points="94.36,-16.25 89.36,-18 94.36,-19.75 94.36,-16.25" />
        </g>
        <!-- 5 -->
        <g id="node6" class="node">
            <title>5</title>
            <ellipse fill="none" stroke="black" cx="172.7" cy="-196.63" rx="18" ry="18" />
            <text text-anchor="middle" x="172.7" y="-191.96" font-family="monospace" font-size="14.00">5</text>
        </g>
        <!-- 0&#45;&gt;5 -->
        <g id="edge2" class="edge">
            <title>0&#45;&gt;5</title>
            <path fill="none" stroke="black" d="M172.7,-42.86C172.7,-76.94 172.7,-137.82 172.7,-171.85" />
            <polygon fill="black" stroke="black" points="174.45,-42.96 172.7,-37.96 170.95,-42.96 174.45,-42.96" />
            <polygon fill="black" stroke="black" points="170.95,-171.77 172.7,-176.77 174.45,-171.77 170.95,-171.77" />
        </g>
        <!-- 1 -->
        <g id="node2" class="node">
            <title>1</title>
            <ellipse fill="none" stroke="black" cx="18" cy="-107.32" rx="18" ry="18" />
            <text text-anchor="middle" x="18" y="-102.64" font-family="monospace" font-size="14.00">1</text>
        </g>
        <!-- 1&#45;&gt;4 -->
        <g id="edge3" class="edge">
            <title>1&#45;&gt;4</title>
            <path fill="none" stroke="black" d="M30.47,-85.72C38.63,-71.59 49.23,-53.22 57.34,-39.17" />
            <polygon fill="black" stroke="black" points="28.96,-84.83 27.98,-90.04 31.99,-86.58 28.96,-84.83" />
            <polygon fill="black" stroke="black" points="58.69,-40.35 59.67,-35.14 55.65,-38.6 58.69,-40.35" />
        </g>
        <!-- 1&#45;&gt;5 -->
        <g id="edge4" class="edge">
            <title>1&#45;&gt;5</title>
            <path fill="none" stroke="black" d="M39.55,-119.76C69.15,-136.85 122.06,-167.39 151.49,-184.38" />
            <polygon fill="black" stroke="black" points="40.49,-118.28 35.28,-117.29 38.74,-121.31 40.49,-118.28" />
            <polygon fill="black" stroke="black" points="150.53,-185.85 155.73,-186.84 152.28,-182.82 150.53,-185.85" />
        </g>
        <!-- 2 -->
        <g id="node3" class="node">
            <title>2</title>
            <ellipse fill="none" stroke="black" cx="224.26" cy="-107.32" rx="18" ry="18" />
            <text text-anchor="middle" x="224.26" y="-102.64" font-family="monospace" font-size="14.00">2</text>
        </g>
        <!-- 2&#45;&gt;4 -->
        <g id="edge5" class="edge">
            <title>2&#45;&gt;4</title>
            <path fill="none" stroke="black" d="M202.72,-94.88C173.12,-77.79 120.2,-47.24 90.78,-30.25" />
            <polygon fill="black" stroke="black" points="201.78,-96.35 206.98,-97.34 203.53,-93.32 201.78,-96.35" />
            <polygon fill="black" stroke="black" points="91.74,-28.78 86.53,-27.8 89.99,-31.81 91.74,-28.78" />
        </g>
        <!-- 2&#45;&gt;5 -->
        <g id="edge6" class="edge">
            <title>2&#45;&gt;5</title>
            <path fill="none" stroke="black" d="M211.8,-128.91C203.64,-143.04 193.03,-161.41 184.92,-175.46" />
            <polygon fill="black" stroke="black" points="213.3,-129.8 214.29,-124.59 210.27,-128.05 213.3,-129.8" />
            <polygon fill="black" stroke="black" points="183.58,-174.29 182.59,-179.49 186.61,-176.04 183.58,-174.29" />
        </g>
        <!-- 3 -->
        <g id="node4" class="node">
            <title>3</title>
            <ellipse fill="none" stroke="black" cx="69.57" cy="-196.63" rx="18" ry="18" />
            <text text-anchor="middle" x="69.57" y="-191.96" font-family="monospace" font-size="14.00">3</text>
        </g>
        <!-- 3&#45;&gt;4 -->
        <g id="edge7" class="edge">
            <title>3&#45;&gt;4</title>
            <path fill="none" stroke="black" d="M69.57,-171.77C69.57,-137.69 69.57,-76.82 69.57,-42.78" />
            <polygon fill="black" stroke="black" points="67.82,-171.67 69.57,-176.67 71.32,-171.67 67.82,-171.67" />
            <polygon fill="black" stroke="black" points="71.32,-42.86 69.57,-37.86 67.82,-42.86 71.32,-42.86" />
        </g>
        <!-- 3&#45;&gt;5 -->
        <g id="edge8" class="edge">
            <title>3&#45;&gt;5</title>
            <path fill="none" stroke="black" d="M94.5,-196.63C110.82,-196.63 132.03,-196.63 148.25,-196.63" />
            <polygon fill="black" stroke="black" points="94.52,-194.88 89.52,-196.63 94.52,-198.38 94.52,-194.88" />
            <polygon fill="black" stroke="black" points="147.91,-198.38 152.91,-196.63 147.91,-194.88 147.91,-198.38" />
        </g>
    </g>
</svg>