<?xml version="1.0" encoding="UTF-8" standalone="no"?>
<!DOCTYPE svg PUBLIC "-//W3C//DTD SVG 1.1//EN"
 "http://www.w3.org/Graphics/SVG/1.1/DTD/svg11.dtd">
<!-- Generated by graphviz version 12.0.0 (20240704.0754)
 -->
<!-- Pages: 1 -->
<svg width="230pt" height="208pt"
 viewBox="0.00 0.00 229.81 207.70" xmlns="http://www.w3.org/2000/svg" xmlns:xlink="http://www.w3.org/1999/xlink">
<g id="graph0" class="graph" transform="scale(1 1) rotate(0) translate(14.4 193.3)">
<polygon fill="white" stroke="none" points="-14.4,14.4 -14.4,-193.3 215.41,-193.3 215.41,14.4 -14.4,14.4"/>
<!-- 0 -->
<g id="node1" class="node">
<title>0</title>
<ellipse fill="none" stroke="black" cx="18" cy="-89.45" rx="18" ry="18"/>
<text text-anchor="middle" x="18" y="-84.78" font-family="monospace" font-size="14.00">0</text>
</g>
<!-- 3 -->
<g id="node4" class="node">
<title>3</title>
<ellipse fill="none" stroke="black" cx="183.01" cy="-89.45" rx="18" ry="18"/>
<text text-anchor="middle" x="183.01" y="-84.78" font-family="monospace" font-size="14.00">3</text>
</g>
<!-- 0&#45;&gt;3 -->
<g id="edge1" class="edge">
<title>0&#45;&gt;3</title>
<path fill="none" stroke="black" d="M43.45,-89.45C74.35,-89.45 126.17,-89.45 157.22,-89.45"/>
<polygon fill="black" stroke="black" points="43.8,-87.35 37.8,-89.45 43.8,-91.55 43.8,-87.35"/>
<polygon fill="black" stroke="black" points="157.13,-91.55 163.13,-89.45 157.13,-87.35 157.13,-91.55"/>
</g>
<!-- 4 -->
<g id="node5" class="node">
<title>4</title>
<ellipse fill="none" stroke="black" cx="59.25" cy="-18" rx="18" ry="18"/>
<text text-anchor="middle" x="59.25" y="-13.32" font-family="monospace" font-size="14.00">4</text>
</g>
<!-- 0&#45;&gt;4 -->
<g id="edge2" class="edge">
<title>0&#45;&gt;4</title>
<path fill="none" stroke="black" d="M30.87,-67.15C35.85,-58.54 41.53,-48.7 46.49,-40.11"/>
<polygon fill="black" stroke="black" points="29.09,-66.04 27.91,-72.28 32.73,-68.14 29.09,-66.04"/>
<polygon fill="black" stroke="black" points="48.19,-41.37 49.37,-35.12 44.55,-39.27 48.19,-41.37"/>
</g>
<!-- 5 -->
<g id="node6" class="node">
<title>5</title>
<ellipse fill="none" stroke="black" cx="59.25" cy="-160.9" rx="18" ry="18"/>
<text text-anchor="middle" x="59.25" y="-156.23" font-family="monospace" font-size="14.00">5</text>
</g>
<!-- 0&#45;&gt;5 -->
<g id="edge3" class="edge">
<title>0&#45;&gt;5</title>
<path fill="none" stroke="black" d="M30.87,-111.75C35.85,-120.37 41.53,-130.2 46.49,-138.8"/>
<polygon fill="black" stroke="black" points="32.73,-110.77 27.91,-106.62 29.09,-112.87 32.73,-110.77"/>
<polygon fill="black" stroke="black" points="44.55,-139.63 49.37,-143.78 48.19,-137.53 44.55,-139.63"/>
</g>
<!-- 1 -->
<g id="node2" class="node">
<title>1</title>
<ellipse fill="none" stroke="black" cx="141.76" cy="-160.9" rx="18" ry="18"/>
<text text-anchor="middle" x="141.76" y="-156.23" font-family="monospace" font-size="14.00">1</text>
</g>
<!-- 1&#45;&gt;3 -->
<g id="edge4" class="edge">
<title>1&#45;&gt;3</title>
<path fill="none" stroke="black" d="M154.63,-138.61C159.61,-129.99 165.29,-120.16 170.25,-111.56"/>
<polygon fill="black" stroke="black" points="152.85,-137.49 151.67,-143.74 156.49,-139.59 152.85,-137.49"/>
<polygon fill="black" stroke="black" points="171.94,-112.82 173.13,-106.58 168.31,-110.72 171.94,-112.82"/>
</g>
<!-- 1&#45;&gt;4 -->
<g id="edge5" class="edge">
<title>1&#45;&gt;4</title>
<path fill="none" stroke="black" d="M129.03,-138.87C113.59,-112.11 87.68,-67.23 72.15,-40.34"/>
<polygon fill="black" stroke="black" points="127.04,-139.61 131.86,-143.75 130.68,-137.51 127.04,-139.61"/>
<polygon fill="black" stroke="black" points="74.01,-39.37 69.2,-35.22 70.38,-41.47 74.01,-39.37"/>
</g>
<!-- 1&#45;&gt;5 -->
<g id="edge6" class="edge">
<title>1&#45;&gt;5</title>
<path fill="none" stroke="black" d="M116.01,-160.9C106.06,-160.9 94.71,-160.9 84.78,-160.9"/>
<polygon fill="black" stroke="black" points="115.93,-163 121.93,-160.9 115.93,-158.8 115.93,-163"/>
<polygon fill="black" stroke="black" points="85.03,-158.8 79.03,-160.9 85.03,-163 85.03,-158.8"/>
</g>
<!-- 2 -->
<g id="node3" class="node">
<title>2</title>
<ellipse fill="none" stroke="black" cx="141.76" cy="-18" rx="18" ry="18"/>
<text text-anchor="middle" x="141.76" y="-13.33" font-family="monospace" font-size="14.00">2</text>
</g>
<!-- 2&#45;&gt;3 -->
<g id="edge7" class="edge">
<title>2&#45;&gt;3</title>
<path fill="none" stroke="black" d="M154.63,-40.3C159.61,-48.91 165.29,-58.75 170.25,-67.35"/>
<polygon fill="black" stroke="black" points="156.49,-39.31 151.67,-35.17 152.85,-41.41 156.49,-39.31"/>
<polygon fill="black" stroke="black" points="168.31,-68.18 173.13,-72.33 171.94,-66.08 168.31,-68.18"/>
</g>
<!-- 2&#45;&gt;4 -->
<g id="edge8" class="edge">
<title>2&#45;&gt;4</title>
<path fill="none" stroke="black" d="M116.01,-18C106.06,-18 94.71,-18 84.78,-18"/>
<polygon fill="black" stroke="black" points="115.93,-20.1 121.93,-18 115.93,-15.9 115.93,-20.1"/>
<polygon fill="black" stroke="black" points="85.03,-15.9 79.03,-18 85.03,-20.1 85.03,-15.9"/>
</g>
<!-- 2&#45;&gt;5 -->
<g id="edge9" class="edge">
<title>2&#45;&gt;5</title>
<path fill="none" stroke="black" d="M129.03,-40.04C113.59,-66.8 87.68,-111.67 72.15,-138.57"/>
<polygon fill="black" stroke="black" points="130.68,-41.4 131.86,-35.15 127.04,-39.3 130.68,-41.4"/>
<polygon fill="black" stroke="black" points="70.38,-137.44 69.2,-143.68 74.01,-139.54 70.38,-137.44"/>
</g>
</g>
</svg>
