<?xml version="1.0" encoding="UTF-8" standalone="no"?>
<!DOCTYPE svg PUBLIC "-//W3C//DTD SVG 1.1//EN"
 "http://www.w3.org/Graphics/SVG/1.1/DTD/svg11.dtd">
<!-- Generated by graphviz version 12.0.0 (20240704.0754)
 -->
<!-- Pages: 1 -->
<svg width="230pt" height="208pt"
 viewBox="0.00 0.00 229.81 207.70" xmlns="http://www.w3.org/2000/svg" xmlns:xlink="http://www.w3.org/1999/xlink">
<g id="graph0" class="graph" transform="scale(1 1) rotate(0) translate(14.4 193.3)">
<polygon fill="white" stroke="none" points="-14.4,14.4 -14.4,-193.3 215.41,-193.3 215.41,14.4 -14.4,14.4"/>
<!-- 0 -->
<g id="node1" class="node">
<title>0</title>
<ellipse fill="none" stroke="black" cx="59.25" cy="-160.9" rx="18" ry="18"/>
<text text-anchor="middle" x="59.25" y="-156.23" font-family="monospace" font-size="14.00">0</text>
</g>
<!-- 4 -->
<g id="node5" class="node">
<title>4</title>
<ellipse fill="none" stroke="black" cx="141.76" cy="-160.9" rx="18" ry="18"/>
<text text-anchor="middle" x="141.76" y="-156.23" font-family="monospace" font-size="14.00">4</text>
</g>
<!-- 0&#45;&gt;4 -->
<g id="edge1" class="edge">
<title>0&#45;&gt;4</title>
<path fill="none" stroke="black" d="M85,-160.9C94.95,-160.9 106.31,-160.9 116.23,-160.9"/>
<polygon fill="black" stroke="black" points="85.08,-158.8 79.08,-160.9 85.08,-163 85.08,-158.8"/>
<polygon fill="black" stroke="black" points="115.99,-163 121.99,-160.9 115.99,-158.8 115.99,-163"/>
</g>
<!-- 5 -->
<g id="node6" class="node">
<title>5</title>
<ellipse fill="none" stroke="black" cx="59.25" cy="-18" rx="18" ry="18"/>
<text text-anchor="middle" x="59.25" y="-13.33" font-family="monospace" font-size="14.00">5</text>
</g>
<!-- 0&#45;&gt;5 -->
<g id="edge2" class="edge">
<title>0&#45;&gt;5</title>
<path fill="none" stroke="black" d="M59.25,-135.31C59.25,-109.37 59.25,-69.48 59.25,-43.56"/>
<polygon fill="black" stroke="black" points="57.15,-135 59.25,-141 61.35,-135 57.15,-135"/>
<polygon fill="black" stroke="black" points="61.35,-43.83 59.25,-37.83 57.15,-43.83 61.35,-43.83"/>
</g>
<!-- 1 -->
<g id="node2" class="node">
<title>1</title>
<ellipse fill="none" stroke="black" cx="183.01" cy="-89.45" rx="18" ry="18"/>
<text text-anchor="middle" x="183.01" y="-84.78" font-family="monospace" font-size="14.00">1</text>
</g>
<!-- 1&#45;&gt;4 -->
<g id="edge3" class="edge">
<title>1&#45;&gt;4</title>
<path fill="none" stroke="black" d="M170.14,-111.75C165.16,-120.37 159.49,-130.2 154.52,-138.8"/>
<polygon fill="black" stroke="black" points="171.92,-112.87 173.1,-106.62 168.28,-110.77 171.92,-112.87"/>
<polygon fill="black" stroke="black" points="152.83,-137.53 151.65,-143.78 156.46,-139.63 152.83,-137.53"/>
</g>
<!-- 1&#45;&gt;5 -->
<g id="edge4" class="edge">
<title>1&#45;&gt;5</title>
<path fill="none" stroke="black" d="M160.84,-76.65C138.38,-63.69 103.84,-43.74 81.39,-30.78"/>
<polygon fill="black" stroke="black" points="159.53,-78.32 165.78,-79.5 161.63,-74.68 159.53,-78.32"/>
<polygon fill="black" stroke="black" points="82.67,-29.1 76.43,-27.92 80.57,-32.74 82.67,-29.1"/>
</g>
<!-- 2 -->
<g id="node3" class="node">
<title>2</title>
<ellipse fill="none" stroke="black" cx="18" cy="-89.45" rx="18" ry="18"/>
<text text-anchor="middle" x="18" y="-84.78" font-family="monospace" font-size="14.00">2</text>
</g>
<!-- 2&#45;&gt;4 -->
<g id="edge5" class="edge">
<title>2&#45;&gt;4</title>
<path fill="none" stroke="black" d="M40.17,-102.25C62.63,-115.22 97.17,-135.16 119.62,-148.12"/>
<polygon fill="black" stroke="black" points="41.48,-100.59 35.24,-99.4 39.38,-104.22 41.48,-100.59"/>
<polygon fill="black" stroke="black" points="118.34,-149.81 124.58,-150.99 120.44,-146.17 118.34,-149.81"/>
</g>
<!-- 2&#45;&gt;5 -->
<g id="edge6" class="edge">
<title>2&#45;&gt;5</title>
<path fill="none" stroke="black" d="M30.87,-67.15C35.85,-58.54 41.53,-48.7 46.49,-40.11"/>
<polygon fill="black" stroke="black" points="29.09,-66.04 27.91,-72.28 32.73,-68.14 29.09,-66.04"/>
<polygon fill="black" stroke="black" points="48.19,-41.37 49.37,-35.12 44.55,-39.27 48.19,-41.37"/>
</g>
<!-- 3 -->
<g id="node4" class="node">
<title>3</title>
<ellipse fill="none" stroke="black" cx="141.76" cy="-18" rx="18" ry="18"/>
<text text-anchor="middle" x="141.76" y="-13.33" font-family="monospace" font-size="14.00">3</text>
</g>
<!-- 3&#45;&gt;4 -->
<g id="edge7" class="edge">
<title>3&#45;&gt;4</title>
<path fill="none" stroke="black" d="M141.76,-43.6C141.76,-69.53 141.76,-109.42 141.76,-135.34"/>
<polygon fill="black" stroke="black" points="143.86,-43.9 141.76,-37.9 139.66,-43.9 143.86,-43.9"/>
<polygon fill="black" stroke="black" points="139.66,-135.07 141.76,-141.07 143.86,-135.07 139.66,-135.07"/>
</g>
<!-- 3&#45;&gt;5 -->
<g id="edge8" class="edge">
<title>3&#45;&gt;5</title>
<path fill="none" stroke="black" d="M116.01,-18C106.06,-18 94.71,-18 84.78,-18"/>
<polygon fill="black" stroke="black" points="115.93,-20.1 121.93,-18 115.93,-15.9 115.93,-20.1"/>
<polygon fill="black" stroke="black" points="85.03,-15.9 79.03,-18 85.03,-20.1 85.03,-15.9"/>
</g>
</g>
</svg>
