<?xml version="1.0" encoding="UTF-8" standalone="no"?>
<!DOCTYPE svg PUBLIC "-//W3C//DTD SVG 1.1//EN"
 "http://www.w3.org/Graphics/SVG/1.1/DTD/svg11.dtd">
<!-- Generated by graphviz version 12.0.0 (20240704.0754)
 -->
<!-- Pages: 1 -->
<svg width="226pt" height="200pt"
 viewBox="0.00 0.00 225.84 200.29" xmlns="http://www.w3.org/2000/svg" xmlns:xlink="http://www.w3.org/1999/xlink">
<g id="graph0" class="graph" transform="scale(1 1) rotate(0) translate(14.4 185.89)">
<polygon fill="white" stroke="none" points="-14.4,14.4 -14.4,-185.89 211.44,-185.89 211.44,14.4 -14.4,14.4"/>
<!-- 0 -->
<g id="node1" class="node">
<title>0</title>
<ellipse fill="salmon" stroke="salmon" cx="56.4" cy="-18" rx="18" ry="18"/>
<text text-anchor="middle" x="56.4" y="-13.33" font-family="monospace" font-size="14.00" fill="white">0</text>
</g>
<!-- 3 -->
<g id="node4" class="node">
<title>3</title>
<ellipse fill="skyblue" stroke="skyblue" cx="144.93" cy="-18" rx="18" ry="18"/>
<text text-anchor="middle" x="144.93" y="-13.32" font-family="monospace" font-size="14.00" fill="white">3</text>
</g>
<!-- 0&#45;&gt;3 -->
<g id="edge1" class="edge">
<title>0&#45;&gt;3</title>
<path fill="none" stroke="black" d="M81.89,-18C93.61,-18 107.49,-18 119.24,-18"/>
<polygon fill="black" stroke="black" points="82.26,-15.9 76.26,-18 82.26,-20.1 82.26,-15.9"/>
<polygon fill="black" stroke="black" points="119.1,-20.1 125.1,-18 119.1,-15.9 119.1,-20.1"/>
</g>
<!-- 4 -->
<g id="node5" class="node">
<title>4</title>
<ellipse fill="skyblue" stroke="skyblue" cx="179.04" cy="-76.34" rx="18" ry="18"/>
<text text-anchor="middle" x="179.04" y="-71.66" font-family="monospace" font-size="14.00" fill="white">4</text>
</g>
<!-- 0&#45;&gt;4 -->
<g id="edge2" class="edge">
<title>0&#45;&gt;4</title>
<path fill="none" stroke="black" d="M79.69,-29.08C101.48,-39.44 133.87,-54.85 155.68,-65.23"/>
<polygon fill="black" stroke="black" points="80.63,-27.2 74.31,-26.52 78.82,-30.99 80.63,-27.2"/>
<polygon fill="black" stroke="black" points="154.68,-67.08 161,-67.76 156.48,-63.29 154.68,-67.08"/>
</g>
<!-- 5 -->
<g id="node6" class="node">
<title>5</title>
<ellipse fill="skyblue" stroke="skyblue" cx="18" cy="-131.34" rx="18" ry="18"/>
<text text-anchor="middle" x="18" y="-126.67" font-family="monospace" font-size="14.00" fill="white">5</text>
</g>
<!-- 0&#45;&gt;5 -->
<g id="edge3" class="edge">
<title>0&#45;&gt;5</title>
<path fill="none" stroke="black" d="M48.23,-42.13C41.75,-61.25 32.74,-87.84 26.24,-107.01"/>
<polygon fill="black" stroke="black" points="50.15,-43 50.08,-36.65 46.17,-41.66 50.15,-43"/>
<polygon fill="black" stroke="black" points="24.31,-106.17 24.37,-112.53 28.29,-107.52 24.31,-106.17"/>
</g>
<!-- 1 -->
<g id="node2" class="node">
<title>1</title>
<ellipse fill="salmon" stroke="salmon" cx="87.31" cy="-90.81" rx="18" ry="18"/>
<text text-anchor="middle" x="87.31" y="-86.14" font-family="monospace" font-size="14.00" fill="white">1</text>
</g>
<!-- 1&#45;&gt;3 -->
<g id="edge4" class="edge">
<title>1&#45;&gt;3</title>
<path fill="none" stroke="black" d="M103.2,-70.73C111.26,-60.56 121,-48.24 129.05,-38.06"/>
<polygon fill="black" stroke="black" points="101.71,-69.23 99.64,-75.24 105.01,-71.84 101.71,-69.23"/>
<polygon fill="black" stroke="black" points="130.56,-39.55 132.63,-33.54 127.26,-36.94 130.56,-39.55"/>
</g>
<!-- 1&#45;&gt;4 -->
<g id="edge5" class="edge">
<title>1&#45;&gt;4</title>
<path fill="none" stroke="black" d="M112.61,-86.82C125.43,-84.8 140.95,-82.35 153.76,-80.33"/>
<polygon fill="black" stroke="black" points="112.53,-84.71 106.93,-87.72 113.18,-88.86 112.53,-84.71"/>
<polygon fill="black" stroke="black" points="153.86,-82.44 159.46,-79.43 153.2,-78.29 153.86,-82.44"/>
</g>
<!-- 1&#45;&gt;5 -->
<g id="edge6" class="edge">
<title>1&#45;&gt;5</title>
<path fill="none" stroke="black" d="M65.14,-103.78C57.13,-108.46 48.1,-113.74 40.1,-118.42"/>
<polygon fill="black" stroke="black" points="66.16,-105.61 70.28,-100.77 64.04,-101.99 66.16,-105.61"/>
<polygon fill="black" stroke="black" points="39.09,-116.58 34.97,-121.42 41.21,-120.2 39.09,-116.58"/>
</g>
<!-- 2 -->
<g id="node3" class="node">
<title>2</title>
<ellipse fill="salmon" stroke="salmon" cx="135.62" cy="-153.49" rx="18" ry="18"/>
<text text-anchor="middle" x="135.62" y="-148.82" font-family="monospace" font-size="14.00" fill="white">2</text>
</g>
<!-- 2&#45;&gt;3 -->
<g id="edge7" class="edge">
<title>2&#45;&gt;3</title>
<path fill="none" stroke="black" d="M137.39,-127.77C139.04,-103.69 141.5,-67.91 143.16,-43.8"/>
<polygon fill="black" stroke="black" points="135.29,-127.58 136.98,-133.71 139.48,-127.87 135.29,-127.58"/>
<polygon fill="black" stroke="black" points="145.24,-44.06 143.56,-37.93 141.05,-43.77 145.24,-44.06"/>
</g>
<!-- 2&#45;&gt;4 -->
<g id="edge8" class="edge">
<title>2&#45;&gt;4</title>
<path fill="none" stroke="black" d="M148.12,-131.28C153.87,-121.06 160.67,-108.97 166.44,-98.73"/>
<polygon fill="black" stroke="black" points="146.47,-129.93 145.36,-136.19 150.13,-131.99 146.47,-129.93"/>
<polygon fill="black" stroke="black" points="168.2,-99.88 169.31,-93.62 164.54,-97.82 168.2,-99.88"/>
</g>
<!-- 2&#45;&gt;5 -->
<g id="edge9" class="edge">
<title>2&#45;&gt;5</title>
<path fill="none" stroke="black" d="M110.31,-148.72C90.45,-144.98 62.94,-139.8 43.13,-136.07"/>
<polygon fill="black" stroke="black" points="109.72,-150.75 116.01,-149.8 110.5,-146.62 109.72,-150.75"/>
<polygon fill="black" stroke="black" points="43.72,-134.05 37.43,-135 42.94,-138.17 43.72,-134.05"/>
</g>
</g>
</svg>
