<?xml version="1.0" encoding="UTF-8" standalone="no"?>
<!DOCTYPE svg PUBLIC "-//W3C//DTD SVG 1.1//EN"
 "http://www.w3.org/Graphics/SVG/1.1/DTD/svg11.dtd">
<!-- Generated by graphviz version 12.0.0 (20240704.0754)
 -->
<!-- Pages: 1 -->
<svg width="175pt" height="175pt"
 viewBox="0.00 0.00 174.81 174.81" xmlns="http://www.w3.org/2000/svg" xmlns:xlink="http://www.w3.org/1999/xlink">
<g id="graph0" class="graph" transform="scale(1 1) rotate(0) translate(14.4 160.41)">
<polygon fill="white" stroke="none" points="-14.4,14.4 -14.4,-160.41 160.41,-160.41 160.41,14.4 -14.4,14.4"/>
<!-- 0 -->
<g id="node1" class="node">
<title>0</title>
<ellipse fill="none" stroke="black" cx="73" cy="-18" rx="18" ry="18"/>
<text text-anchor="middle" x="73" y="-13.33" font-family="monospace" font-size="14.00">0</text>
</g>
<!-- 1 -->
<g id="node2" class="node">
<title>1</title>
<ellipse fill="none" stroke="black" cx="18" cy="-73" rx="18" ry="18"/>
<text text-anchor="middle" x="18" y="-68.33" font-family="monospace" font-size="14.00">1</text>
</g>
<!-- 0&#45;&gt;1 -->
<g id="edge1" class="edge">
<title>0&#45;&gt;1</title>
<path fill="none" stroke="black" d="M59.97,-31.04C52.84,-38.16 43.91,-47.09 36.12,-54.89"/>
<polygon fill="black" stroke="black" points="34.77,-53.26 32.01,-58.99 37.74,-56.23 34.77,-53.26"/>
</g>
<!-- 2 -->
<g id="node3" class="node">
<title>2</title>
<ellipse fill="none" stroke="black" cx="73" cy="-128.01" rx="18" ry="18"/>
<text text-anchor="middle" x="73" y="-123.33" font-family="monospace" font-size="14.00">2</text>
</g>
<!-- 1&#45;&gt;2 -->
<g id="edge2" class="edge">
<title>1&#45;&gt;2</title>
<path fill="none" stroke="black" d="M31.04,-86.04C38.16,-93.16 47.09,-102.1 54.89,-109.89"/>
<polygon fill="black" stroke="black" points="53.26,-111.24 58.99,-114 56.23,-108.27 53.26,-111.24"/>
</g>
<!-- 3 -->
<g id="node4" class="node">
<title>3</title>
<ellipse fill="none" stroke="black" cx="128.01" cy="-73" rx="18" ry="18"/>
<text text-anchor="middle" x="128.01" y="-68.33" font-family="monospace" font-size="14.00">3</text>
</g>
<!-- 2&#45;&gt;3 -->
<g id="edge3" class="edge">
<title>2&#45;&gt;3</title>
<path fill="none" stroke="black" d="M86.04,-114.97C93.16,-107.85 102.1,-98.91 109.89,-91.12"/>
<polygon fill="black" stroke="black" points="111.24,-92.74 114,-87.02 108.27,-89.77 111.24,-92.74"/>
</g>
<!-- 3&#45;&gt;0 -->
<g id="edge4" class="edge">
<title>3&#45;&gt;0</title>
<path fill="none" stroke="black" d="M114.97,-59.97C107.85,-52.84 98.91,-43.91 91.12,-36.12"/>
<polygon fill="black" stroke="black" points="92.74,-34.77 87.02,-32.01 89.77,-37.74 92.74,-34.77"/>
</g>
</g>
</svg>
