<?xml version="1.0" encoding="UTF-8" standalone="no"?>
<!DOCTYPE svg PUBLIC "-//W3C//DTD SVG 1.1//EN"
 "http://www.w3.org/Graphics/SVG/1.1/DTD/svg11.dtd">
<!-- Generated by graphviz version 12.0.0 (20240704.0754)
 -->
<!-- Pages: 1 -->
<svg width="131pt" height="131pt"
 viewBox="0.00 0.00 130.87 130.95" xmlns="http://www.w3.org/2000/svg" xmlns:xlink="http://www.w3.org/1999/xlink">
<g id="graph0" class="graph" transform="scale(1 1) rotate(0) translate(4 126.95)">
<polygon fill="white" stroke="none" points="-4,4 -4,-126.95 126.87,-126.95 126.87,4 -4,4"/>
<!-- 0 -->
<g id="node1" class="node">
<title>0</title>
<ellipse fill="none" stroke="black" cx="18" cy="-61.45" rx="18" ry="18"/>
<text text-anchor="middle" x="18" y="-56.78" font-family="Operator Mono" font-size="14.00">0</text>
</g>
<!-- 1 -->
<g id="node2" class="node">
<title>1</title>
<ellipse fill="none" stroke="black" cx="104.87" cy="-61.45" rx="18" ry="18"/>
<text text-anchor="middle" x="104.87" y="-56.78" font-family="Operator Mono" font-size="14.00">1</text>
</g>
<!-- 0&#45;&gt;1 -->
<g id="edge1" class="edge">
<title>0&#45;&gt;1</title>
<path fill="none" stroke="black" d="M42.58,-61.45C54.35,-61.45 68.41,-61.45 80.19,-61.45"/>
<polygon fill="black" stroke="black" points="42.94,-59.7 37.94,-61.45 42.94,-63.2 42.94,-59.7"/>
<polygon fill="black" stroke="black" points="79.96,-63.2 84.96,-61.45 79.96,-59.7 79.96,-63.2"/>
</g>
<!-- 2 -->
<g id="node3" class="node">
<title>2</title>
<ellipse fill="none" stroke="black" cx="61.4" cy="-18" rx="18" ry="18"/>
<text text-anchor="middle" x="61.4" y="-13.32" font-family="Operator Mono" font-size="14.00">2</text>
</g>
<!-- 0&#45;&gt;2 -->
<g id="edge2" class="edge">
<title>0&#45;&gt;2</title>
<path fill="none" stroke="black" d="M35.14,-44.3C38.07,-41.36 41.12,-38.3 44.06,-35.36"/>
<polygon fill="black" stroke="black" points="34.15,-42.81 31.86,-47.58 36.63,-45.28 34.15,-42.81"/>
<polygon fill="black" stroke="black" points="45.19,-36.71 47.48,-31.93 42.71,-34.23 45.19,-36.71"/>
</g>
<!-- 3 -->
<g id="node4" class="node">
<title>3</title>
<ellipse fill="none" stroke="black" cx="61.39" cy="-104.95" rx="18" ry="18"/>
<text text-anchor="middle" x="61.39" y="-100.28" font-family="Operator Mono" font-size="14.00">3</text>
</g>
<!-- 0&#45;&gt;3 -->
<g id="edge3" class="edge">
<title>0&#45;&gt;3</title>
<path fill="none" stroke="black" d="M35.13,-78.63C38.07,-81.57 41.12,-84.63 44.06,-87.57"/>
<polygon fill="black" stroke="black" points="36.62,-77.64 31.85,-75.34 34.15,-80.12 36.62,-77.64"/>
<polygon fill="black" stroke="black" points="42.71,-88.7 47.48,-91.01 45.19,-86.23 42.71,-88.7"/>
</g>
<!-- 1&#45;&gt;2 -->
<g id="edge4" class="edge">
<title>1&#45;&gt;2</title>
<path fill="none" stroke="black" d="M87.71,-44.3C84.77,-41.36 81.71,-38.3 78.77,-35.36"/>
<polygon fill="black" stroke="black" points="86.22,-45.28 90.99,-47.58 88.69,-42.81 86.22,-45.28"/>
<polygon fill="black" stroke="black" points="80.11,-34.23 75.33,-31.93 77.63,-36.7 80.11,-34.23"/>
</g>
<!-- 1&#45;&gt;3 -->
<g id="edge5" class="edge">
<title>1&#45;&gt;3</title>
<path fill="none" stroke="black" d="M87.7,-78.63C84.76,-81.57 81.71,-84.63 78.76,-87.57"/>
<polygon fill="black" stroke="black" points="88.69,-80.11 90.99,-75.34 86.22,-77.64 88.69,-80.11"/>
<polygon fill="black" stroke="black" points="77.63,-86.23 75.33,-91.01 80.1,-88.71 77.63,-86.23"/>
</g>
<!-- 2&#45;&gt;3 -->
<g id="edge6" class="edge">
<title>2&#45;&gt;3</title>
<path fill="none" stroke="black" d="M61.39,-42.6C61.39,-54.38 61.39,-68.46 61.39,-80.25"/>
<polygon fill="black" stroke="black" points="63.14,-42.95 61.4,-37.95 59.64,-42.95 63.14,-42.95"/>
<polygon fill="black" stroke="black" points="59.64,-80.02 61.39,-85.02 63.14,-80.02 59.64,-80.02"/>
</g>
</g>
</svg>
