<?xml version="1.0" encoding="UTF-8" standalone="no"?>
<!DOCTYPE svg PUBLIC "-//W3C//DTD SVG 1.1//EN"
 "http://www.w3.org/Graphics/SVG/1.1/DTD/svg11.dtd">
<!-- Generated by graphviz version 12.0.0 (20240704.0754)
 -->
<!-- Pages: 1 -->
<svg width="202pt" height="202pt"
 viewBox="0.00 0.00 202.31 202.31" xmlns="http://www.w3.org/2000/svg" xmlns:xlink="http://www.w3.org/1999/xlink">
<g id="graph0" class="graph" transform="scale(1 1) rotate(0) translate(14.4 187.91)">
<polygon fill="white" stroke="none" points="-14.4,14.4 -14.4,-187.91 187.91,-187.91 187.91,14.4 -14.4,14.4"/>
<!-- 0 -->
<g id="node1" class="node">
<title>0</title>
<ellipse fill="none" stroke="black" cx="86.75" cy="-18" rx="18" ry="18"/>
<text text-anchor="middle" x="86.75" y="-13.32" font-family="monospace" font-size="14.00">0</text>
</g>
<!-- 1 -->
<g id="node2" class="node">
<title>1</title>
<ellipse fill="none" stroke="black" cx="155.51" cy="-86.75" rx="18" ry="18"/>
<text text-anchor="middle" x="155.51" y="-82.08" font-family="monospace" font-size="14.00">1</text>
</g>
<!-- 0&#45;&gt;1 -->
<g id="edge1" class="edge">
<title>0&#45;&gt;1</title>
<path fill="none" stroke="black" d="M104.88,-36.12C114.9,-46.14 127.31,-58.56 137.34,-68.59"/>
<polygon fill="black" stroke="black" points="106.49,-34.76 100.76,-32 103.52,-37.73 106.49,-34.76"/>
<polygon fill="black" stroke="black" points="135.84,-70.05 141.57,-72.81 138.81,-67.08 135.84,-70.05"/>
</g>
<!-- 2 -->
<g id="node3" class="node">
<title>2</title>
<ellipse fill="none" stroke="black" cx="86.75" cy="-155.51" rx="18" ry="18"/>
<text text-anchor="middle" x="86.75" y="-150.83" font-family="monospace" font-size="14.00">2</text>
</g>
<!-- 0&#45;&gt;2 -->
<g id="edge2" class="edge">
<title>0&#45;&gt;2</title>
<path fill="none" stroke="black" d="M86.75,-43.5C86.75,-68.15 86.75,-105.28 86.75,-129.95"/>
<polygon fill="black" stroke="black" points="88.86,-43.77 86.75,-37.77 84.66,-43.77 88.86,-43.77"/>
<polygon fill="black" stroke="black" points="84.66,-129.66 86.75,-135.66 88.86,-129.66 84.66,-129.66"/>
</g>
<!-- 3 -->
<g id="node4" class="node">
<title>3</title>
<ellipse fill="none" stroke="black" cx="18" cy="-86.75" rx="18" ry="18"/>
<text text-anchor="middle" x="18" y="-82.08" font-family="monospace" font-size="14.00">3</text>
</g>
<!-- 0&#45;&gt;3 -->
<g id="edge3" class="edge">
<title>0&#45;&gt;3</title>
<path fill="none" stroke="black" d="M68.63,-36.12C58.61,-46.14 46.2,-58.56 36.17,-68.59"/>
<polygon fill="black" stroke="black" points="69.99,-37.73 72.75,-32 67.02,-34.76 69.99,-37.73"/>
<polygon fill="black" stroke="black" points="34.7,-67.08 31.94,-72.81 37.67,-70.05 34.7,-67.08"/>
</g>
<!-- 1&#45;&gt;2 -->
<g id="edge4" class="edge">
<title>1&#45;&gt;2</title>
<path fill="none" stroke="black" d="M137.39,-104.88C127.37,-114.9 114.95,-127.31 104.92,-137.34"/>
<polygon fill="black" stroke="black" points="138.75,-106.49 141.51,-100.76 135.78,-103.52 138.75,-106.49"/>
<polygon fill="black" stroke="black" points="103.46,-135.84 100.7,-141.57 106.43,-138.81 103.46,-135.84"/>
</g>
<!-- 1&#45;&gt;3 -->
<g id="edge5" class="edge">
<title>1&#45;&gt;3</title>
<path fill="none" stroke="black" d="M130.01,-86.75C105.36,-86.75 68.23,-86.75 43.56,-86.75"/>
<polygon fill="black" stroke="black" points="129.74,-88.86 135.74,-86.75 129.74,-84.66 129.74,-88.86"/>
<polygon fill="black" stroke="black" points="43.85,-84.66 37.85,-86.75 43.85,-88.86 43.85,-84.66"/>
</g>
<!-- 2&#45;&gt;3 -->
<g id="edge6" class="edge">
<title>2&#45;&gt;3</title>
<path fill="none" stroke="black" d="M68.63,-137.39C58.61,-127.37 46.2,-114.95 36.17,-104.92"/>
<polygon fill="black" stroke="black" points="67.02,-138.75 72.75,-141.51 69.99,-135.78 67.02,-138.75"/>
<polygon fill="black" stroke="black" points="37.67,-103.46 31.94,-100.7 34.7,-106.43 37.67,-103.46"/>
</g>
</g>
</svg>
