<?xml version="1.0" encoding="UTF-8" standalone="no"?>
<!DOCTYPE svg PUBLIC "-//W3C//DTD SVG 1.1//EN"
 "http://www.w3.org/Graphics/SVG/1.1/DTD/svg11.dtd">
<!-- Generated by graphviz version 12.0.0 (20240704.0754)
 -->
<!-- Pages: 1 -->
<svg width="202pt" height="202pt"
 viewBox="0.00 0.00 202.31 202.31" xmlns="http://www.w3.org/2000/svg" xmlns:xlink="http://www.w3.org/1999/xlink">
<g id="graph0" class="graph" transform="scale(1 1) rotate(0) translate(14.4 187.91)">
<polygon fill="white" stroke="none" points="-14.4,14.4 -14.4,-187.91 187.91,-187.91 187.91,14.4 -14.4,14.4"/>
<!-- 0 -->
<g id="node1" class="node">
<title>0</title>
<ellipse fill="none" stroke="black" cx="86.75" cy="-18" rx="18" ry="18"/>
<text text-anchor="middle" x="86.75" y="-13.32" font-family="monospace" font-size="14.00">0</text>
</g>
<!-- 1 -->
<g id="node2" class="node">
<title>1</title>
<ellipse fill="none" stroke="black" cx="155.51" cy="-86.75" rx="18" ry="18"/>
<text text-anchor="middle" x="155.51" y="-82.08" font-family="monospace" font-size="14.00">1</text>
</g>
<!-- 0&#45;&gt;1 -->
<g id="edge1" class="edge">
<title>0&#45;&gt;1</title>
<path fill="none" stroke="black" d="M104.24,-35.49C114.62,-45.86 127.72,-58.97 138.09,-69.33"/>
<polygon fill="black" stroke="black" points="105.53,-34.3 100.76,-32 103.06,-36.78 105.53,-34.3"/>
<polygon fill="black" stroke="black" points="136.79,-70.51 141.57,-72.81 139.27,-68.04 136.79,-70.51"/>
</g>
<!-- 2 -->
<g id="node3" class="node">
<title>2</title>
<ellipse fill="none" stroke="black" cx="86.75" cy="-155.51" rx="18" ry="18"/>
<text text-anchor="middle" x="86.75" y="-150.83" font-family="monospace" font-size="14.00">2</text>
</g>
<!-- 0&#45;&gt;2 -->
<g id="edge2" class="edge">
<title>0&#45;&gt;2</title>
<path fill="none" stroke="black" d="M86.75,-42.46C86.75,-67.38 86.75,-105.81 86.75,-130.81"/>
<polygon fill="black" stroke="black" points="88.51,-42.77 86.75,-37.77 85.01,-42.77 88.51,-42.77"/>
<polygon fill="black" stroke="black" points="85.01,-130.66 86.75,-135.66 88.51,-130.66 85.01,-130.66"/>
</g>
<!-- 3 -->
<g id="node4" class="node">
<title>3</title>
<ellipse fill="none" stroke="black" cx="18" cy="-86.75" rx="18" ry="18"/>
<text text-anchor="middle" x="18" y="-82.08" font-family="monospace" font-size="14.00">3</text>
</g>
<!-- 0&#45;&gt;3 -->
<g id="edge3" class="edge">
<title>0&#45;&gt;3</title>
<path fill="none" stroke="black" d="M69.27,-35.49C58.89,-45.86 45.79,-58.97 35.42,-69.33"/>
<polygon fill="black" stroke="black" points="70.45,-36.78 72.75,-32 67.98,-34.3 70.45,-36.78"/>
<polygon fill="black" stroke="black" points="34.24,-68.04 31.94,-72.81 36.72,-70.51 34.24,-68.04"/>
</g>
<!-- 1&#45;&gt;2 -->
<g id="edge4" class="edge">
<title>1&#45;&gt;2</title>
<path fill="none" stroke="black" d="M138.02,-104.24C127.65,-114.62 114.54,-127.72 104.18,-138.09"/>
<polygon fill="black" stroke="black" points="139.21,-105.53 141.51,-100.76 136.73,-103.06 139.21,-105.53"/>
<polygon fill="black" stroke="black" points="103,-136.79 100.7,-141.57 105.47,-139.27 103,-136.79"/>
</g>
<!-- 1&#45;&gt;3 -->
<g id="edge5" class="edge">
<title>1&#45;&gt;3</title>
<path fill="none" stroke="black" d="M131.05,-86.75C106.13,-86.75 67.7,-86.75 42.7,-86.75"/>
<polygon fill="black" stroke="black" points="130.74,-88.51 135.74,-86.75 130.74,-85.01 130.74,-88.51"/>
<polygon fill="black" stroke="black" points="42.85,-85.01 37.85,-86.75 42.85,-88.51 42.85,-85.01"/>
</g>
<!-- 2&#45;&gt;3 -->
<g id="edge6" class="edge">
<title>2&#45;&gt;3</title>
<path fill="none" stroke="black" d="M69.27,-138.02C58.89,-127.65 45.79,-114.54 35.42,-104.18"/>
<polygon fill="black" stroke="black" points="67.98,-139.21 72.75,-141.51 70.45,-136.73 67.98,-139.21"/>
<polygon fill="black" stroke="black" points="36.72,-103 31.94,-100.7 34.24,-105.47 36.72,-103"/>
</g>
</g>
</svg>
