<?xml version="1.0" encoding="UTF-8" standalone="no"?>
<!DOCTYPE svg PUBLIC "-//W3C//DTD SVG 1.1//EN"
 "http://www.w3.org/Graphics/SVG/1.1/DTD/svg11.dtd">
<!-- Generated by graphviz version 12.0.0 (20240704.0754)
 -->
<!-- Pages: 1 -->
<svg width="152pt" height="152pt"
 viewBox="0.00 0.00 151.71 151.70" xmlns="http://www.w3.org/2000/svg" xmlns:xlink="http://www.w3.org/1999/xlink">
<g id="graph0" class="graph" transform="scale(1 1) rotate(0) translate(14.4 137.3)">
<polygon fill="white" stroke="none" points="-14.4,14.4 -14.4,-137.3 137.31,-137.3 137.31,14.4 -14.4,14.4"/>
<!-- 0 -->
<g id="node1" class="node">
<title>0</title>
<ellipse fill="none" stroke="black" cx="18" cy="-61.46" rx="18" ry="18"/>
<text text-anchor="middle" x="18" y="-56.78" font-family="monospace" font-size="14.00">0</text>
</g>
<!-- 1 -->
<g id="node2" class="node">
<title>1</title>
<ellipse fill="none" stroke="black" cx="104.91" cy="-61.46" rx="18" ry="18"/>
<text text-anchor="middle" x="104.91" y="-56.78" font-family="monospace" font-size="14.00">1</text>
</g>
<!-- 0&#45;&gt;1 -->
<g id="edge1" class="edge">
<title>0&#45;&gt;1</title>
<path fill="none" stroke="black" d="M43.73,-61.46C54.89,-61.46 67.94,-61.46 79.12,-61.46"/>
<polygon fill="black" stroke="black" points="43.95,-59.36 37.95,-61.46 43.95,-63.56 43.95,-59.36"/>
<polygon fill="black" stroke="black" points="78.99,-63.56 84.99,-61.46 78.99,-59.36 78.99,-63.56"/>
</g>
<!-- 2 -->
<g id="node3" class="node">
<title>2</title>
<ellipse fill="none" stroke="black" cx="61.46" cy="-18" rx="18" ry="18"/>
<text text-anchor="middle" x="61.46" y="-13.32" font-family="monospace" font-size="14.00">2</text>
</g>
<!-- 0&#45;&gt;2 -->
<g id="edge2" class="edge">
<title>0&#45;&gt;2</title>
<path fill="none" stroke="black" d="M36,-43.45C38.51,-40.95 41.09,-38.37 43.6,-35.86"/>
<polygon fill="black" stroke="black" points="34.63,-41.85 31.87,-47.58 37.6,-44.82 34.63,-41.85"/>
<polygon fill="black" stroke="black" points="44.77,-37.66 47.53,-31.93 41.8,-34.69 44.77,-37.66"/>
</g>
<!-- 3 -->
<g id="node4" class="node">
<title>3</title>
<ellipse fill="none" stroke="black" cx="61.45" cy="-104.9" rx="18" ry="18"/>
<text text-anchor="middle" x="61.45" y="-100.23" font-family="monospace" font-size="14.00">3</text>
</g>
<!-- 0&#45;&gt;3 -->
<g id="edge3" class="edge">
<title>0&#45;&gt;3</title>
<path fill="none" stroke="black" d="M36,-79.45C38.51,-81.96 41.09,-84.54 43.59,-87.04"/>
<polygon fill="black" stroke="black" points="37.6,-78.08 31.87,-75.33 34.63,-81.05 37.6,-78.08"/>
<polygon fill="black" stroke="black" points="41.79,-88.22 47.52,-90.97 44.76,-85.25 41.79,-88.22"/>
</g>
<!-- 1&#45;&gt;2 -->
<g id="edge4" class="edge">
<title>1&#45;&gt;2</title>
<path fill="none" stroke="black" d="M86.91,-43.45C84.4,-40.95 81.83,-38.37 79.32,-35.86"/>
<polygon fill="black" stroke="black" points="85.31,-44.82 91.04,-47.58 88.28,-41.85 85.31,-44.82"/>
<polygon fill="black" stroke="black" points="81.12,-34.69 75.39,-31.93 78.15,-37.66 81.12,-34.69"/>
</g>
<!-- 1&#45;&gt;3 -->
<g id="edge5" class="edge">
<title>1&#45;&gt;3</title>
<path fill="none" stroke="black" d="M86.91,-79.45C84.4,-81.96 81.82,-84.54 79.31,-87.04"/>
<polygon fill="black" stroke="black" points="88.28,-81.05 91.04,-75.33 85.31,-78.08 88.28,-81.05"/>
<polygon fill="black" stroke="black" points="78.14,-85.25 75.38,-90.97 81.11,-88.22 78.14,-85.25"/>
</g>
<!-- 2&#45;&gt;3 -->
<g id="edge6" class="edge">
<title>2&#45;&gt;3</title>
<path fill="none" stroke="black" d="M61.46,-43.73C61.46,-54.89 61.46,-67.94 61.45,-79.11"/>
<polygon fill="black" stroke="black" points="63.56,-43.94 61.46,-37.94 59.36,-43.94 63.56,-43.94"/>
<polygon fill="black" stroke="black" points="59.35,-78.99 61.45,-84.99 63.55,-78.99 59.35,-78.99"/>
</g>
</g>
</svg>
