<?xml version="1.0" encoding="UTF-8" standalone="no"?>
<!DOCTYPE svg PUBLIC "-//W3C//DTD SVG 1.1//EN"
 "http://www.w3.org/Graphics/SVG/1.1/DTD/svg11.dtd">
<!-- Generated by graphviz version 12.0.0 (20240704.0754)
 -->
<!-- Pages: 1 -->
<svg width="137pt" height="127pt"
 viewBox="0.00 0.00 137.01 126.97" xmlns="http://www.w3.org/2000/svg" xmlns:xlink="http://www.w3.org/1999/xlink">
<g id="graph0" class="graph" transform="scale(1 1) rotate(0) translate(14.4 112.57)">
<polygon fill="white" stroke="none" points="-14.4,14.4 -14.4,-112.57 122.61,-112.57 122.61,14.4 -14.4,14.4"/>
<!-- 0 -->
<g id="node1" class="node">
<title>0</title>
<ellipse fill="none" stroke="black" cx="18" cy="-80.17" rx="18" ry="18"/>
<text text-anchor="middle" x="18" y="-75.5" font-family="monospace" font-size="14.00">0</text>
</g>
<!-- 1 -->
<g id="node2" class="node">
<title>1</title>
<ellipse fill="none" stroke="black" cx="90.21" cy="-80.17" rx="18" ry="18"/>
<text text-anchor="middle" x="90.21" y="-75.5" font-family="monospace" font-size="14.00">1</text>
</g>
<!-- 0&#45;&gt;1 -->
<g id="edge1" class="edge">
<title>0&#45;&gt;1</title>
<path fill="none" stroke="black" d="M43.7,-80.17C50.5,-80.17 57.84,-80.17 64.64,-80.17"/>
<polygon fill="black" stroke="black" points="43.73,-78.07 37.73,-80.17 43.73,-82.27 43.73,-78.07"/>
<polygon fill="black" stroke="black" points="64.23,-82.27 70.23,-80.17 64.23,-78.07 64.23,-82.27"/>
</g>
<!-- 2 -->
<g id="node3" class="node">
<title>2</title>
<ellipse fill="none" stroke="black" cx="54.18" cy="-18" rx="18" ry="18"/>
<text text-anchor="middle" x="54.18" y="-13.32" font-family="monospace" font-size="14.00">2</text>
</g>
<!-- 0&#45;&gt;2 -->
<g id="edge2" class="edge">
<title>0&#45;&gt;2</title>
<path fill="none" stroke="black" d="M30.88,-58.04C34.22,-52.31 37.81,-46.14 41.15,-40.39"/>
<polygon fill="black" stroke="black" points="29.1,-56.93 27.89,-63.18 32.73,-59.05 29.1,-56.93"/>
<polygon fill="black" stroke="black" points="42.97,-41.45 44.17,-35.21 39.34,-39.34 42.97,-41.45"/>
</g>
<!-- 1&#45;&gt;2 -->
<g id="edge3" class="edge">
<title>1&#45;&gt;2</title>
<path fill="none" stroke="black" d="M77.38,-58.04C74.06,-52.31 70.49,-46.14 67.16,-40.39"/>
<polygon fill="black" stroke="black" points="75.53,-59.04 80.36,-63.17 79.17,-56.93 75.53,-59.04"/>
<polygon fill="black" stroke="black" points="68.98,-39.35 64.16,-35.21 65.35,-41.45 68.98,-39.35"/>
</g>
</g>
</svg>
