<?xml version="1.0" encoding="UTF-8" standalone="no"?>
<!DOCTYPE svg PUBLIC "-//W3C//DTD SVG 1.1//EN"
 "http://www.w3.org/Graphics/SVG/1.1/DTD/svg11.dtd">
<!-- Generated by graphviz version 12.0.0 (20240704.0754)
 -->
<!-- Pages: 1 -->
<svg width="116pt" height="106pt"
 viewBox="0.00 0.00 116.21 106.17" xmlns="http://www.w3.org/2000/svg" xmlns:xlink="http://www.w3.org/1999/xlink">
<g id="graph0" class="graph" transform="scale(1 1) rotate(0) translate(4 102.17)">
<polygon fill="white" stroke="none" points="-4,4 -4,-102.17 112.21,-102.17 112.21,4 -4,4"/>
<!-- 0 -->
<g id="node1" class="node">
<title>0</title>
<ellipse fill="none" stroke="black" cx="18" cy="-80.17" rx="18" ry="18"/>
<text text-anchor="middle" x="18" y="-75.5" font-family="Operator Mono" font-size="14.00">0</text>
</g>
<!-- 1 -->
<g id="node2" class="node">
<title>1</title>
<ellipse fill="none" stroke="black" cx="90.21" cy="-80.17" rx="18" ry="18"/>
<text text-anchor="middle" x="90.21" y="-75.5" font-family="Operator Mono" font-size="14.00">1</text>
</g>
<!-- 0&#45;&gt;1 -->
<g id="edge1" class="edge">
<title>0&#45;&gt;1</title>
<path fill="none" stroke="black" d="M42.6,-80.17C49.9,-80.17 57.91,-80.17 65.24,-80.17"/>
<polygon fill="black" stroke="black" points="42.73,-78.42 37.73,-80.17 42.73,-81.92 42.73,-78.42"/>
<polygon fill="black" stroke="black" points="65.23,-81.92 70.23,-80.17 65.23,-78.42 65.23,-81.92"/>
</g>
<!-- 2 -->
<g id="node3" class="node">
<title>2</title>
<ellipse fill="none" stroke="black" cx="54.18" cy="-18" rx="18" ry="18"/>
<text text-anchor="middle" x="54.18" y="-13.32" font-family="Operator Mono" font-size="14.00">2</text>
</g>
<!-- 0&#45;&gt;2 -->
<g id="edge2" class="edge">
<title>0&#45;&gt;2</title>
<path fill="none" stroke="black" d="M30.33,-58.99C33.99,-52.7 38,-45.81 41.67,-39.5"/>
<polygon fill="black" stroke="black" points="28.89,-57.97 27.89,-63.18 31.92,-59.73 28.89,-57.97"/>
<polygon fill="black" stroke="black" points="43.17,-40.41 44.17,-35.21 40.14,-38.65 43.17,-40.41"/>
</g>
<!-- 1&#45;&gt;2 -->
<g id="edge3" class="edge">
<title>1&#45;&gt;2</title>
<path fill="none" stroke="black" d="M77.94,-58.99C74.29,-52.7 70.3,-45.81 66.64,-39.5"/>
<polygon fill="black" stroke="black" points="76.34,-59.73 80.36,-63.17 79.37,-57.97 76.34,-59.73"/>
<polygon fill="black" stroke="black" points="68.18,-38.66 64.16,-35.21 65.15,-40.41 68.18,-38.66"/>
</g>
</g>
</svg>
