<?xml version="1.0" encoding="UTF-8" standalone="no"?>
<!DOCTYPE svg PUBLIC "-//W3C//DTD SVG 1.1//EN"
 "http://www.w3.org/Graphics/SVG/1.1/DTD/svg11.dtd">
<!-- Generated by graphviz version 12.0.0 (20240704.0754)
 -->
<!-- Pages: 1 -->
<svg width="152pt" height="152pt"
 viewBox="0.00 0.00 151.60 151.87" xmlns="http://www.w3.org/2000/svg" xmlns:xlink="http://www.w3.org/1999/xlink">
<g id="graph0" class="graph" transform="scale(1 1) rotate(0) translate(14.4 137.47)">
<polygon fill="white" stroke="none" points="-14.4,14.4 -14.4,-137.47 137.2,-137.47 137.2,14.4 -14.4,14.4"/>
<!-- 0 -->
<g id="node1" class="node">
<title>0</title>
<ellipse fill="none" stroke="black" cx="18" cy="-61.76" rx="18" ry="18"/>
<text text-anchor="middle" x="18" y="-57.09" font-family="monospace" font-size="14.00">0</text>
</g>
<!-- 1 -->
<g id="node2" class="node">
<title>1</title>
<ellipse fill="none" stroke="black" cx="104.8" cy="-61.76" rx="18" ry="18"/>
<text text-anchor="middle" x="104.8" y="-57.09" font-family="monospace" font-size="14.00">1</text>
</g>
<!-- 0&#45;&gt;1 -->
<g id="edge1" class="edge">
<title>0&#45;&gt;1</title>
<path fill="none" stroke="black" d="M43.69,-61.76C54.84,-61.76 67.88,-61.76 79.04,-61.76"/>
<polygon fill="black" stroke="black" points="43.92,-59.67 37.92,-61.76 43.92,-63.87 43.92,-59.67"/>
<polygon fill="black" stroke="black" points="78.9,-63.87 84.9,-61.76 78.9,-59.67 78.9,-63.87"/>
</g>
<!-- 2 -->
<g id="node3" class="node">
<title>2</title>
<ellipse fill="none" stroke="black" cx="61.29" cy="-18" rx="18" ry="18"/>
<text text-anchor="middle" x="61.29" y="-13.32" font-family="monospace" font-size="14.00">2</text>
</g>
<!-- 0&#45;&gt;2 -->
<g id="edge2" class="edge">
<title>0&#45;&gt;2</title>
<path fill="none" stroke="black" d="M35.93,-43.64C38.43,-41.11 41,-38.51 43.5,-35.99"/>
<polygon fill="black" stroke="black" points="34.55,-42.05 31.82,-47.79 37.53,-45.01 34.55,-42.05"/>
<polygon fill="black" stroke="black" points="44.69,-37.77 47.41,-32.03 41.7,-34.82 44.69,-37.77"/>
</g>
<!-- 3 -->
<g id="node4" class="node">
<title>3</title>
<ellipse fill="none" stroke="black" cx="61.1" cy="-105.07" rx="18" ry="18"/>
<text text-anchor="middle" x="61.1" y="-100.4" font-family="monospace" font-size="14.00">3</text>
</g>
<!-- 0&#45;&gt;3 -->
<g id="edge3" class="edge">
<title>0&#45;&gt;3</title>
<path fill="none" stroke="black" d="M35.85,-79.7C38.34,-82.2 40.9,-84.77 43.38,-87.27"/>
<polygon fill="black" stroke="black" points="37.49,-78.37 31.77,-75.6 34.51,-81.33 37.49,-78.37"/>
<polygon fill="black" stroke="black" points="41.56,-88.41 47.28,-91.18 44.53,-85.45 41.56,-88.41"/>
</g>
<!-- 1&#45;&gt;2 -->
<g id="edge4" class="edge">
<title>1&#45;&gt;2</title>
<path fill="none" stroke="black" d="M86.77,-43.64C84.26,-41.11 81.68,-38.51 79.17,-35.99"/>
<polygon fill="black" stroke="black" points="85.19,-45.02 90.91,-47.8 88.17,-42.06 85.19,-45.02"/>
<polygon fill="black" stroke="black" points="80.95,-34.8 75.23,-32.03 77.98,-37.76 80.95,-34.8"/>
</g>
<!-- 1&#45;&gt;3 -->
<g id="edge5" class="edge">
<title>1&#45;&gt;3</title>
<path fill="none" stroke="black" d="M86.69,-79.7C84.17,-82.2 81.58,-84.77 79.06,-87.27"/>
<polygon fill="black" stroke="black" points="88.06,-81.3 90.85,-75.59 85.11,-78.32 88.06,-81.3"/>
<polygon fill="black" stroke="black" points="77.89,-85.47 75.11,-91.19 80.85,-88.46 77.89,-85.47"/>
</g>
<!-- 2&#45;&gt;3 -->
<g id="edge6" class="edge">
<title>2&#45;&gt;3</title>
<path fill="none" stroke="black" d="M61.23,-43.78C61.21,-54.96 61.18,-68.04 61.16,-79.23"/>
<polygon fill="black" stroke="black" points="63.33,-43.98 61.25,-37.98 59.13,-43.97 63.33,-43.98"/>
<polygon fill="black" stroke="black" points="59.06,-79.11 61.14,-85.12 63.26,-79.12 59.06,-79.11"/>
</g>
</g>
</svg>
