<?xml version="1.0" encoding="UTF-8" standalone="no"?>
<!DOCTYPE svg PUBLIC "-//W3C//DTD SVG 1.1//EN"
 "http://www.w3.org/Graphics/SVG/1.1/DTD/svg11.dtd">
<!-- Generated by graphviz version 12.0.0 (20240704.0754)
 -->
<!-- Pages: 1 -->
<svg width="169pt" height="169pt"
 viewBox="0.00 0.00 169.09 169.08" xmlns="http://www.w3.org/2000/svg" xmlns:xlink="http://www.w3.org/1999/xlink">
<g id="graph0" class="graph" transform="scale(1 1) rotate(0) translate(14.4 154.68)">
<polygon fill="white" stroke="none" points="-14.4,14.4 -14.4,-154.68 154.69,-154.68 154.69,14.4 -14.4,14.4"/>
<!-- 0 -->
<g id="node1" class="node">
<title>0</title>
<ellipse fill="none" stroke="black" cx="18" cy="-70.15" rx="18" ry="18"/>
<text text-anchor="middle" x="18" y="-65.47" font-family="monospace" font-size="14.00">0</text>
</g>
<!-- 1 -->
<g id="node2" class="node">
<title>1</title>
<ellipse fill="none" stroke="black" cx="122.29" cy="-70.15" rx="18" ry="18"/>
<text text-anchor="middle" x="122.29" y="-65.47" font-family="monospace" font-size="14.00">1</text>
</g>
<!-- 0&#45;&gt;1 -->
<g id="edge1" class="edge">
<title>0&#45;&gt;1</title>
<path fill="none" stroke="black" d="M43.26,-70.15C59.52,-70.15 80.58,-70.15 96.87,-70.15"/>
<polygon fill="black" stroke="black" points="43.68,-68.05 37.68,-70.15 43.68,-72.25 43.68,-68.05"/>
<polygon fill="black" stroke="black" points="96.47,-72.25 102.47,-70.15 96.47,-68.05 96.47,-72.25"/>
</g>
<!-- 2 -->
<g id="node3" class="node">
<title>2</title>
<ellipse fill="none" stroke="black" cx="70.15" cy="-18" rx="18" ry="18"/>
<text text-anchor="middle" x="70.15" y="-13.32" font-family="monospace" font-size="14.00">2</text>
</g>
<!-- 0&#45;&gt;2 -->
<g id="edge2" class="edge">
<title>0&#45;&gt;2</title>
<path fill="none" stroke="black" d="M36.06,-52.09C41.34,-46.81 47.1,-41.05 52.35,-35.8"/>
<polygon fill="black" stroke="black" points="34.72,-50.46 31.96,-56.19 37.69,-53.43 34.72,-50.46"/>
<polygon fill="black" stroke="black" points="53.58,-37.54 56.34,-31.81 50.61,-34.57 53.58,-37.54"/>
</g>
<!-- 3 -->
<g id="node4" class="node">
<title>3</title>
<ellipse fill="none" stroke="black" cx="70.14" cy="-122.28" rx="18" ry="18"/>
<text text-anchor="middle" x="70.14" y="-117.61" font-family="monospace" font-size="14.00">3</text>
</g>
<!-- 0&#45;&gt;3 -->
<g id="edge3" class="edge">
<title>0&#45;&gt;3</title>
<path fill="none" stroke="black" d="M36.06,-88.2C41.33,-93.48 47.09,-99.24 52.35,-104.49"/>
<polygon fill="black" stroke="black" points="37.69,-86.86 31.96,-84.1 34.72,-89.83 37.69,-86.86"/>
<polygon fill="black" stroke="black" points="50.6,-105.72 56.33,-108.47 53.57,-102.75 50.6,-105.72"/>
</g>
<!-- 1&#45;&gt;2 -->
<g id="edge4" class="edge">
<title>1&#45;&gt;2</title>
<path fill="none" stroke="black" d="M104.23,-52.09C98.96,-46.81 93.2,-41.05 87.95,-35.8"/>
<polygon fill="black" stroke="black" points="102.61,-53.43 108.33,-56.19 105.58,-50.46 102.61,-53.43"/>
<polygon fill="black" stroke="black" points="89.69,-34.57 83.96,-31.81 86.72,-37.54 89.69,-34.57"/>
</g>
<!-- 1&#45;&gt;3 -->
<g id="edge5" class="edge">
<title>1&#45;&gt;3</title>
<path fill="none" stroke="black" d="M104.23,-88.2C98.96,-93.48 93.2,-99.24 87.94,-104.49"/>
<polygon fill="black" stroke="black" points="105.57,-89.83 108.33,-84.1 102.6,-86.86 105.57,-89.83"/>
<polygon fill="black" stroke="black" points="86.71,-102.75 83.96,-108.47 89.68,-105.72 86.71,-102.75"/>
</g>
<!-- 2&#45;&gt;3 -->
<g id="edge6" class="edge">
<title>2&#45;&gt;3</title>
<path fill="none" stroke="black" d="M70.15,-43.26C70.15,-59.52 70.15,-80.57 70.14,-96.86"/>
<polygon fill="black" stroke="black" points="72.25,-43.68 70.15,-37.68 68.05,-43.68 72.25,-43.68"/>
<polygon fill="black" stroke="black" points="68.04,-96.46 70.14,-102.46 72.24,-96.46 68.04,-96.46"/>
</g>
</g>
</svg>
