<?xml version="1.0" encoding="UTF-8" standalone="no"?>
<!DOCTYPE svg PUBLIC "-//W3C//DTD SVG 1.1//EN"
 "http://www.w3.org/Graphics/SVG/1.1/DTD/svg11.dtd">
<!-- Generated by graphviz version 12.0.0 (20240704.0754)
 -->
<!-- Pages: 1 -->
<svg width="152pt" height="152pt"
 viewBox="0.00 0.00 151.67 151.75" xmlns="http://www.w3.org/2000/svg" xmlns:xlink="http://www.w3.org/1999/xlink">
<g id="graph0" class="graph" transform="scale(1 1) rotate(0) translate(14.4 137.35)">
<polygon fill="white" stroke="none" points="-14.4,14.4 -14.4,-137.35 137.27,-137.35 137.27,14.4 -14.4,14.4"/>
<!-- 0 -->
<g id="node1" class="node">
<title>0</title>
<ellipse fill="none" stroke="black" cx="18" cy="-61.45" rx="18" ry="18"/>
<text text-anchor="middle" x="18" y="-56.78" font-family="monospace" font-size="14.00">0</text>
</g>
<!-- 1 -->
<g id="node2" class="node">
<title>1</title>
<ellipse fill="none" stroke="black" cx="104.87" cy="-61.45" rx="18" ry="18"/>
<text text-anchor="middle" x="104.87" y="-56.78" font-family="monospace" font-size="14.00">1</text>
</g>
<!-- 0&#45;&gt;1 -->
<g id="edge1" class="edge">
<title>0&#45;&gt;1</title>
<path fill="none" stroke="black" d="M43.72,-61.45C54.88,-61.45 67.92,-61.45 79.09,-61.45"/>
<polygon fill="black" stroke="black" points="43.94,-59.35 37.94,-61.45 43.94,-63.55 43.94,-59.35"/>
<polygon fill="black" stroke="black" points="78.96,-63.55 84.96,-61.45 78.96,-59.35 78.96,-63.55"/>
</g>
<!-- 2 -->
<g id="node3" class="node">
<title>2</title>
<ellipse fill="none" stroke="black" cx="61.4" cy="-18" rx="18" ry="18"/>
<text text-anchor="middle" x="61.4" y="-13.32" font-family="monospace" font-size="14.00">2</text>
</g>
<!-- 0&#45;&gt;2 -->
<g id="edge2" class="edge">
<title>0&#45;&gt;2</title>
<path fill="none" stroke="black" d="M35.98,-43.45C38.48,-40.94 41.06,-38.37 43.56,-35.86"/>
<polygon fill="black" stroke="black" points="34.61,-41.85 31.86,-47.58 37.58,-44.82 34.61,-41.85"/>
<polygon fill="black" stroke="black" points="44.73,-37.66 47.48,-31.93 41.76,-34.69 44.73,-37.66"/>
</g>
<!-- 3 -->
<g id="node4" class="node">
<title>3</title>
<ellipse fill="none" stroke="black" cx="61.39" cy="-104.95" rx="18" ry="18"/>
<text text-anchor="middle" x="61.39" y="-100.28" font-family="monospace" font-size="14.00">3</text>
</g>
<!-- 0&#45;&gt;3 -->
<g id="edge3" class="edge">
<title>0&#45;&gt;3</title>
<path fill="none" stroke="black" d="M35.98,-79.47C38.48,-81.98 41.05,-84.56 43.56,-87.07"/>
<polygon fill="black" stroke="black" points="37.58,-78.11 31.85,-75.34 34.6,-81.07 37.58,-78.11"/>
<polygon fill="black" stroke="black" points="41.76,-88.24 47.48,-91.01 44.73,-85.27 41.76,-88.24"/>
</g>
<!-- 1&#45;&gt;2 -->
<g id="edge4" class="edge">
<title>1&#45;&gt;2</title>
<path fill="none" stroke="black" d="M86.86,-43.45C84.35,-40.94 81.77,-38.37 79.27,-35.86"/>
<polygon fill="black" stroke="black" points="85.26,-44.83 90.99,-47.58 88.23,-41.85 85.26,-44.83"/>
<polygon fill="black" stroke="black" points="81.06,-34.69 75.33,-31.93 78.09,-37.66 81.06,-34.69"/>
</g>
<!-- 1&#45;&gt;3 -->
<g id="edge5" class="edge">
<title>1&#45;&gt;3</title>
<path fill="none" stroke="black" d="M86.86,-79.47C84.35,-81.98 81.77,-84.56 79.26,-87.07"/>
<polygon fill="black" stroke="black" points="88.24,-81.07 90.99,-75.34 85.27,-78.1 88.24,-81.07"/>
<polygon fill="black" stroke="black" points="78.09,-85.28 75.33,-91.01 81.06,-88.25 78.09,-85.28"/>
</g>
<!-- 2&#45;&gt;3 -->
<g id="edge6" class="edge">
<title>2&#45;&gt;3</title>
<path fill="none" stroke="black" d="M61.39,-43.74C61.39,-54.91 61.39,-67.97 61.39,-79.14"/>
<polygon fill="black" stroke="black" points="63.49,-43.95 61.4,-37.95 59.29,-43.95 63.49,-43.95"/>
<polygon fill="black" stroke="black" points="59.29,-79.02 61.39,-85.02 63.49,-79.02 59.29,-79.02"/>
</g>
</g>
</svg>
