<?xml version="1.0" encoding="UTF-8" standalone="no"?>
<!DOCTYPE svg PUBLIC "-//W3C//DTD SVG 1.1//EN"
 "http://www.w3.org/Graphics/SVG/1.1/DTD/svg11.dtd">
<!-- Generated by graphviz version 12.0.0 (20240704.0754)
 -->
<!-- Pages: 1 -->
<svg width="143pt" height="143pt"
 viewBox="0.00 0.00 143.43 142.60" xmlns="http://www.w3.org/2000/svg" xmlns:xlink="http://www.w3.org/1999/xlink">
<g id="graph0" class="graph" transform="scale(1 1) rotate(0) translate(14.4 128.2)">
<polygon fill="white" stroke="none" points="-14.4,14.4 -14.4,-128.2 129.03,-128.2 129.03,14.4 -14.4,14.4"/>
<!-- 0 -->
<g id="node1" class="node">
<title>0</title>
<ellipse fill="none" stroke="black" cx="18" cy="-18" rx="18" ry="18"/>
<text text-anchor="middle" x="18" y="-13.33" font-family="monospace" font-size="14.00">0</text>
</g>
<!-- 1 -->
<g id="node2" class="node">
<title>1</title>
<ellipse fill="none" stroke="black" cx="95.73" cy="-18" rx="18" ry="18"/>
<text text-anchor="middle" x="95.73" y="-13.32" font-family="monospace" font-size="14.00">1</text>
</g>
<!-- 0&#45;&gt;1 -->
<g id="edge1" class="edge">
<title>0&#45;&gt;1</title>
<path fill="none" stroke="black" d="M43.75,-18C52.19,-18 61.57,-18 70.01,-18"/>
<polygon fill="black" stroke="black" points="43.94,-15.9 37.94,-18 43.94,-20.1 43.94,-15.9"/>
<polygon fill="black" stroke="black" points="69.93,-20.1 75.93,-18 69.93,-15.9 69.93,-20.1"/>
</g>
<!-- 2 -->
<g id="node3" class="node">
<title>2</title>
<ellipse fill="none" stroke="black" cx="96.63" cy="-95.8" rx="18" ry="18"/>
<text text-anchor="middle" x="96.63" y="-91.12" font-family="monospace" font-size="14.00">2</text>
</g>
<!-- 1&#45;&gt;2 -->
<g id="edge2" class="edge">
<title>1&#45;&gt;2</title>
<path fill="none" stroke="black" d="M96.03,-43.77C96.13,-52.22 96.24,-61.61 96.34,-70.05"/>
<polygon fill="black" stroke="black" points="98.13,-43.93 95.96,-37.95 93.93,-43.97 98.13,-43.93"/>
<polygon fill="black" stroke="black" points="94.23,-70.01 96.4,-75.98 98.43,-69.96 94.23,-70.01"/>
</g>
<!-- 3 -->
<g id="node4" class="node">
<title>3</title>
<ellipse fill="none" stroke="black" cx="18.77" cy="-95.76" rx="18" ry="18"/>
<text text-anchor="middle" x="18.77" y="-91.08" font-family="monospace" font-size="14.00">3</text>
</g>
<!-- 2&#45;&gt;3 -->
<g id="edge3" class="edge">
<title>2&#45;&gt;3</title>
<path fill="none" stroke="black" d="M70.84,-95.79C62.39,-95.78 52.99,-95.78 44.54,-95.77"/>
<polygon fill="black" stroke="black" points="70.67,-97.89 76.67,-95.79 70.67,-93.69 70.67,-97.89"/>
<polygon fill="black" stroke="black" points="44.61,-93.67 38.61,-95.77 44.6,-97.87 44.61,-93.67"/>
</g>
<!-- 3&#45;&gt;0 -->
<g id="edge4" class="edge">
<title>3&#45;&gt;0</title>
<path fill="none" stroke="black" d="M18.52,-70C18.43,-61.56 18.34,-52.17 18.26,-43.73"/>
<polygon fill="black" stroke="black" points="16.41,-69.84 18.57,-75.82 20.61,-69.8 16.41,-69.84"/>
<polygon fill="black" stroke="black" points="20.36,-43.79 18.2,-37.81 16.16,-43.83 20.36,-43.79"/>
</g>
</g>
</svg>
