<?xml version="1.0" encoding="UTF-8" standalone="no"?>
<!DOCTYPE svg PUBLIC "-//W3C//DTD SVG 1.1//EN"
 "http://www.w3.org/Graphics/SVG/1.1/DTD/svg11.dtd">
<!-- Generated by graphviz version 12.0.0 (20240704.0754)
 -->
<!-- Pages: 1 -->
<svg width="137pt" height="127pt"
 viewBox="0.00 0.00 136.80 127.15" xmlns="http://www.w3.org/2000/svg" xmlns:xlink="http://www.w3.org/1999/xlink">
<g id="graph0" class="graph" transform="scale(1 1) rotate(0) translate(14.4 112.75)">
<polygon fill="white" stroke="none" points="-14.4,14.4 -14.4,-112.75 122.4,-112.75 122.4,14.4 -14.4,14.4"/>
<!-- 0 -->
<g id="node1" class="node">
<title>0</title>
<ellipse fill="none" stroke="black" cx="18" cy="-80.35" rx="18" ry="18"/>
<text text-anchor="middle" x="18" y="-75.68" font-family="monospace" font-size="14.00">0</text>
</g>
<!-- 1 -->
<g id="node2" class="node">
<title>1</title>
<ellipse fill="none" stroke="black" cx="90" cy="-80.35" rx="18" ry="18"/>
<text text-anchor="middle" x="90" y="-75.68" font-family="monospace" font-size="14.00">1</text>
</g>
<!-- 0&#45;&gt;1 -->
<g id="edge1" class="edge">
<title>0&#45;&gt;1</title>
<path fill="none" stroke="black" d="M43.63,-80.35C50.41,-80.35 57.73,-80.35 64.5,-80.35"/>
<polygon fill="black" stroke="black" points="43.68,-78.25 37.68,-80.35 43.68,-82.45 43.68,-78.25"/>
<polygon fill="black" stroke="black" points="64.07,-82.45 70.07,-80.35 64.07,-78.25 64.07,-82.45"/>
</g>
<!-- 2 -->
<g id="node3" class="node">
<title>2</title>
<ellipse fill="none" stroke="black" cx="54" cy="-18" rx="18" ry="18"/>
<text text-anchor="middle" x="54" y="-13.32" font-family="monospace" font-size="14.00">2</text>
</g>
<!-- 1&#45;&gt;2 -->
<g id="edge2" class="edge">
<title>1&#45;&gt;2</title>
<path fill="none" stroke="black" d="M77.18,-58.16C73.79,-52.29 70.14,-45.95 66.75,-40.08"/>
<polygon fill="black" stroke="black" points="75.34,-59.16 80.16,-63.31 78.98,-57.06 75.34,-59.16"/>
<polygon fill="black" stroke="black" points="68.78,-39.4 63.96,-35.26 65.14,-41.5 68.78,-39.4"/>
</g>
<!-- 2&#45;&gt;0 -->
<g id="edge3" class="edge">
<title>2&#45;&gt;0</title>
<path fill="none" stroke="black" d="M41.18,-40.2C37.79,-46.07 34.14,-52.41 30.75,-58.27"/>
<polygon fill="black" stroke="black" points="42.98,-41.29 44.16,-35.05 39.34,-39.19 42.98,-41.29"/>
<polygon fill="black" stroke="black" points="29.14,-56.85 27.96,-63.1 32.78,-58.95 29.14,-56.85"/>
</g>
</g>
</svg>
