<?xml version="1.0" encoding="UTF-8" standalone="no"?>
<!DOCTYPE svg PUBLIC "-//W3C//DTD SVG 1.1//EN"
 "http://www.w3.org/Graphics/SVG/1.1/DTD/svg11.dtd">
<!-- Generated by graphviz version 12.0.0 (20240704.0754)
 -->
<!-- Pages: 1 -->
<svg width="175pt" height="175pt"
 viewBox="0.00 0.00 174.81 174.81" xmlns="http://www.w3.org/2000/svg" xmlns:xlink="http://www.w3.org/1999/xlink">
<g id="graph0" class="graph" transform="scale(1 1) rotate(0) translate(14.4 160.41)">
<polygon fill="white" stroke="none" points="-14.4,14.4 -14.4,-160.41 160.41,-160.41 160.41,14.4 -14.4,14.4"/>
<!-- 0 -->
<g id="node1" class="node">
<title>0</title>
<ellipse fill="none" stroke="black" cx="73" cy="-18" rx="18" ry="18"/>
<text text-anchor="middle" x="73" y="-13.33" font-family="monospace" font-size="14.00">0</text>
</g>
<!-- 1 -->
<g id="node2" class="node">
<title>1</title>
<ellipse fill="none" stroke="black" cx="18" cy="-73" rx="18" ry="18"/>
<text text-anchor="middle" x="18" y="-68.33" font-family="monospace" font-size="14.00">1</text>
</g>
<!-- 0&#45;&gt;1 -->
<g id="edge1" class="edge">
<title>0&#45;&gt;1</title>
<path fill="none" stroke="black" d="M54.78,-36.22C48.81,-42.19 42.17,-48.83 36.2,-54.8"/>
<polygon fill="black" stroke="black" points="56.14,-37.83 58.9,-32.11 53.17,-34.86 56.14,-37.83"/>
<polygon fill="black" stroke="black" points="34.77,-53.26 32.01,-58.99 37.74,-56.23 34.77,-53.26"/>
</g>
<!-- 2 -->
<g id="node3" class="node">
<title>2</title>
<ellipse fill="none" stroke="black" cx="73" cy="-128.01" rx="18" ry="18"/>
<text text-anchor="middle" x="73" y="-123.33" font-family="monospace" font-size="14.00">2</text>
</g>
<!-- 1&#45;&gt;2 -->
<g id="edge2" class="edge">
<title>1&#45;&gt;2</title>
<path fill="none" stroke="black" d="M36.22,-91.22C42.19,-97.2 48.83,-103.83 54.8,-109.81"/>
<polygon fill="black" stroke="black" points="37.83,-89.87 32.11,-87.11 34.86,-92.84 37.83,-89.87"/>
<polygon fill="black" stroke="black" points="53.26,-111.24 58.99,-114 56.23,-108.27 53.26,-111.24"/>
</g>
<!-- 3 -->
<g id="node4" class="node">
<title>3</title>
<ellipse fill="none" stroke="black" cx="128.01" cy="-73" rx="18" ry="18"/>
<text text-anchor="middle" x="128.01" y="-68.33" font-family="monospace" font-size="14.00">3</text>
</g>
<!-- 2&#45;&gt;3 -->
<g id="edge3" class="edge">
<title>2&#45;&gt;3</title>
<path fill="none" stroke="black" d="M91.22,-109.79C97.2,-103.81 103.83,-97.18 109.81,-91.21"/>
<polygon fill="black" stroke="black" points="89.87,-108.17 87.11,-113.9 92.84,-111.14 89.87,-108.17"/>
<polygon fill="black" stroke="black" points="111.24,-92.74 114,-87.02 108.27,-89.77 111.24,-92.74"/>
</g>
<!-- 3&#45;&gt;0 -->
<g id="edge4" class="edge">
<title>3&#45;&gt;0</title>
<path fill="none" stroke="black" d="M109.79,-54.78C103.81,-48.81 97.18,-42.17 91.21,-36.2"/>
<polygon fill="black" stroke="black" points="108.17,-56.14 113.9,-58.9 111.14,-53.17 108.17,-56.14"/>
<polygon fill="black" stroke="black" points="92.74,-34.77 87.02,-32.01 89.77,-37.74 92.74,-34.77"/>
</g>
</g>
</svg>
