<?xml version="1.0" encoding="UTF-8" standalone="no"?>
<!DOCTYPE svg PUBLIC "-//W3C//DTD SVG 1.1//EN"
 "http://www.w3.org/Graphics/SVG/1.1/DTD/svg11.dtd">
<!-- Generated by graphviz version 12.0.0 (20240704.0754)
 -->
<!-- Pages: 1 -->
<svg width="143pt" height="143pt"
 viewBox="0.00 0.00 143.10 142.76" xmlns="http://www.w3.org/2000/svg" xmlns:xlink="http://www.w3.org/1999/xlink">
<g id="graph0" class="graph" transform="scale(1 1) rotate(0) translate(14.4 128.36)">
<polygon fill="white" stroke="none" points="-14.4,14.4 -14.4,-128.36 128.7,-128.36 128.7,14.4 -14.4,14.4"/>
<!-- 0 -->
<g id="node1" class="node">
<title>0</title>
<ellipse fill="none" stroke="black" cx="18.33" cy="-95.96" rx="18" ry="18"/>
<text text-anchor="middle" x="18.33" y="-91.29" font-family="Operator Mono" font-size="14.00">0</text>
</g>
<!-- 1 -->
<g id="node4" class="node">
<title>1</title>
<ellipse fill="none" stroke="black" cx="96.3" cy="-95.96" rx="18" ry="18"/>
<text text-anchor="middle" x="96.3" y="-91.29" font-family="Operator Mono" font-size="14.00">1</text>
</g>
<!-- 0&#45;&gt;1 -->
<g id="edge1" class="edge">
<title>0&#45;&gt;1</title>
<path fill="none" stroke="black" d="M43.2,-95.96C52.28,-95.96 62.54,-95.96 71.6,-95.96"/>
<polygon fill="black" stroke="black" points="43.32,-94.21 38.32,-95.96 43.32,-97.71 43.32,-94.21"/>
<polygon fill="black" stroke="black" points="71.44,-97.71 76.44,-95.96 71.44,-94.21 71.44,-97.71"/>
</g>
<!-- 2 -->
<g id="node2" class="node">
<title>2</title>
<ellipse fill="none" stroke="black" cx="95.96" cy="-18" rx="18" ry="18"/>
<text text-anchor="middle" x="95.96" y="-13.32" font-family="Operator Mono" font-size="14.00">2</text>
</g>
<!-- 3 -->
<g id="node3" class="node">
<title>3</title>
<ellipse fill="none" stroke="black" cx="18" cy="-18" rx="18" ry="18"/>
<text text-anchor="middle" x="18" y="-13.33" font-family="Operator Mono" font-size="14.00">3</text>
</g>
<!-- 2&#45;&gt;3 -->
<g id="edge3" class="edge">
<title>2&#45;&gt;3</title>
<path fill="none" stroke="black" d="M71.09,-18C62.01,-18 51.76,-18 42.7,-18"/>
<polygon fill="black" stroke="black" points="70.97,-19.75 75.97,-18 70.97,-16.25 70.97,-19.75"/>
<polygon fill="black" stroke="black" points="42.86,-16.25 37.86,-18 42.86,-19.75 42.86,-16.25"/>
</g>
<!-- 3&#45;&gt;0 -->
<g id="edge4" class="edge">
<title>3&#45;&gt;0</title>
<path fill="none" stroke="black" d="M18.11,-42.87C18.14,-51.95 18.19,-62.21 18.23,-71.27"/>
<polygon fill="black" stroke="black" points="19.86,-42.98 18.09,-37.99 16.36,-43 19.86,-42.98"/>
<polygon fill="black" stroke="black" points="16.48,-71.11 18.25,-76.11 19.98,-71.1 16.48,-71.11"/>
</g>
<!-- 1&#45;&gt;2 -->
<g id="edge2" class="edge">
<title>1&#45;&gt;2</title>
<path fill="none" stroke="black" d="M96.19,-71.09C96.15,-62.01 96.11,-51.76 96.07,-42.7"/>
<polygon fill="black" stroke="black" points="94.44,-70.98 96.21,-75.97 97.94,-70.97 94.44,-70.98"/>
<polygon fill="black" stroke="black" points="97.82,-42.85 96.05,-37.86 94.32,-42.86 97.82,-42.85"/>
</g>
</g>
</svg>
