<?xml version="1.0" encoding="UTF-8" standalone="no"?>
<!DOCTYPE svg PUBLIC "-//W3C//DTD SVG 1.1//EN"
 "http://www.w3.org/Graphics/SVG/1.1/DTD/svg11.dtd">
<!-- Generated by graphviz version 12.0.0 (20240704.0754)
 -->
<!-- Pages: 1 -->
<svg width="143pt" height="143pt"
 viewBox="0.00 0.00 142.75 142.75" xmlns="http://www.w3.org/2000/svg" xmlns:xlink="http://www.w3.org/1999/xlink">
<g id="graph0" class="graph" transform="scale(1 1) rotate(0) translate(14.4 128.35)">
<polygon fill="white" stroke="none" points="-14.4,14.4 -14.4,-128.35 128.35,-128.35 128.35,14.4 -14.4,14.4"/>
<!-- 0 -->
<g id="node1" class="node">
<title>0</title>
<ellipse fill="none" stroke="black" cx="18" cy="-18" rx="18" ry="18"/>
<text text-anchor="middle" x="18" y="-13.33" font-family="monospace" font-size="14.00">0</text>
</g>
<!-- 1 -->
<g id="node2" class="node">
<title>1</title>
<ellipse fill="none" stroke="black" cx="95.95" cy="-18" rx="18" ry="18"/>
<text text-anchor="middle" x="95.95" y="-13.32" font-family="monospace" font-size="14.00">1</text>
</g>
<!-- 0&#45;&gt;1 -->
<g id="edge1" class="edge">
<title>0&#45;&gt;1</title>
<path fill="none" stroke="black" d="M43.82,-18C52.29,-18 61.69,-18 70.15,-18"/>
<polygon fill="black" stroke="black" points="43.99,-15.9 37.99,-18 43.99,-20.1 43.99,-15.9"/>
<polygon fill="black" stroke="black" points="70.09,-20.1 76.09,-18 70.09,-15.9 70.09,-20.1"/>
</g>
<!-- 2 -->
<g id="node3" class="node">
<title>2</title>
<ellipse fill="none" stroke="black" cx="95.95" cy="-95.95" rx="18" ry="18"/>
<text text-anchor="middle" x="95.95" y="-91.27" font-family="monospace" font-size="14.00">2</text>
</g>
<!-- 1&#45;&gt;2 -->
<g id="edge2" class="edge">
<title>1&#45;&gt;2</title>
<path fill="none" stroke="black" d="M95.95,-43.82C95.95,-52.28 95.95,-61.69 95.95,-70.15"/>
<polygon fill="black" stroke="black" points="98.05,-43.99 95.95,-37.99 93.85,-43.99 98.05,-43.99"/>
<polygon fill="black" stroke="black" points="93.85,-70.09 95.95,-76.09 98.05,-70.09 93.85,-70.09"/>
</g>
<!-- 3 -->
<g id="node4" class="node">
<title>3</title>
<ellipse fill="none" stroke="black" cx="18" cy="-95.95" rx="18" ry="18"/>
<text text-anchor="middle" x="18" y="-91.27" font-family="monospace" font-size="14.00">3</text>
</g>
<!-- 2&#45;&gt;3 -->
<g id="edge3" class="edge">
<title>2&#45;&gt;3</title>
<path fill="none" stroke="black" d="M70.13,-95.95C61.66,-95.95 52.26,-95.95 43.8,-95.95"/>
<polygon fill="black" stroke="black" points="69.96,-98.05 75.96,-95.95 69.96,-93.85 69.96,-98.05"/>
<polygon fill="black" stroke="black" points="43.86,-93.85 37.86,-95.95 43.86,-98.05 43.86,-93.85"/>
</g>
<!-- 3&#45;&gt;0 -->
<g id="edge4" class="edge">
<title>3&#45;&gt;0</title>
<path fill="none" stroke="black" d="M18,-70.13C18,-61.66 18,-52.26 18,-43.79"/>
<polygon fill="black" stroke="black" points="15.9,-69.96 18,-75.96 20.1,-69.96 15.9,-69.96"/>
<polygon fill="black" stroke="black" points="20.1,-43.85 18,-37.85 15.9,-43.85 20.1,-43.85"/>
</g>
</g>
</svg>
