<?xml version="1.0" encoding="UTF-8" standalone="no"?>
<!DOCTYPE svg PUBLIC "-//W3C//DTD SVG 1.1//EN"
 "http://www.w3.org/Graphics/SVG/1.1/DTD/svg11.dtd">
<!-- Generated by graphviz version 12.0.0 (20240704.0754)
 -->
<!-- Pages: 1 -->
<svg width="202pt" height="202pt"
 viewBox="0.00 0.00 202.31 202.31" xmlns="http://www.w3.org/2000/svg" xmlns:xlink="http://www.w3.org/1999/xlink">
<g id="graph0" class="graph" transform="scale(1 1) rotate(0) translate(14.4 187.91)">
<polygon fill="white" stroke="none" points="-14.4,14.4 -14.4,-187.91 187.91,-187.91 187.91,14.4 -14.4,14.4"/>
<!-- 0 -->
<g id="node1" class="node">
<title>0</title>
<ellipse fill="none" stroke="black" cx="86.75" cy="-18" rx="18" ry="18"/>
<text text-anchor="middle" x="86.75" y="-13.32" font-family="monospace" font-size="14.00">0</text>
</g>
<!-- 1 -->
<g id="node2" class="node">
<title>1</title>
<ellipse fill="none" stroke="black" cx="18" cy="-86.75" rx="18" ry="18"/>
<text text-anchor="middle" x="18" y="-82.08" font-family="monospace" font-size="14.00">1</text>
</g>
<!-- 0&#45;&gt;1 -->
<g id="edge1" class="edge">
<title>0&#45;&gt;1</title>
<path fill="none" stroke="black" d="M68.63,-36.12C58.61,-46.14 46.2,-58.56 36.17,-68.59"/>
<polygon fill="black" stroke="black" points="69.99,-37.73 72.75,-32 67.02,-34.76 69.99,-37.73"/>
<polygon fill="black" stroke="black" points="34.7,-67.08 31.94,-72.81 37.67,-70.05 34.7,-67.08"/>
</g>
<!-- 2 -->
<g id="node3" class="node">
<title>2</title>
<ellipse fill="none" stroke="black" cx="86.75" cy="-155.51" rx="18" ry="18"/>
<text text-anchor="middle" x="86.75" y="-150.83" font-family="monospace" font-size="14.00">2</text>
</g>
<!-- 1&#45;&gt;2 -->
<g id="edge2" class="edge">
<title>1&#45;&gt;2</title>
<path fill="none" stroke="black" d="M36.12,-104.88C46.14,-114.9 58.56,-127.31 68.59,-137.34"/>
<polygon fill="black" stroke="black" points="37.73,-103.52 32,-100.76 34.76,-106.49 37.73,-103.52"/>
<polygon fill="black" stroke="black" points="67.08,-138.81 72.81,-141.57 70.05,-135.84 67.08,-138.81"/>
</g>
<!-- 3 -->
<g id="node4" class="node">
<title>3</title>
<ellipse fill="none" stroke="black" cx="155.51" cy="-86.75" rx="18" ry="18"/>
<text text-anchor="middle" x="155.51" y="-82.08" font-family="monospace" font-size="14.00">3</text>
</g>
<!-- 2&#45;&gt;3 -->
<g id="edge3" class="edge">
<title>2&#45;&gt;3</title>
<path fill="none" stroke="black" d="M104.88,-137.39C114.9,-127.37 127.31,-114.95 137.34,-104.92"/>
<polygon fill="black" stroke="black" points="103.52,-135.78 100.76,-141.51 106.49,-138.75 103.52,-135.78"/>
<polygon fill="black" stroke="black" points="138.81,-106.43 141.57,-100.7 135.84,-103.46 138.81,-106.43"/>
</g>
<!-- 3&#45;&gt;0 -->
<g id="edge4" class="edge">
<title>3&#45;&gt;0</title>
<path fill="none" stroke="black" d="M137.39,-68.63C127.37,-58.61 114.95,-46.2 104.92,-36.17"/>
<polygon fill="black" stroke="black" points="135.78,-69.99 141.51,-72.75 138.75,-67.02 135.78,-69.99"/>
<polygon fill="black" stroke="black" points="106.43,-34.7 100.7,-31.94 103.46,-37.67 106.43,-34.7"/>
</g>
</g>
</svg>
