<?xml version="1.0" encoding="UTF-8" standalone="no"?>
<!DOCTYPE svg PUBLIC "-//W3C//DTD SVG 1.1//EN"
 "http://www.w3.org/Graphics/SVG/1.1/DTD/svg11.dtd">
<!-- Generated by graphviz version 12.0.0 (20240704.0754)
 -->
<!-- Pages: 1 -->
<svg width="296pt" height="401pt"
 viewBox="0.00 0.00 295.69 400.95" xmlns="http://www.w3.org/2000/svg" xmlns:xlink="http://www.w3.org/1999/xlink">
<g id="graph0" class="graph" transform="scale(1 1) rotate(0) translate(14.4 386.55)">
<polygon fill="white" stroke="none" points="-14.4,14.4 -14.4,-386.55 281.29,-386.55 281.29,14.4 -14.4,14.4"/>
<!-- 3 -->
<g id="node1" class="node">
<title>3</title>
<ellipse fill="none" stroke="red" stroke-width="2" cx="71.5" cy="-354.15" rx="18" ry="18"/>
<text text-anchor="middle" x="71.5" y="-349.47" font-family="monospace" font-size="14.00">3</text>
</g>
<!-- 0 -->
<g id="node2" class="node">
<title>0</title>
<ellipse fill="none" stroke="red" stroke-width="2" cx="160.82" cy="-354.15" rx="18" ry="18"/>
<text text-anchor="middle" x="160.82" y="-349.47" font-family="monospace" font-size="14.00">0</text>
</g>
<!-- 3&#45;&gt;0 -->
<g id="edge1" class="edge">
<title>3&#45;&gt;0</title>
<path fill="none" stroke="red" stroke-width="2" d="M89.15,-359.65C102.48,-361.07 120.96,-361.28 135.82,-360.28"/>
<polygon fill="red" stroke="red" stroke-width="2" points="134.39,-362.51 140.19,-359.91 134.03,-358.32 134.39,-362.51"/>
</g>
<!-- 0&#45;&gt;3 -->
<g id="edge14" class="edge">
<title>0&#45;&gt;3</title>
<path fill="none" stroke="black" stroke-dasharray="5,2" d="M143.17,-348.64C129.84,-347.23 111.36,-347.02 96.5,-348.02"/>
<polygon fill="black" stroke="black" points="96.42,-345.92 90.62,-348.52 96.78,-350.1 96.42,-345.92"/>
</g>
<!-- 1 -->
<g id="node3" class="node">
<title>1</title>
<ellipse fill="none" stroke="red" stroke-width="2" cx="116.16" cy="-276.8" rx="18" ry="18"/>
<text text-anchor="middle" x="116.16" y="-272.12" font-family="monospace" font-size="14.00">1</text>
</g>
<!-- 0&#45;&gt;1 -->
<g id="edge2" class="edge">
<title>0&#45;&gt;1</title>
<path fill="none" stroke="red" stroke-width="2" d="M156.76,-336.11C151.32,-323.86 142.26,-307.75 133.97,-295.38"/>
<polygon fill="red" stroke="red" stroke-width="2" points="136.61,-295.5 131.46,-291.78 133.17,-297.9 136.61,-295.5"/>
</g>
<!-- 1&#45;&gt;0 -->
<g id="edge13" class="edge">
<title>1&#45;&gt;0</title>
<path fill="none" stroke="black" stroke-dasharray="5,2" d="M120.22,-294.83C125.66,-307.09 134.72,-323.2 143.01,-335.56"/>
<polygon fill="black" stroke="black" points="141.23,-336.69 146.38,-340.41 144.67,-334.28 141.23,-336.69"/>
</g>
<!-- 2 -->
<g id="node4" class="node">
<title>2</title>
<ellipse fill="none" stroke="red" stroke-width="2" cx="107.32" cy="-185.35" rx="18" ry="18"/>
<text text-anchor="middle" x="107.32" y="-180.67" font-family="monospace" font-size="14.00">2</text>
</g>
<!-- 1&#45;&gt;2 -->
<g id="edge3" class="edge">
<title>1&#45;&gt;2</title>
<path fill="none" stroke="red" stroke-width="2" d="M119.88,-259.08C120.05,-244.97 118.35,-225.08 115.75,-209.51"/>
<polygon fill="red" stroke="red" stroke-width="2" points="118.12,-210.76 114.96,-205.24 113.99,-211.52 118.12,-210.76"/>
</g>
<!-- 4 -->
<g id="node5" class="node">
<title>4</title>
<ellipse fill="none" stroke="red" stroke-width="2" cx="248.89" cy="-141.59" rx="18" ry="18"/>
<text text-anchor="middle" x="248.89" y="-136.92" font-family="monospace" font-size="14.00">4</text>
</g>
<!-- 1&#45;&gt;4 -->
<g id="edge4" class="edge">
<title>1&#45;&gt;4</title>
<path fill="none" stroke="red" stroke-width="2" d="M131.6,-266.98C157.64,-245.1 209.41,-192.66 234.63,-162.92"/>
<polygon fill="red" stroke="red" stroke-width="2" points="235.15,-165.57 237.37,-159.62 231.92,-162.89 235.15,-165.57"/>
</g>
<!-- 2&#45;&gt;3 -->
<g id="edge5" class="edge">
<title>2&#45;&gt;3</title>
<path fill="none" stroke="#bbbbbb" d="M103.48,-203.41C97.07,-233.62 84.17,-294.44 76.86,-328.88"/>
<polygon fill="#bbbbbb" stroke="#bbbbbb" points="74.81,-328.43 75.62,-334.73 78.92,-329.3 74.81,-328.43"/>
</g>
<!-- 2&#45;&gt;1 -->
<g id="edge12" class="edge">
<title>2&#45;&gt;1</title>
<path fill="none" stroke="black" stroke-dasharray="5,2" d="M103.59,-203.07C103.42,-217.18 105.12,-237.07 107.72,-252.64"/>
<polygon fill="black" stroke="black" points="105.63,-252.88 108.79,-258.4 109.76,-252.12 105.63,-252.88"/>
</g>
<!-- 6 -->
<g id="node7" class="node">
<title>6</title>
<ellipse fill="none" stroke="skyblue" stroke-width="2" cx="62.66" cy="-108" rx="18" ry="18"/>
<text text-anchor="middle" x="62.66" y="-103.33" font-family="monospace" font-size="14.00">6</text>
</g>
<!-- 2&#45;&gt;6 -->
<g id="edge7" class="edge">
<title>2&#45;&gt;6</title>
<path fill="none" stroke="#bbbbbb" d="M98.28,-169.7C91.72,-158.34 82.77,-142.83 75.47,-130.2"/>
<polygon fill="#bbbbbb" stroke="#bbbbbb" points="77.41,-129.35 72.59,-125.21 73.77,-131.45 77.41,-129.35"/>
</g>
<!-- 5 -->
<g id="node8" class="node">
<title>5</title>
<ellipse fill="none" stroke="skyblue" stroke-width="2" cx="18" cy="-185.35" rx="18" ry="18"/>
<text text-anchor="middle" x="18" y="-180.67" font-family="monospace" font-size="14.00">5</text>
</g>
<!-- 2&#45;&gt;5 -->
<g id="edge6" class="edge">
<title>2&#45;&gt;5</title>
<path fill="none" stroke="#bbbbbb" d="M89.24,-185.35C76.13,-185.35 58.22,-185.35 43.63,-185.35"/>
<polygon fill="#bbbbbb" stroke="#bbbbbb" points="43.87,-183.25 37.87,-185.35 43.87,-187.45 43.87,-183.25"/>
</g>
<!-- 4&#45;&gt;1 -->
<g id="edge11" class="edge">
<title>4&#45;&gt;1</title>
<path fill="none" stroke="black" stroke-dasharray="5,2" d="M233.44,-151.41C207.41,-173.29 155.64,-225.73 130.42,-255.47"/>
<polygon fill="black" stroke="black" points="128.93,-253.98 126.71,-259.94 132.16,-256.66 128.93,-253.98"/>
</g>
<!-- 7 -->
<g id="node6" class="node">
<title>7</title>
<ellipse fill="none" stroke="skyblue" stroke-width="2" cx="62.66" cy="-18" rx="18" ry="18"/>
<text text-anchor="middle" x="62.66" y="-13.32" font-family="monospace" font-size="14.00">7</text>
</g>
<!-- 7&#45;&gt;6 -->
<g id="edge10" class="edge">
<title>7&#45;&gt;6</title>
<path fill="none" stroke="skyblue" stroke-width="2" d="M52.22,-33.27C48.66,-47.71 48.2,-69.54 50.85,-85.88"/>
<polygon fill="skyblue" stroke="skyblue" stroke-width="2" points="48.43,-84.53 51.68,-89.99 52.55,-83.69 48.43,-84.53"/>
</g>
<!-- 6&#45;&gt;7 -->
<g id="edge9" class="edge">
<title>6&#45;&gt;7</title>
<path fill="none" stroke="#bbbbbb" d="M73.09,-92.73C76.65,-78.29 77.11,-56.46 74.47,-40.12"/>
<polygon fill="#bbbbbb" stroke="#bbbbbb" points="76.58,-39.99 73.34,-34.53 72.47,-40.82 76.58,-39.99"/>
</g>
<!-- 6&#45;&gt;7 -->
<g id="edge16" class="edge">
<title>6&#45;&gt;7</title>
<path fill="none" stroke="black" stroke-dasharray="5,2" d="M62.66,-89.79C62.66,-76.58 62.66,-58.53 62.66,-43.83"/>
<polygon fill="black" stroke="black" points="64.76,-44.01 62.66,-38.01 60.56,-44.01 64.76,-44.01"/>
</g>
<!-- 6&#45;&gt;5 -->
<g id="edge8" class="edge">
<title>6&#45;&gt;5</title>
<path fill="none" stroke="skyblue" stroke-width="2" d="M49.07,-120.53C41.17,-131.37 31.75,-147.27 25.19,-160.63"/>
<polygon fill="skyblue" stroke="skyblue" stroke-width="2" points="23.97,-158.28 23.33,-164.61 27.77,-160.07 23.97,-158.28"/>
</g>
<!-- 5&#45;&gt;6 -->
<g id="edge15" class="edge">
<title>5&#45;&gt;6</title>
<path fill="none" stroke="black" stroke-dasharray="5,2" d="M31.59,-172.82C39.48,-161.98 48.9,-146.08 55.47,-132.72"/>
<polygon fill="black" stroke="black" points="57.33,-133.69 57.97,-127.37 53.53,-131.91 57.33,-133.69"/>
</g>
</g>
</svg>
