<?xml version="1.0" encoding="UTF-8" standalone="no"?>
<!DOCTYPE svg PUBLIC "-//W3C//DTD SVG 1.1//EN"
 "http://www.w3.org/Graphics/SVG/1.1/DTD/svg11.dtd">
<!-- Generated by graphviz version 12.0.0 (20240704.0754)
 -->
<!-- Pages: 1 -->
<svg width="380pt" height="309pt"
 viewBox="0.00 0.00 380.30 309.13" xmlns="http://www.w3.org/2000/svg" xmlns:xlink="http://www.w3.org/1999/xlink">
<g id="graph0" class="graph" transform="scale(1 1) rotate(0) translate(14.4 294.73)">
<polygon fill="white" stroke="none" points="-14.4,14.4 -14.4,-294.73 365.9,-294.73 365.9,14.4 -14.4,14.4"/>
<!-- 3 -->
<g id="node1" class="node">
<title>3</title>
<ellipse fill="none" stroke="#bbbbbb" cx="27" cy="-118.13" rx="27" ry="27"/>
<text text-anchor="start" x="22.88" y="-113.45" font-family="monospace" font-size="14.00" fill="#bbbbbb">3</text>
</g>
<!-- 0 -->
<g id="node2" class="node">
<title>0</title>
<ellipse fill="none" stroke="red" stroke-width="2" cx="115.4" cy="-118.13" rx="27" ry="27"/>
<text text-anchor="start" x="111.27" y="-120.08" font-family="monospace" font-size="14.00">0</text>
<text text-anchor="start" x="98.9" y="-105.58" font-family="monospace" font-size="9.00">p(0)=⊥</text>
</g>
<!-- 3&#45;&gt;0 -->
<g id="edge2" class="edge">
<title>3&#45;&gt;0</title>
<path fill="none" stroke="#bbbbbb" d="M54.48,-118.13C62.72,-118.13 71.85,-118.13 80.5,-118.13"/>
<polygon fill="#bbbbbb" stroke="#bbbbbb" points="80.41,-120.23 86.41,-118.13 80.41,-116.03 80.41,-120.23"/>
</g>
<!-- 1 -->
<g id="node3" class="node">
<title>1</title>
<ellipse fill="none" stroke="red" stroke-width="2" cx="208.67" cy="-113.3" rx="27" ry="27"/>
<text text-anchor="start" x="204.54" y="-115.25" font-family="monospace" font-size="14.00">1</text>
<text text-anchor="start" x="192.92" y="-100.75" font-family="monospace" font-size="9.00">p(1)=0</text>
</g>
<!-- 0&#45;&gt;1 -->
<g id="edge1" class="edge">
<title>0&#45;&gt;1</title>
<path fill="none" stroke="red" stroke-width="2" d="M142.37,-116.73C152.24,-116.22 163.55,-115.63 174,-115.09"/>
<polygon fill="red" stroke="red" stroke-width="2" points="172.52,-117.27 178.4,-114.86 172.3,-113.08 172.52,-117.27"/>
</g>
<!-- 2 -->
<g id="node4" class="node">
<title>2</title>
<ellipse fill="none" stroke="red" stroke-width="2" cx="266.36" cy="-186.74" rx="27" ry="27"/>
<text text-anchor="start" x="262.24" y="-188.69" font-family="monospace" font-size="14.00">2</text>
<text text-anchor="start" x="250.61" y="-174.19" font-family="monospace" font-size="9.00">p(2)=1</text>
</g>
<!-- 1&#45;&gt;2 -->
<g id="edge3" class="edge">
<title>1&#45;&gt;2</title>
<path fill="none" stroke="red" stroke-width="2" d="M225.36,-134.54C231.52,-142.39 238.59,-151.39 245.11,-159.68"/>
<polygon fill="red" stroke="red" stroke-width="2" points="242.28,-159.49 247.64,-162.91 245.59,-156.89 242.28,-159.49"/>
</g>
<!-- 4 -->
<g id="node5" class="node">
<title>4</title>
<ellipse fill="none" stroke="red" stroke-width="2" cx="247.89" cy="-27" rx="27" ry="27"/>
<text text-anchor="start" x="243.76" y="-28.95" font-family="monospace" font-size="14.00">4</text>
<text text-anchor="start" x="232.14" y="-14.45" font-family="monospace" font-size="9.00">p(4)=1</text>
</g>
<!-- 1&#45;&gt;4 -->
<g id="edge4" class="edge">
<title>1&#45;&gt;4</title>
<path fill="none" stroke="red" stroke-width="2" d="M220.01,-88.33C224.24,-79.03 229.09,-68.35 233.56,-58.53"/>
<polygon fill="red" stroke="red" stroke-width="2" points="234.75,-60.99 235.32,-54.66 230.92,-59.25 234.75,-60.99"/>
</g>
<!-- 5 -->
<g id="node6" class="node">
<title>5</title>
<ellipse fill="none" stroke="red" stroke-width="2" cx="324.5" cy="-253.33" rx="27" ry="27"/>
<text text-anchor="start" x="320.37" y="-255.28" font-family="monospace" font-size="14.00">5</text>
<text text-anchor="start" x="308.75" y="-240.78" font-family="monospace" font-size="9.00">p(5)=2</text>
</g>
<!-- 2&#45;&gt;5 -->
<g id="edge5" class="edge">
<title>2&#45;&gt;5</title>
<path fill="none" stroke="red" stroke-width="2" d="M284.44,-207.45C289.96,-213.77 296.1,-220.8 301.88,-227.43"/>
<polygon fill="red" stroke="red" stroke-width="2" points="299.11,-227.45 304.64,-230.59 302.28,-224.69 299.11,-227.45"/>
</g>
</g>
</svg>
