<?xml version="1.0" encoding="UTF-8" standalone="no"?>
<!DOCTYPE svg PUBLIC "-//W3C//DTD SVG 1.1//EN"
 "http://www.w3.org/Graphics/SVG/1.1/DTD/svg11.dtd">
<!-- Generated by graphviz version 12.0.0 (20240704.0754)
 -->
<!-- Pages: 1 -->
<svg width="355pt" height="282pt"
 viewBox="0.00 0.00 355.02 282.47" xmlns="http://www.w3.org/2000/svg" xmlns:xlink="http://www.w3.org/1999/xlink">
<g id="graph0" class="graph" transform="scale(1 1) rotate(0) translate(14.4 268.07)">
<polygon fill="white" stroke="none" points="-14.4,14.4 -14.4,-268.07 340.62,-268.07 340.62,14.4 -14.4,14.4"/>
<!-- 3 -->
<g id="node1" class="node">
<title>3</title>
<ellipse fill="none" stroke="#aaaaaa" cx="103.15" cy="-223.07" rx="30.6" ry="30.6"/>
<text text-anchor="start" x="99.02" y="-219.4" font-family="monospace" font-weight="bold" font-size="14.00" fill="#aaaaaa">3</text>
</g>
<!-- 0 -->
<g id="node2" class="node">
<title>0</title>
<ellipse fill="none" stroke="red" stroke-width="2" cx="223.07" cy="-223.07" rx="30.6" ry="30.6"/>
<text text-anchor="start" x="218.95" y="-225.77" font-family="monospace" font-weight="bold" font-size="14.00">0</text>
<text text-anchor="start" x="205.07" y="-212.32" font-family="monospace" font-size="10.00">t(0)=</text>
<text text-anchor="start" x="235.07" y="-212.32" font-family="monospace" font-weight="bold" font-size="10.00">0</text>
</g>
<!-- 3&#45;&gt;0 -->
<g id="edge2" class="edge">
<title>3&#45;&gt;0</title>
<path fill="none" stroke="#aaaaaa" d="M134.03,-223.07C149.56,-223.07 168.52,-223.07 184.95,-223.07"/>
<polygon fill="#aaaaaa" stroke="#aaaaaa" points="184.78,-225.17 190.78,-223.07 184.78,-220.97 184.78,-225.17"/>
</g>
<!-- 1 -->
<g id="node3" class="node">
<title>1</title>
<ellipse fill="none" stroke="red" stroke-width="2" cx="223.07" cy="-103.15" rx="30.6" ry="30.6"/>
<text text-anchor="start" x="218.95" y="-105.85" font-family="monospace" font-weight="bold" font-size="14.00">1</text>
<text text-anchor="start" x="205.07" y="-92.4" font-family="monospace" font-size="10.00">t(1)=</text>
<text text-anchor="start" x="235.07" y="-92.4" font-family="monospace" font-weight="bold" font-size="10.00">1</text>
</g>
<!-- 0&#45;&gt;1 -->
<g id="edge1" class="edge">
<title>0&#45;&gt;1</title>
<path fill="none" stroke="red" stroke-width="2" d="M223.07,-192.19C223.07,-176.66 223.07,-157.7 223.07,-141.28"/>
<polygon fill="red" stroke="red" stroke-width="2" points="225.17,-142.95 223.07,-136.95 220.97,-142.95 225.17,-142.95"/>
</g>
<!-- 2 -->
<g id="node4" class="node">
<title>2</title>
<ellipse fill="none" stroke="red" stroke-width="2" cx="103.15" cy="-103.15" rx="30.6" ry="30.6"/>
<text text-anchor="start" x="99.02" y="-105.85" font-family="monospace" font-weight="bold" font-size="14.00">2</text>
<text text-anchor="start" x="85.15" y="-92.4" font-family="monospace" font-size="10.00">t(2)=</text>
<text text-anchor="start" x="115.15" y="-92.4" font-family="monospace" font-weight="bold" font-size="10.00">3</text>
</g>
<!-- 1&#45;&gt;2 -->
<g id="edge3" class="edge">
<title>1&#45;&gt;2</title>
<path fill="none" stroke="red" stroke-width="2" d="M192.19,-103.15C176.66,-103.15 157.7,-103.15 141.28,-103.15"/>
<polygon fill="red" stroke="red" stroke-width="2" points="142.95,-101.05 136.95,-103.15 142.95,-105.25 142.95,-101.05"/>
</g>
<!-- 4 -->
<g id="node5" class="node">
<title>4</title>
<ellipse fill="none" stroke="red" stroke-width="2" cx="295.62" cy="-30.6" rx="30.6" ry="30.6"/>
<text text-anchor="start" x="291.5" y="-33.3" font-family="monospace" font-weight="bold" font-size="14.00">4</text>
<text text-anchor="start" x="277.62" y="-19.85" font-family="monospace" font-size="10.00">t(4)=</text>
<text text-anchor="start" x="307.62" y="-19.85" font-family="monospace" font-weight="bold" font-size="10.00">2</text>
</g>
<!-- 1&#45;&gt;4 -->
<g id="edge5" class="edge">
<title>1&#45;&gt;4</title>
<path fill="none" stroke="red" stroke-width="2" d="M244.84,-81.38C252.3,-73.92 260.74,-65.48 268.57,-57.65"/>
<polygon fill="red" stroke="red" stroke-width="2" points="268.97,-60.22 271.73,-54.49 266,-57.25 268.97,-60.22"/>
</g>
<!-- 2&#45;&gt;3 -->
<!-- 5 -->
<g id="node6" class="node">
<title>5</title>
<ellipse fill="none" stroke="red" stroke-width="2" cx="30.6" cy="-30.6" rx="30.6" ry="30.6"/>
<text text-anchor="start" x="26.47" y="-33.3" font-family="monospace" font-weight="bold" font-size="14.00">5</text>
<text text-anchor="start" x="12.6" y="-19.85" font-family="monospace" font-size="10.00">t(5)=</text>
<text text-anchor="start" x="42.6" y="-19.85" font-family="monospace" font-weight="bold" font-size="10.00">4</text>
</g>
<!-- 2&#45;&gt;5 -->
<g id="edge6" class="edge">
<title>2&#45;&gt;5</title>
<path fill="none" stroke="red" stroke-width="2" d="M81.38,-81.38C73.92,-73.92 65.48,-65.48 57.65,-57.65"/>
<polygon fill="red" stroke="red" stroke-width="2" points="60.22,-57.25 54.49,-54.49 57.25,-60.22 60.22,-57.25"/>
</g>
</g>
</svg>
