<?xml version="1.0" encoding="UTF-8" standalone="no"?>
<!DOCTYPE svg PUBLIC "-//W3C//DTD SVG 1.1//EN"
 "http://www.w3.org/Graphics/SVG/1.1/DTD/svg11.dtd">
<!-- Generated by graphviz version 12.0.0 (20240704.0754)
 -->
<!-- Pages: 1 -->
<svg width="338pt" height="389pt"
 viewBox="0.00 0.00 337.93 388.84" xmlns="http://www.w3.org/2000/svg" xmlns:xlink="http://www.w3.org/1999/xlink">
<g id="graph0" class="graph" transform="scale(1 1) rotate(0) translate(14.4 374.44)">
<polygon fill="white" stroke="none" points="-14.4,14.4 -14.4,-374.44 323.53,-374.44 323.53,14.4 -14.4,14.4"/>
<!-- 2 -->
<g id="node1" class="node">
<title>2</title>
<ellipse fill="none" stroke="#aaaaaa" cx="193.9" cy="-178.87" rx="18" ry="18"/>
<text text-anchor="middle" x="193.9" y="-174.2" font-family="monospace" font-size="14.00" fill="#aaaaaa">2</text>
</g>
<!-- 3 -->
<g id="node2" class="node">
<title>3</title>
<ellipse fill="none" stroke="red" stroke-width="2" cx="291.13" cy="-178.87" rx="18" ry="18"/>
<text text-anchor="middle" x="291.13" y="-174.2" font-family="monospace" font-size="14.00">3</text>
</g>
<!-- 2&#45;&gt;3 -->
<g id="edge5" class="edge">
<title>2&#45;&gt;3</title>
<path fill="none" stroke="#aaaaaa" d="M212.19,-178.87C227.26,-178.87 248.81,-178.87 265.59,-178.87"/>
<polygon fill="#aaaaaa" stroke="#aaaaaa" points="265.41,-180.97 271.41,-178.87 265.41,-176.77 265.41,-180.97"/>
</g>
<!-- 5 -->
<g id="node6" class="node">
<title>5</title>
<ellipse fill="none" stroke="blue" stroke-width="2" cx="18" cy="-229.79" rx="18" ry="18"/>
<text text-anchor="middle" x="18" y="-225.11" font-family="monospace" font-size="14.00">5</text>
</g>
<!-- 2&#45;&gt;5 -->
<g id="edge6" class="edge">
<title>2&#45;&gt;5</title>
<path fill="none" stroke="#aaaaaa" d="M176.39,-183.94C144.86,-193.07 78.48,-212.28 42.48,-222.7"/>
<polygon fill="#aaaaaa" stroke="#aaaaaa" points="42.33,-220.56 37.15,-224.24 43.5,-224.59 42.33,-220.56"/>
</g>
<!-- 6 -->
<g id="node7" class="node">
<title>6</title>
<ellipse fill="none" stroke="blue" stroke-width="2" cx="66.62" cy="-278.4" rx="18" ry="18"/>
<text text-anchor="middle" x="66.62" y="-273.73" font-family="monospace" font-size="14.00">6</text>
</g>
<!-- 2&#45;&gt;6 -->
<g id="edge7" class="edge">
<title>2&#45;&gt;6</title>
<path fill="none" stroke="#aaaaaa" d="M179.79,-189.91C157.26,-207.52 113.05,-242.09 87.06,-262.42"/>
<polygon fill="#aaaaaa" stroke="#aaaaaa" points="85.8,-260.73 82.37,-266.08 88.39,-264.04 85.8,-260.73"/>
</g>
<!-- 0 -->
<g id="node3" class="node">
<title>0</title>
<ellipse fill="none" stroke="red" stroke-width="2" cx="291.13" cy="-81.64" rx="18" ry="18"/>
<text text-anchor="middle" x="291.13" y="-76.96" font-family="monospace" font-size="14.00">0</text>
</g>
<!-- 3&#45;&gt;0 -->
<g id="edge1" class="edge">
<title>3&#45;&gt;0</title>
<path fill="none" stroke="red" stroke-width="2" d="M291.13,-160.58C291.13,-145.51 291.13,-123.96 291.13,-107.18"/>
<polygon fill="red" stroke="red" stroke-width="2" points="293.23,-108.87 291.13,-102.87 289.03,-108.87 293.23,-108.87"/>
<text text-anchor="start" x="268.13" y="-104.55" font-family="monospace" font-size="9.00">d=1 </text>
<text text-anchor="start" x="268.13" y="-150.03" font-family="monospace" font-size="9.00">d=0 </text>
</g>
<!-- 1 -->
<g id="node4" class="node">
<title>1</title>
<ellipse fill="none" stroke="red" stroke-width="2" cx="193.9" cy="-81.64" rx="18" ry="18"/>
<text text-anchor="middle" x="193.9" y="-76.96" font-family="monospace" font-size="14.00">1</text>
</g>
<!-- 0&#45;&gt;1 -->
<g id="edge2" class="edge">
<title>0&#45;&gt;1</title>
<path fill="none" stroke="red" stroke-width="2" d="M272.84,-81.64C257.77,-81.64 236.21,-81.64 219.44,-81.64"/>
<polygon fill="red" stroke="red" stroke-width="2" points="221.13,-79.54 215.13,-81.64 221.13,-83.74 221.13,-79.54"/>
<text text-anchor="start" x="216.1" y="-88.34" font-family="monospace" font-size="9.00"> d=2 </text>
</g>
<!-- 1&#45;&gt;2 -->
<!-- 4 -->
<g id="node5" class="node">
<title>4</title>
<ellipse fill="none" stroke="red" stroke-width="2" cx="130.26" cy="-18" rx="18" ry="18"/>
<text text-anchor="middle" x="130.26" y="-13.32" font-family="monospace" font-size="14.00">4</text>
</g>
<!-- 1&#45;&gt;4 -->
<g id="edge4" class="edge">
<title>1&#45;&gt;4</title>
<path fill="none" stroke="red" stroke-width="2" d="M181.02,-68.76C171.62,-59.36 158.74,-46.49 148.32,-36.06"/>
<polygon fill="red" stroke="red" stroke-width="2" points="150.98,-35.76 145.26,-33 148.01,-38.73 150.98,-35.76"/>
<text text-anchor="start" x="143.12" y="-33.56" font-family="monospace" font-size="9.00"> &#160;&#160;&#160;d=3 </text>
</g>
<!-- 6&#45;&gt;5 -->
<g id="edge8" class="edge">
<title>6&#45;&gt;5</title>
<path fill="none" stroke="blue" stroke-width="2" d="M53.59,-265.37C48.25,-260.03 41.97,-253.76 36.19,-247.98"/>
<polygon fill="blue" stroke="blue" stroke-width="2" points="38.93,-247.75 33.2,-244.99 35.96,-250.72 38.93,-247.75"/>
<text text-anchor="start" x="31.06" y="-245.55" font-family="monospace" font-size="9.00"> &#160;&#160;&#160;d=2</text>
</g>
<!-- 7 -->
<g id="node8" class="node">
<title>7</title>
<ellipse fill="none" stroke="blue" stroke-width="2" cx="130.26" cy="-342.04" rx="18" ry="18"/>
<text text-anchor="middle" x="130.26" y="-337.37" font-family="monospace" font-size="14.00">7</text>
</g>
<!-- 6&#45;&gt;7 -->
<g id="edge9" class="edge">
<title>6&#45;&gt;7</title>
<path fill="none" stroke="#aaaaaa" d="M75.03,-294.53C83.66,-305.26 97.15,-319.04 108.69,-329.07"/>
<polygon fill="#aaaaaa" stroke="#aaaaaa" points="107.06,-330.45 113.01,-332.69 109.76,-327.23 107.06,-330.45"/>
</g>
<!-- 7&#45;&gt;6 -->
<g id="edge10" class="edge">
<title>7&#45;&gt;6</title>
<path fill="none" stroke="blue" stroke-width="2" d="M121.85,-325.91C113.21,-315.18 99.73,-301.4 88.19,-291.37"/>
<polygon fill="blue" stroke="blue" stroke-width="2" points="90.97,-290.97 85.02,-288.72 88.27,-294.19 90.97,-290.97"/>
<text text-anchor="start" x="82.71" y="-289.48" font-family="monospace" font-size="9.00"> &#160;&#160;&#160;d=1</text>
<text text-anchor="start" x="90.35" y="-317.36" font-family="monospace" font-size="9.00"> d=0 &#160;</text>
</g>
</g>
</svg>
