<?xml version="1.0" encoding="UTF-8" standalone="no"?>
<!DOCTYPE svg PUBLIC "-//W3C//DTD SVG 1.1//EN"
 "http://www.w3.org/Graphics/SVG/1.1/DTD/svg11.dtd">
<!-- Generated by graphviz version 12.0.0 (20240704.0754)
 -->
<!-- Pages: 1 -->
<svg width="355pt" height="282pt"
 viewBox="0.00 0.00 355.02 282.47" xmlns="http://www.w3.org/2000/svg" xmlns:xlink="http://www.w3.org/1999/xlink">
<g id="graph0" class="graph" transform="scale(1 1) rotate(0) translate(14.4 268.07)">
<polygon fill="white" stroke="none" points="-14.4,14.4 -14.4,-268.07 340.62,-268.07 340.62,14.4 -14.4,14.4"/>
<!-- 3 -->
<g id="node1" class="node">
<title>3</title>
<ellipse fill="none" stroke="#aaaaaa" cx="103.15" cy="-223.07" rx="30.6" ry="30.6"/>
<text text-anchor="start" x="99.02" y="-218.4" font-family="monospace" font-size="14.00" fill="#aaaaaa">3</text>
</g>
<!-- 0 -->
<g id="node2" class="node">
<title>0</title>
<ellipse fill="none" stroke="red" stroke-width="2" cx="223.07" cy="-223.07" rx="30.6" ry="30.6"/>
<text text-anchor="start" x="218.95" y="-218.4" font-family="monospace" font-size="14.00">0</text>
</g>
<!-- 3&#45;&gt;0 -->
<g id="edge2" class="edge">
<title>3&#45;&gt;0</title>
<path fill="none" stroke="#aaaaaa" d="M134.03,-223.07C149.56,-223.07 168.52,-223.07 184.95,-223.07"/>
<polygon fill="#aaaaaa" stroke="#aaaaaa" points="184.78,-225.17 190.78,-223.07 184.78,-220.97 184.78,-225.17"/>
</g>
<!-- 1 -->
<g id="node3" class="node">
<title>1</title>
<ellipse fill="none" stroke="red" stroke-width="2" cx="223.07" cy="-103.15" rx="30.6" ry="30.6"/>
<text text-anchor="start" x="218.95" y="-98.47" font-family="monospace" font-size="14.00">1</text>
</g>
<!-- 0&#45;&gt;1 -->
<g id="edge1" class="edge">
<title>0&#45;&gt;1</title>
<path fill="none" stroke="red" stroke-width="2" d="M229.02,-192.81C229.95,-177.05 230.07,-157.62 229.39,-140.88"/>
<polygon fill="red" stroke="red" stroke-width="2" points="231.56,-142.31 229.17,-136.42 227.37,-142.52 231.56,-142.31"/>
</g>
<!-- 1&#45;&gt;0 -->
<g id="edge10" class="edge">
<title>1&#45;&gt;0</title>
<path fill="none" stroke="black" stroke-dasharray="5,2" d="M217.12,-133.41C216.2,-149.18 216.07,-168.6 216.75,-185.34"/>
<polygon fill="black" stroke="black" points="214.65,-185.42 217.05,-191.31 218.85,-185.21 214.65,-185.42"/>
</g>
<!-- 2 -->
<g id="node4" class="node">
<title>2</title>
<ellipse fill="none" stroke="red" stroke-width="2" cx="103.15" cy="-103.15" rx="30.6" ry="30.6"/>
<text text-anchor="start" x="99.02" y="-98.47" font-family="monospace" font-size="14.00">2</text>
</g>
<!-- 1&#45;&gt;2 -->
<g id="edge3" class="edge">
<title>1&#45;&gt;2</title>
<path fill="none" stroke="red" stroke-width="2" d="M192.81,-97.2C177.05,-96.27 157.62,-96.15 140.88,-96.83"/>
<polygon fill="red" stroke="red" stroke-width="2" points="142.31,-94.66 136.42,-97.05 142.52,-98.85 142.31,-94.66"/>
</g>
<!-- 4 -->
<g id="node5" class="node">
<title>4</title>
<ellipse fill="none" stroke="red" stroke-width="2" cx="295.62" cy="-30.6" rx="30.6" ry="30.6"/>
<text text-anchor="start" x="291.5" y="-25.92" font-family="monospace" font-size="14.00">4</text>
</g>
<!-- 1&#45;&gt;4 -->
<g id="edge5" class="edge">
<title>1&#45;&gt;4</title>
<path fill="none" stroke="red" stroke-width="2" d="M248.84,-86.17C257.01,-78.83 265.94,-70.05 273.8,-61.64"/>
<polygon fill="red" stroke="red" stroke-width="2" points="273.99,-64.54 276.5,-58.7 270.9,-61.7 273.99,-64.54"/>
</g>
<!-- 2&#45;&gt;3 -->
<!-- 2&#45;&gt;1 -->
<g id="edge8" class="edge">
<title>2&#45;&gt;1</title>
<path fill="none" stroke="black" stroke-dasharray="5,2" d="M133.41,-109.1C149.18,-110.02 168.6,-110.15 185.34,-109.47"/>
<polygon fill="black" stroke="black" points="185.42,-111.57 191.31,-109.18 185.21,-107.37 185.42,-111.57"/>
</g>
<!-- 5 -->
<g id="node6" class="node">
<title>5</title>
<ellipse fill="none" stroke="red" stroke-width="2" cx="30.6" cy="-30.6" rx="30.6" ry="30.6"/>
<text text-anchor="start" x="26.47" y="-25.93" font-family="monospace" font-size="14.00">5</text>
</g>
<!-- 2&#45;&gt;5 -->
<g id="edge6" class="edge">
<title>2&#45;&gt;5</title>
<path fill="none" stroke="red" stroke-width="2" d="M86.17,-77.38C78.83,-69.21 70.05,-60.28 61.64,-52.42"/>
<polygon fill="red" stroke="red" stroke-width="2" points="64.54,-52.23 58.7,-49.72 61.7,-55.32 64.54,-52.23"/>
</g>
<!-- 4&#45;&gt;1 -->
<g id="edge9" class="edge">
<title>4&#45;&gt;1</title>
<path fill="none" stroke="black" stroke-dasharray="5,2" d="M269.85,-47.58C261.68,-54.92 252.76,-63.7 244.89,-72.11"/>
<polygon fill="black" stroke="black" points="243.68,-70.32 241.17,-76.16 246.77,-73.16 243.68,-70.32"/>
</g>
<!-- 5&#45;&gt;2 -->
<g id="edge7" class="edge">
<title>5&#45;&gt;2</title>
<path fill="none" stroke="black" stroke-dasharray="5,2" d="M47.58,-56.37C54.92,-64.54 63.7,-73.46 72.11,-81.33"/>
<polygon fill="black" stroke="black" points="70.32,-82.54 76.16,-85.05 73.16,-79.45 70.32,-82.54"/>
</g>
</g>
</svg>
