<?xml version="1.0" encoding="UTF-8" standalone="no"?>
<!DOCTYPE svg PUBLIC "-//W3C//DTD SVG 1.1//EN"
 "http://www.w3.org/Graphics/SVG/1.1/DTD/svg11.dtd">
<!-- Generated by graphviz version 12.0.0 (20240704.0754)
 -->
<!-- Pages: 1 -->
<svg width="550pt" height="310pt"
 viewBox="0.00 0.00 549.59 310.31" xmlns="http://www.w3.org/2000/svg" xmlns:xlink="http://www.w3.org/1999/xlink">
<g id="graph0" class="graph" transform="scale(1 1) rotate(0) translate(14.4 295.91)">
<polygon fill="white" stroke="none" points="-14.4,14.4 -14.4,-295.91 535.19,-295.91 535.19,14.4 -14.4,14.4"/>
<!-- 3 -->
<g id="node1" class="node">
<title>3</title>
<ellipse fill="none" stroke="red" stroke-width="2" cx="196.8" cy="-250.91" rx="30.6" ry="30.6"/>
<text text-anchor="start" x="192.67" y="-246.24" font-family="monospace" font-size="14.00">3</text>
</g>
<!-- 0 -->
<g id="node2" class="node">
<title>0</title>
<ellipse fill="none" stroke="red" stroke-width="2" cx="323.99" cy="-250.91" rx="30.6" ry="30.6"/>
<text text-anchor="start" x="319.87" y="-246.24" font-family="monospace" font-size="14.00">0</text>
</g>
<!-- 3&#45;&gt;0 -->
<g id="edge1" class="edge">
<title>3&#45;&gt;0</title>
<path fill="none" stroke="red" stroke-width="2" d="M227.27,-256.77C245.04,-257.82 267.61,-257.94 286.48,-257.13"/>
<polygon fill="red" stroke="red" stroke-width="2" points="284.87,-259.31 290.75,-256.91 284.65,-255.12 284.87,-259.31"/>
</g>
<!-- 0&#45;&gt;3 -->
<g id="edge17" class="edge">
<title>0&#45;&gt;3</title>
<path fill="none" stroke="black" stroke-dasharray="5,2" d="M293.53,-245.05C275.75,-244 253.18,-243.88 234.31,-244.69"/>
<polygon fill="black" stroke="black" points="234.41,-242.59 228.53,-244.99 234.63,-246.78 234.41,-242.59"/>
</g>
<!-- 1 -->
<g id="node3" class="node">
<title>1</title>
<ellipse fill="none" stroke="red" stroke-width="2" cx="387.59" cy="-140.76" rx="30.6" ry="30.6"/>
<text text-anchor="start" x="383.47" y="-136.08" font-family="monospace" font-size="14.00">1</text>
</g>
<!-- 0&#45;&gt;1 -->
<g id="edge2" class="edge">
<title>0&#45;&gt;1</title>
<path fill="none" stroke="red" stroke-width="2" d="M344.3,-227.46C354.1,-212.59 365.49,-193.1 374.22,-176.35"/>
<polygon fill="red" stroke="red" stroke-width="2" points="375.31,-178.84 376.17,-172.54 371.57,-176.93 375.31,-178.84"/>
</g>
<!-- 1&#45;&gt;0 -->
<g id="edge16" class="edge">
<title>1&#45;&gt;0</title>
<path fill="none" stroke="black" stroke-dasharray="5,2" d="M367.29,-164.21C357.48,-179.08 346.1,-198.57 337.37,-215.31"/>
<polygon fill="black" stroke="black" points="335.59,-214.17 334.73,-220.47 339.33,-216.08 335.59,-214.17"/>
</g>
<!-- 2 -->
<g id="node4" class="node">
<title>2</title>
<ellipse fill="none" stroke="red" stroke-width="2" cx="323.99" cy="-30.6" rx="30.6" ry="30.6"/>
<text text-anchor="start" x="319.87" y="-25.93" font-family="monospace" font-size="14.00">2</text>
</g>
<!-- 1&#45;&gt;2 -->
<g id="edge3" class="edge">
<title>1&#45;&gt;2</title>
<path fill="none" stroke="red" stroke-width="2" d="M377.43,-111.44C369.46,-95.52 358.28,-75.91 348.14,-59.98"/>
<polygon fill="red" stroke="red" stroke-width="2" points="350.84,-60.28 345.81,-56.39 347.31,-62.57 350.84,-60.28"/>
</g>
<!-- 4 -->
<g id="node5" class="node">
<title>4</title>
<ellipse fill="none" stroke="red" stroke-width="2" cx="490.19" cy="-140.76" rx="30.6" ry="30.6"/>
<text text-anchor="start" x="486.07" y="-136.08" font-family="monospace" font-size="14.00">4</text>
</g>
<!-- 1&#45;&gt;4 -->
<g id="edge4" class="edge">
<title>1&#45;&gt;4</title>
<path fill="none" stroke="red" stroke-width="2" d="M417.82,-146.97C428.68,-147.55 441.07,-147.66 452.49,-147.29"/>
<polygon fill="red" stroke="red" stroke-width="2" points="450.9,-149.46 456.8,-147.11 450.72,-145.26 450.9,-149.46"/>
</g>
<!-- 5 -->
<g id="node8" class="node">
<title>5</title>
<ellipse fill="none" stroke="blue" stroke-width="2" cx="196.8" cy="-30.6" rx="30.6" ry="30.6"/>
<text text-anchor="start" x="192.67" y="-25.92" font-family="monospace" font-size="14.00">5</text>
</g>
<!-- 1&#45;&gt;5 -->
<!-- 2&#45;&gt;3 -->
<g id="edge5" class="edge">
<title>2&#45;&gt;3</title>
<path fill="none" stroke="#aaaaaa" d="M308.65,-57.17C285.4,-97.45 241.26,-173.89 215.94,-217.75"/>
<polygon fill="#aaaaaa" stroke="#aaaaaa" points="214.13,-216.69 212.95,-222.93 217.77,-218.79 214.13,-216.69"/>
</g>
<!-- 2&#45;&gt;1 -->
<g id="edge14" class="edge">
<title>2&#45;&gt;1</title>
<path fill="none" stroke="black" stroke-dasharray="5,2" d="M334.15,-59.91C342.13,-75.84 353.31,-95.44 363.45,-111.37"/>
<polygon fill="black" stroke="black" points="361.58,-112.34 366.6,-116.24 365.1,-110.06 361.58,-112.34"/>
</g>
<!-- 6 -->
<g id="node7" class="node">
<title>6</title>
<ellipse fill="none" stroke="blue" stroke-width="2" cx="133.2" cy="-140.76" rx="30.6" ry="30.6"/>
<text text-anchor="start" x="129.07" y="-136.08" font-family="monospace" font-size="14.00">6</text>
</g>
<!-- 2&#45;&gt;6 -->
<g id="edge7" class="edge">
<title>2&#45;&gt;6</title>
<path fill="none" stroke="#aaaaaa" d="M297.06,-46.15C262.69,-66 203.25,-100.31 166.19,-121.71"/>
<polygon fill="#aaaaaa" stroke="#aaaaaa" points="165.45,-119.71 161.31,-124.53 167.55,-123.35 165.45,-119.71"/>
</g>
<!-- 2&#45;&gt;5 -->
<g id="edge6" class="edge">
<title>2&#45;&gt;5</title>
<path fill="none" stroke="#aaaaaa" d="M293.2,-30.6C275.68,-30.6 253.58,-30.6 234.96,-30.6"/>
<polygon fill="#aaaaaa" stroke="#aaaaaa" points="235.26,-28.5 229.26,-30.6 235.26,-32.7 235.26,-28.5"/>
</g>
<!-- 4&#45;&gt;1 -->
<g id="edge15" class="edge">
<title>4&#45;&gt;1</title>
<path fill="none" stroke="black" stroke-dasharray="5,2" d="M459.96,-134.54C449.1,-133.96 436.72,-133.85 425.3,-134.22"/>
<polygon fill="black" stroke="black" points="425.38,-132.12 419.47,-134.47 425.56,-136.31 425.38,-132.12"/>
</g>
<!-- 7 -->
<g id="node6" class="node">
<title>7</title>
<ellipse fill="none" stroke="blue" stroke-width="2" cx="30.6" cy="-140.76" rx="30.6" ry="30.6"/>
<text text-anchor="start" x="26.47" y="-136.08" font-family="monospace" font-size="14.00">7</text>
</g>
<!-- 7&#45;&gt;6 -->
<g id="edge10" class="edge">
<title>7&#45;&gt;6</title>
<path fill="none" stroke="blue" stroke-width="2" d="M59.18,-153C71.08,-154.4 85.01,-154.63 97.57,-153.68"/>
<polygon fill="blue" stroke="blue" stroke-width="2" points="95.99,-155.94 101.76,-153.27 95.59,-151.76 95.99,-155.94"/>
</g>
<!-- 6&#45;&gt;7 -->
<g id="edge9" class="edge">
<title>6&#45;&gt;7</title>
<path fill="none" stroke="#aaaaaa" d="M104.62,-128.51C92.72,-127.11 78.79,-126.88 66.23,-127.83"/>
<polygon fill="#aaaaaa" stroke="#aaaaaa" points="66.3,-125.71 60.53,-128.38 66.71,-129.9 66.3,-125.71"/>
</g>
<!-- 6&#45;&gt;7 -->
<g id="edge12" class="edge">
<title>6&#45;&gt;7</title>
<path fill="none" stroke="black" stroke-dasharray="5,2" d="M102.14,-140.76C91.69,-140.76 79.91,-140.76 68.97,-140.76"/>
<polygon fill="black" stroke="black" points="69.07,-138.66 63.07,-140.76 69.07,-142.86 69.07,-138.66"/>
</g>
<!-- 6&#45;&gt;5 -->
<g id="edge8" class="edge">
<title>6&#45;&gt;5</title>
<path fill="none" stroke="blue" stroke-width="2" d="M153.51,-117.3C163.31,-102.43 174.7,-82.94 183.43,-66.2"/>
<polygon fill="blue" stroke="blue" stroke-width="2" points="184.51,-68.69 185.37,-62.39 180.77,-66.77 184.51,-68.69"/>
</g>
<!-- 5&#45;&gt;6 -->
<g id="edge13" class="edge">
<title>5&#45;&gt;6</title>
<path fill="none" stroke="black" stroke-dasharray="5,2" d="M176.49,-54.06C166.69,-68.93 155.3,-88.41 146.57,-105.16"/>
<polygon fill="black" stroke="black" points="144.8,-104.02 143.94,-110.32 148.54,-105.93 144.8,-104.02"/>
</g>
</g>
</svg>
