<?xml version="1.0" encoding="UTF-8" standalone="no"?>
<!DOCTYPE svg PUBLIC "-//W3C//DTD SVG 1.1//EN"
 "http://www.w3.org/Graphics/SVG/1.1/DTD/svg11.dtd">
<!-- Generated by graphviz version 12.0.0 (20240704.0754)
 -->
<!-- Pages: 1 -->
<svg width="301pt" height="271pt"
 viewBox="0.00 0.00 300.77 270.74" xmlns="http://www.w3.org/2000/svg" xmlns:xlink="http://www.w3.org/1999/xlink">
<g id="graph0" class="graph" transform="scale(1 1) rotate(0) translate(14.4 256.34)">
<polygon fill="white" stroke="none" points="-14.4,14.4 -14.4,-256.34 286.37,-256.34 286.37,14.4 -14.4,14.4"/>
<!-- 3 -->
<g id="node1" class="node">
<title>3</title>
<ellipse fill="none" stroke="red" stroke-width="2" cx="118.07" cy="-223.94" rx="18" ry="18"/>
<text text-anchor="middle" x="118.07" y="-219.27" font-family="monospace" font-size="14.00">3</text>
</g>
<!-- 0 -->
<g id="node2" class="node">
<title>0</title>
<ellipse fill="none" stroke="red" stroke-width="2" cx="197.12" cy="-223.94" rx="18" ry="18"/>
<text text-anchor="middle" x="197.12" y="-219.27" font-family="monospace" font-size="14.00">0</text>
</g>
<!-- 3&#45;&gt;0 -->
<g id="edge1" class="edge">
<title>3&#45;&gt;0</title>
<path fill="none" stroke="red" stroke-width="2" d="M135.61,-229.66C146.36,-230.79 160.28,-230.99 172.16,-230.27"/>
<polygon fill="red" stroke="red" stroke-width="2" points="170.8,-232.49 176.61,-229.9 170.45,-228.3 170.8,-232.49"/>
</g>
<!-- 0&#45;&gt;3 -->
<g id="edge14" class="edge">
<title>0&#45;&gt;3</title>
<path fill="none" stroke="black" stroke-dasharray="5,2" d="M179.57,-218.22C168.83,-217.1 154.9,-216.89 143.02,-217.62"/>
<polygon fill="black" stroke="black" points="142.88,-215.52 137.07,-218.11 143.22,-219.71 142.88,-215.52"/>
</g>
<!-- 1 -->
<g id="node3" class="node">
<title>1</title>
<ellipse fill="none" stroke="red" stroke-width="2" cx="187.72" cy="-142.93" rx="18" ry="18"/>
<text text-anchor="middle" x="187.72" y="-138.25" font-family="monospace" font-size="14.00">1</text>
</g>
<!-- 0&#45;&gt;1 -->
<g id="edge2" class="edge">
<title>0&#45;&gt;1</title>
<path fill="none" stroke="red" stroke-width="2" d="M200.72,-206.11C200.62,-194.56 199.07,-179.37 196.79,-166.78"/>
<polygon fill="red" stroke="red" stroke-width="2" points="199.21,-168.15 195.96,-162.68 195.09,-168.98 199.21,-168.15"/>
</g>
<!-- 1&#45;&gt;0 -->
<g id="edge13" class="edge">
<title>1&#45;&gt;0</title>
<path fill="none" stroke="black" stroke-dasharray="5,2" d="M184.11,-160.76C184.21,-172.32 185.76,-187.51 188.05,-200.1"/>
<polygon fill="black" stroke="black" points="185.93,-200.21 189.17,-205.68 190.04,-199.38 185.93,-200.21"/>
</g>
<!-- 2 -->
<g id="node4" class="node">
<title>2</title>
<ellipse fill="none" stroke="red" stroke-width="2" cx="106.44" cy="-142.47" rx="18" ry="18"/>
<text text-anchor="middle" x="106.44" y="-137.79" font-family="monospace" font-size="14.00">2</text>
</g>
<!-- 1&#45;&gt;2 -->
<g id="edge3" class="edge">
<title>1&#45;&gt;2</title>
<path fill="none" stroke="red" stroke-width="2" d="M170.51,-137.2C159.07,-135.9 143.86,-135.6 131.13,-136.34"/>
<polygon fill="red" stroke="red" stroke-width="2" points="132.8,-134.11 126.98,-136.67 133.13,-138.29 132.8,-134.11"/>
</g>
<!-- 4 -->
<g id="node5" class="node">
<title>4</title>
<ellipse fill="none" stroke="red" stroke-width="2" cx="253.97" cy="-102.56" rx="18" ry="18"/>
<text text-anchor="middle" x="253.97" y="-97.88" font-family="monospace" font-size="14.00">4</text>
</g>
<!-- 1&#45;&gt;4 -->
<g id="edge4" class="edge">
<title>1&#45;&gt;4</title>
<path fill="none" stroke="red" stroke-width="2" d="M205.4,-138.85C214.99,-134.33 226.77,-127.39 236.35,-120.7"/>
<polygon fill="red" stroke="red" stroke-width="2" points="236.23,-123.39 239.84,-118.16 233.75,-120 236.23,-123.39"/>
</g>
<!-- 2&#45;&gt;3 -->
<g id="edge5" class="edge">
<title>2&#45;&gt;3</title>
<path fill="none" stroke="#bbbbbb" d="M109.02,-160.55C110.61,-171.65 112.66,-186.05 114.41,-198.32"/>
<polygon fill="#bbbbbb" stroke="#bbbbbb" points="112.31,-198.49 115.24,-204.13 116.47,-197.89 112.31,-198.49"/>
</g>
<!-- 2&#45;&gt;1 -->
<g id="edge12" class="edge">
<title>2&#45;&gt;1</title>
<path fill="none" stroke="black" stroke-dasharray="5,2" d="M123.65,-148.2C135.09,-149.5 150.3,-149.8 163.03,-149.05"/>
<polygon fill="black" stroke="black" points="162.87,-151.17 168.69,-148.61 162.54,-146.98 162.87,-151.17"/>
</g>
<!-- 6 -->
<g id="node7" class="node">
<title>6</title>
<ellipse fill="none" stroke="skyblue" stroke-width="2" cx="58.44" cy="-81.54" rx="18" ry="18"/>
<text text-anchor="middle" x="58.44" y="-76.87" font-family="monospace" font-size="14.00">6</text>
</g>
<!-- 2&#45;&gt;6 -->
<g id="edge7" class="edge">
<title>2&#45;&gt;6</title>
<path fill="none" stroke="#bbbbbb" d="M95.07,-128.03C88.85,-120.14 81.05,-110.24 74.25,-101.61"/>
<polygon fill="#bbbbbb" stroke="#bbbbbb" points="76.04,-100.48 70.67,-97.07 72.74,-103.08 76.04,-100.48"/>
</g>
<!-- 5 -->
<g id="node8" class="node">
<title>5</title>
<ellipse fill="none" stroke="skyblue" stroke-width="2" cx="30.44" cy="-145.18" rx="18" ry="18"/>
<text text-anchor="middle" x="30.44" y="-140.5" font-family="monospace" font-size="14.00">5</text>
</g>
<!-- 2&#45;&gt;5 -->
<g id="edge6" class="edge">
<title>2&#45;&gt;5</title>
<path fill="none" stroke="#bbbbbb" d="M88.04,-143.12C78.43,-143.47 66.51,-143.89 56.01,-144.27"/>
<polygon fill="#bbbbbb" stroke="#bbbbbb" points="56.1,-142.16 50.18,-144.47 56.25,-146.36 56.1,-142.16"/>
</g>
<!-- 4&#45;&gt;1 -->
<g id="edge11" class="edge">
<title>4&#45;&gt;1</title>
<path fill="none" stroke="black" stroke-dasharray="5,2" d="M236.29,-106.63C226.7,-111.16 214.92,-118.1 205.34,-124.78"/>
<polygon fill="black" stroke="black" points="204.24,-122.99 200.63,-128.22 206.71,-126.38 204.24,-122.99"/>
</g>
<!-- 7 -->
<g id="node6" class="node">
<title>7</title>
<ellipse fill="none" stroke="skyblue" stroke-width="2" cx="18" cy="-18" rx="18" ry="18"/>
<text text-anchor="middle" x="18" y="-13.32" font-family="monospace" font-size="14.00">7</text>
</g>
<!-- 7&#45;&gt;6 -->
<g id="edge10" class="edge">
<title>7&#45;&gt;6</title>
<path fill="none" stroke="skyblue" stroke-width="2" d="M16.59,-36.11C20.14,-47.07 28.1,-60.45 36.5,-70.03"/>
<polygon fill="skyblue" stroke="skyblue" stroke-width="2" points="33.69,-70.14 39.37,-73 36.72,-67.23 33.69,-70.14"/>
</g>
<!-- 6&#45;&gt;7 -->
<g id="edge9" class="edge">
<title>6&#45;&gt;7</title>
<path fill="none" stroke="#bbbbbb" d="M59.85,-63.43C56.3,-52.48 48.34,-39.09 39.94,-29.51"/>
<polygon fill="#bbbbbb" stroke="#bbbbbb" points="41.7,-28.31 36.02,-25.45 38.67,-31.23 41.7,-28.31"/>
</g>
<!-- 6&#45;&gt;7 -->
<g id="edge16" class="edge">
<title>6&#45;&gt;7</title>
<path fill="none" stroke="black" stroke-dasharray="5,2" d="M48.65,-66.16C43.54,-58.12 37.19,-48.15 31.61,-39.38"/>
<polygon fill="black" stroke="black" points="33.51,-38.45 28.51,-34.52 29.96,-40.71 33.51,-38.45"/>
</g>
<!-- 6&#45;&gt;5 -->
<g id="edge8" class="edge">
<title>6&#45;&gt;5</title>
<path fill="none" stroke="skyblue" stroke-width="2" d="M46.11,-94.89C41.98,-102.13 37.73,-111.31 34.49,-119.83"/>
<polygon fill="skyblue" stroke="skyblue" stroke-width="2" points="33.06,-117.58 33.04,-123.94 37.02,-118.98 33.06,-117.58"/>
</g>
<!-- 5&#45;&gt;6 -->
<g id="edge15" class="edge">
<title>5&#45;&gt;6</title>
<path fill="none" stroke="black" stroke-dasharray="5,2" d="M42.78,-131.83C46.91,-124.59 51.15,-115.42 54.39,-106.89"/>
<polygon fill="black" stroke="black" points="56.33,-107.71 56.34,-101.36 52.37,-106.31 56.33,-107.71"/>
</g>
</g>
</svg>
