<?xml version="1.0" encoding="UTF-8" standalone="no"?>
<!DOCTYPE svg PUBLIC "-//W3C//DTD SVG 1.1//EN"
 "http://www.w3.org/Graphics/SVG/1.1/DTD/svg11.dtd">
<!-- Generated by graphviz version 12.0.0 (20240704.0754)
 -->
<!-- Pages: 1 -->
<svg width="308pt" height="242pt"
 viewBox="0.00 0.00 308.09 241.90" xmlns="http://www.w3.org/2000/svg" xmlns:xlink="http://www.w3.org/1999/xlink">
<g id="graph0" class="graph" transform="scale(1 1) rotate(0) translate(14.4 227.5)">
<polygon fill="white" stroke="none" points="-14.4,14.4 -14.4,-227.5 293.69,-227.5 293.69,14.4 -14.4,14.4"/>
<!-- 3 -->
<g id="node1" class="node">
<title>3</title>
<ellipse fill="none" stroke="#aaaaaa" cx="87.79" cy="-191.5" rx="21.6" ry="21.6"/>
<text text-anchor="start" x="83.66" y="-186.83" font-family="monospace" font-size="14.00" fill="#aaaaaa">3</text>
</g>
<!-- 0 -->
<g id="node2" class="node">
<title>0</title>
<ellipse fill="none" stroke="red" stroke-width="2" cx="191.5" cy="-191.5" rx="21.6" ry="21.6"/>
<text text-anchor="start" x="187.38" y="-186.83" font-family="monospace" font-size="14.00">0</text>
</g>
<!-- 3&#45;&gt;0 -->
<g id="edge2" class="edge">
<title>3&#45;&gt;0</title>
<path fill="none" stroke="#aaaaaa" d="M109.78,-191.5C125.04,-191.5 145.54,-191.5 162.19,-191.5"/>
<polygon fill="#aaaaaa" stroke="#aaaaaa" points="162.02,-193.6 168.02,-191.5 162.02,-189.4 162.02,-193.6"/>
</g>
<!-- 1 -->
<g id="node3" class="node">
<title>1</title>
<ellipse fill="none" stroke="red" stroke-width="2" cx="191.5" cy="-87.79" rx="21.6" ry="21.6"/>
<text text-anchor="start" x="187.38" y="-83.11" font-family="monospace" font-size="14.00">1</text>
</g>
<!-- 0&#45;&gt;1 -->
<g id="edge1" class="edge">
<title>0&#45;&gt;1</title>
<path fill="none" stroke="red" stroke-width="2" d="M197.07,-170.26C198.45,-154.6 198.62,-133.14 197.59,-116.03"/>
<polygon fill="red" stroke="red" stroke-width="2" points="199.83,-117.84 197.29,-112.01 195.64,-118.15 199.83,-117.84"/>
</g>
<!-- 1&#45;&gt;0 -->
<g id="edge10" class="edge">
<title>1&#45;&gt;0</title>
<path fill="none" stroke="black" stroke-dasharray="5,2" d="M185.93,-109.02C184.55,-124.68 184.38,-146.15 185.42,-163.26"/>
<polygon fill="black" stroke="black" points="183.29,-162.95 185.82,-168.78 187.48,-162.64 183.29,-162.95"/>
</g>
<!-- 2 -->
<g id="node4" class="node">
<title>2</title>
<ellipse fill="none" stroke="red" stroke-width="2" cx="87.79" cy="-87.79" rx="21.6" ry="21.6"/>
<text text-anchor="start" x="83.66" y="-83.11" font-family="monospace" font-size="14.00">2</text>
</g>
<!-- 1&#45;&gt;2 -->
<g id="edge3" class="edge">
<title>1&#45;&gt;2</title>
<path fill="none" stroke="red" stroke-width="2" d="M170.26,-82.21C154.6,-80.84 133.14,-80.67 116.03,-81.7"/>
<polygon fill="red" stroke="red" stroke-width="2" points="117.84,-79.46 112.01,-82 118.15,-83.65 117.84,-79.46"/>
</g>
<!-- 4 -->
<g id="node5" class="node">
<title>4</title>
<ellipse fill="none" stroke="red" stroke-width="2" cx="257.69" cy="-21.6" rx="21.6" ry="21.6"/>
<text text-anchor="start" x="253.56" y="-16.92" font-family="monospace" font-size="14.00">4</text>
</g>
<!-- 1&#45;&gt;4 -->
<g id="edge5" class="edge">
<title>1&#45;&gt;4</title>
<path fill="none" stroke="red" stroke-width="2" d="M210.59,-76.84C220.61,-68.41 232.66,-56.6 242.11,-46.02"/>
<polygon fill="red" stroke="red" stroke-width="2" points="242.46,-48.82 244.81,-42.91 239.29,-46.07 242.46,-48.82"/>
</g>
<!-- 2&#45;&gt;3 -->
<!-- 2&#45;&gt;1 -->
<g id="edge8" class="edge">
<title>2&#45;&gt;1</title>
<path fill="none" stroke="black" stroke-dasharray="5,2" d="M109.02,-93.36C124.68,-94.73 146.15,-94.9 163.26,-93.87"/>
<polygon fill="black" stroke="black" points="162.95,-96 168.78,-93.46 162.64,-91.81 162.95,-96"/>
</g>
<!-- 5 -->
<g id="node6" class="node">
<title>5</title>
<ellipse fill="none" stroke="red" stroke-width="2" cx="21.6" cy="-21.6" rx="21.6" ry="21.6"/>
<text text-anchor="start" x="17.47" y="-16.93" font-family="monospace" font-size="14.00">5</text>
</g>
<!-- 2&#45;&gt;5 -->
<g id="edge6" class="edge">
<title>2&#45;&gt;5</title>
<path fill="none" stroke="red" stroke-width="2" d="M76.84,-68.69C68.41,-58.67 56.6,-46.63 46.02,-37.18"/>
<polygon fill="red" stroke="red" stroke-width="2" points="48.82,-36.82 42.91,-34.48 46.07,-39.99 48.82,-36.82"/>
</g>
<!-- 4&#45;&gt;1 -->
<g id="edge9" class="edge">
<title>4&#45;&gt;1</title>
<path fill="none" stroke="black" stroke-dasharray="5,2" d="M238.59,-32.54C228.58,-40.97 216.53,-52.78 207.08,-63.36"/>
<polygon fill="black" stroke="black" points="205.73,-61.71 203.38,-67.61 208.9,-64.46 205.73,-61.71"/>
</g>
<!-- 5&#45;&gt;2 -->
<g id="edge7" class="edge">
<title>5&#45;&gt;2</title>
<path fill="none" stroke="black" stroke-dasharray="5,2" d="M32.54,-40.69C40.97,-50.71 52.78,-62.75 63.36,-72.21"/>
<polygon fill="black" stroke="black" points="61.71,-73.55 67.61,-75.9 64.46,-70.38 61.71,-73.55"/>
</g>
</g>
</svg>
