<?xml version="1.0" encoding="UTF-8" standalone="no"?>
<!DOCTYPE svg PUBLIC "-//W3C//DTD SVG 1.1//EN"
 "http://www.w3.org/Graphics/SVG/1.1/DTD/svg11.dtd">
<!-- Generated by graphviz version 12.0.0 (20240704.0754)
 -->
<!-- Pages: 1 -->
<svg width="536pt" height="301pt"
 viewBox="0.00 0.00 535.52 300.76" xmlns="http://www.w3.org/2000/svg" xmlns:xlink="http://www.w3.org/1999/xlink">
<g id="graph0" class="graph" transform="scale(1 1) rotate(0) translate(14.4 286.36)">
<polygon fill="white" stroke="none" points="-14.4,14.4 -14.4,-286.36 521.12,-286.36 521.12,14.4 -14.4,14.4"/>
<!-- 3 -->
<g id="node1" class="node">
<title>3</title>
<ellipse fill="none" stroke="red" stroke-width="2" cx="191.48" cy="-243.16" rx="28.8" ry="28.8"/>
<text text-anchor="start" x="187.35" y="-245.11" font-family="monospace" font-size="14.00">3</text>
<text text-anchor="start" x="175.73" y="-230.61" font-family="monospace" font-size="9.00">t(3)=3</text>
</g>
<!-- 0 -->
<g id="node2" class="node">
<title>0</title>
<ellipse fill="none" stroke="red" stroke-width="2" cx="315.24" cy="-243.16" rx="28.8" ry="28.8"/>
<text text-anchor="start" x="311.11" y="-245.11" font-family="monospace" font-size="14.00">0</text>
<text text-anchor="start" x="299.49" y="-230.61" font-family="monospace" font-size="9.00">t(0)=4</text>
</g>
<!-- 3&#45;&gt;0 -->
<g id="edge1" class="edge">
<title>3&#45;&gt;0</title>
<path fill="none" stroke="red" stroke-width="2" d="M220.5,-243.16C237.9,-243.16 260.2,-243.16 278.79,-243.16"/>
<polygon fill="red" stroke="red" stroke-width="2" points="276.95,-245.26 282.95,-243.16 276.95,-241.06 276.95,-245.26"/>
</g>
<!-- 1 -->
<g id="node3" class="node">
<title>1</title>
<ellipse fill="none" stroke="red" stroke-width="2" cx="377.12" cy="-135.98" rx="28.8" ry="28.8"/>
<text text-anchor="start" x="372.99" y="-137.93" font-family="monospace" font-size="14.00">1</text>
<text text-anchor="start" x="361.37" y="-123.43" font-family="monospace" font-size="9.00">t(1)=5</text>
</g>
<!-- 0&#45;&gt;1 -->
<g id="edge2" class="edge">
<title>0&#45;&gt;1</title>
<path fill="none" stroke="red" stroke-width="2" d="M329.75,-218.03C338.45,-202.95 349.6,-183.64 358.89,-167.54"/>
<polygon fill="red" stroke="red" stroke-width="2" points="359.79,-170.19 360.97,-163.94 356.15,-168.09 359.79,-170.19"/>
</g>
<!-- 2 -->
<g id="node4" class="node">
<title>2</title>
<ellipse fill="none" stroke="red" stroke-width="2" cx="315.24" cy="-28.8" rx="28.8" ry="28.8"/>
<text text-anchor="start" x="311.11" y="-30.75" font-family="monospace" font-size="14.00">2</text>
<text text-anchor="start" x="299.49" y="-16.25" font-family="monospace" font-size="9.00">t(2)=7</text>
</g>
<!-- 1&#45;&gt;2 -->
<g id="edge3" class="edge">
<title>1&#45;&gt;2</title>
<path fill="none" stroke="red" stroke-width="2" d="M362.61,-110.85C353.91,-95.77 342.76,-76.47 333.46,-60.37"/>
<polygon fill="red" stroke="red" stroke-width="2" points="336.2,-60.91 331.38,-56.76 332.56,-63.01 336.2,-60.91"/>
</g>
<!-- 4 -->
<g id="node5" class="node">
<title>4</title>
<ellipse fill="none" stroke="red" stroke-width="2" cx="477.92" cy="-135.98" rx="28.8" ry="28.8"/>
<text text-anchor="start" x="473.79" y="-137.93" font-family="monospace" font-size="14.00">4</text>
<text text-anchor="start" x="462.17" y="-123.43" font-family="monospace" font-size="9.00">t(4)=6</text>
</g>
<!-- 1&#45;&gt;4 -->
<g id="edge4" class="edge">
<title>1&#45;&gt;4</title>
<path fill="none" stroke="red" stroke-width="2" d="M406.27,-135.98C417.24,-135.98 429.86,-135.98 441.41,-135.98"/>
<polygon fill="red" stroke="red" stroke-width="2" points="439.8,-138.08 445.8,-135.98 439.8,-133.88 439.8,-138.08"/>
</g>
<!-- 5 -->
<g id="node8" class="node">
<title>5</title>
<ellipse fill="none" stroke="blue" stroke-width="2" cx="191.48" cy="-28.8" rx="28.8" ry="28.8"/>
<text text-anchor="start" x="187.35" y="-30.75" font-family="monospace" font-size="14.00">5</text>
<text text-anchor="start" x="175.73" y="-16.25" font-family="monospace" font-size="9.00">t(5)=2</text>
</g>
<!-- 1&#45;&gt;5 -->
<!-- 2&#45;&gt;3 -->
<g id="edge5" class="edge">
<title>2&#45;&gt;3</title>
<path fill="none" stroke="#aaaaaa" d="M300.8,-53.81C278.18,-92.99 234.41,-168.79 209.67,-211.65"/>
<polygon fill="#aaaaaa" stroke="#aaaaaa" points="207.96,-210.42 206.77,-216.66 211.59,-212.52 207.96,-210.42"/>
</g>
<!-- 6 -->
<g id="node7" class="node">
<title>6</title>
<ellipse fill="none" stroke="blue" stroke-width="2" cx="129.6" cy="-135.98" rx="28.8" ry="28.8"/>
<text text-anchor="start" x="125.47" y="-137.93" font-family="monospace" font-size="14.00">6</text>
<text text-anchor="start" x="113.85" y="-123.43" font-family="monospace" font-size="9.00">t(6)=1</text>
</g>
<!-- 2&#45;&gt;6 -->
<g id="edge7" class="edge">
<title>2&#45;&gt;6</title>
<path fill="none" stroke="#aaaaaa" d="M290.2,-43.25C256.71,-62.59 197.33,-96.88 160.91,-117.9"/>
<polygon fill="#aaaaaa" stroke="#aaaaaa" points="160.29,-115.84 156.14,-120.65 162.39,-119.47 160.29,-115.84"/>
</g>
<!-- 2&#45;&gt;5 -->
<g id="edge6" class="edge">
<title>2&#45;&gt;5</title>
<path fill="none" stroke="#aaaaaa" d="M286.22,-28.8C268.81,-28.8 246.52,-28.8 227.93,-28.8"/>
<polygon fill="#aaaaaa" stroke="#aaaaaa" points="228.26,-26.7 222.26,-28.8 228.26,-30.9 228.26,-26.7"/>
</g>
<!-- 7 -->
<g id="node6" class="node">
<title>7</title>
<ellipse fill="none" stroke="blue" stroke-width="2" cx="28.8" cy="-135.98" rx="28.8" ry="28.8"/>
<text text-anchor="start" x="24.67" y="-137.93" font-family="monospace" font-size="14.00">7</text>
<text text-anchor="start" x="13.05" y="-123.43" font-family="monospace" font-size="9.00">t(7)=0</text>
</g>
<!-- 7&#45;&gt;6 -->
<g id="edge10" class="edge">
<title>7&#45;&gt;6</title>
<path fill="none" stroke="blue" stroke-width="2" d="M57.42,-142.13C68.79,-142.79 82,-142.9 93.98,-142.46"/>
<polygon fill="blue" stroke="blue" stroke-width="2" points="92.34,-144.64 98.24,-142.26 92.15,-140.45 92.34,-144.64"/>
</g>
<!-- 6&#45;&gt;7 -->
<g id="edge9" class="edge">
<title>6&#45;&gt;7</title>
<path fill="none" stroke="#aaaaaa" d="M100.98,-129.82C89.61,-129.16 76.4,-129.05 64.42,-129.49"/>
<polygon fill="#aaaaaa" stroke="#aaaaaa" points="64.54,-127.38 58.65,-129.77 64.74,-131.58 64.54,-127.38"/>
</g>
<!-- 6&#45;&gt;5 -->
<g id="edge8" class="edge">
<title>6&#45;&gt;5</title>
<path fill="none" stroke="blue" stroke-width="2" d="M144.11,-110.85C152.81,-95.77 163.96,-76.47 173.25,-60.37"/>
<polygon fill="blue" stroke="blue" stroke-width="2" points="174.15,-63.01 175.33,-56.76 170.52,-60.91 174.15,-63.01"/>
</g>
</g>
</svg>
