<?xml version="1.0" encoding="UTF-8" standalone="no"?>
<!DOCTYPE svg PUBLIC "-//W3C//DTD SVG 1.1//EN"
 "http://www.w3.org/Graphics/SVG/1.1/DTD/svg11.dtd">
<!-- Generated by graphviz version 12.0.0 (20240704.0754)
 -->
<!-- Pages: 1 -->
<svg width="479pt" height="263pt"
 viewBox="0.00 0.00 479.22 262.54" xmlns="http://www.w3.org/2000/svg" xmlns:xlink="http://www.w3.org/1999/xlink">
<g id="graph0" class="graph" transform="scale(1 1) rotate(0) translate(14.4 248.14)">
<polygon fill="white" stroke="none" points="-14.4,14.4 -14.4,-248.14 464.82,-248.14 464.82,14.4 -14.4,14.4"/>
<!-- 3 -->
<g id="node1" class="node">
<title>3</title>
<ellipse fill="none" stroke="red" stroke-width="2" cx="170.2" cy="-212.14" rx="21.6" ry="21.6"/>
<text text-anchor="start" x="166.08" y="-207.46" font-family="monospace" font-size="14.00">3</text>
</g>
<!-- 0 -->
<g id="node2" class="node">
<title>0</title>
<ellipse fill="none" stroke="red" stroke-width="2" cx="280.21" cy="-212.14" rx="21.6" ry="21.6"/>
<text text-anchor="start" x="276.09" y="-207.46" font-family="monospace" font-size="14.00">0</text>
</g>
<!-- 3&#45;&gt;0 -->
<g id="edge1" class="edge">
<title>3&#45;&gt;0</title>
<path fill="none" stroke="red" stroke-width="2" d="M191.41,-217.6C208.61,-219.12 233,-219.3 251.87,-218.13"/>
<polygon fill="red" stroke="red" stroke-width="2" points="250.22,-220.36 256.05,-217.82 249.91,-216.17 250.22,-220.36"/>
</g>
<!-- 0&#45;&gt;3 -->
<g id="edge17" class="edge">
<title>0&#45;&gt;3</title>
<path fill="none" stroke="black" stroke-dasharray="5,2" d="M259,-206.68C241.8,-205.16 217.41,-204.98 198.54,-206.15"/>
<polygon fill="black" stroke="black" points="198.69,-204.03 192.86,-206.57 199,-208.22 198.69,-204.03"/>
</g>
<!-- 1 -->
<g id="node3" class="node">
<title>1</title>
<ellipse fill="none" stroke="red" stroke-width="2" cx="335.22" cy="-116.87" rx="21.6" ry="21.6"/>
<text text-anchor="start" x="331.09" y="-112.19" font-family="monospace" font-size="14.00">1</text>
</g>
<!-- 0&#45;&gt;1 -->
<g id="edge2" class="edge">
<title>0&#45;&gt;1</title>
<path fill="none" stroke="red" stroke-width="2" d="M295.54,-196.5C305.46,-182.37 317.81,-161.33 326.23,-144.41"/>
<polygon fill="red" stroke="red" stroke-width="2" points="327.34,-146.95 328.05,-140.64 323.55,-145.13 327.34,-146.95"/>
</g>
<!-- 1&#45;&gt;0 -->
<g id="edge16" class="edge">
<title>1&#45;&gt;0</title>
<path fill="none" stroke="black" stroke-dasharray="5,2" d="M319.88,-132.51C309.97,-146.64 297.62,-167.68 289.19,-184.6"/>
<polygon fill="black" stroke="black" points="287.43,-183.42 286.72,-189.74 291.22,-185.24 287.43,-183.42"/>
</g>
<!-- 2 -->
<g id="node4" class="node">
<title>2</title>
<ellipse fill="none" stroke="red" stroke-width="2" cx="280.21" cy="-21.6" rx="21.6" ry="21.6"/>
<text text-anchor="start" x="276.09" y="-16.93" font-family="monospace" font-size="14.00">2</text>
</g>
<!-- 1&#45;&gt;2 -->
<g id="edge3" class="edge">
<title>1&#45;&gt;2</title>
<path fill="none" stroke="red" stroke-width="2" d="M329.34,-95.77C322.06,-80.12 310.01,-58.9 299.57,-43.15"/>
<polygon fill="red" stroke="red" stroke-width="2" points="302.32,-43.46 297.21,-39.69 298.85,-45.83 302.32,-43.46"/>
</g>
<!-- 4 -->
<g id="node5" class="node">
<title>4</title>
<ellipse fill="none" stroke="red" stroke-width="2" cx="428.82" cy="-116.87" rx="21.6" ry="21.6"/>
<text text-anchor="start" x="424.69" y="-112.19" font-family="monospace" font-size="14.00">4</text>
</g>
<!-- 1&#45;&gt;4 -->
<g id="edge4" class="edge">
<title>1&#45;&gt;4</title>
<path fill="none" stroke="red" stroke-width="2" d="M356.46,-122.63C369.5,-123.76 386.37,-123.92 400.53,-123.13"/>
<polygon fill="red" stroke="red" stroke-width="2" points="398.8,-125.35 404.64,-122.84 398.51,-121.16 398.8,-125.35"/>
</g>
<!-- 5 -->
<g id="node8" class="node">
<title>5</title>
<ellipse fill="none" stroke="blue" stroke-width="2" cx="170.2" cy="-21.6" rx="21.6" ry="21.6"/>
<text text-anchor="start" x="166.08" y="-16.92" font-family="monospace" font-size="14.00">5</text>
</g>
<!-- 1&#45;&gt;5 -->
<!-- 2&#45;&gt;3 -->
<g id="edge5" class="edge">
<title>2&#45;&gt;3</title>
<path fill="none" stroke="#aaaaaa" d="M269.26,-40.57C249.33,-75.09 207.12,-148.2 184.78,-186.89"/>
<polygon fill="#aaaaaa" stroke="#aaaaaa" points="183.05,-185.69 181.87,-191.94 186.69,-187.79 183.05,-185.69"/>
</g>
<!-- 2&#45;&gt;1 -->
<g id="edge14" class="edge">
<title>2&#45;&gt;1</title>
<path fill="none" stroke="black" stroke-dasharray="5,2" d="M286.09,-42.7C293.37,-58.35 305.41,-79.57 315.86,-95.32"/>
<polygon fill="black" stroke="black" points="313.96,-96.26 319.07,-100.03 317.43,-93.89 313.96,-96.26"/>
</g>
<!-- 6 -->
<g id="node7" class="node">
<title>6</title>
<ellipse fill="none" stroke="blue" stroke-width="2" cx="115.2" cy="-116.87" rx="21.6" ry="21.6"/>
<text text-anchor="start" x="111.07" y="-112.19" font-family="monospace" font-size="14.00">6</text>
</g>
<!-- 2&#45;&gt;6 -->
<g id="edge7" class="edge">
<title>2&#45;&gt;6</title>
<path fill="none" stroke="#aaaaaa" d="M261.28,-32.53C231.52,-49.71 173.76,-83.06 140.48,-102.28"/>
<polygon fill="#aaaaaa" stroke="#aaaaaa" points="139.62,-100.35 135.47,-105.17 141.72,-103.98 139.62,-100.35"/>
</g>
<!-- 2&#45;&gt;5 -->
<g id="edge6" class="edge">
<title>2&#45;&gt;5</title>
<path fill="none" stroke="#aaaaaa" d="M258.21,-21.6C241.28,-21.6 217.71,-21.6 199.23,-21.6"/>
<polygon fill="#aaaaaa" stroke="#aaaaaa" points="199.68,-19.5 193.68,-21.6 199.68,-23.7 199.68,-19.5"/>
</g>
<!-- 4&#45;&gt;1 -->
<g id="edge15" class="edge">
<title>4&#45;&gt;1</title>
<path fill="none" stroke="black" stroke-dasharray="5,2" d="M407.58,-111.11C394.53,-109.98 377.67,-109.82 363.5,-110.61"/>
<polygon fill="black" stroke="black" points="363.72,-108.49 357.88,-111.01 364.01,-112.68 363.72,-108.49"/>
</g>
<!-- 7 -->
<g id="node6" class="node">
<title>7</title>
<ellipse fill="none" stroke="blue" stroke-width="2" cx="21.6" cy="-116.87" rx="21.6" ry="21.6"/>
<text text-anchor="start" x="17.47" y="-112.19" font-family="monospace" font-size="14.00">7</text>
</g>
<!-- 7&#45;&gt;6 -->
<g id="edge10" class="edge">
<title>7&#45;&gt;6</title>
<path fill="none" stroke="blue" stroke-width="2" d="M40.54,-127.97C54.5,-130.72 73.65,-131.11 89.06,-129.12"/>
<polygon fill="blue" stroke="blue" stroke-width="2" points="87.71,-131.47 93.3,-128.44 87.04,-127.32 87.71,-131.47"/>
</g>
<!-- 6&#45;&gt;7 -->
<g id="edge9" class="edge">
<title>6&#45;&gt;7</title>
<path fill="none" stroke="#aaaaaa" d="M96.26,-105.77C82.3,-103.02 63.15,-102.63 47.74,-104.61"/>
<polygon fill="#aaaaaa" stroke="#aaaaaa" points="47.6,-102.51 42.01,-105.54 48.27,-106.66 47.6,-102.51"/>
</g>
<!-- 6&#45;&gt;7 -->
<g id="edge12" class="edge">
<title>6&#45;&gt;7</title>
<path fill="none" stroke="black" stroke-dasharray="5,2" d="M93.49,-116.87C80.82,-116.87 64.67,-116.87 50.89,-116.87"/>
<polygon fill="black" stroke="black" points="51.03,-114.77 45.03,-116.87 51.03,-118.97 51.03,-114.77"/>
</g>
<!-- 6&#45;&gt;5 -->
<g id="edge8" class="edge">
<title>6&#45;&gt;5</title>
<path fill="none" stroke="blue" stroke-width="2" d="M130.53,-101.23C140.45,-87.1 152.8,-66.06 161.22,-49.14"/>
<polygon fill="blue" stroke="blue" stroke-width="2" points="162.33,-51.68 163.04,-45.37 158.54,-49.86 162.33,-51.68"/>
</g>
<!-- 5&#45;&gt;6 -->
<g id="edge13" class="edge">
<title>5&#45;&gt;6</title>
<path fill="none" stroke="black" stroke-dasharray="5,2" d="M154.87,-37.24C144.95,-51.37 132.61,-72.41 124.18,-89.33"/>
<polygon fill="black" stroke="black" points="122.42,-88.15 121.71,-94.47 126.21,-89.97 122.42,-88.15"/>
</g>
</g>
</svg>
