<?xml version="1.0" encoding="UTF-8" standalone="no"?>
<!DOCTYPE svg PUBLIC "-//W3C//DTD SVG 1.1//EN"
 "http://www.w3.org/Graphics/SVG/1.1/DTD/svg11.dtd">
<!-- Generated by graphviz version 12.0.0 (20240704.0754)
 -->
<!-- Pages: 1 -->
<svg width="550pt" height="310pt"
 viewBox="0.00 0.00 549.59 310.31" xmlns="http://www.w3.org/2000/svg" xmlns:xlink="http://www.w3.org/1999/xlink">
<g id="graph0" class="graph" transform="scale(1 1) rotate(0) translate(14.4 295.91)">
<polygon fill="white" stroke="none" points="-14.4,14.4 -14.4,-295.91 535.19,-295.91 535.19,14.4 -14.4,14.4"/>
<!-- 3 -->
<g id="node1" class="node">
<title>3</title>
<ellipse fill="none" stroke="red" stroke-width="2" cx="196.8" cy="-250.91" rx="30.6" ry="30.6"/>
<text text-anchor="start" x="192.67" y="-253.61" font-family="monospace" font-weight="bold" font-size="14.00">3</text>
<text text-anchor="start" x="178.05" y="-240.16" font-family="monospace" font-size="10.00">p(3)=</text>
<text text-anchor="start" x="208.05" y="-240.16" font-family="monospace" font-weight="bold" font-size="10.00">⊥</text>
</g>
<!-- 0 -->
<g id="node2" class="node">
<title>0</title>
<ellipse fill="none" stroke="red" stroke-width="2" cx="323.99" cy="-250.91" rx="30.6" ry="30.6"/>
<text text-anchor="start" x="319.87" y="-253.61" font-family="monospace" font-weight="bold" font-size="14.00">0</text>
<text text-anchor="start" x="305.99" y="-240.16" font-family="monospace" font-size="10.00">p(0)=</text>
<text text-anchor="start" x="335.99" y="-240.16" font-family="monospace" font-weight="bold" font-size="10.00">3</text>
</g>
<!-- 3&#45;&gt;0 -->
<g id="edge1" class="edge">
<title>3&#45;&gt;0</title>
<path fill="none" stroke="red" stroke-width="2" d="M227.59,-250.91C245.11,-250.91 267.22,-250.91 285.84,-250.91"/>
<polygon fill="red" stroke="red" stroke-width="2" points="284.02,-253.01 290.02,-250.91 284.02,-248.81 284.02,-253.01"/>
</g>
<!-- 1 -->
<g id="node3" class="node">
<title>1</title>
<ellipse fill="none" stroke="red" stroke-width="2" cx="387.59" cy="-140.76" rx="30.6" ry="30.6"/>
<text text-anchor="start" x="383.47" y="-143.46" font-family="monospace" font-weight="bold" font-size="14.00">1</text>
<text text-anchor="start" x="369.59" y="-130.01" font-family="monospace" font-size="10.00">p(1)=</text>
<text text-anchor="start" x="399.59" y="-130.01" font-family="monospace" font-weight="bold" font-size="10.00">0</text>
</g>
<!-- 0&#45;&gt;1 -->
<g id="edge2" class="edge">
<title>0&#45;&gt;1</title>
<path fill="none" stroke="red" stroke-width="2" d="M339.39,-224.25C348.15,-209.07 359.2,-189.93 368.51,-173.8"/>
<polygon fill="red" stroke="red" stroke-width="2" points="369.42,-176.43 370.61,-170.18 365.79,-174.33 369.42,-176.43"/>
</g>
<!-- 2 -->
<g id="node4" class="node">
<title>2</title>
<ellipse fill="none" stroke="red" stroke-width="2" cx="323.99" cy="-30.6" rx="30.6" ry="30.6"/>
<text text-anchor="start" x="319.87" y="-33.3" font-family="monospace" font-weight="bold" font-size="14.00">2</text>
<text text-anchor="start" x="305.99" y="-19.85" font-family="monospace" font-size="10.00">p(2)=</text>
<text text-anchor="start" x="335.99" y="-19.85" font-family="monospace" font-weight="bold" font-size="10.00">1</text>
</g>
<!-- 1&#45;&gt;2 -->
<g id="edge3" class="edge">
<title>1&#45;&gt;2</title>
<path fill="none" stroke="red" stroke-width="2" d="M372.2,-114.09C363.44,-98.91 352.38,-79.77 343.07,-63.65"/>
<polygon fill="red" stroke="red" stroke-width="2" points="345.8,-64.17 340.98,-60.02 342.16,-66.27 345.8,-64.17"/>
</g>
<!-- 4 -->
<g id="node5" class="node">
<title>4</title>
<ellipse fill="none" stroke="red" stroke-width="2" cx="490.19" cy="-140.76" rx="30.6" ry="30.6"/>
<text text-anchor="start" x="486.07" y="-143.46" font-family="monospace" font-weight="bold" font-size="14.00">4</text>
<text text-anchor="start" x="472.19" y="-130.01" font-family="monospace" font-size="10.00">p(4)=</text>
<text text-anchor="start" x="502.19" y="-130.01" font-family="monospace" font-weight="bold" font-size="10.00">1</text>
</g>
<!-- 1&#45;&gt;4 -->
<g id="edge4" class="edge">
<title>1&#45;&gt;4</title>
<path fill="none" stroke="red" stroke-width="2" d="M418.66,-140.76C429.1,-140.76 440.88,-140.76 451.82,-140.76"/>
<polygon fill="red" stroke="red" stroke-width="2" points="450.21,-142.86 456.21,-140.76 450.21,-138.66 450.21,-142.86"/>
</g>
<!-- 5 -->
<g id="node8" class="node">
<title>5</title>
<ellipse fill="none" stroke="blue" stroke-width="2" cx="196.8" cy="-30.6" rx="30.6" ry="30.6"/>
<text text-anchor="start" x="192.67" y="-33.3" font-family="monospace" font-weight="bold" font-size="14.00">5</text>
<text text-anchor="start" x="178.8" y="-19.85" font-family="monospace" font-size="10.00">p(5)=</text>
<text text-anchor="start" x="208.8" y="-19.85" font-family="monospace" font-weight="bold" font-size="10.00">6</text>
</g>
<!-- 1&#45;&gt;5 -->
<!-- 2&#45;&gt;3 -->
<g id="edge5" class="edge">
<title>2&#45;&gt;3</title>
<path fill="none" stroke="#aaaaaa" d="M308.65,-57.17C285.4,-97.45 241.26,-173.89 215.94,-217.75"/>
<polygon fill="#aaaaaa" stroke="#aaaaaa" points="214.13,-216.69 212.95,-222.93 217.77,-218.79 214.13,-216.69"/>
</g>
<!-- 6 -->
<g id="node7" class="node">
<title>6</title>
<ellipse fill="none" stroke="blue" stroke-width="2" cx="133.2" cy="-140.76" rx="30.6" ry="30.6"/>
<text text-anchor="start" x="129.07" y="-143.46" font-family="monospace" font-weight="bold" font-size="14.00">6</text>
<text text-anchor="start" x="115.2" y="-130.01" font-family="monospace" font-size="10.00">p(6)=</text>
<text text-anchor="start" x="145.2" y="-130.01" font-family="monospace" font-weight="bold" font-size="10.00">7</text>
</g>
<!-- 2&#45;&gt;6 -->
<g id="edge7" class="edge">
<title>2&#45;&gt;6</title>
<path fill="none" stroke="#aaaaaa" d="M297.06,-46.15C262.69,-66 203.25,-100.31 166.19,-121.71"/>
<polygon fill="#aaaaaa" stroke="#aaaaaa" points="165.45,-119.71 161.31,-124.53 167.55,-123.35 165.45,-119.71"/>
</g>
<!-- 2&#45;&gt;5 -->
<g id="edge6" class="edge">
<title>2&#45;&gt;5</title>
<path fill="none" stroke="#aaaaaa" d="M293.2,-30.6C275.68,-30.6 253.58,-30.6 234.96,-30.6"/>
<polygon fill="#aaaaaa" stroke="#aaaaaa" points="235.26,-28.5 229.26,-30.6 235.26,-32.7 235.26,-28.5"/>
</g>
<!-- 7 -->
<g id="node6" class="node">
<title>7</title>
<ellipse fill="none" stroke="blue" stroke-width="2" cx="30.6" cy="-140.76" rx="30.6" ry="30.6"/>
<text text-anchor="start" x="26.47" y="-143.46" font-family="monospace" font-weight="bold" font-size="14.00">7</text>
<text text-anchor="start" x="11.85" y="-130.01" font-family="monospace" font-size="10.00">p(7)=</text>
<text text-anchor="start" x="41.85" y="-130.01" font-family="monospace" font-weight="bold" font-size="10.00">⊥</text>
</g>
<!-- 7&#45;&gt;6 -->
<g id="edge10" class="edge">
<title>7&#45;&gt;6</title>
<path fill="none" stroke="blue" stroke-width="2" d="M60.83,-146.97C71.69,-147.55 84.08,-147.66 95.5,-147.29"/>
<polygon fill="blue" stroke="blue" stroke-width="2" points="93.9,-149.46 99.81,-147.11 93.73,-145.26 93.9,-149.46"/>
</g>
<!-- 6&#45;&gt;7 -->
<g id="edge9" class="edge">
<title>6&#45;&gt;7</title>
<path fill="none" stroke="#aaaaaa" d="M102.97,-134.54C92.11,-133.96 79.72,-133.85 68.3,-134.22"/>
<polygon fill="#aaaaaa" stroke="#aaaaaa" points="68.38,-132.12 62.48,-134.47 68.56,-136.31 68.38,-132.12"/>
</g>
<!-- 6&#45;&gt;5 -->
<g id="edge8" class="edge">
<title>6&#45;&gt;5</title>
<path fill="none" stroke="blue" stroke-width="2" d="M148.6,-114.09C157.36,-98.91 168.41,-79.77 177.72,-63.65"/>
<polygon fill="blue" stroke="blue" stroke-width="2" points="178.63,-66.27 179.81,-60.02 174.99,-64.17 178.63,-66.27"/>
</g>
</g>
</svg>
