<?xml version="1.0" encoding="UTF-8" standalone="no"?>
<!DOCTYPE svg PUBLIC "-//W3C//DTD SVG 1.1//EN"
 "http://www.w3.org/Graphics/SVG/1.1/DTD/svg11.dtd">
<!-- Generated by graphviz version 12.0.0 (20240704.0754)
 -->
<!-- Pages: 1 -->
<svg width="451pt" height="243pt"
 viewBox="0.00 0.00 451.06 243.43" xmlns="http://www.w3.org/2000/svg" xmlns:xlink="http://www.w3.org/1999/xlink">
<g id="graph0" class="graph" transform="scale(1 1) rotate(0) translate(14.4 229.03)">
<polygon fill="white" stroke="none" points="-14.4,14.4 -14.4,-229.03 436.66,-229.03 436.66,14.4 -14.4,14.4"/>
<!-- 3 -->
<g id="node1" class="node">
<title>3</title>
<ellipse fill="none" stroke="red" stroke-width="2" cx="159.57" cy="-196.63" rx="18" ry="18"/>
<text text-anchor="start" x="155.44" y="-191.96" font-family="monospace" font-size="14.00">3</text>
</g>
<!-- 0 -->
<g id="node2" class="node">
<title>0</title>
<ellipse fill="none" stroke="red" stroke-width="2" cx="262.7" cy="-196.63" rx="18" ry="18"/>
<text text-anchor="start" x="258.57" y="-191.96" font-family="monospace" font-size="14.00">0</text>
</g>
<!-- 3&#45;&gt;0 -->
<g id="edge1" class="edge">
<title>3&#45;&gt;0</title>
<path fill="none" stroke="red" stroke-width="2" d="M177.06,-201.85C193.8,-203.65 219.22,-203.86 238.02,-202.49"/>
<polygon fill="red" stroke="red" stroke-width="2" points="236.31,-204.75 242.1,-202.12 235.94,-200.56 236.31,-204.75"/>
</g>
<!-- 0&#45;&gt;3 -->
<g id="edge17" class="edge">
<title>0&#45;&gt;3</title>
<path fill="none" stroke="black" stroke-dasharray="5,2" d="M245.2,-191.41C228.46,-189.61 203.05,-189.4 184.25,-190.77"/>
<polygon fill="black" stroke="black" points="184.45,-188.65 178.65,-191.27 184.82,-192.83 184.45,-188.65"/>
</g>
<!-- 1 -->
<g id="node3" class="node">
<title>1</title>
<ellipse fill="none" stroke="red" stroke-width="2" cx="314.26" cy="-107.32" rx="18" ry="18"/>
<text text-anchor="start" x="310.14" y="-102.64" font-family="monospace" font-size="14.00">1</text>
</g>
<!-- 0&#45;&gt;1 -->
<g id="edge2" class="edge">
<title>0&#45;&gt;1</title>
<path fill="none" stroke="red" stroke-width="2" d="M275.96,-184.09C285.9,-170.49 298.79,-148.59 307,-131.62"/>
<polygon fill="red" stroke="red" stroke-width="2" points="308.1,-134.23 308.73,-127.9 304.29,-132.46 308.1,-134.23"/>
</g>
<!-- 1&#45;&gt;0 -->
<g id="edge16" class="edge">
<title>1&#45;&gt;0</title>
<path fill="none" stroke="black" stroke-dasharray="5,2" d="M301,-119.86C291.07,-133.46 278.17,-155.36 269.97,-172.33"/>
<polygon fill="black" stroke="black" points="268.22,-171.09 267.6,-177.42 272.03,-172.86 268.22,-171.09"/>
</g>
<!-- 2 -->
<g id="node4" class="node">
<title>2</title>
<ellipse fill="none" stroke="red" stroke-width="2" cx="262.7" cy="-18" rx="18" ry="18"/>
<text text-anchor="start" x="258.57" y="-13.33" font-family="monospace" font-size="14.00">2</text>
</g>
<!-- 1&#45;&gt;2 -->
<g id="edge3" class="edge">
<title>1&#45;&gt;2</title>
<path fill="none" stroke="red" stroke-width="2" d="M310.04,-89.56C303.22,-74.16 290.7,-52.04 280.11,-36.45"/>
<polygon fill="red" stroke="red" stroke-width="2" points="282.92,-36.79 277.75,-33.09 279.48,-39.21 282.92,-36.79"/>
</g>
<!-- 4 -->
<g id="node5" class="node">
<title>4</title>
<ellipse fill="none" stroke="red" stroke-width="2" cx="404.26" cy="-107.32" rx="18" ry="18"/>
<text text-anchor="start" x="400.14" y="-102.64" font-family="monospace" font-size="14.00">4</text>
</g>
<!-- 1&#45;&gt;4 -->
<g id="edge4" class="edge">
<title>1&#45;&gt;4</title>
<path fill="none" stroke="red" stroke-width="2" d="M331.62,-112.77C345.23,-114.25 364.34,-114.46 379.55,-113.41"/>
<polygon fill="red" stroke="red" stroke-width="2" points="377.85,-115.67 383.64,-113.06 377.48,-111.49 377.85,-115.67"/>
</g>
<!-- 5 -->
<g id="node8" class="node">
<title>5</title>
<ellipse fill="none" stroke="blue" stroke-width="2" cx="159.57" cy="-18" rx="18" ry="18"/>
<text text-anchor="start" x="155.44" y="-13.32" font-family="monospace" font-size="14.00">5</text>
</g>
<!-- 1&#45;&gt;5 -->
<!-- 2&#45;&gt;3 -->
<g id="edge5" class="edge">
<title>2&#45;&gt;3</title>
<path fill="none" stroke="#bbbbbb" d="M253.55,-33.85C235.12,-65.76 193.52,-137.82 172.39,-174.41"/>
<polygon fill="#bbbbbb" stroke="#bbbbbb" points="170.64,-173.26 169.45,-179.5 174.27,-175.36 170.64,-173.26"/>
</g>
<!-- 2&#45;&gt;1 -->
<g id="edge14" class="edge">
<title>2&#45;&gt;1</title>
<path fill="none" stroke="black" stroke-dasharray="5,2" d="M266.93,-35.76C273.74,-51.16 286.26,-73.28 296.85,-88.87"/>
<polygon fill="black" stroke="black" points="294.91,-89.76 300.08,-93.46 298.35,-87.35 294.91,-89.76"/>
</g>
<!-- 6 -->
<g id="node7" class="node">
<title>6</title>
<ellipse fill="none" stroke="blue" stroke-width="2" cx="108" cy="-107.32" rx="18" ry="18"/>
<text text-anchor="start" x="103.88" y="-102.64" font-family="monospace" font-size="14.00">6</text>
</g>
<!-- 2&#45;&gt;6 -->
<g id="edge7" class="edge">
<title>2&#45;&gt;6</title>
<path fill="none" stroke="#bbbbbb" d="M246.73,-27.22C218.91,-43.28 161.52,-76.41 129.98,-94.63"/>
<polygon fill="#bbbbbb" stroke="#bbbbbb" points="129.11,-92.7 124.97,-97.52 131.21,-96.34 129.11,-92.7"/>
</g>
<!-- 2&#45;&gt;5 -->
<g id="edge6" class="edge">
<title>2&#45;&gt;5</title>
<path fill="none" stroke="#bbbbbb" d="M244.26,-18C227.84,-18 203.63,-18 185.3,-18"/>
<polygon fill="#bbbbbb" stroke="#bbbbbb" points="185.36,-15.9 179.36,-18 185.36,-20.1 185.36,-15.9"/>
</g>
<!-- 4&#45;&gt;1 -->
<g id="edge15" class="edge">
<title>4&#45;&gt;1</title>
<path fill="none" stroke="black" stroke-dasharray="5,2" d="M386.91,-101.86C373.3,-100.38 354.19,-100.17 338.98,-101.22"/>
<polygon fill="black" stroke="black" points="339.18,-99.09 333.38,-101.7 339.54,-103.28 339.18,-99.09"/>
</g>
<!-- 7 -->
<g id="node6" class="node">
<title>7</title>
<ellipse fill="none" stroke="blue" stroke-width="2" cx="18" cy="-107.32" rx="18" ry="18"/>
<text text-anchor="start" x="13.88" y="-102.64" font-family="monospace" font-size="14.00">7</text>
</g>
<!-- 7&#45;&gt;6 -->
<g id="edge10" class="edge">
<title>7&#45;&gt;6</title>
<path fill="none" stroke="blue" stroke-width="2" d="M33.27,-117.75C47.71,-121.31 69.54,-121.77 85.88,-119.13"/>
<polygon fill="blue" stroke="blue" stroke-width="2" points="84.53,-121.54 89.99,-118.29 83.69,-117.43 84.53,-121.54"/>
</g>
<!-- 6&#45;&gt;7 -->
<g id="edge9" class="edge">
<title>6&#45;&gt;7</title>
<path fill="none" stroke="#bbbbbb" d="M92.73,-96.88C78.29,-93.32 56.46,-92.86 40.12,-95.5"/>
<polygon fill="#bbbbbb" stroke="#bbbbbb" points="39.99,-93.39 34.53,-96.64 40.82,-97.5 39.99,-93.39"/>
</g>
<!-- 6&#45;&gt;7 -->
<g id="edge12" class="edge">
<title>6&#45;&gt;7</title>
<path fill="none" stroke="black" stroke-dasharray="5,2" d="M89.79,-107.32C76.58,-107.32 58.53,-107.32 43.83,-107.32"/>
<polygon fill="black" stroke="black" points="44.01,-105.22 38.01,-107.32 44.01,-109.42 44.01,-105.22"/>
</g>
<!-- 6&#45;&gt;5 -->
<g id="edge8" class="edge">
<title>6&#45;&gt;5</title>
<path fill="none" stroke="blue" stroke-width="2" d="M121.27,-94.77C131.2,-81.17 144.09,-59.27 152.3,-42.3"/>
<polygon fill="blue" stroke="blue" stroke-width="2" points="153.4,-44.91 154.03,-38.58 149.59,-43.14 153.4,-44.91"/>
</g>
<!-- 5&#45;&gt;6 -->
<g id="edge13" class="edge">
<title>5&#45;&gt;6</title>
<path fill="none" stroke="black" stroke-dasharray="5,2" d="M146.3,-30.54C136.37,-44.14 123.48,-66.04 115.27,-83.01"/>
<polygon fill="black" stroke="black" points="113.53,-81.78 112.9,-88.1 117.33,-83.55 113.53,-81.78"/>
</g>
</g>
</svg>
