<?xml version="1.0" encoding="UTF-8" standalone="no"?>
<!DOCTYPE svg PUBLIC "-//W3C//DTD SVG 1.1//EN"
 "http://www.w3.org/Graphics/SVG/1.1/DTD/svg11.dtd">
<!-- Generated by graphviz version 12.0.0 (20240704.0754)
 -->
<!-- Pages: 1 -->
<svg width="396pt" height="214pt"
 viewBox="0.00 0.00 396.06 214.43" xmlns="http://www.w3.org/2000/svg" xmlns:xlink="http://www.w3.org/1999/xlink">
<g id="graph0" class="graph" transform="scale(1 1) rotate(0) translate(14.4 200.03)">
<polygon fill="white" stroke="none" points="-14.4,14.4 -14.4,-200.03 381.66,-200.03 381.66,14.4 -14.4,14.4"/>
<!-- 3 -->
<g id="node1" class="node">
<title>3</title>
<ellipse fill="none" stroke="#bbbbbb" cx="18" cy="-92.82" rx="18" ry="18"/>
<text text-anchor="start" x="13.88" y="-88.14" font-family="monospace" font-size="14.00" fill="#bbbbbb">3</text>
</g>
<!-- 0 -->
<g id="node3" class="node">
<title>0</title>
<ellipse fill="none" stroke="red" stroke-width="2" cx="105.74" cy="-92.82" rx="18" ry="18"/>
<text text-anchor="start" x="101.61" y="-88.14" font-family="monospace" font-size="14.00">0</text>
</g>
<!-- 3&#45;&gt;0 -->
<g id="edge5" class="edge">
<title>3&#45;&gt;0</title>
<path fill="none" stroke="#bbbbbb" d="M36.18,-92.82C48.8,-92.82 65.8,-92.82 79.84,-92.82"/>
<polygon fill="#bbbbbb" stroke="#bbbbbb" points="79.77,-94.92 85.77,-92.82 79.77,-90.72 79.77,-94.92"/>
<polygon fill="#ffffff" fill-opacity="0.800000" stroke="none" points="74.03,-96.82 74.03,-112.07 83.28,-112.07 83.28,-96.82 74.03,-96.82"/>
<text text-anchor="start" x="76.03" y="-101.52" font-family="monospace" font-size="9.00" fill="#bbbbbb">2</text>
</g>
<!-- 6 -->
<g id="node2" class="node">
<title>6</title>
<ellipse fill="none" stroke="#bbbbbb" cx="258.41" cy="-18" rx="18" ry="18"/>
<text text-anchor="start" x="254.28" y="-13.32" font-family="monospace" font-size="14.00" fill="#bbbbbb">6</text>
</g>
<!-- 1 -->
<g id="node4" class="node">
<title>1</title>
<ellipse fill="none" stroke="red" stroke-width="2" cx="197.15" cy="-92.82" rx="18" ry="18"/>
<text text-anchor="start" x="193.02" y="-88.14" font-family="monospace" font-size="14.00">1</text>
</g>
<!-- 0&#45;&gt;1 -->
<g id="edge1" class="edge">
<title>0&#45;&gt;1</title>
<path fill="none" stroke="red" stroke-width="2" d="M124.24,-92.82C137.74,-92.82 156.23,-92.82 171.21,-92.82"/>
<polygon fill="red" stroke="red" stroke-width="2" points="169.65,-94.92 175.65,-92.82 169.65,-90.72 169.65,-94.92"/>
<polygon fill="#ffffff" fill-opacity="0.800000" stroke="none" points="165.43,-96.82 165.43,-112.07 174.68,-112.07 174.68,-96.82 165.43,-96.82"/>
<text text-anchor="start" x="167.43" y="-101.52" font-family="monospace" font-size="9.00">1</text>
</g>
<!-- 1&#45;&gt;6 -->
<g id="edge3" class="edge">
<title>1&#45;&gt;6</title>
<path fill="none" stroke="#bbbbbb" d="M208.67,-78.74C218.11,-67.22 231.58,-50.77 242.12,-37.9"/>
<polygon fill="#bbbbbb" stroke="#bbbbbb" points="243.59,-39.41 245.77,-33.43 240.34,-36.75 243.59,-39.41"/>
<polygon fill="#ffffff" fill-opacity="0.800000" stroke="none" points="230.48,-39.26 230.48,-54.51 239.73,-54.51 239.73,-39.26 230.48,-39.26"/>
<text text-anchor="start" x="232.48" y="-43.96" font-family="monospace" font-size="9.00" fill="#bbbbbb">6</text>
</g>
<!-- 2 -->
<g id="node5" class="node">
<title>2</title>
<ellipse fill="none" stroke="red" stroke-width="2" cx="258.4" cy="-167.63" rx="18" ry="18"/>
<text text-anchor="start" x="254.28" y="-162.96" font-family="monospace" font-size="14.00">2</text>
</g>
<!-- 1&#45;&gt;2 -->
<g id="edge2" class="edge">
<title>1&#45;&gt;2</title>
<path fill="none" stroke="red" stroke-width="2" d="M208.67,-106.89C218.11,-118.41 231.57,-134.86 242.11,-147.73"/>
<polygon fill="red" stroke="red" stroke-width="2" points="239.38,-147.71 244.81,-151.02 242.63,-145.05 239.38,-147.71"/>
<polygon fill="#ffffff" fill-opacity="0.800000" stroke="none" points="229.47,-130.12 229.47,-145.37 238.72,-145.37 238.72,-130.12 229.47,-130.12"/>
<text text-anchor="start" x="231.47" y="-134.82" font-family="monospace" font-size="9.00">1</text>
</g>
<!-- 4 -->
<g id="node6" class="node">
<title>4</title>
<ellipse fill="none" stroke="red" stroke-width="2" cx="349.26" cy="-139.99" rx="18" ry="18"/>
<text text-anchor="start" x="345.13" y="-135.32" font-family="monospace" font-size="14.00">4</text>
</g>
<!-- 2&#45;&gt;4 -->
<g id="edge4" class="edge">
<title>2&#45;&gt;4</title>
<path fill="none" stroke="red" stroke-width="2" d="M275.92,-162.3C289.87,-158.06 309.56,-152.07 325.02,-147.37"/>
<polygon fill="red" stroke="red" stroke-width="2" points="323.77,-149.94 328.9,-146.19 322.55,-145.92 323.77,-149.94"/>
<polygon fill="#ffffff" fill-opacity="0.800000" stroke="none" points="318.54,-149.31 318.54,-164.56 327.79,-164.56 327.79,-149.31 318.54,-149.31"/>
<text text-anchor="start" x="320.54" y="-154.01" font-family="monospace" font-size="9.00">1</text>
</g>
<!-- 5 -->
<g id="node7" class="node">
<title>5</title>
<ellipse fill="none" stroke="red" stroke-width="2" cx="349.25" cy="-45.64" rx="18" ry="18"/>
<text text-anchor="start" x="345.13" y="-40.96" font-family="monospace" font-size="14.00">5</text>
</g>
<!-- 4&#45;&gt;5 -->
<g id="edge6" class="edge">
<title>4&#45;&gt;5</title>
<path fill="none" stroke="red" stroke-width="2" d="M349.26,-121.8C349.26,-107.53 349.25,-87.49 349.25,-71.55"/>
<polygon fill="red" stroke="red" stroke-width="2" points="351.35,-73.12 349.25,-67.12 347.15,-73.12 351.35,-73.12"/>
<polygon fill="#ffffff" fill-opacity="0.800000" stroke="none" points="336,-68.1 336,-83.35 345.25,-83.35 345.25,-68.1 336,-68.1"/>
<text text-anchor="start" x="338" y="-72.8" font-family="monospace" font-size="9.00">2</text>
</g>
<!-- 5&#45;&gt;6 -->
<g id="edge7" class="edge">
<title>5&#45;&gt;6</title>
<path fill="none" stroke="#bbbbbb" d="M331.74,-40.31C317.79,-36.06 298.1,-30.08 282.64,-25.37"/>
<polygon fill="#bbbbbb" stroke="#bbbbbb" points="283.67,-23.49 277.32,-23.75 282.45,-27.51 283.67,-23.49"/>
<polygon fill="#ffffff" fill-opacity="0.800000" stroke="none" points="282.87,-30.31 282.87,-45.56 292.12,-45.56 292.12,-30.31 282.87,-30.31"/>
<text text-anchor="start" x="284.87" y="-35.01" font-family="monospace" font-size="9.00" fill="#bbbbbb">1</text>
</g>
</g>
</svg>
