<?xml version="1.0" encoding="UTF-8" standalone="no"?>
<!DOCTYPE svg PUBLIC "-//W3C//DTD SVG 1.1//EN"
 "http://www.w3.org/Graphics/SVG/1.1/DTD/svg11.dtd">
<!-- Generated by graphviz version 12.0.0 (20240704.0754)
 -->
<!-- Pages: 1 -->
<svg width="301pt" height="374pt"
 viewBox="0.00 0.00 300.80 374.14" xmlns="http://www.w3.org/2000/svg" xmlns:xlink="http://www.w3.org/1999/xlink">
<g id="graph0" class="graph" transform="scale(1 1) rotate(0) translate(14.4 359.74)">
<polygon fill="white" stroke="none" points="-14.4,14.4 -14.4,-359.74 286.4,-359.74 286.4,14.4 -14.4,14.4"/>
<!-- 3 -->
<g id="node1" class="node">
<title>3</title>
<ellipse fill="none" stroke="#aaaaaa" cx="30.6" cy="-69.13" rx="30.6" ry="30.6"/>
<text text-anchor="start" x="26.47" y="-64.45" font-family="monospace" font-size="14.00" fill="#aaaaaa">3</text>
</g>
<!-- 0 -->
<g id="node2" class="node">
<title>0</title>
<ellipse fill="none" stroke="red" stroke-width="2" cx="136.11" cy="-30.6" rx="30.6" ry="30.6"/>
<text text-anchor="start" x="131.99" y="-32.55" font-family="monospace" font-size="14.00">0</text>
<text text-anchor="start" x="119.61" y="-18.05" font-family="monospace" font-size="9.00">p(0)=⊥</text>
</g>
<!-- 3&#45;&gt;0 -->
<g id="edge5" class="edge">
<title>3&#45;&gt;0</title>
<path fill="none" stroke="#aaaaaa" d="M59.71,-58.5C72.28,-53.91 87.11,-48.49 100.34,-43.66"/>
<polygon fill="#aaaaaa" stroke="#aaaaaa" points="100.76,-45.75 105.67,-41.71 99.32,-41.8 100.76,-45.75"/>
<text text-anchor="start" x="70.78" y="-57.78" font-family="monospace" font-size="9.00" fill="#aaaaaa">2</text>
</g>
<!-- 1 -->
<g id="node3" class="node">
<title>1</title>
<ellipse fill="none" stroke="red" stroke-width="2" cx="176.39" cy="-132.78" rx="30.6" ry="30.6"/>
<text text-anchor="start" x="172.26" y="-134.73" font-family="monospace" font-size="14.00">1</text>
<text text-anchor="start" x="160.64" y="-120.23" font-family="monospace" font-size="9.00">p(1)=0</text>
</g>
<!-- 0&#45;&gt;1 -->
<g id="edge1" class="edge">
<title>0&#45;&gt;1</title>
<path fill="none" stroke="red" stroke-width="2" d="M147.44,-59.33C152.07,-71.09 157.48,-84.81 162.36,-97.19"/>
<polygon fill="red" stroke="red" stroke-width="2" points="159.74,-96.28 163.9,-101.09 163.65,-94.74 159.74,-96.28"/>
<text text-anchor="start" x="147.65" y="-82.96" font-family="monospace" font-size="9.00">1</text>
</g>
<!-- 2 -->
<g id="node4" class="node">
<title>2</title>
<ellipse fill="none" stroke="red" stroke-width="2" cx="241.4" cy="-221.93" rx="30.6" ry="30.6"/>
<text text-anchor="start" x="237.28" y="-223.88" font-family="monospace" font-size="14.00">2</text>
<text text-anchor="start" x="225.65" y="-209.38" font-family="monospace" font-size="9.00">p(2)=1</text>
</g>
<!-- 1&#45;&gt;2 -->
<g id="edge2" class="edge">
<title>1&#45;&gt;2</title>
<path fill="none" stroke="red" stroke-width="2" d="M194.5,-157.61C202.04,-167.96 210.89,-180.08 218.85,-191"/>
<polygon fill="red" stroke="red" stroke-width="2" points="216.15,-190.86 221.38,-194.47 219.54,-188.39 216.15,-190.86"/>
<text text-anchor="start" x="199.42" y="-179" font-family="monospace" font-size="9.00">1</text>
</g>
<!-- 6 -->
<g id="node7" class="node">
<title>6</title>
<ellipse fill="none" stroke="red" stroke-width="2" cx="66.74" cy="-172.66" rx="30.6" ry="30.6"/>
<text text-anchor="start" x="62.61" y="-174.61" font-family="monospace" font-size="14.00">6</text>
<text text-anchor="start" x="50.99" y="-160.11" font-family="monospace" font-size="9.00">p(6)=5</text>
</g>
<!-- 1&#45;&gt;6 -->
<g id="edge3" class="edge">
<title>1&#45;&gt;6</title>
<path fill="none" stroke="#aaaaaa" d="M147.29,-143.36C133.55,-148.36 117.02,-154.37 102.52,-159.65"/>
<polygon fill="#aaaaaa" stroke="#aaaaaa" points="101.93,-157.63 97.01,-161.65 103.37,-161.57 101.93,-157.63"/>
<text text-anchor="start" x="115.66" y="-158.2" font-family="monospace" font-size="9.00" fill="#aaaaaa">6</text>
</g>
<!-- 4 -->
<g id="node5" class="node">
<title>4</title>
<ellipse fill="none" stroke="red" stroke-width="2" cx="179.32" cy="-314.74" rx="30.6" ry="30.6"/>
<text text-anchor="start" x="175.19" y="-316.69" font-family="monospace" font-size="14.00">4</text>
<text text-anchor="start" x="163.57" y="-302.19" font-family="monospace" font-size="9.00">p(4)=2</text>
</g>
<!-- 2&#45;&gt;4 -->
<g id="edge4" class="edge">
<title>2&#45;&gt;4</title>
<path fill="none" stroke="red" stroke-width="2" d="M224.44,-247.29C217.04,-258.35 208.29,-271.43 200.47,-283.12"/>
<polygon fill="red" stroke="red" stroke-width="2" points="199.75,-280.42 198.16,-286.57 203.24,-282.75 199.75,-280.42"/>
<polygon fill="#ffffff" fill-opacity="0.800000" stroke="none" points="201.2,-267.2 201.2,-282.45 210.45,-282.45 210.45,-267.2 201.2,-267.2"/>
<text text-anchor="start" x="203.2" y="-271.9" font-family="monospace" font-size="9.00">1</text>
</g>
<!-- 5 -->
<g id="node6" class="node">
<title>5</title>
<ellipse fill="none" stroke="red" stroke-width="2" cx="72.44" cy="-282.76" rx="30.6" ry="30.6"/>
<text text-anchor="start" x="68.32" y="-284.71" font-family="monospace" font-size="14.00">5</text>
<text text-anchor="start" x="56.69" y="-270.21" font-family="monospace" font-size="9.00">p(5)=4</text>
</g>
<!-- 4&#45;&gt;5 -->
<g id="edge6" class="edge">
<title>4&#45;&gt;5</title>
<path fill="none" stroke="red" stroke-width="2" d="M149.55,-305.83C137.04,-302.09 122.37,-297.7 109.19,-293.76"/>
<polygon fill="red" stroke="red" stroke-width="2" points="111.3,-292.19 104.95,-292.49 110.1,-296.22 111.3,-292.19"/>
<text text-anchor="start" x="122.12" y="-304.49" font-family="monospace" font-size="9.00">2</text>
</g>
<!-- 5&#45;&gt;6 -->
<g id="edge7" class="edge">
<title>5&#45;&gt;6</title>
<path fill="none" stroke="red" stroke-width="2" d="M70.84,-251.8C70.18,-239.02 69.4,-224.1 68.71,-210.67"/>
<polygon fill="red" stroke="red" stroke-width="2" points="70.89,-212.3 68.49,-206.41 66.7,-212.51 70.89,-212.3"/>
<polygon fill="#ffffff" fill-opacity="0.800000" stroke="none" points="58.52,-233.23 58.52,-248.48 67.77,-248.48 67.77,-233.23 58.52,-233.23"/>
<text text-anchor="start" x="60.52" y="-237.93" font-family="monospace" font-size="9.00">1</text>
</g>
<!-- 6&#45;&gt;3 -->
</g>
</svg>
