<?xml version="1.0" encoding="UTF-8" standalone="no"?>
<!DOCTYPE svg PUBLIC "-//W3C//DTD SVG 1.1//EN"
 "http://www.w3.org/Graphics/SVG/1.1/DTD/svg11.dtd">
<!-- Generated by graphviz version 12.0.0 (20240704.0754)
 -->
<!-- Pages: 1 -->
<svg width="417pt" height="232pt"
 viewBox="0.00 0.00 417.32 231.88" xmlns="http://www.w3.org/2000/svg" xmlns:xlink="http://www.w3.org/1999/xlink">
<g id="graph0" class="graph" transform="scale(1 1) rotate(0) translate(14.4 217.48)">
<polygon fill="white" stroke="none" points="-14.4,14.4 -14.4,-217.48 402.92,-217.48 402.92,14.4 -14.4,14.4"/>
<!-- 3 -->
<g id="node1" class="node">
<title>3</title>
<ellipse fill="none" stroke="#bbbbbb" cx="27" cy="-87.22" rx="27" ry="27"/>
<text text-anchor="start" x="22.88" y="-82.55" font-family="monospace" font-size="14.00" fill="#bbbbbb">3</text>
</g>
<!-- 0 -->
<g id="node2" class="node">
<title>0</title>
<ellipse fill="none" stroke="red" stroke-width="2" cx="114.8" cy="-87.22" rx="27" ry="27"/>
<text text-anchor="start" x="110.68" y="-89.17" font-family="monospace" font-size="14.00">0</text>
<text text-anchor="start" x="99.05" y="-74.67" font-family="monospace" font-size="9.00">d(0)=0</text>
</g>
<!-- 3&#45;&gt;0 -->
<g id="edge5" class="edge">
<title>3&#45;&gt;0</title>
<path fill="none" stroke="#bbbbbb" d="M54.3,-87.22C62.48,-87.22 71.55,-87.22 80.14,-87.22"/>
<polygon fill="#bbbbbb" stroke="#bbbbbb" points="80,-89.32 86,-87.22 80,-85.12 80,-89.32"/>
<text text-anchor="start" x="59.97" y="-91.92" font-family="monospace" font-size="9.00" fill="#bbbbbb">2</text>
</g>
<!-- 1 -->
<g id="node3" class="node">
<title>1</title>
<ellipse fill="none" stroke="red" stroke-width="2" cx="205.83" cy="-96.09" rx="27" ry="27"/>
<text text-anchor="start" x="201.7" y="-98.04" font-family="monospace" font-size="14.00">1</text>
<text text-anchor="start" x="190.08" y="-83.54" font-family="monospace" font-size="9.00">d(1)=1</text>
</g>
<!-- 0&#45;&gt;1 -->
<g id="edge1" class="edge">
<title>0&#45;&gt;1</title>
<path fill="none" stroke="red" stroke-width="2" d="M142.11,-89.88C151.29,-90.78 161.66,-91.79 171.32,-92.73"/>
<polygon fill="red" stroke="red" stroke-width="2" points="169.35,-94.64 175.52,-93.14 169.75,-90.46 169.35,-94.64"/>
<text text-anchor="start" x="147.46" y="-98" font-family="monospace" font-size="9.00">1</text>
</g>
<!-- 2 -->
<g id="node4" class="node">
<title>2</title>
<ellipse fill="none" stroke="red" stroke-width="2" cx="273.46" cy="-27" rx="27" ry="27"/>
<text text-anchor="start" x="269.33" y="-28.95" font-family="monospace" font-size="14.00">2</text>
<text text-anchor="start" x="257.71" y="-14.45" font-family="monospace" font-size="9.00">d(2)=2</text>
</g>
<!-- 1&#45;&gt;2 -->
<g id="edge2" class="edge">
<title>1&#45;&gt;2</title>
<path fill="none" stroke="red" stroke-width="2" d="M225.03,-76.47C232.66,-68.68 241.52,-59.62 249.56,-51.41"/>
<polygon fill="red" stroke="red" stroke-width="2" points="249.63,-54.34 252.33,-48.59 246.63,-51.4 249.63,-54.34"/>
<text text-anchor="start" x="230.04" y="-53.39" font-family="monospace" font-size="9.00">1</text>
</g>
<!-- 6 -->
<g id="node7" class="node">
<title>6</title>
<ellipse fill="none" stroke="red" stroke-width="2" cx="260.24" cy="-176.08" rx="27" ry="27"/>
<text text-anchor="start" x="256.12" y="-178.03" font-family="monospace" font-size="14.00">6</text>
<text text-anchor="start" x="244.49" y="-163.53" font-family="monospace" font-size="9.00">d(6)=6</text>
</g>
<!-- 1&#45;&gt;6 -->
<g id="edge3" class="edge">
<title>1&#45;&gt;6</title>
<path fill="none" stroke="#bbbbbb" d="M221.27,-118.79C227.36,-127.74 234.41,-138.11 240.83,-147.55"/>
<polygon fill="#bbbbbb" stroke="#bbbbbb" points="238.98,-148.56 244.09,-152.34 242.45,-146.2 238.98,-148.56"/>
<text text-anchor="start" x="223.8" y="-137.87" font-family="monospace" font-size="9.00" fill="#bbbbbb">6</text>
</g>
<!-- 4 -->
<g id="node5" class="node">
<title>4</title>
<ellipse fill="none" stroke="red" stroke-width="2" cx="361.52" cy="-62.68" rx="27" ry="27"/>
<text text-anchor="start" x="357.4" y="-64.63" font-family="monospace" font-size="14.00">4</text>
<text text-anchor="start" x="345.77" y="-50.13" font-family="monospace" font-size="9.00">d(4)=3</text>
</g>
<!-- 2&#45;&gt;4 -->
<g id="edge4" class="edge">
<title>2&#45;&gt;4</title>
<path fill="none" stroke="red" stroke-width="2" d="M298.93,-37.32C308.42,-41.17 319.32,-45.58 329.34,-49.64"/>
<polygon fill="red" stroke="red" stroke-width="2" points="326.95,-50.94 333.3,-51.25 328.53,-47.05 326.95,-50.94"/>
<polygon fill="#ffffff" fill-opacity="0.800000" stroke="none" points="302.89,-45.48 302.89,-60.73 312.14,-60.73 312.14,-45.48 302.89,-45.48"/>
<text text-anchor="start" x="304.89" y="-50.18" font-family="monospace" font-size="9.00">1</text>
</g>
<!-- 5 -->
<g id="node6" class="node">
<title>5</title>
<ellipse fill="none" stroke="red" stroke-width="2" cx="353.18" cy="-156.69" rx="27" ry="27"/>
<text text-anchor="start" x="349.05" y="-158.64" font-family="monospace" font-size="14.00">5</text>
<text text-anchor="start" x="337.43" y="-144.14" font-family="monospace" font-size="9.00">d(5)=5</text>
</g>
<!-- 4&#45;&gt;5 -->
<g id="edge6" class="edge">
<title>4&#45;&gt;5</title>
<path fill="none" stroke="red" stroke-width="2" d="M359.11,-89.87C358.21,-100 357.18,-111.64 356.23,-122.33"/>
<polygon fill="red" stroke="red" stroke-width="2" points="354.29,-120.38 355.85,-126.54 358.47,-120.75 354.29,-120.38"/>
<text text-anchor="start" x="345.42" y="-115.8" font-family="monospace" font-size="9.00">2</text>
</g>
<!-- 5&#45;&gt;6 -->
<g id="edge7" class="edge">
<title>5&#45;&gt;6</title>
<path fill="none" stroke="red" stroke-width="2" d="M326.3,-162.3C316.28,-164.39 304.77,-166.79 294.2,-168.99"/>
<polygon fill="red" stroke="red" stroke-width="2" points="295.47,-166.58 290.02,-169.86 296.33,-170.69 295.47,-166.58"/>
<polygon fill="#ffffff" fill-opacity="0.800000" stroke="none" points="299,-167.64 299,-182.89 308.25,-182.89 308.25,-167.64 299,-167.64"/>
<text text-anchor="start" x="301" y="-172.34" font-family="monospace" font-size="9.00">1</text>
</g>
</g>
</svg>
