<?xml version="1.0" encoding="UTF-8" standalone="no"?>
<!DOCTYPE svg PUBLIC "-//W3C//DTD SVG 1.1//EN"
 "http://www.w3.org/Graphics/SVG/1.1/DTD/svg11.dtd">
<!-- Generated by graphviz version 12.0.0 (20240704.0754)
 -->
<!-- Pages: 1 -->
<svg width="253pt" height="273pt"
 viewBox="0.00 0.00 252.88 273.22" xmlns="http://www.w3.org/2000/svg" xmlns:xlink="http://www.w3.org/1999/xlink">
<g id="graph0" class="graph" transform="scale(1 1) rotate(0) translate(14.4 258.82)">
<polygon fill="white" stroke="none" points="-14.4,14.4 -14.4,-258.82 238.48,-258.82 238.48,14.4 -14.4,14.4"/>
<!-- 0 -->
<g id="node1" class="node">
<title>0</title>
<ellipse fill="none" stroke="red" stroke-width="2" cx="108.51" cy="-105.94" rx="18" ry="18"/>
<text text-anchor="start" x="104.39" y="-101.27" font-family="monospace" font-size="14.00">0</text>
</g>
<!-- 1 -->
<g id="node2" class="node">
<title>1</title>
<ellipse fill="none" stroke="red" stroke-width="2" cx="206.08" cy="-105.94" rx="18" ry="18"/>
<text text-anchor="start" x="201.95" y="-101.27" font-family="monospace" font-size="14.00">1</text>
</g>
<!-- 0&#45;&gt;1 -->
<g id="edge1" class="edge">
<title>0&#45;&gt;1</title>
<path fill="none" stroke="red" stroke-width="2" d="M125.95,-111.26C141.4,-112.93 164.11,-113.14 181.41,-111.9"/>
<polygon fill="red" stroke="red" stroke-width="2" points="179.65,-114.16 185.44,-111.54 179.28,-109.98 179.65,-114.16"/>
<polygon fill="#ffffff" fill-opacity="0.800000" stroke="none" points="176.21,-114.28 176.21,-129.53 185.46,-129.53 185.46,-114.28 176.21,-114.28"/>
<text text-anchor="start" x="178.21" y="-118.98" font-family="monospace" font-size="9.00">1</text>
</g>
<!-- 0&#45;&gt;1 -->
<g id="edge9" class="edge">
<title>0&#45;&gt;1</title>
<path fill="none" stroke="black" stroke-dasharray="5,2" d="M125.95,-100.63C141.4,-98.96 164.11,-98.75 181.41,-99.99"/>
<polygon fill="black" stroke="black" points="180.79,-102.04 186.95,-100.47 181.16,-97.86 180.79,-102.04"/>
<polygon fill="#ffffff" fill-opacity="0.800000" stroke="none" points="174.21,-80.36 174.21,-97.61 185.46,-97.61 185.46,-80.36 174.21,-80.36"/>
<text text-anchor="start" x="177.21" y="-86.06" font-family="monospace" font-size="9.00">1</text>
</g>
<!-- 2 -->
<g id="node3" class="node">
<title>2</title>
<ellipse fill="none" stroke="red" stroke-width="2" cx="136.85" cy="-18" rx="18" ry="18"/>
<text text-anchor="start" x="132.73" y="-13.32" font-family="monospace" font-size="14.00">2</text>
</g>
<!-- 0&#45;&gt;2 -->
<g id="edge10" class="edge">
<title>0&#45;&gt;2</title>
<path fill="none" stroke="black" stroke-dasharray="5,2" d="M114.11,-88.57C118.38,-75.32 124.31,-56.91 129.05,-42.21"/>
<polygon fill="black" stroke="black" points="130.96,-43.13 130.8,-36.78 126.96,-41.85 130.96,-43.13"/>
<polygon fill="#ffffff" fill-opacity="0.800000" stroke="none" points="115.02,-40.34 115.02,-57.59 126.27,-57.59 126.27,-40.34 115.02,-40.34"/>
<text text-anchor="start" x="118.02" y="-46.04" font-family="monospace" font-size="9.00">2</text>
</g>
<!-- 4 -->
<g id="node4" class="node">
<title>4</title>
<ellipse fill="none" stroke="red" stroke-width="2" cx="29.31" cy="-48.99" rx="18" ry="18"/>
<text text-anchor="start" x="25.19" y="-44.31" font-family="monospace" font-size="14.00">4</text>
</g>
<!-- 0&#45;&gt;4 -->
<g id="edge11" class="edge">
<title>0&#45;&gt;4</title>
<path fill="none" stroke="black" stroke-dasharray="5,2" d="M93.61,-95.23C81.34,-86.4 63.78,-73.77 50.11,-63.95"/>
<polygon fill="black" stroke="black" points="51.47,-62.33 45.37,-60.53 49.01,-65.74 51.47,-62.33"/>
<polygon fill="#ffffff" fill-opacity="0.800000" stroke="none" points="50.14,-65.65 50.14,-82.9 61.39,-82.9 61.39,-65.65 50.14,-65.65"/>
<text text-anchor="start" x="53.14" y="-71.35" font-family="monospace" font-size="9.00">3</text>
</g>
<!-- 1&#45;&gt;2 -->
<g id="edge2" class="edge">
<title>1&#45;&gt;2</title>
<path fill="none" stroke="red" stroke-width="2" d="M194.65,-91.42C183.16,-76.82 165.35,-54.21 152.54,-37.93"/>
<polygon fill="red" stroke="red" stroke-width="2" points="155.31,-38.05 149.94,-34.63 152,-40.64 155.31,-38.05"/>
<polygon fill="#ffffff" fill-opacity="0.800000" stroke="none" points="156.07,-40.25 156.07,-55.5 165.32,-55.5 165.32,-40.25 156.07,-40.25"/>
<text text-anchor="start" x="158.07" y="-44.95" font-family="monospace" font-size="9.00">1</text>
</g>
<!-- 6 -->
<g id="node7" class="node">
<title>6</title>
<ellipse fill="none" stroke="skyblue" stroke-width="2" cx="149.11" cy="-204.53" rx="18" ry="18"/>
<text text-anchor="start" x="144.99" y="-199.85" font-family="monospace" font-size="14.00">6</text>
</g>
<!-- 1&#45;&gt;6 -->
<g id="edge3" class="edge">
<title>1&#45;&gt;6</title>
<path fill="none" stroke="#bbbbbb" d="M196.93,-121.78C187.46,-138.17 172.6,-163.89 161.95,-182.3"/>
<polygon fill="#bbbbbb" stroke="#bbbbbb" points="160.18,-181.17 159,-187.42 163.82,-183.27 160.18,-181.17"/>
<polygon fill="#ffffff" fill-opacity="0.800000" stroke="none" points="164.24,-167.48 164.24,-182.73 173.49,-182.73 173.49,-167.48 164.24,-167.48"/>
<text text-anchor="start" x="166.24" y="-172.18" font-family="monospace" font-size="9.00" fill="#bbbbbb">5</text>
</g>
<!-- 2&#45;&gt;4 -->
<g id="edge4" class="edge">
<title>2&#45;&gt;4</title>
<path fill="none" stroke="red" stroke-width="2" d="M119.09,-23.12C101.32,-28.24 73.83,-36.16 53.95,-41.89"/>
<polygon fill="red" stroke="red" stroke-width="2" points="54.83,-39.45 49.65,-43.13 55.99,-43.48 54.83,-39.45"/>
<polygon fill="#ffffff" fill-opacity="0.800000" stroke="none" points="50.74,-22.71 50.74,-39.96 61.99,-39.96 61.99,-22.71 50.74,-22.71"/>
<text text-anchor="start" x="53.74" y="-28.41" font-family="monospace" font-size="9.00">1</text>
</g>
<!-- 5 -->
<g id="node6" class="node">
<title>5</title>
<ellipse fill="none" stroke="skyblue" stroke-width="2" cx="18" cy="-162.27" rx="18" ry="18"/>
<text text-anchor="start" x="13.88" y="-157.6" font-family="monospace" font-size="14.00">5</text>
</g>
<!-- 4&#45;&gt;5 -->
<g id="edge6" class="edge">
<title>4&#45;&gt;5</title>
<path fill="none" stroke="#bbbbbb" d="M27.49,-67.19C25.61,-86.02 22.66,-115.57 20.55,-136.74"/>
<polygon fill="#bbbbbb" stroke="#bbbbbb" points="18.47,-136.43 19.96,-142.61 22.65,-136.85 18.47,-136.43"/>
<polygon fill="#ffffff" fill-opacity="0.800000" stroke="none" points="7.56,-125.87 7.56,-141.12 16.81,-141.12 16.81,-125.87 7.56,-125.87"/>
<text text-anchor="start" x="9.56" y="-130.57" font-family="monospace" font-size="9.00" fill="#bbbbbb">1</text>
</g>
<!-- 3 -->
<g id="node5" class="node">
<title>3</title>
<ellipse fill="none" stroke="skyblue" stroke-width="2" cx="69.69" cy="-226.42" rx="18" ry="18"/>
<text text-anchor="start" x="65.57" y="-221.74" font-family="monospace" font-size="14.00">3</text>
</g>
<!-- 3&#45;&gt;0 -->
<g id="edge5" class="edge">
<title>3&#45;&gt;0</title>
<path fill="none" stroke="#bbbbbb" d="M75.34,-208.9C81.98,-188.29 93.05,-153.93 100.56,-130.63"/>
<polygon fill="#bbbbbb" stroke="#bbbbbb" points="102.55,-131.28 102.4,-124.92 98.56,-129.99 102.55,-131.28"/>
<polygon fill="#ffffff" fill-opacity="0.800000" stroke="none" points="87.61,-129.48 87.61,-144.73 96.86,-144.73 96.86,-129.48 87.61,-129.48"/>
<text text-anchor="start" x="89.61" y="-134.18" font-family="monospace" font-size="9.00" fill="#bbbbbb">2</text>
</g>
<!-- 3&#45;&gt;5 -->
<g id="edge7" class="edge">
<title>3&#45;&gt;5</title>
<path fill="none" stroke="skyblue" stroke-width="2" d="M63.12,-209.28C56.75,-199.4 47.15,-187.16 38.37,-177.6"/>
<polygon fill="skyblue" stroke="skyblue" stroke-width="2" points="41.09,-177.4 35.42,-174.51 38.05,-180.3 41.09,-177.4"/>
<polygon fill="#ffffff" fill-opacity="0.800000" stroke="none" points="40.33,-179.32 40.33,-194.57 49.58,-194.57 49.58,-179.32 40.33,-179.32"/>
<text text-anchor="start" x="42.33" y="-184.02" font-family="monospace" font-size="9.00">1</text>
</g>
<!-- 3&#45;&gt;5 -->
<g id="edge12" class="edge">
<title>3&#45;&gt;5</title>
<path fill="none" stroke="black" stroke-dasharray="5,2" d="M54.34,-216.35C46.04,-208.03 36.12,-196.05 28.65,-185.44"/>
<polygon fill="black" stroke="black" points="30.51,-184.44 25.41,-180.65 27.03,-186.79 30.51,-184.44"/>
<polygon fill="#ffffff" fill-opacity="0.800000" stroke="none" points="9.31,-183.39 9.31,-200.64 20.56,-200.64 20.56,-183.39 9.31,-183.39"/>
<text text-anchor="start" x="12.31" y="-189.09" font-family="monospace" font-size="9.00">1</text>
</g>
<!-- 3&#45;&gt;6 -->
<g id="edge13" class="edge">
<title>3&#45;&gt;6</title>
<path fill="none" stroke="black" stroke-dasharray="5,2" d="M87.32,-221.56C98.22,-218.56 112.37,-214.65 124.38,-211.34"/>
<polygon fill="black" stroke="black" points="124.85,-213.39 130.08,-209.77 123.73,-209.34 124.85,-213.39"/>
<polygon fill="#ffffff" fill-opacity="0.800000" stroke="none" points="115.29,-214.37 115.29,-231.62 126.54,-231.62 126.54,-214.37 115.29,-214.37"/>
<text text-anchor="start" x="118.29" y="-220.07" font-family="monospace" font-size="9.00">4</text>
</g>
<!-- 5&#45;&gt;6 -->
<g id="edge8" class="edge">
<title>5&#45;&gt;6</title>
<path fill="none" stroke="skyblue" stroke-width="2" d="M35.41,-167.89C58.33,-175.27 98.76,-188.3 124.72,-196.66"/>
<polygon fill="skyblue" stroke="skyblue" stroke-width="2" points="122.39,-198.12 128.75,-197.96 123.68,-194.12 122.39,-198.12"/>
<polygon fill="#ffffff" fill-opacity="0.800000" stroke="none" points="116.38,-177.64 116.38,-192.89 125.63,-192.89 125.63,-177.64 116.38,-177.64"/>
<text text-anchor="start" x="118.38" y="-182.34" font-family="monospace" font-size="9.00">3</text>
</g>
</g>
</svg>
