<?xml version="1.0" encoding="UTF-8" standalone="no"?>
<!DOCTYPE svg PUBLIC "-//W3C//DTD SVG 1.1//EN"
 "http://www.w3.org/Graphics/SVG/1.1/DTD/svg11.dtd">
<!-- Generated by graphviz version 12.0.0 (20240704.0754)
 -->
<!-- Pages: 1 -->
<svg width="294pt" height="367pt"
 viewBox="0.00 0.00 293.60 366.94" xmlns="http://www.w3.org/2000/svg" xmlns:xlink="http://www.w3.org/1999/xlink">
<g id="graph0" class="graph" transform="scale(1 1) rotate(0) translate(14.4 352.54)">
<polygon fill="white" stroke="none" points="-14.4,14.4 -14.4,-352.54 279.2,-352.54 279.2,14.4 -14.4,14.4"/>
<!-- 3 -->
<g id="node1" class="node">
<title>3</title>
<ellipse fill="none" stroke="#aaaaaa" cx="27" cy="-65.53" rx="27" ry="27"/>
<text text-anchor="start" x="22.88" y="-60.85" font-family="monospace" font-size="14.00" fill="#aaaaaa">3</text>
</g>
<!-- 0 -->
<g id="node2" class="node">
<title>0</title>
<ellipse fill="none" stroke="red" stroke-width="2" cx="132.51" cy="-27" rx="27" ry="27"/>
<text text-anchor="start" x="128.39" y="-28.95" font-family="monospace" font-size="14.00">0</text>
<text text-anchor="start" x="116.76" y="-14.45" font-family="monospace" font-size="9.00">t(0)=0</text>
</g>
<!-- 3&#45;&gt;0 -->
<g id="edge5" class="edge">
<title>3&#45;&gt;0</title>
<path fill="none" stroke="#aaaaaa" d="M52.81,-56.1C67.1,-50.89 84.98,-44.36 100.19,-38.8"/>
<polygon fill="#aaaaaa" stroke="#aaaaaa" points="100.63,-40.88 105.55,-36.85 99.19,-36.93 100.63,-40.88"/>
<text text-anchor="start" x="67.25" y="-54.15" font-family="monospace" font-size="9.00" fill="#aaaaaa">2</text>
</g>
<!-- 1 -->
<g id="node3" class="node">
<title>1</title>
<ellipse fill="none" stroke="red" stroke-width="2" cx="172.79" cy="-129.18" rx="27" ry="27"/>
<text text-anchor="start" x="168.66" y="-131.13" font-family="monospace" font-size="14.00">1</text>
<text text-anchor="start" x="157.04" y="-116.63" font-family="monospace" font-size="9.00">t(1)=1</text>
</g>
<!-- 0&#45;&gt;1 -->
<g id="edge1" class="edge">
<title>0&#45;&gt;1</title>
<path fill="none" stroke="red" stroke-width="2" d="M142.57,-52.52C147.86,-65.93 154.39,-82.51 160.03,-96.81"/>
<polygon fill="red" stroke="red" stroke-width="2" points="157.45,-96 161.61,-100.81 161.36,-94.46 157.45,-96"/>
<text text-anchor="start" x="144.05" y="-79.37" font-family="monospace" font-size="9.00">1</text>
</g>
<!-- 2 -->
<g id="node4" class="node">
<title>2</title>
<ellipse fill="none" stroke="red" stroke-width="2" cx="237.8" cy="-218.33" rx="27" ry="27"/>
<text text-anchor="start" x="233.68" y="-220.28" font-family="monospace" font-size="14.00">2</text>
<text text-anchor="start" x="222.05" y="-205.78" font-family="monospace" font-size="9.00">t(2)=2</text>
</g>
<!-- 1&#45;&gt;2 -->
<g id="edge2" class="edge">
<title>1&#45;&gt;2</title>
<path fill="none" stroke="red" stroke-width="2" d="M188.86,-151.22C197.46,-163 208.13,-177.64 217.32,-190.24"/>
<polygon fill="red" stroke="red" stroke-width="2" points="214.68,-190.18 219.91,-193.79 218.07,-187.7 214.68,-190.18"/>
<text text-anchor="start" x="195.84" y="-175.43" font-family="monospace" font-size="9.00">1</text>
</g>
<!-- 6 -->
<g id="node7" class="node">
<title>6</title>
<ellipse fill="none" stroke="red" stroke-width="2" cx="63.14" cy="-169.06" rx="27" ry="27"/>
<text text-anchor="start" x="59.01" y="-171.01" font-family="monospace" font-size="14.00">6</text>
<text text-anchor="start" x="47.39" y="-156.51" font-family="monospace" font-size="9.00">t(6)=5</text>
</g>
<!-- 1&#45;&gt;6 -->
<g id="edge3" class="edge">
<title>1&#45;&gt;6</title>
<path fill="none" stroke="#aaaaaa" d="M147.08,-138.53C131.68,-144.13 111.97,-151.3 95.51,-157.29"/>
<polygon fill="#aaaaaa" stroke="#aaaaaa" points="95.03,-155.23 90.11,-159.25 96.46,-159.17 95.03,-155.23"/>
<text text-anchor="start" x="112.05" y="-154.61" font-family="monospace" font-size="9.00" fill="#aaaaaa">6</text>
</g>
<!-- 4 -->
<g id="node5" class="node">
<title>4</title>
<ellipse fill="none" stroke="red" stroke-width="2" cx="175.72" cy="-311.14" rx="27" ry="27"/>
<text text-anchor="start" x="171.59" y="-313.09" font-family="monospace" font-size="14.00">4</text>
<text text-anchor="start" x="159.97" y="-298.59" font-family="monospace" font-size="9.00">t(4)=3</text>
</g>
<!-- 2&#45;&gt;4 -->
<g id="edge4" class="edge">
<title>2&#45;&gt;4</title>
<path fill="none" stroke="red" stroke-width="2" d="M222.77,-240.79C214.37,-253.36 203.81,-269.14 194.83,-282.57"/>
<polygon fill="red" stroke="red" stroke-width="2" points="194.1,-279.89 192.51,-286.04 197.59,-282.22 194.1,-279.89"/>
<polygon fill="#ffffff" fill-opacity="0.800000" stroke="none" points="197.55,-263.68 197.55,-278.93 206.8,-278.93 206.8,-263.68 197.55,-263.68"/>
<text text-anchor="start" x="199.55" y="-268.38" font-family="monospace" font-size="9.00">1</text>
</g>
<!-- 5 -->
<g id="node6" class="node">
<title>5</title>
<ellipse fill="none" stroke="red" stroke-width="2" cx="68.84" cy="-279.16" rx="27" ry="27"/>
<text text-anchor="start" x="64.72" y="-281.11" font-family="monospace" font-size="14.00">5</text>
<text text-anchor="start" x="53.09" y="-266.61" font-family="monospace" font-size="9.00">t(5)=4</text>
</g>
<!-- 4&#45;&gt;5 -->
<g id="edge6" class="edge">
<title>4&#45;&gt;5</title>
<path fill="none" stroke="red" stroke-width="2" d="M149.57,-303.32C135.21,-299.02 117.25,-293.64 101.92,-289.06"/>
<polygon fill="red" stroke="red" stroke-width="2" points="104.34,-287.59 97.99,-287.88 103.13,-291.61 104.34,-287.59"/>
<text text-anchor="start" x="118.5" y="-300.89" font-family="monospace" font-size="9.00">2</text>
</g>
<!-- 5&#45;&gt;6 -->
<g id="edge7" class="edge">
<title>5&#45;&gt;6</title>
<path fill="none" stroke="red" stroke-width="2" d="M67.43,-251.94C66.68,-237.39 65.74,-219.31 64.93,-203.75"/>
<polygon fill="red" stroke="red" stroke-width="2" points="67.11,-205.25 64.71,-199.37 62.92,-205.47 67.11,-205.25"/>
<polygon fill="#ffffff" fill-opacity="0.800000" stroke="none" points="54.93,-229.85 54.93,-245.1 64.18,-245.1 64.18,-229.85 54.93,-229.85"/>
<text text-anchor="start" x="56.93" y="-234.55" font-family="monospace" font-size="9.00">1</text>
</g>
<!-- 6&#45;&gt;3 -->
</g>
</svg>
