<?xml version="1.0" encoding="UTF-8" standalone="no"?>
<!DOCTYPE svg PUBLIC "-//W3C//DTD SVG 1.1//EN"
 "http://www.w3.org/Graphics/SVG/1.1/DTD/svg11.dtd">
<!-- Generated by graphviz version 12.0.0 (20240704.0754)
 -->
<!-- Pages: 1 -->
<svg width="280pt" height="225pt"
 viewBox="0.00 0.00 279.74 224.82" xmlns="http://www.w3.org/2000/svg" xmlns:xlink="http://www.w3.org/1999/xlink">
<g id="graph0" class="graph" transform="scale(1 1) rotate(0) translate(14.4 210.42)">
<polygon fill="white" stroke="none" points="-14.4,14.4 -14.4,-210.42 265.34,-210.42 265.34,14.4 -14.4,14.4"/>
<!-- 0 -->
<g id="node1" class="node">
<title>0</title>
<ellipse fill="none" stroke="red" stroke-width="2" cx="49.58" cy="-174.77" rx="18" ry="18"/>
<text text-anchor="start" x="45.46" y="-170.1" font-family="monospace" font-size="14.00">0</text>
</g>
<!-- 1 -->
<g id="node2" class="node">
<title>1</title>
<ellipse fill="none" stroke="red" stroke-width="2" cx="150.93" cy="-174.77" rx="18" ry="18"/>
<text text-anchor="start" x="146.81" y="-170.1" font-family="monospace" font-size="14.00">1</text>
</g>
<!-- 0&#45;&gt;1 -->
<g id="edge1" class="edge">
<title>0&#45;&gt;1</title>
<path fill="none" stroke="red" stroke-width="2" d="M67.7,-174.77C83.74,-174.77 107.33,-174.77 125.31,-174.77"/>
<polygon fill="red" stroke="red" stroke-width="2" points="123.6,-176.87 129.6,-174.77 123.6,-172.67 123.6,-176.87"/>
<polygon fill="#ffffff" fill-opacity="0.800000" stroke="none" points="120.38,-177.77 120.38,-193.02 129.63,-193.02 129.63,-177.77 120.38,-177.77"/>
<text text-anchor="start" x="122.38" y="-182.47" font-family="monospace" font-size="9.00">1</text>
</g>
<!-- 2 -->
<g id="node3" class="node">
<title>2</title>
<ellipse fill="none" stroke="red" stroke-width="2" cx="232.94" cy="-115.21" rx="18" ry="18"/>
<text text-anchor="start" x="228.82" y="-110.53" font-family="monospace" font-size="14.00">2</text>
</g>
<!-- 1&#45;&gt;2 -->
<g id="edge2" class="edge">
<title>1&#45;&gt;2</title>
<path fill="none" stroke="red" stroke-width="2" d="M165.59,-164.12C178.57,-154.7 197.66,-140.83 212.21,-130.27"/>
<polygon fill="red" stroke="red" stroke-width="2" points="212.06,-132.97 215.68,-127.75 209.59,-129.57 212.06,-132.97"/>
<polygon fill="#ffffff" fill-opacity="0.800000" stroke="none" points="200.88,-133.97 200.88,-149.22 210.13,-149.22 210.13,-133.97 200.88,-133.97"/>
<text text-anchor="start" x="202.88" y="-138.67" font-family="monospace" font-size="9.00">1</text>
</g>
<!-- 6 -->
<g id="node6" class="node">
<title>6</title>
<ellipse fill="none" stroke="skyblue" stroke-width="2" cx="125.47" cy="-96.39" rx="18" ry="18"/>
<text text-anchor="start" x="121.34" y="-91.71" font-family="monospace" font-size="14.00">6</text>
</g>
<!-- 1&#45;&gt;6 -->
<g id="edge3" class="edge">
<title>1&#45;&gt;6</title>
<path fill="none" stroke="#bbbbbb" d="M145.28,-157.38C141.79,-146.62 137.25,-132.65 133.4,-120.8"/>
<polygon fill="#bbbbbb" stroke="#bbbbbb" points="135.42,-120.23 131.57,-115.17 131.43,-121.53 135.42,-120.23"/>
<polygon fill="#ffffff" fill-opacity="0.800000" stroke="none" points="139.1,-121.74 139.1,-132.99 144.35,-132.99 144.35,-121.74 139.1,-121.74"/>
<text text-anchor="start" x="139.1" y="-124.44" font-family="monospace" font-size="9.00" fill="#bbbbbb">5</text>
</g>
<!-- 4 -->
<g id="node7" class="node">
<title>4</title>
<ellipse fill="none" stroke="#bbbbbb" cx="201.37" cy="-18" rx="18" ry="18"/>
<text text-anchor="start" x="197.24" y="-13.33" font-family="monospace" font-size="14.00" fill="#bbbbbb">4</text>
</g>
<!-- 2&#45;&gt;4 -->
<g id="edge4" class="edge">
<title>2&#45;&gt;4</title>
<path fill="none" stroke="#bbbbbb" d="M227.3,-97.83C222.3,-82.45 214.95,-59.82 209.35,-42.58"/>
<polygon fill="#bbbbbb" stroke="#bbbbbb" points="211.39,-42.06 207.54,-37 207.39,-43.35 211.39,-42.06"/>
<polygon fill="#ffffff" fill-opacity="0.800000" stroke="none" points="214.07,-42.56 214.07,-55.81 221.32,-55.81 221.32,-42.56 214.07,-42.56"/>
<text text-anchor="start" x="215.07" y="-46.26" font-family="monospace" font-size="9.00" fill="#bbbbbb">1</text>
</g>
<!-- 3 -->
<g id="node4" class="node">
<title>3</title>
<ellipse fill="none" stroke="skyblue" stroke-width="2" cx="18" cy="-77.56" rx="18" ry="18"/>
<text text-anchor="start" x="13.88" y="-72.88" font-family="monospace" font-size="14.00">3</text>
</g>
<!-- 3&#45;&gt;0 -->
<g id="edge5" class="edge">
<title>3&#45;&gt;0</title>
<path fill="none" stroke="#bbbbbb" d="M23.65,-94.94C28.64,-110.33 36,-132.95 41.6,-150.19"/>
<polygon fill="#bbbbbb" stroke="#bbbbbb" points="39.56,-150.72 43.41,-155.78 43.55,-149.42 39.56,-150.72"/>
<polygon fill="#ffffff" fill-opacity="0.800000" stroke="none" points="31.63,-138.97 31.63,-150.22 36.88,-150.22 36.88,-138.97 31.63,-138.97"/>
<text text-anchor="start" x="31.63" y="-141.67" font-family="monospace" font-size="9.00" fill="#bbbbbb">2</text>
</g>
<!-- 5 -->
<g id="node5" class="node">
<title>5</title>
<ellipse fill="none" stroke="skyblue" stroke-width="2" cx="100.01" cy="-18" rx="18" ry="18"/>
<text text-anchor="start" x="95.88" y="-13.32" font-family="monospace" font-size="14.00">5</text>
</g>
<!-- 3&#45;&gt;5 -->
<g id="edge7" class="edge">
<title>3&#45;&gt;5</title>
<path fill="none" stroke="skyblue" stroke-width="2" d="M32.66,-66.91C45.64,-57.48 64.73,-43.62 79.27,-33.06"/>
<polygon fill="skyblue" stroke="skyblue" stroke-width="2" points="79.13,-35.76 82.75,-30.54 76.66,-32.36 79.13,-35.76"/>
<polygon fill="#ffffff" fill-opacity="0.800000" stroke="none" points="66.95,-37.76 66.95,-53.01 76.2,-53.01 76.2,-37.76 66.95,-37.76"/>
<text text-anchor="start" x="68.95" y="-42.46" font-family="monospace" font-size="9.00">1</text>
</g>
<!-- 5&#45;&gt;6 -->
<g id="edge8" class="edge">
<title>5&#45;&gt;6</title>
<path fill="none" stroke="skyblue" stroke-width="2" d="M105.66,-35.4C109.15,-46.15 113.69,-60.12 117.54,-71.98"/>
<polygon fill="skyblue" stroke="skyblue" stroke-width="2" points="115.05,-71.1 118.9,-76.16 119.04,-69.8 115.05,-71.1"/>
<polygon fill="#ffffff" fill-opacity="0.800000" stroke="none" points="104.58,-57.79 104.58,-71.04 111.83,-71.04 111.83,-57.79 104.58,-57.79"/>
<text text-anchor="start" x="105.58" y="-61.49" font-family="monospace" font-size="9.00">3</text>
</g>
<!-- 4&#45;&gt;5 -->
<g id="edge6" class="edge">
<title>4&#45;&gt;5</title>
<path fill="none" stroke="#bbbbbb" d="M183.24,-18C167.2,-18 143.61,-18 125.63,-18"/>
<polygon fill="#bbbbbb" stroke="#bbbbbb" points="125.83,-15.9 119.83,-18 125.83,-20.1 125.83,-15.9"/>
<polygon fill="#ffffff" fill-opacity="0.800000" stroke="none" points="121.31,-21 121.31,-36.25 130.56,-36.25 130.56,-21 121.31,-21"/>
<text text-anchor="start" x="123.31" y="-25.7" font-family="monospace" font-size="9.00" fill="#bbbbbb">1</text>
</g>
</g>
</svg>
