<?xml version="1.0" encoding="UTF-8" standalone="no"?>
<!DOCTYPE svg PUBLIC "-//W3C//DTD SVG 1.1//EN"
 "http://www.w3.org/Graphics/SVG/1.1/DTD/svg11.dtd">
<!-- Generated by graphviz version 12.0.0 (20240704.0754)
 -->
<!-- Pages: 1 -->
<svg width="270pt" height="372pt"
 viewBox="0.00 0.00 269.57 371.72" xmlns="http://www.w3.org/2000/svg" xmlns:xlink="http://www.w3.org/1999/xlink">
<g id="graph0" class="graph" transform="scale(1 1) rotate(0) translate(14.4 357.32)">
<polygon fill="white" stroke="none" points="-14.4,14.4 -14.4,-357.32 255.17,-357.32 255.17,14.4 -14.4,14.4"/>
<!-- 3 -->
<g id="node1" class="node">
<title>3</title>
<ellipse fill="none" stroke="#aaaaaa" cx="64.57" cy="-30.6" rx="30.6" ry="30.6"/>
<text text-anchor="start" x="60.45" y="-25.92" font-family="monospace" font-size="14.00" fill="#aaaaaa">3</text>
</g>
<!-- 0 -->
<g id="node2" class="node">
<title>0</title>
<ellipse fill="none" stroke="red" stroke-width="2" cx="176.9" cy="-30.6" rx="30.6" ry="30.6"/>
<text text-anchor="start" x="172.77" y="-32.55" font-family="monospace" font-size="14.00">0</text>
<text text-anchor="start" x="161.15" y="-18.05" font-family="monospace" font-size="9.00">t(0)=0</text>
</g>
<!-- 3&#45;&gt;0 -->
<g id="edge3" class="edge">
<title>3&#45;&gt;0</title>
<path fill="none" stroke="#aaaaaa" d="M95.56,-30.6C108.95,-30.6 124.73,-30.6 138.82,-30.6"/>
<polygon fill="#aaaaaa" stroke="#aaaaaa" points="138.5,-32.7 144.5,-30.6 138.5,-28.5 138.5,-32.7"/>
<text text-anchor="start" x="107.94" y="-37.3" font-family="monospace" font-size="9.00" fill="#aaaaaa">2</text>
</g>
<!-- 1 -->
<g id="node3" class="node">
<title>1</title>
<ellipse fill="none" stroke="red" stroke-width="2" cx="179.68" cy="-140.4" rx="30.6" ry="30.6"/>
<text text-anchor="start" x="175.56" y="-142.35" font-family="monospace" font-size="14.00">1</text>
<text text-anchor="start" x="163.93" y="-127.85" font-family="monospace" font-size="9.00">t(1)=1</text>
</g>
<!-- 0&#45;&gt;1 -->
<g id="edge1" class="edge">
<title>0&#45;&gt;1</title>
<path fill="none" stroke="red" stroke-width="2" d="M177.68,-61.48C178,-74.11 178.38,-88.85 178.71,-102.15"/>
<polygon fill="red" stroke="red" stroke-width="2" points="176.57,-100.4 178.82,-106.34 180.77,-100.29 176.57,-100.4"/>
<text text-anchor="start" x="168.95" y="-88.51" font-family="monospace" font-size="9.00">1</text>
</g>
<!-- 2 -->
<g id="node4" class="node">
<title>2</title>
<ellipse fill="none" stroke="red" stroke-width="2" cx="210.17" cy="-246.43" rx="30.6" ry="30.6"/>
<text text-anchor="start" x="206.05" y="-248.38" font-family="monospace" font-size="14.00">2</text>
<text text-anchor="start" x="194.42" y="-233.88" font-family="monospace" font-size="9.00">t(2)=2</text>
</g>
<!-- 1&#45;&gt;2 -->
<g id="edge2" class="edge">
<title>1&#45;&gt;2</title>
<path fill="none" stroke="red" stroke-width="2" d="M188.26,-170.22C191.8,-182.52 195.93,-196.89 199.65,-209.83"/>
<polygon fill="red" stroke="red" stroke-width="2" points="197.15,-208.74 200.83,-213.93 201.19,-207.58 197.15,-208.74"/>
<text text-anchor="start" x="184.7" y="-196.72" font-family="monospace" font-size="9.00">1</text>
</g>
<!-- 6 -->
<g id="node7" class="node">
<title>6</title>
<ellipse fill="none" stroke="red" stroke-width="2" cx="63" cy="-140.25" rx="30.6" ry="30.6"/>
<text text-anchor="start" x="58.88" y="-142.2" font-family="monospace" font-size="14.00">6</text>
<text text-anchor="start" x="47.25" y="-127.7" font-family="monospace" font-size="9.00">t(6)=5</text>
</g>
<!-- 1&#45;&gt;6 -->
<g id="edge4" class="edge">
<title>1&#45;&gt;6</title>
<path fill="none" stroke="#aaaaaa" d="M148.72,-140.36C134.1,-140.34 116.51,-140.31 101.08,-140.29"/>
<polygon fill="#aaaaaa" stroke="#aaaaaa" points="101.22,-138.2 95.22,-140.29 101.22,-142.4 101.22,-138.2"/>
<text text-anchor="start" x="115.65" y="-147.03" font-family="monospace" font-size="9.00" fill="#aaaaaa">6</text>
</g>
<!-- 4 -->
<g id="node5" class="node">
<title>4</title>
<ellipse fill="none" stroke="red" stroke-width="2" cx="120.02" cy="-312.32" rx="30.6" ry="30.6"/>
<text text-anchor="start" x="115.9" y="-314.27" font-family="monospace" font-size="14.00">4</text>
<text text-anchor="start" x="104.27" y="-299.77" font-family="monospace" font-size="9.00">t(4)=3</text>
</g>
<!-- 2&#45;&gt;4 -->
<g id="edge5" class="edge">
<title>2&#45;&gt;4</title>
<path fill="none" stroke="red" stroke-width="2" d="M185.54,-264.44C174.8,-272.29 162.09,-281.58 150.73,-289.88"/>
<polygon fill="red" stroke="red" stroke-width="2" points="150.99,-287.09 147.38,-292.33 153.47,-290.48 150.99,-287.09"/>
<polygon fill="#ffffff" fill-opacity="0.800000" stroke="none" points="154.89,-277.16 154.89,-296.41 168.14,-296.41 168.14,-277.16 154.89,-277.16"/>
<text text-anchor="start" x="158.89" y="-283.86" font-family="monospace" font-size="9.00">1</text>
</g>
<!-- 5 -->
<g id="node6" class="node">
<title>5</title>
<ellipse fill="none" stroke="red" stroke-width="2" cx="30.6" cy="-245.62" rx="30.6" ry="30.6"/>
<text text-anchor="start" x="26.47" y="-247.57" font-family="monospace" font-size="14.00">5</text>
<text text-anchor="start" x="14.85" y="-233.07" font-family="monospace" font-size="9.00">t(5)=4</text>
</g>
<!-- 4&#45;&gt;5 -->
<g id="edge6" class="edge">
<title>4&#45;&gt;5</title>
<path fill="none" stroke="red" stroke-width="2" d="M95.11,-293.74C84.65,-285.94 72.37,-276.78 61.35,-268.56"/>
<polygon fill="red" stroke="red" stroke-width="2" points="63.87,-267.82 57.8,-265.91 61.36,-271.18 63.87,-267.82"/>
<text text-anchor="start" x="70.98" y="-285.85" font-family="monospace" font-size="9.00">2</text>
</g>
<!-- 5&#45;&gt;6 -->
<g id="edge7" class="edge">
<title>5&#45;&gt;6</title>
<path fill="none" stroke="red" stroke-width="2" d="M39.71,-215.99C43.47,-203.76 47.86,-189.48 51.82,-176.63"/>
<polygon fill="red" stroke="red" stroke-width="2" points="53.31,-178.9 53.07,-172.55 49.3,-177.67 53.31,-178.9"/>
<polygon fill="#ffffff" fill-opacity="0.800000" stroke="none" points="32.51,-196.31 32.51,-215.56 45.76,-215.56 45.76,-196.31 32.51,-196.31"/>
<text text-anchor="start" x="36.51" y="-203.01" font-family="monospace" font-size="9.00">1</text>
</g>
<!-- 6&#45;&gt;3 -->
</g>
</svg>
