<?xml version="1.0" encoding="UTF-8" standalone="no"?>
<!DOCTYPE svg PUBLIC "-//W3C//DTD SVG 1.1//EN"
 "http://www.w3.org/Graphics/SVG/1.1/DTD/svg11.dtd">
<!-- Generated by graphviz version 12.0.0 (20240704.0754)
 -->
<!-- Pages: 1 -->
<svg width="315pt" height="260pt"
 viewBox="0.00 0.00 315.35 260.29" xmlns="http://www.w3.org/2000/svg" xmlns:xlink="http://www.w3.org/1999/xlink">
<g id="graph0" class="graph" transform="scale(1 1) rotate(0) translate(14.4 245.89)">
<polygon fill="white" stroke="none" points="-14.4,14.4 -14.4,-245.89 300.95,-245.89 300.95,14.4 -14.4,14.4"/>
<!-- 3 -->
<g id="node1" class="node">
<title>3</title>
<ellipse fill="none" stroke="#bbbbbb" cx="18" cy="-115.74" rx="18" ry="18"/>
<polygon fill="#ffffff" fill-opacity="0.800000" stroke="none" points="12.88,-106.11 12.88,-125.36 23.12,-125.36 23.12,-106.11 12.88,-106.11"/>
<text text-anchor="start" x="13.88" y="-111.06" font-family="monospace" font-size="14.00" fill="#bbbbbb">3</text>
</g>
<!-- 0 -->
<g id="node2" class="node">
<title>0</title>
<ellipse fill="none" stroke="red" stroke-width="2" cx="156.19" cy="-115.74" rx="18" ry="18"/>
<polygon fill="#ffffff" fill-opacity="0.800000" stroke="none" points="151.06,-106.11 151.06,-125.36 161.31,-125.36 161.31,-106.11 151.06,-106.11"/>
<text text-anchor="start" x="152.06" y="-111.06" font-family="monospace" font-size="14.00">0</text>
</g>
<!-- 3&#45;&gt;0 -->
<g id="edge5" class="edge">
<title>3&#45;&gt;0</title>
<path fill="none" stroke="#bbbbbb" d="M35.78,-120.44C60.04,-122.94 103.61,-123.15 131.16,-121.08"/>
<polygon fill="#bbbbbb" stroke="#bbbbbb" points="131.17,-123.18 136.96,-120.56 130.8,-119 131.17,-123.18"/>
<polygon fill="#ffffff" fill-opacity="0.800000" stroke="none" points="125.22,-124.43 125.22,-139.68 134.47,-139.68 134.47,-124.43 125.22,-124.43"/>
<text text-anchor="start" x="127.22" y="-129.13" font-family="monospace" font-size="9.00" fill="#bbbbbb">2</text>
</g>
<!-- 0&#45;&gt;3 -->
<g id="edge8" class="edge">
<title>0&#45;&gt;3</title>
<path fill="none" stroke="black" stroke-dasharray="5,2" d="M138.4,-111.03C114.15,-108.54 70.57,-108.32 43.03,-110.4"/>
<polygon fill="black" stroke="black" points="43.01,-108.29 37.22,-110.91 43.38,-112.47 43.01,-108.29"/>
<polygon fill="#ffffff" fill-opacity="0.800000" stroke="none" points="36.71,-91.79 36.71,-110.04 48.21,-110.04 48.21,-91.79 36.71,-91.79"/>
<text text-anchor="start" x="38.71" y="-96.64" font-family="monospace" font-size="12.00">âˆ</text>
</g>
<!-- 1 -->
<g id="node3" class="node">
<title>1</title>
<ellipse fill="none" stroke="red" stroke-width="2" cx="212.48" cy="-213.49" rx="18" ry="18"/>
<polygon fill="#ffffff" fill-opacity="0.800000" stroke="none" points="207.36,-203.86 207.36,-223.11 217.61,-223.11 217.61,-203.86 207.36,-203.86"/>
<text text-anchor="start" x="208.36" y="-208.81" font-family="monospace" font-size="14.00">1</text>
</g>
<!-- 0&#45;&gt;1 -->
<g id="edge1" class="edge">
<title>0&#45;&gt;1</title>
<path fill="none" stroke="red" stroke-width="2" d="M160.6,-133.54C168.28,-150.89 183.11,-177.09 195.1,-194.75"/>
<polygon fill="red" stroke="red" stroke-width="2" points="192.47,-194.66 197.64,-198.36 195.91,-192.25 192.47,-194.66"/>
<polygon fill="#ffffff" fill-opacity="0.800000" stroke="none" points="183.12,-178.59 183.12,-193.84 192.37,-193.84 192.37,-178.59 183.12,-178.59"/>
<text text-anchor="start" x="185.12" y="-183.29" font-family="monospace" font-size="9.00">1</text>
</g>
<!-- 0&#45;&gt;1 -->
<g id="edge9" class="edge">
<title>0&#45;&gt;1</title>
<path fill="none" stroke="black" stroke-dasharray="5,2" d="M169.37,-128.48C180.53,-143.84 195.74,-169.81 205,-189.05"/>
<polygon fill="black" stroke="black" points="203.06,-189.87 207.49,-194.43 206.88,-188.1 203.06,-189.87"/>
<polygon fill="#ffffff" fill-opacity="0.800000" stroke="none" points="210.13,-178.55 210.13,-193.8 219.38,-193.8 219.38,-178.55 210.13,-178.55"/>
<text text-anchor="start" x="212.13" y="-183.25" font-family="monospace" font-size="9.00">1</text>
</g>
<!-- 2 -->
<g id="node4" class="node">
<title>2</title>
<ellipse fill="none" stroke="red" stroke-width="2" cx="268.55" cy="-115.75" rx="18" ry="18"/>
<polygon fill="#ffffff" fill-opacity="0.800000" stroke="none" points="263.42,-106.12 263.42,-125.37 273.67,-125.37 273.67,-106.12 263.42,-106.12"/>
<text text-anchor="start" x="264.42" y="-111.07" font-family="monospace" font-size="14.00">2</text>
</g>
<!-- 0&#45;&gt;2 -->
<g id="edge10" class="edge">
<title>0&#45;&gt;2</title>
<path fill="none" stroke="black" stroke-dasharray="5,2" d="M174.49,-115.74C193.1,-115.74 222.08,-115.74 242.96,-115.74"/>
<polygon fill="black" stroke="black" points="242.74,-117.84 248.74,-115.75 242.74,-113.64 242.74,-117.84"/>
<polygon fill="#ffffff" fill-opacity="0.800000" stroke="none" points="237,-119.75 237,-135 246.25,-135 246.25,-119.75 237,-119.75"/>
<text text-anchor="start" x="239" y="-124.45" font-family="monospace" font-size="9.00">2</text>
</g>
<!-- 4 -->
<g id="node5" class="node">
<title>4</title>
<ellipse fill="none" stroke="red" stroke-width="2" cx="212.49" cy="-18" rx="18" ry="18"/>
<polygon fill="#ffffff" fill-opacity="0.800000" stroke="none" points="207.37,-8.38 207.37,-27.62 217.62,-27.62 217.62,-8.38 207.37,-8.38"/>
<text text-anchor="start" x="208.37" y="-13.32" font-family="monospace" font-size="14.00">4</text>
</g>
<!-- 0&#45;&gt;4 -->
<g id="edge11" class="edge">
<title>0&#45;&gt;4</title>
<path fill="none" stroke="black" stroke-dasharray="5,2" d="M165.23,-100.03C174.54,-83.89 189.11,-58.59 199.61,-40.36"/>
<polygon fill="black" stroke="black" points="201.35,-41.55 202.53,-35.3 197.71,-39.45 201.35,-41.55"/>
<polygon fill="#ffffff" fill-opacity="0.800000" stroke="none" points="187.03,-40.99 187.03,-56.24 196.28,-56.24 196.28,-40.99 187.03,-40.99"/>
<text text-anchor="start" x="189.03" y="-45.69" font-family="monospace" font-size="9.00">3</text>
</g>
<!-- 5 -->
<g id="node6" class="node">
<title>5</title>
<ellipse fill="none" stroke="red" stroke-width="2" cx="105.31" cy="-42.09" rx="18" ry="18"/>
<polygon fill="#ffffff" fill-opacity="0.800000" stroke="none" points="100.19,-32.46 100.19,-51.71 110.44,-51.71 110.44,-32.46 100.19,-32.46"/>
<text text-anchor="start" x="101.19" y="-37.41" font-family="monospace" font-size="14.00">5</text>
</g>
<!-- 0&#45;&gt;5 -->
<g id="edge12" class="edge">
<title>0&#45;&gt;5</title>
<path fill="none" stroke="black" stroke-dasharray="5,2" d="M145.89,-100.83C138.43,-90.02 128.22,-75.25 119.92,-63.23"/>
<polygon fill="black" stroke="black" points="121.77,-62.21 116.63,-58.47 118.31,-64.6 121.77,-62.21"/>
<polygon fill="#ffffff" fill-opacity="0.800000" stroke="none" points="121.77,-63.22 121.77,-78.47 131.02,-78.47 131.02,-63.22 121.77,-63.22"/>
<text text-anchor="start" x="123.77" y="-67.92" font-family="monospace" font-size="9.00">5</text>
</g>
<!-- 6 -->
<g id="node7" class="node">
<title>6</title>
<ellipse fill="none" stroke="red" stroke-width="2" cx="105.3" cy="-189.39" rx="18" ry="18"/>
<polygon fill="#ffffff" fill-opacity="0.800000" stroke="none" points="100.17,-179.76 100.17,-199.01 110.42,-199.01 110.42,-179.76 100.17,-179.76"/>
<text text-anchor="start" x="101.17" y="-184.71" font-family="monospace" font-size="14.00">6</text>
</g>
<!-- 0&#45;&gt;6 -->
<g id="edge13" class="edge">
<title>0&#45;&gt;6</title>
<path fill="none" stroke="black" stroke-dasharray="5,2" d="M145.89,-130.64C138.42,-141.45 128.21,-156.22 119.9,-168.25"/>
<polygon fill="black" stroke="black" points="118.3,-166.88 116.62,-173.01 121.76,-169.26 118.3,-166.88"/>
<polygon fill="#ffffff" fill-opacity="0.800000" stroke="none" points="121.76,-153 121.76,-168.25 131.01,-168.25 131.01,-153 121.76,-153"/>
<text text-anchor="start" x="123.76" y="-157.7" font-family="monospace" font-size="9.00">6</text>
</g>
<!-- 1&#45;&gt;2 -->
<g id="edge2" class="edge">
<title>1&#45;&gt;2</title>
<path fill="none" stroke="red" stroke-width="2" d="M221.49,-197.78C230.75,-181.64 245.26,-156.34 255.72,-138.11"/>
<polygon fill="red" stroke="red" stroke-width="2" points="256.71,-140.61 257.87,-134.36 253.06,-138.52 256.71,-140.61"/>
<polygon fill="#ffffff" fill-opacity="0.800000" stroke="none" points="262.37,-134.74 262.37,-149.99 271.62,-149.99 271.62,-134.74 262.37,-134.74"/>
<text text-anchor="start" x="264.37" y="-139.44" font-family="monospace" font-size="9.00">1</text>
</g>
<!-- 1&#45;&gt;6 -->
<g id="edge3" class="edge">
<title>1&#45;&gt;6</title>
<path fill="none" stroke="#bbbbbb" d="M194.79,-209.51C177.18,-205.55 150,-199.44 130.21,-194.99"/>
<polygon fill="#bbbbbb" stroke="#bbbbbb" points="130.82,-192.97 124.5,-193.7 129.9,-197.07 130.82,-192.97"/>
<polygon fill="#ffffff" fill-opacity="0.800000" stroke="none" points="127.03,-197.37 127.03,-212.62 136.28,-212.62 136.28,-197.37 127.03,-197.37"/>
<text text-anchor="start" x="129.03" y="-202.07" font-family="monospace" font-size="9.00" fill="#bbbbbb">6</text>
</g>
<!-- 2&#45;&gt;4 -->
<g id="edge4" class="edge">
<title>2&#45;&gt;4</title>
<path fill="none" stroke="red" stroke-width="2" d="M259.54,-100.04C250.28,-83.89 235.77,-58.6 225.32,-40.36"/>
<polygon fill="red" stroke="red" stroke-width="2" points="227.98,-40.78 223.17,-36.62 224.33,-42.87 227.98,-40.78"/>
<polygon fill="#ffffff" fill-opacity="0.800000" stroke="none" points="228.66,-40.99 228.66,-56.24 237.91,-56.24 237.91,-40.99 228.66,-40.99"/>
<text text-anchor="start" x="230.66" y="-45.69" font-family="monospace" font-size="9.00">1</text>
</g>
<!-- 4&#45;&gt;5 -->
<g id="edge6" class="edge">
<title>4&#45;&gt;5</title>
<path fill="none" stroke="red" stroke-width="2" d="M194.8,-21.98C177.19,-25.94 150.01,-32.04 130.22,-36.49"/>
<polygon fill="red" stroke="red" stroke-width="2" points="131.39,-34.08 125.99,-37.44 132.31,-38.17 131.39,-34.08"/>
<polygon fill="#ffffff" fill-opacity="0.800000" stroke="none" points="126.04,-19.86 126.04,-35.11 135.29,-35.11 135.29,-19.86 126.04,-19.86"/>
<text text-anchor="start" x="128.04" y="-24.56" font-family="monospace" font-size="9.00">2</text>
</g>
<!-- 5&#45;&gt;6 -->
<g id="edge7" class="edge">
<title>5&#45;&gt;6</title>
<path fill="none" stroke="red" stroke-width="2" d="M105.31,-60.45C105.31,-86.5 105.31,-134.3 105.3,-163.82"/>
<polygon fill="red" stroke="red" stroke-width="2" points="103.2,-162.23 105.3,-168.23 107.4,-162.23 103.2,-162.23"/>
<polygon fill="#ffffff" fill-opacity="0.800000" stroke="none" points="91.05,-151.01 91.05,-166.26 100.3,-166.26 100.3,-151.01 91.05,-151.01"/>
<text text-anchor="start" x="93.05" y="-155.71" font-family="monospace" font-size="9.00">1</text>
</g>
</g>
</svg>
