<?xml version="1.0" encoding="UTF-8" standalone="no"?>
<!DOCTYPE svg PUBLIC "-//W3C//DTD SVG 1.1//EN"
 "http://www.w3.org/Graphics/SVG/1.1/DTD/svg11.dtd">
<!-- Generated by graphviz version 12.0.0 (20240704.0754)
 -->
<!-- Pages: 1 -->
<svg width="193pt" height="266pt"
 viewBox="0.00 0.00 193.22 265.91" xmlns="http://www.w3.org/2000/svg" xmlns:xlink="http://www.w3.org/1999/xlink">
<g id="graph0" class="graph" transform="scale(1 1) rotate(0) translate(14.4 251.51)">
<polygon fill="white" stroke="none" points="-14.4,14.4 -14.4,-251.51 178.82,-251.51 178.82,14.4 -14.4,14.4"/>
<!-- 3 -->
<g id="node1" class="node">
<title>3</title>
<ellipse fill="none" stroke="#bbbbbb" cx="42.31" cy="-219.11" rx="18" ry="18"/>
<text text-anchor="middle" x="42.31" y="-214.44" font-family="monospace" font-size="14.00" fill="#bbbbbb">3</text>
</g>
<!-- 0 -->
<g id="node2" class="node">
<title>0</title>
<ellipse fill="none" stroke="red" stroke-width="2" cx="122.55" cy="-219.11" rx="18" ry="18"/>
<text text-anchor="middle" x="122.55" y="-214.44" font-family="monospace" font-size="14.00">0</text>
</g>
<!-- 3&#45;&gt;0 -->
<g id="edge3" class="edge">
<title>3&#45;&gt;0</title>
<path fill="none" stroke="#bbbbbb" d="M60.52,-219.11C71.22,-219.11 84.91,-219.11 96.71,-219.11"/>
<polygon fill="#bbbbbb" stroke="#bbbbbb" points="96.63,-221.21 102.63,-219.11 96.63,-217.01 96.63,-221.21"/>
<text text-anchor="start" x="72.36" y="-222.81" font-family="monospace" font-size="9.00" fill="#bbbbbb">2</text>
</g>
<!-- 1 -->
<g id="node3" class="node">
<title>1</title>
<ellipse fill="none" stroke="red" stroke-width="2" cx="124.62" cy="-140.69" rx="18" ry="18"/>
<text text-anchor="middle" x="124.62" y="-136.02" font-family="monospace" font-size="14.00">1</text>
</g>
<!-- 0&#45;&gt;1 -->
<g id="edge1" class="edge">
<title>0&#45;&gt;1</title>
<path fill="none" stroke="red" stroke-width="2" d="M123.03,-200.93C123.3,-190.7 123.64,-177.78 123.94,-166.52"/>
<polygon fill="red" stroke="red" stroke-width="2" points="126,-168.13 124.06,-162.08 121.8,-168.02 126,-168.13"/>
<text text-anchor="start" x="114.23" y="-171.17" font-family="monospace" font-size="9.00">1</text>
<text text-anchor="start" x="129.13" y="-166.75" font-family="monospace" font-size="9.00">t=1</text>
<text text-anchor="start" x="127.03" y="-188.38" font-family="monospace" font-size="9.00">t=0</text>
</g>
<!-- 2 -->
<g id="node4" class="node">
<title>2</title>
<ellipse fill="none" stroke="red" stroke-width="2" cx="41.27" cy="-140.81" rx="18" ry="18"/>
<text text-anchor="middle" x="41.27" y="-136.14" font-family="monospace" font-size="14.00">2</text>
</g>
<!-- 1&#45;&gt;2 -->
<g id="edge2" class="edge">
<title>1&#45;&gt;2</title>
<path fill="none" stroke="red" stroke-width="2" d="M106.12,-140.72C94.68,-140.74 79.83,-140.76 67.22,-140.78"/>
<polygon fill="red" stroke="red" stroke-width="2" points="68.74,-138.67 62.74,-140.78 68.74,-142.87 68.74,-138.67"/>
<text text-anchor="start" x="70.92" y="-128.2" font-family="monospace" font-size="9.00"> &#160;&#160;1 &#160;</text>
<text text-anchor="start" x="63.71" y="-147.49" font-family="monospace" font-size="9.00">t=2</text>
</g>
<!-- 6 -->
<g id="node7" class="node">
<title>6</title>
<ellipse fill="none" stroke="red" stroke-width="2" cx="146.42" cy="-64.95" rx="18" ry="18"/>
<text text-anchor="middle" x="146.42" y="-60.27" font-family="monospace" font-size="14.00">6</text>
</g>
<!-- 1&#45;&gt;6 -->
<g id="edge4" class="edge">
<title>1&#45;&gt;6</title>
<path fill="none" stroke="#bbbbbb" d="M129.67,-123.12C132.52,-113.25 136.11,-100.77 139.24,-89.9"/>
<polygon fill="#bbbbbb" stroke="#bbbbbb" points="141.25,-90.48 140.89,-84.14 137.22,-89.32 141.25,-90.48"/>
<text text-anchor="start" x="126.21" y="-94.96" font-family="monospace" font-size="9.00" fill="#bbbbbb">5</text>
</g>
<!-- 2&#45;&gt;3 -->
<!-- 4 -->
<g id="node5" class="node">
<title>4</title>
<ellipse fill="none" stroke="red" stroke-width="2" cx="18" cy="-65.6" rx="18" ry="18"/>
<text text-anchor="middle" x="18" y="-60.93" font-family="monospace" font-size="14.00">4</text>
</g>
<!-- 2&#45;&gt;4 -->
<g id="edge6" class="edge">
<title>2&#45;&gt;4</title>
<path fill="none" stroke="red" stroke-width="2" d="M35.87,-123.37C32.84,-113.57 29,-101.17 25.66,-90.38"/>
<polygon fill="red" stroke="red" stroke-width="2" points="28.12,-91.22 24.34,-86.11 24.11,-92.46 28.12,-91.22"/>
<text text-anchor="start" x="11.02" y="-94.32" font-family="monospace" font-size="9.00"> &#160;1</text>
<text text-anchor="start" x="27.45" y="-89.91" font-family="monospace" font-size="9.00"> &#160;t=3</text>
</g>
<!-- 5 -->
<g id="node6" class="node">
<title>5</title>
<ellipse fill="none" stroke="red" stroke-width="2" cx="81.92" cy="-18" rx="18" ry="18"/>
<text text-anchor="middle" x="81.92" y="-13.32" font-family="monospace" font-size="14.00">5</text>
</g>
<!-- 4&#45;&gt;5 -->
<g id="edge7" class="edge">
<title>4&#45;&gt;5</title>
<path fill="none" stroke="red" stroke-width="2" d="M32.82,-54.56C41.29,-48.25 52.04,-40.25 61.32,-33.34"/>
<polygon fill="red" stroke="red" stroke-width="2" points="61.19,-36.06 64.74,-30.79 58.68,-32.69 61.19,-36.06"/>
<text text-anchor="start" x="35.57" y="-34.4" font-family="monospace" font-size="9.00"> 1</text>
<text text-anchor="start" x="42.17" y="-16.43" font-family="monospace" font-size="9.00"> t=4</text>
</g>
<!-- 5&#45;&gt;6 -->
<g id="edge8" class="edge">
<title>5&#45;&gt;6</title>
<path fill="none" stroke="red" stroke-width="2" d="M96.55,-28.65C105.21,-34.96 116.31,-43.04 125.84,-49.97"/>
<polygon fill="red" stroke="red" stroke-width="2" points="123.3,-50.72 129.39,-52.56 125.78,-47.33 123.3,-50.72"/>
<text text-anchor="start" x="104.95" y="-43.01" font-family="monospace" font-size="9.00">1</text>
<text text-anchor="start" x="106.84" y="-61.04" font-family="monospace" font-size="9.00"> t=5</text>
</g>
</g>
</svg>
