<?xml version="1.0" encoding="UTF-8" standalone="no"?>
<!DOCTYPE svg PUBLIC "-//W3C//DTD SVG 1.1//EN"
 "http://www.w3.org/Graphics/SVG/1.1/DTD/svg11.dtd">
<!-- Generated by graphviz version 12.0.0 (20240704.0754)
 -->
<!-- Pages: 1 -->
<svg width="280pt" height="225pt"
 viewBox="0.00 0.00 279.74 224.83" xmlns="http://www.w3.org/2000/svg" xmlns:xlink="http://www.w3.org/1999/xlink">
<g id="graph0" class="graph" transform="scale(1 1) rotate(0) translate(14.4 210.43)">
<polygon fill="white" stroke="none" points="-14.4,14.4 -14.4,-210.43 265.34,-210.43 265.34,14.4 -14.4,14.4"/>
<!-- 0 -->
<g id="node1" class="node">
<title>0</title>
<ellipse fill="none" stroke="red" stroke-width="2" cx="49.58" cy="-18" rx="18" ry="18"/>
<text text-anchor="start" x="45.46" y="-13.33" font-family="monospace" font-size="14.00">0</text>
</g>
<!-- 1 -->
<g id="node2" class="node">
<title>1</title>
<ellipse fill="none" stroke="red" stroke-width="2" cx="150.94" cy="-18" rx="18" ry="18"/>
<text text-anchor="start" x="146.81" y="-13.32" font-family="monospace" font-size="14.00">1</text>
</g>
<!-- 0&#45;&gt;1 -->
<g id="edge1" class="edge">
<title>0&#45;&gt;1</title>
<path fill="none" stroke="red" stroke-width="2" d="M67.24,-23.27C83.52,-25 107.84,-25.22 126.08,-23.9"/>
<polygon fill="red" stroke="red" stroke-width="2" points="124.68,-26.13 130.47,-23.51 124.31,-21.95 124.68,-26.13"/>
<polygon fill="#ffffff" fill-opacity="0.800000" stroke="none" points="121.23,-26.25 121.23,-41.5 130.48,-41.5 130.48,-26.25 121.23,-26.25"/>
<text text-anchor="start" x="123.23" y="-30.95" font-family="monospace" font-size="9.00">1</text>
</g>
<!-- 1&#45;&gt;0 -->
<g id="edge9" class="edge">
<title>1&#45;&gt;0</title>
<path fill="none" stroke="black" stroke-dasharray="5,2" d="M133.28,-12.73C117.01,-11 92.68,-10.78 74.44,-12.1"/>
<polygon fill="black" stroke="black" points="74.33,-10 68.54,-12.62 74.71,-14.18 74.33,-10"/>
</g>
<!-- 2 -->
<g id="node3" class="node">
<title>2</title>
<ellipse fill="none" stroke="red" stroke-width="2" cx="232.94" cy="-77.56" rx="18" ry="18"/>
<text text-anchor="start" x="228.82" y="-72.89" font-family="monospace" font-size="14.00">2</text>
</g>
<!-- 1&#45;&gt;2 -->
<g id="edge2" class="edge">
<title>1&#45;&gt;2</title>
<path fill="none" stroke="red" stroke-width="2" d="M162.13,-32.64C174.28,-43.61 193.84,-58.08 209.37,-67.73"/>
<polygon fill="red" stroke="red" stroke-width="2" points="206.92,-68.71 213.14,-70 209.08,-65.11 206.92,-68.71"/>
<polygon fill="#ffffff" fill-opacity="0.800000" stroke="none" points="198.49,-48.3 198.49,-63.55 207.74,-63.55 207.74,-48.3 198.49,-48.3"/>
<text text-anchor="start" x="200.49" y="-53" font-family="monospace" font-size="9.00">1</text>
</g>
<!-- 6 -->
<g id="node7" class="node">
<title>6</title>
<ellipse fill="none" stroke="skyblue" stroke-width="2" cx="125.47" cy="-96.39" rx="18" ry="18"/>
<text text-anchor="start" x="121.35" y="-91.72" font-family="monospace" font-size="14.00">6</text>
</g>
<!-- 1&#45;&gt;6 -->
<g id="edge3" class="edge">
<title>1&#45;&gt;6</title>
<path fill="none" stroke="#bbbbbb" d="M145.29,-35.4C141.79,-46.16 137.25,-60.13 133.4,-71.98"/>
<polygon fill="#bbbbbb" stroke="#bbbbbb" points="131.43,-71.25 131.58,-77.6 135.43,-72.54 131.43,-71.25"/>
<polygon fill="#ffffff" fill-opacity="0.800000" stroke="none" points="139.11,-59.79 139.11,-71.04 144.36,-71.04 144.36,-59.79 139.11,-59.79"/>
<text text-anchor="start" x="139.11" y="-62.49" font-family="monospace" font-size="9.00" fill="#bbbbbb">5</text>
</g>
<!-- 2&#45;&gt;1 -->
<g id="edge10" class="edge">
<title>2&#45;&gt;1</title>
<path fill="none" stroke="black" stroke-dasharray="5,2" d="M221.75,-62.93C209.6,-51.96 190.04,-37.49 174.52,-27.83"/>
<polygon fill="black" stroke="black" points="175.66,-26.07 169.44,-24.79 173.51,-29.68 175.66,-26.07"/>
</g>
<!-- 4 -->
<g id="node4" class="node">
<title>4</title>
<ellipse fill="none" stroke="red" stroke-width="2" cx="201.36" cy="-174.78" rx="18" ry="18"/>
<text text-anchor="start" x="197.24" y="-170.11" font-family="monospace" font-size="14.00">4</text>
</g>
<!-- 2&#45;&gt;4 -->
<g id="edge4" class="edge">
<title>2&#45;&gt;4</title>
<path fill="none" stroke="red" stroke-width="2" d="M222.63,-92.44C215.78,-107.67 207.8,-131.56 203.35,-149.71"/>
<polygon fill="red" stroke="red" stroke-width="2" points="201.74,-147.33 202.45,-153.64 205.83,-148.26 201.74,-147.33"/>
<polygon fill="#ffffff" fill-opacity="0.800000" stroke="none" points="189.53,-138.34 189.53,-153.59 198.78,-153.59 198.78,-138.34 189.53,-138.34"/>
<text text-anchor="start" x="191.53" y="-143.04" font-family="monospace" font-size="9.00">1</text>
</g>
<!-- 4&#45;&gt;2 -->
<g id="edge11" class="edge">
<title>4&#45;&gt;2</title>
<path fill="none" stroke="black" stroke-dasharray="5,2" d="M211.68,-159.9C218.52,-144.68 226.51,-120.78 230.96,-102.64"/>
<polygon fill="black" stroke="black" points="232.9,-103.54 232.19,-97.23 228.81,-102.61 232.9,-103.54"/>
</g>
<!-- 5 -->
<g id="node6" class="node">
<title>5</title>
<ellipse fill="none" stroke="skyblue" stroke-width="2" cx="100.01" cy="-174.78" rx="18" ry="18"/>
<text text-anchor="start" x="95.88" y="-170.1" font-family="monospace" font-size="14.00">5</text>
</g>
<!-- 4&#45;&gt;5 -->
<g id="edge6" class="edge">
<title>4&#45;&gt;5</title>
<path fill="none" stroke="#bbbbbb" d="M183.24,-174.78C167.2,-174.78 143.61,-174.78 125.63,-174.78"/>
<polygon fill="#bbbbbb" stroke="#bbbbbb" points="125.83,-172.68 119.83,-174.78 125.83,-176.88 125.83,-172.68"/>
<polygon fill="#ffffff" fill-opacity="0.800000" stroke="none" points="121.31,-177.78 121.31,-193.03 130.56,-193.03 130.56,-177.78 121.31,-177.78"/>
<text text-anchor="start" x="123.31" y="-182.48" font-family="monospace" font-size="9.00" fill="#bbbbbb">1</text>
</g>
<!-- 3 -->
<g id="node5" class="node">
<title>3</title>
<ellipse fill="none" stroke="skyblue" stroke-width="2" cx="18" cy="-115.21" rx="18" ry="18"/>
<text text-anchor="start" x="13.88" y="-110.53" font-family="monospace" font-size="14.00">3</text>
</g>
<!-- 3&#45;&gt;0 -->
<g id="edge5" class="edge">
<title>3&#45;&gt;0</title>
<path fill="none" stroke="#bbbbbb" d="M23.65,-97.83C28.65,-82.44 36,-59.82 41.6,-42.58"/>
<polygon fill="#bbbbbb" stroke="#bbbbbb" points="43.56,-43.35 43.41,-37 39.56,-42.05 43.56,-43.35"/>
<polygon fill="#ffffff" fill-opacity="0.800000" stroke="none" points="28.63,-43.56 28.63,-56.81 35.88,-56.81 35.88,-43.56 28.63,-43.56"/>
<text text-anchor="start" x="29.63" y="-47.26" font-family="monospace" font-size="9.00" fill="#bbbbbb">2</text>
</g>
<!-- 3&#45;&gt;5 -->
<g id="edge7" class="edge">
<title>3&#45;&gt;5</title>
<path fill="none" stroke="skyblue" stroke-width="2" d="M29.19,-129.85C41.34,-140.82 60.9,-155.29 76.43,-164.94"/>
<polygon fill="skyblue" stroke="skyblue" stroke-width="2" points="73.98,-165.93 80.21,-167.21 76.14,-162.32 73.98,-165.93"/>
<polygon fill="#ffffff" fill-opacity="0.800000" stroke="none" points="70.55,-171.76 70.55,-187.01 79.8,-187.01 79.8,-171.76 70.55,-171.76"/>
<text text-anchor="start" x="72.55" y="-176.46" font-family="monospace" font-size="9.00">1</text>
</g>
<!-- 5&#45;&gt;3 -->
<g id="edge12" class="edge">
<title>5&#45;&gt;3</title>
<path fill="none" stroke="black" stroke-dasharray="5,2" d="M88.82,-160.14C76.67,-149.17 57.11,-134.7 41.58,-125.04"/>
<polygon fill="black" stroke="black" points="42.73,-123.28 36.5,-122 40.57,-126.89 42.73,-123.28"/>
</g>
<!-- 5&#45;&gt;6 -->
<g id="edge8" class="edge">
<title>5&#45;&gt;6</title>
<path fill="none" stroke="skyblue" stroke-width="2" d="M110.77,-159.89C115.56,-149.16 120.56,-134.42 123.77,-121.84"/>
<polygon fill="skyblue" stroke="skyblue" stroke-width="2" points="125.42,-124 124.75,-117.68 121.33,-123.04 125.42,-124"/>
<polygon fill="#ffffff" fill-opacity="0.800000" stroke="none" points="111.19,-121.73 111.19,-134.98 118.44,-134.98 118.44,-121.73 111.19,-121.73"/>
<text text-anchor="start" x="112.19" y="-125.43" font-family="monospace" font-size="9.00">3</text>
</g>
<!-- 6&#45;&gt;5 -->
<g id="edge13" class="edge">
<title>6&#45;&gt;5</title>
<path fill="none" stroke="black" stroke-dasharray="5,2" d="M114.71,-111.27C109.92,-122.01 104.92,-136.74 101.71,-149.32"/>
<polygon fill="black" stroke="black" points="99.71,-148.64 100.39,-154.96 103.8,-149.6 99.71,-148.64"/>
</g>
</g>
</svg>
