<?xml version="1.0" encoding="UTF-8" standalone="no"?>
<!DOCTYPE svg PUBLIC "-//W3C//DTD SVG 1.1//EN"
 "http://www.w3.org/Graphics/SVG/1.1/DTD/svg11.dtd">
<!-- Generated by graphviz version 12.0.0 (20240704.0754)
 -->
<!-- Pages: 1 -->
<svg width="301pt" height="294pt"
 viewBox="0.00 0.00 301.11 293.53" xmlns="http://www.w3.org/2000/svg" xmlns:xlink="http://www.w3.org/1999/xlink">
<g id="graph0" class="graph" transform="scale(1 1) rotate(0) translate(14.4 279.13)">
<polygon fill="white" stroke="none" points="-14.4,14.4 -14.4,-279.13 286.71,-279.13 286.71,14.4 -14.4,14.4"/>
<!-- 0 -->
<g id="node1" class="node">
<title>0</title>
<ellipse fill="none" stroke="red" stroke-width="2" cx="84.8" cy="-246.73" rx="18" ry="18"/>
<text text-anchor="middle" x="84.8" y="-242.05" font-family="monospace" font-size="14.00">0</text>
</g>
<!-- 1 -->
<g id="node2" class="node">
<title>1</title>
<ellipse fill="none" stroke="red" stroke-width="2" cx="189.21" cy="-246.73" rx="18" ry="18"/>
<text text-anchor="middle" x="189.21" y="-242.05" font-family="monospace" font-size="14.00">1</text>
</g>
<!-- 0&#45;&gt;1 -->
<g id="edge2" class="edge">
<title>0&#45;&gt;1</title>
<path fill="none" stroke="red" stroke-width="2" d="M102.99,-246.73C119.8,-246.73 144.96,-246.73 163.76,-246.73"/>
<polygon fill="red" stroke="red" stroke-width="2" points="161.86,-248.83 167.86,-246.73 161.86,-244.63 161.86,-248.83"/>
<text text-anchor="start" x="127.13" y="-250.43" font-family="monospace" font-size="9.00">1</text>
<text text-anchor="start" x="152.13" y="-252.43" font-family="monospace" font-size="9.00">d=1</text>
<text text-anchor="start" x="106.99" y="-234.18" font-family="monospace" font-size="9.00"> d=0</text>
</g>
<!-- 2 -->
<g id="node3" class="node">
<title>2</title>
<ellipse fill="none" stroke="red" stroke-width="2" cx="231.08" cy="-63.3" rx="18" ry="18"/>
<text text-anchor="middle" x="231.08" y="-58.63" font-family="monospace" font-size="14.00">2</text>
</g>
<!-- 1&#45;&gt;2 -->
<g id="edge3" class="edge">
<title>1&#45;&gt;2</title>
<path fill="none" stroke="red" stroke-width="2" d="M193.3,-228.81C200.81,-195.93 216.79,-125.92 225.36,-88.36"/>
<polygon fill="red" stroke="red" stroke-width="2" points="227.01,-90.56 226.3,-84.25 222.92,-89.63 227.01,-90.56"/>
<text text-anchor="start" x="196.08" y="-169.28" font-family="monospace" font-size="9.00">1</text>
<text text-anchor="start" x="201.97" y="-88" font-family="monospace" font-size="9.00">d=2 </text>
</g>
<!-- 6 -->
<g id="node7" class="node">
<title>6</title>
<ellipse fill="none" stroke="skyblue" stroke-width="2" cx="254.31" cy="-165.1" rx="18" ry="18"/>
<text text-anchor="middle" x="254.31" y="-160.42" font-family="monospace" font-size="14.00">6</text>
</g>
<!-- 1&#45;&gt;6 -->
<g id="edge5" class="edge">
<title>1&#45;&gt;6</title>
<path fill="none" stroke="#bbbbbb" d="M200.55,-232.51C211.04,-219.36 226.72,-199.69 238.45,-184.99"/>
<polygon fill="#bbbbbb" stroke="#bbbbbb" points="239.84,-186.61 241.94,-180.61 236.56,-183.99 239.84,-186.61"/>
<text text-anchor="start" x="200.75" y="-214.45" font-family="monospace" font-size="9.00" fill="#bbbbbb">5 &#160;</text>
</g>
<!-- 4 -->
<g id="node4" class="node">
<title>4</title>
<ellipse fill="none" stroke="red" stroke-width="2" cx="137.01" cy="-18" rx="18" ry="18"/>
<text text-anchor="middle" x="137.01" y="-13.32" font-family="monospace" font-size="14.00">4</text>
</g>
<!-- 2&#45;&gt;4 -->
<g id="edge4" class="edge">
<title>2&#45;&gt;4</title>
<path fill="none" stroke="red" stroke-width="2" d="M214.69,-55.41C199.54,-48.12 176.88,-37.2 159.94,-29.04"/>
<polygon fill="red" stroke="red" stroke-width="2" points="162.57,-27.98 156.25,-27.27 160.74,-31.76 162.57,-27.98"/>
<text text-anchor="start" x="181.06" y="-45.93" font-family="monospace" font-size="9.00">1</text>
<text text-anchor="start" x="156.52" y="-14.4" font-family="monospace" font-size="9.00"> &#160;d=3</text>
</g>
<!-- 2&#45;&gt;6 -->
<!-- 5 -->
<g id="node6" class="node">
<title>5</title>
<ellipse fill="none" stroke="skyblue" stroke-width="2" cx="42.94" cy="-63.3" rx="18" ry="18"/>
<text text-anchor="middle" x="42.94" y="-58.63" font-family="monospace" font-size="14.00">5</text>
</g>
<!-- 4&#45;&gt;5 -->
<g id="edge8" class="edge">
<title>4&#45;&gt;5</title>
<path fill="none" stroke="#bbbbbb" d="M120.62,-25.89C105.47,-33.19 82.81,-44.1 65.86,-52.26"/>
<polygon fill="#bbbbbb" stroke="#bbbbbb" points="65.31,-50.2 60.81,-54.69 67.13,-53.98 65.31,-50.2"/>
<text text-anchor="start" x="60.74" y="-29.53" font-family="monospace" font-size="9.00" fill="#bbbbbb"> &#160;&#160;&#160;&#160;1</text>
</g>
<!-- 3 -->
<g id="node5" class="node">
<title>3</title>
<ellipse fill="none" stroke="skyblue" stroke-width="2" cx="19.7" cy="-165.1" rx="18" ry="18"/>
<text text-anchor="middle" x="19.7" y="-160.42" font-family="monospace" font-size="14.00">3</text>
</g>
<!-- 3&#45;&gt;0 -->
<g id="edge1" class="edge">
<title>3&#45;&gt;0</title>
<path fill="none" stroke="#bbbbbb" d="M31.04,-179.31C41.53,-192.46 57.21,-212.13 68.94,-226.83"/>
<polygon fill="#bbbbbb" stroke="#bbbbbb" points="67.05,-227.83 72.43,-231.21 70.33,-225.21 67.05,-227.83"/>
<text text-anchor="start" x="43.74" y="-206.77" font-family="monospace" font-size="9.00" fill="#bbbbbb">2</text>
</g>
<!-- 3&#45;&gt;5 -->
<g id="edge9" class="edge">
<title>3&#45;&gt;5</title>
<path fill="none" stroke="skyblue" stroke-width="2" d="M23.75,-147.36C27.49,-130.97 33.09,-106.45 37.27,-88.11"/>
<polygon fill="skyblue" stroke="skyblue" stroke-width="2" points="38.9,-90.44 38.18,-84.12 34.8,-89.5 38.9,-90.44"/>
<text text-anchor="start" x="19.01" y="-121.44" font-family="monospace" font-size="9.00">1 </text>
<text text-anchor="start" x="13.86" y="-87.87" font-family="monospace" font-size="9.00"> d=1</text>
<text text-anchor="start" x="4" y="-134.81" font-family="monospace" font-size="9.00">d=0</text>
</g>
<!-- 5&#45;&gt;6 -->
<g id="edge10" class="edge">
<title>5&#45;&gt;6</title>
<path fill="none" stroke="skyblue" stroke-width="2" d="M59.52,-71.29C96.95,-89.31 188.06,-133.19 231.08,-153.91"/>
<polygon fill="skyblue" stroke="skyblue" stroke-width="2" points="228.76,-155.12 235.08,-155.83 230.58,-151.34 228.76,-155.12"/>
<text text-anchor="start" x="139.05" y="-116.3" font-family="monospace" font-size="9.00">3</text>
<text text-anchor="start" x="221.05" y="-136.34" font-family="monospace" font-size="9.00">d=4</text>
</g>
<!-- 6&#45;&gt;2 -->
</g>
</svg>
