<?xml version="1.0" encoding="UTF-8" standalone="no"?>
<!DOCTYPE svg PUBLIC "-//W3C//DTD SVG 1.1//EN"
 "http://www.w3.org/Graphics/SVG/1.1/DTD/svg11.dtd">
<!-- Generated by graphviz version 12.0.0 (20240704.0754)
 -->
<!-- Pages: 1 -->
<svg width="331pt" height="285pt"
 viewBox="0.00 0.00 330.87 284.99" xmlns="http://www.w3.org/2000/svg" xmlns:xlink="http://www.w3.org/1999/xlink">
<g id="graph0" class="graph" transform="scale(1 1) rotate(0) translate(14.4 270.59)">
<polygon fill="white" stroke="none" points="-14.4,14.4 -14.4,-270.59 316.47,-270.59 316.47,14.4 -14.4,14.4"/>
<!-- 0 -->
<g id="node1" class="node">
<title>0</title>
<ellipse fill="none" stroke="red" stroke-width="2" cx="68.34" cy="-225.59" rx="30.6" ry="30.6"/>
<text text-anchor="start" x="64.21" y="-227.54" font-family="monospace" font-size="14.00">0</text>
<text text-anchor="start" x="52.59" y="-213.04" font-family="monospace" font-size="9.00">d(0)=0</text>
</g>
<!-- 1 -->
<g id="node2" class="node">
<title>1</title>
<ellipse fill="none" stroke="red" stroke-width="2" cx="184.99" cy="-225.59" rx="30.6" ry="30.6"/>
<text text-anchor="start" x="180.86" y="-227.54" font-family="monospace" font-size="14.00">1</text>
<text text-anchor="start" x="169.24" y="-213.04" font-family="monospace" font-size="9.00">d(1)=1</text>
</g>
<!-- 0&#45;&gt;1 -->
<g id="edge2" class="edge">
<title>0&#45;&gt;1</title>
<path fill="none" stroke="red" stroke-width="2" d="M99.29,-225.59C113.79,-225.59 131.21,-225.59 146.55,-225.59"/>
<polygon fill="red" stroke="red" stroke-width="2" points="144.86,-227.69 150.86,-225.59 144.86,-223.49 144.86,-227.69"/>
<text text-anchor="start" x="116.67" y="-229.29" font-family="monospace" font-size="9.00">1</text>
</g>
<!-- 2 -->
<g id="node3" class="node">
<title>2</title>
<ellipse fill="none" stroke="red" stroke-width="2" cx="271.47" cy="-145.84" rx="30.6" ry="30.6"/>
<text text-anchor="start" x="267.34" y="-147.79" font-family="monospace" font-size="14.00">2</text>
<text text-anchor="start" x="255.72" y="-133.29" font-family="monospace" font-size="9.00">d(2)=2</text>
</g>
<!-- 1&#45;&gt;2 -->
<g id="edge3" class="edge">
<title>1&#45;&gt;2</title>
<path fill="none" stroke="red" stroke-width="2" d="M207.71,-204.64C218.63,-194.56 231.83,-182.39 243.38,-171.74"/>
<polygon fill="red" stroke="red" stroke-width="2" points="243.68,-174.32 246.67,-168.71 240.84,-171.23 243.68,-174.32"/>
<text text-anchor="start" x="233.54" y="-198.89" font-family="monospace" font-size="9.00">1</text>
</g>
<!-- 6 -->
<g id="node7" class="node">
<title>6</title>
<ellipse fill="none" stroke="blue" stroke-width="2" cx="182.42" cy="-131.86" rx="30.6" ry="30.6"/>
<text text-anchor="start" x="178.3" y="-133.81" font-family="monospace" font-size="14.00">6</text>
<text text-anchor="start" x="166.67" y="-119.31" font-family="monospace" font-size="9.00">d(6)=4</text>
</g>
<!-- 1&#45;&gt;6 -->
<g id="edge5" class="edge">
<title>1&#45;&gt;6</title>
<path fill="none" stroke="#aaaaaa" d="M184.14,-194.64C183.92,-186.8 183.69,-178.29 183.47,-170.14"/>
<polygon fill="#aaaaaa" stroke="#aaaaaa" points="185.57,-170.23 183.31,-164.29 181.37,-170.35 185.57,-170.23"/>
<text text-anchor="start" x="165.05" y="-170.84" font-family="monospace" font-size="9.00" fill="#aaaaaa">5 &#160;</text>
</g>
<!-- 4 -->
<g id="node4" class="node">
<title>4</title>
<ellipse fill="none" stroke="red" stroke-width="2" cx="236.54" cy="-30.6" rx="30.6" ry="30.6"/>
<text text-anchor="start" x="232.42" y="-32.55" font-family="monospace" font-size="14.00">4</text>
<text text-anchor="start" x="220.79" y="-18.05" font-family="monospace" font-size="9.00">d(4)=3</text>
</g>
<!-- 2&#45;&gt;4 -->
<g id="edge4" class="edge">
<title>2&#45;&gt;4</title>
<path fill="none" stroke="red" stroke-width="2" d="M262.47,-116.16C257.95,-101.24 252.43,-83.02 247.64,-67.24"/>
<polygon fill="red" stroke="red" stroke-width="2" points="250.13,-68.21 246.38,-63.07 246.11,-69.43 250.13,-68.21"/>
<text text-anchor="start" x="248.81" y="-95.4" font-family="monospace" font-size="9.00">1</text>
</g>
<!-- 2&#45;&gt;6 -->
<!-- 5 -->
<g id="node6" class="node">
<title>5</title>
<ellipse fill="none" stroke="blue" stroke-width="2" cx="122.5" cy="-46.59" rx="30.6" ry="30.6"/>
<text text-anchor="start" x="118.37" y="-48.54" font-family="monospace" font-size="14.00">5</text>
<text text-anchor="start" x="106.75" y="-34.04" font-family="monospace" font-size="9.00">d(5)=1</text>
</g>
<!-- 4&#45;&gt;5 -->
<g id="edge8" class="edge">
<title>4&#45;&gt;5</title>
<path fill="none" stroke="#aaaaaa" d="M205.98,-34.89C191.92,-36.86 175.1,-39.22 160.25,-41.3"/>
<polygon fill="#aaaaaa" stroke="#aaaaaa" points="160.29,-39.17 154.64,-42.08 160.88,-43.33 160.29,-39.17"/>
<text text-anchor="start" x="167.37" y="-28.54" font-family="monospace" font-size="9.00" fill="#aaaaaa"> &#160;&#160;&#160;&#160;1</text>
</g>
<!-- 3 -->
<g id="node5" class="node">
<title>3</title>
<ellipse fill="none" stroke="blue" stroke-width="2" cx="30.6" cy="-115.91" rx="30.6" ry="30.6"/>
<text text-anchor="start" x="26.47" y="-117.86" font-family="monospace" font-size="14.00">3</text>
<text text-anchor="start" x="14.85" y="-103.36" font-family="monospace" font-size="9.00">d(3)=0</text>
</g>
<!-- 3&#45;&gt;0 -->
<g id="edge1" class="edge">
<title>3&#45;&gt;0</title>
<path fill="none" stroke="#aaaaaa" d="M40.71,-145.3C45.4,-158.93 51.02,-175.26 55.96,-189.62"/>
<polygon fill="#aaaaaa" stroke="#aaaaaa" points="53.9,-190.07 57.83,-195.07 57.87,-188.71 53.9,-190.07"/>
<text text-anchor="start" x="42.09" y="-171.16" font-family="monospace" font-size="9.00" fill="#aaaaaa">2</text>
</g>
<!-- 3&#45;&gt;5 -->
<g id="edge9" class="edge">
<title>3&#45;&gt;5</title>
<path fill="none" stroke="blue" stroke-width="2" d="M55.23,-97.33C66.56,-88.79 80.11,-78.56 92.08,-69.54"/>
<polygon fill="blue" stroke="blue" stroke-width="2" points="91.86,-72.33 95.39,-67.04 89.33,-68.98 91.86,-72.33"/>
<text text-anchor="start" x="62.15" y="-87.14" font-family="monospace" font-size="9.00">1 </text>
</g>
<!-- 5&#45;&gt;6 -->
<g id="edge10" class="edge">
<title>5&#45;&gt;6</title>
<path fill="none" stroke="blue" stroke-width="2" d="M140.15,-71.71C146.5,-80.74 153.73,-91.04 160.4,-100.53"/>
<polygon fill="blue" stroke="blue" stroke-width="2" points="157.78,-100.45 162.94,-104.15 161.21,-98.03 157.78,-100.45"/>
<text text-anchor="start" x="144.03" y="-89.82" font-family="monospace" font-size="9.00">3</text>
</g>
<!-- 6&#45;&gt;2 -->
</g>
</svg>
