<?xml version="1.0" encoding="UTF-8" standalone="no"?>
<!DOCTYPE svg PUBLIC "-//W3C//DTD SVG 1.1//EN"
 "http://www.w3.org/Graphics/SVG/1.1/DTD/svg11.dtd">
<!-- Generated by graphviz version 12.0.0 (20240704.0754)
 -->
<!-- Pages: 1 -->
<svg width="414pt" height="232pt"
 viewBox="0.00 0.00 414.06 232.43" xmlns="http://www.w3.org/2000/svg" xmlns:xlink="http://www.w3.org/1999/xlink">
<g id="graph0" class="graph" transform="scale(1 1) rotate(0) translate(14.4 218.03)">
<polygon fill="white" stroke="none" points="-14.4,14.4 -14.4,-218.03 399.66,-218.03 399.66,14.4 -14.4,14.4"/>
<!-- 3 -->
<g id="node1" class="node">
<title>3</title>
<ellipse fill="none" stroke="#bbbbbb" cx="27" cy="-101.82" rx="27" ry="27"/>
<text text-anchor="start" x="22.88" y="-97.14" font-family="monospace" font-size="14.00" fill="#bbbbbb">3</text>
</g>
<!-- 0 -->
<g id="node2" class="node">
<title>0</title>
<ellipse fill="none" stroke="red" stroke-width="2" cx="114.74" cy="-101.82" rx="27" ry="27"/>
<text text-anchor="start" x="110.61" y="-103.77" font-family="monospace" font-size="14.00">0</text>
<text text-anchor="start" x="98.24" y="-89.27" font-family="monospace" font-size="9.00">p(0)=⊥</text>
</g>
<!-- 3&#45;&gt;0 -->
<g id="edge5" class="edge">
<title>3&#45;&gt;0</title>
<path fill="none" stroke="#bbbbbb" d="M54.28,-101.82C62.45,-101.82 71.52,-101.82 80.1,-101.82"/>
<polygon fill="#bbbbbb" stroke="#bbbbbb" points="79.96,-103.92 85.96,-101.82 79.96,-99.72 79.96,-103.92"/>
<text text-anchor="start" x="59.94" y="-106.52" font-family="monospace" font-size="9.00" fill="#bbbbbb">2</text>
</g>
<!-- 1 -->
<g id="node3" class="node">
<title>1</title>
<ellipse fill="none" stroke="red" stroke-width="2" cx="206.15" cy="-101.82" rx="27" ry="27"/>
<text text-anchor="start" x="202.03" y="-103.77" font-family="monospace" font-size="14.00">1</text>
<text text-anchor="start" x="190.4" y="-89.27" font-family="monospace" font-size="9.00">p(1)=0</text>
</g>
<!-- 0&#45;&gt;1 -->
<g id="edge1" class="edge">
<title>0&#45;&gt;1</title>
<path fill="none" stroke="red" stroke-width="2" d="M142.17,-101.82C151.39,-101.82 161.79,-101.82 171.5,-101.82"/>
<polygon fill="red" stroke="red" stroke-width="2" points="169.72,-103.92 175.72,-101.82 169.72,-99.72 169.72,-103.92"/>
<text text-anchor="start" x="147.58" y="-108.52" font-family="monospace" font-size="9.00">1</text>
</g>
<!-- 2 -->
<g id="node4" class="node">
<title>2</title>
<ellipse fill="none" stroke="red" stroke-width="2" cx="267.41" cy="-27" rx="27" ry="27"/>
<text text-anchor="start" x="263.28" y="-28.95" font-family="monospace" font-size="14.00">2</text>
<text text-anchor="start" x="251.66" y="-14.45" font-family="monospace" font-size="9.00">p(2)=1</text>
</g>
<!-- 1&#45;&gt;2 -->
<g id="edge2" class="edge">
<title>1&#45;&gt;2</title>
<path fill="none" stroke="red" stroke-width="2" d="M223.54,-80.58C230.39,-72.21 238.33,-62.52 245.56,-53.69"/>
<polygon fill="red" stroke="red" stroke-width="2" points="246.09,-56.35 248.27,-50.38 242.84,-53.69 246.09,-56.35"/>
<text text-anchor="start" x="227.3" y="-56.58" font-family="monospace" font-size="9.00">1</text>
</g>
<!-- 6 -->
<g id="node7" class="node">
<title>6</title>
<ellipse fill="none" stroke="red" stroke-width="2" cx="267.4" cy="-176.63" rx="27" ry="27"/>
<text text-anchor="start" x="263.28" y="-178.58" font-family="monospace" font-size="14.00">6</text>
<text text-anchor="start" x="251.65" y="-164.08" font-family="monospace" font-size="9.00">p(6)=5</text>
</g>
<!-- 1&#45;&gt;6 -->
<g id="edge3" class="edge">
<title>1&#45;&gt;6</title>
<path fill="none" stroke="#bbbbbb" d="M223.54,-123.06C230.39,-131.42 238.33,-141.12 245.56,-149.94"/>
<polygon fill="#bbbbbb" stroke="#bbbbbb" points="243.8,-151.11 249.23,-154.43 247.05,-148.45 243.8,-151.11"/>
<text text-anchor="start" x="227.3" y="-141.2" font-family="monospace" font-size="9.00" fill="#bbbbbb">6</text>
</g>
<!-- 4 -->
<g id="node5" class="node">
<title>4</title>
<ellipse fill="none" stroke="red" stroke-width="2" cx="358.26" cy="-54.63" rx="27" ry="27"/>
<text text-anchor="start" x="354.13" y="-56.58" font-family="monospace" font-size="14.00">4</text>
<text text-anchor="start" x="342.51" y="-42.08" font-family="monospace" font-size="9.00">p(4)=2</text>
</g>
<!-- 2&#45;&gt;4 -->
<g id="edge4" class="edge">
<title>2&#45;&gt;4</title>
<path fill="none" stroke="red" stroke-width="2" d="M293.68,-34.99C303.48,-37.97 314.72,-41.39 325.06,-44.54"/>
<polygon fill="red" stroke="red" stroke-width="2" points="322.79,-46.04 329.14,-45.78 324.01,-42.02 322.79,-46.04"/>
<polygon fill="#ffffff" fill-opacity="0.800000" stroke="none" points="298.12,-41.76 298.12,-57.01 307.37,-57.01 307.37,-41.76 298.12,-41.76"/>
<text text-anchor="start" x="300.12" y="-46.46" font-family="monospace" font-size="9.00">1</text>
</g>
<!-- 5 -->
<g id="node6" class="node">
<title>5</title>
<ellipse fill="none" stroke="red" stroke-width="2" cx="358.26" cy="-148.99" rx="27" ry="27"/>
<text text-anchor="start" x="354.13" y="-150.94" font-family="monospace" font-size="14.00">5</text>
<text text-anchor="start" x="342.51" y="-136.44" font-family="monospace" font-size="9.00">p(5)=4</text>
</g>
<!-- 4&#45;&gt;5 -->
<g id="edge6" class="edge">
<title>4&#45;&gt;5</title>
<path fill="none" stroke="red" stroke-width="2" d="M358.26,-81.93C358.26,-92.1 358.26,-103.78 358.26,-114.51"/>
<polygon fill="red" stroke="red" stroke-width="2" points="356.16,-112.73 358.26,-118.73 360.36,-112.73 356.16,-112.73"/>
<text text-anchor="start" x="346.01" y="-107.92" font-family="monospace" font-size="9.00">2</text>
</g>
<!-- 5&#45;&gt;6 -->
<g id="edge7" class="edge">
<title>5&#45;&gt;6</title>
<path fill="none" stroke="red" stroke-width="2" d="M331.98,-156.99C322.19,-159.97 310.94,-163.39 300.6,-166.53"/>
<polygon fill="red" stroke="red" stroke-width="2" points="301.65,-164.02 296.52,-167.77 302.87,-168.04 301.65,-164.02"/>
<polygon fill="#ffffff" fill-opacity="0.800000" stroke="none" points="305.04,-163.76 305.04,-179.01 314.29,-179.01 314.29,-163.76 305.04,-163.76"/>
<text text-anchor="start" x="307.04" y="-168.46" font-family="monospace" font-size="9.00">1</text>
</g>
</g>
</svg>
