<?xml version="1.0" encoding="UTF-8" standalone="no"?>
<!DOCTYPE svg PUBLIC "-//W3C//DTD SVG 1.1//EN"
 "http://www.w3.org/Graphics/SVG/1.1/DTD/svg11.dtd">
<!-- Generated by graphviz version 12.0.0 (20240704.0754)
 -->
<!-- Pages: 1 -->
<svg width="171pt" height="610pt"
 viewBox="0.00 0.00 171.30 610.30" xmlns="http://www.w3.org/2000/svg" xmlns:xlink="http://www.w3.org/1999/xlink">
<g id="graph0" class="graph" transform="scale(1 1) rotate(0) translate(14.4 595.9)">
<polygon fill="white" stroke="none" points="-14.4,14.4 -14.4,-595.9 156.9,-595.9 156.9,14.4 -14.4,14.4"/>
<!-- 0 -->
<g id="node1" class="node">
<title>0</title>
<ellipse fill="none" stroke="red" stroke-width="2" cx="69" cy="-469.25" rx="27" ry="27"/>
<text text-anchor="start" x="64.88" y="-471.2" font-family="monospace" font-size="14.00">0</text>
<text text-anchor="start" x="53.25" y="-456.7" font-family="monospace" font-size="9.00">t(0)=1</text>
</g>
<!-- 1 -->
<g id="node2" class="node">
<title>1</title>
<ellipse fill="none" stroke="red" stroke-width="2" cx="69" cy="-380" rx="27" ry="27"/>
<text text-anchor="start" x="64.88" y="-381.95" font-family="monospace" font-size="14.00">1</text>
<text text-anchor="start" x="53.25" y="-367.45" font-family="monospace" font-size="9.00">t(1)=3</text>
</g>
<!-- 0&#45;&gt;1 -->
<g id="edge1" class="edge">
<title>0&#45;&gt;1</title>
<path fill="none" stroke="red" stroke-width="2" d="M69,-442.07C69,-433.52 69,-423.9 69,-414.87"/>
<polygon fill="red" stroke="red" stroke-width="2" points="71.1,-416.49 69,-410.49 66.9,-416.49 71.1,-416.49"/>
<text text-anchor="start" x="73" y="-421.7" font-family="monospace" font-size="9.00">1</text>
</g>
<!-- 2 -->
<g id="node3" class="node">
<title>2</title>
<ellipse fill="none" stroke="red" stroke-width="2" cx="69" cy="-290.75" rx="27" ry="27"/>
<text text-anchor="start" x="64.88" y="-292.7" font-family="monospace" font-size="14.00">2</text>
<text text-anchor="start" x="53.25" y="-278.2" font-family="monospace" font-size="9.00">t(2)=4</text>
</g>
<!-- 1&#45;&gt;2 -->
<g id="edge2" class="edge">
<title>1&#45;&gt;2</title>
<path fill="none" stroke="red" stroke-width="2" d="M69,-352.82C69,-344.27 69,-334.65 69,-325.62"/>
<polygon fill="red" stroke="red" stroke-width="2" points="71.1,-327.24 69,-321.24 66.9,-327.24 71.1,-327.24"/>
<text text-anchor="start" x="73" y="-332.45" font-family="monospace" font-size="9.00">1</text>
</g>
<!-- 6 -->
<g id="node7" class="node">
<title>6</title>
<ellipse fill="none" stroke="blue" stroke-width="2" cx="27" cy="-27" rx="27" ry="27"/>
<text text-anchor="start" x="22.88" y="-28.95" font-family="monospace" font-size="14.00">6</text>
<text text-anchor="start" x="11.25" y="-14.45" font-family="monospace" font-size="9.00">t(6)=6</text>
</g>
<!-- 1&#45;&gt;6 -->
<g id="edge3" class="edge">
<title>1&#45;&gt;6</title>
<path fill="none" stroke="#aaaaaa" d="M48.71,-361.82C31.99,-345.65 11,-319.76 11,-291.75 11,-291.75 11,-291.75 11,-111.25 11,-94.3 14.24,-75.76 17.8,-60.48"/>
<polygon fill="#aaaaaa" stroke="#aaaaaa" points="19.82,-61.06 19.2,-54.73 15.74,-60.06 19.82,-61.06"/>
<text text-anchor="start" x="15" y="-198.57" font-family="monospace" font-size="9.00" fill="#aaaaaa">5</text>
</g>
<!-- 4 -->
<g id="node4" class="node">
<title>4</title>
<ellipse fill="none" stroke="red" stroke-width="2" cx="69" cy="-201.5" rx="27" ry="27"/>
<text text-anchor="start" x="64.88" y="-203.45" font-family="monospace" font-size="14.00">4</text>
<text text-anchor="start" x="53.25" y="-188.95" font-family="monospace" font-size="9.00">t(4)=5</text>
</g>
<!-- 2&#45;&gt;4 -->
<g id="edge4" class="edge">
<title>2&#45;&gt;4</title>
<path fill="none" stroke="red" stroke-width="2" d="M69,-263.57C69,-255.02 69,-245.4 69,-236.37"/>
<polygon fill="red" stroke="red" stroke-width="2" points="71.1,-237.99 69,-231.99 66.9,-237.99 71.1,-237.99"/>
<text text-anchor="start" x="73" y="-243.2" font-family="monospace" font-size="9.00">1</text>
</g>
<!-- 5 -->
<g id="node6" class="node">
<title>5</title>
<ellipse fill="none" stroke="blue" stroke-width="2" cx="69" cy="-112.25" rx="27" ry="27"/>
<text text-anchor="start" x="64.88" y="-114.2" font-family="monospace" font-size="14.00">5</text>
<text text-anchor="start" x="53.25" y="-99.7" font-family="monospace" font-size="9.00">t(5)=2</text>
</g>
<!-- 4&#45;&gt;5 -->
<g id="edge6" class="edge">
<title>4&#45;&gt;5</title>
<path fill="none" stroke="#aaaaaa" d="M69,-174.32C69,-165.77 69,-156.15 69,-147.12"/>
<polygon fill="#aaaaaa" stroke="#aaaaaa" points="71.1,-147.22 69,-141.22 66.9,-147.22 71.1,-147.22"/>
<text text-anchor="start" x="73" y="-153.95" font-family="monospace" font-size="9.00" fill="#aaaaaa">1</text>
</g>
<!-- 3 -->
<g id="node5" class="node">
<title>3</title>
<ellipse fill="none" stroke="blue" stroke-width="2" cx="97" cy="-554.5" rx="27" ry="27"/>
<text text-anchor="start" x="92.88" y="-556.45" font-family="monospace" font-size="14.00">3</text>
<text text-anchor="start" x="81.25" y="-541.95" font-family="monospace" font-size="9.00">t(3)=0</text>
</g>
<!-- 3&#45;&gt;0 -->
<g id="edge5" class="edge">
<title>3&#45;&gt;0</title>
<path fill="none" stroke="#aaaaaa" d="M88.6,-528.52C85.8,-520.21 82.65,-510.83 79.7,-502.07"/>
<polygon fill="#aaaaaa" stroke="#aaaaaa" points="81.78,-501.66 77.88,-496.64 77.8,-503 81.78,-501.66"/>
<text text-anchor="start" x="87" y="-508.95" font-family="monospace" font-size="9.00" fill="#aaaaaa">2</text>
</g>
<!-- 3&#45;&gt;5 -->
<g id="edge7" class="edge">
<title>3&#45;&gt;5</title>
<path fill="none" stroke="blue" stroke-width="2" d="M108.92,-530.11C116.15,-513.77 124,-491.22 124,-470.25 124,-470.25 124,-470.25 124,-200.5 124,-176.05 108.35,-152.85 93.74,-136.54"/>
<polygon fill="blue" stroke="blue" stroke-width="2" points="96.54,-136.46 90.92,-133.49 93.46,-139.32 96.54,-136.46"/>
<text text-anchor="start" x="128" y="-332.45" font-family="monospace" font-size="9.00">1 </text>
</g>
<!-- 5&#45;&gt;6 -->
<g id="edge8" class="edge">
<title>5&#45;&gt;6</title>
<path fill="none" stroke="blue" stroke-width="2" d="M57.08,-87.62C52.47,-78.48 47.13,-67.9 42.25,-58.22"/>
<polygon fill="blue" stroke="blue" stroke-width="2" points="44.89,-58.81 40.32,-54.4 41.14,-60.7 44.89,-58.81"/>
<text text-anchor="start" x="54" y="-66.7" font-family="monospace" font-size="9.00">3</text>
</g>
</g>
</svg>
