<?xml version="1.0" encoding="UTF-8" standalone="no"?>
<!DOCTYPE svg PUBLIC "-//W3C//DTD SVG 1.1//EN"
 "http://www.w3.org/Graphics/SVG/1.1/DTD/svg11.dtd">
<!-- Generated by graphviz version 12.0.0 (20240704.0754)
 -->
<!-- Pages: 1 -->
<svg width="396pt" height="214pt"
 viewBox="0.00 0.00 396.06 214.43" xmlns="http://www.w3.org/2000/svg" xmlns:xlink="http://www.w3.org/1999/xlink">
<g id="graph0" class="graph" transform="scale(1 1) rotate(0) translate(14.4 200.03)">
<polygon fill="white" stroke="none" points="-14.4,14.4 -14.4,-200.03 381.66,-200.03 381.66,14.4 -14.4,14.4"/>
<!-- 3 -->
<g id="node1" class="node">
<title>3</title>
<ellipse fill="none" stroke="#bbbbbb" cx="18" cy="-92.82" rx="18" ry="18"/>
<text text-anchor="start" x="13.88" y="-88.14" font-family="monospace" font-size="14.00" fill="#bbbbbb">3</text>
</g>
<!-- 0 -->
<g id="node2" class="node">
<title>0</title>
<ellipse fill="none" stroke="red" stroke-width="2" cx="105.74" cy="-92.82" rx="18" ry="18"/>
<text text-anchor="start" x="101.61" y="-88.14" font-family="monospace" font-size="14.00">0</text>
</g>
<!-- 3&#45;&gt;0 -->
<g id="edge5" class="edge">
<title>3&#45;&gt;0</title>
<path fill="none" stroke="#bbbbbb" d="M36.18,-92.82C48.8,-92.82 65.8,-92.82 79.84,-92.82"/>
<polygon fill="#bbbbbb" stroke="#bbbbbb" points="79.77,-94.92 85.77,-92.82 79.77,-90.72 79.77,-94.92"/>
<polygon fill="#ffffff" fill-opacity="0.800000" stroke="none" points="74.03,-96.82 74.03,-112.07 83.28,-112.07 83.28,-96.82 74.03,-96.82"/>
<text text-anchor="start" x="76.03" y="-101.52" font-family="monospace" font-size="9.00" fill="#bbbbbb">2</text>
</g>
<!-- 1 -->
<g id="node3" class="node">
<title>1</title>
<ellipse fill="none" stroke="red" stroke-width="2" cx="197.15" cy="-92.82" rx="18" ry="18"/>
<text text-anchor="start" x="193.03" y="-88.14" font-family="monospace" font-size="14.00">1</text>
</g>
<!-- 0&#45;&gt;1 -->
<g id="edge1" class="edge">
<title>0&#45;&gt;1</title>
<path fill="none" stroke="red" stroke-width="2" d="M124.24,-92.82C137.74,-92.82 156.23,-92.82 171.21,-92.82"/>
<polygon fill="red" stroke="red" stroke-width="2" points="169.65,-94.92 175.65,-92.82 169.65,-90.72 169.65,-94.92"/>
<polygon fill="#ffffff" fill-opacity="0.800000" stroke="none" points="165.43,-96.82 165.43,-112.07 174.68,-112.07 174.68,-96.82 165.43,-96.82"/>
<text text-anchor="start" x="167.43" y="-101.52" font-family="monospace" font-size="9.00">1</text>
</g>
<!-- 2 -->
<g id="node4" class="node">
<title>2</title>
<ellipse fill="none" stroke="red" stroke-width="2" cx="258.41" cy="-18" rx="18" ry="18"/>
<text text-anchor="start" x="254.28" y="-13.32" font-family="monospace" font-size="14.00">2</text>
</g>
<!-- 1&#45;&gt;2 -->
<g id="edge2" class="edge">
<title>1&#45;&gt;2</title>
<path fill="none" stroke="red" stroke-width="2" d="M208.67,-78.75C218.11,-67.22 231.58,-50.77 242.12,-37.9"/>
<polygon fill="red" stroke="red" stroke-width="2" points="242.63,-40.58 244.81,-34.61 239.38,-37.92 242.63,-40.58"/>
<polygon fill="#ffffff" fill-opacity="0.800000" stroke="none" points="229.48,-40.26 229.48,-55.51 238.73,-55.51 238.73,-40.26 229.48,-40.26"/>
<text text-anchor="start" x="231.48" y="-44.96" font-family="monospace" font-size="9.00">1</text>
</g>
<!-- 6 -->
<g id="node7" class="node">
<title>6</title>
<ellipse fill="none" stroke="#bbbbbb" cx="258.4" cy="-167.63" rx="18" ry="18"/>
<text text-anchor="start" x="254.28" y="-162.95" font-family="monospace" font-size="14.00" fill="#bbbbbb">6</text>
</g>
<!-- 1&#45;&gt;6 -->
<g id="edge3" class="edge">
<title>1&#45;&gt;6</title>
<path fill="none" stroke="#bbbbbb" d="M208.67,-106.89C218.11,-118.41 231.58,-134.86 242.12,-147.73"/>
<polygon fill="#bbbbbb" stroke="#bbbbbb" points="240.34,-148.88 245.77,-152.19 243.59,-146.22 240.34,-148.88"/>
<polygon fill="#ffffff" fill-opacity="0.800000" stroke="none" points="230.48,-131.12 230.48,-146.37 239.73,-146.37 239.73,-131.12 230.48,-131.12"/>
<text text-anchor="start" x="232.48" y="-135.82" font-family="monospace" font-size="9.00" fill="#bbbbbb">6</text>
</g>
<!-- 4 -->
<g id="node5" class="node">
<title>4</title>
<ellipse fill="none" stroke="red" stroke-width="2" cx="349.26" cy="-45.63" rx="18" ry="18"/>
<text text-anchor="start" x="345.13" y="-40.96" font-family="monospace" font-size="14.00">4</text>
</g>
<!-- 2&#45;&gt;4 -->
<g id="edge4" class="edge">
<title>2&#45;&gt;4</title>
<path fill="none" stroke="red" stroke-width="2" d="M275.92,-23.33C289.87,-27.57 309.56,-33.56 325.02,-38.26"/>
<polygon fill="red" stroke="red" stroke-width="2" points="322.54,-39.7 328.9,-39.44 323.77,-35.69 322.54,-39.7"/>
<polygon fill="#ffffff" fill-opacity="0.800000" stroke="none" points="318.54,-44.32 318.54,-59.57 327.79,-59.57 327.79,-44.32 318.54,-44.32"/>
<text text-anchor="start" x="320.54" y="-49.02" font-family="monospace" font-size="9.00">1</text>
</g>
<!-- 5 -->
<g id="node6" class="node">
<title>5</title>
<ellipse fill="none" stroke="red" stroke-width="2" cx="349.26" cy="-139.99" rx="18" ry="18"/>
<text text-anchor="start" x="345.13" y="-135.32" font-family="monospace" font-size="14.00">5</text>
</g>
<!-- 4&#45;&gt;5 -->
<g id="edge6" class="edge">
<title>4&#45;&gt;5</title>
<path fill="none" stroke="red" stroke-width="2" d="M349.26,-63.83C349.26,-78.09 349.26,-98.14 349.26,-114.08"/>
<polygon fill="red" stroke="red" stroke-width="2" points="347.16,-112.51 349.26,-118.51 351.36,-112.51 347.16,-112.51"/>
<polygon fill="#ffffff" fill-opacity="0.800000" stroke="none" points="336.01,-102.28 336.01,-117.53 345.26,-117.53 345.26,-102.28 336.01,-102.28"/>
<text text-anchor="start" x="338.01" y="-106.98" font-family="monospace" font-size="9.00">2</text>
</g>
<!-- 5&#45;&gt;6 -->
<g id="edge7" class="edge">
<title>5&#45;&gt;6</title>
<path fill="none" stroke="#bbbbbb" d="M331.74,-145.32C317.79,-149.57 298.1,-155.55 282.64,-160.26"/>
<polygon fill="#bbbbbb" stroke="#bbbbbb" points="282.45,-158.12 277.32,-161.88 283.67,-162.14 282.45,-158.12"/>
<polygon fill="#ffffff" fill-opacity="0.800000" stroke="none" points="282.87,-140.07 282.87,-155.32 292.12,-155.32 292.12,-140.07 282.87,-140.07"/>
<text text-anchor="start" x="284.87" y="-144.77" font-family="monospace" font-size="9.00" fill="#bbbbbb">1</text>
</g>
</g>
</svg>
