<?xml version="1.0" encoding="UTF-8" standalone="no"?>
<!DOCTYPE svg PUBLIC "-//W3C//DTD SVG 1.1//EN"
 "http://www.w3.org/Graphics/SVG/1.1/DTD/svg11.dtd">
<!-- Generated by graphviz version 12.0.0 (20240704.0754)
 -->
<!-- Pages: 1 -->
<svg width="262pt" height="365pt"
 viewBox="0.00 0.00 262.37 364.52" xmlns="http://www.w3.org/2000/svg" xmlns:xlink="http://www.w3.org/1999/xlink">
<g id="graph0" class="graph" transform="scale(1 1) rotate(0) translate(14.4 350.12)">
<polygon fill="white" stroke="none" points="-14.4,14.4 -14.4,-350.12 247.97,-350.12 247.97,14.4 -14.4,14.4"/>
<!-- 3 -->
<g id="node1" class="node">
<title>3</title>
<ellipse fill="none" stroke="#bbbbbb" cx="60.97" cy="-27" rx="27" ry="27"/>
<text text-anchor="start" x="56.85" y="-22.32" font-family="monospace" font-size="14.00" fill="#bbbbbb">3</text>
</g>
<!-- 0 -->
<g id="node2" class="node">
<title>0</title>
<ellipse fill="none" stroke="red" stroke-width="2" cx="173.3" cy="-27" rx="27" ry="27"/>
<text text-anchor="start" x="169.17" y="-28.95" font-family="monospace" font-size="14.00">0</text>
<text text-anchor="start" x="157.55" y="-14.45" font-family="monospace" font-size="9.00">d(0)=0</text>
</g>
<!-- 3&#45;&gt;0 -->
<g id="edge5" class="edge">
<title>3&#45;&gt;0</title>
<path fill="none" stroke="#bbbbbb" d="M88.45,-27C103.66,-27 122.7,-27 138.89,-27"/>
<polygon fill="#bbbbbb" stroke="#bbbbbb" points="138.59,-29.1 144.59,-27 138.59,-24.9 138.59,-29.1"/>
<text text-anchor="start" x="106.42" y="-31.7" font-family="monospace" font-size="9.00" fill="#bbbbbb">2</text>
</g>
<!-- 1 -->
<g id="node3" class="node">
<title>1</title>
<ellipse fill="none" stroke="red" stroke-width="2" cx="176.08" cy="-136.8" rx="27" ry="27"/>
<text text-anchor="start" x="171.96" y="-138.75" font-family="monospace" font-size="14.00">1</text>
<text text-anchor="start" x="160.33" y="-124.25" font-family="monospace" font-size="9.00">d(1)=1</text>
</g>
<!-- 0&#45;&gt;1 -->
<g id="edge1" class="edge">
<title>0&#45;&gt;1</title>
<path fill="none" stroke="red" stroke-width="2" d="M173.99,-54.42C174.36,-68.83 174.81,-86.65 175.2,-102.02"/>
<polygon fill="red" stroke="red" stroke-width="2" points="173.06,-100.37 175.31,-106.32 177.26,-100.26 173.06,-100.37"/>
<text text-anchor="start" x="165.35" y="-84.92" font-family="monospace" font-size="9.00">1</text>
</g>
<!-- 2 -->
<g id="node4" class="node">
<title>2</title>
<ellipse fill="none" stroke="red" stroke-width="2" cx="206.57" cy="-242.83" rx="27" ry="27"/>
<text text-anchor="start" x="202.45" y="-244.78" font-family="monospace" font-size="14.00">2</text>
<text text-anchor="start" x="190.82" y="-230.28" font-family="monospace" font-size="9.00">d(2)=2</text>
</g>
<!-- 1&#45;&gt;2 -->
<g id="edge2" class="edge">
<title>1&#45;&gt;2</title>
<path fill="none" stroke="red" stroke-width="2" d="M183.62,-163.01C187.65,-177.03 192.66,-194.44 196.97,-209.42"/>
<polygon fill="red" stroke="red" stroke-width="2" points="194.51,-208.46 198.18,-213.65 198.54,-207.3 194.51,-208.46"/>
<text text-anchor="start" x="183.04" y="-190.92" font-family="monospace" font-size="9.00">1</text>
</g>
<!-- 6 -->
<g id="node7" class="node">
<title>6</title>
<ellipse fill="none" stroke="red" stroke-width="2" cx="59.4" cy="-136.65" rx="27" ry="27"/>
<text text-anchor="start" x="55.28" y="-138.6" font-family="monospace" font-size="14.00">6</text>
<text text-anchor="start" x="43.65" y="-124.1" font-family="monospace" font-size="9.00">d(6)=5</text>
</g>
<!-- 1&#45;&gt;6 -->
<g id="edge3" class="edge">
<title>1&#45;&gt;6</title>
<path fill="none" stroke="#bbbbbb" d="M148.73,-136.76C132.34,-136.74 111.36,-136.71 93.86,-136.69"/>
<polygon fill="#bbbbbb" stroke="#bbbbbb" points="94.1,-134.59 88.1,-136.68 94.1,-138.79 94.1,-134.59"/>
<text text-anchor="start" x="114.04" y="-141.43" font-family="monospace" font-size="9.00" fill="#bbbbbb">6</text>
</g>
<!-- 4 -->
<g id="node5" class="node">
<title>4</title>
<ellipse fill="none" stroke="red" stroke-width="2" cx="116.42" cy="-308.72" rx="27" ry="27"/>
<text text-anchor="start" x="112.3" y="-310.67" font-family="monospace" font-size="14.00">4</text>
<text text-anchor="start" x="100.67" y="-296.17" font-family="monospace" font-size="9.00">d(4)=3</text>
</g>
<!-- 2&#45;&gt;4 -->
<g id="edge4" class="edge">
<title>2&#45;&gt;4</title>
<path fill="none" stroke="red" stroke-width="2" d="M184.75,-258.78C172.55,-267.7 157.22,-278.91 144.17,-288.44"/>
<polygon fill="red" stroke="red" stroke-width="2" points="144.41,-285.67 140.8,-290.91 146.88,-289.06 144.41,-285.67"/>
<polygon fill="#ffffff" fill-opacity="0.800000" stroke="none" points="153.21,-275.61 153.21,-290.86 162.46,-290.86 162.46,-275.61 153.21,-275.61"/>
<text text-anchor="start" x="155.21" y="-280.31" font-family="monospace" font-size="9.00">1</text>
</g>
<!-- 5 -->
<g id="node6" class="node">
<title>5</title>
<ellipse fill="none" stroke="red" stroke-width="2" cx="27" cy="-242.02" rx="27" ry="27"/>
<text text-anchor="start" x="22.88" y="-243.97" font-family="monospace" font-size="14.00">5</text>
<text text-anchor="start" x="11.25" y="-229.47" font-family="monospace" font-size="9.00">d(5)=4</text>
</g>
<!-- 4&#45;&gt;5 -->
<g id="edge6" class="edge">
<title>4&#45;&gt;5</title>
<path fill="none" stroke="red" stroke-width="2" d="M94.77,-292.58C82.67,-283.55 67.47,-272.2 54.52,-262.55"/>
<polygon fill="red" stroke="red" stroke-width="2" points="57.25,-261.96 51.18,-260.06 54.74,-265.33 57.25,-261.96"/>
<text text-anchor="start" x="67.4" y="-282.26" font-family="monospace" font-size="9.00">2</text>
</g>
<!-- 5&#45;&gt;6 -->
<g id="edge7" class="edge">
<title>5&#45;&gt;6</title>
<path fill="none" stroke="red" stroke-width="2" d="M35.01,-215.97C39.29,-202.04 44.61,-184.74 49.19,-169.85"/>
<polygon fill="red" stroke="red" stroke-width="2" points="50.73,-172 50.48,-165.65 46.71,-170.77 50.73,-172"/>
<polygon fill="#ffffff" fill-opacity="0.800000" stroke="none" points="30.85,-194.91 30.85,-210.16 40.1,-210.16 40.1,-194.91 30.85,-194.91"/>
<text text-anchor="start" x="32.85" y="-199.61" font-family="monospace" font-size="9.00">1</text>
</g>
<!-- 6&#45;&gt;3 -->
</g>
</svg>
