<?xml version="1.0" encoding="UTF-8" standalone="no"?>
<!DOCTYPE svg PUBLIC "-//W3C//DTD SVG 1.1//EN"
 "http://www.w3.org/Graphics/SVG/1.1/DTD/svg11.dtd">
<!-- Generated by graphviz version 12.0.0 (20240704.0754)
 -->
<!-- Pages: 1 -->
<svg width="298pt" height="240pt"
 viewBox="0.00 0.00 297.74 239.58" xmlns="http://www.w3.org/2000/svg" xmlns:xlink="http://www.w3.org/1999/xlink">
<g id="graph0" class="graph" transform="scale(1 1) rotate(0) translate(14.4 225.18)">
<polygon fill="white" stroke="none" points="-14.4,14.4 -14.4,-225.18 283.34,-225.18 283.34,14.4 -14.4,14.4"/>
<!-- 0 -->
<g id="node1" class="node">
<title>0</title>
<ellipse fill="none" stroke="red" stroke-width="2" cx="58.58" cy="-183.78" rx="27" ry="27"/>
<text text-anchor="start" x="54.46" y="-185.73" font-family="monospace" font-size="14.00">0</text>
<text text-anchor="start" x="42.83" y="-171.23" font-family="monospace" font-size="9.00">t(0)=1</text>
</g>
<!-- 1 -->
<g id="node2" class="node">
<title>1</title>
<ellipse fill="none" stroke="red" stroke-width="2" cx="159.94" cy="-183.78" rx="27" ry="27"/>
<text text-anchor="start" x="155.81" y="-185.73" font-family="monospace" font-size="14.00">1</text>
<text text-anchor="start" x="144.19" y="-171.23" font-family="monospace" font-size="9.00">t(1)=3</text>
</g>
<!-- 0&#45;&gt;1 -->
<g id="edge1" class="edge">
<title>0&#45;&gt;1</title>
<path fill="none" stroke="red" stroke-width="2" d="M86.01,-183.78C98.07,-183.78 112.36,-183.78 125.16,-183.78"/>
<polygon fill="red" stroke="red" stroke-width="2" points="123.46,-185.88 129.46,-183.78 123.46,-181.68 123.46,-185.88"/>
<text text-anchor="start" x="96.33" y="-190.48" font-family="monospace" font-size="9.00">1</text>
</g>
<!-- 2 -->
<g id="node3" class="node">
<title>2</title>
<ellipse fill="none" stroke="red" stroke-width="2" cx="241.94" cy="-124.22" rx="27" ry="27"/>
<text text-anchor="start" x="237.82" y="-126.17" font-family="monospace" font-size="14.00">2</text>
<text text-anchor="start" x="226.19" y="-111.67" font-family="monospace" font-size="9.00">t(2)=4</text>
</g>
<!-- 1&#45;&gt;2 -->
<g id="edge2" class="edge">
<title>1&#45;&gt;2</title>
<path fill="none" stroke="red" stroke-width="2" d="M181.91,-167.82C191.75,-160.67 203.46,-152.17 213.92,-144.57"/>
<polygon fill="red" stroke="red" stroke-width="2" points="213.84,-147.23 217.46,-142 211.37,-143.83 213.84,-147.23"/>
<text text-anchor="start" x="188.67" y="-143.64" font-family="monospace" font-size="9.00">1</text>
</g>
<!-- 6 -->
<g id="node7" class="node">
<title>6</title>
<ellipse fill="none" stroke="skyblue" stroke-width="2" cx="134.47" cy="-105.39" rx="27" ry="27"/>
<text text-anchor="start" x="130.35" y="-107.34" font-family="monospace" font-size="14.00">6</text>
<text text-anchor="start" x="118.72" y="-92.84" font-family="monospace" font-size="9.00">t(6)=6</text>
</g>
<!-- 1&#45;&gt;6 -->
<g id="edge3" class="edge">
<title>1&#45;&gt;6</title>
<path fill="none" stroke="#bbbbbb" d="M151.46,-157.68C149.44,-151.46 147.26,-144.75 145.15,-138.28"/>
<polygon fill="#bbbbbb" stroke="#bbbbbb" points="147.23,-137.88 143.38,-132.82 143.24,-139.17 147.23,-137.88"/>
<text text-anchor="start" x="153.31" y="-134.43" font-family="monospace" font-size="9.00" fill="#bbbbbb">5</text>
</g>
<!-- 4 -->
<g id="node4" class="node">
<title>4</title>
<ellipse fill="none" stroke="red" stroke-width="2" cx="210.36" cy="-27" rx="27" ry="27"/>
<text text-anchor="start" x="206.24" y="-28.95" font-family="monospace" font-size="14.00">4</text>
<text text-anchor="start" x="194.61" y="-14.45" font-family="monospace" font-size="9.00">t(4)=5</text>
</g>
<!-- 2&#45;&gt;4 -->
<g id="edge4" class="edge">
<title>2&#45;&gt;4</title>
<path fill="none" stroke="red" stroke-width="2" d="M233.48,-98.16C229.69,-86.5 225.18,-72.62 221.15,-60.22"/>
<polygon fill="red" stroke="red" stroke-width="2" points="223.64,-61.06 219.78,-56 219.64,-62.36 223.64,-61.06"/>
<text text-anchor="start" x="219.07" y="-84.89" font-family="monospace" font-size="9.00">1</text>
</g>
<!-- 5 -->
<g id="node6" class="node">
<title>5</title>
<ellipse fill="none" stroke="skyblue" stroke-width="2" cx="109.01" cy="-27" rx="27" ry="27"/>
<text text-anchor="start" x="104.88" y="-28.95" font-family="monospace" font-size="14.00">5</text>
<text text-anchor="start" x="93.26" y="-14.45" font-family="monospace" font-size="9.00">t(5)=2</text>
</g>
<!-- 4&#45;&gt;5 -->
<g id="edge6" class="edge">
<title>4&#45;&gt;5</title>
<path fill="none" stroke="#bbbbbb" d="M182.93,-27C170.88,-27 156.58,-27 143.79,-27"/>
<polygon fill="#bbbbbb" stroke="#bbbbbb" points="143.97,-24.9 137.97,-27 143.97,-29.1 143.97,-24.9"/>
<text text-anchor="start" x="154.11" y="-33.7" font-family="monospace" font-size="9.00" fill="#bbbbbb">1</text>
</g>
<!-- 3 -->
<g id="node5" class="node">
<title>3</title>
<ellipse fill="none" stroke="skyblue" stroke-width="2" cx="27" cy="-86.57" rx="27" ry="27"/>
<text text-anchor="start" x="22.88" y="-88.52" font-family="monospace" font-size="14.00">3</text>
<text text-anchor="start" x="11.25" y="-74.02" font-family="monospace" font-size="9.00">t(3)=0</text>
</g>
<!-- 3&#45;&gt;0 -->
<g id="edge5" class="edge">
<title>3&#45;&gt;0</title>
<path fill="none" stroke="#bbbbbb" d="M35.46,-112.62C39.25,-124.28 43.76,-138.16 47.79,-150.56"/>
<polygon fill="#bbbbbb" stroke="#bbbbbb" points="45.78,-151.16 49.63,-156.22 49.77,-149.86 45.78,-151.16"/>
<text text-anchor="start" x="34.38" y="-136.29" font-family="monospace" font-size="9.00" fill="#bbbbbb">2</text>
</g>
<!-- 3&#45;&gt;5 -->
<g id="edge7" class="edge">
<title>3&#45;&gt;5</title>
<path fill="none" stroke="skyblue" stroke-width="2" d="M48.98,-70.61C58.81,-63.46 70.53,-54.95 80.98,-47.36"/>
<polygon fill="skyblue" stroke="skyblue" stroke-width="2" points="80.9,-50.01 84.52,-44.79 78.43,-46.62 80.9,-50.01"/>
<text text-anchor="start" x="50.48" y="-46.43" font-family="monospace" font-size="9.00">1 </text>
</g>
<!-- 5&#45;&gt;6 -->
<g id="edge8" class="edge">
<title>5&#45;&gt;6</title>
<path fill="none" stroke="skyblue" stroke-width="2" d="M117.49,-53.1C119.51,-59.32 121.69,-66.03 123.79,-72.5"/>
<polygon fill="skyblue" stroke="skyblue" stroke-width="2" points="121.24,-71.47 125.09,-76.52 125.24,-70.17 121.24,-71.47"/>
<text text-anchor="start" x="110.39" y="-70.5" font-family="monospace" font-size="9.00">3</text>
</g>
</g>
</svg>
