<?xml version="1.0" encoding="UTF-8" standalone="no"?>
<!DOCTYPE svg PUBLIC "-//W3C//DTD SVG 1.1//EN"
 "http://www.w3.org/Graphics/SVG/1.1/DTD/svg11.dtd">
<!-- Generated by graphviz version 12.0.0 (20240704.0754)
 -->
<!-- Pages: 1 -->
<svg width="311pt" height="294pt"
 viewBox="0.00 0.00 311.11 293.53" xmlns="http://www.w3.org/2000/svg" xmlns:xlink="http://www.w3.org/1999/xlink">
<g id="graph0" class="graph" transform="scale(1 1) rotate(0) translate(14.4 279.13)">
<polygon fill="white" stroke="none" points="-14.4,14.4 -14.4,-279.13 296.71,-279.13 296.71,14.4 -14.4,14.4"/>
<!-- 0 -->
<g id="node1" class="node">
<title>0</title>
<ellipse fill="none" stroke="red" stroke-width="2" cx="94.8" cy="-246.73" rx="18" ry="18"/>
<text text-anchor="middle" x="94.8" y="-242.05" font-family="monospace" font-size="14.00">0</text>
</g>
<!-- 1 -->
<g id="node2" class="node">
<title>1</title>
<ellipse fill="none" stroke="red" stroke-width="2" cx="199.21" cy="-246.73" rx="18" ry="18"/>
<text text-anchor="middle" x="199.21" y="-242.05" font-family="monospace" font-size="14.00">1</text>
</g>
<!-- 0&#45;&gt;1 -->
<g id="edge2" class="edge">
<title>0&#45;&gt;1</title>
<path fill="none" stroke="red" stroke-width="2" d="M112.99,-246.73C129.8,-246.73 154.96,-246.73 173.76,-246.73"/>
<polygon fill="red" stroke="red" stroke-width="2" points="171.86,-248.83 177.86,-246.73 171.86,-244.63 171.86,-248.83"/>
<text text-anchor="start" x="137.13" y="-250.43" font-family="monospace" font-size="9.00">1</text>
<text text-anchor="start" x="151.63" y="-252.43" font-family="monospace" font-size="9.00">(0,1)</text>
<text text-anchor="start" x="116.99" y="-234.18" font-family="monospace" font-size="9.00">(⊥,0)</text>
</g>
<!-- 2 -->
<g id="node3" class="node">
<title>2</title>
<ellipse fill="none" stroke="red" stroke-width="2" cx="241.08" cy="-63.3" rx="18" ry="18"/>
<text text-anchor="middle" x="241.08" y="-58.63" font-family="monospace" font-size="14.00">2</text>
</g>
<!-- 1&#45;&gt;2 -->
<g id="edge3" class="edge">
<title>1&#45;&gt;2</title>
<path fill="none" stroke="red" stroke-width="2" d="M203.3,-228.81C210.81,-195.93 226.79,-125.92 235.36,-88.36"/>
<polygon fill="red" stroke="red" stroke-width="2" points="237.01,-90.56 236.3,-84.25 232.92,-89.63 237.01,-90.56"/>
<text text-anchor="start" x="206.08" y="-169.28" font-family="monospace" font-size="9.00">1</text>
<text text-anchor="start" x="203.72" y="-91" font-family="monospace" font-size="9.00">(1,2)</text>
</g>
<!-- 6 -->
<g id="node7" class="node">
<title>6</title>
<ellipse fill="none" stroke="skyblue" stroke-width="2" cx="264.31" cy="-165.1" rx="18" ry="18"/>
<text text-anchor="middle" x="264.31" y="-160.42" font-family="monospace" font-size="14.00">6</text>
</g>
<!-- 1&#45;&gt;6 -->
<g id="edge5" class="edge">
<title>1&#45;&gt;6</title>
<path fill="none" stroke="#bbbbbb" d="M210.55,-232.51C221.04,-219.36 236.72,-199.69 248.45,-184.99"/>
<polygon fill="#bbbbbb" stroke="#bbbbbb" points="249.84,-186.61 251.94,-180.61 246.56,-183.99 249.84,-186.61"/>
<text text-anchor="start" x="210.75" y="-214.45" font-family="monospace" font-size="9.00" fill="#bbbbbb">5 &#160;</text>
</g>
<!-- 4 -->
<g id="node4" class="node">
<title>4</title>
<ellipse fill="none" stroke="red" stroke-width="2" cx="147.01" cy="-18" rx="18" ry="18"/>
<text text-anchor="middle" x="147.01" y="-13.32" font-family="monospace" font-size="14.00">4</text>
</g>
<!-- 2&#45;&gt;4 -->
<g id="edge4" class="edge">
<title>2&#45;&gt;4</title>
<path fill="none" stroke="red" stroke-width="2" d="M224.69,-55.41C209.54,-48.12 186.88,-37.2 169.94,-29.04"/>
<polygon fill="red" stroke="red" stroke-width="2" points="172.57,-27.98 166.25,-27.27 170.74,-31.76 172.57,-27.98"/>
<text text-anchor="start" x="191.06" y="-45.93" font-family="monospace" font-size="9.00">1</text>
<text text-anchor="start" x="168.52" y="-12.4" font-family="monospace" font-size="9.00">(2,4)</text>
</g>
<!-- 2&#45;&gt;6 -->
<!-- 5 -->
<g id="node6" class="node">
<title>5</title>
<ellipse fill="none" stroke="skyblue" stroke-width="2" cx="52.94" cy="-63.3" rx="18" ry="18"/>
<text text-anchor="middle" x="52.94" y="-58.63" font-family="monospace" font-size="14.00">5</text>
</g>
<!-- 4&#45;&gt;5 -->
<g id="edge8" class="edge">
<title>4&#45;&gt;5</title>
<path fill="none" stroke="#bbbbbb" d="M130.62,-25.89C115.47,-33.19 92.81,-44.1 75.86,-52.26"/>
<polygon fill="#bbbbbb" stroke="#bbbbbb" points="75.31,-50.2 70.81,-54.69 77.13,-53.98 75.31,-50.2"/>
<text text-anchor="start" x="70.74" y="-29.53" font-family="monospace" font-size="9.00" fill="#bbbbbb"> &#160;&#160;&#160;&#160;1</text>
</g>
<!-- 3 -->
<g id="node5" class="node">
<title>3</title>
<ellipse fill="none" stroke="skyblue" stroke-width="2" cx="29.7" cy="-165.1" rx="18" ry="18"/>
<text text-anchor="middle" x="29.7" y="-160.42" font-family="monospace" font-size="14.00">3</text>
</g>
<!-- 3&#45;&gt;0 -->
<g id="edge1" class="edge">
<title>3&#45;&gt;0</title>
<path fill="none" stroke="#bbbbbb" d="M41.04,-179.31C51.53,-192.46 67.21,-212.13 78.94,-226.83"/>
<polygon fill="#bbbbbb" stroke="#bbbbbb" points="77.05,-227.83 82.43,-231.21 80.33,-225.21 77.05,-227.83"/>
<text text-anchor="start" x="53.74" y="-206.77" font-family="monospace" font-size="9.00" fill="#bbbbbb">2</text>
</g>
<!-- 3&#45;&gt;5 -->
<g id="edge9" class="edge">
<title>3&#45;&gt;5</title>
<path fill="none" stroke="skyblue" stroke-width="2" d="M33.75,-147.36C37.49,-130.97 43.09,-106.45 47.27,-88.11"/>
<polygon fill="skyblue" stroke="skyblue" stroke-width="2" points="48.9,-90.44 48.18,-84.12 44.8,-89.5 48.9,-90.44"/>
<text text-anchor="start" x="29.01" y="-121.44" font-family="monospace" font-size="9.00">1 </text>
<text text-anchor="start" x="15.61" y="-90.87" font-family="monospace" font-size="9.00">(3,5)</text>
<text text-anchor="start" x="3" y="-135.81" font-family="monospace" font-size="9.00">(⊥,3)</text>
</g>
<!-- 5&#45;&gt;6 -->
<g id="edge10" class="edge">
<title>5&#45;&gt;6</title>
<path fill="none" stroke="skyblue" stroke-width="2" d="M69.52,-71.29C106.95,-89.31 198.06,-133.19 241.08,-153.91"/>
<polygon fill="skyblue" stroke="skyblue" stroke-width="2" points="238.76,-155.12 245.08,-155.83 240.58,-151.34 238.76,-155.12"/>
<text text-anchor="start" x="149.05" y="-116.3" font-family="monospace" font-size="9.00">3</text>
<polygon fill="#ffffff" fill-opacity="0.866667" stroke="none" points="212.55,-136.89 212.55,-148.14 238.8,-148.14 238.8,-136.89 212.55,-136.89"/>
<text text-anchor="start" x="212.55" y="-139.59" font-family="monospace" font-size="9.00">(5,6)</text>
</g>
<!-- 6&#45;&gt;2 -->
</g>
</svg>
