<?xml version="1.0" encoding="UTF-8" standalone="no"?>
<!DOCTYPE svg PUBLIC "-//W3C//DTD SVG 1.1//EN"
 "http://www.w3.org/Graphics/SVG/1.1/DTD/svg11.dtd">
<!-- Generated by graphviz version 12.0.0 (20240704.0754)
 -->
<!-- Pages: 1 -->
<svg width="396pt" height="214pt"
 viewBox="0.00 0.00 396.06 214.43" xmlns="http://www.w3.org/2000/svg" xmlns:xlink="http://www.w3.org/1999/xlink">
<g id="graph0" class="graph" transform="scale(1 1) rotate(0) translate(14.4 200.03)">
<polygon fill="white" stroke="none" points="-14.4,14.4 -14.4,-200.03 381.66,-200.03 381.66,14.4 -14.4,14.4"/>
<!-- 3 -->
<g id="node1" class="node">
<title>3</title>
<ellipse fill="none" stroke="#bbbbbb" cx="18" cy="-92.81" rx="18" ry="18"/>
<text text-anchor="start" x="13.88" y="-88.14" font-family="monospace" font-size="14.00" fill="#bbbbbb">3</text>
</g>
<!-- 0 -->
<g id="node2" class="node">
<title>0</title>
<ellipse fill="none" stroke="red" stroke-width="2" cx="105.74" cy="-92.81" rx="18" ry="18"/>
<text text-anchor="start" x="101.61" y="-88.14" font-family="monospace" font-size="14.00">0</text>
</g>
<!-- 3&#45;&gt;0 -->
<g id="edge10" class="edge">
<title>3&#45;&gt;0</title>
<path fill="none" stroke="#bbbbbb" d="M36.18,-92.81C48.8,-92.81 65.8,-92.81 79.84,-92.81"/>
<polygon fill="#bbbbbb" stroke="#bbbbbb" points="79.77,-94.91 85.77,-92.81 79.77,-90.71 79.77,-94.91"/>
<polygon fill="#ffffff" fill-opacity="0.800000" stroke="none" points="74.03,-96.81 74.03,-112.06 83.28,-112.06 83.28,-96.81 74.03,-96.81"/>
<text text-anchor="start" x="76.03" y="-101.51" font-family="monospace" font-size="9.00" fill="#bbbbbb">2</text>
</g>
<!-- 1 -->
<g id="node3" class="node">
<title>1</title>
<ellipse fill="none" stroke="red" stroke-width="2" cx="197.15" cy="-92.82" rx="18" ry="18"/>
<text text-anchor="start" x="193.03" y="-88.14" font-family="monospace" font-size="14.00">1</text>
</g>
<!-- 0&#45;&gt;1 -->
<g id="edge6" class="edge">
<title>0&#45;&gt;1</title>
<path fill="none" stroke="red" stroke-width="2" d="M123.36,-98.27C137.28,-99.76 156.85,-99.96 172.35,-98.9"/>
<polygon fill="red" stroke="red" stroke-width="2" points="170.77,-101.14 176.57,-98.53 170.41,-96.96 170.77,-101.14"/>
<polygon fill="#ffffff" fill-opacity="0.800000" stroke="none" points="166.33,-102.27 166.33,-117.52 175.58,-117.52 175.58,-102.27 166.33,-102.27"/>
<text text-anchor="start" x="168.33" y="-106.97" font-family="monospace" font-size="9.00">1</text>
</g>
<!-- 1&#45;&gt;0 -->
<g id="edge1" class="edge">
<title>1&#45;&gt;0</title>
<path fill="none" stroke="black" stroke-dasharray="5,2" d="M179.53,-87.36C165.62,-85.88 146.04,-85.67 130.55,-86.74"/>
<polygon fill="black" stroke="black" points="130.62,-84.62 124.82,-87.23 130.98,-88.81 130.62,-84.62"/>
</g>
<!-- 2 -->
<g id="node4" class="node">
<title>2</title>
<ellipse fill="none" stroke="red" stroke-width="2" cx="258.41" cy="-18" rx="18" ry="18"/>
<text text-anchor="start" x="254.28" y="-13.32" font-family="monospace" font-size="14.00">2</text>
</g>
<!-- 1&#45;&gt;2 -->
<g id="edge7" class="edge">
<title>1&#45;&gt;2</title>
<path fill="none" stroke="red" stroke-width="2" d="M212.22,-82.81C223.11,-72.12 237.37,-55.05 247.26,-41.07"/>
<polygon fill="red" stroke="red" stroke-width="2" points="248.12,-43.53 249.77,-37.39 244.65,-41.17 248.12,-43.53"/>
<polygon fill="#ffffff" fill-opacity="0.800000" stroke="none" points="235.22,-41.89 235.22,-57.14 244.47,-57.14 244.47,-41.89 235.22,-41.89"/>
<text text-anchor="start" x="237.22" y="-46.59" font-family="monospace" font-size="9.00">1</text>
</g>
<!-- 6 -->
<g id="node7" class="node">
<title>6</title>
<ellipse fill="none" stroke="red" stroke-width="2" cx="258.4" cy="-167.63" rx="18" ry="18"/>
<text text-anchor="start" x="254.28" y="-162.95" font-family="monospace" font-size="14.00">6</text>
</g>
<!-- 1&#45;&gt;6 -->
<g id="edge8" class="edge">
<title>1&#45;&gt;6</title>
<path fill="none" stroke="#bbbbbb" d="M208.67,-106.89C218.11,-118.41 231.57,-134.86 242.11,-147.73"/>
<polygon fill="#bbbbbb" stroke="#bbbbbb" points="240.34,-148.88 245.77,-152.19 243.59,-146.22 240.34,-148.88"/>
<polygon fill="#ffffff" fill-opacity="0.800000" stroke="none" points="230.48,-131.12 230.48,-146.37 239.73,-146.37 239.73,-131.12 230.48,-131.12"/>
<text text-anchor="start" x="232.48" y="-135.82" font-family="monospace" font-size="9.00" fill="#bbbbbb">6</text>
</g>
<!-- 2&#45;&gt;1 -->
<g id="edge2" class="edge">
<title>2&#45;&gt;1</title>
<path fill="none" stroke="black" stroke-dasharray="5,2" d="M243.34,-28.01C232.45,-38.7 218.19,-55.77 208.3,-69.75"/>
<polygon fill="black" stroke="black" points="206.59,-68.53 204.94,-74.68 210.06,-70.9 206.59,-68.53"/>
</g>
<!-- 4 -->
<g id="node5" class="node">
<title>4</title>
<ellipse fill="none" stroke="red" stroke-width="2" cx="349.26" cy="-45.64" rx="18" ry="18"/>
<text text-anchor="start" x="345.13" y="-40.96" font-family="monospace" font-size="14.00">4</text>
</g>
<!-- 2&#45;&gt;4 -->
<g id="edge9" class="edge">
<title>2&#45;&gt;4</title>
<path fill="none" stroke="red" stroke-width="2" d="M273.51,-28.2C287.17,-34.02 307.54,-40.45 323.72,-44.16"/>
<polygon fill="red" stroke="red" stroke-width="2" points="321.56,-45.85 327.86,-45.03 322.43,-41.74 321.56,-45.85"/>
<polygon fill="#ffffff" fill-opacity="0.800000" stroke="none" points="317.57,-49.66 317.57,-64.91 326.82,-64.91 326.82,-49.66 317.57,-49.66"/>
<text text-anchor="start" x="319.57" y="-54.36" font-family="monospace" font-size="9.00">1</text>
</g>
<!-- 4&#45;&gt;2 -->
<g id="edge3" class="edge">
<title>4&#45;&gt;2</title>
<path fill="none" stroke="black" stroke-dasharray="5,2" d="M334.15,-35.43C320.49,-29.61 300.12,-23.19 283.94,-19.48"/>
<polygon fill="black" stroke="black" points="284.62,-17.48 278.32,-18.29 283.76,-21.59 284.62,-17.48"/>
</g>
<!-- 5 -->
<g id="node6" class="node">
<title>5</title>
<ellipse fill="none" stroke="red" stroke-width="2" cx="349.26" cy="-139.99" rx="18" ry="18"/>
<text text-anchor="start" x="345.13" y="-135.32" font-family="monospace" font-size="14.00">5</text>
</g>
<!-- 4&#45;&gt;5 -->
<g id="edge11" class="edge">
<title>4&#45;&gt;5</title>
<path fill="none" stroke="red" stroke-width="2" d="M343.89,-62.94C342.3,-77.61 342.08,-98.83 343.24,-115.29"/>
<polygon fill="red" stroke="red" stroke-width="2" points="340.99,-113.67 343.61,-119.46 345.17,-113.3 340.99,-113.67"/>
<polygon fill="#ffffff" fill-opacity="0.800000" stroke="none" points="330.62,-103.23 330.62,-118.48 339.87,-118.48 339.87,-103.23 330.62,-103.23"/>
<text text-anchor="start" x="332.62" y="-107.93" font-family="monospace" font-size="9.00">2</text>
</g>
<!-- 5&#45;&gt;4 -->
<g id="edge4" class="edge">
<title>5&#45;&gt;4</title>
<path fill="none" stroke="black" stroke-dasharray="5,2" d="M354.62,-122.69C356.22,-108.02 356.43,-86.8 355.27,-70.34"/>
<polygon fill="black" stroke="black" points="357.39,-70.45 354.78,-64.66 353.21,-70.82 357.39,-70.45"/>
</g>
<!-- 5&#45;&gt;6 -->
<g id="edge12" class="edge">
<title>5&#45;&gt;6</title>
<path fill="none" stroke="red" stroke-width="2" d="M331.03,-139.93C316.44,-142.7 295.95,-148.71 280.44,-154.64"/>
<polygon fill="red" stroke="red" stroke-width="2" points="281.29,-152.03 276.51,-156.22 282.86,-155.93 281.29,-152.03"/>
<polygon fill="#ffffff" fill-opacity="0.800000" stroke="none" points="280.7,-135.09 280.7,-150.34 289.95,-150.34 289.95,-135.09 280.7,-135.09"/>
<text text-anchor="start" x="282.7" y="-139.79" font-family="monospace" font-size="9.00">1</text>
</g>
<!-- 6&#45;&gt;5 -->
<g id="edge5" class="edge">
<title>6&#45;&gt;5</title>
<path fill="none" stroke="black" stroke-dasharray="5,2" d="M276.63,-167.69C291.22,-164.92 311.71,-158.92 327.22,-152.99"/>
<polygon fill="black" stroke="black" points="327.77,-155.03 332.55,-150.84 326.2,-151.13 327.77,-155.03"/>
</g>
</g>
</svg>
