<?xml version="1.0" encoding="UTF-8" standalone="no"?>
<!DOCTYPE svg PUBLIC "-//W3C//DTD SVG 1.1//EN"
 "http://www.w3.org/Graphics/SVG/1.1/DTD/svg11.dtd">
<!-- Generated by graphviz version 12.0.0 (20240704.0754)
 -->
<!-- Pages: 1 -->
<svg width="288pt" height="614pt"
 viewBox="0.00 0.00 288.05 614.20" xmlns="http://www.w3.org/2000/svg" xmlns:xlink="http://www.w3.org/1999/xlink">
<g id="graph0" class="graph" transform="scale(1 1) rotate(0) translate(14.4 599.8)">
<polygon fill="white" stroke="none" points="-14.4,14.4 -14.4,-599.8 273.65,-599.8 273.65,14.4 -14.4,14.4"/>
<!-- 0 -->
<g id="node1" class="node">
<title>0</title>
<ellipse fill="none" stroke="black" stroke-width="2" cx="122" cy="-554.8" rx="30.6" ry="30.6"/>
<text text-anchor="start" x="117.88" y="-550.13" font-family="monospace" font-size="14.00">0</text>
</g>
<!-- 1 -->
<g id="node2" class="node">
<title>1</title>
<ellipse fill="none" stroke="black" stroke-width="2" cx="122" cy="-458.35" rx="30.6" ry="30.6"/>
<text text-anchor="start" x="117.88" y="-453.68" font-family="monospace" font-size="14.00">1</text>
</g>
<!-- 0&#45;&gt;1 -->
<g id="edge1" class="edge">
<title>0&#45;&gt;1</title>
<path fill="none" stroke="black" d="M108.11,-527.17C106.73,-523.57 105.55,-519.85 104.75,-516.2 102.92,-507.84 102.92,-505.31 104.75,-496.95 105.05,-495.58 105.4,-494.2 105.8,-492.83"/>
<polygon fill="black" stroke="black" points="107.7,-493.77 107.63,-487.41 103.72,-492.42 107.7,-493.77"/>
<text text-anchor="start" x="108" y="-503.65" font-family="monospace" font-size="9.00">5</text>
</g>
<!-- 2 -->
<g id="node3" class="node">
<title>2</title>
<ellipse fill="none" stroke="black" stroke-width="2" cx="63" cy="-127.05" rx="30.6" ry="30.6"/>
<text text-anchor="start" x="58.88" y="-122.37" font-family="monospace" font-size="14.00">2</text>
</g>
<!-- 0&#45;&gt;2 -->
<g id="edge2" class="edge">
<title>0&#45;&gt;2</title>
<path fill="none" stroke="black" d="M92.47,-545.28C56.36,-532.84 0,-505.96 0,-459.35 0,-459.35 0,-459.35 0,-264.45 0,-224.85 22.16,-184.24 40.19,-157.75"/>
<polygon fill="black" stroke="black" points="41.87,-159.03 43.57,-152.9 38.42,-156.63 41.87,-159.03"/>
<text text-anchor="start" x="4" y="-358.97" font-family="monospace" font-size="9.00">3</text>
</g>
<!-- 3 -->
<g id="node4" class="node">
<title>3</title>
<ellipse fill="none" stroke="black" stroke-width="2" cx="187" cy="-361.9" rx="30.6" ry="30.6"/>
<text text-anchor="start" x="182.88" y="-357.22" font-family="monospace" font-size="14.00">3</text>
</g>
<!-- 0&#45;&gt;3 -->
<g id="edge3" class="edge">
<title>0&#45;&gt;3</title>
<path fill="none" stroke="black" d="M139.77,-529.64C147.65,-517.89 156.39,-503.23 162,-488.95 173.28,-460.22 179.67,-425.73 183.16,-400.1"/>
<polygon fill="black" stroke="black" points="185.23,-400.5 183.92,-394.28 181.06,-399.96 185.23,-400.5"/>
<text text-anchor="start" x="182" y="-455.43" font-family="monospace" font-size="9.00">2</text>
</g>
<!-- 4 -->
<g id="node5" class="node">
<title>4</title>
<ellipse fill="none" stroke="black" stroke-width="2" cx="61" cy="-265.45" rx="30.6" ry="30.6"/>
<text text-anchor="start" x="56.88" y="-260.77" font-family="monospace" font-size="14.00">4</text>
</g>
<!-- 0&#45;&gt;4 -->
<g id="edge4" class="edge">
<title>0&#45;&gt;4</title>
<path fill="none" stroke="black" d="M103.57,-529.88C95.55,-518.18 86.88,-503.5 82,-488.95 61.08,-426.53 58.66,-349.1 59.42,-303.99"/>
<polygon fill="black" stroke="black" points="61.52,-304.05 59.54,-298 57.32,-303.96 61.52,-304.05"/>
<text text-anchor="start" x="69" y="-407.2" font-family="monospace" font-size="9.00">4</text>
</g>
<!-- 1&#45;&gt;0 -->
<g id="edge5" class="edge">
<title>1&#45;&gt;0</title>
<path fill="none" stroke="black" d="M122,-489.36C122,-497.99 122,-507.5 122,-516.5"/>
<polygon fill="black" stroke="black" points="119.9,-516.4 122,-522.4 124.1,-516.4 119.9,-516.4"/>
<text text-anchor="start" x="126" y="-503.65" font-family="monospace" font-size="9.00">3</text>
</g>
<!-- 1&#45;&gt;3 -->
<g id="edge6" class="edge">
<title>1&#45;&gt;3</title>
<path fill="none" stroke="black" d="M139.08,-432.53C147.29,-420.6 157.21,-406.19 165.89,-393.58"/>
<polygon fill="black" stroke="black" points="167.51,-394.93 169.18,-388.8 164.05,-392.55 167.51,-394.93"/>
<text text-anchor="start" x="164" y="-407.2" font-family="monospace" font-size="9.00">1</text>
</g>
<!-- 1&#45;&gt;4 -->
<g id="edge7" class="edge">
<title>1&#45;&gt;4</title>
<path fill="none" stroke="black" d="M112.62,-428.96C108.9,-417.63 104.59,-404.46 100.75,-392.5 90.93,-361.95 79.97,-327.16 72.06,-301.88"/>
<polygon fill="black" stroke="black" points="74.16,-301.56 70.36,-296.46 70.15,-302.81 74.16,-301.56"/>
<text text-anchor="start" x="104" y="-358.97" font-family="monospace" font-size="9.00">2</text>
</g>
<!-- 6 -->
<g id="node7" class="node">
<title>6</title>
<ellipse fill="none" stroke="black" stroke-width="2" cx="128" cy="-30.6" rx="30.6" ry="30.6"/>
<text text-anchor="start" x="123.88" y="-25.92" font-family="monospace" font-size="14.00">6</text>
</g>
<!-- 2&#45;&gt;6 -->
<g id="edge8" class="edge">
<title>2&#45;&gt;6</title>
<path fill="none" stroke="black" d="M79.51,-100.71C86.03,-90.82 93.66,-79.42 100.75,-69.2 102.46,-66.74 104.24,-64.2 106.05,-61.66"/>
<polygon fill="black" stroke="black" points="107.6,-63.1 109.38,-57 104.18,-60.66 107.6,-63.1"/>
<text text-anchor="start" x="104" y="-75.9" font-family="monospace" font-size="9.00">4</text>
</g>
<!-- 3&#45;&gt;4 -->
<g id="edge9" class="edge">
<title>3&#45;&gt;4</title>
<path fill="none" stroke="black" d="M162.71,-342.69C142.31,-327.4 113.08,-305.49 91.19,-289.08"/>
<polygon fill="black" stroke="black" points="92.49,-287.43 86.43,-285.51 89.97,-290.79 92.49,-287.43"/>
<text text-anchor="start" x="139" y="-310.75" font-family="monospace" font-size="9.00">1</text>
</g>
<!-- 5 -->
<g id="node6" class="node">
<title>5</title>
<ellipse fill="none" stroke="black" stroke-width="2" cx="191" cy="-196.25" rx="30.6" ry="30.6"/>
<text text-anchor="start" x="186.88" y="-191.57" font-family="monospace" font-size="14.00">5</text>
</g>
<!-- 3&#45;&gt;5 -->
<g id="edge10" class="edge">
<title>3&#45;&gt;5</title>
<path fill="none" stroke="black" d="M187.73,-330.88C188.4,-303.66 189.38,-263.45 190.1,-234.25"/>
<polygon fill="black" stroke="black" points="192.19,-234.64 190.23,-228.59 187.99,-234.54 192.19,-234.64"/>
<text text-anchor="start" x="192" y="-310.75" font-family="monospace" font-size="9.00">1</text>
</g>
<!-- 4&#45;&gt;2 -->
<g id="edge11" class="edge">
<title>4&#45;&gt;2</title>
<path fill="none" stroke="black" d="M61.44,-234.52C61.74,-214.17 62.13,-187.11 62.45,-165.36"/>
<polygon fill="black" stroke="black" points="64.55,-165.46 62.54,-159.43 60.35,-165.4 64.55,-165.46"/>
<text text-anchor="start" x="66" y="-193.32" font-family="monospace" font-size="9.00">3</text>
</g>
<!-- 5&#45;&gt;6 -->
<g id="edge12" class="edge">
<title>5&#45;&gt;6</title>
<path fill="none" stroke="black" d="M180.17,-167.12C169.45,-139.28 153.03,-96.61 141.47,-66.6"/>
<polygon fill="black" stroke="black" points="143.45,-65.9 139.34,-61.05 139.53,-67.41 143.45,-65.9"/>
<text text-anchor="start" x="180" y="-124.12" font-family="monospace" font-size="9.00">1</text>
</g>
<!-- 6&#45;&gt;0 -->
<g id="edge13" class="edge">
<title>6&#45;&gt;0</title>
<path fill="none" stroke="black" d="M157.17,-40.63C192.11,-53.48 246,-80.65 246,-126.05 246,-459.35 246,-459.35 246,-459.35 246,-503.93 194.65,-530.25 158.04,-543.35"/>
<polygon fill="black" stroke="black" points="157.8,-541.2 152.82,-545.15 159.17,-545.18 157.8,-541.2"/>
<text text-anchor="start" x="250" y="-310.75" font-family="monospace" font-size="9.00">9</text>
</g>
<!-- 6&#45;&gt;1 -->
<g id="edge14" class="edge">
<title>6&#45;&gt;1</title>
<path fill="none" stroke="black" d="M128,-61.38C128,-79.97 128,-104.41 128,-126.05 128,-362.9 128,-362.9 128,-362.9 128,-381.88 126.78,-402.96 125.44,-420.38"/>
<polygon fill="black" stroke="black" points="123.37,-419.95 124.98,-426.09 127.55,-420.28 123.37,-419.95"/>
<text text-anchor="start" x="132" y="-262.52" font-family="monospace" font-size="9.00">8</text>
</g>
<!-- 6&#45;&gt;2 -->
<g id="edge15" class="edge">
<title>6&#45;&gt;2</title>
<path fill="none" stroke="black" d="M99.89,-43.71C89.07,-49.79 77.66,-58.24 70.75,-69.2 67.08,-75.02 64.83,-81.83 63.49,-88.68"/>
<polygon fill="black" stroke="black" points="61.42,-88.34 62.61,-94.58 65.58,-88.96 61.42,-88.34"/>
<text text-anchor="start" x="74" y="-75.9" font-family="monospace" font-size="9.00">5</text>
</g>
</g>
</svg>
