<?xml version="1.0" encoding="UTF-8" standalone="no"?>
<!DOCTYPE svg PUBLIC "-//W3C//DTD SVG 1.1//EN"
 "http://www.w3.org/Graphics/SVG/1.1/DTD/svg11.dtd">
<!-- Generated by graphviz version 12.0.0 (20240704.0754)
 -->
<!-- Pages: 1 -->
<svg width="265pt" height="422pt"
 viewBox="0.00 0.00 265.05 421.80" xmlns="http://www.w3.org/2000/svg" xmlns:xlink="http://www.w3.org/1999/xlink">
<g id="graph0" class="graph" transform="scale(1 1) rotate(0) translate(14.4 407.4)">
<polygon fill="white" stroke="none" points="-14.4,14.4 -14.4,-407.4 250.65,-407.4 250.65,14.4 -14.4,14.4"/>
<!-- 0 -->
<g id="node1" class="node">
<title>0</title>
<ellipse fill="none" stroke="black" stroke-width="2" cx="124" cy="-375" rx="18" ry="18"/>
<text text-anchor="start" x="119.88" y="-370.32" font-family="monospace" font-size="14.00">0</text>
</g>
<!-- 1 -->
<g id="node2" class="node">
<title>1</title>
<ellipse fill="none" stroke="black" stroke-width="2" cx="124" cy="-307.75" rx="18" ry="18"/>
<text text-anchor="start" x="119.88" y="-303.07" font-family="monospace" font-size="14.00">1</text>
</g>
<!-- 0&#45;&gt;1 -->
<g id="edge1" class="edge">
<title>0&#45;&gt;1</title>
<path fill="none" stroke="black" d="M113.53,-359.82C111.56,-356.43 109.8,-352.72 108.75,-349 106.92,-342.47 106.92,-340.28 108.75,-333.75 109.14,-332.36 109.64,-330.96 110.2,-329.58"/>
<polygon fill="black" stroke="black" points="112.05,-330.59 112.86,-324.28 108.29,-328.71 112.05,-330.59"/>
<text text-anchor="start" x="110" y="-338.45" font-family="monospace" font-size="9.00">5</text>
</g>
<!-- 2 -->
<g id="node3" class="node">
<title>2</title>
<ellipse fill="none" stroke="black" stroke-width="2" cx="68" cy="-85.25" rx="18" ry="18"/>
<text text-anchor="start" x="63.88" y="-80.58" font-family="monospace" font-size="14.00">2</text>
</g>
<!-- 0&#45;&gt;2 -->
<g id="edge2" class="edge">
<title>0&#45;&gt;2</title>
<path fill="none" stroke="black" d="M105.7,-372.68C71.21,-369.08 0,-355.94 0,-308.75 0,-308.75 0,-308.75 0,-172.25 0,-141.55 27,-115.39 46.97,-100.24"/>
<polygon fill="black" stroke="black" points="48.08,-102.03 51.69,-96.79 45.6,-98.64 48.08,-102.03"/>
<text text-anchor="start" x="4" y="-237.57" font-family="monospace" font-size="9.00">3</text>
</g>
<!-- 3 -->
<g id="node4" class="node">
<title>3</title>
<ellipse fill="none" stroke="black" stroke-width="2" cx="176" cy="-240.5" rx="18" ry="18"/>
<text text-anchor="start" x="171.88" y="-235.82" font-family="monospace" font-size="14.00">3</text>
</g>
<!-- 0&#45;&gt;3 -->
<g id="edge3" class="edge">
<title>0&#45;&gt;3</title>
<path fill="none" stroke="black" d="M133.15,-359.11C138.71,-349.74 145.72,-337.27 151,-325.75 159.66,-306.83 161.16,-301.72 167,-281.75 168.52,-276.55 169.93,-270.91 171.15,-265.55"/>
<polygon fill="black" stroke="black" points="173.15,-266.25 172.39,-259.94 169.05,-265.35 173.15,-266.25"/>
<text text-anchor="start" x="166" y="-304.82" font-family="monospace" font-size="9.00">2</text>
</g>
<!-- 4 -->
<g id="node5" class="node">
<title>4</title>
<ellipse fill="none" stroke="black" stroke-width="2" cx="69" cy="-173.25" rx="18" ry="18"/>
<text text-anchor="start" x="64.88" y="-168.57" font-family="monospace" font-size="14.00">4</text>
</g>
<!-- 0&#45;&gt;4 -->
<g id="edge4" class="edge">
<title>0&#45;&gt;4</title>
<path fill="none" stroke="black" d="M111.69,-361.56C108.48,-357.77 105.28,-353.43 103,-349 98.11,-339.51 99.5,-336.13 97,-325.75 85.17,-276.57 80.58,-264.51 73,-214.5 72.24,-209.46 71.58,-204.05 71.04,-198.87"/>
<polygon fill="black" stroke="black" points="73.15,-198.81 70.47,-193.04 68.97,-199.22 73.15,-198.81"/>
<text text-anchor="start" x="87" y="-271.2" font-family="monospace" font-size="9.00">4</text>
</g>
<!-- 1&#45;&gt;0 -->
<g id="edge5" class="edge">
<title>1&#45;&gt;0</title>
<path fill="none" stroke="black" d="M124,-325.83C124,-332.92 124,-341.28 124,-349.04"/>
<polygon fill="black" stroke="black" points="121.9,-349 124,-355 126.1,-349 121.9,-349"/>
<text text-anchor="start" x="126" y="-338.45" font-family="monospace" font-size="9.00">3</text>
</g>
<!-- 1&#45;&gt;3 -->
<g id="edge6" class="edge">
<title>1&#45;&gt;3</title>
<path fill="none" stroke="black" d="M135.03,-292.91C142.4,-283.66 152.22,-271.34 160.4,-261.08"/>
<polygon fill="black" stroke="black" points="161.95,-262.5 164.04,-256.5 158.66,-259.88 161.95,-262.5"/>
<text text-anchor="start" x="156" y="-271.2" font-family="monospace" font-size="9.00">1</text>
</g>
<!-- 1&#45;&gt;4 -->
<g id="edge7" class="edge">
<title>1&#45;&gt;4</title>
<path fill="none" stroke="black" d="M115.09,-291.58C113.32,-288.38 111.54,-284.98 110,-281.75 96.57,-253.56 84.25,-219.71 76.7,-197.63"/>
<polygon fill="black" stroke="black" points="78.72,-197.06 74.81,-192.05 74.74,-198.4 78.72,-197.06"/>
<text text-anchor="start" x="101" y="-237.57" font-family="monospace" font-size="9.00">2</text>
</g>
<!-- 6 -->
<g id="node7" class="node">
<title>6</title>
<ellipse fill="none" stroke="black" stroke-width="2" cx="124" cy="-18" rx="18" ry="18"/>
<text text-anchor="start" x="119.88" y="-13.32" font-family="monospace" font-size="14.00">6</text>
</g>
<!-- 2&#45;&gt;6 -->
<g id="edge8" class="edge">
<title>2&#45;&gt;6</title>
<path fill="none" stroke="black" d="M78.7,-70.65C84.99,-62.76 93.18,-52.7 100.75,-44 102.72,-41.74 104.82,-39.39 106.92,-37.08"/>
<polygon fill="black" stroke="black" points="108.22,-38.77 110.74,-32.94 105.13,-35.93 108.22,-38.77"/>
<text text-anchor="start" x="102" y="-48.7" font-family="monospace" font-size="9.00">4</text>
</g>
<!-- 3&#45;&gt;4 -->
<g id="edge9" class="edge">
<title>3&#45;&gt;4</title>
<path fill="none" stroke="black" d="M160.67,-230.15C142.32,-218.96 111.45,-200.14 90.67,-187.46"/>
<polygon fill="black" stroke="black" points="91.81,-185.7 85.59,-184.37 89.62,-189.29 91.81,-185.7"/>
<text text-anchor="start" x="134" y="-203.95" font-family="monospace" font-size="9.00">1</text>
</g>
<!-- 5 -->
<g id="node6" class="node">
<title>5</title>
<ellipse fill="none" stroke="black" stroke-width="2" cx="180" cy="-129.25" rx="18" ry="18"/>
<text text-anchor="start" x="175.88" y="-124.58" font-family="monospace" font-size="14.00">5</text>
</g>
<!-- 3&#45;&gt;5 -->
<g id="edge10" class="edge">
<title>3&#45;&gt;5</title>
<path fill="none" stroke="black" d="M176.62,-222.43C177.29,-204.34 178.34,-175.59 179.09,-155.01"/>
<polygon fill="black" stroke="black" points="181.19,-155.15 179.31,-149.07 176.99,-154.99 181.19,-155.15"/>
<text text-anchor="start" x="179" y="-203.95" font-family="monospace" font-size="9.00">1</text>
</g>
<!-- 4&#45;&gt;2 -->
<g id="edge11" class="edge">
<title>4&#45;&gt;2</title>
<path fill="none" stroke="black" d="M68.8,-154.85C68.65,-142.26 68.45,-125.07 68.29,-111.04"/>
<polygon fill="black" stroke="black" points="70.39,-111.12 68.22,-105.14 66.19,-111.16 70.39,-111.12"/>
<text text-anchor="start" x="70" y="-126.33" font-family="monospace" font-size="9.00">3</text>
</g>
<!-- 5&#45;&gt;6 -->
<g id="edge12" class="edge">
<title>5&#45;&gt;6</title>
<path fill="none" stroke="black" d="M172.48,-112.61C164.24,-95.61 150.53,-67.69 138,-44 137.42,-42.91 136.83,-41.8 136.22,-40.68"/>
<polygon fill="black" stroke="black" points="138.16,-39.85 133.43,-35.6 134.48,-41.87 138.16,-39.85"/>
<text text-anchor="start" x="169" y="-82.33" font-family="monospace" font-size="9.00">1</text>
</g>
<!-- 6&#45;&gt;0 -->
<g id="edge13" class="edge">
<title>6&#45;&gt;0</title>
<path fill="none" stroke="black" d="M141.94,-21.94C171.45,-27.92 227,-44.45 227,-84.25 227,-308.75 227,-308.75 227,-308.75 227,-345.59 179.39,-362.5 148.91,-369.55"/>
<polygon fill="black" stroke="black" points="148.84,-367.41 143.42,-370.74 149.73,-371.52 148.84,-367.41"/>
<text text-anchor="start" x="229" y="-203.95" font-family="monospace" font-size="9.00">9</text>
</g>
<!-- 6&#45;&gt;1 -->
<g id="edge14" class="edge">
<title>6&#45;&gt;1</title>
<path fill="none" stroke="black" d="M124,-36.45C124,-49.59 124,-68.05 124,-84.25 124,-241.5 124,-241.5 124,-241.5 124,-254.91 124,-269.88 124,-282.09"/>
<polygon fill="black" stroke="black" points="121.9,-281.79 124,-287.79 126.1,-281.79 121.9,-281.79"/>
<text text-anchor="start" x="126" y="-170.32" font-family="monospace" font-size="9.00">8</text>
</g>
<!-- 6&#45;&gt;2 -->
<g id="edge15" class="edge">
<title>6&#45;&gt;2</title>
<path fill="none" stroke="black" d="M106.77,-23.4C95.89,-27.09 82.47,-33.49 74.75,-44 71.46,-48.48 69.55,-53.98 68.49,-59.47"/>
<polygon fill="black" stroke="black" points="66.42,-59.12 67.71,-65.34 70.58,-59.67 66.42,-59.12"/>
<text text-anchor="start" x="76" y="-48.7" font-family="monospace" font-size="9.00">5</text>
</g>
</g>
</svg>
