<?xml version="1.0" encoding="UTF-8" standalone="no"?>
<!DOCTYPE svg PUBLIC "-//W3C//DTD SVG 1.1//EN"
 "http://www.w3.org/Graphics/SVG/1.1/DTD/svg11.dtd">
<!-- Generated by graphviz version 12.0.0 (20240704.0754)
 -->
<!-- Pages: 1 -->
<svg width="277pt" height="438pt"
 viewBox="0.00 0.00 277.05 437.80" xmlns="http://www.w3.org/2000/svg" xmlns:xlink="http://www.w3.org/1999/xlink">
<g id="graph0" class="graph" transform="scale(1 1) rotate(0) translate(14.4 423.4)">
<polygon fill="white" stroke="none" points="-14.4,14.4 -14.4,-423.4 262.65,-423.4 262.65,14.4 -14.4,14.4"/>
<!-- 0 -->
<g id="node1" class="node">
<title>0</title>
<ellipse fill="none" stroke="black" stroke-width="2" cx="126" cy="-391" rx="18" ry="18"/>
<text text-anchor="start" x="121.88" y="-386.32" font-family="monospace" font-size="14.00">0</text>
</g>
<!-- 1 -->
<g id="node2" class="node">
<title>1</title>
<ellipse fill="none" stroke="black" stroke-width="2" cx="128" cy="-319.75" rx="18" ry="18"/>
<text text-anchor="start" x="123.88" y="-315.07" font-family="monospace" font-size="14.00">1</text>
</g>
<!-- 0&#45;&gt;1 -->
<g id="edge1" class="edge">
<title>0&#45;&gt;1</title>
<path fill="none" stroke="black" d="M114.53,-376.51C112.16,-372.98 110,-369.03 108.75,-365 106.21,-356.83 105.99,-353.85 108.75,-345.75 109.51,-343.52 110.56,-341.33 111.77,-339.24"/>
<polygon fill="black" stroke="black" points="113.34,-340.68 114.97,-334.53 109.86,-338.32 113.34,-340.68"/>
<text text-anchor="start" x="112" y="-352.45" font-family="monospace" font-size="9.00">5</text>
</g>
<!-- 2 -->
<g id="node3" class="node">
<title>2</title>
<ellipse fill="none" stroke="black" stroke-width="2" cx="69" cy="-89.25" rx="18" ry="18"/>
<text text-anchor="start" x="64.88" y="-84.58" font-family="monospace" font-size="14.00">2</text>
</g>
<!-- 0&#45;&gt;2 -->
<g id="edge2" class="edge">
<title>0&#45;&gt;2</title>
<path fill="none" stroke="black" d="M107.95,-388.37C73.11,-384.13 0,-369.42 0,-320.75 0,-320.75 0,-320.75 0,-176.25 0,-145.2 27.71,-118.97 48,-103.92"/>
<polygon fill="black" stroke="black" points="49.14,-105.69 52.8,-100.49 46.69,-102.27 49.14,-105.69"/>
<text text-anchor="start" x="4" y="-245.57" font-family="monospace" font-size="9.00">3</text>
</g>
<!-- 3 -->
<g id="node4" class="node">
<title>3</title>
<ellipse fill="none" stroke="black" stroke-width="2" cx="182" cy="-248.5" rx="18" ry="18"/>
<text text-anchor="start" x="177.88" y="-243.82" font-family="monospace" font-size="14.00">3</text>
</g>
<!-- 0&#45;&gt;3 -->
<g id="edge3" class="edge">
<title>0&#45;&gt;3</title>
<path fill="none" stroke="black" d="M136.83,-376.07C139.33,-372.55 141.88,-368.72 144,-365 161.08,-334.98 165.34,-326.9 175,-293.75 176.85,-287.42 178.24,-280.42 179.27,-273.9"/>
<polygon fill="black" stroke="black" points="181.34,-274.27 180.11,-268.03 177.18,-273.67 181.34,-274.27"/>
<text text-anchor="start" x="176" y="-316.82" font-family="monospace" font-size="9.00">2</text>
</g>
<!-- 4 -->
<g id="node5" class="node">
<title>4</title>
<ellipse fill="none" stroke="black" stroke-width="2" cx="72" cy="-177.25" rx="18" ry="18"/>
<text text-anchor="start" x="67.88" y="-172.57" font-family="monospace" font-size="14.00">4</text>
</g>
<!-- 0&#45;&gt;4 -->
<g id="edge4" class="edge">
<title>0&#45;&gt;4</title>
<path fill="none" stroke="black" d="M112.52,-378.64C108.59,-374.69 104.65,-370 102,-365 74.05,-312.33 70.66,-240.42 71.05,-203.06"/>
<polygon fill="black" stroke="black" points="73.14,-203.19 71.15,-197.15 68.94,-203.11 73.14,-203.19"/>
<text text-anchor="start" x="82" y="-281.2" font-family="monospace" font-size="9.00">4</text>
</g>
<!-- 1&#45;&gt;0 -->
<g id="edge5" class="edge">
<title>1&#45;&gt;0</title>
<path fill="none" stroke="black" d="M127.5,-337.98C127.26,-346.21 126.98,-356.21 126.72,-365.23"/>
<polygon fill="black" stroke="black" points="124.62,-364.95 126.55,-371.01 128.82,-365.08 124.62,-364.95"/>
<text text-anchor="start" x="131" y="-352.45" font-family="monospace" font-size="9.00">3</text>
</g>
<!-- 1&#45;&gt;3 -->
<g id="edge6" class="edge">
<title>1&#45;&gt;3</title>
<path fill="none" stroke="black" d="M138.54,-304.72C145.14,-295.98 153.87,-284.53 161.75,-274.5 163.2,-272.66 164.72,-270.74 166.25,-268.84"/>
<polygon fill="black" stroke="black" points="167.71,-270.37 169.84,-264.38 164.44,-267.73 167.71,-270.37"/>
<text text-anchor="start" x="165" y="-281.2" font-family="monospace" font-size="9.00">1</text>
</g>
<!-- 1&#45;&gt;4 -->
<g id="edge7" class="edge">
<title>1&#45;&gt;4</title>
<path fill="none" stroke="black" d="M119.27,-303.49C117.49,-300.29 115.66,-296.92 114,-293.75 107.76,-281.81 105.79,-278.99 100.75,-266.5 92.07,-245 84.06,-219.79 78.72,-201.83"/>
<polygon fill="black" stroke="black" points="80.87,-201.7 77.16,-196.54 76.84,-202.89 80.87,-201.7"/>
<text text-anchor="start" x="104" y="-245.57" font-family="monospace" font-size="9.00">2</text>
</g>
<!-- 6 -->
<g id="node7" class="node">
<title>6</title>
<ellipse fill="none" stroke="black" stroke-width="2" cx="128" cy="-18" rx="18" ry="18"/>
<text text-anchor="start" x="123.88" y="-13.32" font-family="monospace" font-size="14.00">6</text>
</g>
<!-- 2&#45;&gt;6 -->
<g id="edge8" class="edge">
<title>2&#45;&gt;6</title>
<path fill="none" stroke="black" d="M78.3,-73.73C84.29,-64.81 92.47,-53.34 100.75,-44 103.36,-41.06 106.28,-38.09 109.21,-35.28"/>
<polygon fill="black" stroke="black" points="110.36,-37.08 113.33,-31.46 107.51,-34 110.36,-37.08"/>
<text text-anchor="start" x="104" y="-50.7" font-family="monospace" font-size="9.00">4</text>
</g>
<!-- 3&#45;&gt;4 -->
<g id="edge9" class="edge">
<title>3&#45;&gt;4</title>
<path fill="none" stroke="black" d="M167.16,-238.16C148.14,-226.18 115.01,-205.33 93.3,-191.66"/>
<polygon fill="black" stroke="black" points="94.43,-189.89 88.23,-188.47 92.19,-193.44 94.43,-189.89"/>
<text text-anchor="start" x="144" y="-209.95" font-family="monospace" font-size="9.00">1</text>
</g>
<!-- 5 -->
<g id="node6" class="node">
<title>5</title>
<ellipse fill="none" stroke="black" stroke-width="2" cx="191" cy="-133.25" rx="18" ry="18"/>
<text text-anchor="start" x="186.88" y="-128.57" font-family="monospace" font-size="14.00">5</text>
</g>
<!-- 3&#45;&gt;5 -->
<g id="edge10" class="edge">
<title>3&#45;&gt;5</title>
<path fill="none" stroke="black" d="M183.37,-230.3C184.88,-211.26 187.33,-180.41 189.05,-158.83"/>
<polygon fill="black" stroke="black" points="191.12,-159.27 189.5,-153.12 186.93,-158.94 191.12,-159.27"/>
<text text-anchor="start" x="189" y="-209.95" font-family="monospace" font-size="9.00">1</text>
</g>
<!-- 4&#45;&gt;2 -->
<g id="edge11" class="edge">
<title>4&#45;&gt;2</title>
<path fill="none" stroke="black" d="M71.39,-158.85C70.95,-146.26 70.35,-129.07 69.86,-115.04"/>
<polygon fill="black" stroke="black" points="71.97,-115.06 69.66,-109.14 67.77,-115.21 71.97,-115.06"/>
<text text-anchor="start" x="75" y="-130.32" font-family="monospace" font-size="9.00">3</text>
</g>
<!-- 5&#45;&gt;6 -->
<g id="edge12" class="edge">
<title>5&#45;&gt;6</title>
<path fill="none" stroke="black" d="M182.52,-116.94C172.76,-99.33 156.25,-69.56 142,-44 141.4,-42.92 140.79,-41.82 140.16,-40.71"/>
<polygon fill="black" stroke="black" points="142.1,-39.86 137.34,-35.65 138.43,-41.91 142.1,-39.86"/>
<text text-anchor="start" x="181" y="-86.33" font-family="monospace" font-size="9.00">1</text>
</g>
<!-- 6&#45;&gt;0 -->
<g id="edge13" class="edge">
<title>6&#45;&gt;0</title>
<path fill="none" stroke="black" d="M145.67,-22.05C176.06,-28.43 235,-46.21 235,-88.25 235,-320.75 235,-320.75 235,-320.75 235,-360.19 183.54,-378.12 151.34,-385.49"/>
<polygon fill="black" stroke="black" points="150.91,-383.43 145.48,-386.74 151.79,-387.54 150.91,-383.43"/>
<text text-anchor="start" x="239" y="-209.95" font-family="monospace" font-size="9.00">9</text>
</g>
<!-- 6&#45;&gt;1 -->
<g id="edge14" class="edge">
<title>6&#45;&gt;1</title>
<path fill="none" stroke="black" d="M128,-36.36C128,-50.37 128,-70.58 128,-88.25 128,-249.5 128,-249.5 128,-249.5 128,-264.27 128,-280.82 128,-294.03"/>
<polygon fill="black" stroke="black" points="125.9,-293.88 128,-299.88 130.1,-293.88 125.9,-293.88"/>
<text text-anchor="start" x="132" y="-174.32" font-family="monospace" font-size="9.00">8</text>
</g>
<!-- 6&#45;&gt;2 -->
<g id="edge15" class="edge">
<title>6&#45;&gt;2</title>
<path fill="none" stroke="black" d="M109.85,-21.15C95.74,-23.88 77.06,-30.06 67.75,-44 63.86,-49.82 62.9,-57.1 63.27,-64.06"/>
<polygon fill="black" stroke="black" points="61.17,-64.19 63.95,-69.91 65.34,-63.7 61.17,-64.19"/>
<text text-anchor="start" x="71" y="-50.7" font-family="monospace" font-size="9.00">5</text>
</g>
</g>
</svg>
