<?xml version="1.0" encoding="UTF-8" standalone="no"?>
<!DOCTYPE svg PUBLIC "-//W3C//DTD SVG 1.1//EN"
 "http://www.w3.org/Graphics/SVG/1.1/DTD/svg11.dtd">
<!-- Generated by graphviz version 12.0.0 (20240704.0754)
 -->
<!-- Pages: 1 -->
<svg width="277pt" height="488pt"
 viewBox="0.00 0.00 277.05 488.20" xmlns="http://www.w3.org/2000/svg" xmlns:xlink="http://www.w3.org/1999/xlink">
<g id="graph0" class="graph" transform="scale(1 1) rotate(0) translate(14.4 473.8)">
<polygon fill="white" stroke="none" points="-14.4,14.4 -14.4,-473.8 262.65,-473.8 262.65,14.4 -14.4,14.4"/>
<!-- 0 -->
<g id="node1" class="node">
<title>0</title>
<ellipse fill="none" stroke="black" stroke-width="2" cx="126" cy="-437.8" rx="21.6" ry="21.6"/>
<text text-anchor="start" x="121.88" y="-433.13" font-family="monospace" font-size="14.00">0</text>
</g>
<!-- 1 -->
<g id="node2" class="node">
<title>1</title>
<ellipse fill="none" stroke="black" stroke-width="2" cx="128" cy="-359.35" rx="21.6" ry="21.6"/>
<text text-anchor="start" x="123.88" y="-354.68" font-family="monospace" font-size="14.00">1</text>
</g>
<!-- 0&#45;&gt;1 -->
<g id="edge1" class="edge">
<title>0&#45;&gt;1</title>
<path fill="none" stroke="black" d="M113.64,-419.64C111.62,-416.02 109.84,-412.11 108.75,-408.2 106.46,-399.96 106.25,-397.13 108.75,-388.95 109.36,-386.96 110.15,-384.99 111.07,-383.06"/>
<polygon fill="black" stroke="black" points="112.78,-384.32 113.87,-378.06 109.11,-382.28 112.78,-384.32"/>
<text text-anchor="start" x="112" y="-395.65" font-family="monospace" font-size="9.00">5</text>
</g>
<!-- 2 -->
<g id="node3" class="node">
<title>2</title>
<ellipse fill="none" stroke="black" stroke-width="2" cx="65" cy="-100.05" rx="21.6" ry="21.6"/>
<text text-anchor="start" x="60.88" y="-95.37" font-family="monospace" font-size="14.00">2</text>
</g>
<!-- 0&#45;&gt;2 -->
<g id="edge2" class="edge">
<title>0&#45;&gt;2</title>
<path fill="none" stroke="black" d="M104.34,-433.72C68.31,-427.23 0,-408.58 0,-360.35 0,-360.35 0,-360.35 0,-201.45 0,-168.8 24.52,-138.39 43.43,-119.78"/>
<polygon fill="black" stroke="black" points="44.61,-121.56 47.5,-115.89 41.71,-118.52 44.61,-121.56"/>
<text text-anchor="start" x="4" y="-277.97" font-family="monospace" font-size="9.00">3</text>
</g>
<!-- 3 -->
<g id="node4" class="node">
<title>3</title>
<ellipse fill="none" stroke="black" stroke-width="2" cx="182" cy="-280.9" rx="21.6" ry="21.6"/>
<text text-anchor="start" x="177.88" y="-276.22" font-family="monospace" font-size="14.00">3</text>
</g>
<!-- 0&#45;&gt;3 -->
<g id="edge3" class="edge">
<title>0&#45;&gt;3</title>
<path fill="none" stroke="black" d="M137.4,-419.05C139.62,-415.48 141.92,-411.74 144,-408.2 151.02,-396.29 153.58,-393.67 159,-380.95 168.35,-359.02 169.7,-352.99 175,-329.75 176.48,-323.26 177.71,-316.2 178.71,-309.54"/>
<polygon fill="black" stroke="black" points="180.73,-310.26 179.49,-304.02 176.57,-309.67 180.73,-310.26"/>
<text text-anchor="start" x="177" y="-356.43" font-family="monospace" font-size="9.00">2</text>
</g>
<!-- 4 -->
<g id="node5" class="node">
<title>4</title>
<ellipse fill="none" stroke="black" stroke-width="2" cx="69" cy="-202.45" rx="21.6" ry="21.6"/>
<text text-anchor="start" x="64.88" y="-197.77" font-family="monospace" font-size="14.00">4</text>
</g>
<!-- 0&#45;&gt;4 -->
<g id="edge4" class="edge">
<title>0&#45;&gt;4</title>
<path fill="none" stroke="black" d="M110.99,-421.77C107.59,-417.65 104.3,-412.99 102,-408.2 74.06,-349.94 69.08,-272.76 68.59,-231.81"/>
<polygon fill="black" stroke="black" points="70.69,-231.86 68.56,-225.87 66.49,-231.88 70.69,-231.86"/>
<text text-anchor="start" x="81" y="-317.2" font-family="monospace" font-size="9.00">4</text>
</g>
<!-- 1&#45;&gt;0 -->
<g id="edge5" class="edge">
<title>1&#45;&gt;0</title>
<path fill="none" stroke="black" d="M127.45,-381.22C127.23,-389.64 126.98,-399.49 126.74,-408.54"/>
<polygon fill="black" stroke="black" points="124.64,-408.34 126.59,-414.4 128.84,-408.45 124.64,-408.34"/>
<text text-anchor="start" x="131" y="-395.65" font-family="monospace" font-size="9.00">3</text>
</g>
<!-- 1&#45;&gt;3 -->
<g id="edge6" class="edge">
<title>1&#45;&gt;3</title>
<path fill="none" stroke="black" d="M140.18,-341.07C146.59,-331.97 154.59,-320.63 161.75,-310.5 162.97,-308.78 164.23,-307 165.5,-305.2"/>
<polygon fill="black" stroke="black" points="167.16,-306.48 168.91,-300.37 163.73,-304.06 167.16,-306.48"/>
<text text-anchor="start" x="165" y="-317.2" font-family="monospace" font-size="9.00">1</text>
</g>
<!-- 1&#45;&gt;4 -->
<g id="edge7" class="edge">
<title>1&#45;&gt;4</title>
<path fill="none" stroke="black" d="M118.81,-339.58C117.2,-336.31 115.55,-332.93 114,-329.75 108.1,-317.65 105.76,-315 100.75,-302.5 91.17,-278.62 82.42,-250.63 76.54,-230.51"/>
<polygon fill="black" stroke="black" points="78.61,-230.11 74.93,-224.93 74.58,-231.28 78.61,-230.11"/>
<text text-anchor="start" x="104" y="-277.97" font-family="monospace" font-size="9.00">2</text>
</g>
<!-- 6 -->
<g id="node7" class="node">
<title>6</title>
<ellipse fill="none" stroke="black" stroke-width="2" cx="128" cy="-21.6" rx="21.6" ry="21.6"/>
<text text-anchor="start" x="123.88" y="-16.92" font-family="monospace" font-size="14.00">6</text>
</g>
<!-- 2&#45;&gt;6 -->
<g id="edge8" class="edge">
<title>2&#45;&gt;6</title>
<path fill="none" stroke="black" d="M77.09,-81.84C83.81,-72.56 92.45,-61.02 100.75,-51.2 103.01,-48.52 105.45,-45.78 107.91,-43.1"/>
<polygon fill="black" stroke="black" points="109.34,-44.64 111.91,-38.83 106.28,-41.77 109.34,-44.64"/>
<text text-anchor="start" x="104" y="-57.9" font-family="monospace" font-size="9.00">4</text>
</g>
<!-- 3&#45;&gt;4 -->
<g id="edge9" class="edge">
<title>3&#45;&gt;4</title>
<path fill="none" stroke="black" d="M164.34,-267.95C145.02,-254.88 113.95,-233.86 92.56,-219.39"/>
<polygon fill="black" stroke="black" points="93.93,-217.78 87.79,-216.16 91.58,-221.26 93.93,-217.78"/>
<text text-anchor="start" x="142" y="-238.75" font-family="monospace" font-size="9.00">1</text>
</g>
<!-- 5 -->
<g id="node6" class="node">
<title>5</title>
<ellipse fill="none" stroke="black" stroke-width="2" cx="196" cy="-151.25" rx="21.6" ry="21.6"/>
<text text-anchor="start" x="191.88" y="-146.57" font-family="monospace" font-size="14.00">5</text>
</g>
<!-- 3&#45;&gt;5 -->
<g id="edge10" class="edge">
<title>3&#45;&gt;5</title>
<path fill="none" stroke="black" d="M184.28,-259.11C186.63,-237.69 190.31,-204.17 192.91,-180.39"/>
<polygon fill="black" stroke="black" points="194.99,-180.73 193.56,-174.54 190.81,-180.27 194.99,-180.73"/>
<text text-anchor="start" x="191" y="-238.75" font-family="monospace" font-size="9.00">1</text>
</g>
<!-- 4&#45;&gt;2 -->
<g id="edge11" class="edge">
<title>4&#45;&gt;2</title>
<path fill="none" stroke="black" d="M68.17,-180.65C67.58,-165.7 66.77,-145.4 66.11,-129.03"/>
<polygon fill="black" stroke="black" points="68.23,-129.25 65.89,-123.34 64.03,-129.42 68.23,-129.25"/>
<text text-anchor="start" x="71" y="-148.32" font-family="monospace" font-size="9.00">3</text>
</g>
<!-- 5&#45;&gt;6 -->
<g id="edge12" class="edge">
<title>5&#45;&gt;6</title>
<path fill="none" stroke="black" d="M186.11,-131.69C174.33,-109.57 154.58,-72.5 141.42,-47.8"/>
<polygon fill="black" stroke="black" points="143.29,-46.83 138.61,-42.52 139.58,-48.8 143.29,-46.83"/>
<text text-anchor="start" x="184" y="-97.12" font-family="monospace" font-size="9.00">1</text>
</g>
<!-- 6&#45;&gt;0 -->
<g id="edge13" class="edge">
<title>6&#45;&gt;0</title>
<path fill="none" stroke="black" d="M149.14,-27.51C180.32,-36.16 235,-57.27 235,-99.05 235,-360.35 235,-360.35 235,-360.35 235,-399.78 186.59,-420.61 154.3,-430.12"/>
<polygon fill="black" stroke="black" points="153.94,-428.04 148.73,-431.68 155.08,-432.08 153.94,-428.04"/>
<text text-anchor="start" x="239" y="-238.75" font-family="monospace" font-size="9.00">9</text>
</g>
<!-- 6&#45;&gt;1 -->
<g id="edge14" class="edge">
<title>6&#45;&gt;1</title>
<path fill="none" stroke="black" d="M128,-43.69C128,-59.04 128,-80.34 128,-99.05 128,-281.9 128,-281.9 128,-281.9 128,-297.84 128,-315.64 128,-330.06"/>
<polygon fill="black" stroke="black" points="125.9,-329.74 128,-335.74 130.1,-329.74 125.9,-329.74"/>
<text text-anchor="start" x="132" y="-199.52" font-family="monospace" font-size="9.00">8</text>
</g>
<!-- 6&#45;&gt;2 -->
<g id="edge15" class="edge">
<title>6&#45;&gt;2</title>
<path fill="none" stroke="black" d="M106.64,-27.2C93.45,-31.21 77.45,-38.47 68.75,-51.2 64.81,-56.96 63.05,-64.07 62.46,-71.03"/>
<polygon fill="black" stroke="black" points="60.36,-70.88 62.28,-76.94 64.56,-71.01 60.36,-70.88"/>
<text text-anchor="start" x="72" y="-57.9" font-family="monospace" font-size="9.00">5</text>
</g>
</g>
</svg>
