<?xml version="1.0" encoding="UTF-8" standalone="no"?>
<!DOCTYPE svg PUBLIC "-//W3C//DTD SVG 1.1//EN"
 "http://www.w3.org/Graphics/SVG/1.1/DTD/svg11.dtd">
<!-- Generated by graphviz version 12.0.0 (20240704.0754)
 -->
<!-- Pages: 1 -->
<svg width="290pt" height="639pt"
 viewBox="0.00 0.00 290.05 639.40" xmlns="http://www.w3.org/2000/svg" xmlns:xlink="http://www.w3.org/1999/xlink">
<g id="graph0" class="graph" transform="scale(1 1) rotate(0) translate(14.4 625)">
<polygon fill="white" stroke="none" points="-14.4,14.4 -14.4,-625 275.65,-625 275.65,14.4 -14.4,14.4"/>
<!-- 0 -->
<g id="node1" class="node">
<title>0</title>
<ellipse fill="none" stroke="black" stroke-width="2" cx="121" cy="-578.2" rx="32.4" ry="32.4"/>
<text text-anchor="start" x="116.88" y="-581.27" font-family="monospace" font-weight="bold" font-size="14.00">0</text>
<text text-anchor="start" x="97.38" y="-566.87" font-family="monospace" font-size="11.00">d(1)=</text>
<text text-anchor="start" x="131.12" y="-566.87" font-family="monospace" font-weight="bold" font-size="11.00">16</text>
</g>
<!-- 1 -->
<g id="node2" class="node">
<title>1</title>
<ellipse fill="none" stroke="black" stroke-width="2" cx="121" cy="-478.15" rx="32.4" ry="32.4"/>
<text text-anchor="start" x="116.88" y="-481.22" font-family="monospace" font-weight="bold" font-size="14.00">1</text>
<text text-anchor="start" x="97.38" y="-466.82" font-family="monospace" font-size="11.00">d(1)=</text>
<text text-anchor="start" x="131.12" y="-466.82" font-family="monospace" font-weight="bold" font-size="11.00">15</text>
</g>
<!-- 0&#45;&gt;1 -->
<g id="edge1" class="edge">
<title>0&#45;&gt;1</title>
<path fill="none" stroke="black" d="M106.95,-548.82C105.64,-545.18 104.51,-541.45 103.75,-537.8 102,-529.43 102,-526.92 103.75,-518.55 104.04,-517.18 104.37,-515.8 104.75,-514.42"/>
<polygon fill="black" stroke="black" points="106.67,-515.33 106.49,-508.97 102.67,-514.05 106.67,-515.33"/>
<text text-anchor="start" x="107" y="-525.25" font-family="monospace" font-size="9.00">5</text>
</g>
<!-- 2 -->
<g id="node3" class="node">
<title>2</title>
<ellipse fill="none" stroke="black" stroke-width="2" cx="63" cy="-132.45" rx="32.4" ry="32.4"/>
<text text-anchor="start" x="58.88" y="-135.52" font-family="monospace" font-weight="bold" font-size="14.00">2</text>
<text text-anchor="start" x="42.75" y="-121.12" font-family="monospace" font-size="11.00">d(2)=</text>
<text text-anchor="start" x="76.5" y="-121.12" font-family="monospace" font-weight="bold" font-size="11.00">3</text>
</g>
<!-- 0&#45;&gt;2 -->
<g id="edge2" class="edge">
<title>0&#45;&gt;2</title>
<path fill="none" stroke="black" d="M90.15,-567.36C54.3,-553.77 0,-525.52 0,-479.15 0,-479.15 0,-479.15 0,-277.05 0,-235.92 21.94,-193.33 39.93,-165.32"/>
<polygon fill="black" stroke="black" points="41.56,-166.65 43.1,-160.49 38.05,-164.35 41.56,-166.65"/>
<text text-anchor="start" x="4" y="-375.17" font-family="monospace" font-size="9.00">3</text>
</g>
<!-- 3 -->
<g id="node4" class="node">
<title>3</title>
<ellipse fill="none" stroke="black" stroke-width="2" cx="188" cy="-378.1" rx="32.4" ry="32.4"/>
<text text-anchor="start" x="183.88" y="-381.17" font-family="monospace" font-weight="bold" font-size="14.00">3</text>
<text text-anchor="start" x="164.38" y="-366.77" font-family="monospace" font-size="11.00">d(3)=</text>
<text text-anchor="start" x="198.12" y="-366.77" font-family="monospace" font-weight="bold" font-size="11.00">16</text>
</g>
<!-- 0&#45;&gt;3 -->
<g id="edge3" class="edge">
<title>0&#45;&gt;3</title>
<path fill="none" stroke="black" d="M139.85,-551.42C147.76,-539.5 156.4,-524.84 162,-510.55 173.71,-480.65 180.35,-444.78 183.99,-418.07"/>
<polygon fill="black" stroke="black" points="186.05,-418.52 184.74,-412.29 181.88,-417.97 186.05,-418.52"/>
<text text-anchor="start" x="183" y="-475.22" font-family="monospace" font-size="9.00">2</text>
</g>
<!-- 4 -->
<g id="node5" class="node">
<title>4</title>
<ellipse fill="none" stroke="black" stroke-width="2" cx="60" cy="-278.05" rx="32.4" ry="32.4"/>
<text text-anchor="start" x="55.88" y="-281.12" font-family="monospace" font-weight="bold" font-size="14.00">4</text>
<text text-anchor="start" x="36.38" y="-266.73" font-family="monospace" font-size="11.00">e(4)=</text>
<text text-anchor="start" x="70.12" y="-266.73" font-family="monospace" font-weight="bold" font-size="11.00">17</text>
</g>
<!-- 0&#45;&gt;4 -->
<g id="edge4" class="edge">
<title>0&#45;&gt;4</title>
<path fill="none" stroke="black" d="M101.63,-552C93.52,-540.08 84.85,-525.26 80,-510.55 58.51,-445.46 56.74,-364.79 57.97,-317.9"/>
<polygon fill="black" stroke="black" points="60.07,-318.25 58.15,-312.18 55.87,-318.12 60.07,-318.25"/>
<text text-anchor="start" x="67" y="-425.2" font-family="monospace" font-size="9.00">4</text>
</g>
<!-- 1&#45;&gt;0 -->
<g id="edge5" class="edge">
<title>1&#45;&gt;0</title>
<path fill="none" stroke="black" d="M121,-510.82C121,-519.46 121,-528.93 121,-537.94"/>
<polygon fill="black" stroke="black" points="118.9,-537.85 121,-543.85 123.1,-537.85 118.9,-537.85"/>
<text text-anchor="start" x="125" y="-525.25" font-family="monospace" font-size="9.00">3</text>
</g>
<!-- 1&#45;&gt;3 -->
<g id="edge6" class="edge">
<title>1&#45;&gt;3</title>
<path fill="none" stroke="red" stroke-width="2" d="M138.95,-450.87C147.22,-438.78 157.1,-424.32 165.82,-411.56"/>
<polygon fill="red" stroke="red" stroke-width="2" points="166.64,-414.09 168.29,-407.95 163.17,-411.72 166.64,-414.09"/>
<text text-anchor="start" x="164" y="-425.2" font-family="monospace" font-size="9.00">1</text>
</g>
<!-- 1&#45;&gt;4 -->
<g id="edge7" class="edge">
<title>1&#45;&gt;4</title>
<path fill="none" stroke="black" d="M111.6,-446.63C100.78,-411.48 83,-353.75 71.4,-316.07"/>
<polygon fill="black" stroke="black" points="73.53,-315.84 69.75,-310.73 69.51,-317.08 73.53,-315.84"/>
<text text-anchor="start" x="103" y="-375.17" font-family="monospace" font-size="9.00">2</text>
</g>
<!-- 6 -->
<g id="node7" class="node">
<title>6</title>
<ellipse fill="none" stroke="black" stroke-width="2" cx="128" cy="-32.4" rx="32.4" ry="32.4"/>
<text text-anchor="start" x="123.88" y="-35.47" font-family="monospace" font-weight="bold" font-size="14.00">6</text>
<text text-anchor="start" x="107.75" y="-21.07" font-family="monospace" font-size="11.00">d(6)=</text>
<text text-anchor="start" x="141.5" y="-21.07" font-family="monospace" font-weight="bold" font-size="11.00">7</text>
</g>
<!-- 2&#45;&gt;6 -->
<g id="edge8" class="edge">
<title>2&#45;&gt;6</title>
<path fill="none" stroke="red" stroke-width="2" d="M80.1,-104.47C86.51,-94.47 93.89,-83.07 100.75,-72.8 102.36,-70.39 104.04,-67.9 105.73,-65.41"/>
<polygon fill="red" stroke="red" stroke-width="2" points="106.34,-68.24 107.99,-62.1 102.88,-65.87 106.34,-68.24"/>
<text text-anchor="start" x="104" y="-79.5" font-family="monospace" font-size="9.00">4</text>
</g>
<!-- 3&#45;&gt;4 -->
<g id="edge9" class="edge">
<title>3&#45;&gt;4</title>
<path fill="none" stroke="black" d="M162.4,-357.49C142,-341.86 113.33,-319.9 91.51,-303.19"/>
<polygon fill="black" stroke="black" points="92.79,-301.52 86.75,-299.54 90.24,-304.86 92.79,-301.52"/>
<text text-anchor="start" x="139" y="-325.15" font-family="monospace" font-size="9.00">1</text>
</g>
<!-- 5 -->
<g id="node6" class="node">
<title>5</title>
<ellipse fill="none" stroke="black" stroke-width="2" cx="191" cy="-205.25" rx="32.4" ry="32.4"/>
<text text-anchor="start" x="186.88" y="-208.32" font-family="monospace" font-weight="bold" font-size="14.00">5</text>
<text text-anchor="start" x="167.38" y="-193.93" font-family="monospace" font-size="11.00">d(5)=</text>
<text text-anchor="start" x="201.12" y="-193.93" font-family="monospace" font-weight="bold" font-size="11.00">17</text>
</g>
<!-- 3&#45;&gt;5 -->
<g id="edge10" class="edge">
<title>3&#45;&gt;5</title>
<path fill="none" stroke="red" stroke-width="2" d="M188.56,-345.36C189.05,-317.16 189.78,-275.83 190.31,-245.55"/>
<polygon fill="red" stroke="red" stroke-width="2" points="192.38,-247.17 190.39,-241.13 188.18,-247.09 192.38,-247.17"/>
<text text-anchor="start" x="192" y="-325.15" font-family="monospace" font-size="9.00">1</text>
</g>
<!-- 4&#45;&gt;2 -->
<g id="edge11" class="edge">
<title>4&#45;&gt;2</title>
<path fill="none" stroke="red" stroke-width="2" d="M60.67,-245.18C61.11,-223.8 61.7,-195.49 62.18,-172.72"/>
<polygon fill="red" stroke="red" stroke-width="2" points="64.25,-174.3 62.27,-168.26 60.05,-174.21 64.25,-174.3"/>
<text text-anchor="start" x="66" y="-202.32" font-family="monospace" font-size="9.00">3</text>
</g>
<!-- 5&#45;&gt;6 -->
<g id="edge12" class="edge">
<title>5&#45;&gt;6</title>
<path fill="none" stroke="black" d="M180.03,-174.49C169.31,-145.43 152.98,-101.13 141.48,-69.94"/>
<polygon fill="black" stroke="black" points="143.52,-69.43 139.48,-64.52 139.58,-70.88 143.52,-69.43"/>
<text text-anchor="start" x="180" y="-129.52" font-family="monospace" font-size="9.00">1</text>
</g>
<!-- 6&#45;&gt;0 -->
<g id="edge13" class="edge">
<title>6&#45;&gt;0</title>
<path fill="none" stroke="black" d="M158.9,-43.43C194.46,-57.15 248,-85.45 248,-131.45 248,-479.15 248,-479.15 248,-479.15 248,-524.65 196.3,-552 158.87,-565.84"/>
<polygon fill="black" stroke="black" points="158.44,-563.77 153.49,-567.76 159.85,-567.72 158.44,-563.77"/>
<text text-anchor="start" x="252" y="-325.15" font-family="monospace" font-size="9.00">9</text>
</g>
<!-- 6&#45;&gt;1 -->
<g id="edge14" class="edge">
<title>6&#45;&gt;1</title>
<path fill="none" stroke="red" stroke-width="2" d="M128,-65.19C128,-84.38 128,-109.32 128,-131.45 128,-379.1 128,-379.1 128,-379.1 128,-398.66 126.6,-420.36 125.05,-438.37"/>
<polygon fill="red" stroke="red" stroke-width="2" points="123.09,-436.66 124.65,-442.82 127.27,-437.04 123.09,-436.66"/>
<text text-anchor="start" x="132" y="-275.12" font-family="monospace" font-size="9.00">8</text>
</g>
<!-- 6&#45;&gt;2 -->
<g id="edge15" class="edge">
<title>6&#45;&gt;2</title>
<path fill="none" stroke="black" d="M98.65,-47.08C88.19,-53.43 77.37,-62 70.75,-72.8 67.16,-78.65 64.92,-85.45 63.57,-92.29"/>
<polygon fill="black" stroke="black" points="61.49,-91.95 62.65,-98.2 65.65,-92.59 61.49,-91.95"/>
<text text-anchor="start" x="74" y="-79.5" font-family="monospace" font-size="9.00">5</text>
</g>
</g>
</svg>
