<?xml version="1.0" encoding="UTF-8" standalone="no"?>
<!DOCTYPE svg PUBLIC "-//W3C//DTD SVG 1.1//EN"
 "http://www.w3.org/Graphics/SVG/1.1/DTD/svg11.dtd">
<!-- Generated by graphviz version 12.0.0 (20240704.0754)
 -->
<!-- Pages: 1 -->
<svg width="280pt" height="564pt"
 viewBox="0.00 0.00 280.05 563.80" xmlns="http://www.w3.org/2000/svg" xmlns:xlink="http://www.w3.org/1999/xlink">
<g id="graph0" class="graph" transform="scale(1 1) rotate(0) translate(14.4 549.4)">
<polygon fill="white" stroke="none" points="-14.4,14.4 -14.4,-549.4 265.65,-549.4 265.65,14.4 -14.4,14.4"/>
<!-- 0 -->
<g id="node1" class="node">
<title>0</title>
<ellipse fill="none" stroke="black" stroke-width="2" cx="125" cy="-508" rx="27" ry="27"/>
<text text-anchor="start" x="120.88" y="-509.95" font-family="monospace" font-size="14.00">0</text>
<text text-anchor="start" x="109.25" y="-495.45" font-family="monospace" font-size="9.00">e(0)=5</text>
</g>
<!-- 1 -->
<g id="node2" class="node">
<title>1</title>
<ellipse fill="none" stroke="black" stroke-width="2" cx="126" cy="-418.75" rx="27" ry="27"/>
<text text-anchor="start" x="121.88" y="-420.7" font-family="monospace" font-size="14.00">1</text>
<text text-anchor="start" x="110.25" y="-406.2" font-family="monospace" font-size="9.00">e(1)=5</text>
</g>
<!-- 0&#45;&gt;1 -->
<g id="edge1" class="edge">
<title>0&#45;&gt;1</title>
<path fill="none" stroke="black" d="M111.61,-484.15C110.02,-480.52 108.64,-476.73 107.75,-473 105.76,-464.68 105.66,-462.05 107.75,-453.75 108.15,-452.17 108.64,-450.58 109.19,-448.99"/>
<polygon fill="black" stroke="black" points="111.09,-449.91 111.43,-443.57 107.2,-448.31 111.09,-449.91"/>
<text text-anchor="start" x="111" y="-460.45" font-family="monospace" font-size="9.00">5</text>
</g>
<!-- 2 -->
<g id="node3" class="node">
<title>2</title>
<ellipse fill="none" stroke="black" stroke-width="2" cx="65" cy="-116.25" rx="27" ry="27"/>
<text text-anchor="start" x="60.88" y="-118.2" font-family="monospace" font-size="14.00">2</text>
<text text-anchor="start" x="46.62" y="-103.7" font-family="monospace" font-size="9.00">e(2)=14</text>
</g>
<!-- 0&#45;&gt;2 -->
<g id="edge2" class="edge">
<title>0&#45;&gt;2</title>
<path fill="none" stroke="black" d="M98.49,-501.09C61.8,-491.17 0,-467.39 0,-419.75 0,-419.75 0,-419.75 0,-239.25 0,-202.3 23.51,-165.67 42.25,-142.34"/>
<polygon fill="black" stroke="black" points="43.74,-143.84 45.93,-137.87 40.5,-141.17 43.74,-143.84"/>
<text text-anchor="start" x="4" y="-326.57" font-family="monospace" font-size="9.00">3</text>
</g>
<!-- 3 -->
<g id="node4" class="node">
<title>3</title>
<ellipse fill="none" stroke="black" stroke-width="2" cx="183" cy="-329.5" rx="27" ry="27"/>
<text text-anchor="start" x="178.88" y="-331.45" font-family="monospace" font-size="14.00">3</text>
<text text-anchor="start" x="164.62" y="-316.95" font-family="monospace" font-size="9.00">e(3)=11</text>
</g>
<!-- 0&#45;&gt;3 -->
<g id="edge3" class="edge">
<title>0&#45;&gt;3</title>
<path fill="none" stroke="black" d="M140.42,-485.53C147.93,-474.19 156.49,-459.74 162,-445.75 172.35,-419.45 177.65,-387.75 180.34,-364.25"/>
<polygon fill="black" stroke="black" points="182.41,-364.62 180.96,-358.43 178.23,-364.18 182.41,-364.62"/>
<text text-anchor="start" x="180" y="-415.82" font-family="monospace" font-size="9.00">2</text>
</g>
<!-- 4 -->
<g id="node5" class="node">
<title>4</title>
<ellipse fill="none" stroke="black" stroke-width="2" cx="65" cy="-240.25" rx="27" ry="27"/>
<text text-anchor="start" x="60.88" y="-242.2" font-family="monospace" font-size="14.00">4</text>
<text text-anchor="start" x="46.62" y="-227.7" font-family="monospace" font-size="9.00">e(4)=17</text>
</g>
<!-- 0&#45;&gt;4 -->
<g id="edge4" class="edge">
<title>0&#45;&gt;4</title>
<path fill="none" stroke="black" d="M109.22,-485.49C101.9,-474.24 93.96,-459.9 90,-445.75 73.56,-387.06 67.93,-315.9 66,-274.87"/>
<polygon fill="black" stroke="black" points="68.11,-274.99 65.75,-269.08 63.91,-275.17 68.11,-274.99"/>
<text text-anchor="start" x="80" y="-371.2" font-family="monospace" font-size="9.00">4</text>
</g>
<!-- 1&#45;&gt;0 -->
<g id="edge5" class="edge">
<title>1&#45;&gt;0</title>
<path fill="none" stroke="black" d="M125.7,-446.21C125.6,-454.78 125.49,-464.41 125.38,-473.43"/>
<polygon fill="black" stroke="black" points="123.29,-473.28 125.32,-479.31 127.49,-473.33 123.29,-473.28"/>
<text text-anchor="start" x="129" y="-460.45" font-family="monospace" font-size="9.00">3</text>
</g>
<!-- 1&#45;&gt;3 -->
<g id="edge6" class="edge">
<title>1&#45;&gt;3</title>
<path fill="none" stroke="black" d="M140.38,-395.73C147.69,-384.56 156.64,-370.85 164.46,-358.89"/>
<polygon fill="black" stroke="black" points="166.07,-360.25 167.6,-354.08 162.56,-357.95 166.07,-360.25"/>
<text text-anchor="start" x="163" y="-371.2" font-family="monospace" font-size="9.00">1</text>
</g>
<!-- 1&#45;&gt;4 -->
<g id="edge7" class="edge">
<title>1&#45;&gt;4</title>
<path fill="none" stroke="black" d="M115.42,-393.51C110.69,-382.33 105.2,-368.84 100.75,-356.5 90.77,-328.82 80.98,-296.81 74.18,-273.57"/>
<polygon fill="black" stroke="black" points="76.28,-273.28 72.59,-268.1 72.25,-274.45 76.28,-273.28"/>
<text text-anchor="start" x="104" y="-326.57" font-family="monospace" font-size="9.00">2</text>
</g>
<!-- 6 -->
<g id="node7" class="node">
<title>6</title>
<ellipse fill="none" stroke="black" stroke-width="2" cx="128" cy="-27" rx="27" ry="27"/>
<text text-anchor="start" x="123.88" y="-28.95" font-family="monospace" font-size="14.00">6</text>
<text text-anchor="start" x="109.62" y="-14.45" font-family="monospace" font-size="9.00">e(6)=10</text>
</g>
<!-- 2&#45;&gt;6 -->
<g id="edge8" class="edge">
<title>2&#45;&gt;6</title>
<path fill="none" stroke="black" d="M79.37,-92.94C85.74,-83.3 93.43,-71.96 100.75,-62 102.72,-59.32 104.81,-56.56 106.93,-53.82"/>
<polygon fill="black" stroke="black" points="108.3,-55.48 110.35,-49.47 105,-52.89 108.3,-55.48"/>
<text text-anchor="start" x="104" y="-68.7" font-family="monospace" font-size="9.00">4</text>
</g>
<!-- 3&#45;&gt;4 -->
<g id="edge9" class="edge">
<title>3&#45;&gt;4</title>
<path fill="none" stroke="black" d="M161.63,-312.7C142.29,-298.4 113.68,-277.25 92.61,-261.67"/>
<polygon fill="black" stroke="black" points="93.9,-260.01 87.83,-258.13 91.4,-263.38 93.9,-260.01"/>
<text text-anchor="start" x="138" y="-281.95" font-family="monospace" font-size="9.00">1</text>
</g>
<!-- 5 -->
<g id="node6" class="node">
<title>5</title>
<ellipse fill="none" stroke="black" stroke-width="2" cx="191" cy="-178.25" rx="27" ry="27"/>
<text text-anchor="start" x="186.88" y="-180.2" font-family="monospace" font-size="14.00">5</text>
<text text-anchor="start" x="172.62" y="-165.7" font-family="monospace" font-size="9.00">e(5)=11</text>
</g>
<!-- 3&#45;&gt;5 -->
<g id="edge10" class="edge">
<title>3&#45;&gt;5</title>
<path fill="none" stroke="black" d="M184.41,-302.16C185.74,-277.3 187.75,-239.91 189.2,-212.9"/>
<polygon fill="black" stroke="black" points="191.28,-213.19 189.51,-207.09 187.09,-212.97 191.28,-213.19"/>
<text text-anchor="start" x="189" y="-281.95" font-family="monospace" font-size="9.00">1</text>
</g>
<!-- 4&#45;&gt;2 -->
<g id="edge11" class="edge">
<title>4&#45;&gt;2</title>
<path fill="none" stroke="black" d="M65,-212.78C65,-194.71 65,-170.62 65,-151.15"/>
<polygon fill="black" stroke="black" points="67.1,-151.18 65,-145.18 62.9,-151.18 67.1,-151.18"/>
<text text-anchor="start" x="69" y="-175.32" font-family="monospace" font-size="9.00">3</text>
</g>
<!-- 5&#45;&gt;6 -->
<g id="edge12" class="edge">
<title>5&#45;&gt;6</title>
<path fill="none" stroke="black" d="M180.74,-152.94C169.94,-127.35 152.9,-87 141.13,-59.11"/>
<polygon fill="black" stroke="black" points="143.11,-58.41 138.85,-53.7 139.25,-60.04 143.11,-58.41"/>
<text text-anchor="start" x="180" y="-113.33" font-family="monospace" font-size="9.00">1</text>
</g>
<!-- 6&#45;&gt;0 -->
<g id="edge13" class="edge">
<title>6&#45;&gt;0</title>
<path fill="none" stroke="black" d="M153.79,-35.77C186.3,-47.34 238,-72.47 238,-115.25 238,-419.75 238,-419.75 238,-419.75 238,-460.59 191.18,-485 157.82,-497.22"/>
<polygon fill="black" stroke="black" points="157.32,-495.17 152.35,-499.14 158.71,-499.13 157.32,-495.17"/>
<text text-anchor="start" x="242" y="-281.95" font-family="monospace" font-size="9.00">9</text>
</g>
<!-- 6&#45;&gt;1 -->
<g id="edge14" class="edge">
<title>6&#45;&gt;1</title>
<path fill="none" stroke="black" d="M128,-54.34C128,-71.66 128,-94.8 128,-115.25 128,-330.5 128,-330.5 128,-330.5 128,-348.24 127.58,-368 127.13,-384.22"/>
<polygon fill="black" stroke="black" points="125.04,-383.84 126.96,-389.9 129.24,-383.96 125.04,-383.84"/>
<text text-anchor="start" x="132" y="-237.32" font-family="monospace" font-size="9.00">8</text>
</g>
<!-- 6&#45;&gt;2 -->
<g id="edge15" class="edge">
<title>6&#45;&gt;2</title>
<path fill="none" stroke="black" d="M102.53,-36.55C90.55,-41.93 77.28,-50.14 69.75,-62 66.06,-67.81 64.11,-74.73 63.2,-81.62"/>
<polygon fill="black" stroke="black" points="61.11,-81.37 62.71,-87.52 65.3,-81.71 61.11,-81.37"/>
<text text-anchor="start" x="73" y="-68.7" font-family="monospace" font-size="9.00">5</text>
</g>
</g>
</svg>
