<?xml version="1.0" encoding="UTF-8" standalone="no"?>
<!DOCTYPE svg PUBLIC "-//W3C//DTD SVG 1.1//EN"
 "http://www.w3.org/Graphics/SVG/1.1/DTD/svg11.dtd">
<!-- Generated by graphviz version 12.0.0 (20240704.0754)
 -->
<!-- Pages: 1 -->
<svg width="316pt" height="623pt"
 viewBox="0.00 0.00 316.05 623.40" xmlns="http://www.w3.org/2000/svg" xmlns:xlink="http://www.w3.org/1999/xlink">
<g id="graph0" class="graph" transform="scale(1 1) rotate(0) translate(14.4 609)">
<polygon fill="white" stroke="none" points="-14.4,14.4 -14.4,-609 301.65,-609 301.65,14.4 -14.4,14.4"/>
<!-- 0 -->
<g id="node1" class="node">
<title>0</title>
<ellipse fill="none" stroke="black" stroke-width="2" cx="136" cy="-562.2" rx="32.4" ry="32.4"/>
<text text-anchor="start" x="131.88" y="-565.27" font-family="monospace" font-weight="bold" font-size="14.00">0</text>
<text text-anchor="start" x="115.75" y="-550.87" font-family="monospace" font-size="11.00">e(0)=</text>
<text text-anchor="start" x="149.5" y="-550.87" font-family="monospace" font-weight="bold" font-size="11.00">5</text>
</g>
<!-- 1 -->
<g id="node2" class="node">
<title>1</title>
<ellipse fill="none" stroke="black" stroke-width="2" cx="136" cy="-466.15" rx="32.4" ry="32.4"/>
<text text-anchor="start" x="131.88" y="-469.22" font-family="monospace" font-weight="bold" font-size="14.00">1</text>
<text text-anchor="start" x="115.75" y="-454.82" font-family="monospace" font-size="11.00">e(1)=</text>
<text text-anchor="start" x="149.5" y="-454.82" font-family="monospace" font-weight="bold" font-size="11.00">5</text>
</g>
<!-- 0&#45;&gt;1 -->
<g id="edge1" class="edge">
<title>0&#45;&gt;1</title>
<path fill="none" stroke="black" d="M121.95,-532.82C120.64,-529.18 119.51,-525.45 118.75,-521.8 117.45,-515.57 117.87,-509.04 119.24,-502.75"/>
<polygon fill="black" stroke="black" points="121.27,-503.31 120.84,-496.97 117.22,-502.2 121.27,-503.31"/>
<text text-anchor="start" x="120" y="-511.25" font-family="monospace" font-size="9.00">5</text>
</g>
<!-- 2 -->
<g id="node3" class="node">
<title>2</title>
<ellipse fill="none" stroke="black" stroke-width="2" cx="76" cy="-128.45" rx="32.4" ry="32.4"/>
<text text-anchor="start" x="71.88" y="-131.52" font-family="monospace" font-weight="bold" font-size="14.00">2</text>
<text text-anchor="start" x="52.38" y="-117.12" font-family="monospace" font-size="11.00">e(2)=</text>
<text text-anchor="start" x="86.12" y="-117.12" font-family="monospace" font-weight="bold" font-size="11.00">14</text>
</g>
<!-- 0&#45;&gt;2 -->
<g id="edge2" class="edge">
<title>0&#45;&gt;2</title>
<path fill="none" stroke="black" d="M104.46,-554.19C64.28,-543.18 0,-517.67 0,-467.15 0,-467.15 0,-467.15 0,-273.05 0,-229.34 27.85,-185.92 49.84,-158.47"/>
<polygon fill="black" stroke="black" points="51.29,-160 53.47,-154.03 48.04,-157.34 51.29,-160"/>
<text text-anchor="start" x="4" y="-367.17" font-family="monospace" font-size="9.00">3</text>
</g>
<!-- 3 -->
<g id="node4" class="node">
<title>3</title>
<ellipse fill="none" stroke="black" stroke-width="2" cx="212" cy="-370.1" rx="32.4" ry="32.4"/>
<text text-anchor="start" x="207.88" y="-373.17" font-family="monospace" font-weight="bold" font-size="14.00">3</text>
<text text-anchor="start" x="188.38" y="-358.77" font-family="monospace" font-size="11.00">e(3)=</text>
<text text-anchor="start" x="222.12" y="-358.77" font-family="monospace" font-weight="bold" font-size="11.00">11</text>
</g>
<!-- 0&#45;&gt;3 -->
<g id="edge3" class="edge">
<title>0&#45;&gt;3</title>
<path fill="none" stroke="black" d="M156.14,-536.2C164.2,-525.18 172.98,-511.76 179,-498.55 191.99,-470.03 200.53,-435.5 205.66,-409.58"/>
<polygon fill="black" stroke="black" points="207.67,-410.28 206.74,-404 203.54,-409.49 207.67,-410.28"/>
<text text-anchor="start" x="202" y="-463.22" font-family="monospace" font-size="9.00">2</text>
</g>
<!-- 4 -->
<g id="node5" class="node">
<title>4</title>
<ellipse fill="none" stroke="black" stroke-width="2" cx="70" cy="-274.05" rx="32.4" ry="32.4"/>
<text text-anchor="start" x="65.88" y="-277.12" font-family="monospace" font-weight="bold" font-size="14.00">4</text>
<text text-anchor="start" x="46.38" y="-262.73" font-family="monospace" font-size="11.00">e(4)=</text>
<text text-anchor="start" x="80.12" y="-262.73" font-family="monospace" font-weight="bold" font-size="11.00">17</text>
</g>
<!-- 0&#45;&gt;4 -->
<g id="edge4" class="edge">
<title>0&#45;&gt;4</title>
<path fill="none" stroke="black" d="M115.1,-536.9C106.8,-525.9 98.05,-512.3 93,-498.55 70.39,-436.99 67.56,-359.88 68.28,-314.2"/>
<polygon fill="black" stroke="black" points="70.37,-314.43 68.4,-308.39 66.17,-314.34 70.37,-314.43"/>
<text text-anchor="start" x="77" y="-415.2" font-family="monospace" font-size="9.00">4</text>
</g>
<!-- 1&#45;&gt;0 -->
<g id="edge5" class="edge">
<title>1&#45;&gt;0</title>
<path fill="none" stroke="black" d="M136,-498.96C136,-506.31 136,-514.22 136,-521.85"/>
<polygon fill="black" stroke="black" points="133.9,-521.85 136,-527.85 138.1,-521.85 133.9,-521.85"/>
<text text-anchor="start" x="138" y="-511.25" font-family="monospace" font-size="9.00">3</text>
</g>
<!-- 1&#45;&gt;3 -->
<g id="edge6" class="edge">
<title>1&#45;&gt;3</title>
<path fill="none" stroke="black" d="M155.97,-440.44C165.58,-428.55 177.19,-414.17 187.35,-401.6"/>
<polygon fill="black" stroke="black" points="188.81,-403.14 190.95,-397.15 185.55,-400.5 188.81,-403.14"/>
<text text-anchor="start" x="180" y="-415.2" font-family="monospace" font-size="9.00">1</text>
</g>
<!-- 1&#45;&gt;4 -->
<g id="edge7" class="edge">
<title>1&#45;&gt;4</title>
<path fill="none" stroke="black" d="M125.54,-435.03C113.96,-401.66 95.27,-347.83 82.81,-311.96"/>
<polygon fill="black" stroke="black" points="84.86,-311.44 80.91,-306.46 80.89,-312.82 84.86,-311.44"/>
<text text-anchor="start" x="115" y="-367.17" font-family="monospace" font-size="9.00">2</text>
</g>
<!-- 6 -->
<g id="node7" class="node">
<title>6</title>
<ellipse fill="none" stroke="black" stroke-width="2" cx="146" cy="-32.4" rx="32.4" ry="32.4"/>
<text text-anchor="start" x="141.88" y="-35.47" font-family="monospace" font-weight="bold" font-size="14.00">6</text>
<text text-anchor="start" x="122.38" y="-21.07" font-family="monospace" font-size="11.00">e(6)=</text>
<text text-anchor="start" x="156.12" y="-21.07" font-family="monospace" font-weight="bold" font-size="11.00">10</text>
</g>
<!-- 2&#45;&gt;6 -->
<g id="edge8" class="edge">
<title>2&#45;&gt;6</title>
<path fill="none" stroke="black" d="M95.13,-101.75C103.62,-90.35 113.68,-76.82 122.61,-64.82"/>
<polygon fill="black" stroke="black" points="124.09,-66.35 125.99,-60.28 120.72,-63.84 124.09,-66.35"/>
<text text-anchor="start" x="117" y="-77.5" font-family="monospace" font-size="9.00">4</text>
</g>
<!-- 3&#45;&gt;4 -->
<g id="edge9" class="edge">
<title>3&#45;&gt;4</title>
<path fill="none" stroke="black" d="M185.29,-351.41C161.89,-335.91 127.79,-313.33 102.75,-296.74"/>
<polygon fill="black" stroke="black" points="104.01,-295.06 97.85,-293.5 101.69,-298.56 104.01,-295.06"/>
<text text-anchor="start" x="151" y="-319.15" font-family="monospace" font-size="9.00">1</text>
</g>
<!-- 5 -->
<g id="node6" class="node">
<title>5</title>
<ellipse fill="none" stroke="black" stroke-width="2" cx="216" cy="-201.25" rx="32.4" ry="32.4"/>
<text text-anchor="start" x="211.88" y="-204.32" font-family="monospace" font-weight="bold" font-size="14.00">5</text>
<text text-anchor="start" x="192.38" y="-189.93" font-family="monospace" font-size="11.00">e(5)=</text>
<text text-anchor="start" x="226.12" y="-189.93" font-family="monospace" font-weight="bold" font-size="11.00">11</text>
</g>
<!-- 3&#45;&gt;5 -->
<g id="edge10" class="edge">
<title>3&#45;&gt;5</title>
<path fill="none" stroke="black" d="M212.76,-337.32C213.42,-309.95 214.37,-270.36 215.07,-241.11"/>
<polygon fill="black" stroke="black" points="217.16,-241.47 215.2,-235.42 212.96,-241.37 217.16,-241.47"/>
<text text-anchor="start" x="215" y="-319.15" font-family="monospace" font-size="9.00">1</text>
</g>
<!-- 4&#45;&gt;2 -->
<g id="edge11" class="edge">
<title>4&#45;&gt;2</title>
<path fill="none" stroke="black" d="M71.33,-241.18C72.22,-219.8 73.41,-191.49 74.36,-168.72"/>
<polygon fill="black" stroke="black" points="76.46,-168.83 74.61,-162.74 72.26,-168.65 76.46,-168.83"/>
<text text-anchor="start" x="76" y="-198.32" font-family="monospace" font-size="9.00">3</text>
</g>
<!-- 5&#45;&gt;6 -->
<g id="edge12" class="edge">
<title>5&#45;&gt;6</title>
<path fill="none" stroke="black" d="M203.9,-170.84C193.23,-144.98 177.21,-106.34 163,-72.8 162.52,-71.67 162.03,-70.52 161.54,-69.36"/>
<polygon fill="black" stroke="black" points="163.55,-68.73 159.26,-64.03 159.69,-70.38 163.55,-68.73"/>
<text text-anchor="start" x="201" y="-125.52" font-family="monospace" font-size="9.00">1</text>
</g>
<!-- 6&#45;&gt;0 -->
<g id="edge13" class="edge">
<title>6&#45;&gt;0</title>
<path fill="none" stroke="black" d="M177.62,-41C216.67,-52.49 278,-78.35 278,-127.45 278,-467.15 278,-467.15 278,-467.15 278,-516.77 217,-541.75 174.96,-553.07"/>
<polygon fill="black" stroke="black" points="174.62,-550.99 169.33,-554.52 175.67,-555.05 174.62,-550.99"/>
<text text-anchor="start" x="280" y="-319.15" font-family="monospace" font-size="9.00">9</text>
</g>
<!-- 6&#45;&gt;1 -->
<g id="edge14" class="edge">
<title>6&#45;&gt;1</title>
<path fill="none" stroke="black" d="M146,-65.18C146,-83.4 146,-106.71 146,-127.45 146,-371.1 146,-371.1 146,-371.1 146,-389.49 144.09,-409.79 141.93,-426.81"/>
<polygon fill="black" stroke="black" points="139.9,-426.16 141.2,-432.39 144.06,-426.71 139.9,-426.16"/>
<text text-anchor="start" x="148" y="-271.12" font-family="monospace" font-size="9.00">8</text>
</g>
<!-- 6&#45;&gt;2 -->
<g id="edge15" class="edge">
<title>6&#45;&gt;2</title>
<path fill="none" stroke="black" d="M117.56,-48.84C108.17,-55.17 98.43,-63.27 91.75,-72.8 88.29,-77.74 85.58,-83.43 83.46,-89.24"/>
<polygon fill="black" stroke="black" points="81.57,-88.28 81.71,-94.63 85.56,-89.58 81.57,-88.28"/>
<text text-anchor="start" x="93" y="-77.5" font-family="monospace" font-size="9.00">5</text>
</g>
</g>
</svg>
