<?xml version="1.0" encoding="UTF-8" standalone="no"?>
<!DOCTYPE svg PUBLIC "-//W3C//DTD SVG 1.1//EN"
 "http://www.w3.org/Graphics/SVG/1.1/DTD/svg11.dtd">
<!-- Generated by graphviz version 12.0.0 (20240704.0754)
 -->
<!-- Pages: 1 -->
<svg width="415pt" height="416pt"
 viewBox="0.00 0.00 414.60 416.00" xmlns="http://www.w3.org/2000/svg" xmlns:xlink="http://www.w3.org/1999/xlink">
<g id="graph0" class="graph" transform="scale(1 1) rotate(0) translate(7.2 408.8)">
<polygon fill="white" stroke="none" points="-7.2,7.2 -7.2,-408.8 407.4,-408.8 407.4,7.2 -7.2,7.2"/>
<!-- 0 -->
<!-- 8 -->
<g id="node9" class="node">
<title>8</title>
<text text-anchor="middle" x="21.6" y="-324.12" font-family="monospace" font-size="14.00">0</text>
</g>
<!-- 0&#45;&gt;8 -->
<!-- 1 -->
<g id="node2" class="node">
<title>1</title>
<text text-anchor="middle" x="72.6" y="-375.32" font-family="monospace" font-size="14.00">0</text>
</g>
<!-- 9 -->
<g id="node16" class="node">
<title>9</title>
<polygon fill="#eeeeee" stroke="none" points="94.2,-350.4 51,-350.4 51,-307.2 94.2,-307.2 94.2,-350.4"/>
<text text-anchor="middle" x="72.6" y="-324.12" font-family="monospace" font-size="14.00" fill="#999999">0</text>
</g>
<!-- 1&#45;&gt;9 -->
<!-- 2 -->
<g id="node3" class="node">
<title>2</title>
<text text-anchor="middle" x="123.6" y="-375.32" font-family="monospace" font-size="14.00">1</text>
</g>
<!-- 10 -->
<g id="node17" class="node">
<title>10</title>
<polygon fill="#dddddd" stroke="none" points="145.2,-350.4 102,-350.4 102,-307.2 145.2,-307.2 145.2,-350.4"/>
<text text-anchor="middle" x="123.6" y="-324.12" font-family="monospace" font-size="14.00" fill="#555555">5</text>
</g>
<!-- 2&#45;&gt;10 -->
<!-- 3 -->
<g id="node4" class="node">
<title>3</title>
<text text-anchor="middle" x="174.6" y="-375.32" font-family="monospace" font-size="14.00">2</text>
</g>
<!-- 11 -->
<g id="node18" class="node">
<title>11</title>
<polygon fill="#dddddd" stroke="none" points="196.2,-350.4 153,-350.4 153,-307.2 196.2,-307.2 196.2,-350.4"/>
<text text-anchor="middle" x="174.6" y="-324.12" font-family="monospace" font-size="14.00" fill="#555555">3</text>
</g>
<!-- 3&#45;&gt;11 -->
<!-- 4 -->
<g id="node5" class="node">
<title>4</title>
<text text-anchor="middle" x="225.6" y="-375.32" font-family="monospace" font-size="14.00">3</text>
</g>
<!-- 12 -->
<g id="node19" class="node">
<title>12</title>
<polygon fill="#dddddd" stroke="none" points="247.2,-350.4 204,-350.4 204,-307.2 247.2,-307.2 247.2,-350.4"/>
<text text-anchor="middle" x="225.6" y="-324.12" font-family="monospace" font-size="14.00" fill="#555555">2</text>
</g>
<!-- 4&#45;&gt;12 -->
<!-- 5 -->
<g id="node6" class="node">
<title>5</title>
<text text-anchor="middle" x="276.6" y="-375.32" font-family="monospace" font-size="14.00">4</text>
</g>
<!-- 13 -->
<g id="node20" class="node">
<title>13</title>
<polygon fill="#dddddd" stroke="none" points="298.2,-350.4 255,-350.4 255,-307.2 298.2,-307.2 298.2,-350.4"/>
<text text-anchor="middle" x="276.6" y="-324.12" font-family="monospace" font-size="14.00" fill="#555555">3</text>
</g>
<!-- 5&#45;&gt;13 -->
<!-- 6 -->
<g id="node7" class="node">
<title>6</title>
<text text-anchor="middle" x="327.6" y="-375.32" font-family="monospace" font-size="14.00">5</text>
</g>
<!-- 14 -->
<g id="node21" class="node">
<title>14</title>
<polygon fill="#dddddd" stroke="none" points="349.2,-350.4 306,-350.4 306,-307.2 349.2,-307.2 349.2,-350.4"/>
<text text-anchor="middle" x="327.6" y="-324.12" font-family="monospace" font-size="14.00" fill="#555555">3</text>
</g>
<!-- 6&#45;&gt;14 -->
<!-- 7 -->
<g id="node8" class="node">
<title>7</title>
<text text-anchor="middle" x="378.6" y="-375.32" font-family="monospace" font-size="14.00">6</text>
</g>
<!-- 15 -->
<g id="node22" class="node">
<title>15</title>
<polygon fill="#dddddd" stroke="none" points="400.2,-350.4 357,-350.4 357,-307.2 400.2,-307.2 400.2,-350.4"/>
<text text-anchor="middle" x="378.6" y="-324.12" font-family="monospace" font-size="14.00" fill="#555555">4</text>
</g>
<!-- 7&#45;&gt;15 -->
<!-- 16 -->
<g id="node10" class="node">
<title>16</title>
<text text-anchor="middle" x="21.6" y="-272.92" font-family="monospace" font-size="14.00">1</text>
</g>
<!-- 8&#45;&gt;16 -->
<!-- 24 -->
<g id="node11" class="node">
<title>24</title>
<text text-anchor="middle" x="21.6" y="-221.72" font-family="monospace" font-size="14.00">2</text>
</g>
<!-- 16&#45;&gt;24 -->
<!-- 32 -->
<g id="node12" class="node">
<title>32</title>
<text text-anchor="middle" x="21.6" y="-170.52" font-family="monospace" font-size="14.00">3</text>
</g>
<!-- 24&#45;&gt;32 -->
<!-- 40 -->
<g id="node13" class="node">
<title>40</title>
<text text-anchor="middle" x="21.6" y="-119.33" font-family="monospace" font-size="14.00">4</text>
</g>
<!-- 32&#45;&gt;40 -->
<!-- 48 -->
<g id="node14" class="node">
<title>48</title>
<text text-anchor="middle" x="21.6" y="-68.12" font-family="monospace" font-size="14.00">5</text>
</g>
<!-- 40&#45;&gt;48 -->
<!-- 56 -->
<g id="node15" class="node">
<title>56</title>
<text text-anchor="middle" x="21.6" y="-16.92" font-family="monospace" font-size="14.00">6</text>
</g>
<!-- 48&#45;&gt;56 -->
<!-- 17 -->
<g id="node23" class="node">
<title>17</title>
<polygon fill="#dddddd" stroke="none" points="94.2,-299.2 51,-299.2 51,-256 94.2,-256 94.2,-299.2"/>
<text text-anchor="middle" x="72.6" y="-272.92" font-family="monospace" font-size="14.00" fill="#555555">3</text>
</g>
<!-- 9&#45;&gt;17 -->
<!-- 18 -->
<g id="node24" class="node">
<title>18</title>
<polygon fill="#eeeeee" stroke="none" points="145.2,-299.2 102,-299.2 102,-256 145.2,-256 145.2,-299.2"/>
<text text-anchor="middle" x="123.6" y="-272.92" font-family="monospace" font-size="14.00" fill="#999999">0</text>
</g>
<!-- 10&#45;&gt;18 -->
<!-- 19 -->
<g id="node25" class="node">
<title>19</title>
<polygon fill="#dddddd" stroke="none" points="196.2,-299.2 153,-299.2 153,-256 196.2,-256 196.2,-299.2"/>
<text text-anchor="middle" x="174.6" y="-272.92" font-family="monospace" font-size="14.00" fill="#555555">5</text>
</g>
<!-- 11&#45;&gt;19 -->
<!-- 20 -->
<g id="node26" class="node">
<title>20</title>
<polygon fill="#dddddd" stroke="none" points="247.2,-299.2 204,-299.2 204,-256 247.2,-256 247.2,-299.2"/>
<text text-anchor="middle" x="225.6" y="-272.92" font-family="monospace" font-size="14.00" fill="#555555">1</text>
</g>
<!-- 12&#45;&gt;20 -->
<!-- 21 -->
<g id="node27" class="node">
<title>21</title>
<polygon fill="#dddddd" stroke="none" points="298.2,-299.2 255,-299.2 255,-256 298.2,-256 298.2,-299.2"/>
<text text-anchor="middle" x="276.6" y="-272.92" font-family="monospace" font-size="14.00" fill="#555555">2</text>
</g>
<!-- 13&#45;&gt;21 -->
<!-- 22 -->
<g id="node28" class="node">
<title>22</title>
<polygon fill="#dddddd" stroke="none" points="349.2,-299.2 306,-299.2 306,-256 349.2,-256 349.2,-299.2"/>
<text text-anchor="middle" x="327.6" y="-272.92" font-family="monospace" font-size="14.00" fill="#555555">2</text>
</g>
<!-- 14&#45;&gt;22 -->
<!-- 23 -->
<g id="node29" class="node">
<title>23</title>
<polygon fill="#dddddd" stroke="none" points="400.2,-299.2 357,-299.2 357,-256 400.2,-256 400.2,-299.2"/>
<text text-anchor="middle" x="378.6" y="-272.92" font-family="monospace" font-size="14.00" fill="#555555">3</text>
</g>
<!-- 15&#45;&gt;23 -->
<!-- 25 -->
<g id="node30" class="node">
<title>25</title>
<polygon fill="#dddddd" stroke="none" points="94.2,-248 51,-248 51,-204.8 94.2,-204.8 94.2,-248"/>
<text text-anchor="middle" x="72.6" y="-221.72" font-family="monospace" font-size="14.00" fill="#555555">13</text>
</g>
<!-- 17&#45;&gt;25 -->
<!-- 26 -->
<g id="node31" class="node">
<title>26</title>
<polygon fill="#dddddd" stroke="none" points="145.2,-248 102,-248 102,-204.8 145.2,-204.8 145.2,-248"/>
<text text-anchor="middle" x="123.6" y="-221.72" font-family="monospace" font-size="14.00" fill="#555555">12</text>
</g>
<!-- 18&#45;&gt;26 -->
<!-- 27 -->
<g id="node32" class="node">
<title>27</title>
<polygon fill="#eeeeee" stroke="none" points="196.2,-248 153,-248 153,-204.8 196.2,-204.8 196.2,-248"/>
<text text-anchor="middle" x="174.6" y="-221.72" font-family="monospace" font-size="14.00" fill="#999999">0</text>
</g>
<!-- 19&#45;&gt;27 -->
<!-- 28 -->
<g id="node33" class="node">
<title>28</title>
<polygon fill="#dddddd" stroke="none" points="247.2,-248 204,-248 204,-204.8 247.2,-204.8 247.2,-248"/>
<text text-anchor="middle" x="225.6" y="-221.72" font-family="monospace" font-size="14.00" fill="#555555">13</text>
</g>
<!-- 20&#45;&gt;28 -->
<!-- 29 -->
<g id="node34" class="node">
<title>29</title>
<polygon fill="#dddddd" stroke="none" points="298.2,-248 255,-248 255,-204.8 298.2,-204.8 298.2,-248"/>
<text text-anchor="middle" x="276.6" y="-221.72" font-family="monospace" font-size="14.00" fill="#555555">14</text>
</g>
<!-- 21&#45;&gt;29 -->
<!-- 30 -->
<g id="node35" class="node">
<title>30</title>
<polygon fill="#dddddd" stroke="none" points="349.2,-248 306,-248 306,-204.8 349.2,-204.8 349.2,-248"/>
<text text-anchor="middle" x="327.6" y="-221.72" font-family="monospace" font-size="14.00" fill="#555555">14</text>
</g>
<!-- 22&#45;&gt;30 -->
<!-- 31 -->
<g id="node36" class="node">
<title>31</title>
<polygon fill="#dddddd" stroke="none" points="400.2,-248 357,-248 357,-204.8 400.2,-204.8 400.2,-248"/>
<text text-anchor="middle" x="378.6" y="-221.72" font-family="monospace" font-size="14.00" fill="#555555">4</text>
</g>
<!-- 23&#45;&gt;31 -->
<!-- 33 -->
<g id="node37" class="node">
<title>33</title>
<polygon fill="#dddddd" stroke="none" points="94.2,-196.8 51,-196.8 51,-153.6 94.2,-153.6 94.2,-196.8"/>
<text text-anchor="middle" x="72.6" y="-170.52" font-family="monospace" font-size="14.00" fill="#555555">11</text>
</g>
<!-- 25&#45;&gt;33 -->
<!-- 34 -->
<g id="node38" class="node">
<title>34</title>
<polygon fill="#dddddd" stroke="none" points="145.2,-196.8 102,-196.8 102,-153.6 145.2,-153.6 145.2,-196.8"/>
<text text-anchor="middle" x="123.6" y="-170.52" font-family="monospace" font-size="14.00" fill="#555555">10</text>
</g>
<!-- 26&#45;&gt;34 -->
<!-- 35 -->
<g id="node39" class="node">
<title>35</title>
<polygon fill="#dddddd" stroke="none" points="196.2,-196.8 153,-196.8 153,-153.6 196.2,-153.6 196.2,-196.8"/>
<text text-anchor="middle" x="174.6" y="-170.52" font-family="monospace" font-size="14.00" fill="#555555">4</text>
</g>
<!-- 27&#45;&gt;35 -->
<!-- 36 -->
<g id="node40" class="node">
<title>36</title>
<polygon fill="#eeeeee" stroke="none" points="247.2,-196.8 204,-196.8 204,-153.6 247.2,-153.6 247.2,-196.8"/>
<text text-anchor="middle" x="225.6" y="-170.52" font-family="monospace" font-size="14.00" fill="#999999">0</text>
</g>
<!-- 28&#45;&gt;36 -->
<!-- 37 -->
<g id="node41" class="node">
<title>37</title>
<polygon fill="#dddddd" stroke="none" points="298.2,-196.8 255,-196.8 255,-153.6 298.2,-153.6 298.2,-196.8"/>
<text text-anchor="middle" x="276.6" y="-170.52" font-family="monospace" font-size="14.00" fill="#555555">1</text>
</g>
<!-- 29&#45;&gt;37 -->
<!-- 38 -->
<g id="node42" class="node">
<title>38</title>
<polygon fill="#dddddd" stroke="none" points="349.2,-196.8 306,-196.8 306,-153.6 349.2,-153.6 349.2,-196.8"/>
<text text-anchor="middle" x="327.6" y="-170.52" font-family="monospace" font-size="14.00" fill="#555555">2</text>
</g>
<!-- 30&#45;&gt;38 -->
<!-- 39 -->
<g id="node43" class="node">
<title>39</title>
<polygon fill="#dddddd" stroke="none" points="400.2,-196.8 357,-196.8 357,-153.6 400.2,-153.6 400.2,-196.8"/>
<text text-anchor="middle" x="378.6" y="-170.52" font-family="monospace" font-size="14.00" fill="#555555">1</text>
</g>
<!-- 31&#45;&gt;39 -->
<!-- 41 -->
<g id="node44" class="node">
<title>41</title>
<polygon fill="#dddddd" stroke="none" points="94.2,-145.6 51,-145.6 51,-102.4 94.2,-102.4 94.2,-145.6"/>
<text text-anchor="middle" x="72.6" y="-119.33" font-family="monospace" font-size="14.00" fill="#555555">16</text>
</g>
<!-- 33&#45;&gt;41 -->
<!-- 42 -->
<g id="node45" class="node">
<title>42</title>
<polygon fill="#dddddd" stroke="none" points="145.2,-145.6 102,-145.6 102,-102.4 145.2,-102.4 145.2,-145.6"/>
<text text-anchor="middle" x="123.6" y="-119.33" font-family="monospace" font-size="14.00" fill="#555555">15</text>
</g>
<!-- 34&#45;&gt;42 -->
<!-- 43 -->
<g id="node46" class="node">
<title>43</title>
<polygon fill="#dddddd" stroke="none" points="196.2,-145.6 153,-145.6 153,-102.4 196.2,-102.4 196.2,-145.6"/>
<text text-anchor="middle" x="174.6" y="-119.33" font-family="monospace" font-size="14.00" fill="#555555">3</text>
</g>
<!-- 35&#45;&gt;43 -->
<!-- 44 -->
<g id="node47" class="node">
<title>44</title>
<polygon fill="#dddddd" stroke="none" points="247.2,-145.6 204,-145.6 204,-102.4 247.2,-102.4 247.2,-145.6"/>
<text text-anchor="middle" x="225.6" y="-119.33" font-family="monospace" font-size="14.00" fill="#555555">16</text>
</g>
<!-- 36&#45;&gt;44 -->
<!-- 45 -->
<g id="node48" class="node">
<title>45</title>
<polygon fill="#eeeeee" stroke="none" points="298.2,-145.6 255,-145.6 255,-102.4 298.2,-102.4 298.2,-145.6"/>
<text text-anchor="middle" x="276.6" y="-119.33" font-family="monospace" font-size="14.00" fill="#999999">0</text>
</g>
<!-- 37&#45;&gt;45 -->
<!-- 46 -->
<g id="node49" class="node">
<title>46</title>
<polygon fill="#dddddd" stroke="none" points="349.2,-145.6 306,-145.6 306,-102.4 349.2,-102.4 349.2,-145.6"/>
<text text-anchor="middle" x="327.6" y="-119.33" font-family="monospace" font-size="14.00" fill="#555555">17</text>
</g>
<!-- 38&#45;&gt;46 -->
<!-- 47 -->
<g id="node50" class="node">
<title>47</title>
<polygon fill="#dddddd" stroke="none" points="400.2,-145.6 357,-145.6 357,-102.4 400.2,-102.4 400.2,-145.6"/>
<text text-anchor="middle" x="378.6" y="-119.33" font-family="monospace" font-size="14.00" fill="#555555">7</text>
</g>
<!-- 39&#45;&gt;47 -->
<!-- 49 -->
<g id="node51" class="node">
<title>49</title>
<polygon fill="#dddddd" stroke="none" points="94.2,-94.4 51,-94.4 51,-51.2 94.2,-51.2 94.2,-94.4"/>
<text text-anchor="middle" x="72.6" y="-68.12" font-family="monospace" font-size="14.00" fill="#555555">10</text>
</g>
<!-- 41&#45;&gt;49 -->
<!-- 50 -->
<g id="node52" class="node">
<title>50</title>
<polygon fill="#dddddd" stroke="none" points="145.2,-94.4 102,-94.4 102,-51.2 145.2,-51.2 145.2,-94.4"/>
<text text-anchor="middle" x="123.6" y="-68.12" font-family="monospace" font-size="14.00" fill="#555555">9</text>
</g>
<!-- 42&#45;&gt;50 -->
<!-- 51 -->
<g id="node53" class="node">
<title>51</title>
<polygon fill="#dddddd" stroke="none" points="196.2,-94.4 153,-94.4 153,-51.2 196.2,-51.2 196.2,-94.4"/>
<text text-anchor="middle" x="174.6" y="-68.12" font-family="monospace" font-size="14.00" fill="#555555">6</text>
</g>
<!-- 43&#45;&gt;51 -->
<!-- 52 -->
<g id="node54" class="node">
<title>52</title>
<polygon fill="#dddddd" stroke="none" points="247.2,-94.4 204,-94.4 204,-51.2 247.2,-51.2 247.2,-94.4"/>
<text text-anchor="middle" x="225.6" y="-68.12" font-family="monospace" font-size="14.00" fill="#555555">10</text>
</g>
<!-- 44&#45;&gt;52 -->
<!-- 53 -->
<g id="node55" class="node">
<title>53</title>
<polygon fill="#dddddd" stroke="none" points="298.2,-94.4 255,-94.4 255,-51.2 298.2,-51.2 298.2,-94.4"/>
<text text-anchor="middle" x="276.6" y="-68.12" font-family="monospace" font-size="14.00" fill="#555555">11</text>
</g>
<!-- 45&#45;&gt;53 -->
<!-- 54 -->
<g id="node56" class="node">
<title>54</title>
<polygon fill="#eeeeee" stroke="none" points="349.2,-94.4 306,-94.4 306,-51.2 349.2,-51.2 349.2,-94.4"/>
<text text-anchor="middle" x="327.6" y="-68.12" font-family="monospace" font-size="14.00" fill="#999999">0</text>
</g>
<!-- 46&#45;&gt;54 -->
<!-- 55 -->
<g id="node57" class="node">
<title>55</title>
<polygon fill="#dddddd" stroke="none" points="400.2,-94.4 357,-94.4 357,-51.2 400.2,-51.2 400.2,-94.4"/>
<text text-anchor="middle" x="378.6" y="-68.12" font-family="monospace" font-size="14.00" fill="#555555">1</text>
</g>
<!-- 47&#45;&gt;55 -->
<!-- 57 -->
<g id="node58" class="node">
<title>57</title>
<polygon fill="#dddddd" stroke="none" points="94.2,-43.2 51,-43.2 51,0 94.2,0 94.2,-43.2"/>
<text text-anchor="middle" x="72.6" y="-16.92" font-family="monospace" font-size="14.00" fill="#555555">9</text>
</g>
<!-- 49&#45;&gt;57 -->
<!-- 58 -->
<g id="node59" class="node">
<title>58</title>
<polygon fill="#dddddd" stroke="none" points="145.2,-43.2 102,-43.2 102,0 145.2,0 145.2,-43.2"/>
<text text-anchor="middle" x="123.6" y="-16.92" font-family="monospace" font-size="14.00" fill="#555555">8</text>
</g>
<!-- 50&#45;&gt;58 -->
<!-- 59 -->
<g id="node60" class="node">
<title>59</title>
<polygon fill="#dddddd" stroke="none" points="196.2,-43.2 153,-43.2 153,0 196.2,0 196.2,-43.2"/>
<text text-anchor="middle" x="174.6" y="-16.92" font-family="monospace" font-size="14.00" fill="#555555">5</text>
</g>
<!-- 51&#45;&gt;59 -->
<!-- 60 -->
<g id="node61" class="node">
<title>60</title>
<polygon fill="#dddddd" stroke="none" points="247.2,-43.2 204,-43.2 204,0 247.2,0 247.2,-43.2"/>
<text text-anchor="middle" x="225.6" y="-16.92" font-family="monospace" font-size="14.00" fill="#555555">9</text>
</g>
<!-- 52&#45;&gt;60 -->
<!-- 61 -->
<g id="node62" class="node">
<title>61</title>
<polygon fill="#dddddd" stroke="none" points="298.2,-43.2 255,-43.2 255,0 298.2,0 298.2,-43.2"/>
<text text-anchor="middle" x="276.6" y="-16.92" font-family="monospace" font-size="14.00" fill="#555555">10</text>
</g>
<!-- 53&#45;&gt;61 -->
<!-- 62 -->
<g id="node63" class="node">
<title>62</title>
<polygon fill="#dddddd" stroke="none" points="349.2,-43.2 306,-43.2 306,0 349.2,0 349.2,-43.2"/>
<text text-anchor="middle" x="327.6" y="-16.92" font-family="monospace" font-size="14.00" fill="#555555">10</text>
</g>
<!-- 54&#45;&gt;62 -->
<!-- 63 -->
<g id="node64" class="node">
<title>63</title>
<polygon fill="#eeeeee" stroke="none" points="400.2,-43.2 357,-43.2 357,0 400.2,0 400.2,-43.2"/>
<text text-anchor="middle" x="378.6" y="-16.92" font-family="monospace" font-size="14.00" fill="#999999">0</text>
</g>
<!-- 55&#45;&gt;63 -->
</g>
</svg>
