<?xml version="1.0" encoding="UTF-8" standalone="no"?>
<!DOCTYPE svg PUBLIC "-//W3C//DTD SVG 1.1//EN"
 "http://www.w3.org/Graphics/SVG/1.1/DTD/svg11.dtd">
<!-- Generated by graphviz version 12.0.0 (20240704.0754)
 -->
<!-- Pages: 1 -->
<svg width="277pt" height="456pt"
 viewBox="0.00 0.00 277.05 455.56" xmlns="http://www.w3.org/2000/svg" xmlns:xlink="http://www.w3.org/1999/xlink">
<g id="graph0" class="graph" transform="scale(1 1) rotate(0) translate(14.4 441.16)">
<polygon fill="white" stroke="none" points="-14.4,14.4 -14.4,-441.16 262.65,-441.16 262.65,14.4 -14.4,14.4"/>
<!-- 0 -->
<g id="node1" class="node">
<title>0</title>
<ellipse fill="none" stroke="black" stroke-width="2" cx="126" cy="-407.49" rx="19.27" ry="19.27"/>
<text text-anchor="start" x="121.88" y="-402.82" font-family="monospace" font-size="14.00">0</text>
</g>
<!-- 1 -->
<g id="node2" class="node">
<title>1</title>
<ellipse fill="none" stroke="black" stroke-width="2" cx="128" cy="-333.71" rx="19.27" ry="19.27"/>
<text text-anchor="start" x="123.88" y="-329.03" font-family="monospace" font-size="14.00">1</text>
</g>
<!-- 0&#45;&gt;1 -->
<g id="edge1" class="edge">
<title>0&#45;&gt;1</title>
<path fill="none" stroke="black" d="M114.17,-391.69C111.94,-388.13 109.94,-384.2 108.75,-380.22 106.3,-372.03 106.09,-369.11 108.75,-360.97 109.47,-358.77 110.45,-356.6 111.6,-354.51"/>
<polygon fill="black" stroke="black" points="113.15,-355.98 114.6,-349.79 109.61,-353.72 113.15,-355.98"/>
<text text-anchor="start" x="112" y="-367.67" font-family="monospace" font-size="9.00">5</text>
</g>
<!-- 2 -->
<g id="node3" class="node">
<title>2</title>
<ellipse fill="none" stroke="black" stroke-width="2" cx="66" cy="-93.06" rx="19.27" ry="19.27"/>
<text text-anchor="start" x="61.88" y="-88.38" font-family="monospace" font-size="14.00">2</text>
</g>
<!-- 0&#45;&gt;2 -->
<g id="edge2" class="edge">
<title>0&#45;&gt;2</title>
<path fill="none" stroke="black" d="M106.59,-404.38C71.24,-399.34 0,-383.17 0,-334.71 0,-334.71 0,-334.71 0,-185.13 0,-153.99 25.62,-126.3 44.94,-109.85"/>
<polygon fill="black" stroke="black" points="46.22,-111.51 49.52,-106.07 43.56,-108.26 46.22,-111.51"/>
<text text-anchor="start" x="4" y="-256.99" font-family="monospace" font-size="9.00">3</text>
</g>
<!-- 3 -->
<g id="node4" class="node">
<title>3</title>
<ellipse fill="none" stroke="black" stroke-width="2" cx="182" cy="-259.92" rx="19.27" ry="19.27"/>
<text text-anchor="start" x="177.88" y="-255.24" font-family="monospace" font-size="14.00">3</text>
</g>
<!-- 0&#45;&gt;3 -->
<g id="edge3" class="edge">
<title>0&#45;&gt;3</title>
<path fill="none" stroke="black" d="M137.15,-391.24C139.54,-387.7 141.96,-383.9 144,-380.22 150.97,-367.71 174.88,-306.86 175,-306.44 176.75,-300.12 178.09,-293.19 179.12,-286.68"/>
<polygon fill="black" stroke="black" points="181.19,-287.02 179.96,-280.79 177.03,-286.43 181.19,-287.02"/>
<text text-anchor="start" x="175" y="-330.78" font-family="monospace" font-size="9.00">2</text>
</g>
<!-- 4 -->
<g id="node5" class="node">
<title>4</title>
<ellipse fill="none" stroke="black" stroke-width="2" cx="71" cy="-186.13" rx="19.27" ry="19.27"/>
<text text-anchor="start" x="66.88" y="-181.46" font-family="monospace" font-size="14.00">4</text>
</g>
<!-- 0&#45;&gt;4 -->
<g id="edge4" class="edge">
<title>0&#45;&gt;4</title>
<path fill="none" stroke="black" d="M112,-393.93C108.24,-389.89 104.53,-385.18 102,-380.22 74.07,-325.51 70.13,-251.68 70.23,-213.09"/>
<polygon fill="black" stroke="black" points="72.32,-213.39 70.28,-207.37 68.13,-213.35 72.32,-213.39"/>
<text text-anchor="start" x="82" y="-293.89" font-family="monospace" font-size="9.00">4</text>
</g>
<!-- 1&#45;&gt;0 -->
<g id="edge5" class="edge">
<title>1&#45;&gt;0</title>
<path fill="none" stroke="black" d="M127.48,-353.38C127.25,-361.71 126.97,-371.67 126.72,-380.7"/>
<polygon fill="black" stroke="black" points="124.63,-380.44 126.56,-386.49 128.82,-380.55 124.63,-380.44"/>
<text text-anchor="start" x="131" y="-367.67" font-family="monospace" font-size="9.00">3</text>
</g>
<!-- 1&#45;&gt;3 -->
<g id="edge6" class="edge">
<title>1&#45;&gt;3</title>
<path fill="none" stroke="black" d="M139.18,-317.48C145.72,-308.61 154.16,-297.23 161.75,-287.19 163.14,-285.35 164.59,-283.44 166.05,-281.54"/>
<polygon fill="black" stroke="black" points="167.48,-283.12 169.46,-277.08 164.15,-280.57 167.48,-283.12"/>
<text text-anchor="start" x="165" y="-293.89" font-family="monospace" font-size="9.00">1</text>
</g>
<!-- 1&#45;&gt;4 -->
<g id="edge7" class="edge">
<title>1&#45;&gt;4</title>
<path fill="none" stroke="black" d="M119.17,-316.36C117.43,-313.08 115.64,-309.66 114,-306.44 107.89,-294.44 105.78,-291.68 100.75,-279.19 91.78,-256.9 83.55,-230.79 78.03,-212.07"/>
<polygon fill="black" stroke="black" points="80.1,-211.67 76.4,-206.49 76.07,-212.84 80.1,-211.67"/>
<text text-anchor="start" x="104" y="-256.99" font-family="monospace" font-size="9.00">2</text>
</g>
<!-- 6 -->
<g id="node7" class="node">
<title>6</title>
<ellipse fill="none" stroke="black" stroke-width="2" cx="128" cy="-19.27" rx="19.27" ry="19.27"/>
<text text-anchor="start" x="123.88" y="-14.59" font-family="monospace" font-size="14.00">6</text>
</g>
<!-- 2&#45;&gt;6 -->
<g id="edge8" class="edge">
<title>2&#45;&gt;6</title>
<path fill="none" stroke="black" d="M76.72,-76.84C83.32,-67.77 92.15,-56.19 100.75,-46.54 103.32,-43.66 106.14,-40.71 108.97,-37.89"/>
<polygon fill="black" stroke="black" points="110.1,-39.72 112.93,-34.03 107.17,-36.72 110.1,-39.72"/>
<text text-anchor="start" x="104" y="-53.24" font-family="monospace" font-size="9.00">4</text>
</g>
<!-- 3&#45;&gt;4 -->
<g id="edge9" class="edge">
<title>3&#45;&gt;4</title>
<path fill="none" stroke="black" d="M166.1,-248.63C146.89,-236.21 114.49,-215.25 92.92,-201.31"/>
<polygon fill="black" stroke="black" points="94.32,-199.71 88.15,-198.22 92.04,-203.24 94.32,-199.71"/>
<text text-anchor="start" x="143" y="-220.1" font-family="monospace" font-size="9.00">1</text>
</g>
<!-- 5 -->
<g id="node6" class="node">
<title>5</title>
<ellipse fill="none" stroke="black" stroke-width="2" cx="196" cy="-139.59" rx="19.27" ry="19.27"/>
<text text-anchor="start" x="191.88" y="-134.92" font-family="monospace" font-size="14.00">5</text>
</g>
<!-- 3&#45;&gt;5 -->
<g id="edge10" class="edge">
<title>3&#45;&gt;5</title>
<path fill="none" stroke="black" d="M184.19,-240.43C186.55,-220.46 190.33,-188.5 192.98,-166.14"/>
<polygon fill="black" stroke="black" points="195.03,-166.66 193.65,-160.45 190.86,-166.17 195.03,-166.66"/>
<text text-anchor="start" x="191" y="-220.1" font-family="monospace" font-size="9.00">1</text>
</g>
<!-- 4&#45;&gt;2 -->
<g id="edge11" class="edge">
<title>4&#45;&gt;2</title>
<path fill="none" stroke="black" d="M69.99,-166.7C69.25,-153.33 68.25,-135.07 67.44,-120.2"/>
<polygon fill="black" stroke="black" points="69.54,-120.16 67.11,-114.28 65.34,-120.39 69.54,-120.16"/>
<text text-anchor="start" x="73" y="-136.67" font-family="monospace" font-size="9.00">3</text>
</g>
<!-- 5&#45;&gt;6 -->
<g id="edge12" class="edge">
<title>5&#45;&gt;6</title>
<path fill="none" stroke="black" d="M186.83,-122.64C174.97,-101.99 154.24,-65.92 140.82,-42.58"/>
<polygon fill="black" stroke="black" points="142.81,-41.82 138,-37.66 139.17,-43.91 142.81,-41.82"/>
<text text-anchor="start" x="184" y="-90.13" font-family="monospace" font-size="9.00">1</text>
</g>
<!-- 6&#45;&gt;0 -->
<g id="edge13" class="edge">
<title>6&#45;&gt;0</title>
<path fill="none" stroke="black" d="M147.13,-23.99C177.91,-31.2 235,-50.22 235,-92.06 235,-334.71 235,-334.71 235,-334.71 235,-374.2 184.46,-393.2 152.21,-401.29"/>
<polygon fill="black" stroke="black" points="152.06,-399.17 146.71,-402.6 153.03,-403.26 152.06,-399.17"/>
<text text-anchor="start" x="239" y="-220.1" font-family="monospace" font-size="9.00">9</text>
</g>
<!-- 6&#45;&gt;1 -->
<g id="edge14" class="edge">
<title>6&#45;&gt;1</title>
<path fill="none" stroke="black" d="M128,-38.86C128,-53.35 128,-73.98 128,-92.06 128,-260.92 128,-260.92 128,-260.92 128,-276.17 128,-293.24 128,-306.9"/>
<polygon fill="black" stroke="black" points="125.9,-306.6 128,-312.6 130.1,-306.6 125.9,-306.6"/>
<text text-anchor="start" x="132" y="-183.21" font-family="monospace" font-size="9.00">8</text>
</g>
<!-- 6&#45;&gt;2 -->
<g id="edge15" class="edge">
<title>6&#45;&gt;2</title>
<path fill="none" stroke="black" d="M108.81,-23.16C94.92,-26.35 77.02,-32.97 67.75,-46.54 63.82,-52.29 62.39,-59.48 62.2,-66.43"/>
<polygon fill="black" stroke="black" points="60.1,-66.36 62.38,-72.29 64.3,-66.23 60.1,-66.36"/>
<text text-anchor="start" x="71" y="-53.24" font-family="monospace" font-size="9.00">5</text>
</g>
</g>
</svg>
