<?xml version="1.0" encoding="UTF-8" standalone="no"?>
<!DOCTYPE svg PUBLIC "-//W3C//DTD SVG 1.1//EN"
 "http://www.w3.org/Graphics/SVG/1.1/DTD/svg11.dtd">
<!-- Generated by graphviz version 12.0.0 (20240704.0754)
 -->
<!-- Pages: 1 -->
<svg width="284pt" height="623pt"
 viewBox="0.00 0.00 284.05 623.40" xmlns="http://www.w3.org/2000/svg" xmlns:xlink="http://www.w3.org/1999/xlink">
<g id="graph0" class="graph" transform="scale(1 1) rotate(0) translate(14.4 609)">
<polygon fill="white" stroke="none" points="-14.4,14.4 -14.4,-609 269.65,-609 269.65,14.4 -14.4,14.4"/>
<!-- 0 -->
<g id="node1" class="node">
<title>0</title>
<ellipse fill="none" stroke="black" stroke-width="2" cx="118" cy="-562.2" rx="32.4" ry="32.4"/>
<text text-anchor="start" x="113.88" y="-565.27" font-family="monospace" font-weight="bold" font-size="14.00">0</text>
<text text-anchor="start" x="94.38" y="-550.87" font-family="monospace" font-size="11.00">d(1)=</text>
<text text-anchor="start" x="128.12" y="-550.87" font-family="monospace" font-weight="bold" font-size="11.00">16</text>
</g>
<!-- 1 -->
<g id="node2" class="node">
<title>1</title>
<ellipse fill="none" stroke="black" stroke-width="2" cx="118" cy="-466.15" rx="32.4" ry="32.4"/>
<text text-anchor="start" x="113.88" y="-469.22" font-family="monospace" font-weight="bold" font-size="14.00">1</text>
<text text-anchor="start" x="94.38" y="-454.82" font-family="monospace" font-size="11.00">d(1)=</text>
<text text-anchor="start" x="128.12" y="-454.82" font-family="monospace" font-weight="bold" font-size="11.00">15</text>
</g>
<!-- 0&#45;&gt;1 -->
<g id="edge1" class="edge">
<title>0&#45;&gt;1</title>
<path fill="none" stroke="black" d="M105.3,-531.85C104.26,-528.51 103.37,-525.12 102.75,-521.8 101.62,-515.75 101.95,-509.39 103.1,-503.24"/>
<polygon fill="black" stroke="black" points="105.09,-503.94 104.43,-497.61 101,-502.97 105.09,-503.94"/>
<text text-anchor="start" x="104" y="-511.25" font-family="monospace" font-size="9.00">5</text>
</g>
<!-- 2 -->
<g id="node3" class="node">
<title>2</title>
<ellipse fill="none" stroke="black" stroke-width="2" cx="64" cy="-128.45" rx="32.4" ry="32.4"/>
<text text-anchor="start" x="59.88" y="-131.52" font-family="monospace" font-weight="bold" font-size="14.00">2</text>
<text text-anchor="start" x="43.75" y="-117.12" font-family="monospace" font-size="11.00">d(2)=</text>
<text text-anchor="start" x="77.5" y="-117.12" font-family="monospace" font-weight="bold" font-size="11.00">3</text>
</g>
<!-- 0&#45;&gt;2 -->
<g id="edge2" class="edge">
<title>0&#45;&gt;2</title>
<path fill="none" stroke="black" d="M87,-551.57C52.04,-538.55 0,-511.69 0,-467.15 0,-467.15 0,-467.15 0,-273.05 0,-231.69 22.43,-188.98 40.73,-161.01"/>
<polygon fill="black" stroke="black" points="42.37,-162.33 43.96,-156.18 38.88,-160 42.37,-162.33"/>
<text text-anchor="start" x="4" y="-367.17" font-family="monospace" font-size="9.00">3</text>
</g>
<!-- 3 -->
<g id="node4" class="node">
<title>3</title>
<ellipse fill="none" stroke="black" stroke-width="2" cx="186" cy="-370.1" rx="32.4" ry="32.4"/>
<text text-anchor="start" x="181.88" y="-373.17" font-family="monospace" font-weight="bold" font-size="14.00">3</text>
<text text-anchor="start" x="162.38" y="-358.77" font-family="monospace" font-size="11.00">d(3)=</text>
<text text-anchor="start" x="196.12" y="-358.77" font-family="monospace" font-weight="bold" font-size="11.00">16</text>
</g>
<!-- 0&#45;&gt;3 -->
<g id="edge3" class="edge">
<title>0&#45;&gt;3</title>
<path fill="none" stroke="black" d="M137.65,-535.89C145.32,-524.93 153.56,-511.63 159,-498.55 170.82,-470.13 177.7,-435.92 181.56,-410.1"/>
<polygon fill="black" stroke="black" points="183.63,-410.44 182.4,-404.21 179.47,-409.85 183.63,-410.44"/>
<text text-anchor="start" x="179" y="-463.22" font-family="monospace" font-size="9.00">2</text>
</g>
<!-- 4 -->
<g id="node5" class="node">
<title>4</title>
<ellipse fill="none" stroke="black" stroke-width="2" cx="60" cy="-274.05" rx="32.4" ry="32.4"/>
<text text-anchor="start" x="55.88" y="-277.12" font-family="monospace" font-weight="bold" font-size="14.00">4</text>
<text text-anchor="start" x="36.38" y="-262.73" font-family="monospace" font-size="11.00">e(4)=</text>
<text text-anchor="start" x="70.12" y="-262.73" font-family="monospace" font-weight="bold" font-size="11.00">17</text>
</g>
<!-- 0&#45;&gt;4 -->
<g id="edge4" class="edge">
<title>0&#45;&gt;4</title>
<path fill="none" stroke="black" d="M97.7,-536.52C89.82,-525.56 81.6,-512.09 77,-498.55 55.94,-436.6 55.21,-359.61 57.19,-314.07"/>
<polygon fill="black" stroke="black" points="59.28,-314.37 57.47,-308.27 55.08,-314.16 59.28,-314.37"/>
<text text-anchor="start" x="62" y="-415.2" font-family="monospace" font-size="9.00">4</text>
</g>
<!-- 1&#45;&gt;0 -->
<g id="edge5" class="edge">
<title>1&#45;&gt;0</title>
<path fill="none" stroke="black" d="M118,-498.96C118,-506.31 118,-514.22 118,-521.85"/>
<polygon fill="black" stroke="black" points="115.9,-521.85 118,-527.85 120.1,-521.85 115.9,-521.85"/>
<text text-anchor="start" x="120" y="-511.25" font-family="monospace" font-size="9.00">3</text>
</g>
<!-- 1&#45;&gt;3 -->
<g id="edge6" class="edge">
<title>1&#45;&gt;3</title>
<path fill="none" stroke="red" stroke-width="2" d="M136.76,-439.2C144.86,-428 154.42,-414.78 162.95,-402.98"/>
<polygon fill="red" stroke="red" stroke-width="2" points="163.71,-405.51 165.53,-399.42 160.31,-403.05 163.71,-405.51"/>
<text text-anchor="start" x="158" y="-415.2" font-family="monospace" font-size="9.00">1</text>
</g>
<!-- 1&#45;&gt;4 -->
<g id="edge7" class="edge">
<title>1&#45;&gt;4</title>
<path fill="none" stroke="black" d="M108.68,-434.61C98.53,-401.35 82.3,-348.14 71.4,-312.42"/>
<polygon fill="black" stroke="black" points="73.5,-312.09 69.74,-306.96 69.48,-313.32 73.5,-312.09"/>
<text text-anchor="start" x="100" y="-367.17" font-family="monospace" font-size="9.00">2</text>
</g>
<!-- 6 -->
<g id="node7" class="node">
<title>6</title>
<ellipse fill="none" stroke="black" stroke-width="2" cx="128" cy="-32.4" rx="32.4" ry="32.4"/>
<text text-anchor="start" x="123.88" y="-35.47" font-family="monospace" font-weight="bold" font-size="14.00">6</text>
<text text-anchor="start" x="107.75" y="-21.07" font-family="monospace" font-size="11.00">d(6)=</text>
<text text-anchor="start" x="141.5" y="-21.07" font-family="monospace" font-weight="bold" font-size="11.00">7</text>
</g>
<!-- 2&#45;&gt;6 -->
<g id="edge8" class="edge">
<title>2&#45;&gt;6</title>
<path fill="none" stroke="red" stroke-width="2" d="M82,-101C89.49,-89.99 98.26,-77.1 106.12,-65.55"/>
<polygon fill="red" stroke="red" stroke-width="2" points="106.79,-68.29 108.43,-62.15 103.32,-65.93 106.79,-68.29"/>
<text text-anchor="start" x="101" y="-77.5" font-family="monospace" font-size="9.00">4</text>
</g>
<!-- 3&#45;&gt;4 -->
<g id="edge9" class="edge">
<title>3&#45;&gt;4</title>
<path fill="none" stroke="black" d="M160.2,-349.84C140.32,-335.01 112.75,-314.43 91.56,-298.61"/>
<polygon fill="black" stroke="black" points="93.04,-297.1 86.98,-295.19 90.53,-300.46 93.04,-297.1"/>
<text text-anchor="start" x="132" y="-319.15" font-family="monospace" font-size="9.00">1</text>
</g>
<!-- 5 -->
<g id="node6" class="node">
<title>5</title>
<ellipse fill="none" stroke="black" stroke-width="2" cx="187" cy="-201.25" rx="32.4" ry="32.4"/>
<text text-anchor="start" x="182.88" y="-204.32" font-family="monospace" font-weight="bold" font-size="14.00">5</text>
<text text-anchor="start" x="163.38" y="-189.93" font-family="monospace" font-size="11.00">d(5)=</text>
<text text-anchor="start" x="197.12" y="-189.93" font-family="monospace" font-weight="bold" font-size="11.00">17</text>
</g>
<!-- 3&#45;&gt;5 -->
<g id="edge10" class="edge">
<title>3&#45;&gt;5</title>
<path fill="none" stroke="red" stroke-width="2" d="M186.19,-337.32C186.35,-309.95 186.59,-270.36 186.77,-241.11"/>
<polygon fill="red" stroke="red" stroke-width="2" points="188.86,-242.95 186.79,-236.93 184.66,-242.92 188.86,-242.95"/>
<text text-anchor="start" x="188" y="-319.15" font-family="monospace" font-size="9.00">1</text>
</g>
<!-- 4&#45;&gt;2 -->
<g id="edge11" class="edge">
<title>4&#45;&gt;2</title>
<path fill="none" stroke="red" stroke-width="2" d="M60.89,-241.18C61.48,-219.8 62.27,-191.49 62.91,-168.72"/>
<polygon fill="red" stroke="red" stroke-width="2" points="64.96,-170.31 63.03,-164.26 60.76,-170.2 64.96,-170.31"/>
<text text-anchor="start" x="64" y="-198.32" font-family="monospace" font-size="9.00">3</text>
</g>
<!-- 5&#45;&gt;6 -->
<g id="edge12" class="edge">
<title>5&#45;&gt;6</title>
<path fill="none" stroke="black" d="M176.38,-170.12C167.27,-144.29 153.79,-106.09 142,-72.8 141.69,-71.91 141.37,-71.02 141.05,-70.11"/>
<polygon fill="black" stroke="black" points="143.05,-69.47 139.06,-64.51 139.09,-70.87 143.05,-69.47"/>
<text text-anchor="start" x="174" y="-125.52" font-family="monospace" font-size="9.00">1</text>
</g>
<!-- 6&#45;&gt;0 -->
<g id="edge13" class="edge">
<title>6&#45;&gt;0</title>
<path fill="none" stroke="black" d="M159,-43.03C193.96,-56.05 246,-82.91 246,-127.45 246,-467.15 246,-467.15 246,-467.15 246,-512.19 193.89,-538.04 156.17,-550.86"/>
<polygon fill="black" stroke="black" points="155.8,-548.77 150.75,-552.63 157.11,-552.76 155.8,-548.77"/>
<text text-anchor="start" x="248" y="-319.15" font-family="monospace" font-size="9.00">9</text>
</g>
<!-- 6&#45;&gt;1 -->
<g id="edge14" class="edge">
<title>6&#45;&gt;1</title>
<path fill="none" stroke="red" stroke-width="2" d="M127.26,-65.19C125.47,-142.75 120.86,-341.45 118.91,-426.06"/>
<polygon fill="red" stroke="red" stroke-width="2" points="116.85,-424.33 118.81,-430.38 121.04,-424.43 116.85,-424.33"/>
<text text-anchor="start" x="125" y="-271.12" font-family="monospace" font-size="9.00">8</text>
</g>
<!-- 6&#45;&gt;2 -->
<g id="edge15" class="edge">
<title>6&#45;&gt;2</title>
<path fill="none" stroke="black" d="M100.57,-50.42C92.53,-56.59 84.39,-64.19 78.75,-72.8 75.57,-77.66 73.07,-83.18 71.11,-88.81"/>
<polygon fill="black" stroke="black" points="69.12,-88.14 69.35,-94.5 73.13,-89.39 69.12,-88.14"/>
<text text-anchor="start" x="80" y="-77.5" font-family="monospace" font-size="9.00">5</text>
</g>
</g>
</svg>
