<?xml version="1.0" encoding="UTF-8" standalone="no"?>
<!DOCTYPE svg PUBLIC "-//W3C//DTD SVG 1.1//EN"
 "http://www.w3.org/Graphics/SVG/1.1/DTD/svg11.dtd">
<!-- Generated by graphviz version 12.0.0 (20240704.0754)
 -->
<!-- Pages: 1 -->
<svg width="180pt" height="198pt"
 viewBox="0.00 0.00 179.70 198.09" xmlns="http://www.w3.org/2000/svg" xmlns:xlink="http://www.w3.org/1999/xlink">
<g id="graph0" class="graph" transform="scale(1 1) rotate(0) translate(14.4 183.69)">
<polygon fill="white" stroke="none" points="-14.4,14.4 -14.4,-183.69 165.3,-183.69 165.3,14.4 -14.4,14.4"/>
<!-- 0 -->
<g id="node1" class="node">
<title>0</title>
<ellipse fill="none" stroke="black" cx="56.11" cy="-84.66" rx="18" ry="18"/>
<text text-anchor="middle" x="56.11" y="-79.99" font-family="monospace" font-size="14.00">0</text>
</g>
<!-- 1 -->
<g id="node2" class="node">
<title>1</title>
<ellipse fill="none" stroke="black" cx="132.9" cy="-84.66" rx="18" ry="18"/>
<text text-anchor="middle" x="132.9" y="-79.99" font-family="monospace" font-size="14.00">1</text>
</g>
<!-- 0&#45;&gt;1 -->
<g id="edge1" class="edge">
<title>0&#45;&gt;1</title>
<path fill="none" stroke="white" d="M74.31,-84.66C84.09,-84.66 96.31,-84.66 107.06,-84.66"/>
<polygon fill="white" stroke="white" points="107.06,-86.76 113.06,-84.66 107.06,-82.56 107.06,-86.76"/>
</g>
<!-- 2 -->
<g id="node3" class="node">
<title>2</title>
<ellipse fill="none" stroke="black" cx="18.06" cy="-18" rx="18" ry="18"/>
<text text-anchor="middle" x="18.06" y="-13.32" font-family="monospace" font-size="14.00">2</text>
</g>
<!-- 0&#45;&gt;2 -->
<g id="edge2" class="edge">
<title>0&#45;&gt;2</title>
<path fill="none" stroke="white" d="M47.1,-68.87C42.17,-60.23 35.99,-49.4 30.6,-39.96"/>
<polygon fill="white" stroke="white" points="32.56,-39.17 27.77,-35 28.92,-41.25 32.56,-39.17"/>
</g>
<!-- 3 -->
<g id="node4" class="node">
<title>3</title>
<ellipse fill="none" stroke="black" cx="18" cy="-151.29" rx="18" ry="18"/>
<text text-anchor="middle" x="18" y="-146.61" font-family="monospace" font-size="14.00">3</text>
</g>
<!-- 0&#45;&gt;3 -->
<g id="edge3" class="edge">
<title>0&#45;&gt;3</title>
<path fill="none" stroke="white" d="M47.08,-100.45C42.15,-109.08 35.95,-119.9 30.55,-129.34"/>
<polygon fill="white" stroke="white" points="28.88,-128.05 27.72,-134.3 32.52,-130.13 28.88,-128.05"/>
</g>
</g>
</svg>
