<?xml version="1.0" encoding="UTF-8" standalone="no"?>
<!DOCTYPE svg PUBLIC "-//W3C//DTD SVG 1.1//EN"
 "http://www.w3.org/Graphics/SVG/1.1/DTD/svg11.dtd">
<!-- Generated by graphviz version 12.0.0 (20240704.0754)
 -->
<!-- Pages: 1 -->
<svg width="142pt" height="154pt"
 viewBox="0.00 0.00 142.15 154.12" xmlns="http://www.w3.org/2000/svg" xmlns:xlink="http://www.w3.org/1999/xlink">
<g id="graph0" class="graph" transform="scale(1 1) rotate(0) translate(14.4 139.72)">
<polygon fill="white" stroke="none" points="-14.4,14.4 -14.4,-139.72 127.75,-139.72 127.75,14.4 -14.4,14.4"/>
<!-- 0 -->
<g id="node1" class="node">
<title>0</title>
<ellipse fill="none" stroke="black" cx="18" cy="-18" rx="18" ry="18"/>
<text text-anchor="middle" x="18" y="-13.32" font-family="monospace" font-size="14.00">0</text>
</g>
<!-- 1 -->
<g id="node2" class="node">
<title>1</title>
<ellipse fill="none" stroke="black" cx="18" cy="-107.32" rx="18" ry="18"/>
<text text-anchor="middle" x="18" y="-102.64" font-family="monospace" font-size="14.00">1</text>
</g>
<!-- 0&#45;&gt;1 -->
<g id="edge1" class="edge">
<title>0&#45;&gt;1</title>
<path fill="none" stroke="white" d="M18,-36.07C18,-49.42 18,-67.76 18,-82.48"/>
<polygon fill="white" stroke="white" points="16.25,-82.45 18,-87.45 19.75,-82.45 16.25,-82.45"/>
</g>
<!-- 2 -->
<g id="node3" class="node">
<title>2</title>
<ellipse fill="none" stroke="black" cx="95.35" cy="-62.66" rx="18" ry="18"/>
<text text-anchor="middle" x="95.35" y="-57.98" font-family="monospace" font-size="14.00">2</text>
</g>
<!-- 1&#45;&gt;2 -->
<g id="edge2" class="edge">
<title>1&#45;&gt;2</title>
<path fill="none" stroke="white" d="M33.65,-98.28C45.21,-91.6 61.09,-82.44 73.84,-75.07"/>
<polygon fill="white" stroke="white" points="74.69,-76.61 78.14,-72.59 72.94,-73.58 74.69,-76.61"/>
</g>
<!-- 2&#45;&gt;0 -->
<g id="edge3" class="edge">
<title>2&#45;&gt;0</title>
<path fill="none" stroke="white" d="M79.7,-53.62C68.14,-46.95 52.26,-37.78 39.51,-30.42"/>
<polygon fill="white" stroke="white" points="40.41,-28.92 35.21,-27.93 38.66,-31.95 40.41,-28.92"/>
</g>
</g>
</svg>
