<?xml version="1.0" encoding="UTF-8" standalone="no"?>
<!DOCTYPE svg PUBLIC "-//W3C//DTD SVG 1.1//EN"
 "http://www.w3.org/Graphics/SVG/1.1/DTD/svg11.dtd">
<!-- Generated by graphviz version 12.0.0 (20240704.0754)
 -->
<!-- Pages: 1 -->
<svg width="159pt" height="155pt"
 viewBox="0.00 0.00 158.51 154.99" xmlns="http://www.w3.org/2000/svg" xmlns:xlink="http://www.w3.org/1999/xlink">
<g id="graph0" class="graph" transform="scale(1 1) rotate(0) translate(14.4 140.59)">
<polygon fill="white" stroke="none" points="-14.4,14.4 -14.4,-140.59 144.11,-140.59 144.11,14.4 -14.4,14.4"/>
<!-- 1 -->
<g id="node1" class="node">
<title>1</title>
<ellipse fill="none" stroke="black" cx="18" cy="-55.04" rx="18" ry="18"/>
<text text-anchor="middle" x="18" y="-50.36" font-family="monospace" font-size="14.00">1</text>
</g>
<!-- 2 -->
<g id="node2" class="node">
<title>2</title>
<ellipse fill="none" stroke="black" cx="111.71" cy="-57.26" rx="18" ry="18"/>
<text text-anchor="middle" x="111.71" y="-52.59" font-family="monospace" font-size="14.00">2</text>
</g>
<!-- 1&#45;&gt;2 -->
<g id="edge2" class="edge">
<title>1&#45;&gt;2</title>
<path fill="none" stroke="white" d="M36.07,-55.47C50.62,-55.81 71.23,-56.3 87.26,-56.68"/>
<polygon fill="white" stroke="white" points="86.82,-58.42 91.86,-56.79 86.91,-54.92 86.82,-58.42"/>
</g>
<!-- 3 -->
<g id="node3" class="node">
<title>3</title>
<ellipse fill="none" stroke="black" cx="68.41" cy="-18" rx="18" ry="18"/>
<text text-anchor="middle" x="68.41" y="-13.32" font-family="monospace" font-size="14.00">3</text>
</g>
<!-- 2&#45;&gt;3 -->
<g id="edge3" class="edge">
<title>2&#45;&gt;3</title>
<path fill="none" stroke="white" d="M98.01,-44.84C94.39,-41.55 90.42,-37.96 86.6,-34.49"/>
<polygon fill="white" stroke="white" points="87.88,-33.29 83,-31.22 85.52,-35.88 87.88,-33.29"/>
</g>
<!-- 0 -->
<g id="node4" class="node">
<title>0</title>
<ellipse fill="none" stroke="black" cx="41.74" cy="-108.19" rx="18" ry="18"/>
<text text-anchor="middle" x="41.74" y="-103.52" font-family="monospace" font-size="14.00">0</text>
</g>
<!-- 3&#45;&gt;0 -->
<g id="edge4" class="edge">
<title>3&#45;&gt;0</title>
<path fill="none" stroke="white" d="M63.27,-35.39C59.13,-49.4 53.26,-69.23 48.7,-84.66"/>
<polygon fill="white" stroke="white" points="47.13,-83.81 47.39,-89.1 50.48,-84.8 47.13,-83.81"/>
</g>
<!-- 0&#45;&gt;1 -->
<g id="edge1" class="edge">
<title>0&#45;&gt;1</title>
<path fill="none" stroke="white" d="M34.23,-91.37C32.28,-87.01 30.15,-82.24 28.09,-77.64"/>
<polygon fill="white" stroke="white" points="29.8,-77.16 26.16,-73.31 26.6,-78.59 29.8,-77.16"/>
</g>
</g>
</svg>
