<?xml version="1.0" encoding="UTF-8" standalone="no"?>
<!DOCTYPE svg PUBLIC "-//W3C//DTD SVG 1.1//EN"
 "http://www.w3.org/Graphics/SVG/1.1/DTD/svg11.dtd">
<!-- Generated by graphviz version 12.0.0 (20240704.0754)
 -->
<!-- Pages: 1 -->
<svg width="173pt" height="65pt"
 viewBox="0.00 0.00 172.80 64.80" xmlns="http://www.w3.org/2000/svg" xmlns:xlink="http://www.w3.org/1999/xlink">
<g id="graph0" class="graph" transform="scale(1 1) rotate(0) translate(14.4 50.4)">
<polygon fill="white" stroke="none" points="-14.4,14.4 -14.4,-50.4 158.4,-50.4 158.4,14.4 -14.4,14.4"/>
<!-- 0 -->
<g id="node1" class="node">
<title>0</title>
<ellipse fill="none" stroke="black" cx="18" cy="-18" rx="18" ry="18"/>
<text text-anchor="middle" x="18" y="-13.32" font-family="monospace" font-size="14.00">0</text>
</g>
<!-- 1 -->
<g id="node2" class="node">
<title>1</title>
<ellipse fill="none" stroke="black" cx="126" cy="-18" rx="18" ry="18"/>
<text text-anchor="middle" x="126" y="-13.32" font-family="monospace" font-size="14.00">1</text>
</g>
<!-- 0&#45;&gt;1 -->
<g id="edge1" class="edge">
<title>0&#45;&gt;1</title>
<path fill="none" stroke="white" d="M35.35,-23.11C53.12,-25.04 80.9,-25.26 101.03,-23.8"/>
<polygon fill="white" stroke="white" points="101.03,-25.9 106.82,-23.28 100.66,-21.72 101.03,-25.9"/>
</g>
<!-- 1&#45;&gt;0 -->
<g id="edge2" class="edge">
<title>1&#45;&gt;0</title>
<path fill="none" stroke="white" d="M108.65,-12.89C90.88,-10.96 63.1,-10.74 42.97,-12.2"/>
<polygon fill="white" stroke="white" points="42.97,-10.1 37.18,-12.72 43.34,-14.28 42.97,-10.1"/>
</g>
</g>
</svg>
