<?xml version="1.0" encoding="UTF-8" standalone="no"?>
<!DOCTYPE svg PUBLIC "-//W3C//DTD SVG 1.1//EN"
 "http://www.w3.org/Graphics/SVG/1.1/DTD/svg11.dtd">
<!-- Generated by graphviz version 12.0.0 (20240704.0754)
 -->
<!-- Pages: 1 -->
<svg width="136pt" height="75pt"
 viewBox="0.00 0.00 136.01 75.44" xmlns="http://www.w3.org/2000/svg" xmlns:xlink="http://www.w3.org/1999/xlink">
<g id="graph0" class="graph" transform="scale(1 1) rotate(0) translate(14.4 61.04)">
<polygon fill="white" stroke="none" points="-14.4,14.4 -14.4,-61.04 121.61,-61.04 121.61,14.4 -14.4,14.4"/>
<!-- 0 -->
<g id="node1" class="node">
<title>0</title>
<ellipse fill="none" stroke="black" cx="18" cy="-28.64" rx="18" ry="18"/>
<text text-anchor="middle" x="18" y="-23.96" font-family="monospace" font-size="14.00">0</text>
</g>
<!-- 1 -->
<g id="node2" class="node">
<title>1</title>
<ellipse fill="none" stroke="black" cx="89.21" cy="-18" rx="18" ry="18"/>
<text text-anchor="middle" x="89.21" y="-13.32" font-family="monospace" font-size="14.00">1</text>
</g>
<!-- 0&#45;&gt;1 -->
<g id="edge1" class="edge">
<title>0&#45;&gt;1</title>
<path fill="none" stroke="white" d="M36.11,-31.88C45.43,-31.45 56.89,-29.91 66.77,-27.81"/>
<polygon fill="white" stroke="white" points="67.05,-29.54 71.52,-26.69 66.26,-26.13 67.05,-29.54"/>
</g>
<!-- 1&#45;&gt;0 -->
<g id="edge2" class="edge">
<title>1&#45;&gt;0</title>
<path fill="none" stroke="white" d="M71.1,-14.76C61.78,-15.19 50.32,-16.73 40.44,-18.83"/>
<polygon fill="white" stroke="white" points="40.16,-17.1 35.69,-19.95 40.95,-20.51 40.16,-17.1"/>
</g>
</g>
</svg>
