<?xml version="1.0" encoding="UTF-8" standalone="no"?>
<!DOCTYPE svg PUBLIC "-//W3C//DTD SVG 1.1//EN"
 "http://www.w3.org/Graphics/SVG/1.1/DTD/svg11.dtd">
<!-- Generated by graphviz version 12.0.0 (20240704.0754)
 -->
<!-- Pages: 1 -->
<svg width="214pt" height="208pt"
 viewBox="0.00 0.00 214.49 208.33" xmlns="http://www.w3.org/2000/svg" xmlns:xlink="http://www.w3.org/1999/xlink">
<g id="graph0" class="graph" transform="scale(1 1) rotate(0) translate(14.4 193.93)">
<polygon fill="white" stroke="none" points="-14.4,14.4 -14.4,-193.93 200.09,-193.93 200.09,14.4 -14.4,14.4"/>
<!-- 0 -->
<g id="node1" class="node">
<title>0</title>
<ellipse fill="none" stroke="black" cx="86.08" cy="-161.53" rx="18" ry="18"/>
<text text-anchor="middle" x="86.08" y="-156.86" font-family="monospace" font-size="14.00">0</text>
</g>
<!-- 3 -->
<g id="node2" class="node">
<title>3</title>
<ellipse fill="none" stroke="black" cx="167.69" cy="-161.53" rx="18" ry="18"/>
<text text-anchor="middle" x="167.69" y="-156.86" font-family="monospace" font-size="14.00">3</text>
</g>
<!-- 0&#45;&gt;3 -->
<g id="edge1" class="edge">
<title>0&#45;&gt;3</title>
<path fill="none" stroke="black" d="M111.5,-161.53C121.17,-161.53 132.19,-161.53 141.89,-161.53"/>
<polygon fill="black" stroke="black" points="111.71,-159.43 105.71,-161.53 111.71,-163.63 111.71,-159.43"/>
<polygon fill="black" stroke="black" points="141.83,-163.63 147.83,-161.53 141.83,-159.43 141.83,-163.63"/>
</g>
<!-- 4 -->
<g id="node3" class="node">
<title>4</title>
<ellipse fill="none" stroke="black" cx="18" cy="-89.74" rx="18" ry="18"/>
<text text-anchor="middle" x="18" y="-85.06" font-family="monospace" font-size="14.00">4</text>
</g>
<!-- 0&#45;&gt;4 -->
<g id="edge2" class="edge">
<title>0&#45;&gt;4</title>
<path fill="none" stroke="black" d="M68.72,-143.22C58.53,-132.47 45.69,-118.94 35.48,-108.17"/>
<polygon fill="black" stroke="black" points="66.9,-144.36 72.55,-147.27 69.95,-141.47 66.9,-144.36"/>
<polygon fill="black" stroke="black" points="37.1,-106.83 31.45,-103.92 34.05,-109.72 37.1,-106.83"/>
</g>
<!-- 5 -->
<g id="node6" class="node">
<title>5</title>
<ellipse fill="none" stroke="black" cx="161.22" cy="-80.18" rx="18" ry="18"/>
<text text-anchor="middle" x="161.22" y="-75.51" font-family="monospace" font-size="14.00">5</text>
</g>
<!-- 3&#45;&gt;5 -->
<g id="edge8" class="edge">
<title>3&#45;&gt;5</title>
<path fill="none" stroke="black" d="M166.25,-143.48C165.37,-132.39 164.23,-118.02 163.26,-105.77"/>
<polygon fill="black" stroke="black" points="165.36,-105.79 162.8,-99.98 161.18,-106.12 165.36,-105.79"/>
</g>
<!-- 1 -->
<g id="node4" class="node">
<title>1</title>
<ellipse fill="none" stroke="black" cx="84.26" cy="-18" rx="18" ry="18"/>
<text text-anchor="middle" x="84.26" y="-13.32" font-family="monospace" font-size="14.00">1</text>
</g>
<!-- 4&#45;&gt;1 -->
<g id="edge9" class="edge">
<title>4&#45;&gt;1</title>
<path fill="none" stroke="black" d="M30.46,-76.24C40.74,-65.12 55.42,-49.22 66.86,-36.84"/>
<polygon fill="black" stroke="black" points="68.3,-38.38 70.83,-32.54 65.21,-35.53 68.3,-38.38"/>
</g>
<!-- 2 -->
<g id="node5" class="node">
<title>2</title>
<ellipse fill="none" stroke="black" cx="96.66" cy="-95.92" rx="18" ry="18"/>
<text text-anchor="middle" x="96.66" y="-91.25" font-family="monospace" font-size="14.00">2</text>
</g>
<!-- 4&#45;&gt;2 -->
<g id="edge10" class="edge">
<title>4&#45;&gt;2</title>
<path fill="none" stroke="black" d="M36.24,-91.17C46.59,-91.99 59.71,-93.02 71.08,-93.91"/>
<polygon fill="black" stroke="black" points="70.59,-95.98 76.74,-94.36 70.92,-91.79 70.59,-95.98"/>
</g>
<!-- 1&#45;&gt;2 -->
<g id="edge3" class="edge">
<title>1&#45;&gt;2</title>
<path fill="none" stroke="black" d="M88.32,-43.48C89.69,-52.12 91.22,-61.76 92.6,-70.4"/>
<polygon fill="black" stroke="black" points="90.39,-43.16 87.37,-37.57 86.24,-43.82 90.39,-43.16"/>
<polygon fill="black" stroke="black" points="90.5,-70.59 93.52,-76.18 94.65,-69.93 90.5,-70.59"/>
</g>
<!-- 1&#45;&gt;5 -->
<g id="edge4" class="edge">
<title>1&#45;&gt;5</title>
<path fill="none" stroke="black" d="M98.38,-29.41C110.45,-39.16 127.96,-53.31 141.44,-64.2"/>
<polygon fill="black" stroke="black" points="139.77,-65.55 145.76,-67.69 142.41,-62.28 139.77,-65.55"/>
</g>
<!-- 2&#45;&gt;0 -->
<g id="edge5" class="edge">
<title>2&#45;&gt;0</title>
<path fill="none" stroke="black" d="M93.77,-113.85C92.65,-120.8 91.35,-128.87 90.14,-136.37"/>
<polygon fill="black" stroke="black" points="88.09,-135.87 89.21,-142.13 92.24,-136.54 88.09,-135.87"/>
</g>
<!-- 2&#45;&gt;3 -->
<g id="edge6" class="edge">
<title>2&#45;&gt;3</title>
<path fill="none" stroke="black" d="M115.38,-113.22C125.74,-122.78 138.56,-134.63 148.92,-144.19"/>
<polygon fill="black" stroke="black" points="116.97,-111.82 111.13,-109.29 114.12,-114.91 116.97,-111.82"/>
<polygon fill="black" stroke="black" points="147.44,-145.69 153.27,-148.22 150.29,-142.61 147.44,-145.69"/>
</g>
<!-- 2&#45;&gt;5 -->
<g id="edge7" class="edge">
<title>2&#45;&gt;5</title>
<path fill="none" stroke="black" d="M114.3,-91.62C121.14,-89.96 129.08,-88.02 136.46,-86.22"/>
<polygon fill="black" stroke="black" points="136.8,-88.3 142.13,-84.84 135.81,-84.22 136.8,-88.3"/>
</g>
<!-- 5&#45;&gt;0 -->
<g id="edge11" class="edge">
<title>5&#45;&gt;0</title>
<path fill="none" stroke="black" d="M148.82,-93.62C136.42,-107.04 117.25,-127.79 103.36,-142.82"/>
<polygon fill="black" stroke="black" points="102.07,-141.13 99.54,-146.97 105.15,-143.98 102.07,-141.13"/>
</g>
</g>
</svg>
