<?xml version="1.0" encoding="UTF-8" standalone="no"?>
<!DOCTYPE svg PUBLIC "-//W3C//DTD SVG 1.1//EN"
 "http://www.w3.org/Graphics/SVG/1.1/DTD/svg11.dtd">
<!-- Generated by graphviz version 12.0.0 (20240704.0754)
 -->
<!-- Pages: 1 -->
<svg width="335pt" height="339pt"
 viewBox="0.00 0.00 334.69 338.55" xmlns="http://www.w3.org/2000/svg" xmlns:xlink="http://www.w3.org/1999/xlink">
<g id="graph0" class="graph" transform="scale(1 1) rotate(0) translate(14.4 324.15)">
<polygon fill="white" stroke="none" points="-14.4,14.4 -14.4,-324.15 320.29,-324.15 320.29,14.4 -14.4,14.4"/>
<!-- 0 -->
<g id="node1" class="node">
<title>0</title>
<ellipse fill="none" stroke="black" cx="127.64" cy="-291.75" rx="18" ry="18"/>
<text text-anchor="middle" x="127.64" y="-287.07" font-family="monospace" font-size="14.00">0</text>
</g>
<!-- 2 -->
<g id="node2" class="node">
<title>2</title>
<ellipse fill="none" stroke="black" cx="183.64" cy="-200.5" rx="18" ry="18"/>
<text text-anchor="middle" x="183.64" y="-195.82" font-family="monospace" font-size="14.00">2</text>
</g>
<!-- 0&#45;&gt;2 -->
<g id="edge1" class="edge">
<title>0&#45;&gt;2</title>
<path fill="none" stroke="black" d="M124.23,-274.01C122.81,-262.7 122.75,-247.82 129.14,-236.5 135.89,-224.55 148.59,-216.04 160.03,-210.4"/>
<polygon fill="black" stroke="black" points="160.61,-212.45 165.19,-208.04 158.86,-208.63 160.61,-212.45"/>
<text text-anchor="start" x="129.64" y="-243.2" font-family="monospace" font-size="9.00">&#45;2</text>
</g>
<!-- 0&#45;&gt;2 -->
<g id="edge7" class="edge">
<title>0&#45;&gt;2</title>
<path fill="none" stroke="black" stroke-dasharray="5,2" d="M136.89,-276.01C146.05,-261.41 160.16,-238.92 170.49,-222.46"/>
<polygon fill="black" stroke="black" points="172.17,-223.74 173.58,-217.54 168.61,-221.51 172.17,-223.74"/>
<text text-anchor="start" x="163.64" y="-243.2" font-family="monospace" font-size="9.00">&#45;2</text>
</g>
<!-- 1 -->
<g id="node3" class="node">
<title>1</title>
<ellipse fill="none" stroke="black" cx="158.64" cy="-18" rx="18" ry="18"/>
<text text-anchor="middle" x="158.64" y="-13.32" font-family="monospace" font-size="14.00">1</text>
</g>
<!-- 0&#45;&gt;1 -->
<g id="edge6" class="edge">
<title>0&#45;&gt;1</title>
<path fill="none" stroke="black" stroke-dasharray="5,2" d="M109.68,-288.85C88.43,-285.67 53.33,-277.31 32.64,-255.75 -2.47,-219.15 -3.51,-195.39 4.14,-145.25 10.55,-103.25 2.12,-83.56 32.64,-54 59.77,-27.72 104.85,-20.82 133.09,-19.2"/>
<polygon fill="black" stroke="black" points="133.17,-21.3 139.07,-18.94 132.98,-17.11 133.17,-21.3"/>
<text text-anchor="start" x="8.64" y="-151.95" font-family="monospace" font-size="9.00">&#45;1</text>
</g>
<!-- 3 -->
<g id="node4" class="node">
<title>3</title>
<ellipse fill="none" stroke="black" cx="256.64" cy="-109.25" rx="18" ry="18"/>
<text text-anchor="middle" x="256.64" y="-104.58" font-family="monospace" font-size="14.00">3</text>
</g>
<!-- 0&#45;&gt;3 -->
<g id="edge8" class="edge">
<title>0&#45;&gt;3</title>
<path fill="none" stroke="black" stroke-dasharray="5,2" d="M144.95,-285.48C161.27,-279.92 185.82,-269.98 203.64,-255.75 243.58,-223.85 257.21,-212.9 273.64,-164.5 277.35,-153.56 274.12,-141.29 269.52,-131.19"/>
<polygon fill="black" stroke="black" points="271.44,-130.35 266.86,-125.94 267.69,-132.24 271.44,-130.35"/>
<text text-anchor="start" x="268.64" y="-186.32" font-family="monospace" font-size="9.00">0 </text>
</g>
<!-- 2&#45;&gt;0 -->
<g id="edge12" class="edge">
<title>2&#45;&gt;0</title>
<path fill="none" stroke="black" stroke-dasharray="5,2" d="M186.85,-218.24C188.14,-229.56 188.06,-244.44 181.64,-255.75 174.97,-267.5 162.56,-275.96 151.31,-281.61"/>
<polygon fill="black" stroke="black" points="150.45,-279.7 145.9,-284.13 152.22,-283.5 150.45,-279.7"/>
<text text-anchor="start" x="190.64" y="-243.2" font-family="monospace" font-size="9.00">5</text>
</g>
<!-- 2&#45;&gt;1 -->
<g id="edge13" class="edge">
<title>2&#45;&gt;1</title>
<path fill="none" stroke="black" stroke-dasharray="5,2" d="M173.45,-185.42C164.02,-171.45 150.69,-149.04 145.39,-127.25 138.4,-98.49 144.89,-64.49 151,-42.37"/>
<polygon fill="black" stroke="black" points="152.96,-43.15 152.62,-36.8 148.93,-41.98 152.96,-43.15"/>
<text text-anchor="start" x="148.64" y="-106.33" font-family="monospace" font-size="9.00">1</text>
</g>
<!-- 2&#45;&gt;3 -->
<g id="edge4" class="edge">
<title>2&#45;&gt;3</title>
<path fill="none" stroke="black" d="M199.14,-190.68C209.13,-184.39 221.85,-175.18 230.64,-164.5 238.19,-155.33 244.17,-143.6 248.47,-133.39"/>
<polygon fill="black" stroke="black" points="250.34,-134.37 250.63,-128.02 246.44,-132.81 250.34,-134.37"/>
<text text-anchor="start" x="243.64" y="-151.95" font-family="monospace" font-size="9.00">2</text>
</g>
<!-- 2&#45;&gt;3 -->
<g id="edge14" class="edge">
<title>2&#45;&gt;3</title>
<path fill="none" stroke="black" stroke-dasharray="5,2" d="M201.38,-196.13C218.25,-191.9 242.76,-182.84 254.64,-164.5 260.28,-155.8 261.44,-144.57 260.93,-134.58"/>
<polygon fill="black" stroke="black" points="263.04,-134.54 260.4,-128.75 258.85,-134.92 263.04,-134.54"/>
<text text-anchor="start" x="262.64" y="-151.95" font-family="monospace" font-size="9.00">2</text>
</g>
<!-- 1&#45;&gt;0 -->
<g id="edge2" class="edge">
<title>1&#45;&gt;0</title>
<path fill="none" stroke="black" d="M140.3,-19.58C115.97,-21.38 73.34,-28.27 49.64,-54 21.43,-84.63 33.14,-103.88 28.39,-145.25 22.68,-194.93 17.85,-217.14 49.64,-255.75 62.93,-271.89 85.22,-280.87 102.57,-285.67"/>
<polygon fill="black" stroke="black" points="101.87,-287.66 108.2,-287.11 102.91,-283.59 101.87,-287.66"/>
<text text-anchor="start" x="32.64" y="-151.95" font-family="monospace" font-size="9.00">4</text>
</g>
<!-- 1&#45;&gt;0 -->
<g id="edge9" class="edge">
<title>1&#45;&gt;0</title>
<path fill="none" stroke="black" stroke-dasharray="5,2" d="M148.97,-33.76C145.46,-39.8 141.83,-47.01 139.64,-54 115.27,-131.87 124.09,-155.02 119.64,-236.5 119.17,-245.04 118.68,-247.25 119.64,-255.75 120.06,-259.45 120.72,-263.33 121.48,-267.1"/>
<polygon fill="black" stroke="black" points="119.37,-267.27 122.72,-272.67 123.47,-266.36 119.37,-267.27"/>
<text text-anchor="start" x="125.64" y="-151.95" font-family="monospace" font-size="9.00">4</text>
</g>
<!-- 1&#45;&gt;2 -->
<g id="edge3" class="edge">
<title>1&#45;&gt;2</title>
<path fill="none" stroke="black" d="M159.14,-36.19C160.18,-63.59 163.35,-118.74 172.64,-164.5 173.41,-168.3 174.44,-172.28 175.56,-176.13"/>
<polygon fill="black" stroke="black" points="173.55,-176.75 177.33,-181.86 177.56,-175.5 173.55,-176.75"/>
<text text-anchor="start" x="169.64" y="-106.33" font-family="monospace" font-size="9.00">3</text>
</g>
<!-- 1&#45;&gt;2 -->
<g id="edge10" class="edge">
<title>1&#45;&gt;2</title>
<path fill="none" stroke="black" stroke-dasharray="5,2" d="M166.09,-34.81C168.7,-40.75 171.51,-47.6 173.64,-54 179.01,-70.16 180.55,-74.35 182.64,-91.25 186.17,-119.78 185.84,-152.86 185,-174.87"/>
<polygon fill="black" stroke="black" points="182.91,-174.58 184.75,-180.66 187.11,-174.75 182.91,-174.58"/>
<text text-anchor="start" x="188.64" y="-106.33" font-family="monospace" font-size="9.00">2</text>
</g>
<!-- 1&#45;&gt;3 -->
<g id="edge11" class="edge">
<title>1&#45;&gt;3</title>
<path fill="none" stroke="black" stroke-dasharray="5,2" d="M177.08,-18.62C202.89,-19.21 249.04,-24.62 270.64,-54 277.8,-63.73 274.71,-76.8 269.64,-87.66"/>
<polygon fill="black" stroke="black" points="267.9,-86.46 267,-92.75 271.63,-88.4 267.9,-86.46"/>
<text text-anchor="start" x="278.64" y="-60.7" font-family="monospace" font-size="9.00">4</text>
</g>
<!-- 3&#45;&gt;0 -->
<g id="edge15" class="edge">
<title>3&#45;&gt;0</title>
<path fill="none" stroke="black" stroke-dasharray="5,2" d="M270.34,-121.37C276.92,-127.61 284.13,-135.99 287.64,-145.25 299.18,-175.69 302.51,-190.07 286.64,-218.5 259.69,-266.77 190.46,-282.93 152.86,-288.24"/>
<polygon fill="black" stroke="black" points="152.96,-286.11 147.28,-288.96 153.51,-290.27 152.96,-286.11"/>
<text text-anchor="start" x="298.64" y="-197.57" font-family="monospace" font-size="9.00">3</text>
</g>
<!-- 3&#45;&gt;2 -->
<g id="edge17" class="edge">
<title>3&#45;&gt;2</title>
<path fill="none" stroke="black" stroke-dasharray="5,2" d="M241.78,-120.04C232.81,-126.47 221.57,-135.47 213.39,-145.25 205.37,-154.85 198.49,-166.95 193.37,-177.28"/>
<polygon fill="black" stroke="black" points="191.61,-176.09 190.92,-182.41 195.4,-177.9 191.61,-176.09"/>
<text text-anchor="start" x="216.64" y="-151.95" font-family="monospace" font-size="9.00">1</text>
</g>
<!-- 3&#45;&gt;1 -->
<g id="edge5" class="edge">
<title>3&#45;&gt;1</title>
<path fill="none" stroke="black" d="M243.85,-96.06C232.18,-84.98 214.39,-68.25 198.64,-54 191.8,-47.81 184.2,-41.11 177.48,-35.25"/>
<polygon fill="black" stroke="black" points="179.12,-33.9 173.21,-31.55 176.37,-37.07 179.12,-33.9"/>
<text text-anchor="start" x="219.64" y="-60.7" font-family="monospace" font-size="9.00">&#45;1</text>
</g>
<!-- 3&#45;&gt;1 -->
<g id="edge16" class="edge">
<title>3&#45;&gt;1</title>
<path fill="none" stroke="black" stroke-dasharray="5,2" d="M253.24,-91.27C250.13,-79.55 244.47,-64.29 234.64,-54 220.81,-39.51 199.83,-30.48 183.42,-25.23"/>
<polygon fill="black" stroke="black" points="184.04,-23.22 177.69,-23.51 182.83,-27.24 184.04,-23.22"/>
<text text-anchor="start" x="247.64" y="-60.7" font-family="monospace" font-size="9.00">&#45;1</text>
</g>
</g>
</svg>
