<?xml version="1.0" encoding="UTF-8" standalone="no"?>
<!DOCTYPE svg PUBLIC "-//W3C//DTD SVG 1.1//EN"
 "http://www.w3.org/Graphics/SVG/1.1/DTD/svg11.dtd">
<!-- Generated by graphviz version 12.0.0 (20240704.0754)
 -->
<!-- Pages: 1 -->
<svg width="307pt" height="256pt"
 viewBox="0.00 0.00 306.55 256.46" xmlns="http://www.w3.org/2000/svg" xmlns:xlink="http://www.w3.org/1999/xlink">
<g id="graph0" class="graph" transform="scale(1 1) rotate(0) translate(14.4 242.06)">
<polygon fill="white" stroke="none" points="-14.4,14.4 -14.4,-242.06 292.15,-242.06 292.15,14.4 -14.4,14.4"/>
<!-- 1 -->
<g id="node1" class="node">
<title>1</title>
<ellipse fill="none" stroke="black" cx="91.56" cy="-139.54" rx="18" ry="18"/>
<text text-anchor="middle" x="91.56" y="-134.86" font-family="monospace" font-size="14.00">1</text>
</g>
<!-- 0 -->
<g id="node2" class="node">
<title>0</title>
<ellipse fill="none" stroke="black" cx="169.39" cy="-139.54" rx="18" ry="18"/>
<text text-anchor="middle" x="169.39" y="-134.86" font-family="monospace" font-size="14.00">0</text>
</g>
<!-- 1&#45;&gt;0 -->
<g id="edge1" class="edge">
<title>1&#45;&gt;0</title>
<path fill="none" stroke="black" d="M110.01,-139.54C120.09,-139.54 132.73,-139.54 143.76,-139.54"/>
<polygon fill="black" stroke="black" points="143.57,-141.64 149.57,-139.54 143.57,-137.44 143.57,-141.64"/>
</g>
<!-- 2 -->
<g id="node3" class="node">
<title>2</title>
<ellipse fill="none" stroke="black" cx="214.24" cy="-75.93" rx="18" ry="18"/>
<text text-anchor="middle" x="214.24" y="-71.25" font-family="monospace" font-size="14.00">2</text>
</g>
<!-- 2&#45;&gt;0 -->
<g id="edge2" class="edge">
<title>2&#45;&gt;0</title>
<path fill="none" stroke="black" d="M203.61,-91C197.81,-99.24 190.52,-109.57 184.17,-118.58"/>
<polygon fill="black" stroke="black" points="182.56,-117.22 180.82,-123.33 185.99,-119.64 182.56,-117.22"/>
</g>
<!-- 3 -->
<g id="node4" class="node">
<title>3</title>
<ellipse fill="none" stroke="black" cx="18" cy="-143.35" rx="18" ry="18"/>
<text text-anchor="middle" x="18" y="-138.67" font-family="monospace" font-size="14.00">3</text>
</g>
<!-- 3&#45;&gt;1 -->
<g id="edge3" class="edge">
<title>3&#45;&gt;1</title>
<path fill="none" stroke="black" d="M36.18,-142.41C45.2,-141.94 56.25,-141.37 66.09,-140.86"/>
<polygon fill="black" stroke="black" points="65.94,-142.97 71.82,-140.56 65.72,-138.77 65.94,-142.97"/>
</g>
<!-- 4 -->
<g id="node5" class="node">
<title>4</title>
<ellipse fill="none" stroke="black" cx="205.76" cy="-209.66" rx="18" ry="18"/>
<text text-anchor="middle" x="205.76" y="-204.99" font-family="monospace" font-size="14.00">4</text>
</g>
<!-- 4&#45;&gt;0 -->
<g id="edge4" class="edge">
<title>4&#45;&gt;0</title>
<path fill="none" stroke="black" d="M197.32,-193.4C192.5,-184.11 186.39,-172.31 181.11,-162.13"/>
<polygon fill="black" stroke="black" points="183.1,-161.42 178.48,-157.06 179.38,-163.35 183.1,-161.42"/>
</g>
<!-- 5 -->
<g id="node6" class="node">
<title>5</title>
<ellipse fill="none" stroke="black" cx="259.75" cy="-18" rx="18" ry="18"/>
<text text-anchor="middle" x="259.75" y="-13.32" font-family="monospace" font-size="14.00">5</text>
</g>
<!-- 5&#45;&gt;2 -->
<g id="edge5" class="edge">
<title>5&#45;&gt;2</title>
<path fill="none" stroke="black" d="M248.5,-32.32C242.88,-39.47 235.99,-48.25 229.86,-56.04"/>
<polygon fill="black" stroke="black" points="228.35,-54.57 226.3,-60.58 231.66,-57.16 228.35,-54.57"/>
</g>
</g>
</svg>
