<?xml version="1.0" encoding="UTF-8" standalone="no"?>
<!DOCTYPE svg PUBLIC "-//W3C//DTD SVG 1.1//EN"
 "http://www.w3.org/Graphics/SVG/1.1/DTD/svg11.dtd">
<!-- Generated by graphviz version 12.0.0 (20240704.0754)
 -->
<!-- Pages: 1 -->
<svg width="514pt" height="576pt"
 viewBox="0.00 0.00 514.42 576.08" xmlns="http://www.w3.org/2000/svg" xmlns:xlink="http://www.w3.org/1999/xlink">
<g id="graph0" class="graph" transform="scale(1 1) rotate(0) translate(14.4 561.68)">
<polygon fill="white" stroke="none" points="-14.4,14.4 -14.4,-561.68 500.02,-561.68 500.02,14.4 -14.4,14.4"/>
<!-- 0 -->
<g id="node1" class="node">
<title>0</title>
<ellipse fill="none" stroke="black" cx="92.86" cy="-165.25" rx="18" ry="18"/>
<text text-anchor="middle" x="92.86" y="-160.57" font-family="monospace" font-size="14.00">0</text>
</g>
<!-- 1 -->
<g id="node2" class="node">
<title>1</title>
<ellipse fill="none" stroke="black" cx="24.11" cy="-234" rx="18" ry="18"/>
<text text-anchor="middle" x="24.11" y="-229.32" font-family="monospace" font-size="14.00">1</text>
</g>
<!-- 0&#45;&gt;1 -->
<g id="edge1" class="edge">
<title>0&#45;&gt;1</title>
<path fill="none" stroke="black" d="M75.38,-182.73C65,-193.11 51.9,-206.21 41.53,-216.58"/>
<polygon fill="black" stroke="black" points="76.56,-184.02 78.86,-179.25 74.09,-181.55 76.56,-184.02"/>
<polygon fill="black" stroke="black" points="40.35,-215.28 38.05,-220.06 42.83,-217.76 40.35,-215.28"/>
</g>
<!-- 7 -->
<g id="node8" class="node">
<title>7</title>
<ellipse fill="none" stroke="black" cx="92.86" cy="-302.75" rx="18" ry="18"/>
<text text-anchor="middle" x="92.86" y="-298.08" font-family="monospace" font-size="14.00">7</text>
</g>
<!-- 1&#45;&gt;7 -->
<g id="edge2" class="edge">
<title>1&#45;&gt;7</title>
<path fill="none" stroke="black" d="M37.04,-246.93C47.89,-257.78 63.49,-273.38 75.44,-285.33"/>
<polygon fill="black" stroke="black" points="74.15,-286.51 78.92,-288.81 76.62,-284.04 74.15,-286.51"/>
</g>
<!-- 2 -->
<g id="node3" class="node">
<title>2</title>
<ellipse fill="none" stroke="black" cx="161.62" cy="-234" rx="18" ry="18"/>
<text text-anchor="middle" x="161.62" y="-229.32" font-family="monospace" font-size="14.00">2</text>
</g>
<!-- 2&#45;&gt;0 -->
<g id="edge3" class="edge">
<title>2&#45;&gt;0</title>
<path fill="none" stroke="black" d="M148.69,-221.07C137.83,-210.22 122.24,-194.62 110.29,-182.67"/>
<polygon fill="black" stroke="black" points="111.58,-181.49 106.81,-179.19 109.11,-183.96 111.58,-181.49"/>
</g>
<!-- 5 -->
<g id="node6" class="node">
<title>5</title>
<ellipse fill="none" stroke="black" cx="467.62" cy="-234" rx="18" ry="18"/>
<text text-anchor="middle" x="467.62" y="-229.32" font-family="monospace" font-size="14.00">5</text>
</g>
<!-- 2&#45;&gt;5 -->
<g id="edge4" class="edge">
<title>2&#45;&gt;5</title>
<path fill="none" stroke="black" d="M179.84,-234C232.25,-234 383.39,-234 443.01,-234"/>
<polygon fill="black" stroke="black" points="442.98,-235.75 447.98,-234 442.98,-232.25 442.98,-235.75"/>
</g>
<!-- 2&#45;&gt;7 -->
<g id="edge5" class="edge">
<title>2&#45;&gt;7</title>
<path fill="none" stroke="black" d="M144.13,-251.49C133.76,-261.86 120.65,-274.97 110.29,-285.33"/>
<polygon fill="black" stroke="black" points="145.32,-252.78 147.62,-248 142.84,-250.3 145.32,-252.78"/>
<polygon fill="black" stroke="black" points="109.11,-284.04 106.81,-288.81 111.58,-286.51 109.11,-284.04"/>
</g>
<!-- 3 -->
<g id="node4" class="node">
<title>3</title>
<ellipse fill="none" stroke="black" cx="467.62" cy="-126" rx="18" ry="18"/>
<text text-anchor="middle" x="467.62" y="-121.33" font-family="monospace" font-size="14.00">3</text>
</g>
<!-- 4 -->
<g id="node5" class="node">
<title>4</title>
<ellipse fill="none" stroke="black" cx="467.62" cy="-18" rx="18" ry="18"/>
<text text-anchor="middle" x="467.62" y="-13.32" font-family="monospace" font-size="14.00">4</text>
</g>
<!-- 3&#45;&gt;4 -->
<g id="edge6" class="edge">
<title>3&#45;&gt;4</title>
<path fill="none" stroke="black" d="M467.62,-101.29C467.62,-83.7 467.62,-60.16 467.62,-42.59"/>
<polygon fill="black" stroke="black" points="465.87,-101.17 467.62,-106.17 469.37,-101.17 465.87,-101.17"/>
<polygon fill="black" stroke="black" points="469.37,-42.92 467.62,-37.92 465.87,-42.92 469.37,-42.92"/>
</g>
<!-- 5&#45;&gt;3 -->
<g id="edge7" class="edge">
<title>5&#45;&gt;3</title>
<path fill="none" stroke="black" d="M467.62,-215.68C467.62,-197.84 467.62,-170.59 467.62,-150.81"/>
<polygon fill="black" stroke="black" points="469.37,-150.92 467.62,-145.92 465.87,-150.92 469.37,-150.92"/>
</g>
<!-- 6 -->
<g id="node7" class="node">
<title>6</title>
<ellipse fill="none" stroke="black" cx="467.62" cy="-396" rx="18" ry="18"/>
<text text-anchor="middle" x="467.62" y="-391.32" font-family="monospace" font-size="14.00">6</text>
</g>
<!-- 5&#45;&gt;6 -->
<g id="edge8" class="edge">
<title>5&#45;&gt;6</title>
<path fill="none" stroke="black" d="M467.62,-258.46C467.62,-288.96 467.62,-340.78 467.62,-371.36"/>
<polygon fill="black" stroke="black" points="469.37,-258.78 467.62,-253.78 465.87,-258.78 469.37,-258.78"/>
<polygon fill="black" stroke="black" points="465.87,-371.04 467.62,-376.04 469.37,-371.04 465.87,-371.04"/>
</g>
<!-- 8 -->
<g id="node9" class="node">
<title>8</title>
<ellipse fill="none" stroke="black" cx="92.86" cy="-374.75" rx="18" ry="18"/>
<text text-anchor="middle" x="92.86" y="-370.08" font-family="monospace" font-size="14.00">8</text>
</g>
<!-- 8&#45;&gt;7 -->
<g id="edge9" class="edge">
<title>8&#45;&gt;7</title>
<path fill="none" stroke="black" d="M92.86,-356.59C92.86,-347.79 92.86,-337.08 92.86,-327.55"/>
<polygon fill="black" stroke="black" points="94.61,-327.68 92.86,-322.68 91.11,-327.68 94.61,-327.68"/>
</g>
<!-- 9 -->
<g id="node10" class="node">
<title>9</title>
<ellipse fill="none" stroke="black" cx="18" cy="-449.62" rx="18" ry="18"/>
<text text-anchor="middle" x="18" y="-444.94" font-family="monospace" font-size="14.00">9</text>
</g>
<!-- 8&#45;&gt;9 -->
<g id="edge11" class="edge">
<title>8&#45;&gt;9</title>
<path fill="none" stroke="black" d="M75.41,-392.21C63.39,-404.23 47.48,-420.14 35.46,-432.16"/>
<polygon fill="black" stroke="black" points="76.46,-393.64 78.75,-388.87 73.98,-391.16 76.46,-393.64"/>
<polygon fill="black" stroke="black" points="34.26,-430.88 31.96,-435.66 36.73,-433.36 34.26,-430.88"/>
</g>
<!-- 11 -->
<g id="node12" class="node">
<title>11</title>
<ellipse fill="none" stroke="black" cx="167.73" cy="-449.62" rx="22.8" ry="22.8"/>
<text text-anchor="middle" x="167.73" y="-444.94" font-family="monospace" font-size="14.00">11</text>
</g>
<!-- 8&#45;&gt;11 -->
<g id="edge10" class="edge">
<title>8&#45;&gt;11</title>
<path fill="none" stroke="black" d="M105.9,-387.8C117.27,-399.16 133.95,-415.84 147.12,-429.01"/>
<polygon fill="black" stroke="black" points="145.6,-429.97 150.37,-432.26 148.08,-427.49 145.6,-429.97"/>
</g>
<!-- 10 -->
<g id="node11" class="node">
<title>10</title>
<ellipse fill="none" stroke="black" cx="92.86" cy="-524.48" rx="22.8" ry="22.8"/>
<text text-anchor="middle" x="92.86" y="-519.81" font-family="monospace" font-size="14.00">10</text>
</g>
<!-- 10&#45;&gt;9 -->
<g id="edge12" class="edge">
<title>10&#45;&gt;9</title>
<path fill="none" stroke="black" d="M76.62,-508.24C64.36,-495.98 47.59,-479.21 35.12,-466.74"/>
<polygon fill="black" stroke="black" points="36.59,-465.73 31.81,-463.43 34.11,-468.2 36.59,-465.73"/>
</g>
<!-- 10&#45;&gt;11 -->
<g id="edge13" class="edge">
<title>10&#45;&gt;11</title>
<path fill="none" stroke="black" d="M113.67,-503.68C123.96,-493.39 136.35,-480.99 146.67,-470.67"/>
<polygon fill="black" stroke="black" points="112.48,-502.4 110.18,-507.17 114.95,-504.87 112.48,-502.4"/>
<polygon fill="black" stroke="black" points="147.89,-471.93 150.19,-467.16 145.41,-469.46 147.89,-471.93"/>
</g>
</g>
</svg>
