<?xml version="1.0" encoding="UTF-8" standalone="no"?>
<!DOCTYPE svg PUBLIC "-//W3C//DTD SVG 1.1//EN"
 "http://www.w3.org/Graphics/SVG/1.1/DTD/svg11.dtd">
<!-- Generated by graphviz version 12.0.0 (20240704.0754)
 -->
<!-- Pages: 1 -->
<svg width="142pt" height="154pt"
 viewBox="0.00 0.00 142.15 154.12" xmlns="http://www.w3.org/2000/svg" xmlns:xlink="http://www.w3.org/1999/xlink">
<g id="graph0" class="graph" transform="scale(1 1) rotate(0) translate(14.4 139.72)">
<polygon fill="white" stroke="none" points="-14.4,14.4 -14.4,-139.72 127.75,-139.72 127.75,14.4 -14.4,14.4"/>
<!-- 0 -->
<g id="node1" class="node">
<title>0</title>
<ellipse fill="none" stroke="black" cx="18" cy="-18" rx="18" ry="18"/>
<text text-anchor="middle" x="18" y="-13.32" font-family="monospace" font-size="14.00">0</text>
</g>
<!-- 1 -->
<g id="node2" class="node">
<title>1</title>
<ellipse fill="none" stroke="black" cx="18" cy="-107.32" rx="18" ry="18"/>
<text text-anchor="middle" x="18" y="-102.64" font-family="monospace" font-size="14.00">1</text>
</g>
<!-- 0&#45;&gt;1 -->
<g id="edge1" class="edge">
<title>0&#45;&gt;1</title>
<path fill="none" stroke="black" d="M18,-43.32C18,-55.36 18,-69.72 18,-81.79"/>
<polygon fill="black" stroke="black" points="20.1,-43.59 18,-37.59 15.9,-43.59 20.1,-43.59"/>
<polygon fill="black" stroke="black" points="15.9,-81.45 18,-87.45 20.1,-81.45 15.9,-81.45"/>
<text text-anchor="middle" x="12.75" y="-65.26" font-family="monospace" font-size="9.00"> 1</text>
</g>
<!-- 2 -->
<g id="node3" class="node">
<title>2</title>
<ellipse fill="none" stroke="black" cx="95.35" cy="-62.66" rx="18" ry="18"/>
<text text-anchor="middle" x="95.35" y="-57.98" font-family="monospace" font-size="14.00">2</text>
</g>
<!-- 0&#45;&gt;2 -->
<g id="edge2" class="edge">
<title>0&#45;&gt;2</title>
<path fill="none" stroke="black" d="M39.93,-30.66C50.36,-36.68 62.79,-43.86 73.24,-49.89"/>
<polygon fill="black" stroke="black" points="41.21,-28.98 34.96,-27.79 39.11,-32.61 41.21,-28.98"/>
<polygon fill="black" stroke="black" points="71.9,-51.54 78.14,-52.72 74,-47.91 71.9,-51.54"/>
<text text-anchor="middle" x="51.34" y="-42.98" font-family="monospace" font-size="9.00">1 </text>
</g>
<!-- 1&#45;&gt;2 -->
<g id="edge3" class="edge">
<title>1&#45;&gt;2</title>
<path fill="none" stroke="black" d="M39.93,-94.65C50.36,-88.63 62.79,-81.45 73.24,-75.42"/>
<polygon fill="black" stroke="black" points="39.11,-92.7 34.96,-97.52 41.21,-96.34 39.11,-92.7"/>
<polygon fill="black" stroke="black" points="74,-77.41 78.14,-72.59 71.9,-73.77 74,-77.41"/>
<text text-anchor="middle" x="46.09" y="-76.49" font-family="monospace" font-size="9.00"> &#160;&#160;1</text>
</g>
</g>
</svg>
