<?xml version="1.0" encoding="UTF-8" standalone="no"?>
<!DOCTYPE svg PUBLIC "-//W3C//DTD SVG 1.1//EN"
 "http://www.w3.org/Graphics/SVG/1.1/DTD/svg11.dtd">
<!-- Generated by graphviz version 12.0.0 (20240704.0754)
 -->
<!-- Pages: 1 -->
<svg width="400pt" height="202pt"
 viewBox="0.00 0.00 400.31 202.31" xmlns="http://www.w3.org/2000/svg" xmlns:xlink="http://www.w3.org/1999/xlink">
<g id="graph0" class="graph" transform="scale(1 1) rotate(0) translate(14.4 187.91)">
<polygon fill="white" stroke="none" points="-14.4,14.4 -14.4,-187.91 385.91,-187.91 385.91,14.4 -14.4,14.4"/>
<!-- 0 -->
<g id="node1" class="node">
<title>0</title>
<ellipse fill="none" stroke="black" cx="86.75" cy="-18" rx="18" ry="18"/>
<text text-anchor="middle" x="86.75" y="-13.32" font-family="monospace" font-size="14.00">0</text>
</g>
<!-- 1 -->
<g id="node2" class="node">
<title>1</title>
<ellipse fill="none" stroke="black" cx="18" cy="-86.75" rx="18" ry="18"/>
<text text-anchor="middle" x="18" y="-82.08" font-family="monospace" font-size="14.00">1</text>
</g>
<!-- 0&#45;&gt;1 -->
<g id="edge1" class="edge">
<title>0&#45;&gt;1</title>
<path fill="none" stroke="black" d="M68.63,-36.12C58.61,-46.14 46.2,-58.56 36.17,-68.59"/>
<polygon fill="black" stroke="black" points="69.99,-37.73 72.75,-32 67.02,-34.76 69.99,-37.73"/>
<polygon fill="black" stroke="black" points="34.7,-67.08 31.94,-72.81 37.67,-70.05 34.7,-67.08"/>
<text text-anchor="middle" x="49.78" y="-55.05" font-family="monospace" font-size="9.00">1</text>
</g>
<!-- 3 -->
<g id="node3" class="node">
<title>3</title>
<ellipse fill="none" stroke="black" cx="155.51" cy="-86.75" rx="18" ry="18"/>
<text text-anchor="middle" x="155.51" y="-82.08" font-family="monospace" font-size="14.00">3</text>
</g>
<!-- 0&#45;&gt;3 -->
<g id="edge2" class="edge">
<title>0&#45;&gt;3</title>
<path fill="none" stroke="black" d="M104.88,-36.12C114.9,-46.14 127.31,-58.56 137.34,-68.59"/>
<polygon fill="black" stroke="black" points="106.49,-34.76 100.76,-32 103.52,-37.73 106.49,-34.76"/>
<polygon fill="black" stroke="black" points="135.84,-70.05 141.57,-72.81 138.81,-67.08 135.84,-70.05"/>
<text text-anchor="middle" x="115.86" y="-55.05" font-family="monospace" font-size="9.00"> 1</text>
</g>
<!-- 2 -->
<g id="node4" class="node">
<title>2</title>
<ellipse fill="none" stroke="black" cx="86.75" cy="-155.51" rx="18" ry="18"/>
<text text-anchor="middle" x="86.75" y="-150.83" font-family="monospace" font-size="14.00">2</text>
</g>
<!-- 1&#45;&gt;2 -->
<g id="edge3" class="edge">
<title>1&#45;&gt;2</title>
<path fill="none" stroke="black" d="M36.12,-104.88C46.14,-114.9 58.56,-127.31 68.59,-137.34"/>
<polygon fill="black" stroke="black" points="37.73,-103.52 32,-100.76 34.76,-106.49 37.73,-103.52"/>
<polygon fill="black" stroke="black" points="67.08,-138.81 72.81,-141.57 70.05,-135.84 67.08,-138.81"/>
<text text-anchor="middle" x="47.1" y="-123.81" font-family="monospace" font-size="9.00"> 1</text>
</g>
<!-- 4 -->
<g id="node5" class="node">
<title>4</title>
<ellipse fill="none" stroke="black" cx="245.51" cy="-86.75" rx="18" ry="18"/>
<text text-anchor="middle" x="245.51" y="-82.08" font-family="monospace" font-size="14.00">4</text>
</g>
<!-- 3&#45;&gt;4 -->
<g id="edge5" class="edge">
<title>3&#45;&gt;4</title>
<path fill="none" stroke="black" d="M181.03,-86.75C193.16,-86.75 207.63,-86.75 219.79,-86.75"/>
<polygon fill="black" stroke="black" points="181.24,-84.66 175.24,-86.75 181.24,-88.86 181.24,-84.66"/>
<polygon fill="black" stroke="black" points="219.5,-88.86 225.5,-86.75 219.5,-84.66 219.5,-88.86"/>
<text text-anchor="middle" x="197.78" y="-89.45" font-family="monospace" font-size="9.00">1</text>
</g>
<!-- 2&#45;&gt;3 -->
<g id="edge4" class="edge">
<title>2&#45;&gt;3</title>
<path fill="none" stroke="black" d="M104.88,-137.39C114.9,-127.37 127.31,-114.95 137.34,-104.92"/>
<polygon fill="black" stroke="black" points="103.52,-135.78 100.76,-141.51 106.49,-138.75 103.52,-135.78"/>
<polygon fill="black" stroke="black" points="138.81,-106.43 141.57,-100.7 135.84,-103.46 138.81,-106.43"/>
<text text-anchor="middle" x="118.48" y="-123.86" font-family="monospace" font-size="9.00">1</text>
</g>
<!-- 5 -->
<g id="node6" class="node">
<title>5</title>
<ellipse fill="none" stroke="black" cx="353.51" cy="-86.75" rx="18" ry="18"/>
<text text-anchor="middle" x="353.51" y="-82.08" font-family="monospace" font-size="14.00">5</text>
</g>
<!-- 4&#45;&gt;5 -->
<g id="edge6" class="edge">
<title>4&#45;&gt;5</title>
<path fill="none" stroke="black" d="M271.26,-86.75C288.31,-86.75 310.59,-86.75 327.66,-86.75"/>
<polygon fill="black" stroke="black" points="271.34,-84.66 265.34,-86.75 271.34,-88.86 271.34,-84.66"/>
<polygon fill="black" stroke="black" points="327.59,-88.86 333.59,-86.75 327.59,-84.66 327.59,-88.86"/>
<text text-anchor="middle" x="296.83" y="-89.45" font-family="monospace" font-size="9.00">1</text>
</g>
</g>
</svg>
