<?xml version="1.0" encoding="UTF-8" standalone="no"?>
<!DOCTYPE svg PUBLIC "-//W3C//DTD SVG 1.1//EN"
 "http://www.w3.org/Graphics/SVG/1.1/DTD/svg11.dtd">
<!-- Generated by graphviz version 12.0.0 (20240704.0754)
 -->
<!-- Pages: 1 -->
<svg width="624pt" height="363pt"
 viewBox="0.00 0.00 624.27 362.59" xmlns="http://www.w3.org/2000/svg" xmlns:xlink="http://www.w3.org/1999/xlink">
<g id="graph0" class="graph" transform="scale(1 1) rotate(0) translate(14.4 348.19)">
<polygon fill="white" stroke="none" points="-14.4,14.4 -14.4,-348.19 609.87,-348.19 609.87,14.4 -14.4,14.4"/>
<!-- 0 -->
<g id="node1" class="node">
<title>0</title>
<ellipse fill="none" stroke="black" cx="18" cy="-151.21" rx="18" ry="18"/>
<text text-anchor="middle" x="18" y="-146.53" font-family="monospace" font-size="14.00">0</text>
</g>
<!-- 1 -->
<g id="node2" class="node">
<title>1</title>
<ellipse fill="none" stroke="black" cx="129.12" cy="-151.21" rx="18" ry="18"/>
<text text-anchor="middle" x="129.12" y="-146.53" font-family="monospace" font-size="14.00">1</text>
</g>
<!-- 0&#45;&gt;1 -->
<g id="edge1" class="edge">
<title>0&#45;&gt;1</title>
<path fill="none" stroke="black" d="M42.72,-151.21C61.05,-151.21 85.94,-151.21 104.3,-151.21"/>
<polygon fill="black" stroke="black" points="42.86,-149.46 37.86,-151.21 42.86,-152.96 42.86,-149.46"/>
<polygon fill="black" stroke="black" points="104.23,-152.96 109.23,-151.21 104.23,-149.46 104.23,-152.96"/>
</g>
<!-- 2 -->
<g id="node3" class="node">
<title>2</title>
<ellipse fill="none" stroke="black" cx="214.03" cy="-123.49" rx="18" ry="18"/>
<text text-anchor="middle" x="214.03" y="-118.82" font-family="monospace" font-size="14.00">2</text>
</g>
<!-- 1&#45;&gt;2 -->
<g id="edge2" class="edge">
<title>1&#45;&gt;2</title>
<path fill="none" stroke="black" d="M152.44,-143.6C164.32,-139.72 178.72,-135.02 190.62,-131.13"/>
<polygon fill="black" stroke="black" points="151.95,-141.91 147.74,-145.13 153.04,-145.24 151.95,-141.91"/>
<polygon fill="black" stroke="black" points="190.93,-132.87 195.14,-129.66 189.84,-129.54 190.93,-132.87"/>
</g>
<!-- 4 -->
<g id="node5" class="node">
<title>4</title>
<ellipse fill="none" stroke="black" cx="147.57" cy="-63.82" rx="18" ry="18"/>
<text text-anchor="middle" x="147.57" y="-59.14" font-family="monospace" font-size="14.00">4</text>
</g>
<!-- 1&#45;&gt;4 -->
<g id="edge3" class="edge">
<title>1&#45;&gt;4</title>
<path fill="none" stroke="black" d="M132.85,-133.52C135.61,-120.46 139.4,-102.52 142.44,-88.12"/>
<polygon fill="black" stroke="black" points="144.15,-88.51 143.47,-83.26 140.72,-87.79 144.15,-88.51"/>
</g>
<!-- 3 -->
<g id="node4" class="node">
<title>3</title>
<ellipse fill="none" stroke="black" cx="284.47" cy="-138.37" rx="18" ry="18"/>
<text text-anchor="middle" x="284.47" y="-133.69" font-family="monospace" font-size="14.00">3</text>
</g>
<!-- 3&#45;&gt;2 -->
<g id="edge6" class="edge">
<title>3&#45;&gt;2</title>
<path fill="none" stroke="black" d="M266.7,-134.61C258.09,-132.79 247.61,-130.58 238.28,-128.61"/>
<polygon fill="black" stroke="black" points="238.78,-126.93 233.52,-127.61 238.05,-130.35 238.78,-126.93"/>
</g>
<!-- 3&#45;&gt;4 -->
<g id="edge4" class="edge">
<title>3&#45;&gt;4</title>
<path fill="none" stroke="black" d="M262.66,-126.49C237.06,-112.55 194.86,-89.57 169.29,-75.65"/>
<polygon fill="black" stroke="black" points="261.67,-127.94 266.9,-128.8 263.35,-124.87 261.67,-127.94"/>
<polygon fill="black" stroke="black" points="170.35,-74.23 165.12,-73.37 168.68,-77.3 170.35,-74.23"/>
</g>
<!-- 5 -->
<g id="node6" class="node">
<title>5</title>
<ellipse fill="none" stroke="black" cx="577.47" cy="-200.23" rx="18" ry="18"/>
<text text-anchor="middle" x="577.47" y="-195.55" font-family="monospace" font-size="14.00">5</text>
</g>
<!-- 3&#45;&gt;5 -->
<g id="edge7" class="edge">
<title>3&#45;&gt;5</title>
<path fill="none" stroke="black" d="M302.36,-142.14C352.73,-152.78 495.8,-182.98 553.2,-195.1"/>
<polygon fill="black" stroke="black" points="552.71,-196.79 557.96,-196.11 553.43,-193.36 552.71,-196.79"/>
</g>
<!-- 7 -->
<g id="node8" class="node">
<title>7</title>
<ellipse fill="none" stroke="black" cx="305.51" cy="-251.01" rx="18" ry="18"/>
<text text-anchor="middle" x="305.51" y="-246.34" font-family="monospace" font-size="14.00">7</text>
</g>
<!-- 3&#45;&gt;7 -->
<g id="edge5" class="edge">
<title>3&#45;&gt;7</title>
<path fill="none" stroke="black" d="M289.02,-162.71C292.56,-181.69 297.46,-207.91 301,-226.84"/>
<polygon fill="black" stroke="black" points="290.77,-162.55 288.13,-157.95 287.33,-163.19 290.77,-162.55"/>
<polygon fill="black" stroke="black" points="299.22,-226.88 301.86,-231.47 302.66,-226.24 299.22,-226.88"/>
</g>
<!-- 10 -->
<g id="node11" class="node">
<title>10</title>
<ellipse fill="none" stroke="black" cx="461.9" cy="-22.8" rx="22.8" ry="22.8"/>
<text text-anchor="middle" x="461.9" y="-18.12" font-family="monospace" font-size="14.00">10</text>
</g>
<!-- 3&#45;&gt;10 -->
<g id="edge8" class="edge">
<title>3&#45;&gt;10</title>
<path fill="none" stroke="black" d="M299.91,-128.31C330.69,-108.26 399.92,-63.17 437.13,-38.93"/>
<polygon fill="black" stroke="black" points="437.88,-40.53 441.12,-36.34 435.97,-37.6 437.88,-40.53"/>
</g>
<!-- 11 -->
<g id="node12" class="node">
<title>11</title>
<ellipse fill="none" stroke="black" cx="512.69" cy="-294.76" rx="22.8" ry="22.8"/>
<text text-anchor="middle" x="512.69" y="-290.08" font-family="monospace" font-size="14.00">11</text>
</g>
<!-- 3&#45;&gt;11 -->
<g id="edge9" class="edge">
<title>3&#45;&gt;11</title>
<path fill="none" stroke="black" d="M299.45,-148.63C338.02,-175.06 441.08,-245.68 488.36,-278.09"/>
<polygon fill="black" stroke="black" points="487.21,-279.42 492.33,-280.8 489.19,-276.53 487.21,-279.42"/>
</g>
<!-- 6 -->
<g id="node7" class="node">
<title>6</title>
<ellipse fill="none" stroke="black" cx="556.43" cy="-87.58" rx="18" ry="18"/>
<text text-anchor="middle" x="556.43" y="-82.9" font-family="monospace" font-size="14.00">6</text>
</g>
<!-- 5&#45;&gt;6 -->
<g id="edge10" class="edge">
<title>5&#45;&gt;6</title>
<path fill="none" stroke="black" d="M572.92,-175.88C569.38,-156.91 564.48,-130.69 560.95,-111.75"/>
<polygon fill="black" stroke="black" points="571.17,-176.05 573.81,-180.64 574.61,-175.4 571.17,-176.05"/>
<polygon fill="black" stroke="black" points="562.72,-111.71 560.08,-107.12 559.28,-112.36 562.72,-111.71"/>
</g>
<!-- 6&#45;&gt;10 -->
<g id="edge11" class="edge">
<title>6&#45;&gt;10</title>
<path fill="none" stroke="black" d="M535.97,-73.55C521.3,-63.5 501.47,-49.91 486.03,-39.33"/>
<polygon fill="black" stroke="black" points="534.88,-74.93 540,-76.31 536.86,-72.04 534.88,-74.93"/>
<polygon fill="black" stroke="black" points="487.33,-38.1 482.22,-36.72 485.35,-40.99 487.33,-38.1"/>
</g>
<!-- 8 -->
<g id="node9" class="node">
<title>8</title>
<ellipse fill="none" stroke="black" cx="349.25" cy="-43.83" rx="18" ry="18"/>
<text text-anchor="middle" x="349.25" y="-39.16" font-family="monospace" font-size="14.00">8</text>
</g>
<!-- 8&#45;&gt;7 -->
<g id="edge12" class="edge">
<title>8&#45;&gt;7</title>
<path fill="none" stroke="black" d="M345.45,-61.86C337.58,-99.14 319.5,-184.77 310.62,-226.82"/>
<polygon fill="black" stroke="black" points="308.91,-226.45 309.59,-231.7 312.33,-227.17 308.91,-226.45"/>
</g>
<!-- 8&#45;&gt;10 -->
<g id="edge13" class="edge">
<title>8&#45;&gt;10</title>
<path fill="none" stroke="black" d="M367.35,-40.45C385.05,-37.15 412.28,-32.06 432.98,-28.2"/>
<polygon fill="black" stroke="black" points="433.1,-29.96 437.69,-27.32 432.46,-26.52 433.1,-29.96"/>
</g>
<!-- 9 -->
<g id="node10" class="node">
<title>9</title>
<ellipse fill="none" stroke="black" cx="400.04" cy="-315.79" rx="18" ry="18"/>
<text text-anchor="middle" x="400.04" y="-311.12" font-family="monospace" font-size="14.00">9</text>
</g>
<!-- 9&#45;&gt;7 -->
<g id="edge15" class="edge">
<title>9&#45;&gt;7</title>
<path fill="none" stroke="black" d="M384.85,-305.39C368.87,-294.43 343.61,-277.12 325.9,-264.99"/>
<polygon fill="black" stroke="black" points="327.02,-263.64 321.91,-262.25 325.04,-266.52 327.02,-263.64"/>
</g>
<!-- 9&#45;&gt;11 -->
<g id="edge14" class="edge">
<title>9&#45;&gt;11</title>
<path fill="none" stroke="black" d="M424.43,-311.24C441.91,-307.98 465.54,-303.56 483.94,-300.13"/>
<polygon fill="black" stroke="black" points="424.22,-309.5 419.63,-312.14 424.86,-312.94 424.22,-309.5"/>
<polygon fill="black" stroke="black" points="483.89,-301.92 488.48,-299.28 483.24,-298.48 483.89,-301.92"/>
</g>
</g>
</svg>
