<?xml version="1.0" encoding="UTF-8" standalone="no"?>
<!DOCTYPE svg PUBLIC "-//W3C//DTD SVG 1.1//EN"
 "http://www.w3.org/Graphics/SVG/1.1/DTD/svg11.dtd">
<!-- Generated by graphviz version 12.0.0 (20240704.0754)
 -->
<!-- Pages: 1 -->
<svg width="302pt" height="280pt"
 viewBox="0.00 0.00 301.83 279.54" xmlns="http://www.w3.org/2000/svg" xmlns:xlink="http://www.w3.org/1999/xlink">
<g id="graph0" class="graph" transform="scale(1 1) rotate(0) translate(14.4 265.14)">
<polygon fill="white" stroke="none" points="-14.4,14.4 -14.4,-265.14 287.43,-265.14 287.43,14.4 -14.4,14.4"/>
<!-- 0 -->
<g id="node1" class="node">
<title>0</title>
<ellipse fill="none" stroke="black" cx="160.19" cy="-231.49" rx="18" ry="18"/>
<text text-anchor="middle" x="160.19" y="-226.81" font-family="monospace" font-size="14.00">0</text>
</g>
<!-- 1 -->
<g id="node2" class="node">
<title>1</title>
<ellipse fill="none" stroke="black" cx="255.03" cy="-231.49" rx="18" ry="18"/>
<text text-anchor="middle" x="255.03" y="-226.81" font-family="monospace" font-size="14.00">1</text>
</g>
<!-- 0&#45;&gt;1 -->
<g id="edge1" class="edge">
<title>0&#45;&gt;1</title>
<path fill="none" stroke="black" d="M185.99,-231.49C199.56,-231.49 216.14,-231.49 229.65,-231.49"/>
<polygon fill="black" stroke="black" points="185.99,-229.39 179.99,-231.49 185.99,-233.59 185.99,-229.39"/>
<polygon fill="black" stroke="black" points="229.29,-233.59 235.29,-231.49 229.29,-229.39 229.29,-233.59"/>
<text text-anchor="start" x="198.57" y="-238.19" font-family="monospace" font-size="9.00">1</text>
</g>
<!-- 3 -->
<g id="node3" class="node">
<title>3</title>
<ellipse fill="none" stroke="black" cx="150.04" cy="-136.93" rx="18" ry="18"/>
<text text-anchor="middle" x="150.04" y="-132.25" font-family="monospace" font-size="14.00">3</text>
</g>
<!-- 0&#45;&gt;3 -->
<g id="edge2" class="edge">
<title>0&#45;&gt;3</title>
<path fill="none" stroke="black" d="M157.48,-206.2C156.02,-192.61 154.22,-175.9 152.77,-162.3"/>
<polygon fill="black" stroke="black" points="155.34,-206.01 158.07,-211.75 159.52,-205.56 155.34,-206.01"/>
<polygon fill="black" stroke="black" points="154.88,-162.35 152.15,-156.61 150.71,-162.8 154.88,-162.35"/>
<text text-anchor="start" x="145.87" y="-190.95" font-family="monospace" font-size="9.00">1</text>
</g>
<!-- 2 -->
<g id="node4" class="node">
<title>2</title>
<ellipse fill="none" stroke="black" cx="245.14" cy="-137.16" rx="18" ry="18"/>
<text text-anchor="middle" x="245.14" y="-132.48" font-family="monospace" font-size="14.00">2</text>
</g>
<!-- 1&#45;&gt;2 -->
<g id="edge3" class="edge">
<title>1&#45;&gt;2</title>
<path fill="none" stroke="black" d="M252.34,-205.83C250.93,-192.33 249.2,-175.84 247.79,-162.4"/>
<polygon fill="black" stroke="black" points="250.25,-206.05 252.97,-211.79 254.43,-205.61 250.25,-206.05"/>
<polygon fill="black" stroke="black" points="249.92,-162.54 247.2,-156.8 245.74,-162.98 249.92,-162.54"/>
<text text-anchor="start" x="240.82" y="-190.82" font-family="monospace" font-size="9.00">1</text>
</g>
<!-- 4 -->
<g id="node5" class="node">
<title>4</title>
<ellipse fill="none" stroke="black" cx="82.95" cy="-76.5" rx="18" ry="18"/>
<text text-anchor="middle" x="82.95" y="-71.82" font-family="monospace" font-size="14.00">4</text>
</g>
<!-- 3&#45;&gt;4 -->
<g id="edge5" class="edge">
<title>3&#45;&gt;4</title>
<path fill="none" stroke="black" d="M130.98,-119.76C121.87,-111.56 111,-101.77 101.91,-93.58"/>
<polygon fill="black" stroke="black" points="129.48,-121.23 135.34,-123.69 132.29,-118.11 129.48,-121.23"/>
<polygon fill="black" stroke="black" points="103.5,-92.18 97.63,-89.72 100.68,-95.3 103.5,-92.18"/>
<polygon fill="#ffffff" fill-opacity="0.733333" stroke="none" points="109.2,-108.67 109.2,-119.92 114.45,-119.92 114.45,-108.67 109.2,-108.67"/>
<text text-anchor="start" x="109.2" y="-111.37" font-family="monospace" font-size="9.00">1</text>
</g>
<!-- 2&#45;&gt;3 -->
<g id="edge4" class="edge">
<title>2&#45;&gt;3</title>
<path fill="none" stroke="black" d="M219.71,-137.1C206.05,-137.06 189.24,-137.02 175.56,-136.99"/>
<polygon fill="black" stroke="black" points="219.29,-139.2 225.29,-137.11 219.3,-135 219.29,-139.2"/>
<polygon fill="black" stroke="black" points="175.84,-134.89 169.84,-136.98 175.83,-139.09 175.84,-134.89"/>
<text text-anchor="start" x="188.39" y="-143.74" font-family="monospace" font-size="9.00">1</text>
</g>
<!-- 5 -->
<g id="node6" class="node">
<title>5</title>
<ellipse fill="none" stroke="black" cx="18" cy="-18" rx="18" ry="18"/>
<text text-anchor="middle" x="18" y="-13.32" font-family="monospace" font-size="14.00">5</text>
</g>
<!-- 4&#45;&gt;5 -->
<g id="edge6" class="edge">
<title>4&#45;&gt;5</title>
<path fill="none" stroke="black" d="M63.96,-59.4C55.33,-51.62 45.14,-42.44 36.55,-34.71"/>
<polygon fill="black" stroke="black" points="62.5,-60.91 68.37,-63.37 65.32,-57.79 62.5,-60.91"/>
<polygon fill="black" stroke="black" points="38.43,-33.57 32.57,-31.12 35.62,-36.69 38.43,-33.57"/>
<text text-anchor="start" x="41.01" y="-53.75" font-family="monospace" font-size="9.00">1</text>
</g>
</g>
</svg>
