<?xml version="1.0" encoding="UTF-8" standalone="no"?>
<!DOCTYPE svg PUBLIC "-//W3C//DTD SVG 1.1//EN"
 "http://www.w3.org/Graphics/SVG/1.1/DTD/svg11.dtd">
<!-- Generated by graphviz version 12.0.0 (20240704.0754)
 -->
<!-- Pages: 1 -->
<svg width="202pt" height="202pt"
 viewBox="0.00 0.00 202.31 202.31" xmlns="http://www.w3.org/2000/svg" xmlns:xlink="http://www.w3.org/1999/xlink">
<g id="graph0" class="graph" transform="scale(1 1) rotate(0) translate(14.4 187.91)">
<polygon fill="white" stroke="none" points="-14.4,14.4 -14.4,-187.91 187.91,-187.91 187.91,14.4 -14.4,14.4"/>
<!-- 0 -->
<g id="node1" class="node">
<title>0</title>
<ellipse fill="none" stroke="black" cx="86.75" cy="-18" rx="18" ry="18"/>
<text text-anchor="middle" x="86.75" y="-13.32" font-family="monospace" font-size="14.00">0</text>
</g>
<!-- 1 -->
<g id="node2" class="node">
<title>1</title>
<ellipse fill="none" stroke="black" cx="18" cy="-86.75" rx="18" ry="18"/>
<text text-anchor="middle" x="18" y="-82.08" font-family="monospace" font-size="14.00">1</text>
</g>
<!-- 0&#45;&gt;1 -->
<g id="edge1" class="edge">
<title>0&#45;&gt;1</title>
<path fill="none" stroke="black" d="M73.82,-30.93C63.16,-41.59 47.92,-56.83 36.06,-68.7"/>
<polygon fill="black" stroke="black" points="34.7,-67.08 31.94,-72.81 37.67,-70.05 34.7,-67.08"/>
<text text-anchor="middle" x="31.32" y="-52.51" font-family="monospace" font-size="9.00"> &#160;&#160;&#160;999 &#160;</text>
</g>
<!-- 3 -->
<g id="node3" class="node">
<title>3</title>
<ellipse fill="none" stroke="black" cx="155.51" cy="-86.75" rx="18" ry="18"/>
<text text-anchor="middle" x="155.51" y="-82.08" font-family="monospace" font-size="14.00">3</text>
</g>
<!-- 0&#45;&gt;3 -->
<g id="edge2" class="edge">
<title>0&#45;&gt;3</title>
<path fill="none" stroke="black" d="M99.69,-30.93C110.35,-41.59 125.59,-56.83 137.45,-68.7"/>
<polygon fill="black" stroke="black" points="135.84,-70.05 141.57,-72.81 138.81,-67.08 135.84,-70.05"/>
<text text-anchor="middle" x="115.94" y="-52.51" font-family="monospace" font-size="9.00">2</text>
</g>
<!-- 2 -->
<g id="node4" class="node">
<title>2</title>
<ellipse fill="none" stroke="black" cx="86.75" cy="-155.51" rx="18" ry="18"/>
<text text-anchor="middle" x="86.75" y="-150.83" font-family="monospace" font-size="14.00">2</text>
</g>
<!-- 1&#45;&gt;2 -->
<g id="edge3" class="edge">
<title>1&#45;&gt;2</title>
<path fill="none" stroke="black" d="M26.53,-102.81C36.24,-114.87 52.09,-131.02 65.16,-142.34"/>
<polygon fill="black" stroke="black" points="63.46,-143.65 69.4,-145.89 66.15,-140.43 63.46,-143.65"/>
<text text-anchor="middle" x="37.97" y="-125.27" font-family="monospace" font-size="9.00">&#45;2 </text>
</g>
<!-- 2&#45;&gt;1 -->
<g id="edge4" class="edge">
<title>2&#45;&gt;1</title>
<path fill="none" stroke="black" d="M78.22,-139.46C68.52,-127.4 52.67,-111.24 39.6,-99.93"/>
<polygon fill="black" stroke="black" points="41.3,-98.61 35.35,-96.37 38.6,-101.83 41.3,-98.61"/>
<text text-anchor="middle" x="56.28" y="-122.39" font-family="monospace" font-size="9.00">1</text>
</g>
<!-- 2&#45;&gt;3 -->
</g>
</svg>
