<?xml version="1.0" encoding="UTF-8" standalone="no"?>
<!DOCTYPE svg PUBLIC "-//W3C//DTD SVG 1.1//EN"
 "http://www.w3.org/Graphics/SVG/1.1/DTD/svg11.dtd">
<!-- Generated by graphviz version 12.0.0 (20240704.0754)
 -->
<!-- Pages: 1 -->
<svg width="305pt" height="392pt"
 viewBox="0.00 0.00 304.90 391.60" xmlns="http://www.w3.org/2000/svg" xmlns:xlink="http://www.w3.org/1999/xlink">
<g id="graph0" class="graph" transform="scale(1 1) rotate(0) translate(14.4 377.2)">
<polygon fill="white" stroke="none" points="-14.4,14.4 -14.4,-377.2 290.5,-377.2 290.5,14.4 -14.4,14.4"/>
<!-- 0 -->
<g id="node1" class="node">
<title>0</title>
<ellipse fill="none" stroke="black" cx="258.1" cy="-344.8" rx="18" ry="18"/>
<text text-anchor="middle" x="258.1" y="-340.12" font-family="monospace" font-size="14.00">0</text>
</g>
<!-- 1 -->
<g id="node2" class="node">
<title>1</title>
<ellipse fill="none" stroke="black" cx="227.61" cy="-276.38" rx="18" ry="18"/>
<text text-anchor="middle" x="227.61" y="-271.7" font-family="monospace" font-size="14.00">1</text>
</g>
<!-- 0&#45;&gt;1 -->
<g id="edge1" class="edge">
<title>0&#45;&gt;1</title>
<path fill="none" stroke="black" d="M248.17,-322.53C244.8,-314.95 241.02,-306.47 237.63,-298.87"/>
<polygon fill="black" stroke="black" points="246.47,-323 250.1,-326.85 249.67,-321.57 246.47,-323"/>
<polygon fill="black" stroke="black" points="239.38,-298.5 235.75,-294.65 236.19,-299.93 239.38,-298.5"/>
</g>
<!-- 2 -->
<g id="node3" class="node">
<title>2</title>
<ellipse fill="none" stroke="black" cx="226.54" cy="-198.59" rx="18" ry="18"/>
<text text-anchor="middle" x="226.54" y="-193.91" font-family="monospace" font-size="14.00">2</text>
</g>
<!-- 1&#45;&gt;2 -->
<g id="edge2" class="edge">
<title>1&#45;&gt;2</title>
<path fill="none" stroke="black" d="M227.27,-251.56C227.14,-242.5 227,-232.27 226.88,-223.23"/>
<polygon fill="black" stroke="black" points="225.52,-251.45 227.34,-256.43 229.02,-251.41 225.52,-251.45"/>
<polygon fill="black" stroke="black" points="228.63,-223.38 226.81,-218.4 225.13,-223.43 228.63,-223.38"/>
</g>
<!-- 4 -->
<g id="node4" class="node">
<title>4</title>
<ellipse fill="none" stroke="black" cx="166.7" cy="-227.33" rx="18" ry="18"/>
<text text-anchor="middle" x="166.7" y="-222.66" font-family="monospace" font-size="14.00">4</text>
</g>
<!-- 1&#45;&gt;4 -->
<g id="edge3" class="edge">
<title>1&#45;&gt;4</title>
<path fill="none" stroke="black" d="M213.48,-265C205.26,-258.38 194.78,-249.94 185.82,-242.73"/>
<polygon fill="black" stroke="black" points="186.92,-241.37 181.93,-239.59 184.73,-244.09 186.92,-241.37"/>
</g>
<!-- 3 -->
<g id="node5" class="node">
<title>3</title>
<ellipse fill="none" stroke="black" cx="163.09" cy="-143.01" rx="18" ry="18"/>
<text text-anchor="middle" x="163.09" y="-138.34" font-family="monospace" font-size="14.00">3</text>
</g>
<!-- 3&#45;&gt;2 -->
<g id="edge6" class="edge">
<title>3&#45;&gt;2</title>
<path fill="none" stroke="black" d="M176.86,-155.07C186,-163.08 198.12,-173.69 208.09,-182.43"/>
<polygon fill="black" stroke="black" points="206.74,-183.58 211.66,-185.56 209.05,-180.94 206.74,-183.58"/>
</g>
<!-- 3&#45;&gt;4 -->
<g id="edge4" class="edge">
<title>3&#45;&gt;4</title>
<path fill="none" stroke="black" d="M164.14,-167.56C164.62,-178.65 165.18,-191.72 165.65,-202.8"/>
<polygon fill="black" stroke="black" points="165.9,-167.74 163.94,-162.82 162.4,-167.89 165.9,-167.74"/>
<polygon fill="black" stroke="black" points="163.89,-202.64 165.85,-207.56 167.39,-202.49 163.89,-202.64"/>
</g>
<!-- 7 -->
<g id="node6" class="node">
<title>7</title>
<ellipse fill="none" stroke="black" cx="90.93" cy="-96.78" rx="18" ry="18"/>
<text text-anchor="middle" x="90.93" y="-92.1" font-family="monospace" font-size="14.00">7</text>
</g>
<!-- 3&#45;&gt;7 -->
<g id="edge5" class="edge">
<title>3&#45;&gt;7</title>
<path fill="none" stroke="black" d="M142.36,-129.73C132.72,-123.55 121.28,-116.23 111.65,-110.05"/>
<polygon fill="black" stroke="black" points="141.36,-131.17 146.51,-132.39 143.24,-128.22 141.36,-131.17"/>
<polygon fill="black" stroke="black" points="112.64,-108.61 107.48,-107.39 110.75,-111.56 112.64,-108.61"/>
</g>
<!-- 5 -->
<g id="node7" class="node">
<title>5</title>
<ellipse fill="none" stroke="black" cx="238.39" cy="-99.56" rx="18" ry="18"/>
<text text-anchor="middle" x="238.39" y="-94.88" font-family="monospace" font-size="14.00">5</text>
</g>
<!-- 3&#45;&gt;5 -->
<g id="edge7" class="edge">
<title>3&#45;&gt;5</title>
<path fill="none" stroke="black" d="M179.06,-133.8C190.14,-127.4 205.02,-118.81 217.11,-111.84"/>
<polygon fill="black" stroke="black" points="217.67,-113.53 221.13,-109.52 215.92,-110.5 217.67,-113.53"/>
</g>
<!-- 10 -->
<g id="node8" class="node">
<title>10</title>
<ellipse fill="none" stroke="black" cx="174.58" cy="-57.94" rx="18" ry="18"/>
<text text-anchor="middle" x="174.58" y="-53.26" font-family="monospace" font-size="14.00">10</text>
</g>
<!-- 3&#45;&gt;10 -->
<g id="edge8" class="edge">
<title>3&#45;&gt;10</title>
<path fill="none" stroke="black" d="M165.52,-124.97C167.19,-112.65 169.41,-96.16 171.24,-82.62"/>
<polygon fill="black" stroke="black" points="172.97,-82.94 171.9,-77.75 169.5,-82.47 172.97,-82.94"/>
</g>
<!-- 11 -->
<g id="node9" class="node">
<title>11</title>
<ellipse fill="none" stroke="black" cx="81.61" cy="-173.34" rx="18" ry="18"/>
<text text-anchor="middle" x="81.61" y="-168.67" font-family="monospace" font-size="14.00">11</text>
</g>
<!-- 3&#45;&gt;11 -->
<g id="edge9" class="edge">
<title>3&#45;&gt;11</title>
<path fill="none" stroke="black" d="M145.81,-149.44C133.82,-153.91 117.71,-159.9 104.64,-164.77"/>
<polygon fill="black" stroke="black" points="104.36,-163.01 100.28,-166.39 105.58,-166.29 104.36,-163.01"/>
</g>
<!-- 6 -->
<g id="node10" class="node">
<title>6</title>
<ellipse fill="none" stroke="black" cx="245.34" cy="-21.88" rx="18" ry="18"/>
<text text-anchor="middle" x="245.34" y="-17.21" font-family="monospace" font-size="14.00">6</text>
</g>
<!-- 5&#45;&gt;6 -->
<g id="edge10" class="edge">
<title>5&#45;&gt;6</title>
<path fill="none" stroke="black" d="M240.6,-74.78C241.41,-65.73 242.33,-55.52 243.13,-46.49"/>
<polygon fill="black" stroke="black" points="238.87,-74.51 240.17,-79.64 242.36,-74.82 238.87,-74.51"/>
<polygon fill="black" stroke="black" points="244.86,-46.8 243.57,-41.67 241.38,-46.49 244.86,-46.8"/>
</g>
<!-- 6&#45;&gt;10 -->
<g id="edge11" class="edge">
<title>6&#45;&gt;10</title>
<path fill="none" stroke="black" d="M223.32,-33.1C214.81,-37.44 205.08,-42.4 196.57,-46.73"/>
<polygon fill="black" stroke="black" points="223.92,-34.76 227.58,-30.93 222.33,-31.64 223.92,-34.76"/>
<polygon fill="black" stroke="black" points="195.91,-45.1 192.25,-48.93 197.5,-48.22 195.91,-45.1"/>
</g>
<!-- 8 -->
<g id="node11" class="node">
<title>8</title>
<ellipse fill="none" stroke="black" cx="105.34" cy="-18" rx="18" ry="18"/>
<text text-anchor="middle" x="105.34" y="-13.32" font-family="monospace" font-size="14.00">8</text>
</g>
<!-- 8&#45;&gt;7 -->
<g id="edge12" class="edge">
<title>8&#45;&gt;7</title>
<path fill="none" stroke="black" d="M102.07,-35.88C100.09,-46.68 97.55,-60.59 95.39,-72.39"/>
<polygon fill="black" stroke="black" points="93.69,-71.98 94.51,-77.21 97.13,-72.61 93.69,-71.98"/>
</g>
<!-- 8&#45;&gt;10 -->
<g id="edge13" class="edge">
<title>8&#45;&gt;10</title>
<path fill="none" stroke="black" d="M121.05,-27.06C130.61,-32.58 142.95,-39.69 153.37,-45.7"/>
<polygon fill="black" stroke="black" points="152.41,-47.17 157.62,-48.15 154.16,-44.14 152.41,-47.17"/>
</g>
<!-- 9 -->
<g id="node12" class="node">
<title>9</title>
<ellipse fill="none" stroke="black" cx="18" cy="-127.85" rx="18" ry="18"/>
<text text-anchor="middle" x="18" y="-123.17" font-family="monospace" font-size="14.00">9</text>
</g>
<!-- 9&#45;&gt;7 -->
<g id="edge15" class="edge">
<title>9&#45;&gt;7</title>
<path fill="none" stroke="black" d="M34.91,-120.64C44.85,-116.41 57.55,-111 68.34,-106.4"/>
<polygon fill="black" stroke="black" points="68.8,-108.11 72.71,-104.54 67.43,-104.89 68.8,-108.11"/>
</g>
<!-- 9&#45;&gt;11 -->
<g id="edge14" class="edge">
<title>9&#45;&gt;11</title>
<path fill="none" stroke="black" d="M37.79,-142C45.45,-147.48 54.19,-153.73 61.84,-159.2"/>
<polygon fill="black" stroke="black" points="39.07,-140.76 33.98,-139.28 37.03,-143.61 39.07,-140.76"/>
<polygon fill="black" stroke="black" points="60.62,-160.48 65.71,-161.97 62.66,-157.63 60.62,-160.48"/>
</g>
</g>
</svg>
