<?xml version="1.0" encoding="UTF-8" standalone="no"?>
<!DOCTYPE svg PUBLIC "-//W3C//DTD SVG 1.1//EN"
 "http://www.w3.org/Graphics/SVG/1.1/DTD/svg11.dtd">
<!-- Generated by graphviz version 12.0.0 (20240704.0754)
 -->
<!-- Pages: 1 -->
<svg width="151pt" height="143pt"
 viewBox="0.00 0.00 151.20 142.87" xmlns="http://www.w3.org/2000/svg" xmlns:xlink="http://www.w3.org/1999/xlink">
<g id="graph0" class="graph" transform="scale(1 1) rotate(0) translate(14.4 128.47)">
<polygon fill="white" stroke="none" points="-14.4,14.4 -14.4,-128.47 136.8,-128.47 136.8,14.4 -14.4,14.4"/>
<!-- 0 -->
<g id="node1" class="node">
<title>0</title>
<ellipse fill="none" stroke="black" cx="18" cy="-92.82" rx="18" ry="18"/>
<text text-anchor="middle" x="18" y="-88.15" font-family="monospace" font-size="14.00">0</text>
</g>
<!-- 1 -->
<g id="node2" class="node">
<title>1</title>
<ellipse fill="none" stroke="black" cx="104.4" cy="-92.82" rx="18" ry="18"/>
<text text-anchor="middle" x="104.4" y="-88.15" font-family="monospace" font-size="14.00">1</text>
</g>
<!-- 0&#45;&gt;1 -->
<g id="edge1" class="edge">
<title>0&#45;&gt;1</title>
<path fill="none" stroke="black" d="M43.58,-92.82C54.68,-92.82 67.65,-92.82 78.76,-92.82"/>
<polygon fill="black" stroke="black" points="43.84,-90.72 37.84,-92.82 43.84,-94.92 43.84,-90.72"/>
<polygon fill="black" stroke="black" points="78.59,-94.92 84.59,-92.82 78.59,-90.72 78.59,-94.92"/>
<text text-anchor="start" x="50.92" y="-100.52" font-family="monospace" font-size="9.00">1</text>
</g>
<!-- 2 -->
<g id="node3" class="node">
<title>2</title>
<ellipse fill="none" stroke="black" cx="61.2" cy="-18" rx="18" ry="18"/>
<text text-anchor="middle" x="61.2" y="-13.32" font-family="monospace" font-size="14.00">2</text>
</g>
<!-- 0&#45;&gt;2 -->
<g id="edge2" class="edge">
<title>0&#45;&gt;2</title>
<path fill="none" stroke="black" d="M30.79,-70.67C36.34,-61.06 42.83,-49.83 48.38,-40.21"/>
<polygon fill="black" stroke="black" points="29.1,-69.4 27.92,-75.65 32.74,-71.5 29.1,-69.4"/>
<polygon fill="black" stroke="black" points="50.11,-41.4 51.29,-35.16 46.48,-39.3 50.11,-41.4"/>
<text text-anchor="start" x="29.33" y="-41.89" font-family="monospace" font-size="9.00">2</text>
</g>
<!-- 1&#45;&gt;2 -->
<g id="edge3" class="edge">
<title>1&#45;&gt;2</title>
<path fill="none" stroke="black" d="M91.61,-70.67C86.06,-61.06 79.57,-49.83 74.02,-40.21"/>
<polygon fill="black" stroke="black" points="89.66,-71.5 94.48,-75.65 93.3,-69.4 89.66,-71.5"/>
<polygon fill="black" stroke="black" points="75.92,-39.3 71.11,-35.16 72.29,-41.4 75.92,-39.3"/>
<text text-anchor="start" x="72.57" y="-63.14" font-family="monospace" font-size="9.00">3</text>
</g>
</g>
</svg>
