<?xml version="1.0" encoding="UTF-8" standalone="no"?>
<!DOCTYPE svg PUBLIC "-//W3C//DTD SVG 1.1//EN"
 "http://www.w3.org/Graphics/SVG/1.1/DTD/svg11.dtd">
<!-- Generated by graphviz version 12.0.0 (20240704.0754)
 -->
<!-- Pages: 1 -->
<svg width="352pt" height="349pt"
 viewBox="0.00 0.00 352.26 349.06" xmlns="http://www.w3.org/2000/svg" xmlns:xlink="http://www.w3.org/1999/xlink">
<g id="graph0" class="graph" transform="scale(1 1) rotate(0) translate(14.4 334.66)">
<polygon fill="white" stroke="none" points="-14.4,14.4 -14.4,-334.66 337.86,-334.66 337.86,14.4 -14.4,14.4"/>
<!-- 0 -->
<g id="node1" class="node">
<title>0</title>
<ellipse fill="none" stroke="black" cx="18" cy="-110.72" rx="18" ry="18"/>
<text text-anchor="middle" x="18" y="-106.04" font-family="monospace" font-size="14.00">0</text>
</g>
<!-- 3 -->
<g id="node2" class="node">
<title>3</title>
<ellipse fill="none" stroke="black" cx="116.55" cy="-110.72" rx="18" ry="18"/>
<text text-anchor="middle" x="116.55" y="-106.04" font-family="monospace" font-size="14.00">3</text>
</g>
<!-- 0&#45;&gt;3 -->
<g id="edge1" class="edge">
<title>0&#45;&gt;3</title>
<path fill="none" stroke="#bbbbbb" d="M43.56,-110.72C58.15,-110.72 76.4,-110.72 90.99,-110.72"/>
<polygon fill="#bbbbbb" stroke="#bbbbbb" points="43.59,-108.62 37.59,-110.72 43.59,-112.82 43.59,-108.62"/>
<polygon fill="#bbbbbb" stroke="#bbbbbb" points="90.74,-112.82 96.74,-110.72 90.74,-108.62 90.74,-112.82"/>
<polygon fill="#ffffff" fill-opacity="0.800000" stroke="none" points="60.02,-110.72 60.02,-123.97 67.27,-123.97 67.27,-110.72 60.02,-110.72"/>
<text text-anchor="start" x="61.02" y="-114.42" font-family="monospace" font-size="9.00">0</text>
</g>
<!-- 5 -->
<g id="node9" class="node">
<title>5</title>
<ellipse fill="none" stroke="black" cx="87.25" cy="-188.02" rx="18" ry="18"/>
<text text-anchor="middle" x="87.25" y="-183.34" font-family="monospace" font-size="14.00">5</text>
</g>
<!-- 0&#45;&gt;5 -->
<!-- 7 -->
<g id="node4" class="node">
<title>7</title>
<ellipse fill="none" stroke="black" cx="177.99" cy="-18" rx="18" ry="18"/>
<text text-anchor="middle" x="177.99" y="-13.32" font-family="monospace" font-size="14.00">7</text>
</g>
<!-- 3&#45;&gt;7 -->
<g id="edge7" class="edge">
<title>3&#45;&gt;7</title>
<path fill="none" stroke="#bbbbbb" d="M130.66,-89.42C140.59,-74.43 153.84,-54.45 163.79,-39.44"/>
<polygon fill="#bbbbbb" stroke="#bbbbbb" points="129.1,-87.98 127.53,-94.14 132.6,-90.3 129.1,-87.98"/>
<polygon fill="#bbbbbb" stroke="#bbbbbb" points="165.43,-40.76 166.99,-34.59 161.93,-38.44 165.43,-40.76"/>
<polygon fill="#ffffff" fill-opacity="0.800000" stroke="none" points="138.98,-65.43 138.98,-78.68 146.23,-78.68 146.23,-65.43 138.98,-65.43"/>
<text text-anchor="start" x="139.98" y="-69.13" font-family="monospace" font-size="9.00">0</text>
</g>
<!-- 4 -->
<g id="node8" class="node">
<title>4</title>
<ellipse fill="none" stroke="black" cx="144.03" cy="-240.03" rx="18" ry="18"/>
<text text-anchor="middle" x="144.03" y="-235.36" font-family="monospace" font-size="14.00">4</text>
</g>
<!-- 3&#45;&gt;4 -->
<g id="edge5" class="edge">
<title>3&#45;&gt;4</title>
<path fill="none" stroke="#bbbbbb" d="M121.88,-135.8C126.73,-158.61 133.84,-192.08 138.69,-214.9"/>
<polygon fill="#bbbbbb" stroke="#bbbbbb" points="123.99,-135.61 120.69,-130.18 119.88,-136.48 123.99,-135.61"/>
<polygon fill="#bbbbbb" stroke="#bbbbbb" points="136.62,-215.29 139.93,-220.72 140.73,-214.42 136.62,-215.29"/>
<polygon fill="#ffffff" fill-opacity="0.800000" stroke="none" points="123.03,-175.35 123.03,-188.6 130.28,-188.6 130.28,-175.35 123.03,-175.35"/>
<text text-anchor="start" x="124.03" y="-179.05" font-family="monospace" font-size="9.00">0</text>
</g>
<!-- 3&#45;&gt;5 -->
<g id="edge6" class="edge">
<title>3&#45;&gt;5</title>
<path fill="none" stroke="#bbbbbb" d="M107.41,-134.84C103.87,-144.16 99.84,-154.8 96.31,-164.1"/>
<polygon fill="#bbbbbb" stroke="#bbbbbb" points="109.35,-135.64 109.51,-129.29 105.42,-134.15 109.35,-135.64"/>
<polygon fill="#bbbbbb" stroke="#bbbbbb" points="94.43,-163.14 94.27,-169.49 98.36,-164.63 94.43,-163.14"/>
<polygon fill="#ffffff" fill-opacity="0.800000" stroke="none" points="94.61,-149.47 94.61,-162.72 101.86,-162.72 101.86,-149.47 94.61,-149.47"/>
<text text-anchor="start" x="95.61" y="-153.17" font-family="monospace" font-size="9.00">0</text>
</g>
<!-- 1 -->
<g id="node3" class="node">
<title>1</title>
<ellipse fill="none" stroke="black" cx="288.34" cy="-25.51" rx="18" ry="18"/>
<text text-anchor="middle" x="288.34" y="-20.83" font-family="monospace" font-size="14.00">1</text>
</g>
<!-- 1&#45;&gt;7 -->
<g id="edge2" class="edge">
<title>1&#45;&gt;7</title>
<path fill="none" stroke="#bbbbbb" d="M262.72,-23.77C244.91,-22.55 221.26,-20.94 203.47,-19.73"/>
<polygon fill="#bbbbbb" stroke="#bbbbbb" points="262.48,-25.85 268.61,-24.17 262.76,-21.66 262.48,-25.85"/>
<polygon fill="#bbbbbb" stroke="#bbbbbb" points="203.88,-17.66 197.75,-19.34 203.59,-21.85 203.88,-17.66"/>
<polygon fill="#ffffff" fill-opacity="0.800000" stroke="none" points="225.85,-21.75 225.85,-35 233.1,-35 233.1,-21.75 225.85,-21.75"/>
<text text-anchor="start" x="226.85" y="-25.45" font-family="monospace" font-size="9.00">0</text>
</g>
<!-- 9 -->
<g id="node5" class="node">
<title>9</title>
<ellipse fill="none" stroke="black" cx="305.46" cy="-134.77" rx="18" ry="18"/>
<text text-anchor="middle" x="305.46" y="-130.09" font-family="monospace" font-size="14.00">9</text>
</g>
<!-- 1&#45;&gt;9 -->
<g id="edge3" class="edge">
<title>1&#45;&gt;9</title>
<path fill="none" stroke="#bbbbbb" d="M292.31,-50.87C295.08,-68.51 298.75,-91.93 301.51,-109.54"/>
<polygon fill="#bbbbbb" stroke="#bbbbbb" points="294.4,-50.65 291.4,-45.05 290.25,-51.3 294.4,-50.65"/>
<polygon fill="#bbbbbb" stroke="#bbbbbb" points="299.39,-109.6 302.39,-115.2 303.54,-108.95 299.39,-109.6"/>
<polygon fill="#ffffff" fill-opacity="0.800000" stroke="none" points="289.66,-80.21 289.66,-93.46 296.91,-93.46 296.91,-80.21 289.66,-80.21"/>
<text text-anchor="start" x="290.66" y="-83.91" font-family="monospace" font-size="9.00">1</text>
</g>
<!-- 2 -->
<g id="node6" class="node">
<title>2</title>
<ellipse fill="none" stroke="black" cx="227.09" cy="-302.26" rx="18" ry="18"/>
<text text-anchor="middle" x="227.09" y="-297.58" font-family="monospace" font-size="14.00">2</text>
</g>
<!-- 6 -->
<g id="node7" class="node">
<title>6</title>
<ellipse fill="none" stroke="black" cx="218.49" cy="-204.09" rx="18" ry="18"/>
<text text-anchor="middle" x="218.49" y="-199.41" font-family="monospace" font-size="14.00">6</text>
</g>
<!-- 2&#45;&gt;6 -->
<g id="edge4" class="edge">
<title>2&#45;&gt;6</title>
<path fill="none" stroke="#bbbbbb" d="M224.86,-276.8C223.59,-262.26 221.99,-244.09 220.72,-229.55"/>
<polygon fill="#bbbbbb" stroke="#bbbbbb" points="222.77,-276.95 225.38,-282.75 226.95,-276.58 222.77,-276.95"/>
<polygon fill="#bbbbbb" stroke="#bbbbbb" points="222.83,-229.61 220.22,-223.82 218.65,-229.98 222.83,-229.61"/>
<polygon fill="#ffffff" fill-opacity="0.800000" stroke="none" points="215.54,-253.17 215.54,-266.42 222.79,-266.42 222.79,-253.17 215.54,-253.17"/>
<text text-anchor="start" x="216.54" y="-256.87" font-family="monospace" font-size="9.00">0</text>
</g>
<!-- 2&#45;&gt;4 -->
<!-- 6&#45;&gt;9 -->
<g id="edge12" class="edge">
<title>6&#45;&gt;9</title>
<path fill="none" stroke="black" d="M238.46,-188.16C252.52,-176.96 271.27,-162.02 285.35,-150.79"/>
<polygon fill="black" stroke="black" points="237.41,-186.31 234.03,-191.7 240.03,-189.6 237.41,-186.31"/>
<polygon fill="black" stroke="black" points="286.51,-152.56 289.89,-147.17 283.89,-149.27 286.51,-152.56"/>
<polygon fill="#ffffff" fill-opacity="0.800000" stroke="none" points="247.66,-172.48 247.66,-189.73 258.91,-189.73 258.91,-172.48 247.66,-172.48"/>
<text text-anchor="start" x="250.66" y="-178.18" font-family="monospace" font-size="9.00">1</text>
</g>
<!-- 4&#45;&gt;6 -->
<g id="edge8" class="edge">
<title>4&#45;&gt;6</title>
<path fill="none" stroke="black" d="M167.26,-228.81C176.24,-224.48 186.49,-219.53 195.45,-215.21"/>
<polygon fill="black" stroke="black" points="166.41,-226.9 161.92,-231.4 168.23,-230.68 166.41,-226.9"/>
<polygon fill="black" stroke="black" points="196.15,-217.2 200.64,-212.7 194.33,-213.42 196.15,-217.2"/>
<polygon fill="#ffffff" fill-opacity="0.800000" stroke="none" points="174.11,-222.01 174.11,-235.26 181.36,-235.26 181.36,-222.01 174.11,-222.01"/>
<text text-anchor="start" x="175.11" y="-225.71" font-family="monospace" font-size="9.00">1</text>
</g>
<!-- 8 -->
<g id="node10" class="node">
<title>8</title>
<ellipse fill="none" stroke="black" cx="49.72" cy="-285.99" rx="18" ry="18"/>
<text text-anchor="middle" x="49.72" y="-281.31" font-family="monospace" font-size="14.00">8</text>
</g>
<!-- 4&#45;&gt;8 -->
<g id="edge9" class="edge">
<title>4&#45;&gt;8</title>
<path fill="none" stroke="black" d="M121.18,-251.16C106.48,-258.33 87.44,-267.61 72.71,-274.78"/>
<polygon fill="black" stroke="black" points="121.77,-253.22 126.24,-248.7 119.93,-249.44 121.77,-253.22"/>
<polygon fill="black" stroke="black" points="72.11,-272.74 67.63,-277.26 73.95,-276.52 72.11,-272.74"/>
<polygon fill="#ffffff" fill-opacity="0.800000" stroke="none" points="89.7,-262.97 89.7,-276.22 96.95,-276.22 96.95,-262.97 89.7,-262.97"/>
<text text-anchor="start" x="90.7" y="-266.67" font-family="monospace" font-size="9.00">1</text>
</g>
<!-- 5&#45;&gt;6 -->
<g id="edge10" class="edge">
<title>5&#45;&gt;6</title>
<path fill="none" stroke="black" d="M112.7,-191.13C135.85,-193.97 169.83,-198.13 192.99,-200.96"/>
<polygon fill="black" stroke="black" points="113.21,-189.08 107,-190.44 112.7,-193.25 113.21,-189.08"/>
<polygon fill="black" stroke="black" points="192.68,-203.04 198.89,-201.69 193.19,-198.87 192.68,-203.04"/>
<polygon fill="#ffffff" fill-opacity="0.800000" stroke="none" points="145.59,-196.05 145.59,-209.3 152.84,-209.3 152.84,-196.05 145.59,-196.05"/>
<text text-anchor="start" x="146.59" y="-199.75" font-family="monospace" font-size="9.00">1</text>
</g>
<!-- 5&#45;&gt;8 -->
<g id="edge11" class="edge">
<title>5&#45;&gt;8</title>
<path fill="none" stroke="#bbbbbb" d="M78.16,-211.75C72.31,-227.02 64.73,-246.8 58.87,-262.11"/>
<polygon fill="#bbbbbb" stroke="#bbbbbb" points="79.98,-212.85 80.17,-206.5 76.06,-211.35 79.98,-212.85"/>
<polygon fill="#bbbbbb" stroke="#bbbbbb" points="57.03,-261.02 56.85,-267.38 60.96,-262.52 57.03,-261.02"/>
<polygon fill="#ffffff" fill-opacity="0.800000" stroke="none" points="61.26,-236.93 61.26,-250.18 68.51,-250.18 68.51,-236.93 61.26,-236.93"/>
<text text-anchor="start" x="62.26" y="-240.63" font-family="monospace" font-size="9.00">0</text>
</g>
</g>
</svg>
