<?xml version="1.0" encoding="UTF-8" standalone="no"?>
<!DOCTYPE svg PUBLIC "-//W3C//DTD SVG 1.1//EN"
 "http://www.w3.org/Graphics/SVG/1.1/DTD/svg11.dtd">
<!-- Generated by graphviz version 12.0.0 (20240704.0754)
 -->
<!-- Pages: 1 -->
<svg width="194pt" height="291pt"
 viewBox="0.00 0.00 193.68 290.55" xmlns="http://www.w3.org/2000/svg" xmlns:xlink="http://www.w3.org/1999/xlink">
<g id="graph0" class="graph" transform="scale(1 1) rotate(0) translate(14.4 276.15)">
<polygon fill="white" stroke="none" points="-14.4,14.4 -14.4,-276.15 179.28,-276.15 179.28,14.4 -14.4,14.4"/>
<!-- 0 -->
<g id="node1" class="node">
<title>0</title>
<ellipse fill="none" stroke="black" cx="119.38" cy="-243.75" rx="18" ry="18"/>
<text text-anchor="middle" x="119.38" y="-239.07" font-family="monospace" font-size="14.00">0</text>
</g>
<!-- 1 -->
<g id="node2" class="node">
<title>1</title>
<ellipse fill="none" stroke="black" cx="85.38" cy="-168.5" rx="18" ry="18"/>
<text text-anchor="middle" x="85.38" y="-163.82" font-family="monospace" font-size="14.00">1</text>
</g>
<!-- 0&#45;&gt;1 -->
<g id="edge1" class="edge">
<title>0&#45;&gt;1</title>
<path fill="none" stroke="black" d="M103.79,-233.88C97.06,-229.15 89.88,-222.66 86.13,-214.75 83.1,-208.39 82.1,-200.94 82.08,-193.94"/>
<polygon fill="black" stroke="black" points="84.17,-194.19 82.33,-188.11 79.98,-194.02 84.17,-194.19"/>
<text text-anchor="start" x="88.38" y="-203.2" font-family="monospace" font-size="9.00">1</text>
</g>
<!-- 2 -->
<g id="node3" class="node">
<title>2</title>
<ellipse fill="none" stroke="black" cx="53.38" cy="-18" rx="18" ry="18"/>
<text text-anchor="middle" x="53.38" y="-13.32" font-family="monospace" font-size="14.00">2</text>
</g>
<!-- 0&#45;&gt;2 -->
<g id="edge2" class="edge">
<title>0&#45;&gt;2</title>
<path fill="none" stroke="black" d="M97.33,-230.61C70.13,-214.14 25.47,-181.85 9.13,-139.5 -5.79,-100.86 -1.45,-82.2 20.38,-47 23.55,-41.88 27.97,-37.22 32.55,-33.24"/>
<polygon fill="black" stroke="black" points="95.98,-232.25 102.21,-233.49 98.11,-228.63 95.98,-232.25"/>
<polygon fill="black" stroke="black" points="33.81,-34.92 37.17,-29.52 31.18,-31.65 33.81,-34.92"/>
<text text-anchor="start" x="12.38" y="-127.95" font-family="monospace" font-size="9.00">3</text>
</g>
<!-- 3 -->
<g id="node4" class="node">
<title>3</title>
<ellipse fill="none" stroke="black" cx="125.38" cy="-93.25" rx="18" ry="18"/>
<text text-anchor="middle" x="125.38" y="-88.58" font-family="monospace" font-size="14.00">3</text>
</g>
<!-- 0&#45;&gt;3 -->
<g id="edge3" class="edge">
<title>0&#45;&gt;3</title>
<path fill="none" stroke="black" d="M121.19,-225.61C123.48,-202.25 127.03,-159.13 126.38,-122.25 126.36,-121.19 126.33,-120.1 126.31,-119"/>
<polygon fill="black" stroke="black" points="128.41,-119.17 126.14,-113.24 124.21,-119.29 128.41,-119.17"/>
<text text-anchor="start" x="128.38" y="-165.57" font-family="monospace" font-size="9.00">14</text>
</g>
<!-- 1&#45;&gt;0 -->
<g id="edge4" class="edge">
<title>1&#45;&gt;0</title>
<path fill="none" stroke="black" d="M92.74,-185.36C97.46,-195.53 103.66,-208.89 108.89,-220.16"/>
<polygon fill="black" stroke="black" points="106.93,-220.92 111.36,-225.48 110.74,-219.16 106.93,-220.92"/>
<text text-anchor="start" x="108.38" y="-203.2" font-family="monospace" font-size="9.00">2</text>
</g>
<!-- 1&#45;&gt;2 -->
<g id="edge5" class="edge">
<title>1&#45;&gt;2</title>
<path fill="none" stroke="black" d="M69.33,-160.28C59.61,-155.38 47.4,-148.2 38.38,-139.5 27.62,-129.12 24.35,-125.59 20.13,-111.25 15.6,-95.9 15.9,-90.68 20.13,-75.25 23.69,-62.2 31.15,-49.1 38.1,-38.83"/>
<polygon fill="black" stroke="black" points="39.72,-40.18 41.45,-34.07 36.28,-37.77 39.72,-40.18"/>
<text text-anchor="start" x="23.38" y="-90.33" font-family="monospace" font-size="9.00">4</text>
</g>
<!-- 1&#45;&gt;3 -->
<g id="edge6" class="edge">
<title>1&#45;&gt;3</title>
<path fill="none" stroke="black" d="M82.49,-150.25C81.83,-141.4 82.38,-130.72 86.88,-122.25 90.48,-115.46 96.54,-109.91 102.81,-105.59"/>
<polygon fill="black" stroke="black" points="103.8,-107.45 107.77,-102.49 101.57,-103.89 103.8,-107.45"/>
<text text-anchor="start" x="89.38" y="-127.95" font-family="monospace" font-size="9.00">22</text>
</g>
<!-- 2&#45;&gt;1 -->
<g id="edge7" class="edge">
<title>2&#45;&gt;1</title>
<path fill="none" stroke="black" d="M56.64,-35.81C61.22,-59.14 69.95,-102.63 78.38,-139.5 78.68,-140.86 79.01,-142.25 79.34,-143.65"/>
<polygon fill="black" stroke="black" points="77.23,-143.84 80.69,-149.18 81.31,-142.85 77.23,-143.84"/>
<text text-anchor="start" x="74.38" y="-90.33" font-family="monospace" font-size="9.00">10</text>
</g>
<!-- 2&#45;&gt;3 -->
<g id="edge8" class="edge">
<title>2&#45;&gt;3</title>
<path fill="none" stroke="black" d="M69.67,-26.35C79.16,-31.21 90.89,-38.3 99.38,-47 105.8,-53.59 111.22,-62.07 115.42,-69.91"/>
<polygon fill="black" stroke="black" points="113.38,-70.54 117.97,-74.93 117.13,-68.63 113.38,-70.54"/>
<text text-anchor="start" x="114.38" y="-52.7" font-family="monospace" font-size="9.00">7</text>
</g>
<!-- 3&#45;&gt;0 -->
<g id="edge9" class="edge">
<title>3&#45;&gt;0</title>
<path fill="none" stroke="black" d="M134.44,-109.29C136.62,-113.39 138.78,-117.9 140.38,-122.25 150.22,-149.19 151.23,-158.23 146.38,-186.5 144.24,-198.94 138.46,-211.7 132.79,-221.92"/>
<polygon fill="black" stroke="black" points="131.08,-220.69 129.88,-226.93 134.71,-222.8 131.08,-220.69"/>
<text text-anchor="start" x="151.38" y="-165.57" font-family="monospace" font-size="9.00">13</text>
</g>
<!-- 3&#45;&gt;1 -->
<g id="edge10" class="edge">
<title>3&#45;&gt;1</title>
<path fill="none" stroke="black" d="M118.29,-109.98C114.18,-118.79 108.77,-129.9 103.38,-139.5 102.05,-141.86 100.61,-144.28 99.14,-146.68"/>
<polygon fill="black" stroke="black" points="97.46,-145.4 96.04,-151.6 101.02,-147.64 97.46,-145.4"/>
<text text-anchor="start" x="114.38" y="-127.95" font-family="monospace" font-size="9.00">8</text>
</g>
<!-- 3&#45;&gt;2 -->
<g id="edge11" class="edge">
<title>3&#45;&gt;2</title>
<path fill="none" stroke="black" d="M110.95,-82.37C104.02,-77.31 95.8,-70.85 89.13,-64.25 81.41,-56.62 73.82,-47.34 67.63,-39.18"/>
<polygon fill="black" stroke="black" points="69.36,-37.98 64.1,-34.41 65.99,-40.48 69.36,-37.98"/>
<text text-anchor="start" x="90.38" y="-52.7" font-family="monospace" font-size="9.00">2</text>
</g>
</g>
</svg>
