<?xml version="1.0" encoding="UTF-8" standalone="no"?>
<!DOCTYPE svg PUBLIC "-//W3C//DTD SVG 1.1//EN"
 "http://www.w3.org/Graphics/SVG/1.1/DTD/svg11.dtd">
<!-- Generated by graphviz version 12.0.0 (20240704.0754)
 -->
<!-- Pages: 1 -->
<svg width="281pt" height="66pt"
 viewBox="0.00 0.00 280.79 66.45" xmlns="http://www.w3.org/2000/svg" xmlns:xlink="http://www.w3.org/1999/xlink">
<g id="graph0" class="graph" transform="scale(1 1) rotate(0) translate(14.4 52.05)">
<polygon fill="white" stroke="none" points="-14.4,14.4 -14.4,-52.05 266.39,-52.05 266.39,14.4 -14.4,14.4"/>
<!-- 0 -->
<g id="node1" class="node">
<title>0</title>
<ellipse fill="none" stroke="black" cx="90" cy="-19.37" rx="18" ry="18"/>
<text text-anchor="middle" x="90" y="-14.7" font-family="monospace" font-size="14.00">0</text>
</g>
<!-- 1 -->
<g id="node2" class="node">
<title>1</title>
<ellipse fill="none" stroke="black" cx="162" cy="-19.37" rx="18" ry="18"/>
<text text-anchor="middle" x="162" y="-14.7" font-family="monospace" font-size="14.00">1</text>
</g>
<!-- 0&#45;&gt;1 -->
<g id="edge1" class="edge">
<title>0&#45;&gt;1</title>
<path fill="none" stroke="black" d="M108.17,-19.37C116.63,-19.37 126.85,-19.37 136.1,-19.37"/>
<polygon fill="black" stroke="black" points="136.07,-21.47 142.07,-19.37 136.07,-17.27 136.07,-21.47"/>
<text text-anchor="start" x="113.89" y="-25.07" font-family="monospace" font-size="9.00">2</text>
</g>
<!-- 2 -->
<g id="node3" class="node">
<title>2</title>
<ellipse fill="none" stroke="black" cx="233.99" cy="-18" rx="18" ry="18"/>
<text text-anchor="middle" x="233.99" y="-13.32" font-family="monospace" font-size="14.00">2</text>
</g>
<!-- 1&#45;&gt;2 -->
<g id="edge2" class="edge">
<title>1&#45;&gt;2</title>
<path fill="none" stroke="black" d="M180.17,-19.03C188.63,-18.86 198.85,-18.67 208.1,-18.49"/>
<polygon fill="black" stroke="black" points="208.11,-20.59 214.07,-18.38 208.03,-16.39 208.11,-20.59"/>
<text text-anchor="start" x="185.88" y="-24.46" font-family="monospace" font-size="9.00">2</text>
</g>
<!-- 3 -->
<g id="node4" class="node">
<title>3</title>
<ellipse fill="none" stroke="black" cx="18" cy="-19.65" rx="18" ry="18"/>
<text text-anchor="middle" x="18" y="-14.97" font-family="monospace" font-size="14.00">3</text>
</g>
<!-- 3&#45;&gt;0 -->
<g id="edge3" class="edge">
<title>3&#45;&gt;0</title>
<path fill="none" stroke="black" d="M36.17,-19.58C44.63,-19.55 54.85,-19.51 64.1,-19.47"/>
<polygon fill="black" stroke="black" points="64.08,-21.57 70.07,-19.45 64.07,-17.37 64.08,-21.57"/>
<text text-anchor="start" x="41.89" y="-25.22" font-family="monospace" font-size="9.00">0</text>
</g>
</g>
</svg>
