<?xml version="1.0" encoding="UTF-8" standalone="no"?>
<!DOCTYPE svg PUBLIC "-//W3C//DTD SVG 1.1//EN"
 "http://www.w3.org/Graphics/SVG/1.1/DTD/svg11.dtd">
<!-- Generated by graphviz version 12.0.0 (20240704.0754)
 -->
<!-- Pages: 1 -->
<svg width="426pt" height="316pt"
 viewBox="0.00 0.00 425.56 315.57" xmlns="http://www.w3.org/2000/svg" xmlns:xlink="http://www.w3.org/1999/xlink">
<g id="graph0" class="graph" transform="scale(1 1) rotate(0) translate(14.4 301.17)">
<polygon fill="white" stroke="none" points="-14.4,14.4 -14.4,-301.17 411.16,-301.17 411.16,14.4 -14.4,14.4"/>
<!-- 0 -->
<g id="node1" class="node">
<title>0</title>
<ellipse fill="none" stroke="black" cx="18" cy="-143.39" rx="18" ry="18"/>
<text text-anchor="middle" x="18" y="-138.72" font-family="monospace" font-size="14.00">0</text>
</g>
<!-- 1 -->
<g id="node2" class="node">
<title>1</title>
<ellipse fill="none" stroke="black" cx="92.89" cy="-143.39" rx="18" ry="18"/>
<text text-anchor="middle" x="92.89" y="-138.72" font-family="monospace" font-size="14.00">1</text>
</g>
<!-- 0&#45;&gt;1 -->
<g id="edge1" class="edge">
<title>0&#45;&gt;1</title>
<path fill="none" stroke="black" d="M43.56,-143.39C51.16,-143.39 59.48,-143.39 67.09,-143.39"/>
<polygon fill="black" stroke="black" points="43.64,-141.29 37.64,-143.39 43.64,-145.49 43.64,-141.29"/>
<polygon fill="black" stroke="black" points="66.9,-145.49 72.9,-143.39 66.9,-141.29 66.9,-145.49"/>
</g>
<!-- 2 -->
<g id="node3" class="node">
<title>2</title>
<ellipse fill="none" stroke="black" cx="163.5" cy="-110.3" rx="18" ry="18"/>
<text text-anchor="middle" x="163.5" y="-105.62" font-family="monospace" font-size="14.00">2</text>
</g>
<!-- 1&#45;&gt;2 -->
<g id="edge2" class="edge">
<title>1&#45;&gt;2</title>
<path fill="none" stroke="black" d="M116.28,-132.43C123.95,-128.83 132.47,-124.84 140.14,-121.25"/>
<polygon fill="black" stroke="black" points="115.54,-130.46 111,-134.91 117.32,-134.26 115.54,-130.46"/>
<polygon fill="black" stroke="black" points="140.98,-123.17 145.52,-118.72 139.19,-119.37 140.98,-123.17"/>
</g>
<!-- 4 -->
<g id="node4" class="node">
<title>4</title>
<ellipse fill="none" stroke="black" cx="163.5" cy="-176.48" rx="18" ry="18"/>
<text text-anchor="middle" x="163.5" y="-171.81" font-family="monospace" font-size="14.00">4</text>
</g>
<!-- 1&#45;&gt;4 -->
<g id="edge3" class="edge">
<title>1&#45;&gt;4</title>
<path fill="none" stroke="black" d="M109.63,-151.23C118.77,-155.52 130.24,-160.89 140.24,-165.58"/>
<polygon fill="black" stroke="black" points="139.19,-167.41 145.52,-168.05 140.97,-163.61 139.19,-167.41"/>
</g>
<!-- 3 -->
<g id="node5" class="node">
<title>3</title>
<ellipse fill="none" stroke="black" cx="241.1" cy="-143.38" rx="18" ry="18"/>
<text text-anchor="middle" x="241.1" y="-138.71" font-family="monospace" font-size="14.00">3</text>
</g>
<!-- 3&#45;&gt;2 -->
<g id="edge6" class="edge">
<title>3&#45;&gt;2</title>
<path fill="none" stroke="black" d="M224.26,-136.2C213.38,-131.56 199.06,-125.46 187.06,-120.34"/>
<polygon fill="black" stroke="black" points="188.04,-118.48 181.7,-118.05 186.39,-122.34 188.04,-118.48"/>
</g>
<!-- 3&#45;&gt;4 -->
<g id="edge4" class="edge">
<title>3&#45;&gt;4</title>
<path fill="none" stroke="black" d="M217.5,-153.45C207.84,-157.57 196.68,-162.33 187.03,-166.45"/>
<polygon fill="black" stroke="black" points="218.17,-155.44 222.87,-151.16 216.52,-151.58 218.17,-155.44"/>
<polygon fill="black" stroke="black" points="186.39,-164.43 181.7,-168.72 188.04,-168.3 186.39,-164.43"/>
</g>
<!-- 7 -->
<g id="node6" class="node">
<title>7</title>
<ellipse fill="none" stroke="black" cx="313.38" cy="-97.28" rx="18" ry="18"/>
<text text-anchor="middle" x="313.38" y="-92.6" font-family="monospace" font-size="14.00">7</text>
</g>
<!-- 3&#45;&gt;7 -->
<g id="edge5" class="edge">
<title>3&#45;&gt;7</title>
<path fill="none" stroke="black" d="M262.49,-129.73C271.78,-123.81 282.63,-116.89 291.93,-110.96"/>
<polygon fill="black" stroke="black" points="261.63,-127.79 257.7,-132.79 263.89,-131.33 261.63,-127.79"/>
<polygon fill="black" stroke="black" points="292.87,-112.85 296.8,-107.85 290.61,-109.31 292.87,-112.85"/>
</g>
<!-- 5 -->
<g id="node7" class="node">
<title>5</title>
<ellipse fill="none" stroke="black" cx="248.2" cy="-230.04" rx="18" ry="18"/>
<text text-anchor="middle" x="248.2" y="-225.36" font-family="monospace" font-size="14.00">5</text>
</g>
<!-- 3&#45;&gt;5 -->
<g id="edge7" class="edge">
<title>3&#45;&gt;5</title>
<path fill="none" stroke="black" d="M242.6,-161.76C243.62,-174.17 244.98,-190.71 246.1,-204.41"/>
<polygon fill="black" stroke="black" points="243.99,-204.37 246.57,-210.18 248.17,-204.02 243.99,-204.37"/>
</g>
<!-- 10 -->
<g id="node8" class="node">
<title>10</title>
<ellipse fill="none" stroke="black" cx="313.39" cy="-189.49" rx="18" ry="18"/>
<text text-anchor="middle" x="313.39" y="-184.81" font-family="monospace" font-size="14.00">10</text>
</g>
<!-- 3&#45;&gt;10 -->
<g id="edge8" class="edge">
<title>3&#45;&gt;10</title>
<path fill="none" stroke="black" d="M256.43,-153.16C266.78,-159.76 280.59,-168.57 292.01,-175.85"/>
<polygon fill="black" stroke="black" points="290.62,-177.45 296.8,-178.91 292.87,-173.91 290.62,-177.45"/>
</g>
<!-- 11 -->
<g id="node9" class="node">
<title>11</title>
<ellipse fill="none" stroke="black" cx="248.19" cy="-56.74" rx="18" ry="18"/>
<text text-anchor="middle" x="248.19" y="-52.06" font-family="monospace" font-size="14.00">11</text>
</g>
<!-- 3&#45;&gt;11 -->
<g id="edge9" class="edge">
<title>3&#45;&gt;11</title>
<path fill="none" stroke="black" d="M242.6,-125.01C243.62,-112.6 244.97,-96.05 246.09,-82.36"/>
<polygon fill="black" stroke="black" points="248.17,-82.75 246.57,-76.6 243.98,-82.4 248.17,-82.75"/>
</g>
<!-- 6 -->
<g id="node10" class="node">
<title>6</title>
<ellipse fill="none" stroke="black" cx="316" cy="-268.77" rx="18" ry="18"/>
<text text-anchor="middle" x="316" y="-264.09" font-family="monospace" font-size="14.00">6</text>
</g>
<!-- 5&#45;&gt;6 -->
<g id="edge10" class="edge">
<title>5&#45;&gt;6</title>
<path fill="none" stroke="black" d="M270.42,-242.73C278.06,-247.1 286.61,-251.98 294.23,-256.33"/>
<polygon fill="black" stroke="black" points="271.49,-240.92 265.24,-239.77 269.41,-244.57 271.49,-240.92"/>
<polygon fill="black" stroke="black" points="292.79,-257.93 299.04,-259.08 294.88,-254.28 292.79,-257.93"/>
</g>
<!-- 6&#45;&gt;10 -->
<g id="edge11" class="edge">
<title>6&#45;&gt;10</title>
<path fill="none" stroke="black" d="M315.15,-243.12C314.86,-234.11 314.53,-224.01 314.23,-215.02"/>
<polygon fill="black" stroke="black" points="313.05,-242.94 315.34,-248.87 317.24,-242.8 313.05,-242.94"/>
<polygon fill="black" stroke="black" points="316.34,-215.22 314.04,-209.29 312.14,-215.35 316.34,-215.22"/>
</g>
<!-- 8 -->
<g id="node11" class="node">
<title>8</title>
<ellipse fill="none" stroke="black" cx="378.76" cy="-143.38" rx="18" ry="18"/>
<text text-anchor="middle" x="378.76" y="-138.7" font-family="monospace" font-size="14.00">8</text>
</g>
<!-- 8&#45;&gt;7 -->
<g id="edge12" class="edge">
<title>8&#45;&gt;7</title>
<path fill="none" stroke="black" d="M363.92,-132.92C355.14,-126.73 343.89,-118.79 334.23,-111.98"/>
<polygon fill="black" stroke="black" points="335.51,-110.31 329.39,-108.57 333.09,-113.74 335.51,-110.31"/>
</g>
<!-- 8&#45;&gt;10 -->
<g id="edge13" class="edge">
<title>8&#45;&gt;10</title>
<path fill="none" stroke="black" d="M363.92,-153.84C355.15,-160.03 343.9,-167.97 334.24,-174.78"/>
<polygon fill="black" stroke="black" points="333.09,-173.02 329.4,-178.19 335.51,-176.45 333.09,-173.02"/>
</g>
<!-- 9 -->
<g id="node12" class="node">
<title>9</title>
<ellipse fill="none" stroke="black" cx="315.99" cy="-18" rx="18" ry="18"/>
<text text-anchor="middle" x="315.99" y="-13.32" font-family="monospace" font-size="14.00">9</text>
</g>
<!-- 9&#45;&gt;7 -->
<g id="edge15" class="edge">
<title>9&#45;&gt;7</title>
<path fill="none" stroke="black" d="M315.38,-36.39C315.04,-46.89 314.6,-60.23 314.22,-71.74"/>
<polygon fill="black" stroke="black" points="312.13,-71.41 314.03,-77.48 316.33,-71.55 312.13,-71.41"/>
</g>
<!-- 9&#45;&gt;11 -->
<g id="edge14" class="edge">
<title>9&#45;&gt;11</title>
<path fill="none" stroke="black" d="M293.77,-30.69C286.12,-35.06 277.57,-39.95 269.96,-44.3"/>
<polygon fill="black" stroke="black" points="294.78,-32.54 298.95,-27.74 292.7,-28.89 294.78,-32.54"/>
<polygon fill="black" stroke="black" points="269.31,-42.25 265.15,-47.05 271.4,-45.9 269.31,-42.25"/>
</g>
</g>
</svg>
