<?xml version="1.0" encoding="UTF-8" standalone="no"?>
<!DOCTYPE svg PUBLIC "-//W3C//DTD SVG 1.1//EN"
 "http://www.w3.org/Graphics/SVG/1.1/DTD/svg11.dtd">
<!-- Generated by graphviz version 12.0.0 (20240704.0754)
 -->
<!-- Pages: 1 -->
<svg width="626pt" height="350pt"
 viewBox="0.00 0.00 625.95 350.11" xmlns="http://www.w3.org/2000/svg" xmlns:xlink="http://www.w3.org/1999/xlink">
<g id="graph0" class="graph" transform="scale(1 1) rotate(0) translate(14.4 335.71)">
<polygon fill="white" stroke="none" points="-14.4,14.4 -14.4,-335.71 611.55,-335.71 611.55,14.4 -14.4,14.4"/>
<!-- 0 -->
<g id="node1" class="node">
<title>0</title>
<ellipse fill="none" stroke="black" cx="18" cy="-163.53" rx="18" ry="18"/>
<text text-anchor="middle" x="18" y="-158.86" font-family="monospace" font-size="14.00">0</text>
</g>
<!-- 3 -->
<g id="node2" class="node">
<title>3</title>
<ellipse fill="none" stroke="black" cx="344.35" cy="-163.53" rx="18" ry="18"/>
<text text-anchor="middle" x="344.35" y="-158.86" font-family="monospace" font-size="14.00">3</text>
</g>
<!-- 0&#45;&gt;3 -->
<g id="edge1" class="edge">
<title>0&#45;&gt;3</title>
<path fill="none" stroke="#bbbbbb" d="M43.74,-163.53C104.8,-163.53 257.88,-163.53 318.78,-163.53"/>
<polygon fill="#bbbbbb" stroke="#bbbbbb" points="43.99,-161.43 37.99,-163.53 43.99,-165.63 43.99,-161.43"/>
<polygon fill="#bbbbbb" stroke="#bbbbbb" points="318.56,-165.63 324.56,-163.53 318.56,-161.43 318.56,-165.63"/>
<text text-anchor="middle" x="178.63" y="-166.23" font-family="monospace" font-size="9.00">0</text>
</g>
<!-- 7 -->
<g id="node4" class="node">
<title>7</title>
<ellipse fill="none" stroke="black" cx="280.6" cy="-227.07" rx="18" ry="18"/>
<text text-anchor="middle" x="280.6" y="-222.39" font-family="monospace" font-size="14.00">7</text>
</g>
<!-- 3&#45;&gt;7 -->
<g id="edge6" class="edge">
<title>3&#45;&gt;7</title>
<path fill="none" stroke="#bbbbbb" d="M326.24,-181.58C317.58,-190.21 307.26,-200.5 298.61,-209.11"/>
<polygon fill="#bbbbbb" stroke="#bbbbbb" points="327.61,-183.18 330.38,-177.46 324.64,-180.21 327.61,-183.18"/>
<polygon fill="#bbbbbb" stroke="#bbbbbb" points="297.32,-207.44 294.55,-213.16 300.29,-210.41 297.32,-207.44"/>
<text text-anchor="middle" x="301.93" y="-198.05" font-family="monospace" font-size="9.00">0 &#160;&#160;</text>
</g>
<!-- 5 -->
<g id="node7" class="node">
<title>5</title>
<ellipse fill="none" stroke="black" cx="444.11" cy="-179.5" rx="18" ry="18"/>
<text text-anchor="middle" x="444.11" y="-174.83" font-family="monospace" font-size="14.00">5</text>
</g>
<!-- 3&#45;&gt;5 -->
<g id="edge4" class="edge">
<title>3&#45;&gt;5</title>
<path fill="none" stroke="#bbbbbb" d="M369.37,-167.54C384.53,-169.97 403.82,-173.05 419,-175.49"/>
<polygon fill="#bbbbbb" stroke="#bbbbbb" points="369.93,-165.5 363.68,-166.63 369.27,-169.65 369.93,-165.5"/>
<polygon fill="#bbbbbb" stroke="#bbbbbb" points="418.34,-177.51 424.6,-176.38 419.01,-173.36 418.34,-177.51"/>
<text text-anchor="middle" x="388.94" y="-174.21" font-family="monospace" font-size="9.00"> 0</text>
</g>
<!-- 4 -->
<g id="node8" class="node">
<title>4</title>
<ellipse fill="none" stroke="black" cx="418.81" cy="-18" rx="18" ry="18"/>
<text text-anchor="middle" x="418.81" y="-13.32" font-family="monospace" font-size="14.00">4</text>
</g>
<!-- 3&#45;&gt;4 -->
<g id="edge5" class="edge">
<title>3&#45;&gt;4</title>
<path fill="none" stroke="#bbbbbb" d="M355.99,-140.79C369.96,-113.47 393.26,-67.92 407.22,-40.65"/>
<polygon fill="#bbbbbb" stroke="#bbbbbb" points="354.3,-139.48 353.43,-145.77 358.04,-141.39 354.3,-139.48"/>
<polygon fill="#bbbbbb" stroke="#bbbbbb" points="409,-41.78 409.86,-35.48 405.26,-39.86 409,-41.78"/>
<text text-anchor="middle" x="371.1" y="-93.42" font-family="monospace" font-size="9.00"> &#160;0 </text>
</g>
<!-- 1 -->
<g id="node3" class="node">
<title>1</title>
<ellipse fill="none" stroke="black" cx="204.11" cy="-303.31" rx="18" ry="18"/>
<text text-anchor="middle" x="204.11" y="-298.63" font-family="monospace" font-size="14.00">1</text>
</g>
<!-- 1&#45;&gt;7 -->
<g id="edge2" class="edge">
<title>1&#45;&gt;7</title>
<path fill="none" stroke="#bbbbbb" d="M222.34,-285.13C234.42,-273.1 250.2,-257.37 262.29,-245.32"/>
<polygon fill="#bbbbbb" stroke="#bbbbbb" points="220.92,-283.58 218.16,-289.31 223.89,-286.56 220.92,-283.58"/>
<polygon fill="#bbbbbb" stroke="#bbbbbb" points="263.72,-246.86 266.49,-241.13 260.76,-243.88 263.72,-246.86"/>
<text text-anchor="middle" x="231.82" y="-267.92" font-family="monospace" font-size="9.00">0 &#160;&#160;</text>
</g>
<!-- 2 -->
<g id="node5" class="node">
<title>2</title>
<ellipse fill="none" stroke="black" cx="579.15" cy="-129.42" rx="18" ry="18"/>
<text text-anchor="middle" x="579.15" y="-124.74" font-family="monospace" font-size="14.00">2</text>
</g>
<!-- 6 -->
<g id="node6" class="node">
<title>6</title>
<ellipse fill="none" stroke="black" cx="490.13" cy="-89.56" rx="18" ry="18"/>
<text text-anchor="middle" x="490.13" y="-84.88" font-family="monospace" font-size="14.00">6</text>
</g>
<!-- 2&#45;&gt;6 -->
<g id="edge3" class="edge">
<title>2&#45;&gt;6</title>
<path fill="none" stroke="#bbbbbb" d="M555.68,-118.91C542.71,-113.1 526.64,-105.91 513.65,-100.09"/>
<polygon fill="#bbbbbb" stroke="#bbbbbb" points="554.69,-120.77 561.02,-121.3 556.4,-116.93 554.69,-120.77"/>
<polygon fill="#bbbbbb" stroke="#bbbbbb" points="514.51,-98.18 508.18,-97.64 512.8,-102.01 514.51,-98.18"/>
<text text-anchor="middle" x="532.04" y="-112.2" font-family="monospace" font-size="9.00">0</text>
</g>
<!-- 9 -->
<g id="node10" class="node">
<title>9</title>
<ellipse fill="none" stroke="black" cx="562.69" cy="-24.39" rx="18" ry="18"/>
<text text-anchor="middle" x="562.69" y="-19.71" font-family="monospace" font-size="14.00">9</text>
</g>
<!-- 6&#45;&gt;9 -->
<g id="edge11" class="edge">
<title>6&#45;&gt;9</title>
<path fill="none" stroke="black" d="M509.26,-72.38C519.83,-62.88 532.93,-51.11 543.52,-41.61"/>
<polygon fill="black" stroke="black" points="507.96,-70.72 504.9,-76.29 510.77,-73.84 507.96,-70.72"/>
<polygon fill="black" stroke="black" points="544.92,-43.17 547.98,-37.6 542.11,-40.05 544.92,-43.17"/>
<text text-anchor="middle" x="513.26" y="-59.69" font-family="monospace" font-size="9.00">1 &#160;&#160;&#160;</text>
</g>
<!-- 5&#45;&gt;6 -->
<g id="edge9" class="edge">
<title>5&#45;&gt;6</title>
<path fill="none" stroke="black" d="M455.65,-156.95C462.65,-143.27 471.54,-125.88 478.55,-112.19"/>
<polygon fill="black" stroke="black" points="453.89,-155.78 453.03,-162.08 457.63,-157.69 453.89,-155.78"/>
<polygon fill="black" stroke="black" points="480.26,-113.45 481.13,-107.15 476.52,-111.54 480.26,-113.45"/>
<text text-anchor="middle" x="459.22" y="-137.27" font-family="monospace" font-size="9.00">1 &#160;</text>
</g>
<!-- 8 -->
<g id="node9" class="node">
<title>8</title>
<ellipse fill="none" stroke="black" cx="328.71" cy="-63.72" rx="18" ry="18"/>
<text text-anchor="middle" x="328.71" y="-59.04" font-family="monospace" font-size="14.00">8</text>
</g>
<!-- 5&#45;&gt;8 -->
<g id="edge10" class="edge">
<title>5&#45;&gt;8</title>
<path fill="none" stroke="#bbbbbb" d="M426.02,-161.35C404.37,-139.63 368.34,-103.48 346.72,-81.79"/>
<polygon fill="#bbbbbb" stroke="#bbbbbb" points="424.53,-162.83 430.25,-165.6 427.5,-159.87 424.53,-162.83"/>
<polygon fill="#bbbbbb" stroke="#bbbbbb" points="348.35,-80.45 342.62,-77.68 345.37,-83.41 348.35,-80.45"/>
<text text-anchor="middle" x="383.74" y="-124.27" font-family="monospace" font-size="9.00">0</text>
</g>
<!-- 4&#45;&gt;6 -->
<g id="edge7" class="edge">
<title>4&#45;&gt;6</title>
<path fill="none" stroke="black" d="M436.73,-35.98C447.64,-46.93 461.54,-60.87 472.41,-71.79"/>
<polygon fill="black" stroke="black" points="438.35,-34.63 432.62,-31.87 435.37,-37.6 438.35,-34.63"/>
<polygon fill="black" stroke="black" points="470.7,-73.04 476.42,-75.8 473.67,-70.07 470.7,-73.04"/>
<text text-anchor="middle" x="449.32" y="-56.58" font-family="monospace" font-size="9.00">1 </text>
</g>
<!-- 4&#45;&gt;8 -->
<g id="edge8" class="edge">
<title>4&#45;&gt;8</title>
<path fill="none" stroke="black" d="M396.21,-29.47C382.51,-36.42 365.09,-45.26 351.38,-52.21"/>
<polygon fill="black" stroke="black" points="396.95,-31.45 401.35,-26.86 395.05,-27.7 396.95,-31.45"/>
<polygon fill="black" stroke="black" points="350.73,-50.19 346.33,-54.78 352.63,-53.93 350.73,-50.19"/>
<text text-anchor="middle" x="305.54" y="-32.29" font-family="monospace" font-size="9.00"> &#160;&#160;&#160;&#160;&#160;&#160;&#160;&#160;&#160;&#160;&#160;&#160;&#160;&#160;&#160;&#160;&#160;&#160;&#160;&#160;&#160;&#160;1 &#160;</text>
</g>
</g>
</svg>
