<?xml version="1.0" encoding="UTF-8" standalone="no"?>
<!DOCTYPE svg PUBLIC "-//W3C//DTD SVG 1.1//EN"
 "http://www.w3.org/Graphics/SVG/1.1/DTD/svg11.dtd">
<!-- Generated by graphviz version 12.0.0 (20240704.0754)
 -->
<!-- Pages: 1 -->
<svg width="271pt" height="243pt"
 viewBox="0.00 0.00 271.06 243.43" xmlns="http://www.w3.org/2000/svg" xmlns:xlink="http://www.w3.org/1999/xlink">
<g id="graph0" class="graph" transform="scale(1 1) rotate(0) translate(14.4 229.03)">
<polygon fill="white" stroke="none" points="-14.4,14.4 -14.4,-229.03 256.66,-229.03 256.66,14.4 -14.4,14.4"/>
<!-- 0 -->
<g id="node1" class="node">
<title>0</title>
<ellipse fill="none" stroke="black" cx="69.57" cy="-18" rx="18" ry="18"/>
<text text-anchor="middle" x="69.57" y="-13.33" font-family="monospace" font-size="14.00">0</text>
</g>
<!-- 3 -->
<g id="node2" class="node">
<title>3</title>
<ellipse fill="none" stroke="black" cx="172.7" cy="-18" rx="18" ry="18"/>
<text text-anchor="middle" x="172.7" y="-13.32" font-family="monospace" font-size="14.00">3</text>
</g>
<!-- 0&#45;&gt;3 -->
<g id="edge1" class="edge">
<title>0&#45;&gt;3</title>
<path fill="none" stroke="black" d="M88,-18C104.43,-18 128.63,-18 146.96,-18"/>
<polygon fill="black" stroke="black" points="146.91,-20.1 152.91,-18 146.91,-15.9 146.91,-20.1"/>
</g>
<!-- 4 -->
<g id="node3" class="node">
<title>4</title>
<ellipse fill="none" stroke="black" cx="18" cy="-107.32" rx="18" ry="18"/>
<text text-anchor="middle" x="18" y="-102.64" font-family="monospace" font-size="14.00">4</text>
</g>
<!-- 0&#45;&gt;4 -->
<g id="edge2" class="edge">
<title>0&#45;&gt;4</title>
<path fill="none" stroke="black" d="M60.35,-33.97C52.13,-48.19 40.03,-69.15 30.87,-85.03"/>
<polygon fill="black" stroke="black" points="29.08,-83.93 27.9,-90.17 32.71,-86.03 29.08,-83.93"/>
</g>
<!-- 1 -->
<g id="node6" class="node">
<title>1</title>
<ellipse fill="none" stroke="black" cx="69.57" cy="-196.63" rx="18" ry="18"/>
<text text-anchor="middle" x="69.57" y="-191.96" font-family="monospace" font-size="14.00">1</text>
</g>
<!-- 3&#45;&gt;1 -->
<g id="edge6" class="edge">
<title>3&#45;&gt;1</title>
<path fill="none" stroke="black" d="M163.55,-33.85C145.12,-65.76 103.52,-137.82 82.39,-174.41"/>
<polygon fill="black" stroke="black" points="80.64,-173.26 79.45,-179.5 84.27,-175.36 80.64,-173.26"/>
</g>
<!-- 4&#45;&gt;1 -->
<g id="edge7" class="edge">
<title>4&#45;&gt;1</title>
<path fill="none" stroke="black" d="M27.22,-123.28C35.43,-137.51 47.53,-158.47 56.7,-174.34"/>
<polygon fill="black" stroke="black" points="54.85,-175.34 59.67,-179.49 58.49,-173.24 54.85,-175.34"/>
</g>
<!-- 2 -->
<g id="node4" class="node">
<title>2</title>
<ellipse fill="none" stroke="black" cx="224.26" cy="-107.32" rx="18" ry="18"/>
<text text-anchor="middle" x="224.26" y="-102.64" font-family="monospace" font-size="14.00">2</text>
</g>
<!-- 2&#45;&gt;3 -->
<g id="edge3" class="edge">
<title>2&#45;&gt;3</title>
<path fill="none" stroke="black" d="M215.05,-91.35C206.83,-77.12 194.73,-56.16 185.57,-40.29"/>
<polygon fill="black" stroke="black" points="187.41,-39.29 182.59,-35.14 183.78,-41.39 187.41,-39.29"/>
</g>
<!-- 2&#45;&gt;4 -->
<g id="edge4" class="edge">
<title>2&#45;&gt;4</title>
<path fill="none" stroke="black" d="M205.96,-107.32C169.11,-107.32 85.91,-107.32 43.66,-107.32"/>
<polygon fill="black" stroke="black" points="43.78,-105.22 37.78,-107.32 43.78,-109.42 43.78,-105.22"/>
</g>
<!-- 5 -->
<g id="node5" class="node">
<title>5</title>
<ellipse fill="none" stroke="black" cx="172.7" cy="-196.63" rx="18" ry="18"/>
<text text-anchor="middle" x="172.7" y="-191.96" font-family="monospace" font-size="14.00">5</text>
</g>
<!-- 2&#45;&gt;5 -->
<g id="edge5" class="edge">
<title>2&#45;&gt;5</title>
<path fill="none" stroke="black" d="M215.05,-123.28C206.83,-137.51 194.73,-158.47 185.57,-174.34"/>
<polygon fill="black" stroke="black" points="183.78,-173.24 182.59,-179.49 187.41,-175.34 183.78,-173.24"/>
</g>
<!-- 5&#45;&gt;1 -->
<g id="edge8" class="edge">
<title>5&#45;&gt;1</title>
<path fill="none" stroke="black" d="M154.26,-196.63C137.84,-196.63 113.63,-196.63 95.3,-196.63"/>
<polygon fill="black" stroke="black" points="95.36,-194.53 89.36,-196.63 95.36,-198.73 95.36,-194.53"/>
</g>
</g>
</svg>
