<?xml version="1.0" encoding="UTF-8" standalone="no"?>
<!DOCTYPE svg PUBLIC "-//W3C//DTD SVG 1.1//EN"
 "http://www.w3.org/Graphics/SVG/1.1/DTD/svg11.dtd">
<!-- Generated by graphviz version 12.0.0 (20240704.0754)
 -->
<!-- Pages: 1 -->
<svg width="195pt" height="333pt"
 viewBox="0.00 0.00 194.66 332.55" xmlns="http://www.w3.org/2000/svg" xmlns:xlink="http://www.w3.org/1999/xlink">
<g id="graph0" class="graph" transform="scale(1 1) rotate(0) translate(14.4 318.15)">
<polygon fill="white" stroke="none" points="-14.4,14.4 -14.4,-318.15 180.26,-318.15 180.26,14.4 -14.4,14.4"/>
<!-- 0 -->
<g id="node1" class="node">
<title>0</title>
<ellipse fill="none" stroke="black" cx="117.36" cy="-285.75" rx="18" ry="18"/>
<text text-anchor="middle" x="117.36" y="-281.07" font-family="monospace" font-size="14.00">0</text>
</g>
<!-- 1 -->
<g id="node2" class="node">
<title>1</title>
<ellipse fill="none" stroke="black" cx="83.36" cy="-196.5" rx="18" ry="18"/>
<text text-anchor="middle" x="83.36" y="-191.82" font-family="monospace" font-size="14.00">1</text>
</g>
<!-- 0&#45;&gt;1 -->
<g id="edge1" class="edge">
<title>0&#45;&gt;1</title>
<path fill="none" stroke="black" d="M103.08,-274.11C95.95,-267.89 88.03,-259.37 84.11,-249.75 80.58,-241.09 79.77,-230.92 80.06,-221.88"/>
<polygon fill="black" stroke="black" points="82.14,-222.23 80.43,-216.11 77.95,-221.96 82.14,-222.23"/>
<text text-anchor="start" x="86.36" y="-238.2" font-family="monospace" font-size="9.00">1</text>
</g>
<!-- 2 -->
<g id="node3" class="node">
<title>2</title>
<ellipse fill="none" stroke="black" cx="51.36" cy="-18" rx="18" ry="18"/>
<text text-anchor="middle" x="51.36" y="-13.32" font-family="monospace" font-size="14.00">2</text>
</g>
<!-- 0&#45;&gt;2 -->
<g id="edge2" class="edge">
<title>0&#45;&gt;2</title>
<path fill="none" stroke="black" d="M97.17,-270.17C70.48,-249.4 24.97,-208.48 9.11,-160.5 -5.83,-115.31 -1.37,-96.35 20.36,-54 23.62,-47.64 28.31,-41.51 33.06,-36.2"/>
<polygon fill="black" stroke="black" points="95.64,-271.64 101.68,-273.61 98.18,-268.3 95.64,-271.64"/>
<polygon fill="black" stroke="black" points="34.53,-37.7 37.13,-31.9 31.48,-34.82 34.53,-37.7"/>
<text text-anchor="start" x="12.36" y="-148.95" font-family="monospace" font-size="9.00">3</text>
</g>
<!-- 3 -->
<g id="node4" class="node">
<title>3</title>
<ellipse fill="none" stroke="black" cx="123.36" cy="-107.25" rx="18" ry="18"/>
<text text-anchor="middle" x="123.36" y="-102.58" font-family="monospace" font-size="14.00">3</text>
</g>
<!-- 0&#45;&gt;3 -->
<g id="edge3" class="edge">
<title>0&#45;&gt;3</title>
<path fill="none" stroke="black" d="M118.45,-267.47C119.92,-243.48 122.43,-198.71 123.36,-160.5 123.57,-151.52 123.62,-141.67 123.6,-132.97"/>
<polygon fill="black" stroke="black" points="125.7,-133.17 123.57,-127.18 121.5,-133.19 125.7,-133.17"/>
<text text-anchor="start" x="125.36" y="-193.57" font-family="monospace" font-size="9.00">14</text>
</g>
<!-- 1&#45;&gt;0 -->
<g id="edge4" class="edge">
<title>1&#45;&gt;0</title>
<path fill="none" stroke="black" d="M89.67,-213.7C94.98,-227.32 102.63,-246.95 108.54,-262.13"/>
<polygon fill="black" stroke="black" points="106.44,-262.51 110.57,-267.34 110.35,-260.98 106.44,-262.51"/>
<text text-anchor="start" x="106.36" y="-238.2" font-family="monospace" font-size="9.00">2</text>
</g>
<!-- 1&#45;&gt;2 -->
<g id="edge5" class="edge">
<title>1&#45;&gt;2</title>
<path fill="none" stroke="black" d="M67.96,-186.59C58.02,-180.26 45.31,-171.04 36.36,-160.5 24.93,-147.05 22.28,-142.39 18.11,-125.25 14.32,-109.7 14.6,-104.86 18.11,-89.25 22.05,-71.71 30.89,-53.41 38.46,-39.88"/>
<polygon fill="black" stroke="black" points="40.12,-41.21 41.3,-34.96 36.49,-39.11 40.12,-41.21"/>
<text text-anchor="start" x="21.36" y="-104.33" font-family="monospace" font-size="9.00">4</text>
</g>
<!-- 1&#45;&gt;3 -->
<g id="edge6" class="edge">
<title>1&#45;&gt;3</title>
<path fill="none" stroke="black" d="M80.55,-178.26C79.61,-167.69 79.85,-154.13 84.86,-143.25 88.69,-134.91 95.54,-127.68 102.41,-121.99"/>
<polygon fill="black" stroke="black" points="103.46,-123.84 106.92,-118.51 100.89,-120.51 103.46,-123.84"/>
<text text-anchor="start" x="87.36" y="-148.95" font-family="monospace" font-size="9.00">22</text>
</g>
<!-- 2&#45;&gt;1 -->
<g id="edge7" class="edge">
<title>2&#45;&gt;1</title>
<path fill="none" stroke="black" d="M54.24,-36.01C58.76,-62.61 67.91,-115.64 76.36,-160.5 77.01,-163.97 77.72,-167.63 78.43,-171.23"/>
<polygon fill="black" stroke="black" points="76.33,-171.47 79.57,-176.94 80.45,-170.65 76.33,-171.47"/>
<text text-anchor="start" x="71.36" y="-104.33" font-family="monospace" font-size="9.00">10</text>
</g>
<!-- 2&#45;&gt;3 -->
<g id="edge8" class="edge">
<title>2&#45;&gt;3</title>
<path fill="none" stroke="black" d="M66.47,-27.93C76.22,-34.26 88.66,-43.48 97.36,-54 104.53,-62.67 110.37,-73.65 114.69,-83.3"/>
<polygon fill="black" stroke="black" points="112.68,-83.96 116.96,-88.66 116.55,-82.31 112.68,-83.96"/>
<text text-anchor="start" x="110.36" y="-59.7" font-family="monospace" font-size="9.00">7</text>
</g>
<!-- 3&#45;&gt;0 -->
<g id="edge9" class="edge">
<title>3&#45;&gt;0</title>
<path fill="none" stroke="black" d="M130.5,-124.03C132.96,-129.96 135.55,-136.82 137.36,-143.25 145.97,-173.84 147.74,-183.02 143.36,-214.5 141.02,-231.28 134.33,-249.18 128.32,-262.71"/>
<polygon fill="black" stroke="black" points="126.49,-261.65 125.9,-267.98 130.31,-263.4 126.49,-261.65"/>
<text text-anchor="start" x="150.36" y="-193.57" font-family="monospace" font-size="9.00">13</text>
</g>
<!-- 3&#45;&gt;1 -->
<g id="edge10" class="edge">
<title>3&#45;&gt;1</title>
<path fill="none" stroke="black" d="M116.93,-124.4C112.7,-134.79 106.94,-148.55 101.36,-160.5 99.35,-164.81 97.1,-169.36 94.89,-173.7"/>
<polygon fill="black" stroke="black" points="93.07,-172.65 92.19,-178.95 96.81,-174.57 93.07,-172.65"/>
<text text-anchor="start" x="111.36" y="-148.95" font-family="monospace" font-size="9.00">8</text>
</g>
<!-- 3&#45;&gt;2 -->
<g id="edge11" class="edge">
<title>3&#45;&gt;2</title>
<path fill="none" stroke="black" d="M109.97,-94.54C102.83,-88.01 94.11,-79.54 87.11,-71.25 78.84,-61.47 70.7,-49.77 64.28,-39.93"/>
<polygon fill="black" stroke="black" points="66.14,-38.95 61.14,-35.04 62.61,-41.22 66.14,-38.95"/>
<text text-anchor="start" x="88.36" y="-59.7" font-family="monospace" font-size="9.00">2</text>
</g>
</g>
</svg>
