<?xml version="1.0" encoding="UTF-8" standalone="no"?>
<!DOCTYPE svg PUBLIC "-//W3C//DTD SVG 1.1//EN"
 "http://www.w3.org/Graphics/SVG/1.1/DTD/svg11.dtd">
<!-- Generated by graphviz version 12.0.0 (20240704.0754)
 -->
<!-- Pages: 1 -->
<svg width="281pt" height="80pt"
 viewBox="0.00 0.00 280.80 79.56" xmlns="http://www.w3.org/2000/svg" xmlns:xlink="http://www.w3.org/1999/xlink">
<g id="graph0" class="graph" transform="scale(1 1) rotate(0) translate(14.4 65.16)">
<polygon fill="white" stroke="none" points="-14.4,14.4 -14.4,-65.16 266.4,-65.16 266.4,14.4 -14.4,14.4"/>
<!-- 0 -->
<g id="node1" class="node">
<title>0</title>
<ellipse fill="none" stroke="black" cx="90" cy="-25.06" rx="18" ry="18"/>
<text text-anchor="middle" x="90" y="-20.38" font-family="monospace" font-size="14.00">0</text>
</g>
<!-- 1 -->
<g id="node2" class="node">
<title>1</title>
<ellipse fill="none" stroke="black" cx="162" cy="-25.06" rx="18" ry="18"/>
<text text-anchor="middle" x="162" y="-20.38" font-family="monospace" font-size="14.00">1</text>
</g>
<!-- 0&#45;&gt;1 -->
<g id="edge1" class="edge">
<title>0&#45;&gt;1</title>
<path fill="none" stroke="black" d="M108.17,-25.06C116.63,-25.06 126.85,-25.06 136.1,-25.06"/>
<polygon fill="black" stroke="black" points="136.07,-27.16 142.07,-25.06 136.07,-22.96 136.07,-27.16"/>
<text text-anchor="start" x="120.2" y="-12.51" font-family="monospace" font-size="9.00">999</text>
</g>
<!-- 3 -->
<g id="node3" class="node">
<title>3</title>
<ellipse fill="none" stroke="black" cx="18" cy="-24.6" rx="18" ry="18"/>
<text text-anchor="middle" x="18" y="-19.92" font-family="monospace" font-size="14.00">3</text>
</g>
<!-- 0&#45;&gt;3 -->
<g id="edge2" class="edge">
<title>0&#45;&gt;3</title>
<path fill="none" stroke="black" d="M71.83,-24.94C63.37,-24.89 53.15,-24.82 43.9,-24.76"/>
<polygon fill="black" stroke="black" points="43.94,-22.66 37.93,-24.72 43.91,-26.86 43.94,-22.66"/>
<text text-anchor="start" x="48.61" y="-31.55" font-family="monospace" font-size="9.00">2</text>
</g>
<!-- 2 -->
<g id="node4" class="node">
<title>2</title>
<ellipse fill="none" stroke="black" cx="234" cy="-25.7" rx="18" ry="18"/>
<text text-anchor="middle" x="234" y="-21.03" font-family="monospace" font-size="14.00">2</text>
</g>
<!-- 1&#45;&gt;2 -->
<g id="edge3" class="edge">
<title>1&#45;&gt;2</title>
<path fill="none" stroke="black" d="M179.37,-31.09C188.32,-32.09 199.38,-32.38 209.21,-31.93"/>
<polygon fill="black" stroke="black" points="209.07,-34.04 214.92,-31.54 208.79,-29.85 209.07,-34.04"/>
<text text-anchor="start" x="198.29" y="-38.21" font-family="monospace" font-size="9.00">&#45;2</text>
</g>
<!-- 2&#45;&gt;1 -->
<g id="edge4" class="edge">
<title>2&#45;&gt;1</title>
<path fill="none" stroke="black" d="M216.62,-19.67C207.67,-18.66 196.61,-18.38 186.79,-18.83"/>
<polygon fill="black" stroke="black" points="186.92,-16.72 181.08,-19.22 187.21,-20.91 186.92,-16.72"/>
<text text-anchor="start" x="192.45" y="-6.7" font-family="monospace" font-size="9.00">1</text>
</g>
</g>
</svg>
