<?xml version="1.0" encoding="UTF-8" standalone="no"?>
<!DOCTYPE svg PUBLIC "-//W3C//DTD SVG 1.1//EN"
 "http://www.w3.org/Graphics/SVG/1.1/DTD/svg11.dtd">
<!-- Generated by graphviz version 12.0.0 (20240704.0754)
 -->
<!-- Pages: 1 -->
<svg width="305pt" height="392pt"
 viewBox="0.00 0.00 304.90 391.60" xmlns="http://www.w3.org/2000/svg" xmlns:xlink="http://www.w3.org/1999/xlink">
<g id="graph0" class="graph" transform="scale(1 1) rotate(0) translate(14.4 377.2)">
<polygon fill="white" stroke="none" points="-14.4,14.4 -14.4,-377.2 290.5,-377.2 290.5,14.4 -14.4,14.4"/>
<!-- 0 -->
<g id="node1" class="node">
<title>0</title>
<ellipse fill="none" stroke="black" cx="258.1" cy="-344.8" rx="18" ry="18"/>
<text text-anchor="middle" x="258.1" y="-340.12" font-family="monospace" font-size="14.00">0</text>
</g>
<!-- 1 -->
<g id="node2" class="node">
<title>1</title>
<ellipse fill="none" stroke="black" cx="227.61" cy="-276.38" rx="18" ry="18"/>
<text text-anchor="middle" x="227.61" y="-271.7" font-family="monospace" font-size="14.00">1</text>
</g>
<!-- 0&#45;&gt;1 -->
<g id="edge1" class="edge">
<title>0&#45;&gt;1</title>
<path fill="none" stroke="black" d="M247.69,-321.44C244.6,-314.5 241.21,-306.9 238.11,-299.95"/>
<polygon fill="black" stroke="black" points="245.74,-322.23 250.1,-326.85 249.58,-320.52 245.74,-322.23"/>
<polygon fill="black" stroke="black" points="240.11,-299.27 235.75,-294.65 236.27,-300.98 240.11,-299.27"/>
</g>
<!-- 2 -->
<g id="node3" class="node">
<title>2</title>
<ellipse fill="none" stroke="black" cx="226.54" cy="-198.59" rx="18" ry="18"/>
<text text-anchor="middle" x="226.54" y="-193.91" font-family="monospace" font-size="14.00">2</text>
</g>
<!-- 1&#45;&gt;2 -->
<g id="edge2" class="edge">
<title>1&#45;&gt;2</title>
<path fill="none" stroke="black" d="M227.26,-250.61C227.14,-242.16 227.01,-232.78 226.89,-224.33"/>
<polygon fill="black" stroke="black" points="225.15,-250.46 227.34,-256.43 229.35,-250.4 225.15,-250.46"/>
<polygon fill="black" stroke="black" points="228.99,-224.38 226.81,-218.4 224.79,-224.43 228.99,-224.38"/>
</g>
<!-- 4 -->
<g id="node4" class="node">
<title>4</title>
<ellipse fill="none" stroke="black" cx="166.7" cy="-227.33" rx="18" ry="18"/>
<text text-anchor="middle" x="166.7" y="-222.66" font-family="monospace" font-size="14.00">4</text>
</g>
<!-- 1&#45;&gt;4 -->
<g id="edge3" class="edge">
<title>1&#45;&gt;4</title>
<path fill="none" stroke="black" d="M213.48,-265C205.49,-258.56 195.36,-250.41 186.58,-243.34"/>
<polygon fill="black" stroke="black" points="187.92,-241.72 181.93,-239.59 185.29,-244.99 187.92,-241.72"/>
</g>
<!-- 3 -->
<g id="node5" class="node">
<title>3</title>
<ellipse fill="none" stroke="black" cx="163.09" cy="-143.01" rx="18" ry="18"/>
<text text-anchor="middle" x="163.09" y="-138.34" font-family="monospace" font-size="14.00">3</text>
</g>
<!-- 3&#45;&gt;2 -->
<g id="edge6" class="edge">
<title>3&#45;&gt;2</title>
<path fill="none" stroke="black" d="M176.86,-155.07C185.75,-162.86 197.46,-173.12 207.27,-181.71"/>
<polygon fill="black" stroke="black" points="205.76,-183.18 211.66,-185.56 208.53,-180.02 205.76,-183.18"/>
</g>
<!-- 3&#45;&gt;4 -->
<g id="edge4" class="edge">
<title>3&#45;&gt;4</title>
<path fill="none" stroke="black" d="M164.19,-168.65C164.64,-179.15 165.16,-191.27 165.61,-201.77"/>
<polygon fill="black" stroke="black" points="166.29,-168.72 163.94,-162.82 162.1,-168.9 166.29,-168.72"/>
<polygon fill="black" stroke="black" points="163.5,-201.65 165.85,-207.56 167.7,-201.47 163.5,-201.65"/>
</g>
<!-- 7 -->
<g id="node6" class="node">
<title>7</title>
<ellipse fill="none" stroke="black" cx="90.93" cy="-96.78" rx="18" ry="18"/>
<text text-anchor="middle" x="90.93" y="-92.1" font-family="monospace" font-size="14.00">7</text>
</g>
<!-- 3&#45;&gt;7 -->
<g id="edge5" class="edge">
<title>3&#45;&gt;7</title>
<path fill="none" stroke="black" d="M141.73,-129.33C132.46,-123.39 121.62,-116.44 112.34,-110.5"/>
<polygon fill="black" stroke="black" points="140.33,-130.92 146.51,-132.39 142.59,-127.39 140.33,-130.92"/>
<polygon fill="black" stroke="black" points="113.67,-108.85 107.48,-107.39 111.4,-112.39 113.67,-108.85"/>
</g>
<!-- 5 -->
<g id="node7" class="node">
<title>5</title>
<ellipse fill="none" stroke="black" cx="238.39" cy="-99.56" rx="18" ry="18"/>
<text text-anchor="middle" x="238.39" y="-94.88" font-family="monospace" font-size="14.00">5</text>
</g>
<!-- 3&#45;&gt;5 -->
<g id="edge7" class="edge">
<title>3&#45;&gt;5</title>
<path fill="none" stroke="black" d="M179.06,-133.8C189.84,-127.57 204.22,-119.28 216.12,-112.41"/>
<polygon fill="black" stroke="black" points="216.98,-114.33 221.13,-109.52 214.88,-110.7 216.98,-114.33"/>
</g>
<!-- 10 -->
<g id="node8" class="node">
<title>10</title>
<ellipse fill="none" stroke="black" cx="174.58" cy="-57.94" rx="18" ry="18"/>
<text text-anchor="middle" x="174.58" y="-53.26" font-family="monospace" font-size="14.00">10</text>
</g>
<!-- 3&#45;&gt;10 -->
<g id="edge8" class="edge">
<title>3&#45;&gt;10</title>
<path fill="none" stroke="black" d="M165.52,-124.97C167.16,-112.87 169.33,-96.76 171.14,-83.37"/>
<polygon fill="black" stroke="black" points="173.18,-83.97 171.9,-77.75 169.02,-83.41 173.18,-83.97"/>
</g>
<!-- 11 -->
<g id="node9" class="node">
<title>11</title>
<ellipse fill="none" stroke="black" cx="81.61" cy="-173.34" rx="18" ry="18"/>
<text text-anchor="middle" x="81.61" y="-168.67" font-family="monospace" font-size="14.00">11</text>
</g>
<!-- 3&#45;&gt;11 -->
<g id="edge9" class="edge">
<title>3&#45;&gt;11</title>
<path fill="none" stroke="black" d="M145.81,-149.44C134.14,-153.79 118.58,-159.58 105.7,-164.37"/>
<polygon fill="black" stroke="black" points="105.17,-162.33 100.28,-166.39 106.64,-166.27 105.17,-162.33"/>
</g>
<!-- 6 -->
<g id="node10" class="node">
<title>6</title>
<ellipse fill="none" stroke="black" cx="245.34" cy="-21.88" rx="18" ry="18"/>
<text text-anchor="middle" x="245.34" y="-17.21" font-family="monospace" font-size="14.00">6</text>
</g>
<!-- 5&#45;&gt;6 -->
<g id="edge10" class="edge">
<title>5&#45;&gt;6</title>
<path fill="none" stroke="black" d="M240.69,-73.83C241.44,-65.39 242.28,-56.02 243.04,-47.59"/>
<polygon fill="black" stroke="black" points="238.61,-73.48 240.17,-79.64 242.79,-73.85 238.61,-73.48"/>
<polygon fill="black" stroke="black" points="245.12,-47.83 243.57,-41.67 240.94,-47.46 245.12,-47.83"/>
</g>
<!-- 6&#45;&gt;10 -->
<g id="edge11" class="edge">
<title>6&#45;&gt;10</title>
<path fill="none" stroke="black" d="M222.44,-33.55C214.41,-37.64 205.39,-42.24 197.36,-46.33"/>
<polygon fill="black" stroke="black" points="223.18,-35.53 227.58,-30.93 221.28,-31.79 223.18,-35.53"/>
<polygon fill="black" stroke="black" points="196.64,-44.34 192.25,-48.93 198.55,-48.08 196.64,-44.34"/>
</g>
<!-- 8 -->
<g id="node11" class="node">
<title>8</title>
<ellipse fill="none" stroke="black" cx="105.34" cy="-18" rx="18" ry="18"/>
<text text-anchor="middle" x="105.34" y="-13.32" font-family="monospace" font-size="14.00">8</text>
</g>
<!-- 8&#45;&gt;7 -->
<g id="edge12" class="edge">
<title>8&#45;&gt;7</title>
<path fill="none" stroke="black" d="M102.07,-35.88C100.15,-46.38 97.69,-59.82 95.57,-71.41"/>
<polygon fill="black" stroke="black" points="93.52,-70.93 94.51,-77.21 97.65,-71.69 93.52,-70.93"/>
</g>
<!-- 8&#45;&gt;10 -->
<g id="edge13" class="edge">
<title>8&#45;&gt;10</title>
<path fill="none" stroke="black" d="M121.05,-27.06C130.35,-32.42 142.27,-39.3 152.49,-45.2"/>
<polygon fill="black" stroke="black" points="151.37,-46.98 157.62,-48.15 153.47,-43.34 151.37,-46.98"/>
</g>
<!-- 9 -->
<g id="node12" class="node">
<title>9</title>
<ellipse fill="none" stroke="black" cx="18" cy="-127.85" rx="18" ry="18"/>
<text text-anchor="middle" x="18" y="-123.17" font-family="monospace" font-size="14.00">9</text>
</g>
<!-- 9&#45;&gt;7 -->
<g id="edge15" class="edge">
<title>9&#45;&gt;7</title>
<path fill="none" stroke="black" d="M34.91,-120.64C44.58,-116.52 56.84,-111.3 67.43,-106.79"/>
<polygon fill="black" stroke="black" points="68.02,-108.82 72.71,-104.54 66.37,-104.96 68.02,-108.82"/>
</g>
<!-- 9&#45;&gt;11 -->
<g id="edge14" class="edge">
<title>9&#45;&gt;11</title>
<path fill="none" stroke="black" d="M38.85,-142.75C46.02,-147.89 54.04,-153.62 61.18,-158.73"/>
<polygon fill="black" stroke="black" points="40.09,-141.06 33.98,-139.28 37.64,-144.48 40.09,-141.06"/>
<polygon fill="black" stroke="black" points="59.6,-160.18 65.71,-161.97 62.05,-156.77 59.6,-160.18"/>
</g>
</g>
</svg>
