<?xml version="1.0" encoding="UTF-8" standalone="no"?>
<!DOCTYPE svg PUBLIC "-//W3C//DTD SVG 1.1//EN"
 "http://www.w3.org/Graphics/SVG/1.1/DTD/svg11.dtd">
<!-- Generated by graphviz version 12.0.0 (20240704.0754)
 -->
<!-- Pages: 1 -->
<svg width="556pt" height="267pt"
 viewBox="0.00 0.00 555.95 266.92" xmlns="http://www.w3.org/2000/svg" xmlns:xlink="http://www.w3.org/1999/xlink">
<g id="graph0" class="graph" transform="scale(1 1) rotate(0) translate(14.4 252.52)">
<polygon fill="white" stroke="none" points="-14.4,14.4 -14.4,-252.52 541.55,-252.52 541.55,14.4 -14.4,14.4"/>
<!-- 0 -->
<g id="node1" class="node">
<title>0</title>
<ellipse fill="none" stroke="black" cx="242.95" cy="-18" rx="18" ry="18"/>
<text text-anchor="middle" x="242.95" y="-13.33" font-family="monospace" font-size="14.00">0</text>
</g>
<!-- 1 -->
<g id="node2" class="node">
<title>1</title>
<ellipse fill="none" stroke="black" cx="321.2" cy="-18" rx="18" ry="18"/>
<text text-anchor="middle" x="321.2" y="-13.32" font-family="monospace" font-size="14.00">1</text>
</g>
<!-- 0&#45;&gt;1 -->
<g id="edge1" class="edge">
<title>0&#45;&gt;1</title>
<path fill="none" stroke="black" d="M268.54,-18C277.21,-18 286.89,-18 295.56,-18"/>
<polygon fill="black" stroke="black" points="268.61,-15.9 262.61,-18 268.61,-20.1 268.61,-15.9"/>
<polygon fill="black" stroke="black" points="295.36,-20.1 301.36,-18 295.36,-15.9 295.36,-20.1"/>
</g>
<!-- 7 -->
<g id="node3" class="node">
<title>7</title>
<ellipse fill="none" stroke="black" cx="320.65" cy="-101.96" rx="18" ry="18"/>
<text text-anchor="middle" x="320.65" y="-97.28" font-family="monospace" font-size="14.00">7</text>
</g>
<!-- 1&#45;&gt;7 -->
<g id="edge2" class="edge">
<title>1&#45;&gt;7</title>
<path fill="none" stroke="black" d="M321.08,-36.22C321,-47.91 320.9,-63.27 320.82,-76.2"/>
<polygon fill="black" stroke="black" points="318.72,-75.96 320.78,-81.97 322.92,-75.99 318.72,-75.96"/>
</g>
<!-- 2 -->
<g id="node4" class="node">
<title>2</title>
<ellipse fill="none" stroke="black" cx="238.66" cy="-101.9" rx="18" ry="18"/>
<text text-anchor="middle" x="238.66" y="-97.22" font-family="monospace" font-size="14.00">2</text>
</g>
<!-- 2&#45;&gt;0 -->
<g id="edge3" class="edge">
<title>2&#45;&gt;0</title>
<path fill="none" stroke="black" d="M239.59,-83.69C240.19,-72.01 240.98,-56.66 241.64,-43.74"/>
<polygon fill="black" stroke="black" points="243.72,-44.07 241.93,-37.97 239.53,-43.85 243.72,-44.07"/>
</g>
<!-- 2&#45;&gt;7 -->
<g id="edge5" class="edge">
<title>2&#45;&gt;7</title>
<path fill="none" stroke="black" d="M264.19,-101.92C273.91,-101.92 284.98,-101.93 294.73,-101.94"/>
<polygon fill="black" stroke="black" points="264.37,-99.82 258.37,-101.91 264.37,-104.02 264.37,-99.82"/>
<polygon fill="black" stroke="black" points="294.7,-104.04 300.71,-101.94 294.71,-99.84 294.7,-104.04"/>
</g>
<!-- 5 -->
<g id="node5" class="node">
<title>5</title>
<ellipse fill="none" stroke="black" cx="166.28" cy="-141.28" rx="18" ry="18"/>
<text text-anchor="middle" x="166.28" y="-136.61" font-family="monospace" font-size="14.00">5</text>
</g>
<!-- 2&#45;&gt;5 -->
<g id="edge4" class="edge">
<title>2&#45;&gt;5</title>
<path fill="none" stroke="black" d="M222.6,-110.64C212.67,-116.04 199.77,-123.06 188.82,-129.02"/>
<polygon fill="black" stroke="black" points="187.9,-127.13 183.63,-131.84 189.9,-130.82 187.9,-127.13"/>
</g>
<!-- 3 -->
<g id="node6" class="node">
<title>3</title>
<ellipse fill="none" stroke="black" cx="91.25" cy="-113.43" rx="18" ry="18"/>
<text text-anchor="middle" x="91.25" y="-108.76" font-family="monospace" font-size="14.00">3</text>
</g>
<!-- 5&#45;&gt;3 -->
<g id="edge7" class="edge">
<title>5&#45;&gt;3</title>
<path fill="none" stroke="black" d="M149.26,-134.97C139.25,-131.25 126.45,-126.5 115.42,-122.4"/>
<polygon fill="black" stroke="black" points="116.24,-120.47 109.89,-120.35 114.78,-124.41 116.24,-120.47"/>
</g>
<!-- 6 -->
<g id="node8" class="node">
<title>6</title>
<ellipse fill="none" stroke="black" cx="147.47" cy="-220.12" rx="18" ry="18"/>
<text text-anchor="middle" x="147.47" y="-215.44" font-family="monospace" font-size="14.00">6</text>
</g>
<!-- 5&#45;&gt;6 -->
<g id="edge8" class="edge">
<title>5&#45;&gt;6</title>
<path fill="none" stroke="black" d="M160.34,-166.17C158.13,-175.43 155.63,-185.93 153.42,-195.19"/>
<polygon fill="black" stroke="black" points="162.31,-166.97 161.66,-160.65 158.23,-165.99 162.31,-166.97"/>
<polygon fill="black" stroke="black" points="151.42,-194.5 152.07,-200.83 155.51,-195.48 151.42,-194.5"/>
</g>
<!-- 4 -->
<g id="node7" class="node">
<title>4</title>
<ellipse fill="none" stroke="black" cx="18" cy="-98.11" rx="18" ry="18"/>
<text text-anchor="middle" x="18" y="-93.44" font-family="monospace" font-size="14.00">4</text>
</g>
<!-- 3&#45;&gt;4 -->
<g id="edge6" class="edge">
<title>3&#45;&gt;4</title>
<path fill="none" stroke="black" d="M65.88,-108.13C58.47,-106.58 50.38,-104.89 43,-103.34"/>
<polygon fill="black" stroke="black" points="65.36,-110.16 71.66,-109.34 66.22,-106.05 65.36,-110.16"/>
<polygon fill="black" stroke="black" points="43.68,-101.34 37.38,-102.17 42.82,-105.45 43.68,-101.34"/>
</g>
<!-- 8 -->
<g id="node9" class="node">
<title>8</title>
<ellipse fill="none" stroke="black" cx="391.44" cy="-140.64" rx="18" ry="18"/>
<text text-anchor="middle" x="391.44" y="-135.96" font-family="monospace" font-size="14.00">8</text>
</g>
<!-- 8&#45;&gt;7 -->
<g id="edge9" class="edge">
<title>8&#45;&gt;7</title>
<path fill="none" stroke="black" d="M375.38,-131.86C365.87,-126.67 353.69,-120.01 343.23,-114.3"/>
<polygon fill="black" stroke="black" points="344.25,-112.46 337.98,-111.43 342.23,-116.15 344.25,-112.46"/>
</g>
<!-- 11 -->
<g id="node10" class="node">
<title>11</title>
<ellipse fill="none" stroke="black" cx="469.96" cy="-121.02" rx="18" ry="18"/>
<text text-anchor="middle" x="469.96" y="-116.35" font-family="monospace" font-size="14.00">11</text>
</g>
<!-- 8&#45;&gt;11 -->
<g id="edge10" class="edge">
<title>8&#45;&gt;11</title>
<path fill="none" stroke="black" d="M409.26,-136.19C419.9,-133.53 433.57,-130.11 445.25,-127.2"/>
<polygon fill="black" stroke="black" points="445.43,-129.32 450.74,-125.82 444.41,-125.24 445.43,-129.32"/>
</g>
<!-- 9 -->
<g id="node11" class="node">
<title>9</title>
<ellipse fill="none" stroke="black" cx="432.51" cy="-209.8" rx="18" ry="18"/>
<text text-anchor="middle" x="432.51" y="-205.12" font-family="monospace" font-size="14.00">9</text>
</g>
<!-- 8&#45;&gt;9 -->
<g id="edge11" class="edge">
<title>8&#45;&gt;9</title>
<path fill="none" stroke="black" d="M404.58,-162.77C409.32,-170.75 414.67,-179.77 419.41,-187.75"/>
<polygon fill="black" stroke="black" points="406.4,-161.72 401.53,-157.63 402.79,-163.86 406.4,-161.72"/>
<polygon fill="black" stroke="black" points="417.58,-188.78 422.45,-192.87 421.19,-186.63 417.58,-188.78"/>
</g>
<!-- 10 -->
<g id="node12" class="node">
<title>10</title>
<ellipse fill="none" stroke="black" cx="509.15" cy="-189.72" rx="18" ry="18"/>
<text text-anchor="middle" x="509.15" y="-185.04" font-family="monospace" font-size="14.00">10</text>
</g>
<!-- 10&#45;&gt;11 -->
<g id="edge13" class="edge">
<title>10&#45;&gt;11</title>
<path fill="none" stroke="black" d="M496.47,-167.49C492.02,-159.69 487.02,-150.94 482.58,-143.14"/>
<polygon fill="black" stroke="black" points="494.51,-168.3 499.31,-172.47 498.16,-166.22 494.51,-168.3"/>
<polygon fill="black" stroke="black" points="484.55,-142.36 479.75,-138.18 480.9,-144.44 484.55,-142.36"/>
</g>
<!-- 10&#45;&gt;9 -->
<g id="edge12" class="edge">
<title>10&#45;&gt;9</title>
<path fill="none" stroke="black" d="M491.37,-194.37C481.22,-197.04 468.33,-200.41 457.2,-203.33"/>
<polygon fill="black" stroke="black" points="456.92,-201.23 451.65,-204.78 457.99,-205.29 456.92,-201.23"/>
</g>
</g>
</svg>
