<?xml version="1.0" encoding="UTF-8" standalone="no"?>
<!DOCTYPE svg PUBLIC "-//W3C//DTD SVG 1.1//EN"
 "http://www.w3.org/Graphics/SVG/1.1/DTD/svg11.dtd">
<!-- Generated by graphviz version 12.0.0 (20240704.0754)
 -->
<!-- Pages: 1 -->
<svg width="346pt" height="460pt"
 viewBox="0.00 0.00 345.80 460.46" xmlns="http://www.w3.org/2000/svg" xmlns:xlink="http://www.w3.org/1999/xlink">
<g id="graph0" class="graph" transform="scale(1 1) rotate(0) translate(14.4 446.06)">
<polygon fill="white" stroke="none" points="-14.4,14.4 -14.4,-446.06 331.4,-446.06 331.4,14.4 -14.4,14.4"/>
<!-- 0 -->
<g id="node1" class="node">
<title>0</title>
<ellipse fill="none" stroke="black" cx="18" cy="-235.05" rx="18" ry="18"/>
<text text-anchor="middle" x="18" y="-230.37" font-family="monospace" font-size="14.00">0</text>
</g>
<!-- 3 -->
<g id="node2" class="node">
<title>3</title>
<ellipse fill="none" stroke="black" cx="113.24" cy="-235.05" rx="18" ry="18"/>
<text text-anchor="middle" x="113.24" y="-230.37" font-family="monospace" font-size="14.00">3</text>
</g>
<!-- 0&#45;&gt;3 -->
<g id="edge1" class="edge">
<title>0&#45;&gt;3</title>
<path fill="none" stroke="#bbbbbb" d="M43.47,-235.05C57.16,-235.05 73.98,-235.05 87.68,-235.05"/>
<polygon fill="#bbbbbb" stroke="#bbbbbb" points="43.88,-232.95 37.88,-235.05 43.88,-237.15 43.88,-232.95"/>
<polygon fill="#bbbbbb" stroke="#bbbbbb" points="87.42,-237.15 93.42,-235.05 87.42,-232.95 87.42,-237.15"/>
<text text-anchor="start" x="58.33" y="-239.75" font-family="monospace" font-size="9.00">0</text>
</g>
<!-- 7 -->
<g id="node4" class="node">
<title>7</title>
<ellipse fill="none" stroke="black" cx="117.65" cy="-327.53" rx="18" ry="18"/>
<text text-anchor="middle" x="117.65" y="-322.86" font-family="monospace" font-size="14.00">7</text>
</g>
<!-- 3&#45;&gt;7 -->
<g id="edge7" class="edge">
<title>3&#45;&gt;7</title>
<path fill="none" stroke="#bbbbbb" d="M114.46,-260.56C115.07,-273.48 115.82,-289.13 116.44,-302.05"/>
<polygon fill="#bbbbbb" stroke="#bbbbbb" points="116.57,-260.73 114.18,-254.83 112.37,-260.93 116.57,-260.73"/>
<polygon fill="#bbbbbb" stroke="#bbbbbb" points="114.33,-301.9 116.71,-307.79 118.52,-301.7 114.33,-301.9"/>
<text text-anchor="start" x="107.2" y="-287" font-family="monospace" font-size="9.00">0</text>
</g>
<!-- 4 -->
<g id="node7" class="node">
<title>4</title>
<ellipse fill="none" stroke="black" cx="211.31" cy="-209.47" rx="18" ry="18"/>
<text text-anchor="middle" x="211.31" y="-204.8" font-family="monospace" font-size="14.00">4</text>
</g>
<!-- 3&#45;&gt;4 -->
<g id="edge4" class="edge">
<title>3&#45;&gt;4</title>
<path fill="none" stroke="#bbbbbb" d="M137.84,-228.64C152.75,-224.75 171.71,-219.8 186.63,-215.91"/>
<polygon fill="#bbbbbb" stroke="#bbbbbb" points="137.51,-226.55 132.24,-230.1 138.57,-230.61 137.51,-226.55"/>
<polygon fill="#bbbbbb" stroke="#bbbbbb" points="186.86,-218.02 192.14,-214.47 185.8,-213.96 186.86,-218.02"/>
<text text-anchor="start" x="154.99" y="-226.97" font-family="monospace" font-size="9.00">0</text>
</g>
<!-- 5 -->
<g id="node8" class="node">
<title>5</title>
<ellipse fill="none" stroke="black" cx="111.91" cy="-136.24" rx="18" ry="18"/>
<text text-anchor="middle" x="111.91" y="-131.56" font-family="monospace" font-size="14.00">5</text>
</g>
<!-- 3&#45;&gt;5 -->
<g id="edge5" class="edge">
<title>3&#45;&gt;5</title>
<path fill="none" stroke="#bbbbbb" d="M112.9,-209.43C112.7,-194.79 112.45,-176.5 112.25,-161.86"/>
<polygon fill="#bbbbbb" stroke="#bbbbbb" points="110.8,-209.44 112.98,-215.41 114.99,-209.38 110.8,-209.44"/>
<polygon fill="#bbbbbb" stroke="#bbbbbb" points="114.36,-162.06 112.18,-156.09 110.16,-162.12 114.36,-162.06"/>
<text text-anchor="start" x="105.32" y="-190.34" font-family="monospace" font-size="9.00">0</text>
</g>
<!-- 1 -->
<g id="node3" class="node">
<title>1</title>
<ellipse fill="none" stroke="black" cx="115.85" cy="-413.66" rx="18" ry="18"/>
<text text-anchor="middle" x="115.85" y="-408.98" font-family="monospace" font-size="14.00">1</text>
</g>
<!-- 1&#45;&gt;7 -->
<g id="edge2" class="edge">
<title>1&#45;&gt;7</title>
<path fill="none" stroke="#bbbbbb" d="M116.39,-388.16C116.62,-377.1 116.89,-364.17 117.12,-353.09"/>
<polygon fill="#bbbbbb" stroke="#bbbbbb" points="114.29,-387.84 116.27,-393.88 118.49,-387.92 114.29,-387.84"/>
<polygon fill="#bbbbbb" stroke="#bbbbbb" points="119.22,-353.33 117.24,-347.29 115.02,-353.24 119.22,-353.33"/>
<text text-anchor="start" x="106.5" y="-378.33" font-family="monospace" font-size="9.00">0</text>
</g>
<!-- 2 -->
<g id="node5" class="node">
<title>2</title>
<ellipse fill="none" stroke="black" cx="299" cy="-92.13" rx="18" ry="18"/>
<text text-anchor="middle" x="299" y="-87.45" font-family="monospace" font-size="14.00">2</text>
</g>
<!-- 6 -->
<g id="node6" class="node">
<title>6</title>
<ellipse fill="none" stroke="black" cx="207.9" cy="-110.15" rx="18" ry="18"/>
<text text-anchor="middle" x="207.9" y="-105.47" font-family="monospace" font-size="14.00">6</text>
</g>
<!-- 2&#45;&gt;6 -->
<g id="edge3" class="edge">
<title>2&#45;&gt;6</title>
<path fill="none" stroke="#bbbbbb" d="M273.87,-97.1C261.14,-99.62 245.73,-102.67 233,-105.18"/>
<polygon fill="#bbbbbb" stroke="#bbbbbb" points="274.04,-99.21 279.52,-95.98 273.22,-95.09 274.04,-99.21"/>
<polygon fill="#bbbbbb" stroke="#bbbbbb" points="232.82,-103.08 227.35,-106.3 233.64,-107.2 232.82,-103.08"/>
<text text-anchor="start" x="246.19" y="-105.84" font-family="monospace" font-size="9.00">0</text>
</g>
<!-- 9 -->
<g id="node10" class="node">
<title>9</title>
<ellipse fill="none" stroke="black" cx="196.53" cy="-18" rx="18" ry="18"/>
<text text-anchor="middle" x="196.53" y="-13.32" font-family="monospace" font-size="14.00">9</text>
</g>
<!-- 6&#45;&gt;9 -->
<g id="edge11" class="edge">
<title>6&#45;&gt;9</title>
<path fill="none" stroke="black" d="M204.77,-84.73C203.18,-71.86 201.25,-56.27 199.67,-43.39"/>
<polygon fill="black" stroke="black" points="202.65,-84.74 205.47,-90.44 206.82,-84.23 202.65,-84.74"/>
<polygon fill="black" stroke="black" points="201.78,-43.37 198.96,-37.67 197.61,-43.88 201.78,-43.37"/>
<text text-anchor="start" x="194.97" y="-68.76" font-family="monospace" font-size="9.00">1</text>
</g>
<!-- 4&#45;&gt;6 -->
<g id="edge8" class="edge">
<title>4&#45;&gt;6</title>
<path fill="none" stroke="black" d="M210.44,-184.18C209.94,-169.42 209.3,-150.83 208.79,-135.98"/>
<polygon fill="black" stroke="black" points="208.33,-183.82 210.64,-189.74 212.53,-183.67 208.33,-183.82"/>
<polygon fill="black" stroke="black" points="210.89,-136.02 208.59,-130.1 206.69,-136.17 210.89,-136.02"/>
<text text-anchor="start" x="202.37" y="-164.78" font-family="monospace" font-size="9.00">1</text>
</g>
<!-- 8 -->
<g id="node9" class="node">
<title>8</title>
<ellipse fill="none" stroke="black" cx="161.77" cy="-173.24" rx="18" ry="18"/>
<text text-anchor="middle" x="161.77" y="-168.56" font-family="monospace" font-size="14.00">8</text>
</g>
<!-- 4&#45;&gt;8 -->
<g id="edge9" class="edge">
<title>4&#45;&gt;8</title>
<path fill="none" stroke="black" d="M190.65,-194.36C188,-192.42 185.29,-190.44 182.64,-188.5"/>
<polygon fill="black" stroke="black" points="189.15,-195.86 195.23,-197.71 191.62,-192.47 189.15,-195.86"/>
<polygon fill="black" stroke="black" points="183.93,-186.84 177.85,-184.99 181.45,-190.23 183.93,-186.84"/>
<text text-anchor="start" x="179.4" y="-196.13" font-family="monospace" font-size="9.00">1</text>
</g>
<!-- 5&#45;&gt;6 -->
<g id="edge10" class="edge">
<title>5&#45;&gt;6</title>
<path fill="none" stroke="black" d="M136.35,-129.59C150.62,-125.72 168.58,-120.83 182.94,-116.93"/>
<polygon fill="black" stroke="black" points="136.21,-127.45 130.98,-131.06 137.32,-131.51 136.21,-127.45"/>
<polygon fill="black" stroke="black" points="183.38,-118.99 188.62,-115.39 182.28,-114.94 183.38,-118.99"/>
<text text-anchor="start" x="152.4" y="-127.96" font-family="monospace" font-size="9.00">1</text>
</g>
<!-- 5&#45;&gt;8 -->
<g id="edge6" class="edge">
<title>5&#45;&gt;8</title>
<path fill="none" stroke="#bbbbbb" d="M132.57,-151.56C135.44,-153.7 138.4,-155.89 141.28,-158.03"/>
<polygon fill="#bbbbbb" stroke="#bbbbbb" points="133.89,-149.93 127.82,-148.04 131.38,-153.3 133.89,-149.93"/>
<polygon fill="#bbbbbb" stroke="#bbbbbb" points="139.73,-159.5 145.8,-161.38 142.23,-156.12 139.73,-159.5"/>
<text text-anchor="start" x="129.67" y="-159.5" font-family="monospace" font-size="9.00">0</text>
</g>
<!-- 8&#45;&gt;3 -->
<!-- 8&#45;&gt;6 -->
</g>
</svg>
