<?xml version="1.0" encoding="UTF-8" standalone="no"?>
<!DOCTYPE svg PUBLIC "-//W3C//DTD SVG 1.1//EN"
 "http://www.w3.org/Graphics/SVG/1.1/DTD/svg11.dtd">
<!-- Generated by graphviz version 12.0.0 (20240704.0754)
 -->
<!-- Pages: 1 -->
<svg width="202pt" height="204pt"
 viewBox="0.00 0.00 201.91 203.71" xmlns="http://www.w3.org/2000/svg" xmlns:xlink="http://www.w3.org/1999/xlink">
<g id="graph0" class="graph" transform="scale(1 1) rotate(0) translate(14.4 189.31)">
<polygon fill="white" stroke="none" points="-14.4,14.4 -14.4,-189.31 187.51,-189.31 187.51,14.4 -14.4,14.4"/>
<!-- 0 -->
<g id="node1" class="node">
<title>0</title>
<ellipse fill="none" stroke="black" cx="92.52" cy="-94.47" rx="18" ry="18"/>
<text text-anchor="middle" x="92.52" y="-89.79" font-family="monospace" font-size="14.00">0</text>
</g>
<!-- 1 -->
<g id="node2" class="node">
<title>1</title>
<ellipse fill="none" stroke="black" cx="155.11" cy="-94.47" rx="18" ry="18"/>
<text text-anchor="middle" x="155.11" y="-89.79" font-family="monospace" font-size="14.00">1</text>
</g>
<!-- 0&#45;&gt;1 -->
<g id="edge1" class="edge">
<title>0&#45;&gt;1</title>
<path fill="none" stroke="black" d="M118.17,-94.47C121.93,-94.47 125.79,-94.47 129.55,-94.47"/>
<polygon fill="black" stroke="black" points="118.48,-92.37 112.48,-94.47 118.48,-96.57 118.48,-92.37"/>
<polygon fill="black" stroke="black" points="129.5,-96.57 135.5,-94.47 129.5,-92.37 129.5,-96.57"/>
<text text-anchor="start" x="125.55" y="-79.92" font-family="monospace" font-size="9.00">1</text>
</g>
<!-- 3 -->
<g id="node3" class="node">
<title>3</title>
<ellipse fill="none" stroke="black" cx="40.49" cy="-45.86" rx="18" ry="18"/>
<text text-anchor="middle" x="40.49" y="-41.19" font-family="monospace" font-size="14.00">3</text>
</g>
<!-- 0&#45;&gt;3 -->
<g id="edge2" class="edge">
<title>0&#45;&gt;3</title>
<path fill="none" stroke="black" d="M73.74,-76.92C68.96,-72.45 63.82,-67.66 59.05,-63.2"/>
<polygon fill="black" stroke="black" points="72.2,-78.36 78.02,-80.92 75.06,-75.29 72.2,-78.36"/>
<polygon fill="black" stroke="black" points="60.59,-61.76 54.77,-59.2 57.72,-64.83 60.59,-61.76"/>
<text text-anchor="start" x="59.14" y="-74.76" font-family="monospace" font-size="9.00">1</text>
</g>
<!-- 5 -->
<g id="node6" class="node">
<title>5</title>
<ellipse fill="none" stroke="black" cx="96.78" cy="-156.91" rx="18" ry="18"/>
<text text-anchor="middle" x="96.78" y="-152.23" font-family="monospace" font-size="14.00">5</text>
</g>
<!-- 0&#45;&gt;5 -->
<!-- 2 -->
<g id="node4" class="node">
<title>2</title>
<ellipse fill="none" stroke="black" cx="118.47" cy="-18" rx="18" ry="18"/>
<text text-anchor="middle" x="118.47" y="-13.32" font-family="monospace" font-size="14.00">2</text>
</g>
<!-- 1&#45;&gt;2 -->
<g id="edge3" class="edge">
<title>1&#45;&gt;2</title>
<path fill="none" stroke="black" d="M143.97,-71.21C139.4,-61.69 134.14,-50.7 129.58,-41.18"/>
<polygon fill="black" stroke="black" points="142.02,-72.01 146.5,-76.51 145.81,-70.19 142.02,-72.01"/>
<polygon fill="black" stroke="black" points="131.54,-40.43 127.06,-35.92 127.76,-42.24 131.54,-40.43"/>
<text text-anchor="start" x="129.52" y="-60.9" font-family="monospace" font-size="9.00">1</text>
</g>
<!-- 1&#45;&gt;5 -->
<!-- 4 -->
<g id="node5" class="node">
<title>4</title>
<ellipse fill="none" stroke="black" cx="18" cy="-125.55" rx="18" ry="18"/>
<text text-anchor="middle" x="18" y="-120.88" font-family="monospace" font-size="14.00">4</text>
</g>
<!-- 3&#45;&gt;4 -->
<g id="edge5" class="edge">
<title>3&#45;&gt;4</title>
<path fill="none" stroke="black" d="M33.47,-70.73C30.76,-80.34 27.66,-91.31 24.96,-100.9"/>
<polygon fill="black" stroke="black" points="35.48,-71.35 35.09,-65.01 31.43,-70.21 35.48,-71.35"/>
<polygon fill="black" stroke="black" points="23,-100.12 23.39,-106.46 27.04,-101.26 23,-100.12"/>
<polygon fill="#ffffff" fill-opacity="0.733333" stroke="none" points="23.96,-85.82 23.96,-97.07 29.21,-97.07 29.21,-85.82 23.96,-85.82"/>
<text text-anchor="start" x="23.96" y="-88.52" font-family="monospace" font-size="9.00">1</text>
</g>
<!-- 2&#45;&gt;3 -->
<g id="edge4" class="edge">
<title>2&#45;&gt;3</title>
<path fill="none" stroke="black" d="M94.13,-26.69C84.73,-30.05 74,-33.89 64.61,-37.24"/>
<polygon fill="black" stroke="black" points="94.79,-28.69 99.74,-24.69 93.38,-24.73 94.79,-28.69"/>
<polygon fill="black" stroke="black" points="64.11,-35.19 59.17,-39.19 65.53,-39.15 64.11,-35.19"/>
<text text-anchor="start" x="72.12" y="-36.67" font-family="monospace" font-size="9.00">1</text>
</g>
<!-- 4&#45;&gt;5 -->
<g id="edge6" class="edge">
<title>4&#45;&gt;5</title>
<path fill="none" stroke="black" d="M41.96,-135.09C51.77,-138.99 63.09,-143.5 72.89,-147.4"/>
<polygon fill="black" stroke="black" points="42.85,-133.19 36.5,-132.92 41.3,-137.09 42.85,-133.19"/>
<polygon fill="black" stroke="black" points="71.96,-149.29 78.31,-149.56 73.51,-145.39 71.96,-149.29"/>
<text text-anchor="start" x="50.17" y="-145.95" font-family="monospace" font-size="9.00">1</text>
</g>
</g>
</svg>
