<?xml version="1.0" encoding="UTF-8" standalone="no"?>
<!DOCTYPE svg PUBLIC "-//W3C//DTD SVG 1.1//EN"
 "http://www.w3.org/Graphics/SVG/1.1/DTD/svg11.dtd">
<!-- Generated by graphviz version 12.0.0 (20240704.0754)
 -->
<!-- Pages: 1 -->
<svg width="302pt" height="423pt"
 viewBox="0.00 0.00 301.76 422.55" xmlns="http://www.w3.org/2000/svg" xmlns:xlink="http://www.w3.org/1999/xlink">
<g id="graph0" class="graph" transform="scale(1 1) rotate(0) translate(14.4 408.15)">
<polygon fill="white" stroke="none" points="-14.4,14.4 -14.4,-408.15 287.36,-408.15 287.36,14.4 -14.4,14.4"/>
<!-- 0 -->
<g id="node1" class="node">
<title>0</title>
<ellipse fill="none" stroke="black" cx="211.21" cy="-375.75" rx="18" ry="18"/>
<text text-anchor="middle" x="211.21" y="-371.07" font-family="monospace" font-size="14.00">0</text>
</g>
<!-- 1 -->
<g id="node2" class="node">
<title>1</title>
<ellipse fill="none" stroke="black" cx="152.21" cy="-256.5" rx="18" ry="18"/>
<text text-anchor="middle" x="152.21" y="-251.82" font-family="monospace" font-size="14.00">1</text>
</g>
<!-- 0&#45;&gt;1 -->
<g id="edge1" class="edge">
<title>0&#45;&gt;1</title>
<path fill="none" stroke="black" d="M195.66,-366.16C181.23,-357.21 160.66,-341.69 151.71,-321.75 146.16,-309.36 146,-294.22 147.36,-281.76"/>
<polygon fill="black" stroke="black" points="149.43,-282.12 148.17,-275.89 145.27,-281.55 149.43,-282.12"/>
<text text-anchor="middle" x="156.46" y="-313.2" font-family="monospace" font-size="9.00"> 1</text>
</g>
<!-- 2 -->
<g id="node3" class="node">
<title>2</title>
<ellipse fill="none" stroke="black" cx="85.21" cy="-18" rx="18" ry="18"/>
<text text-anchor="middle" x="85.21" y="-13.32" font-family="monospace" font-size="14.00">2</text>
</g>
<!-- 0&#45;&gt;2 -->
<g id="edge2" class="edge">
<title>0&#45;&gt;2</title>
<path fill="none" stroke="black" d="M189.45,-361.97C148.97,-336.96 62.45,-277.4 20.71,-202.5 -7.53,-151.8 -6.92,-120.32 25.21,-72 35.53,-56.48 51.5,-42.68 64.37,-33.06"/>
<polygon fill="black" stroke="black" points="188.26,-363.71 194.47,-365.04 190.44,-360.12 188.26,-363.71"/>
<polygon fill="black" stroke="black" points="65.55,-34.79 69.17,-29.57 63.08,-31.4 65.55,-34.79"/>
<text text-anchor="middle" x="26.46" y="-193.95" font-family="monospace" font-size="9.00"> 3</text>
</g>
<!-- 3 -->
<g id="node4" class="node">
<title>3</title>
<ellipse fill="none" stroke="black" cx="218.21" cy="-137.25" rx="18" ry="18"/>
<text text-anchor="middle" x="218.21" y="-132.57" font-family="monospace" font-size="14.00">3</text>
</g>
<!-- 0&#45;&gt;3 -->
<g id="edge3" class="edge">
<title>0&#45;&gt;3</title>
<path fill="none" stroke="black" d="M211.73,-357.36C212.96,-315.93 216.05,-211.28 217.48,-163.16"/>
<polygon fill="black" stroke="black" points="219.58,-163.24 217.65,-157.18 215.38,-163.11 219.58,-163.24"/>
<text text-anchor="middle" x="222.09" y="-253.57" font-family="monospace" font-size="9.00"> 14</text>
</g>
<!-- 1&#45;&gt;0 -->
<g id="edge4" class="edge">
<title>1&#45;&gt;0</title>
<path fill="none" stroke="black" d="M160.12,-273.21C170.45,-293.74 188.6,-329.8 200.25,-352.97"/>
<polygon fill="black" stroke="black" points="198.25,-353.65 202.82,-358.07 202,-351.77 198.25,-353.65"/>
<text text-anchor="middle" x="188.46" y="-313.2" font-family="monospace" font-size="9.00"> 2</text>
</g>
<!-- 1&#45;&gt;2 -->
<g id="edge5" class="edge">
<title>1&#45;&gt;2</title>
<path fill="none" stroke="black" d="M135.39,-249.65C114.12,-241.61 77.26,-225.48 52.21,-202.5 33.8,-185.6 28.78,-179.23 21.71,-155.25 8.55,-110.57 44.61,-61.95 67.66,-36.62"/>
<polygon fill="black" stroke="black" points="69.05,-38.2 71.6,-32.38 65.98,-35.34 69.05,-38.2"/>
<text text-anchor="middle" x="27.46" y="-134.32" font-family="monospace" font-size="9.00"> 4</text>
</g>
<!-- 1&#45;&gt;3 -->
<g id="edge6" class="edge">
<title>1&#45;&gt;3</title>
<path fill="none" stroke="black" d="M147.27,-238.76C144.23,-225.24 142.17,-206.08 149.46,-191.25 158.95,-171.96 179.21,-157.71 195.29,-148.88"/>
<polygon fill="black" stroke="black" points="196.2,-150.77 200.54,-146.13 194.25,-147.05 196.2,-150.77"/>
<text text-anchor="middle" x="157.09" y="-193.95" font-family="monospace" font-size="9.00"> 22</text>
</g>
<!-- 2&#45;&gt;1 -->
<g id="edge7" class="edge">
<title>2&#45;&gt;1</title>
<path fill="none" stroke="black" d="M89.52,-35.77C97.88,-68.13 117.1,-141.4 135.21,-202.5 138.12,-212.3 141.52,-223.04 144.52,-232.28"/>
<polygon fill="black" stroke="black" points="142.49,-232.83 146.35,-237.88 146.48,-231.53 142.49,-232.83"/>
<text text-anchor="middle" x="126.46" y="-134.32" font-family="monospace" font-size="9.00">10</text>
</g>
<!-- 2&#45;&gt;3 -->
<g id="edge8" class="edge">
<title>2&#45;&gt;3</title>
<path fill="none" stroke="black" d="M101.23,-26.88C119.05,-36.13 148.1,-52.68 169.21,-72 183.09,-84.7 195.87,-101.71 204.9,-115.05"/>
<polygon fill="black" stroke="black" points="203.11,-116.16 208.18,-120 206.62,-113.84 203.11,-116.16"/>
<text text-anchor="middle" x="184.46" y="-74.7" font-family="monospace" font-size="9.00"> 7</text>
</g>
<!-- 3&#45;&gt;0 -->
<g id="edge9" class="edge">
<title>3&#45;&gt;0</title>
<path fill="none" stroke="black" d="M228.79,-152.22C235.83,-162.43 244.44,-176.94 248.21,-191.25 262.99,-247.36 261.1,-266.23 244.21,-321.75 240.54,-333.83 233.38,-345.89 226.66,-355.45"/>
<polygon fill="black" stroke="black" points="225.09,-354.04 223.25,-360.12 228.48,-356.51 225.09,-354.04"/>
<text text-anchor="middle" x="265.09" y="-253.57" font-family="monospace" font-size="9.00"> 13</text>
</g>
<!-- 3&#45;&gt;1 -->
<g id="edge10" class="edge">
<title>3&#45;&gt;1</title>
<path fill="none" stroke="black" d="M209.58,-153.58C198.07,-174.04 177.62,-210.37 164.5,-233.68"/>
<polygon fill="black" stroke="black" points="162.7,-232.59 161.59,-238.85 166.36,-234.65 162.7,-232.59"/>
<text text-anchor="middle" x="191.46" y="-193.95" font-family="monospace" font-size="9.00"> 8</text>
</g>
<!-- 3&#45;&gt;2 -->
<g id="edge11" class="edge">
<title>3&#45;&gt;2</title>
<path fill="none" stroke="black" d="M204.68,-125.01C191.94,-114.38 172.38,-97.9 155.71,-83.25 137.71,-67.42 117.52,-48.94 103.38,-35.88"/>
<polygon fill="black" stroke="black" points="105.02,-34.54 99.19,-32.01 102.17,-37.63 105.02,-34.54"/>
<text text-anchor="middle" x="160.46" y="-74.7" font-family="monospace" font-size="9.00"> 2</text>
</g>
</g>
</svg>
