<?xml version="1.0" encoding="UTF-8" standalone="no"?>
<!DOCTYPE svg PUBLIC "-//W3C//DTD SVG 1.1//EN"
 "http://www.w3.org/Graphics/SVG/1.1/DTD/svg11.dtd">
<!-- Generated by graphviz version 12.0.0 (20240704.0754)
 -->
<!-- Pages: 1 -->
<svg width="508pt" height="559pt"
 viewBox="0.00 0.00 508.31 559.06" xmlns="http://www.w3.org/2000/svg" xmlns:xlink="http://www.w3.org/1999/xlink">
<g id="graph0" class="graph" transform="scale(1 1) rotate(0) translate(14.4 544.66)">
<polygon fill="white" stroke="none" points="-14.4,14.4 -14.4,-544.66 493.91,-544.66 493.91,14.4 -14.4,14.4"/>
<!-- 0 -->
<g id="node1" class="node">
<title>0</title>
<ellipse fill="none" stroke="black" cx="86.75" cy="-165.25" rx="18" ry="18"/>
<text text-anchor="middle" x="86.75" y="-160.57" font-family="monospace" font-size="14.00">0</text>
</g>
<!-- 1 -->
<g id="node2" class="node">
<title>1</title>
<ellipse fill="none" stroke="black" cx="18" cy="-234" rx="18" ry="18"/>
<text text-anchor="middle" x="18" y="-229.32" font-family="monospace" font-size="14.00">1</text>
</g>
<!-- 0&#45;&gt;1 -->
<g id="edge1" class="edge">
<title>0&#45;&gt;1</title>
<path fill="none" stroke="black" d="M68.63,-183.37C58.61,-193.39 46.2,-205.8 36.17,-215.83"/>
<polygon fill="black" stroke="black" points="69.99,-184.98 72.75,-179.25 67.02,-182.01 69.99,-184.98"/>
<polygon fill="black" stroke="black" points="34.7,-214.33 31.94,-220.06 37.67,-217.3 34.7,-214.33"/>
</g>
<!-- 7 -->
<g id="node3" class="node">
<title>7</title>
<ellipse fill="none" stroke="black" cx="86.75" cy="-302.75" rx="18" ry="18"/>
<text text-anchor="middle" x="86.75" y="-298.08" font-family="monospace" font-size="14.00">7</text>
</g>
<!-- 1&#45;&gt;7 -->
<g id="edge2" class="edge">
<title>1&#45;&gt;7</title>
<path fill="none" stroke="black" d="M30.93,-246.93C41.59,-257.59 56.83,-272.83 68.7,-284.7"/>
<polygon fill="black" stroke="black" points="67.08,-286.05 72.81,-288.81 70.05,-283.08 67.08,-286.05"/>
</g>
<!-- 2 -->
<g id="node4" class="node">
<title>2</title>
<ellipse fill="none" stroke="black" cx="155.51" cy="-234" rx="18" ry="18"/>
<text text-anchor="middle" x="155.51" y="-229.32" font-family="monospace" font-size="14.00">2</text>
</g>
<!-- 2&#45;&gt;0 -->
<g id="edge3" class="edge">
<title>2&#45;&gt;0</title>
<path fill="none" stroke="black" d="M142.58,-221.07C131.92,-210.41 116.68,-195.17 104.81,-183.3"/>
<polygon fill="black" stroke="black" points="106.43,-181.95 100.7,-179.19 103.46,-184.92 106.43,-181.95"/>
</g>
<!-- 2&#45;&gt;7 -->
<g id="edge5" class="edge">
<title>2&#45;&gt;7</title>
<path fill="none" stroke="black" d="M137.39,-252.12C127.37,-262.14 114.95,-274.56 104.92,-284.59"/>
<polygon fill="black" stroke="black" points="138.75,-253.73 141.51,-248 135.78,-250.76 138.75,-253.73"/>
<polygon fill="black" stroke="black" points="103.46,-283.08 100.7,-288.81 106.43,-286.05 103.46,-283.08"/>
</g>
<!-- 5 -->
<g id="node5" class="node">
<title>5</title>
<ellipse fill="none" stroke="black" cx="461.51" cy="-234" rx="18" ry="18"/>
<text text-anchor="middle" x="461.51" y="-229.32" font-family="monospace" font-size="14.00">5</text>
</g>
<!-- 2&#45;&gt;5 -->
<g id="edge4" class="edge">
<title>2&#45;&gt;5</title>
<path fill="none" stroke="black" d="M173.74,-234C225.93,-234 376.06,-234 436.18,-234"/>
<polygon fill="black" stroke="black" points="435.87,-236.1 441.87,-234 435.87,-231.9 435.87,-236.1"/>
</g>
<!-- 3 -->
<g id="node6" class="node">
<title>3</title>
<ellipse fill="none" stroke="black" cx="461.51" cy="-126" rx="18" ry="18"/>
<text text-anchor="middle" x="461.51" y="-121.33" font-family="monospace" font-size="14.00">3</text>
</g>
<!-- 5&#45;&gt;3 -->
<g id="edge7" class="edge">
<title>5&#45;&gt;3</title>
<path fill="none" stroke="black" d="M461.51,-215.68C461.51,-198.15 461.51,-171.53 461.51,-151.85"/>
<polygon fill="black" stroke="black" points="463.61,-151.92 461.51,-145.92 459.41,-151.92 463.61,-151.92"/>
</g>
<!-- 6 -->
<g id="node8" class="node">
<title>6</title>
<ellipse fill="none" stroke="black" cx="461.51" cy="-396" rx="18" ry="18"/>
<text text-anchor="middle" x="461.51" y="-391.32" font-family="monospace" font-size="14.00">6</text>
</g>
<!-- 5&#45;&gt;6 -->
<g id="edge8" class="edge">
<title>5&#45;&gt;6</title>
<path fill="none" stroke="black" d="M461.51,-259.7C461.51,-289.98 461.51,-340.01 461.51,-370.3"/>
<polygon fill="black" stroke="black" points="463.61,-259.78 461.51,-253.78 459.41,-259.78 463.61,-259.78"/>
<polygon fill="black" stroke="black" points="459.41,-370.04 461.51,-376.04 463.61,-370.04 459.41,-370.04"/>
</g>
<!-- 4 -->
<g id="node7" class="node">
<title>4</title>
<ellipse fill="none" stroke="black" cx="461.51" cy="-18" rx="18" ry="18"/>
<text text-anchor="middle" x="461.51" y="-13.32" font-family="monospace" font-size="14.00">4</text>
</g>
<!-- 3&#45;&gt;4 -->
<g id="edge6" class="edge">
<title>3&#45;&gt;4</title>
<path fill="none" stroke="black" d="M461.51,-100.25C461.51,-83.2 461.51,-60.92 461.51,-43.85"/>
<polygon fill="black" stroke="black" points="459.41,-100.17 461.51,-106.17 463.61,-100.17 459.41,-100.17"/>
<polygon fill="black" stroke="black" points="463.61,-43.92 461.51,-37.92 459.41,-43.92 463.61,-43.92"/>
</g>
<!-- 8 -->
<g id="node9" class="node">
<title>8</title>
<ellipse fill="none" stroke="black" cx="86.75" cy="-374.75" rx="18" ry="18"/>
<text text-anchor="middle" x="86.75" y="-370.08" font-family="monospace" font-size="14.00">8</text>
</g>
<!-- 8&#45;&gt;7 -->
<g id="edge9" class="edge">
<title>8&#45;&gt;7</title>
<path fill="none" stroke="black" d="M86.75,-356.59C86.75,-348.12 86.75,-337.9 86.75,-328.65"/>
<polygon fill="black" stroke="black" points="88.86,-328.68 86.75,-322.68 84.66,-328.68 88.86,-328.68"/>
</g>
<!-- 11 -->
<g id="node10" class="node">
<title>11</title>
<ellipse fill="none" stroke="black" cx="18" cy="-443.51" rx="18" ry="18"/>
<text text-anchor="middle" x="18" y="-438.83" font-family="monospace" font-size="14.00">11</text>
</g>
<!-- 8&#45;&gt;11 -->
<g id="edge10" class="edge">
<title>8&#45;&gt;11</title>
<path fill="none" stroke="black" d="M73.82,-387.69C63.16,-398.35 47.92,-413.59 36.06,-425.45"/>
<polygon fill="black" stroke="black" points="34.7,-423.84 31.94,-429.57 37.67,-426.81 34.7,-423.84"/>
</g>
<!-- 9 -->
<g id="node11" class="node">
<title>9</title>
<ellipse fill="none" stroke="black" cx="155.51" cy="-443.51" rx="18" ry="18"/>
<text text-anchor="middle" x="155.51" y="-438.83" font-family="monospace" font-size="14.00">9</text>
</g>
<!-- 8&#45;&gt;9 -->
<g id="edge11" class="edge">
<title>8&#45;&gt;9</title>
<path fill="none" stroke="black" d="M104.88,-392.88C114.9,-402.9 127.31,-415.31 137.34,-425.34"/>
<polygon fill="black" stroke="black" points="106.49,-391.52 100.76,-388.76 103.52,-394.49 106.49,-391.52"/>
<polygon fill="black" stroke="black" points="135.84,-426.81 141.57,-429.57 138.81,-423.84 135.84,-426.81"/>
</g>
<!-- 10 -->
<g id="node12" class="node">
<title>10</title>
<ellipse fill="none" stroke="black" cx="86.75" cy="-512.26" rx="18" ry="18"/>
<text text-anchor="middle" x="86.75" y="-507.59" font-family="monospace" font-size="14.00">10</text>
</g>
<!-- 10&#45;&gt;11 -->
<g id="edge13" class="edge">
<title>10&#45;&gt;11</title>
<path fill="none" stroke="black" d="M68.63,-494.14C58.61,-484.12 46.2,-471.71 36.17,-461.68"/>
<polygon fill="black" stroke="black" points="67.02,-495.5 72.75,-498.26 69.99,-492.53 67.02,-495.5"/>
<polygon fill="black" stroke="black" points="37.67,-460.21 31.94,-457.45 34.7,-463.18 37.67,-460.21"/>
</g>
<!-- 10&#45;&gt;9 -->
<g id="edge12" class="edge">
<title>10&#45;&gt;9</title>
<path fill="none" stroke="black" d="M99.69,-499.33C110.35,-488.67 125.59,-473.43 137.45,-461.57"/>
<polygon fill="black" stroke="black" points="138.81,-463.18 141.57,-457.45 135.84,-460.21 138.81,-463.18"/>
</g>
</g>
</svg>
