<?xml version="1.0" encoding="UTF-8" standalone="no"?>
<!DOCTYPE svg PUBLIC "-//W3C//DTD SVG 1.1//EN"
 "http://www.w3.org/Graphics/SVG/1.1/DTD/svg11.dtd">
<!-- Generated by graphviz version 12.0.0 (20240704.0754)
 -->
<!-- Pages: 1 -->
<svg width="239pt" height="157pt"
 viewBox="0.00 0.00 238.55 156.87" xmlns="http://www.w3.org/2000/svg" xmlns:xlink="http://www.w3.org/1999/xlink">
<g id="graph0" class="graph" transform="scale(1 1) rotate(0) translate(14.4 142.47)">
<polygon fill="white" stroke="none" points="-14.4,14.4 -14.4,-142.47 224.15,-142.47 224.15,14.4 -14.4,14.4"/>
<!-- 0 -->
<g id="node1" class="node">
<title>0</title>
<ellipse fill="none" stroke="black" cx="18" cy="-110.07" rx="18" ry="18"/>
<text text-anchor="middle" x="18" y="-105.4" font-family="monospace" font-size="14.00">0</text>
</g>
<!-- 3 -->
<g id="node2" class="node">
<title>3</title>
<ellipse fill="none" stroke="black" cx="93.81" cy="-110.07" rx="18" ry="18"/>
<text text-anchor="middle" x="93.81" y="-105.4" font-family="monospace" font-size="14.00">3</text>
</g>
<!-- 0&#45;&gt;3 -->
<g id="edge1" class="edge">
<title>0&#45;&gt;3</title>
<path fill="none" stroke="black" d="M36.35,-110.07C45.87,-110.07 57.66,-110.07 68.08,-110.07"/>
<polygon fill="black" stroke="black" points="67.85,-112.17 73.85,-110.07 67.85,-107.97 67.85,-112.17"/>
</g>
<!-- 4 -->
<g id="node3" class="node">
<title>4</title>
<ellipse fill="none" stroke="black" cx="60.57" cy="-47.34" rx="18" ry="18"/>
<text text-anchor="middle" x="60.57" y="-42.66" font-family="monospace" font-size="14.00">4</text>
</g>
<!-- 0&#45;&gt;4 -->
<g id="edge2" class="edge">
<title>0&#45;&gt;4</title>
<path fill="none" stroke="black" d="M28.31,-94.89C33.69,-86.95 40.37,-77.11 46.25,-68.44"/>
<polygon fill="black" stroke="black" points="47.88,-69.78 49.51,-63.64 44.4,-67.42 47.88,-69.78"/>
</g>
<!-- 1 -->
<g id="node6" class="node">
<title>1</title>
<ellipse fill="none" stroke="black" cx="115.93" cy="-18" rx="18" ry="18"/>
<text text-anchor="middle" x="115.93" y="-13.32" font-family="monospace" font-size="14.00">1</text>
</g>
<!-- 3&#45;&gt;1 -->
<g id="edge6" class="edge">
<title>3&#45;&gt;1</title>
<path fill="none" stroke="black" d="M98.08,-92.32C101.45,-78.31 106.18,-58.59 109.93,-42.99"/>
<polygon fill="black" stroke="black" points="111.97,-43.49 111.33,-37.17 107.89,-42.51 111.97,-43.49"/>
</g>
<!-- 4&#45;&gt;1 -->
<g id="edge7" class="edge">
<title>4&#45;&gt;1</title>
<path fill="none" stroke="black" d="M76.88,-38.69C82.11,-35.93 87.99,-32.81 93.57,-29.85"/>
<polygon fill="black" stroke="black" points="94.27,-31.85 98.59,-27.19 92.31,-28.14 94.27,-31.85"/>
</g>
<!-- 2 -->
<g id="node4" class="node">
<title>2</title>
<ellipse fill="none" stroke="black" cx="149.18" cy="-80.74" rx="18" ry="18"/>
<text text-anchor="middle" x="149.18" y="-76.06" font-family="monospace" font-size="14.00">2</text>
</g>
<!-- 2&#45;&gt;3 -->
<g id="edge3" class="edge">
<title>2&#45;&gt;3</title>
<path fill="none" stroke="black" d="M132.87,-89.38C127.64,-92.15 121.76,-95.27 116.18,-98.23"/>
<polygon fill="black" stroke="black" points="115.47,-96.22 111.15,-100.89 117.44,-99.93 115.47,-96.22"/>
</g>
<!-- 2&#45;&gt;4 -->
<g id="edge4" class="edge">
<title>2&#45;&gt;4</title>
<path fill="none" stroke="black" d="M132.09,-74.3C118.61,-69.22 99.63,-62.06 84.61,-56.4"/>
<polygon fill="black" stroke="black" points="85.37,-54.44 79.02,-54.29 83.89,-58.37 85.37,-54.44"/>
</g>
<!-- 5 -->
<g id="node5" class="node">
<title>5</title>
<ellipse fill="none" stroke="black" cx="191.75" cy="-18" rx="18" ry="18"/>
<text text-anchor="middle" x="191.75" y="-13.33" font-family="monospace" font-size="14.00">5</text>
</g>
<!-- 2&#45;&gt;5 -->
<g id="edge5" class="edge">
<title>2&#45;&gt;5</title>
<path fill="none" stroke="black" d="M159.48,-65.55C164.87,-57.61 171.55,-47.77 177.43,-39.11"/>
<polygon fill="black" stroke="black" points="179.06,-40.45 180.69,-34.3 175.58,-38.09 179.06,-40.45"/>
</g>
<!-- 5&#45;&gt;1 -->
<g id="edge8" class="edge">
<title>5&#45;&gt;1</title>
<path fill="none" stroke="black" d="M173.4,-18C163.88,-18 152.09,-18 141.67,-18"/>
<polygon fill="black" stroke="black" points="141.9,-15.9 135.9,-18 141.9,-20.1 141.9,-15.9"/>
</g>
</g>
</svg>
