<?xml version="1.0" encoding="UTF-8" standalone="no"?>
<!DOCTYPE svg PUBLIC "-//W3C//DTD SVG 1.1//EN"
 "http://www.w3.org/Graphics/SVG/1.1/DTD/svg11.dtd">
<!-- Generated by graphviz version 12.0.0 (20240704.0754)
 -->
<!-- Pages: 1 -->
<svg width="239pt" height="212pt"
 viewBox="0.00 0.00 239.42 212.17" xmlns="http://www.w3.org/2000/svg" xmlns:xlink="http://www.w3.org/1999/xlink">
<g id="graph0" class="graph" transform="scale(1 1) rotate(0) translate(14.4 197.77)">
<polygon fill="white" stroke="none" points="-14.4,14.4 -14.4,-197.77 225.02,-197.77 225.02,14.4 -14.4,14.4"/>
<!-- 0 -->
<g id="node1" class="node">
<title>0</title>
<ellipse fill="none" stroke="red" stroke-width="2" cx="95.9" cy="-101.6" rx="27" ry="27"/>
<text text-anchor="start" x="91.78" y="-103.55" font-family="monospace" font-size="14.00">0</text>
<text text-anchor="start" x="80.15" y="-89.05" font-family="monospace" font-size="9.00">d(0)=6</text>
</g>
<!-- 1 -->
<g id="node2" class="node">
<title>1</title>
<ellipse fill="none" stroke="black" cx="183.62" cy="-101.6" rx="27" ry="27"/>
<text text-anchor="start" x="179.49" y="-103.55" font-family="monospace" font-size="14.00">1</text>
<text text-anchor="start" x="167.87" y="-89.05" font-family="monospace" font-size="9.00">d(1)=3</text>
</g>
<!-- 0&#45;&gt;1 -->
<g id="edge1" class="edge">
<title>0&#45;&gt;1</title>
<path fill="none" stroke="black" d="M130.55,-101.6C136.58,-101.6 142.85,-101.6 148.89,-101.6"/>
<polygon fill="black" stroke="black" points="130.69,-99.5 124.69,-101.6 130.69,-103.7 130.69,-99.5"/>
<polygon fill="black" stroke="black" points="148.85,-103.7 154.85,-101.6 148.85,-99.5 148.85,-103.7"/>
</g>
<!-- 2 -->
<g id="node3" class="node">
<title>2</title>
<ellipse fill="none" stroke="black" cx="140.57" cy="-27" rx="27" ry="27"/>
<text text-anchor="start" x="136.45" y="-28.95" font-family="monospace" font-size="14.00">2</text>
<text text-anchor="start" x="124.82" y="-14.45" font-family="monospace" font-size="9.00">d(2)=3</text>
</g>
<!-- 0&#45;&gt;2 -->
<g id="edge2" class="edge">
<title>0&#45;&gt;2</title>
<path fill="none" stroke="black" d="M113.64,-71.98C116.66,-66.94 119.79,-61.72 122.8,-56.68"/>
<polygon fill="black" stroke="black" points="111.85,-70.88 110.57,-77.11 115.45,-73.04 111.85,-70.88"/>
<polygon fill="black" stroke="black" points="124.48,-57.96 125.76,-51.74 120.88,-55.81 124.48,-57.96"/>
</g>
<!-- 3 -->
<g id="node4" class="node">
<title>3</title>
<ellipse fill="none" stroke="black" cx="27" cy="-156.37" rx="27" ry="27"/>
<text text-anchor="start" x="22.88" y="-158.32" font-family="monospace" font-size="14.00">3</text>
<text text-anchor="start" x="11.25" y="-143.82" font-family="monospace" font-size="9.00">d(3)=2</text>
</g>
<!-- 0&#45;&gt;3 -->
<g id="edge3" class="edge">
<title>0&#45;&gt;3</title>
<path fill="none" stroke="black" d="M68.84,-123.12C63.9,-127.04 58.76,-131.13 53.83,-135.05"/>
<polygon fill="black" stroke="black" points="69.91,-124.95 73.3,-119.58 67.29,-121.66 69.91,-124.95"/>
<polygon fill="black" stroke="black" points="52.75,-133.22 49.36,-138.6 55.36,-136.51 52.75,-133.22"/>
</g>
<!-- 1&#45;&gt;2 -->
<g id="edge4" class="edge">
<title>1&#45;&gt;2</title>
<path fill="none" stroke="black" d="M170,-78C166.15,-71.33 161.91,-63.99 157.88,-57"/>
<polygon fill="black" stroke="black" points="159.82,-56.17 155.01,-52.02 156.19,-58.27 159.82,-56.17"/>
</g>
</g>
</svg>
