<?xml version="1.0" encoding="UTF-8" standalone="no"?>
<!DOCTYPE svg PUBLIC "-//W3C//DTD SVG 1.1//EN"
 "http://www.w3.org/Graphics/SVG/1.1/DTD/svg11.dtd">
<!-- Generated by graphviz version 12.0.0 (20240704.0754)
 -->
<!-- Pages: 1 -->
<svg width="247pt" height="201pt"
 viewBox="0.00 0.00 246.65 201.15" xmlns="http://www.w3.org/2000/svg" xmlns:xlink="http://www.w3.org/1999/xlink">
<g id="graph0" class="graph" transform="scale(1 1) rotate(0) translate(14.4 186.75)">
<polygon fill="white" stroke="none" points="-14.4,14.4 -14.4,-186.75 232.25,-186.75 232.25,14.4 -14.4,14.4"/>
<!-- 0 -->
<g id="node1" class="node">
<title>0</title>
<ellipse fill="none" stroke="red" stroke-width="2" cx="103.53" cy="-101.94" rx="27" ry="27"/>
<text text-anchor="start" x="99.41" y="-103.89" font-family="monospace" font-size="14.00">0</text>
<text text-anchor="start" x="85.53" y="-90.39" font-family="monospace" font-size="9.00">d</text>
<text text-anchor="start" x="90.78" y="-90.39" font-family="monospace" baseline-shift="super" font-size="9.00">+</text>
<text text-anchor="start" x="95.28" y="-90.39" font-family="monospace" font-size="9.00">(0)=3</text>
</g>
<!-- 1 -->
<g id="node2" class="node">
<title>1</title>
<ellipse fill="none" stroke="black" cx="190.85" cy="-101.94" rx="27" ry="27"/>
<text text-anchor="start" x="186.72" y="-103.89" font-family="monospace" font-size="14.00">1</text>
<text text-anchor="start" x="172.85" y="-90.39" font-family="monospace" font-size="9.00">d</text>
<text text-anchor="start" x="178.1" y="-90.39" font-family="monospace" baseline-shift="super" font-size="9.00">+</text>
<text text-anchor="start" x="182.6" y="-90.39" font-family="monospace" font-size="9.00">(1)=2</text>
</g>
<!-- 0&#45;&gt;1 -->
<g id="edge1" class="edge">
<title>0&#45;&gt;1</title>
<path fill="none" stroke="black" d="M137.95,-101.94C143.9,-101.94 150.08,-101.94 156.03,-101.94"/>
<polygon fill="black" stroke="black" points="138.2,-99.84 132.2,-101.94 138.2,-104.04 138.2,-99.84"/>
<polygon fill="black" stroke="black" points="155.9,-104.04 161.9,-101.94 155.9,-99.84 155.9,-104.04"/>
</g>
<!-- 2 -->
<g id="node3" class="node">
<title>2</title>
<ellipse fill="none" stroke="black" cx="148.34" cy="-27" rx="27" ry="27"/>
<text text-anchor="start" x="144.21" y="-28.95" font-family="monospace" font-size="14.00">2</text>
<text text-anchor="start" x="130.34" y="-15.45" font-family="monospace" font-size="9.00">d</text>
<text text-anchor="start" x="135.59" y="-15.45" font-family="monospace" baseline-shift="super" font-size="9.00">+</text>
<text text-anchor="start" x="140.09" y="-15.45" font-family="monospace" font-size="9.00">(2)=1</text>
</g>
<!-- 0&#45;&gt;2 -->
<g id="edge2" class="edge">
<title>0&#45;&gt;2</title>
<path fill="none" stroke="black" d="M121.06,-72.62C124.14,-67.47 127.35,-62.11 130.43,-56.95"/>
<polygon fill="black" stroke="black" points="119.52,-71.11 118.24,-77.34 123.12,-73.27 119.52,-71.11"/>
<polygon fill="black" stroke="black" points="132.21,-58.07 133.48,-51.84 128.6,-55.92 132.21,-58.07"/>
</g>
<!-- 3 -->
<g id="node4" class="node">
<title>3</title>
<ellipse fill="none" stroke="black" cx="27" cy="-145.35" rx="27" ry="27"/>
<text text-anchor="start" x="22.88" y="-147.3" font-family="monospace" font-size="14.00">3</text>
<text text-anchor="start" x="9" y="-133.8" font-family="monospace" font-size="9.00">d</text>
<text text-anchor="start" x="14.25" y="-133.8" font-family="monospace" baseline-shift="super" font-size="9.00">+</text>
<text text-anchor="start" x="18.75" y="-133.8" font-family="monospace" font-size="9.00">(3)=1</text>
</g>
<!-- 0&#45;&gt;3 -->
<g id="edge3" class="edge">
<title>0&#45;&gt;3</title>
<path fill="none" stroke="black" d="M73.53,-118.96C68.1,-122.04 62.44,-125.25 57.02,-128.33"/>
<polygon fill="black" stroke="black" points="74.24,-120.97 78.42,-116.19 72.17,-117.32 74.24,-120.97"/>
<polygon fill="black" stroke="black" points="56.28,-126.33 52.1,-131.12 58.35,-129.98 56.28,-126.33"/>
</g>
<!-- 1&#45;&gt;2 -->
<g id="edge4" class="edge">
<title>1&#45;&gt;2</title>
<path fill="none" stroke="black" d="M177.4,-78.23C173.6,-71.53 169.41,-64.15 165.43,-57.13"/>
<polygon fill="black" stroke="black" points="167.38,-56.31 162.59,-52.13 163.73,-58.39 167.38,-56.31"/>
</g>
</g>
</svg>
