<?xml version="1.0" encoding="UTF-8" standalone="no"?>
<!DOCTYPE svg PUBLIC "-//W3C//DTD SVG 1.1//EN"
 "http://www.w3.org/Graphics/SVG/1.1/DTD/svg11.dtd">
<!-- Generated by graphviz version 12.0.0 (20240704.0754)
 -->
<!-- Pages: 1 -->
<svg width="137pt" height="201pt"
 viewBox="0.00 0.00 136.65 201.39" xmlns="http://www.w3.org/2000/svg" xmlns:xlink="http://www.w3.org/1999/xlink">
<g id="graph0" class="graph" transform="scale(1 1) rotate(0) translate(14.4 186.99)">
<polygon fill="white" stroke="none" points="-14.4,14.4 -14.4,-186.99 122.25,-186.99 122.25,14.4 -14.4,14.4"/>
<!-- 0 -->
<g id="node1" class="node">
<title>0</title>
<ellipse fill="none" stroke="black" cx="18" cy="-18" rx="18" ry="18"/>
<text text-anchor="middle" x="18" y="-13.33" font-family="monospace" font-size="14.00">0</text>
</g>
<!-- 1 -->
<g id="node2" class="node">
<title>1</title>
<ellipse fill="none" stroke="black" cx="89.85" cy="-18" rx="18" ry="18"/>
<text text-anchor="middle" x="89.85" y="-13.32" font-family="monospace" font-size="14.00">1</text>
</g>
<!-- 0&#45;&gt;1 -->
<g id="edge1" class="edge">
<title>0&#45;&gt;1</title>
<path fill="none" stroke="black" d="M36.13,-18C44.57,-18 54.77,-18 64.01,-18"/>
<polygon fill="black" stroke="black" points="63.96,-20.1 69.96,-18 63.96,-15.9 63.96,-20.1"/>
</g>
<!-- 2 -->
<g id="node3" class="node">
<title>2</title>
<ellipse fill="none" stroke="black" cx="54.02" cy="-81.27" rx="18" ry="18"/>
<text text-anchor="middle" x="54.02" y="-76.6" font-family="monospace" font-size="14.00">2</text>
</g>
<!-- 0&#45;&gt;2 -->
<!-- 1&#45;&gt;2 -->
<g id="edge2" class="edge">
<title>1&#45;&gt;2</title>
<path fill="none" stroke="black" d="M80.81,-33.97C76.45,-41.67 71.15,-51.03 66.42,-59.38"/>
<polygon fill="black" stroke="black" points="64.81,-57.96 63.68,-64.21 68.46,-60.03 64.81,-57.96"/>
</g>
<!-- 3 -->
<g id="node4" class="node">
<title>3</title>
<ellipse fill="none" stroke="black" cx="52.97" cy="-154.59" rx="18" ry="18"/>
<text text-anchor="middle" x="52.97" y="-149.91" font-family="monospace" font-size="14.00">3</text>
</g>
<!-- 2&#45;&gt;3 -->
<g id="edge3" class="edge">
<title>2&#45;&gt;3</title>
<path fill="none" stroke="black" d="M53.76,-99.39C53.63,-108.23 53.48,-119.01 53.34,-128.69"/>
<polygon fill="black" stroke="black" points="51.24,-128.62 53.25,-134.65 55.44,-128.68 51.24,-128.62"/>
</g>
</g>
</svg>
