<?xml version="1.0" encoding="UTF-8" standalone="no"?>
<!DOCTYPE svg PUBLIC "-//W3C//DTD SVG 1.1//EN"
 "http://www.w3.org/Graphics/SVG/1.1/DTD/svg11.dtd">
<!-- Generated by graphviz version 12.0.0 (20240704.0754)
 -->
<!-- Pages: 1 -->
<svg width="137pt" height="127pt"
 viewBox="0.00 0.00 137.01 126.97" xmlns="http://www.w3.org/2000/svg" xmlns:xlink="http://www.w3.org/1999/xlink">
<g id="graph0" class="graph" transform="scale(1 1) rotate(0) translate(14.4 112.57)">
<polygon fill="white" stroke="none" points="-14.4,14.4 -14.4,-112.57 122.61,-112.57 122.61,14.4 -14.4,14.4"/>
<!-- 0 -->
<g id="node1" class="node">
<title>0</title>
<ellipse fill="none" stroke="black" cx="18" cy="-80.17" rx="18" ry="18"/>
<text text-anchor="middle" x="18" y="-75.5" font-family="monospace" font-size="14.00">0</text>
</g>
<!-- 1 -->
<g id="node2" class="node">
<title>1</title>
<ellipse fill="none" stroke="black" cx="90.21" cy="-80.17" rx="18" ry="18"/>
<text text-anchor="middle" x="90.21" y="-75.5" font-family="monospace" font-size="14.00">1</text>
</g>
<!-- 0&#45;&gt;1 -->
<g id="edge1" class="edge">
<title>0&#45;&gt;1</title>
<path fill="none" stroke="black" d="M36.22,-80.17C44.71,-80.17 54.96,-80.17 64.24,-80.17"/>
<polygon fill="black" stroke="black" points="64.23,-82.27 70.23,-80.17 64.23,-78.07 64.23,-82.27"/>
</g>
<!-- 2 -->
<g id="node3" class="node">
<title>2</title>
<ellipse fill="none" stroke="black" cx="54.18" cy="-18" rx="18" ry="18"/>
<text text-anchor="middle" x="54.18" y="-13.32" font-family="monospace" font-size="14.00">2</text>
</g>
<!-- 0&#45;&gt;2 -->
<!-- 1&#45;&gt;2 -->
<g id="edge2" class="edge">
<title>1&#45;&gt;2</title>
<path fill="none" stroke="black" d="M81.12,-64.48C76.88,-57.18 71.77,-48.35 67.14,-40.36"/>
<polygon fill="black" stroke="black" points="68.98,-39.35 64.16,-35.21 65.35,-41.45 68.98,-39.35"/>
</g>
</g>
</svg>
