<?xml version="1.0" encoding="UTF-8" standalone="no"?>
<!DOCTYPE svg PUBLIC "-//W3C//DTD SVG 1.1//EN"
 "http://www.w3.org/Graphics/SVG/1.1/DTD/svg11.dtd">
<!-- Generated by graphviz version 12.0.0 (20240704.0754)
 -->
<!-- Pages: 1 -->
<svg width="271pt" height="112pt"
 viewBox="0.00 0.00 270.83 111.73" xmlns="http://www.w3.org/2000/svg" xmlns:xlink="http://www.w3.org/1999/xlink">
<g id="graph0" class="graph" transform="scale(1 1) rotate(0) translate(14.4 97.33)">
<polygon fill="white" stroke="none" points="-14.4,14.4 -14.4,-97.33 256.43,-97.33 256.43,14.4 -14.4,14.4"/>
<!-- 0 -->
<g id="node1" class="node">
<title>0</title>
<ellipse fill="none" stroke="black" cx="18" cy="-18" rx="18" ry="18"/>
<text text-anchor="middle" x="18" y="-13.32" font-family="monospace" font-size="14.00">0</text>
</g>
<!-- 1 -->
<g id="node2" class="node">
<title>1</title>
<ellipse fill="none" stroke="black" cx="90.25" cy="-18" rx="18" ry="18"/>
<text text-anchor="middle" x="90.25" y="-13.32" font-family="monospace" font-size="14.00">1</text>
</g>
<!-- 0&#45;&gt;1 -->
<g id="edge1" class="edge">
<title>0&#45;&gt;1</title>
<path fill="none" stroke="black" d="M36.23,-18C44.72,-18 54.98,-18 64.26,-18"/>
<polygon fill="black" stroke="black" points="64.26,-20.1 70.26,-18 64.26,-15.9 64.26,-20.1"/>
</g>
<!-- 2 -->
<g id="node3" class="node">
<title>2</title>
<ellipse fill="none" stroke="black" cx="162.51" cy="-25.86" rx="18" ry="18"/>
<text text-anchor="middle" x="162.51" y="-21.19" font-family="monospace" font-size="14.00">2</text>
</g>
<!-- 1&#45;&gt;2 -->
<g id="edge2" class="edge">
<title>1&#45;&gt;2</title>
<path fill="none" stroke="black" d="M108.48,-19.98C117.13,-20.92 127.6,-22.06 137.01,-23.09"/>
<polygon fill="black" stroke="black" points="136.59,-25.15 142.78,-23.71 137.04,-20.98 136.59,-25.15"/>
</g>
<!-- 3 -->
<g id="node4" class="node">
<title>3</title>
<ellipse fill="none" stroke="black" cx="224.03" cy="-64.93" rx="18" ry="18"/>
<text text-anchor="middle" x="224.03" y="-60.26" font-family="monospace" font-size="14.00">3</text>
</g>
<!-- 2&#45;&gt;3 -->
<g id="edge3" class="edge">
<title>2&#45;&gt;3</title>
<path fill="none" stroke="black" d="M178.04,-35.72C185.52,-40.48 194.62,-46.26 202.75,-51.42"/>
<polygon fill="black" stroke="black" points="201.26,-52.96 207.45,-54.4 203.51,-49.41 201.26,-52.96"/>
</g>
</g>
</svg>
