<?xml version="1.0" encoding="UTF-8" standalone="no"?>
<!DOCTYPE svg PUBLIC "-//W3C//DTD SVG 1.1//EN"
 "http://www.w3.org/Graphics/SVG/1.1/DTD/svg11.dtd">
<!-- Generated by graphviz version 12.0.0 (20240704.0754)
 -->
<!-- Pages: 1 -->
<svg width="209pt" height="67pt"
 viewBox="0.00 0.00 208.76 67.27" xmlns="http://www.w3.org/2000/svg" xmlns:xlink="http://www.w3.org/1999/xlink">
<g id="graph0" class="graph" transform="scale(1 1) rotate(0) translate(14.4 52.87)">
<polygon fill="white" stroke="none" points="-14.4,14.4 -14.4,-52.87 194.36,-52.87 194.36,14.4 -14.4,14.4"/>
<!-- 0 -->
<g id="node1" class="node">
<title>0</title>
<ellipse fill="none" stroke="black" cx="18" cy="-20.47" rx="18" ry="18"/>
<text text-anchor="middle" x="18" y="-15.79" font-family="monospace" font-size="14.00">0</text>
</g>
<!-- 1 -->
<g id="node2" class="node">
<title>1</title>
<ellipse fill="none" stroke="black" cx="90" cy="-20.47" rx="18" ry="18"/>
<text text-anchor="middle" x="90" y="-15.79" font-family="monospace" font-size="14.00">1</text>
</g>
<!-- 0&#45;&gt;1 -->
<g id="edge1" class="edge">
<title>0&#45;&gt;1</title>
<path fill="none" stroke="black" d="M36.17,-20.47C44.63,-20.47 54.85,-20.47 64.11,-20.47"/>
<polygon fill="black" stroke="black" points="64.08,-22.57 70.08,-20.47 64.08,-18.37 64.08,-22.57"/>
</g>
<!-- 2 -->
<g id="node3" class="node">
<title>2</title>
<ellipse fill="none" stroke="black" cx="161.96" cy="-18" rx="18" ry="18"/>
<text text-anchor="middle" x="161.96" y="-13.32" font-family="monospace" font-size="14.00">2</text>
</g>
<!-- 1&#45;&gt;2 -->
<g id="edge2" class="edge">
<title>1&#45;&gt;2</title>
<path fill="none" stroke="black" d="M108.16,-19.84C116.62,-19.55 126.83,-19.2 136.08,-18.89"/>
<polygon fill="black" stroke="black" points="136.12,-20.99 142.05,-18.68 135.98,-16.79 136.12,-20.99"/>
</g>
</g>
</svg>
