<?xml version="1.0" encoding="UTF-8" standalone="no"?>
<!DOCTYPE svg PUBLIC "-//W3C//DTD SVG 1.1//EN"
 "http://www.w3.org/Graphics/SVG/1.1/DTD/svg11.dtd">
<!-- Generated by graphviz version 12.0.0 (20240704.0754)
 -->
<!-- Pages: 1 -->
<svg width="389pt" height="88pt"
 viewBox="0.00 0.00 388.80 87.80" xmlns="http://www.w3.org/2000/svg" xmlns:xlink="http://www.w3.org/1999/xlink">
<g id="graph0" class="graph" transform="scale(1 1) rotate(0) translate(14.4 73.4)">
<polygon fill="white" stroke="none" points="-14.4,14.4 -14.4,-73.4 374.4,-73.4 374.4,14.4 -14.4,14.4"/>
<text text-anchor="middle" x="180" y="-7.6" font-family="Operator Mono" font-size="12.00">Path::path(4)</text>
<!-- 0 -->
<g id="node1" class="node">
<title>0</title>
<ellipse fill="none" stroke="black" cx="18" cy="-41" rx="18" ry="18"/>
<text text-anchor="middle" x="18" y="-36.33" font-family="Operator Mono" font-size="14.00">0</text>
</g>
<!-- 1 -->
<g id="node2" class="node">
<title>1</title>
<ellipse fill="none" stroke="black" cx="126" cy="-41" rx="18" ry="18"/>
<text text-anchor="middle" x="126" y="-36.33" font-family="Operator Mono" font-size="14.00">1</text>
</g>
<!-- 0&#45;&gt;1 -->
<g id="edge1" class="edge">
<title>0&#45;&gt;1</title>
<path fill="none" stroke="black" d="M36.32,-41C54.16,-41 81.41,-41 101.19,-41"/>
<polygon fill="black" stroke="black" points="101.08,-42.75 106.08,-41 101.08,-39.25 101.08,-42.75"/>
</g>
<!-- 2 -->
<g id="node3" class="node">
<title>2</title>
<ellipse fill="none" stroke="black" cx="234" cy="-41" rx="18" ry="18"/>
<text text-anchor="middle" x="234" y="-36.33" font-family="Operator Mono" font-size="14.00">2</text>
</g>
<!-- 1&#45;&gt;2 -->
<g id="edge2" class="edge">
<title>1&#45;&gt;2</title>
<path fill="none" stroke="black" d="M144.32,-41C162.16,-41 189.41,-41 209.19,-41"/>
<polygon fill="black" stroke="black" points="209.08,-42.75 214.08,-41 209.08,-39.25 209.08,-42.75"/>
</g>
<!-- 3 -->
<g id="node4" class="node">
<title>3</title>
<ellipse fill="none" stroke="black" cx="342" cy="-41" rx="18" ry="18"/>
<text text-anchor="middle" x="342" y="-36.33" font-family="Operator Mono" font-size="14.00">3</text>
</g>
<!-- 2&#45;&gt;3 -->
<g id="edge3" class="edge">
<title>2&#45;&gt;3</title>
<path fill="none" stroke="black" d="M252.32,-41C270.16,-41 297.41,-41 317.19,-41"/>
<polygon fill="black" stroke="black" points="317.08,-42.75 322.08,-41 317.08,-39.25 317.08,-42.75"/>
</g>
</g>
</svg>
