<?xml version="1.0" encoding="UTF-8" standalone="no"?>
<!DOCTYPE svg PUBLIC "-//W3C//DTD SVG 1.1//EN"
 "http://www.w3.org/Graphics/SVG/1.1/DTD/svg11.dtd">
<!-- Generated by graphviz version 12.0.0 (20240704.0754)
 -->
<!-- Pages: 1 -->
<svg width="281pt" height="66pt"
 viewBox="0.00 0.00 280.79 66.46" xmlns="http://www.w3.org/2000/svg" xmlns:xlink="http://www.w3.org/1999/xlink">
<g id="graph0" class="graph" transform="scale(1 1) rotate(0) translate(14.4 52.06)">
<polygon fill="white" stroke="none" points="-14.4,14.4 -14.4,-52.06 266.39,-52.06 266.39,14.4 -14.4,14.4"/>
<!-- 0 -->
<g id="node1" class="node">
<title>0</title>
<ellipse fill="none" stroke="black" cx="18" cy="-18" rx="18" ry="18"/>
<text text-anchor="middle" x="18" y="-13.33" font-family="monospace" font-size="14.00">0</text>
</g>
<!-- 1 -->
<g id="node2" class="node">
<title>1</title>
<ellipse fill="none" stroke="black" cx="90" cy="-18" rx="18" ry="18"/>
<text text-anchor="middle" x="90" y="-13.32" font-family="monospace" font-size="14.00">1</text>
</g>
<!-- 0&#45;&gt;1 -->
<g id="edge1" class="edge">
<title>0&#45;&gt;1</title>
<path fill="none" stroke="black" d="M36.17,-18C44.63,-18 54.85,-18 64.1,-18"/>
<polygon fill="black" stroke="black" points="64.07,-20.1 70.07,-18 64.07,-15.9 64.07,-20.1"/>
</g>
<!-- 2 -->
<g id="node3" class="node">
<title>2</title>
<ellipse fill="none" stroke="black" cx="162" cy="-18.55" rx="18" ry="18"/>
<text text-anchor="middle" x="162" y="-13.88" font-family="monospace" font-size="14.00">2</text>
</g>
<!-- 1&#45;&gt;2 -->
<g id="edge2" class="edge">
<title>1&#45;&gt;2</title>
<path fill="none" stroke="black" d="M108.17,-18.14C116.63,-18.2 126.85,-18.28 136.1,-18.35"/>
<polygon fill="black" stroke="black" points="136.06,-20.45 142.07,-18.4 136.09,-16.25 136.06,-20.45"/>
</g>
<!-- 3 -->
<g id="node4" class="node">
<title>3</title>
<ellipse fill="none" stroke="black" cx="233.99" cy="-19.66" rx="18" ry="18"/>
<text text-anchor="middle" x="233.99" y="-14.98" font-family="monospace" font-size="14.00">3</text>
</g>
<!-- 2&#45;&gt;3 -->
<g id="edge3" class="edge">
<title>2&#45;&gt;3</title>
<path fill="none" stroke="black" d="M180.17,-18.83C188.63,-18.96 198.85,-19.12 208.1,-19.26"/>
<polygon fill="black" stroke="black" points="208.03,-21.36 214.07,-19.35 208.1,-17.16 208.03,-21.36"/>
</g>
</g>
</svg>
