<?xml version="1.0" encoding="UTF-8" standalone="no"?>
<!DOCTYPE svg PUBLIC "-//W3C//DTD SVG 1.1//EN"
 "http://www.w3.org/Graphics/SVG/1.1/DTD/svg11.dtd">
<!-- Generated by graphviz version 12.0.0 (20240704.0754)
 -->
<!-- Pages: 1 -->
<svg width="199pt" height="181pt"
 viewBox="0.00 0.00 199.15 181.15" xmlns="http://www.w3.org/2000/svg" xmlns:xlink="http://www.w3.org/1999/xlink">
<g id="graph0" class="graph" transform="scale(1 1) rotate(0) translate(14.4 166.75)">
<polygon fill="white" stroke="none" points="-14.4,14.4 -14.4,-166.75 184.75,-166.75 184.75,14.4 -14.4,14.4"/>
<!-- 0 -->
<g id="node1" class="node">
<title>0</title>
<ellipse fill="none" stroke="black" cx="51.59" cy="-18" rx="18" ry="18"/>
<text text-anchor="middle" x="51.59" y="-13.33" font-family="monospace" font-size="14.00">0</text>
</g>
<!-- 5 -->
<g id="node2" class="node">
<title>5</title>
<ellipse fill="none" stroke="black" cx="118.77" cy="-18" rx="18" ry="18"/>
<text text-anchor="middle" x="118.77" y="-13.32" font-family="monospace" font-size="14.00">5</text>
</g>
<!-- 0&#45;&gt;5 -->
<g id="edge1" class="edge">
<title>0&#45;&gt;5</title>
<path fill="none" stroke="black" d="M69.95,-18C77.06,-18 85.32,-18 93.01,-18"/>
<polygon fill="black" stroke="black" points="92.92,-20.1 98.92,-18 92.92,-15.9 92.92,-20.1"/>
</g>
<!-- 4 -->
<g id="node4" class="node">
<title>4</title>
<ellipse fill="none" stroke="black" cx="51.58" cy="-134.35" rx="18" ry="18"/>
<text text-anchor="middle" x="51.58" y="-129.67" font-family="monospace" font-size="14.00">4</text>
</g>
<!-- 5&#45;&gt;4 -->
<g id="edge15" class="edge">
<title>5&#45;&gt;4</title>
<path fill="none" stroke="black" d="M109.71,-33.69C98.04,-53.9 77.68,-89.16 64.42,-112.12"/>
<polygon fill="black" stroke="black" points="62.65,-110.98 61.47,-117.22 66.29,-113.08 62.65,-110.98"/>
</g>
<!-- 1 -->
<g id="node3" class="node">
<title>1</title>
<ellipse fill="none" stroke="black" cx="18" cy="-76.17" rx="18" ry="18"/>
<text text-anchor="middle" x="18" y="-71.49" font-family="monospace" font-size="14.00">1</text>
</g>
<!-- 1&#45;&gt;0 -->
<g id="edge2" class="edge">
<title>1&#45;&gt;0</title>
<path fill="none" stroke="black" d="M27.18,-60.27C30.73,-54.12 34.87,-46.96 38.71,-40.31"/>
<polygon fill="black" stroke="black" points="40.48,-41.43 41.67,-35.19 36.85,-39.33 40.48,-41.43"/>
</g>
<!-- 1&#45;&gt;5 -->
<g id="edge4" class="edge">
<title>1&#45;&gt;5</title>
<path fill="none" stroke="black" d="M33.75,-67.08C50.65,-57.32 77.65,-41.73 96.68,-30.75"/>
<polygon fill="black" stroke="black" points="97.35,-32.79 101.49,-27.97 95.25,-29.15 97.35,-32.79"/>
</g>
<!-- 1&#45;&gt;4 -->
<g id="edge3" class="edge">
<title>1&#45;&gt;4</title>
<path fill="none" stroke="black" d="M27.18,-92.07C30.73,-98.22 34.86,-105.38 38.7,-112.04"/>
<polygon fill="black" stroke="black" points="36.84,-113.01 41.66,-117.16 40.48,-110.91 36.84,-113.01"/>
</g>
<!-- 4&#45;&gt;0 -->
<g id="edge12" class="edge">
<title>4&#45;&gt;0</title>
<path fill="none" stroke="black" d="M51.58,-115.91C51.59,-96.43 51.59,-65.54 51.59,-43.67"/>
<polygon fill="black" stroke="black" points="53.69,-43.86 51.59,-37.86 49.49,-43.86 53.69,-43.86"/>
</g>
<!-- 2 -->
<g id="node5" class="node">
<title>2</title>
<ellipse fill="none" stroke="black" cx="118.78" cy="-134.35" rx="18" ry="18"/>
<text text-anchor="middle" x="118.78" y="-129.67" font-family="monospace" font-size="14.00">2</text>
</g>
<!-- 4&#45;&gt;2 -->
<g id="edge13" class="edge">
<title>4&#45;&gt;2</title>
<path fill="none" stroke="black" d="M69.94,-134.35C77.06,-134.35 85.32,-134.35 93.01,-134.35"/>
<polygon fill="black" stroke="black" points="92.93,-136.45 98.93,-134.35 92.93,-132.25 92.93,-136.45"/>
</g>
<!-- 3 -->
<g id="node6" class="node">
<title>3</title>
<ellipse fill="none" stroke="black" cx="152.35" cy="-76.18" rx="18" ry="18"/>
<text text-anchor="middle" x="152.35" y="-71.5" font-family="monospace" font-size="14.00">3</text>
</g>
<!-- 4&#45;&gt;3 -->
<g id="edge14" class="edge">
<title>4&#45;&gt;3</title>
<path fill="none" stroke="black" d="M67.33,-125.26C84.24,-115.5 111.24,-99.91 130.27,-88.93"/>
<polygon fill="black" stroke="black" points="130.93,-90.97 135.08,-86.15 128.83,-87.33 130.93,-90.97"/>
</g>
<!-- 2&#45;&gt;0 -->
<g id="edge5" class="edge">
<title>2&#45;&gt;0</title>
<path fill="none" stroke="black" d="M109.72,-118.66C98.05,-98.45 77.69,-63.19 64.43,-40.23"/>
<polygon fill="black" stroke="black" points="66.3,-39.27 61.48,-35.13 62.66,-41.37 66.3,-39.27"/>
</g>
<!-- 2&#45;&gt;5 -->
<g id="edge8" class="edge">
<title>2&#45;&gt;5</title>
<path fill="none" stroke="black" d="M118.78,-115.91C118.78,-96.43 118.77,-65.54 118.77,-43.67"/>
<polygon fill="black" stroke="black" points="120.87,-43.86 118.77,-37.86 116.67,-43.86 120.87,-43.86"/>
</g>
<!-- 2&#45;&gt;1 -->
<g id="edge6" class="edge">
<title>2&#45;&gt;1</title>
<path fill="none" stroke="black" d="M103.03,-125.26C86.12,-115.5 59.12,-99.91 40.09,-88.92"/>
<polygon fill="black" stroke="black" points="41.53,-87.32 35.28,-86.14 39.43,-90.96 41.53,-87.32"/>
</g>
<!-- 2&#45;&gt;3 -->
<g id="edge7" class="edge">
<title>2&#45;&gt;3</title>
<path fill="none" stroke="black" d="M127.95,-118.45C131.51,-112.3 135.64,-105.14 139.48,-98.49"/>
<polygon fill="black" stroke="black" points="141.25,-99.61 142.43,-93.36 137.62,-97.51 141.25,-99.61"/>
</g>
<!-- 3&#45;&gt;0 -->
<g id="edge9" class="edge">
<title>3&#45;&gt;0</title>
<path fill="none" stroke="black" d="M136.61,-67.09C119.7,-57.32 92.71,-41.74 73.68,-30.75"/>
<polygon fill="black" stroke="black" points="75.11,-29.16 68.87,-27.98 73.01,-32.79 75.11,-29.16"/>
</g>
<!-- 3&#45;&gt;5 -->
<g id="edge11" class="edge">
<title>3&#45;&gt;5</title>
<path fill="none" stroke="black" d="M143.18,-60.28C139.62,-54.12 135.49,-46.97 131.65,-40.31"/>
<polygon fill="black" stroke="black" points="133.51,-39.33 128.69,-35.19 129.87,-41.43 133.51,-39.33"/>
</g>
<!-- 3&#45;&gt;1 -->
<g id="edge10" class="edge">
<title>3&#45;&gt;1</title>
<path fill="none" stroke="black" d="M133.95,-76.18C110.54,-76.17 69.96,-76.17 43.55,-76.17"/>
<polygon fill="black" stroke="black" points="43.69,-74.07 37.69,-76.17 43.69,-78.27 43.69,-74.07"/>
</g>
</g>
</svg>
