<?xml version="1.0" encoding="UTF-8" standalone="no"?>
<!DOCTYPE svg PUBLIC "-//W3C//DTD SVG 1.1//EN"
 "http://www.w3.org/Graphics/SVG/1.1/DTD/svg11.dtd">
<!-- Generated by graphviz version 12.0.0 (20240704.0754)
 -->
<!-- Pages: 1 -->
<svg width="227pt" height="275pt"
 viewBox="0.00 0.00 226.80 274.86" xmlns="http://www.w3.org/2000/svg" xmlns:xlink="http://www.w3.org/1999/xlink">
<g id="graph0" class="graph" transform="scale(1 1) rotate(0) translate(14.4 260.46)">
<polygon fill="white" stroke="none" points="-14.4,14.4 -14.4,-260.46 212.4,-260.46 212.4,14.4 -14.4,14.4"/>
<text text-anchor="middle" x="99" y="-7.6" font-family="Operator Mono" font-size="12.00">Star::star(4)</text>
<!-- 0 -->
<g id="node1" class="node">
<title>0</title>
<ellipse fill="none" stroke="black" cx="72" cy="-134.53" rx="18" ry="18"/>
<text text-anchor="middle" x="72" y="-129.86" font-family="Operator Mono" font-size="14.00">0</text>
</g>
<!-- 1 -->
<g id="node2" class="node">
<title>1</title>
<ellipse fill="none" stroke="black" cx="180" cy="-134.53" rx="18" ry="18"/>
<text text-anchor="middle" x="180" y="-129.86" font-family="Operator Mono" font-size="14.00">1</text>
</g>
<!-- 0&#45;&gt;1 -->
<g id="edge1" class="edge">
<title>0&#45;&gt;1</title>
<path fill="none" stroke="black" d="M96.71,-134.53C114.3,-134.53 137.84,-134.53 155.41,-134.53"/>
<polygon fill="black" stroke="black" points="96.83,-132.78 91.83,-134.53 96.83,-136.28 96.83,-132.78"/>
<polygon fill="black" stroke="black" points="155.08,-136.28 160.08,-134.53 155.08,-132.78 155.08,-136.28"/>
</g>
<!-- 2 -->
<g id="node3" class="node">
<title>2</title>
<ellipse fill="none" stroke="black" cx="18" cy="-228.06" rx="18" ry="18"/>
<text text-anchor="middle" x="18" y="-223.39" font-family="Operator Mono" font-size="14.00">2</text>
</g>
<!-- 0&#45;&gt;2 -->
<g id="edge2" class="edge">
<title>0&#45;&gt;2</title>
<path fill="none" stroke="black" d="M59.65,-155.93C50.85,-171.16 39.08,-191.55 30.3,-206.77"/>
<polygon fill="black" stroke="black" points="61.1,-156.91 62.08,-151.71 58.07,-155.16 61.1,-156.91"/>
<polygon fill="black" stroke="black" points="28.95,-205.6 27.96,-210.81 31.98,-207.35 28.95,-205.6"/>
</g>
<!-- 3 -->
<g id="node4" class="node">
<title>3</title>
<ellipse fill="none" stroke="black" cx="18" cy="-41" rx="18" ry="18"/>
<text text-anchor="middle" x="18" y="-36.33" font-family="Operator Mono" font-size="14.00">3</text>
</g>
<!-- 0&#45;&gt;3 -->
<g id="edge3" class="edge">
<title>0&#45;&gt;3</title>
<path fill="none" stroke="black" d="M59.65,-113.13C50.85,-97.9 39.08,-77.51 30.3,-62.3"/>
<polygon fill="black" stroke="black" points="58.07,-113.9 62.08,-117.35 61.1,-112.15 58.07,-113.9"/>
<polygon fill="black" stroke="black" points="31.98,-61.71 27.96,-58.25 28.95,-63.46 31.98,-61.71"/>
</g>
</g>
</svg>
