<?xml version="1.0" encoding="UTF-8" standalone="no"?>
<!DOCTYPE svg PUBLIC "-//W3C//DTD SVG 1.1//EN" "http://www.w3.org/Graphics/SVG/1.1/DTD/svg11.dtd">
<!-- Generated by graphviz version 12.0.0 (20240704.0754)
 -->
<!-- Pages: 1 -->
<svg width="227pt" height="252pt" viewBox="0.00 0.00 226.80 251.86" xmlns="http://www.w3.org/2000/svg"
    xmlns:xlink="http://www.w3.org/1999/xlink">
    <g id="graph0" class="graph" transform="scale(1 1) rotate(0) translate(14.4 237.46)">
        <polygon fill="white" stroke="none" points="-14.4,14.4 -14.4,-237.46 212.4,-237.46 212.4,14.4 -14.4,14.4" />
        <!-- 0 -->
        <g id="node1" class="node">
            <title>0</title>
            <ellipse fill="none" stroke="black" cx="72" cy="-111.53" rx="18" ry="18" />
            <text text-anchor="middle" x="72" y="-106.86" font-family="monospace" font-size="14.00">0</text>
        </g>
        <!-- 1 -->
        <g id="node2" class="node">
            <title>1</title>
            <ellipse fill="none" stroke="black" cx="180" cy="-111.53" rx="18" ry="18" />
            <text text-anchor="middle" x="180" y="-106.86" font-family="monospace" font-size="14.00">1</text>
        </g>
        <!-- 0&#45;&gt;1 -->
        <g id="edge1" class="edge">
            <title>0&#45;&gt;1</title>
            <path fill="none" stroke="black" d="M96.71,-111.53C114.3,-111.53 137.84,-111.53 155.41,-111.53" />
            <polygon fill="black" stroke="black" points="96.83,-109.78 91.83,-111.53 96.83,-113.28 96.83,-109.78" />
            <polygon fill="black" stroke="black" points="155.08,-113.28 160.08,-111.53 155.08,-109.78 155.08,-113.28" />
        </g>
        <!-- 2 -->
        <g id="node3" class="node">
            <title>2</title>
            <ellipse fill="none" stroke="black" cx="18" cy="-205.06" rx="18" ry="18" />
            <text text-anchor="middle" x="18" y="-200.39" font-family="monospace" font-size="14.00">2</text>
        </g>
        <!-- 0&#45;&gt;2 -->
        <g id="edge2" class="edge">
            <title>0&#45;&gt;2</title>
            <path fill="none" stroke="black" d="M59.65,-132.93C50.85,-148.16 39.08,-168.55 30.3,-183.77" />
            <polygon fill="black" stroke="black" points="61.1,-133.91 62.08,-128.71 58.07,-132.16 61.1,-133.91" />
            <polygon fill="black" stroke="black" points="28.95,-182.6 27.96,-187.81 31.98,-184.35 28.95,-182.6" />
        </g>
        <!-- 3 -->
        <g id="node4" class="node">
            <title>3</title>
            <ellipse fill="none" stroke="black" cx="18" cy="-18" rx="18" ry="18" />
            <text text-anchor="middle" x="18" y="-13.32" font-family="monospace" font-size="14.00">3</text>
        </g>
        <!-- 0&#45;&gt;3 -->
        <g id="edge3" class="edge">
            <title>0&#45;&gt;3</title>
            <path fill="none" stroke="black" d="M59.65,-90.13C50.85,-74.9 39.08,-54.51 30.3,-39.3" />
            <polygon fill="black" stroke="black" points="58.07,-90.9 62.08,-94.35 61.1,-89.15 58.07,-90.9" />
            <polygon fill="black" stroke="black" points="31.98,-38.71 27.96,-35.25 28.95,-40.46 31.98,-38.71" />
        </g>
    </g>
</svg>