<?xml version="1.0" encoding="UTF-8" standalone="no"?>
<!DOCTYPE svg PUBLIC "-//W3C//DTD SVG 1.1//EN"
 "http://www.w3.org/Graphics/SVG/1.1/DTD/svg11.dtd">
<!-- Generated by graphviz version 12.0.0 (20240704.0754)
 -->
<!-- Pages: 1 -->
<svg width="206pt" height="87pt"
 viewBox="0.00 0.00 205.81 87.19" xmlns="http://www.w3.org/2000/svg" xmlns:xlink="http://www.w3.org/1999/xlink">
<g id="graph0" class="graph" transform="scale(1 1) rotate(0) translate(14.4 72.79)">
<polygon fill="white" stroke="none" points="-14.4,14.4 -14.4,-72.79 191.41,-72.79 191.41,14.4 -14.4,14.4"/>
<!-- 0 -->
<g id="node1" class="node">
<title>0</title>
<ellipse fill="none" stroke="black" cx="86.74" cy="-40.39" rx="18" ry="18"/>
<text text-anchor="middle" x="86.74" y="-35.72" font-family="monospace" font-size="14.00">0</text>
</g>
<!-- 1 -->
<g id="node2" class="node">
<title>1</title>
<ellipse fill="none" stroke="black" cx="159.01" cy="-40.39" rx="18" ry="18"/>
<text text-anchor="middle" x="159.01" y="-35.72" font-family="monospace" font-size="14.00">1</text>
</g>
<!-- 0&#45;&gt;1 -->
<g id="edge1" class="edge">
<title>0&#45;&gt;1</title>
<path fill="none" stroke="black" d="M112.46,-40.39C119.27,-40.39 126.62,-40.39 133.42,-40.39"/>
<polygon fill="black" stroke="black" points="112.49,-38.29 106.49,-40.39 112.49,-42.49 112.49,-38.29"/>
<polygon fill="black" stroke="black" points="133.01,-42.49 139.01,-40.39 133.01,-38.29 133.01,-42.49"/>
</g>
<!-- 2 -->
<g id="node3" class="node">
<title>2</title>
<ellipse fill="none" stroke="black" cx="18" cy="-18" rx="18" ry="18"/>
<text text-anchor="middle" x="18" y="-13.32" font-family="monospace" font-size="14.00">2</text>
</g>
<!-- 0&#45;&gt;2 -->
<g id="edge2" class="edge">
<title>0&#45;&gt;2</title>
<path fill="none" stroke="black" d="M62.27,-32.42C55.79,-30.31 48.81,-28.04 42.34,-25.93"/>
<polygon fill="black" stroke="black" points="61.6,-34.41 67.95,-34.27 62.9,-30.42 61.6,-34.41"/>
<polygon fill="black" stroke="black" points="43.37,-24.06 37.02,-24.2 42.07,-28.05 43.37,-24.06"/>
</g>
</g>
</svg>
