<?xml version="1.0" encoding="UTF-8" standalone="no"?>
<!DOCTYPE svg PUBLIC "-//W3C//DTD SVG 1.1//EN"
 "http://www.w3.org/Graphics/SVG/1.1/DTD/svg11.dtd">
<!-- Generated by graphviz version 12.0.0 (20240704.0754)
 -->
<!-- Pages: 1 -->
<svg width="180pt" height="198pt"
 viewBox="0.00 0.00 179.63 197.78" xmlns="http://www.w3.org/2000/svg" xmlns:xlink="http://www.w3.org/1999/xlink">
<g id="graph0" class="graph" transform="scale(1 1) rotate(0) translate(14.4 183.38)">
<polygon fill="white" stroke="none" points="-14.4,14.4 -14.4,-183.38 165.23,-183.38 165.23,14.4 -14.4,14.4"/>
<!-- 0 -->
<g id="node1" class="node">
<title>0</title>
<ellipse fill="none" stroke="black" cx="56.28" cy="-84.3" rx="18" ry="18"/>
<text text-anchor="middle" x="56.28" y="-79.62" font-family="monospace" font-size="14.00">0</text>
</g>
<!-- 1 -->
<g id="node2" class="node">
<title>1</title>
<ellipse fill="none" stroke="black" cx="132.83" cy="-84.3" rx="18" ry="18"/>
<text text-anchor="middle" x="132.83" y="-79.62" font-family="monospace" font-size="14.00">1</text>
</g>
<!-- 0&#45;&gt;1 -->
<g id="edge1" class="edge">
<title>0&#45;&gt;1</title>
<path fill="none" stroke="black" d="M81.9,-84.3C90.09,-84.3 99.15,-84.3 107.34,-84.3"/>
<polygon fill="black" stroke="black" points="81.94,-82.2 75.94,-84.3 81.94,-86.4 81.94,-82.2"/>
<polygon fill="black" stroke="black" points="107.04,-86.4 113.04,-84.3 107.04,-82.2 107.04,-86.4"/>
</g>
<!-- 2 -->
<g id="node3" class="node">
<title>2</title>
<ellipse fill="none" stroke="black" cx="18" cy="-18" rx="18" ry="18"/>
<text text-anchor="middle" x="18" y="-13.32" font-family="monospace" font-size="14.00">2</text>
</g>
<!-- 0&#45;&gt;2 -->
<g id="edge2" class="edge">
<title>0&#45;&gt;2</title>
<path fill="none" stroke="black" d="M43.6,-62.34C39.44,-55.14 34.83,-47.14 30.67,-39.94"/>
<polygon fill="black" stroke="black" points="41.64,-63.13 46.45,-67.28 45.27,-61.03 41.64,-63.13"/>
<polygon fill="black" stroke="black" points="32.58,-39.06 27.76,-34.91 28.95,-41.16 32.58,-39.06"/>
</g>
<!-- 3 -->
<g id="node4" class="node">
<title>3</title>
<ellipse fill="none" stroke="black" cx="18.63" cy="-150.98" rx="18" ry="18"/>
<text text-anchor="middle" x="18.63" y="-146.3" font-family="monospace" font-size="14.00">3</text>
</g>
<!-- 0&#45;&gt;3 -->
<g id="edge3" class="edge">
<title>0&#45;&gt;3</title>
<path fill="none" stroke="black" d="M43.81,-106.39C39.72,-113.63 35.18,-121.67 31.09,-128.91"/>
<polygon fill="black" stroke="black" points="45.49,-107.68 46.62,-101.42 41.84,-105.61 45.49,-107.68"/>
<polygon fill="black" stroke="black" points="29.35,-127.71 28.23,-133.97 33.01,-129.78 29.35,-127.71"/>
</g>
</g>
</svg>
