<?xml version="1.0" encoding="UTF-8" standalone="no"?>
<!DOCTYPE svg PUBLIC "-//W3C//DTD SVG 1.1//EN"
 "http://www.w3.org/Graphics/SVG/1.1/DTD/svg11.dtd">
<!-- Generated by graphviz version 12.0.0 (20240704.0754)
 -->
<!-- Pages: 1 -->
<svg width="209pt" height="66pt"
 viewBox="0.00 0.00 208.80 65.59" xmlns="http://www.w3.org/2000/svg" xmlns:xlink="http://www.w3.org/1999/xlink">
<g id="graph0" class="graph" transform="scale(1 1) rotate(0) translate(14.4 51.19)">
<polygon fill="white" stroke="none" points="-14.4,14.4 -14.4,-51.19 194.4,-51.19 194.4,14.4 -14.4,14.4"/>
<!-- 0 -->
<g id="node1" class="node">
<title>0</title>
<ellipse fill="none" stroke="black" cx="90" cy="-18.79" rx="18" ry="18"/>
<text text-anchor="middle" x="90" y="-14.12" font-family="monospace" font-size="14.00">0</text>
</g>
<!-- 1 -->
<g id="node2" class="node">
<title>1</title>
<ellipse fill="none" stroke="black" cx="162" cy="-18.79" rx="18" ry="18"/>
<text text-anchor="middle" x="162" y="-14.12" font-family="monospace" font-size="14.00">1</text>
</g>
<!-- 0&#45;&gt;1 -->
<g id="edge1" class="edge">
<title>0&#45;&gt;1</title>
<path fill="none" stroke="black" d="M115.63,-18.79C122.41,-18.79 129.72,-18.79 136.5,-18.79"/>
<polygon fill="black" stroke="black" points="115.68,-16.69 109.68,-18.79 115.68,-20.89 115.68,-16.69"/>
<polygon fill="black" stroke="black" points="136.07,-20.89 142.07,-18.79 136.07,-16.69 136.07,-20.89"/>
</g>
<!-- 2 -->
<g id="node3" class="node">
<title>2</title>
<ellipse fill="none" stroke="black" cx="18" cy="-18" rx="18" ry="18"/>
<text text-anchor="middle" x="18" y="-13.32" font-family="monospace" font-size="14.00">2</text>
</g>
<!-- 0&#45;&gt;2 -->
<g id="edge2" class="edge">
<title>0&#45;&gt;2</title>
<path fill="none" stroke="black" d="M64.37,-18.51C57.59,-18.44 50.27,-18.35 43.5,-18.28"/>
<polygon fill="black" stroke="black" points="64.29,-20.61 70.31,-18.57 64.34,-16.41 64.29,-20.61"/>
<polygon fill="black" stroke="black" points="43.95,-16.19 37.93,-18.22 43.9,-20.38 43.95,-16.19"/>
</g>
</g>
</svg>
