<?xml version="1.0" encoding="UTF-8" standalone="no"?>
<!DOCTYPE svg PUBLIC "-//W3C//DTD SVG 1.1//EN"
 "http://www.w3.org/Graphics/SVG/1.1/DTD/svg11.dtd">
<!-- Generated by graphviz version 12.0.0 (20240704.0754)
 -->
<!-- Pages: 1 -->
<svg width="281pt" height="65pt"
 viewBox="0.00 0.00 280.80 64.80" xmlns="http://www.w3.org/2000/svg" xmlns:xlink="http://www.w3.org/1999/xlink">
<g id="graph0" class="graph" transform="scale(1 1) rotate(0) translate(14.4 50.4)">
<polygon fill="white" stroke="none" points="-14.4,14.4 -14.4,-50.4 266.4,-50.4 266.4,14.4 -14.4,14.4"/>
<!-- 0 -->
<g id="node1" class="node">
<title>0</title>
<ellipse fill="none" stroke="black" cx="126" cy="-18" rx="18" ry="18"/>
<text text-anchor="middle" x="126" y="-13.32" font-family="monospace" font-size="14.00">0</text>
</g>
<!-- 1 -->
<g id="node2" class="node">
<title>1</title>
<ellipse fill="none" stroke="black" cx="234" cy="-18" rx="18" ry="18"/>
<text text-anchor="middle" x="234" y="-13.32" font-family="monospace" font-size="14.00">1</text>
</g>
<!-- 0&#45;&gt;1 -->
<g id="edge1" class="edge">
<title>0&#45;&gt;1</title>
<path fill="none" stroke="black" d="M150.71,-18C168.3,-18 191.84,-18 209.41,-18"/>
<polygon fill="black" stroke="black" points="150.83,-16.25 145.83,-18 150.83,-19.75 150.83,-16.25"/>
<polygon fill="black" stroke="black" points="209.08,-19.75 214.08,-18 209.08,-16.25 209.08,-19.75"/>
</g>
<!-- 2 -->
<g id="node3" class="node">
<title>2</title>
<ellipse fill="none" stroke="black" cx="18" cy="-18" rx="18" ry="18"/>
<text text-anchor="middle" x="18" y="-13.33" font-family="monospace" font-size="14.00">2</text>
</g>
<!-- 0&#45;&gt;2 -->
<g id="edge2" class="edge">
<title>0&#45;&gt;2</title>
<path fill="none" stroke="black" d="M101.29,-18C83.7,-18 60.16,-18 42.59,-18"/>
<polygon fill="black" stroke="black" points="101.17,-19.75 106.17,-18 101.17,-16.25 101.17,-19.75"/>
<polygon fill="black" stroke="black" points="42.92,-16.25 37.92,-18 42.92,-19.75 42.92,-16.25"/>
</g>
</g>
</svg>
