<?xml version="1.0" encoding="UTF-8" standalone="no"?>
<!DOCTYPE svg PUBLIC "-//W3C//DTD SVG 1.1//EN"
 "http://www.w3.org/Graphics/SVG/1.1/DTD/svg11.dtd">
<!-- Generated by graphviz version 12.0.0 (20240704.0754)
 -->
<!-- Pages: 1 -->
<svg width="180pt" height="198pt"
 viewBox="0.00 0.00 179.95 197.76" xmlns="http://www.w3.org/2000/svg" xmlns:xlink="http://www.w3.org/1999/xlink">
<g id="graph0" class="graph" transform="scale(1 1) rotate(0) translate(14.4 183.36)">
<polygon fill="white" stroke="none" points="-14.4,14.4 -14.4,-183.36 165.55,-183.36 165.55,14.4 -14.4,14.4"/>
<!-- 0 -->
<g id="node1" class="node">
<title>0</title>
<ellipse fill="none" stroke="black" cx="56.38" cy="-84.48" rx="18" ry="18"/>
<text text-anchor="middle" x="56.38" y="-79.8" font-family="monospace" font-size="14.00">0</text>
</g>
<!-- 1 -->
<g id="node2" class="node">
<title>1</title>
<ellipse fill="none" stroke="black" cx="133.15" cy="-84.48" rx="18" ry="18"/>
<text text-anchor="middle" x="133.15" y="-79.8" font-family="monospace" font-size="14.00">1</text>
</g>
<!-- 0&#45;&gt;1 -->
<g id="edge1" class="edge">
<title>0&#45;&gt;1</title>
<path fill="none" stroke="black" d="M82.07,-84.48C90.2,-84.48 99.19,-84.48 107.33,-84.48"/>
<polygon fill="black" stroke="black" points="82.09,-82.38 76.09,-84.48 82.09,-86.58 82.09,-82.38"/>
<polygon fill="black" stroke="black" points="107.3,-86.58 113.3,-84.48 107.3,-82.38 107.3,-86.58"/>
</g>
<!-- 2 -->
<g id="node3" class="node">
<title>2</title>
<ellipse fill="none" stroke="black" cx="18" cy="-18" rx="18" ry="18"/>
<text text-anchor="middle" x="18" y="-13.32" font-family="monospace" font-size="14.00">2</text>
</g>
<!-- 0&#45;&gt;2 -->
<g id="edge2" class="edge">
<title>0&#45;&gt;2</title>
<path fill="none" stroke="black" d="M43.67,-62.46C39.5,-55.24 34.87,-47.22 30.7,-40"/>
<polygon fill="black" stroke="black" points="41.71,-63.27 46.53,-67.41 45.35,-61.17 41.71,-63.27"/>
<polygon fill="black" stroke="black" points="32.61,-39.1 27.79,-34.95 28.97,-41.2 32.61,-39.1"/>
</g>
<!-- 3 -->
<g id="node4" class="node">
<title>3</title>
<ellipse fill="none" stroke="black" cx="18" cy="-150.96" rx="18" ry="18"/>
<text text-anchor="middle" x="18" y="-146.28" font-family="monospace" font-size="14.00">3</text>
</g>
<!-- 0&#45;&gt;3 -->
<g id="edge3" class="edge">
<title>0&#45;&gt;3</title>
<path fill="none" stroke="black" d="M43.67,-106.5C39.5,-113.72 34.87,-121.74 30.7,-128.96"/>
<polygon fill="black" stroke="black" points="45.35,-107.79 46.53,-101.54 41.71,-105.69 45.35,-107.79"/>
<polygon fill="black" stroke="black" points="28.97,-127.76 27.79,-134 32.61,-129.86 28.97,-127.76"/>
</g>
</g>
</svg>
