<?xml version="1.0" encoding="UTF-8" standalone="no"?>
<!DOCTYPE svg PUBLIC "-//W3C//DTD SVG 1.1//EN"
 "http://www.w3.org/Graphics/SVG/1.1/DTD/svg11.dtd">
<!-- Generated by graphviz version 12.0.0 (20240704.0754)
 -->
<!-- Pages: 1 -->
<svg width="301pt" height="191pt"
 viewBox="0.00 0.00 300.87 190.62" xmlns="http://www.w3.org/2000/svg" xmlns:xlink="http://www.w3.org/1999/xlink">
<g id="graph0" class="graph" transform="scale(1 1) rotate(0) translate(14.4 176.22)">
<polygon fill="white" stroke="none" points="-14.4,14.4 -14.4,-176.22 286.47,-176.22 286.47,14.4 -14.4,14.4"/>
<!-- 0 -->
<g id="node1" class="node">
<title>0</title>
<ellipse fill="none" stroke="lightsalmon" stroke-width="2" cx="18" cy="-18" rx="18" ry="18"/>
<text text-anchor="start" x="13.88" y="-13.32" font-family="monospace" font-size="14.00">0</text>
</g>
<!-- 1 -->
<g id="node2" class="node">
<title>1</title>
<ellipse fill="none" stroke="lightsalmon" stroke-width="2" cx="90.49" cy="-18" rx="18" ry="18"/>
<text text-anchor="start" x="86.36" y="-13.32" font-family="monospace" font-size="14.00">1</text>
</g>
<!-- 0&#45;&gt;1 -->
<g id="edge1" class="edge">
<title>0&#45;&gt;1</title>
<path fill="none" stroke="lightsalmon" stroke-width="2" d="M36.29,-18C44.96,-18 55.47,-18 64.91,-18"/>
<polygon fill="lightsalmon" stroke="lightsalmon" stroke-width="2" points="63.17,-20.1 69.17,-18 63.17,-15.9 63.17,-20.1"/>
</g>
<!-- 4 -->
<g id="node3" class="node">
<title>4</title>
<ellipse fill="none" stroke="lightsalmon" stroke-width="2" cx="47.92" cy="-84.39" rx="18" ry="18"/>
<text text-anchor="start" x="43.8" y="-79.72" font-family="monospace" font-size="14.00">4</text>
</g>
<!-- 1&#45;&gt;4 -->
<g id="edge3" class="edge">
<title>1&#45;&gt;4</title>
<path fill="none" stroke="lightsalmon" stroke-width="2" d="M80.62,-33.4C74.97,-42.2 67.81,-53.36 61.63,-63"/>
<polygon fill="lightsalmon" stroke="lightsalmon" stroke-width="2" points="60.84,-60.34 59.37,-66.53 64.38,-62.61 60.84,-60.34"/>
</g>
<!-- 2 -->
<g id="node6" class="node">
<title>2</title>
<ellipse fill="none" stroke="#cd96cd" stroke-width="2" cx="166.4" cy="-36.18" rx="18" ry="18"/>
<text text-anchor="start" x="162.27" y="-31.51" font-family="monospace" font-size="14.00">2</text>
</g>
<!-- 1&#45;&gt;2 -->
<g id="edge2" class="edge">
<title>1&#45;&gt;2</title>
<path fill="none" stroke="#bbbbbb" d="M108.48,-22.31C118.31,-24.66 130.64,-27.62 141.39,-30.19"/>
<polygon fill="#bbbbbb" stroke="#bbbbbb" points="140.74,-32.2 147.07,-31.55 141.72,-28.11 140.74,-32.2"/>
</g>
<!-- 4&#45;&gt;0 -->
<g id="edge7" class="edge">
<title>4&#45;&gt;0</title>
<path fill="none" stroke="lightsalmon" stroke-width="2" d="M40.37,-67.64C36.76,-59.64 32.39,-49.93 28.47,-41.23"/>
<polygon fill="lightsalmon" stroke="lightsalmon" stroke-width="2" points="31.07,-41.88 26.69,-37.28 27.24,-43.61 31.07,-41.88"/>
</g>
<!-- 5 -->
<g id="node4" class="node">
<title>5</title>
<ellipse fill="none" stroke="#7ccd7c" stroke-width="2" cx="100.63" cy="-143.82" rx="18" ry="18"/>
<text text-anchor="start" x="96.5" y="-139.15" font-family="monospace" font-size="14.00">5</text>
</g>
<!-- 4&#45;&gt;5 -->
<g id="edge8" class="edge">
<title>4&#45;&gt;5</title>
<path fill="none" stroke="#bbbbbb" d="M60.14,-98.17C67.2,-106.13 76.16,-116.24 83.87,-124.92"/>
<polygon fill="#bbbbbb" stroke="#bbbbbb" points="81.91,-125.89 87.46,-128.98 85.05,-123.1 81.91,-125.89"/>
</g>
<!-- 6 -->
<g id="node5" class="node">
<title>6</title>
<ellipse fill="none" stroke="#7ccd7c" stroke-width="2" cx="176.19" cy="-119.2" rx="18" ry="18"/>
<text text-anchor="start" x="172.06" y="-114.52" font-family="monospace" font-size="14.00">6</text>
</g>
<!-- 5&#45;&gt;6 -->
<g id="edge9" class="edge">
<title>5&#45;&gt;6</title>
<path fill="none" stroke="#7ccd7c" stroke-width="2" d="M125.07,-135.86C133.65,-133.06 143.29,-129.92 151.86,-127.13"/>
<polygon fill="#7ccd7c" stroke="#7ccd7c" stroke-width="2" points="126.08,-133.32 121.03,-137.17 127.39,-137.31 126.08,-133.32"/>
<polygon fill="#7ccd7c" stroke="#7ccd7c" stroke-width="2" points="150.83,-129.67 155.88,-125.82 149.53,-125.68 150.83,-129.67"/>
</g>
<!-- 2&#45;&gt;6 -->
<g id="edge5" class="edge">
<title>2&#45;&gt;6</title>
<path fill="none" stroke="#bbbbbb" d="M168.52,-54.2C169.89,-65.76 171.68,-80.94 173.19,-93.73"/>
<polygon fill="#bbbbbb" stroke="#bbbbbb" points="171.07,-93.72 173.86,-99.43 175.24,-93.23 171.07,-93.72"/>
</g>
<!-- 3 -->
<g id="node7" class="node">
<title>3</title>
<ellipse fill="none" stroke="#cd96cd" stroke-width="2" cx="244.22" cy="-30.41" rx="18" ry="18"/>
<text text-anchor="start" x="240.09" y="-25.74" font-family="monospace" font-size="14.00">3</text>
</g>
<!-- 2&#45;&gt;3 -->
<g id="edge4" class="edge">
<title>2&#45;&gt;3</title>
<path fill="none" stroke="#cd96cd" stroke-width="2" d="M192.18,-34.27C200.63,-33.64 210.01,-32.95 218.46,-32.32"/>
<polygon fill="#cd96cd" stroke="#cd96cd" stroke-width="2" points="193.69,-32.05 187.86,-34.59 194,-36.24 193.69,-32.05"/>
<polygon fill="#cd96cd" stroke="#cd96cd" stroke-width="2" points="217.06,-34.53 222.89,-31.99 216.75,-30.34 217.06,-34.53"/>
</g>
<!-- 7 -->
<g id="node8" class="node">
<title>7</title>
<ellipse fill="none" stroke="#cd96cd" stroke-width="2" cx="254.07" cy="-109.86" rx="18" ry="18"/>
<text text-anchor="start" x="249.94" y="-105.18" font-family="monospace" font-size="14.00">7</text>
</g>
<!-- 3&#45;&gt;7 -->
<g id="edge6" class="edge">
<title>3&#45;&gt;7</title>
<path fill="none" stroke="#cd96cd" stroke-width="2" d="M247.36,-55.77C248.49,-64.88 249.76,-75.15 250.89,-84.28"/>
<polygon fill="#cd96cd" stroke="#cd96cd" stroke-width="2" points="249.65,-57.14 246.82,-51.44 245.48,-57.65 249.65,-57.14"/>
<polygon fill="#cd96cd" stroke="#cd96cd" stroke-width="2" points="248.61,-82.93 251.43,-88.62 252.78,-82.41 248.61,-82.93"/>
</g>
<!-- 7&#45;&gt;6 -->
<g id="edge10" class="edge">
<title>7&#45;&gt;6</title>
<path fill="none" stroke="#bbbbbb" d="M236,-112.02C225.85,-113.24 213.02,-114.78 201.84,-116.12"/>
<polygon fill="#bbbbbb" stroke="#bbbbbb" points="201.63,-114.03 195.93,-116.83 202.13,-118.2 201.63,-114.03"/>
</g>
</g>
</svg>
