<?xml version="1.0" encoding="UTF-8" standalone="no"?>
<!DOCTYPE svg PUBLIC "-//W3C//DTD SVG 1.1//EN"
 "http://www.w3.org/Graphics/SVG/1.1/DTD/svg11.dtd">
<!-- Generated by graphviz version 12.0.0 (20240704.0754)
 -->
<!-- Pages: 1 -->
<svg width="301pt" height="191pt"
 viewBox="0.00 0.00 300.94 191.36" xmlns="http://www.w3.org/2000/svg" xmlns:xlink="http://www.w3.org/1999/xlink">
<g id="graph0" class="graph" transform="scale(1 1) rotate(0) translate(14.4 176.96)">
<polygon fill="white" stroke="none" points="-14.4,14.4 -14.4,-176.96 286.54,-176.96 286.54,14.4 -14.4,14.4"/>
<!-- 0 -->
<g id="node1" class="node">
<title>0</title>
<ellipse fill="none" stroke="lightsalmon" stroke-width="2" cx="18" cy="-18" rx="18" ry="18"/>
<text text-anchor="start" x="13.88" y="-13.32" font-family="monospace" font-size="14.00">0</text>
</g>
<!-- 1 -->
<g id="node2" class="node">
<title>1</title>
<ellipse fill="none" stroke="lightsalmon" stroke-width="2" cx="90.57" cy="-18" rx="18" ry="18"/>
<text text-anchor="start" x="86.44" y="-13.33" font-family="monospace" font-size="14.00">1</text>
</g>
<!-- 0&#45;&gt;1 -->
<g id="edge1" class="edge">
<title>0&#45;&gt;1</title>
<path fill="none" stroke="lightsalmon" stroke-width="2" d="M36.31,-18C44.99,-18 55.51,-18 64.96,-18"/>
<polygon fill="lightsalmon" stroke="lightsalmon" stroke-width="2" points="63.23,-20.1 69.23,-18 63.23,-15.9 63.23,-20.1"/>
</g>
<!-- 4 -->
<g id="node3" class="node">
<title>4</title>
<ellipse fill="none" stroke="lightsalmon" stroke-width="2" cx="47.78" cy="-84.47" rx="18" ry="18"/>
<text text-anchor="start" x="43.66" y="-79.79" font-family="monospace" font-size="14.00">4</text>
</g>
<!-- 1&#45;&gt;4 -->
<g id="edge3" class="edge">
<title>1&#45;&gt;4</title>
<path fill="none" stroke="lightsalmon" stroke-width="2" d="M80.64,-33.42C74.97,-42.22 67.78,-53.4 61.57,-63.05"/>
<polygon fill="lightsalmon" stroke="lightsalmon" stroke-width="2" points="60.77,-60.41 59.29,-66.59 64.3,-62.68 60.77,-60.41"/>
</g>
<!-- 2 -->
<g id="node6" class="node">
<title>2</title>
<ellipse fill="none" stroke="#cd96cd" stroke-width="2" cx="166.76" cy="-37.09" rx="18" ry="18"/>
<text text-anchor="start" x="162.63" y="-32.42" font-family="monospace" font-size="14.00">2</text>
</g>
<!-- 1&#45;&gt;2 -->
<g id="edge2" class="edge">
<title>1&#45;&gt;2</title>
<path fill="none" stroke="#bbbbbb" d="M108.24,-22.43C118.17,-24.92 130.73,-28.06 141.66,-30.8"/>
<polygon fill="#bbbbbb" stroke="#bbbbbb" points="141.12,-32.83 147.45,-32.25 142.14,-28.76 141.12,-32.83"/>
</g>
<!-- 4&#45;&gt;0 -->
<g id="edge7" class="edge">
<title>4&#45;&gt;0</title>
<path fill="none" stroke="lightsalmon" stroke-width="2" d="M40.27,-67.69C36.68,-59.68 32.32,-49.96 28.42,-41.25"/>
<polygon fill="lightsalmon" stroke="lightsalmon" stroke-width="2" points="31.02,-41.92 26.65,-37.3 27.18,-43.63 31.02,-41.92"/>
</g>
<!-- 5 -->
<g id="node4" class="node">
<title>5</title>
<ellipse fill="none" stroke="#7ccd7c" stroke-width="2" cx="99.93" cy="-144.56" rx="18" ry="18"/>
<text text-anchor="start" x="95.81" y="-139.89" font-family="monospace" font-size="14.00">5</text>
</g>
<!-- 4&#45;&gt;5 -->
<g id="edge8" class="edge">
<title>4&#45;&gt;5</title>
<path fill="none" stroke="#bbbbbb" d="M59.88,-98.41C66.85,-106.45 75.73,-116.67 83.35,-125.45"/>
<polygon fill="#bbbbbb" stroke="#bbbbbb" points="81.39,-126.4 86.91,-129.56 84.56,-123.65 81.39,-126.4"/>
</g>
<!-- 6 -->
<g id="node5" class="node">
<title>6</title>
<ellipse fill="none" stroke="#7ccd7c" stroke-width="2" cx="175.98" cy="-120.76" rx="18" ry="18"/>
<text text-anchor="start" x="171.85" y="-116.08" font-family="monospace" font-size="14.00">6</text>
</g>
<!-- 5&#45;&gt;6 -->
<g id="edge9" class="edge">
<title>5&#45;&gt;6</title>
<path fill="none" stroke="#7ccd7c" stroke-width="2" d="M124.54,-136.86C133.17,-134.16 142.86,-131.12 151.49,-128.42"/>
<polygon fill="#7ccd7c" stroke="#7ccd7c" stroke-width="2" points="125.56,-134.34 120.46,-138.14 126.81,-138.35 125.56,-134.34"/>
<polygon fill="#7ccd7c" stroke="#7ccd7c" stroke-width="2" points="150.45,-130.95 155.55,-127.15 149.19,-126.94 150.45,-130.95"/>
</g>
<!-- 2&#45;&gt;6 -->
<g id="edge5" class="edge">
<title>2&#45;&gt;6</title>
<path fill="none" stroke="#bbbbbb" d="M168.76,-55.25C170.05,-66.98 171.75,-82.41 173.18,-95.35"/>
<polygon fill="#bbbbbb" stroke="#bbbbbb" points="171.07,-95.4 173.82,-101.13 175.25,-94.94 171.07,-95.4"/>
</g>
<!-- 3 -->
<g id="node7" class="node">
<title>3</title>
<ellipse fill="none" stroke="#cd96cd" stroke-width="2" cx="244.62" cy="-31.47" rx="18" ry="18"/>
<text text-anchor="start" x="240.5" y="-26.79" font-family="monospace" font-size="14.00">3</text>
</g>
<!-- 2&#45;&gt;3 -->
<g id="edge4" class="edge">
<title>2&#45;&gt;3</title>
<path fill="none" stroke="#cd96cd" stroke-width="2" d="M192.22,-35.25C200.85,-34.63 210.48,-33.93 219.11,-33.31"/>
<polygon fill="#cd96cd" stroke="#cd96cd" stroke-width="2" points="193.67,-33.04 187.84,-35.57 193.97,-37.23 193.67,-33.04"/>
<polygon fill="#cd96cd" stroke="#cd96cd" stroke-width="2" points="217.54,-35.53 223.37,-33 217.24,-31.34 217.54,-35.53"/>
</g>
<!-- 7 -->
<g id="node8" class="node">
<title>7</title>
<ellipse fill="none" stroke="#cd96cd" stroke-width="2" cx="254.14" cy="-111.58" rx="18" ry="18"/>
<text text-anchor="start" x="250.01" y="-106.91" font-family="monospace" font-size="14.00">7</text>
</g>
<!-- 3&#45;&gt;7 -->
<g id="edge6" class="edge">
<title>3&#45;&gt;7</title>
<path fill="none" stroke="#cd96cd" stroke-width="2" d="M247.67,-57.1C248.77,-66.35 250.01,-76.79 251.1,-86.04"/>
<polygon fill="#cd96cd" stroke="#cd96cd" stroke-width="2" points="249.93,-58.36 247.14,-52.65 245.76,-58.86 249.93,-58.36"/>
<polygon fill="#cd96cd" stroke="#cd96cd" stroke-width="2" points="248.84,-84.76 251.63,-90.47 253.01,-84.26 248.84,-84.76"/>
</g>
<!-- 7&#45;&gt;6 -->
<g id="edge10" class="edge">
<title>7&#45;&gt;6</title>
<path fill="none" stroke="#bbbbbb" d="M236.01,-113.71C225.82,-114.91 212.94,-116.42 201.72,-117.73"/>
<polygon fill="#bbbbbb" stroke="#bbbbbb" points="201.5,-115.65 195.78,-118.43 201.99,-119.82 201.5,-115.65"/>
</g>
</g>
</svg>
