<?xml version="1.0" encoding="UTF-8" standalone="no"?>
<!DOCTYPE svg PUBLIC "-//W3C//DTD SVG 1.1//EN"
 "http://www.w3.org/Graphics/SVG/1.1/DTD/svg11.dtd">
<!-- Generated by graphviz version 12.0.0 (20240704.0754)
 -->
<!-- Pages: 1 -->
<svg width="343pt" height="313pt"
 viewBox="0.00 0.00 343.20 312.78" xmlns="http://www.w3.org/2000/svg" xmlns:xlink="http://www.w3.org/1999/xlink">
<g id="graph0" class="graph" transform="scale(1 1) rotate(0) translate(14.4 298.38)">
<polygon fill="white" stroke="none" points="-14.4,14.4 -14.4,-298.38 328.8,-298.38 328.8,14.4 -14.4,14.4"/>
<!-- 0 -->
<g id="node1" class="node">
<title>0</title>
<ellipse fill="none" stroke="lightsalmon" stroke-width="2" cx="296.4" cy="-37.94" rx="18" ry="18"/>
<text text-anchor="start" x="292.28" y="-33.27" font-family="monospace" font-size="14.00">0</text>
</g>
<!-- 1 -->
<g id="node2" class="node">
<title>1</title>
<ellipse fill="none" stroke="lightsalmon" stroke-width="2" cx="240.61" cy="-113.83" rx="18" ry="18"/>
<text text-anchor="start" x="236.48" y="-109.16" font-family="monospace" font-size="14.00">1</text>
</g>
<!-- 0&#45;&gt;1 -->
<g id="edge1" class="edge">
<title>0&#45;&gt;1</title>
<path fill="none" stroke="lightsalmon" stroke-width="2" d="M285.64,-52.58C277.21,-64.05 265.36,-80.17 255.93,-92.99"/>
<polygon fill="lightsalmon" stroke="lightsalmon" stroke-width="2" points="255.18,-90.47 253.32,-96.55 258.56,-92.96 255.18,-90.47"/>
</g>
<!-- 4 -->
<g id="node3" class="node">
<title>4</title>
<ellipse fill="none" stroke="lightsalmon" stroke-width="2" cx="203.66" cy="-18" rx="18" ry="18"/>
<text text-anchor="start" x="199.53" y="-13.32" font-family="monospace" font-size="14.00">4</text>
</g>
<!-- 1&#45;&gt;4 -->
<g id="edge3" class="edge">
<title>1&#45;&gt;4</title>
<path fill="none" stroke="lightsalmon" stroke-width="2" d="M234,-96.7C228.12,-81.44 219.45,-58.95 212.88,-41.91"/>
<polygon fill="lightsalmon" stroke="lightsalmon" stroke-width="2" points="215.42,-42.65 211.3,-37.81 211.5,-44.16 215.42,-42.65"/>
</g>
<!-- 2 -->
<g id="node6" class="node">
<title>2</title>
<ellipse fill="none" stroke="#cd96cd" stroke-width="2" cx="162.27" cy="-179.2" rx="18" ry="18"/>
<text text-anchor="start" x="158.15" y="-174.53" font-family="monospace" font-size="14.00">2</text>
</g>
<!-- 1&#45;&gt;2 -->
<g id="edge2" class="edge">
<title>1&#45;&gt;2</title>
<path fill="none" stroke="#bbbbbb" d="M226.6,-125.52C214.2,-135.87 195.97,-151.08 182.08,-162.68"/>
<polygon fill="#bbbbbb" stroke="#bbbbbb" points="180.84,-160.97 177.58,-166.43 183.53,-164.2 180.84,-160.97"/>
</g>
<!-- 4&#45;&gt;0 -->
<g id="edge7" class="edge">
<title>4&#45;&gt;0</title>
<path fill="none" stroke="lightsalmon" stroke-width="2" d="M221.54,-21.85C235.65,-24.88 255.52,-29.15 271.24,-32.53"/>
<polygon fill="lightsalmon" stroke="lightsalmon" stroke-width="2" points="269.31,-34.26 275.62,-33.47 270.19,-30.16 269.31,-34.26"/>
</g>
<!-- 5 -->
<g id="node4" class="node">
<title>5</title>
<ellipse fill="none" stroke="#7ccd7c" stroke-width="2" cx="100.51" cy="-27.09" rx="18" ry="18"/>
<text text-anchor="start" x="96.38" y="-22.42" font-family="monospace" font-size="14.00">5</text>
</g>
<!-- 4&#45;&gt;5 -->
<g id="edge8" class="edge">
<title>4&#45;&gt;5</title>
<path fill="none" stroke="#bbbbbb" d="M185.69,-19.58C169.08,-21.05 144.23,-23.24 125.65,-24.87"/>
<polygon fill="#bbbbbb" stroke="#bbbbbb" points="125.91,-22.74 120.12,-25.36 126.28,-26.93 125.91,-22.74"/>
</g>
<!-- 6 -->
<g id="node5" class="node">
<title>6</title>
<ellipse fill="none" stroke="#7ccd7c" stroke-width="2" cx="67.09" cy="-125.26" rx="18" ry="18"/>
<text text-anchor="start" x="62.96" y="-120.59" font-family="monospace" font-size="14.00">6</text>
</g>
<!-- 5&#45;&gt;6 -->
<g id="edge9" class="edge">
<title>5&#45;&gt;6</title>
<path fill="none" stroke="#7ccd7c" stroke-width="2" d="M92.41,-50.87C87.2,-66.17 80.45,-86 75.23,-101.33"/>
<polygon fill="#7ccd7c" stroke="#7ccd7c" stroke-width="2" points="93.76,-53.41 93.71,-47.06 89.79,-52.06 93.76,-53.41"/>
<polygon fill="#7ccd7c" stroke="#7ccd7c" stroke-width="2" points="73.87,-98.81 73.93,-105.16 77.85,-100.16 73.87,-98.81"/>
</g>
<!-- 2&#45;&gt;6 -->
<g id="edge5" class="edge">
<title>2&#45;&gt;6</title>
<path fill="none" stroke="#bbbbbb" d="M146.55,-170.3C130.94,-161.45 106.86,-147.8 89.29,-137.85"/>
<polygon fill="#bbbbbb" stroke="#bbbbbb" points="90.72,-136.24 84.46,-135.11 88.65,-139.89 90.72,-136.24"/>
</g>
<!-- 3 -->
<g id="node7" class="node">
<title>3</title>
<ellipse fill="none" stroke="#cd96cd" stroke-width="2" cx="109.79" cy="-265.98" rx="18" ry="18"/>
<text text-anchor="start" x="105.66" y="-261.31" font-family="monospace" font-size="14.00">3</text>
</g>
<!-- 2&#45;&gt;3 -->
<g id="edge4" class="edge">
<title>2&#45;&gt;3</title>
<path fill="none" stroke="#cd96cd" stroke-width="2" d="M149.11,-200.97C141.13,-214.16 130.98,-230.94 122.99,-244.14"/>
<polygon fill="#cd96cd" stroke="#cd96cd" stroke-width="2" points="150.01,-203.53 151.32,-197.31 146.42,-201.35 150.01,-203.53"/>
<polygon fill="#cd96cd" stroke="#cd96cd" stroke-width="2" points="122.14,-241.5 120.83,-247.72 125.73,-243.67 122.14,-241.5"/>
</g>
<!-- 7 -->
<g id="node8" class="node">
<title>7</title>
<ellipse fill="none" stroke="#cd96cd" stroke-width="2" cx="18" cy="-215.17" rx="18" ry="18"/>
<text text-anchor="start" x="13.88" y="-210.5" font-family="monospace" font-size="14.00">7</text>
</g>
<!-- 3&#45;&gt;7 -->
<g id="edge6" class="edge">
<title>3&#45;&gt;7</title>
<path fill="none" stroke="#cd96cd" stroke-width="2" d="M87.55,-253.67C73.24,-245.75 54.71,-235.49 40.37,-227.56"/>
<polygon fill="#cd96cd" stroke="#cd96cd" stroke-width="2" points="84.88,-254.6 91.15,-255.66 86.92,-250.92 84.88,-254.6"/>
<polygon fill="#cd96cd" stroke="#cd96cd" stroke-width="2" points="43.03,-226.63 36.76,-225.56 40.99,-230.3 43.03,-226.63"/>
</g>
<!-- 7&#45;&gt;6 -->
<g id="edge10" class="edge">
<title>7&#45;&gt;6</title>
<path fill="none" stroke="#bbbbbb" d="M26.78,-199.1C34.59,-184.78 46.11,-163.68 54.84,-147.7"/>
<polygon fill="#bbbbbb" stroke="#bbbbbb" points="56.63,-148.8 57.66,-142.52 52.94,-146.78 56.63,-148.8"/>
</g>
</g>
</svg>
