<?xml version="1.0" encoding="UTF-8" standalone="no"?>
<!DOCTYPE svg PUBLIC "-//W3C//DTD SVG 1.1//EN"
 "http://www.w3.org/Graphics/SVG/1.1/DTD/svg11.dtd">
<!-- Generated by graphviz version 12.0.0 (20240704.0754)
 -->
<!-- Pages: 1 -->
<svg width="185pt" height="185pt"
 viewBox="0.00 0.00 184.68 184.68" xmlns="http://www.w3.org/2000/svg" xmlns:xlink="http://www.w3.org/1999/xlink">
<g id="graph0" class="graph" transform="scale(1 1) rotate(0) translate(14.4 170.28)">
<polygon fill="white" stroke="none" points="-14.4,14.4 -14.4,-170.28 170.28,-170.28 170.28,14.4 -14.4,14.4"/>
<!-- 0 -->
<g id="node1" class="node">
<title>0</title>
<ellipse fill="none" stroke="black" cx="77.94" cy="-77.94" rx="18" ry="18"/>
<text text-anchor="middle" x="77.94" y="-73.26" font-family="monospace" font-size="14.00">0</text>
</g>
<!-- 1 -->
<g id="node2" class="node">
<title>1</title>
<ellipse fill="none" stroke="black" cx="137.88" cy="-77.94" rx="18" ry="18"/>
<text text-anchor="middle" x="137.88" y="-73.26" font-family="monospace" font-size="14.00">1</text>
</g>
<!-- 0&#45;&gt;1 -->
<g id="edge1" class="edge">
<title>0&#45;&gt;1</title>
<path fill="none" stroke="blue" d="M96.25,-77.94C101.36,-77.94 107.01,-77.94 112.46,-77.94"/>
<polygon fill="blue" stroke="blue" points="112.17,-80.04 118.17,-77.94 112.17,-75.84 112.17,-80.04"/>
</g>
<!-- 2 -->
<g id="node3" class="node">
<title>2</title>
<ellipse fill="none" stroke="black" cx="77.94" cy="-18" rx="18" ry="18"/>
<text text-anchor="middle" x="77.94" y="-13.32" font-family="monospace" font-size="14.00">2</text>
</g>
<!-- 0&#45;&gt;2 -->
<g id="edge2" class="edge">
<title>0&#45;&gt;2</title>
<path fill="none" stroke="blue" d="M77.94,-59.63C77.94,-54.52 77.94,-48.87 77.94,-43.42"/>
<polygon fill="blue" stroke="blue" points="80.04,-43.71 77.94,-37.71 75.84,-43.71 80.04,-43.71"/>
</g>
<!-- 3 -->
<g id="node4" class="node">
<title>3</title>
<ellipse fill="none" stroke="black" cx="18" cy="-77.94" rx="18" ry="18"/>
<text text-anchor="middle" x="18" y="-73.26" font-family="monospace" font-size="14.00">3</text>
</g>
<!-- 0&#45;&gt;3 -->
<g id="edge3" class="edge">
<title>0&#45;&gt;3</title>
<path fill="none" stroke="blue" d="M59.63,-77.94C54.52,-77.94 48.87,-77.94 43.42,-77.94"/>
<polygon fill="blue" stroke="blue" points="43.71,-75.84 37.71,-77.94 43.71,-80.04 43.71,-75.84"/>
</g>
<!-- 4 -->
<g id="node5" class="node">
<title>4</title>
<ellipse fill="none" stroke="black" cx="77.94" cy="-137.88" rx="18" ry="18"/>
<text text-anchor="middle" x="77.94" y="-133.21" font-family="monospace" font-size="14.00">4</text>
</g>
<!-- 0&#45;&gt;4 -->
<g id="edge4" class="edge">
<title>0&#45;&gt;4</title>
<path fill="none" stroke="blue" d="M77.94,-96.25C77.94,-101.36 77.94,-107.01 77.94,-112.45"/>
<polygon fill="blue" stroke="blue" points="75.84,-112.17 77.94,-118.17 80.04,-112.17 75.84,-112.17"/>
</g>
<!-- 1&#45;&gt;2 -->
<!-- 1&#45;&gt;4 -->
<!-- 2&#45;&gt;3 -->
<!-- 3&#45;&gt;4 -->
</g>
</svg>
