<?xml version="1.0" encoding="UTF-8" standalone="no"?>
<!DOCTYPE svg PUBLIC "-//W3C//DTD SVG 1.1//EN"
 "http://www.w3.org/Graphics/SVG/1.1/DTD/svg11.dtd">
<!-- Generated by graphviz version 12.0.0 (20240704.0754)
 -->
<!-- Pages: 1 -->
<svg width="184pt" height="184pt"
 viewBox="0.00 0.00 184.14 184.17" xmlns="http://www.w3.org/2000/svg" xmlns:xlink="http://www.w3.org/1999/xlink">
<g id="graph0" class="graph" transform="scale(1 1) rotate(0) translate(14.4 169.77)">
<polygon fill="white" stroke="none" points="-14.4,14.4 -14.4,-169.77 169.74,-169.77 169.74,14.4 -14.4,14.4"/>
<!-- 0 -->
<g id="node1" class="node">
<title>0</title>
<ellipse fill="none" stroke="black" cx="77.89" cy="-77.98" rx="18" ry="18"/>
<text text-anchor="middle" x="77.89" y="-73.31" font-family="monospace" font-size="14.00">0</text>
</g>
<!-- 1 -->
<g id="node2" class="node">
<title>1</title>
<ellipse fill="none" stroke="black" cx="137.34" cy="-77.98" rx="18" ry="18"/>
<text text-anchor="middle" x="137.34" y="-73.31" font-family="monospace" font-size="14.00">1</text>
</g>
<!-- 0&#45;&gt;1 -->
<g id="edge1" class="edge">
<title>0&#45;&gt;1</title>
<path fill="none" stroke="blue" d="M96.38,-77.98C101.23,-77.98 106.56,-77.98 111.71,-77.98"/>
<polygon fill="blue" stroke="blue" points="111.56,-80.08 117.56,-77.98 111.56,-75.88 111.56,-80.08"/>
</g>
<!-- 2 -->
<g id="node3" class="node">
<title>2</title>
<ellipse fill="none" stroke="black" cx="78.04" cy="-18" rx="18" ry="18"/>
<text text-anchor="middle" x="78.04" y="-13.32" font-family="monospace" font-size="14.00">2</text>
</g>
<!-- 0&#45;&gt;2 -->
<g id="edge2" class="edge">
<title>0&#45;&gt;2</title>
<path fill="none" stroke="blue" d="M77.94,-59.66C77.95,-54.54 77.97,-48.89 77.98,-43.44"/>
<polygon fill="blue" stroke="blue" points="80.08,-43.73 77.99,-37.72 75.88,-43.72 80.08,-43.73"/>
</g>
<!-- 3 -->
<g id="node4" class="node">
<title>3</title>
<ellipse fill="none" stroke="black" cx="18" cy="-77.31" rx="18" ry="18"/>
<text text-anchor="middle" x="18" y="-72.63" font-family="monospace" font-size="14.00">3</text>
</g>
<!-- 0&#45;&gt;3 -->
<g id="edge3" class="edge">
<title>0&#45;&gt;3</title>
<path fill="none" stroke="blue" d="M59.6,-77.78C54.49,-77.72 48.84,-77.66 43.4,-77.59"/>
<polygon fill="blue" stroke="blue" points="43.72,-75.5 37.7,-77.53 43.67,-79.7 43.72,-75.5"/>
</g>
<!-- 4 -->
<g id="node5" class="node">
<title>4</title>
<ellipse fill="none" stroke="black" cx="77.53" cy="-137.37" rx="18" ry="18"/>
<text text-anchor="middle" x="77.53" y="-132.7" font-family="monospace" font-size="14.00">4</text>
</g>
<!-- 0&#45;&gt;4 -->
<g id="edge4" class="edge">
<title>0&#45;&gt;4</title>
<path fill="none" stroke="blue" d="M77.78,-96.45C77.75,-101.3 77.72,-106.62 77.69,-111.77"/>
<polygon fill="blue" stroke="blue" points="75.59,-111.6 77.65,-117.61 79.79,-111.62 75.59,-111.6"/>
</g>
<!-- 1&#45;&gt;2 -->
<!-- 1&#45;&gt;4 -->
<!-- 2&#45;&gt;3 -->
<!-- 3&#45;&gt;4 -->
</g>
</svg>
