<?xml version="1.0" encoding="UTF-8" standalone="no"?>
<!DOCTYPE svg PUBLIC "-//W3C//DTD SVG 1.1//EN"
 "http://www.w3.org/Graphics/SVG/1.1/DTD/svg11.dtd">
<!-- Generated by graphviz version 12.0.0 (20240704.0754)
 -->
<!-- Pages: 1 -->
<svg width="185pt" height="185pt"
 viewBox="0.00 0.00 184.68 184.68" xmlns="http://www.w3.org/2000/svg" xmlns:xlink="http://www.w3.org/1999/xlink">
<g id="graph0" class="graph" transform="scale(1 1) rotate(0) translate(14.4 170.28)">
<polygon fill="white" stroke="none" points="-14.4,14.4 -14.4,-170.28 170.28,-170.28 170.28,14.4 -14.4,14.4"/>
<!-- 0 -->
<g id="node1" class="node">
<title>0</title>
<ellipse fill="none" stroke="black" cx="77.94" cy="-77.94" rx="18" ry="18"/>
<text text-anchor="middle" x="77.94" y="-73.26" font-family="monospace" font-size="14.00">0</text>
</g>
<!-- 1 -->
<g id="node2" class="node">
<title>1</title>
<ellipse fill="none" stroke="black" cx="137.88" cy="-77.94" rx="18" ry="18"/>
<text text-anchor="middle" x="137.88" y="-73.26" font-family="monospace" font-size="14.00">1</text>
</g>
<!-- 0&#45;&gt;1 -->
<g id="edge1" class="edge">
<title>0&#45;&gt;1</title>
<path fill="none" stroke="skyblue" d="M103.48,-77.94C106.38,-77.94 109.33,-77.94 112.22,-77.94"/>
<polygon fill="skyblue" stroke="skyblue" points="103.76,-75.84 97.76,-77.94 103.76,-80.04 103.76,-75.84"/>
<polygon fill="skyblue" stroke="skyblue" points="112.17,-80.04 118.17,-77.94 112.17,-75.84 112.17,-80.04"/>
</g>
<!-- 2 -->
<g id="node3" class="node">
<title>2</title>
<ellipse fill="none" stroke="black" cx="77.94" cy="-18" rx="18" ry="18"/>
<text text-anchor="middle" x="77.94" y="-13.32" font-family="monospace" font-size="14.00">2</text>
</g>
<!-- 0&#45;&gt;2 -->
<g id="edge2" class="edge">
<title>0&#45;&gt;2</title>
<path fill="none" stroke="skyblue" d="M77.94,-52.39C77.94,-49.5 77.94,-46.55 77.94,-43.66"/>
<polygon fill="skyblue" stroke="skyblue" points="75.84,-52.11 77.94,-58.11 80.04,-52.12 75.84,-52.11"/>
<polygon fill="skyblue" stroke="skyblue" points="80.04,-43.71 77.94,-37.71 75.84,-43.71 80.04,-43.71"/>
</g>
<!-- 3 -->
<g id="node4" class="node">
<title>3</title>
<ellipse fill="none" stroke="black" cx="18" cy="-77.94" rx="18" ry="18"/>
<text text-anchor="middle" x="18" y="-73.26" font-family="monospace" font-size="14.00">3</text>
</g>
<!-- 0&#45;&gt;3 -->
<g id="edge3" class="edge">
<title>0&#45;&gt;3</title>
<path fill="none" stroke="skyblue" d="M52.4,-77.94C49.5,-77.94 46.55,-77.94 43.66,-77.94"/>
<polygon fill="skyblue" stroke="skyblue" points="52.12,-80.04 58.12,-77.94 52.12,-75.84 52.12,-80.04"/>
<polygon fill="skyblue" stroke="skyblue" points="43.71,-75.84 37.71,-77.94 43.71,-80.04 43.71,-75.84"/>
</g>
<!-- 4 -->
<g id="node5" class="node">
<title>4</title>
<ellipse fill="none" stroke="black" cx="77.94" cy="-137.88" rx="18" ry="18"/>
<text text-anchor="middle" x="77.94" y="-133.21" font-family="monospace" font-size="14.00">4</text>
</g>
<!-- 0&#45;&gt;4 -->
<g id="edge4" class="edge">
<title>0&#45;&gt;4</title>
<path fill="none" stroke="skyblue" d="M77.94,-103.48C77.94,-106.38 77.94,-109.33 77.94,-112.22"/>
<polygon fill="skyblue" stroke="skyblue" points="80.04,-103.76 77.94,-97.76 75.84,-103.76 80.04,-103.76"/>
<polygon fill="skyblue" stroke="skyblue" points="75.84,-112.17 77.94,-118.17 80.04,-112.17 75.84,-112.17"/>
</g>
<!-- 1&#45;&gt;2 -->
<g id="edge5" class="edge">
<title>1&#45;&gt;2</title>
<path fill="none" stroke="red" d="M119.65,-59.71C112.12,-52.17 103.41,-43.46 95.9,-35.96"/>
<polygon fill="red" stroke="red" points="118.08,-61.1 123.81,-63.86 121.05,-58.13 118.08,-61.1"/>
<polygon fill="red" stroke="red" points="97.72,-34.81 91.99,-32.05 94.75,-37.78 97.72,-34.81"/>
</g>
<!-- 1&#45;&gt;4 -->
<g id="edge6" class="edge">
<title>1&#45;&gt;4</title>
<path fill="none" stroke="red" d="M119.65,-96.17C112.12,-103.7 103.41,-112.42 95.9,-119.92"/>
<polygon fill="red" stroke="red" points="121.05,-97.74 123.81,-92.01 118.08,-94.77 121.05,-97.74"/>
<polygon fill="red" stroke="red" points="94.75,-118.1 91.99,-123.83 97.72,-121.07 94.75,-118.1"/>
</g>
<!-- 2&#45;&gt;3 -->
<g id="edge7" class="edge">
<title>2&#45;&gt;3</title>
<path fill="none" stroke="red" d="M59.71,-36.23C52.18,-43.76 43.46,-52.48 35.96,-59.98"/>
<polygon fill="red" stroke="red" points="61.11,-37.8 63.86,-32.08 58.14,-34.83 61.11,-37.8"/>
<polygon fill="red" stroke="red" points="34.81,-58.16 32.05,-63.89 37.78,-61.13 34.81,-58.16"/>
</g>
<!-- 3&#45;&gt;4 -->
<g id="edge8" class="edge">
<title>3&#45;&gt;4</title>
<path fill="none" stroke="red" d="M36.23,-96.17C43.76,-103.7 52.48,-112.42 59.98,-119.92"/>
<polygon fill="red" stroke="red" points="37.8,-94.77 32.08,-92.01 34.83,-97.74 37.8,-94.77"/>
<polygon fill="red" stroke="red" points="58.16,-121.07 63.89,-123.83 61.13,-118.1 58.16,-121.07"/>
</g>
</g>
</svg>
