<?xml version="1.0" encoding="UTF-8" standalone="no"?>
<!DOCTYPE svg PUBLIC "-//W3C//DTD SVG 1.1//EN"
 "http://www.w3.org/Graphics/SVG/1.1/DTD/svg11.dtd">
<!-- Generated by graphviz version 12.0.0 (20240704.0754)
 -->
<!-- Pages: 1 -->
<svg width="184pt" height="184pt"
 viewBox="0.00 0.00 184.14 184.17" xmlns="http://www.w3.org/2000/svg" xmlns:xlink="http://www.w3.org/1999/xlink">
<g id="graph0" class="graph" transform="scale(1 1) rotate(0) translate(14.4 169.77)">
<polygon fill="white" stroke="none" points="-14.4,14.4 -14.4,-169.77 169.74,-169.77 169.74,14.4 -14.4,14.4"/>
<!-- 0 -->
<g id="node1" class="node">
<title>0</title>
<ellipse fill="none" stroke="black" cx="77.89" cy="-77.98" rx="18" ry="18"/>
<text text-anchor="middle" x="77.89" y="-73.31" font-family="monospace" font-size="14.00">0</text>
</g>
<!-- 1 -->
<g id="node2" class="node">
<title>1</title>
<ellipse fill="none" stroke="black" cx="137.34" cy="-77.98" rx="18" ry="18"/>
<text text-anchor="middle" x="137.34" y="-73.31" font-family="monospace" font-size="14.00">1</text>
</g>
<!-- 0&#45;&gt;1 -->
<!-- 2 -->
<g id="node3" class="node">
<title>2</title>
<ellipse fill="none" stroke="black" cx="78.04" cy="-18" rx="18" ry="18"/>
<text text-anchor="middle" x="78.04" y="-13.32" font-family="monospace" font-size="14.00">2</text>
</g>
<!-- 0&#45;&gt;2 -->
<!-- 3 -->
<g id="node4" class="node">
<title>3</title>
<ellipse fill="none" stroke="black" cx="18" cy="-77.31" rx="18" ry="18"/>
<text text-anchor="middle" x="18" y="-72.63" font-family="monospace" font-size="14.00">3</text>
</g>
<!-- 0&#45;&gt;3 -->
<!-- 4 -->
<g id="node5" class="node">
<title>4</title>
<ellipse fill="none" stroke="black" cx="77.53" cy="-137.37" rx="18" ry="18"/>
<text text-anchor="middle" x="77.53" y="-132.7" font-family="monospace" font-size="14.00">4</text>
</g>
<!-- 0&#45;&gt;4 -->
<!-- 1&#45;&gt;2 -->
<g id="edge5" class="edge">
<title>1&#45;&gt;2</title>
<path fill="none" stroke="red" d="M119.31,-59.74C111.86,-52.2 103.24,-43.48 95.81,-35.97"/>
<polygon fill="red" stroke="red" points="117.7,-61.1 123.41,-63.89 120.69,-58.15 117.7,-61.1"/>
<polygon fill="red" stroke="red" points="97.66,-34.86 91.95,-32.07 94.68,-37.81 97.66,-34.86"/>
</g>
<!-- 1&#45;&gt;4 -->
<g id="edge6" class="edge">
<title>1&#45;&gt;4</title>
<path fill="none" stroke="red" d="M119.16,-96.04C111.64,-103.51 102.94,-112.14 95.45,-119.58"/>
<polygon fill="red" stroke="red" points="120.51,-97.65 123.29,-91.94 117.55,-94.67 120.51,-97.65"/>
<polygon fill="red" stroke="red" points="94.34,-117.73 91.56,-123.44 97.3,-120.71 94.34,-117.73"/>
</g>
<!-- 2&#45;&gt;3 -->
<g id="edge7" class="edge">
<title>2&#45;&gt;3</title>
<path fill="none" stroke="red" d="M59.79,-36.04C52.24,-43.49 43.51,-52.11 35.99,-59.54"/>
<polygon fill="red" stroke="red" points="61.15,-37.64 63.94,-31.93 58.19,-34.65 61.15,-37.64"/>
<polygon fill="red" stroke="red" points="34.87,-57.69 32.08,-63.4 37.82,-60.68 34.87,-57.69"/>
</g>
<!-- 3&#45;&gt;4 -->
<g id="edge8" class="edge">
<title>3&#45;&gt;4</title>
<path fill="none" stroke="red" d="M36.1,-95.57C43.59,-103.12 52.24,-111.86 59.7,-119.38"/>
<polygon fill="red" stroke="red" points="37.7,-94.2 31.98,-91.42 34.71,-97.16 37.7,-94.2"/>
<polygon fill="red" stroke="red" points="57.86,-120.51 63.57,-123.29 60.84,-117.55 57.86,-120.51"/>
</g>
</g>
</svg>
