<?xml version="1.0" encoding="UTF-8" standalone="no"?>
<!DOCTYPE svg PUBLIC "-//W3C//DTD SVG 1.1//EN"
 "http://www.w3.org/Graphics/SVG/1.1/DTD/svg11.dtd">
<!-- Generated by graphviz version 12.0.0 (20240704.0754)
 -->
<!-- Pages: 1 -->
<svg width="178pt" height="178pt"
 viewBox="0.00 0.00 177.78 177.77" xmlns="http://www.w3.org/2000/svg" xmlns:xlink="http://www.w3.org/1999/xlink">
<g id="graph0" class="graph" transform="scale(1 1) rotate(0) translate(14.4 163.37)">
<polygon fill="white" stroke="none" points="-14.4,14.4 -14.4,-163.37 163.38,-163.37 163.38,14.4 -14.4,14.4"/>
<!-- 0 -->
<g id="node1" class="node">
<title>0</title>
<ellipse fill="none" stroke="black" cx="18" cy="-74.49" rx="18" ry="18"/>
<text text-anchor="middle" x="18" y="-69.82" font-family="monospace" font-size="14.00">0</text>
</g>
<!-- 1 -->
<g id="node2" class="node">
<title>1</title>
<ellipse fill="none" stroke="black" cx="130.98" cy="-74.49" rx="18" ry="18"/>
<text text-anchor="middle" x="130.98" y="-69.82" font-family="monospace" font-size="14.00">1</text>
</g>
<!-- 0&#45;&gt;1 -->
<g id="edge1" class="edge">
<title>0&#45;&gt;1</title>
<path fill="none" stroke="black" d="M43.74,-74.49C62.11,-74.49 86.72,-74.49 105.12,-74.49"/>
<polygon fill="black" stroke="black" points="43.92,-72.39 37.92,-74.49 43.92,-76.59 43.92,-72.39"/>
<polygon fill="black" stroke="black" points="105.07,-76.59 111.07,-74.49 105.07,-72.39 105.07,-76.59"/>
</g>
<!-- 2 -->
<g id="node3" class="node">
<title>2</title>
<ellipse fill="none" stroke="black" cx="74.5" cy="-18" rx="18" ry="18"/>
<text text-anchor="middle" x="74.5" y="-13.32" font-family="monospace" font-size="14.00">2</text>
</g>
<!-- 0&#45;&gt;2 -->
<g id="edge2" class="edge">
<title>0&#45;&gt;2</title>
<path fill="none" stroke="black" d="M35.84,-56.66C42.41,-50.09 49.85,-42.65 56.43,-36.06"/>
<polygon fill="black" stroke="black" points="34.65,-54.88 31.89,-60.6 37.62,-57.85 34.65,-54.88"/>
<polygon fill="black" stroke="black" points="57.9,-37.57 60.66,-31.84 54.93,-34.6 57.9,-37.57"/>
</g>
<!-- 3 -->
<g id="node4" class="node">
<title>3</title>
<ellipse fill="none" stroke="black" cx="74.49" cy="-130.97" rx="18" ry="18"/>
<text text-anchor="middle" x="74.49" y="-126.3" font-family="monospace" font-size="14.00">3</text>
</g>
<!-- 0&#45;&gt;3 -->
<g id="edge3" class="edge">
<title>0&#45;&gt;3</title>
<path fill="none" stroke="black" d="M35.83,-92.32C42.4,-98.89 49.84,-106.33 56.43,-112.92"/>
<polygon fill="black" stroke="black" points="37.62,-91.14 31.89,-88.38 34.65,-94.11 37.62,-91.14"/>
<polygon fill="black" stroke="black" points="54.92,-114.38 60.65,-117.14 57.89,-111.41 54.92,-114.38"/>
</g>
<!-- 1&#45;&gt;2 -->
<g id="edge5" class="edge">
<title>1&#45;&gt;2</title>
<path fill="none" stroke="black" d="M113.15,-56.66C106.58,-50.09 99.15,-42.65 92.56,-36.06"/>
<polygon fill="black" stroke="black" points="111.37,-57.84 117.1,-60.6 114.34,-54.88 111.37,-57.84"/>
<polygon fill="black" stroke="black" points="94.06,-34.6 88.34,-31.84 91.09,-37.57 94.06,-34.6"/>
</g>
<!-- 2&#45;&gt;3 -->
<g id="edge6" class="edge">
<title>2&#45;&gt;3</title>
<path fill="none" stroke="black" d="M74.5,-43.73C74.49,-62.1 74.49,-86.71 74.49,-105.11"/>
<polygon fill="black" stroke="black" points="76.6,-43.92 74.5,-37.92 72.4,-43.92 76.6,-43.92"/>
<polygon fill="black" stroke="black" points="72.39,-105.07 74.49,-111.07 76.59,-105.07 72.39,-105.07"/>
</g>
<!-- 3&#45;&gt;1 -->
<g id="edge4" class="edge">
<title>3&#45;&gt;1</title>
<path fill="none" stroke="black" d="M92.32,-113.14C98.89,-106.58 106.33,-99.14 112.92,-92.55"/>
<polygon fill="black" stroke="black" points="91.14,-111.36 88.38,-117.09 94.11,-114.33 91.14,-111.36"/>
<polygon fill="black" stroke="black" points="114.39,-94.06 117.14,-88.33 111.42,-91.09 114.39,-94.06"/>
</g>
</g>
</svg>
