<?xml version="1.0" encoding="UTF-8" standalone="no"?>
<!DOCTYPE svg PUBLIC "-//W3C//DTD SVG 1.1//EN"
 "http://www.w3.org/Graphics/SVG/1.1/DTD/svg11.dtd">
<!-- Generated by graphviz version 12.0.0 (20240704.0754)
 -->
<!-- Pages: 1 -->
<svg width="234pt" height="226pt"
 viewBox="0.00 0.00 233.98 225.62" xmlns="http://www.w3.org/2000/svg" xmlns:xlink="http://www.w3.org/1999/xlink">
<g id="graph0" class="graph" transform="scale(1 1) rotate(0) translate(14.4 211.22)">
<polygon fill="white" stroke="none" points="-14.4,14.4 -14.4,-211.22 219.58,-211.22 219.58,14.4 -14.4,14.4"/>
<!-- 5 -->
<g id="node1" class="node">
<title>5</title>
<ellipse fill="none" stroke="black" cx="50.3" cy="-18" rx="18" ry="18"/>
<text text-anchor="middle" x="50.3" y="-13.33" font-family="monospace" font-size="14.00">5</text>
</g>
<!-- 1 -->
<g id="node2" class="node">
<title>1</title>
<ellipse fill="none" stroke="black" cx="154.64" cy="-18" rx="18" ry="18"/>
<text text-anchor="middle" x="154.64" y="-13.32" font-family="monospace" font-size="14.00">1</text>
</g>
<!-- 5&#45;&gt;1 -->
<g id="edge1" class="edge">
<title>5&#45;&gt;1</title>
<path fill="none" stroke="black" d="M75.57,-18C91.84,-18 112.91,-18 129.21,-18"/>
<polygon fill="black" stroke="black" points="75.99,-15.9 69.99,-18 75.99,-20.1 75.99,-15.9"/>
<polygon fill="black" stroke="black" points="128.81,-20.1 134.81,-18 128.81,-15.9 128.81,-20.1"/>
</g>
<!-- 2 -->
<g id="node3" class="node">
<title>2</title>
<ellipse fill="none" stroke="black" cx="187.18" cy="-117.27" rx="18" ry="18"/>
<text text-anchor="middle" x="187.18" y="-112.6" font-family="monospace" font-size="14.00">2</text>
</g>
<!-- 1&#45;&gt;2 -->
<g id="edge2" class="edge">
<title>1&#45;&gt;2</title>
<path fill="none" stroke="black" d="M162.52,-42.05C167.59,-57.52 174.16,-77.57 179.24,-93.07"/>
<polygon fill="black" stroke="black" points="164.64,-41.78 160.78,-36.73 160.65,-43.09 164.64,-41.78"/>
<polygon fill="black" stroke="black" points="177.13,-93.36 180.99,-98.41 181.12,-92.05 177.13,-93.36"/>
</g>
<!-- 3 -->
<g id="node4" class="node">
<title>3</title>
<ellipse fill="none" stroke="black" cx="102.71" cy="-178.82" rx="18" ry="18"/>
<text text-anchor="middle" x="102.71" y="-174.15" font-family="monospace" font-size="14.00">3</text>
</g>
<!-- 2&#45;&gt;3 -->
<g id="edge3" class="edge">
<title>2&#45;&gt;3</title>
<path fill="none" stroke="black" d="M166.72,-132.18C153.55,-141.78 136.49,-154.21 123.3,-163.82"/>
<polygon fill="black" stroke="black" points="167.63,-134.12 171.24,-128.89 165.15,-130.72 167.63,-134.12"/>
<polygon fill="black" stroke="black" points="122.37,-161.9 118.76,-167.13 124.84,-165.29 122.37,-161.9"/>
</g>
<!-- 4 -->
<g id="node5" class="node">
<title>4</title>
<ellipse fill="none" stroke="black" cx="18" cy="-117.58" rx="18" ry="18"/>
<text text-anchor="middle" x="18" y="-112.91" font-family="monospace" font-size="14.00">4</text>
</g>
<!-- 3&#45;&gt;4 -->
<g id="edge4" class="edge">
<title>3&#45;&gt;4</title>
<path fill="none" stroke="black" d="M82.19,-163.99C68.98,-154.44 51.88,-142.08 38.65,-132.51"/>
<polygon fill="black" stroke="black" points="80.63,-165.46 86.73,-167.27 83.09,-162.05 80.63,-165.46"/>
<polygon fill="black" stroke="black" points="40.19,-131.03 34.1,-129.22 37.73,-134.44 40.19,-131.03"/>
</g>
<!-- 4&#45;&gt;5 -->
<g id="edge5" class="edge">
<title>4&#45;&gt;5</title>
<path fill="none" stroke="black" d="M25.82,-93.46C30.86,-77.94 37.38,-57.83 42.43,-42.27"/>
<polygon fill="black" stroke="black" points="23.95,-92.44 24.09,-98.8 27.94,-93.74 23.95,-92.44"/>
<polygon fill="black" stroke="black" points="44.31,-43.28 44.16,-36.92 40.31,-41.98 44.31,-43.28"/>
</g>
<!-- 0 -->
<g id="node6" class="node">
<title>0</title>
<ellipse fill="none" stroke="black" cx="102.31" cy="-90.14" rx="18" ry="18"/>
<text text-anchor="middle" x="102.31" y="-85.46" font-family="monospace" font-size="14.00">0</text>
</g>
<!-- 0&#45;&gt;5 -->
<g id="edge10" class="edge">
<title>0&#45;&gt;5</title>
<path fill="none" stroke="black" d="M87.34,-69.37C80.45,-59.82 72.3,-48.51 65.39,-38.93"/>
<polygon fill="black" stroke="black" points="85.44,-70.32 90.65,-73.96 88.85,-67.87 85.44,-70.32"/>
<polygon fill="black" stroke="black" points="67.16,-37.79 61.95,-34.16 63.75,-40.25 67.16,-37.79"/>
</g>
<!-- 0&#45;&gt;1 -->
<g id="edge6" class="edge">
<title>0&#45;&gt;1</title>
<path fill="none" stroke="black" d="M117.38,-69.37C124.31,-59.82 132.51,-48.51 139.46,-38.93"/>
<polygon fill="black" stroke="black" points="115.87,-67.88 114.05,-73.97 119.27,-70.34 115.87,-67.88"/>
<polygon fill="black" stroke="black" points="141.1,-40.24 142.92,-34.15 137.7,-37.78 141.1,-40.24"/>
</g>
<!-- 0&#45;&gt;2 -->
<g id="edge7" class="edge">
<title>0&#45;&gt;2</title>
<path fill="none" stroke="black" d="M126.74,-97.95C137.98,-101.54 151.29,-105.8 162.55,-109.4"/>
<polygon fill="black" stroke="black" points="127.69,-96.05 121.34,-96.22 126.42,-100.05 127.69,-96.05"/>
<polygon fill="black" stroke="black" points="161.82,-111.37 168.17,-111.2 163.1,-107.37 161.82,-111.37"/>
</g>
<!-- 0&#45;&gt;3 -->
<g id="edge8" class="edge">
<title>0&#45;&gt;3</title>
<path fill="none" stroke="black" d="M102.43,-115.67C102.48,-127.41 102.54,-141.32 102.59,-153.09"/>
<polygon fill="black" stroke="black" points="104.53,-116.02 102.4,-110.03 100.33,-116.04 104.53,-116.02"/>
<polygon fill="black" stroke="black" points="100.49,-152.97 102.62,-158.96 104.69,-152.95 100.49,-152.97"/>
</g>
<!-- 0&#45;&gt;4 -->
<g id="edge9" class="edge">
<title>0&#45;&gt;4</title>
<path fill="none" stroke="black" d="M78.04,-98.04C66.88,-101.67 53.66,-105.98 42.47,-109.62"/>
<polygon fill="black" stroke="black" points="78.35,-100.15 83.41,-96.29 77.05,-96.15 78.35,-100.15"/>
<polygon fill="black" stroke="black" points="41.94,-107.58 36.89,-111.43 43.24,-111.57 41.94,-107.58"/>
</g>
</g>
</svg>
