<?xml version="1.0" encoding="UTF-8" standalone="no"?>
<!DOCTYPE svg PUBLIC "-//W3C//DTD SVG 1.1//EN"
 "http://www.w3.org/Graphics/SVG/1.1/DTD/svg11.dtd">
<!-- Generated by graphviz version 12.0.0 (20240704.0754)
 -->
<!-- Pages: 1 -->
<svg width="178pt" height="178pt"
 viewBox="0.00 0.00 177.73 177.84" xmlns="http://www.w3.org/2000/svg" xmlns:xlink="http://www.w3.org/1999/xlink">
<g id="graph0" class="graph" transform="scale(1 1) rotate(0) translate(14.4 163.44)">
<polygon fill="white" stroke="none" points="-14.4,14.4 -14.4,-163.44 163.33,-163.44 163.33,14.4 -14.4,14.4"/>
<!-- 0 -->
<g id="node1" class="node">
<title>0</title>
<ellipse fill="none" stroke="black" cx="18" cy="-74.49" rx="18" ry="18"/>
<text text-anchor="middle" x="18" y="-69.82" font-family="monospace" font-size="14.00">0</text>
</g>
<!-- 1 -->
<g id="node2" class="node">
<title>1</title>
<ellipse fill="none" stroke="black" cx="130.93" cy="-74.49" rx="18" ry="18"/>
<text text-anchor="middle" x="130.93" y="-69.82" font-family="monospace" font-size="14.00">1</text>
</g>
<!-- 0&#45;&gt;1 -->
<g id="edge1" class="edge">
<title>0&#45;&gt;1</title>
<path fill="none" stroke="black" d="M43.72,-74.49C62.09,-74.49 86.69,-74.49 105.08,-74.49"/>
<polygon fill="black" stroke="black" points="43.91,-72.39 37.91,-74.49 43.91,-76.59 43.91,-72.39"/>
<polygon fill="black" stroke="black" points="105.03,-76.59 111.03,-74.49 105.03,-72.39 105.03,-76.59"/>
</g>
<!-- 2 -->
<g id="node3" class="node">
<title>2</title>
<ellipse fill="none" stroke="black" cx="74.41" cy="-18" rx="18" ry="18"/>
<text text-anchor="middle" x="74.41" y="-13.32" font-family="monospace" font-size="14.00">2</text>
</g>
<!-- 0&#45;&gt;2 -->
<g id="edge2" class="edge">
<title>0&#45;&gt;2</title>
<path fill="none" stroke="black" d="M35.81,-56.66C42.37,-50.09 49.8,-42.65 56.38,-36.06"/>
<polygon fill="black" stroke="black" points="34.62,-54.87 31.87,-60.6 37.6,-57.84 34.62,-54.87"/>
<polygon fill="black" stroke="black" points="57.84,-37.57 60.59,-31.84 54.87,-34.6 57.84,-37.57"/>
</g>
<!-- 3 -->
<g id="node4" class="node">
<title>3</title>
<ellipse fill="none" stroke="black" cx="74.41" cy="-131.04" rx="18" ry="18"/>
<text text-anchor="middle" x="74.41" y="-126.36" font-family="monospace" font-size="14.00">3</text>
</g>
<!-- 0&#45;&gt;3 -->
<g id="edge3" class="edge">
<title>0&#45;&gt;3</title>
<path fill="none" stroke="black" d="M35.81,-92.34C42.37,-98.92 49.8,-106.36 56.37,-112.96"/>
<polygon fill="black" stroke="black" points="37.59,-91.16 31.87,-88.39 34.62,-94.12 37.59,-91.16"/>
<polygon fill="black" stroke="black" points="54.87,-114.42 60.59,-117.18 57.84,-111.45 54.87,-114.42"/>
</g>
<!-- 1&#45;&gt;2 -->
<g id="edge5" class="edge">
<title>1&#45;&gt;2</title>
<path fill="none" stroke="black" d="M113.09,-56.66C106.52,-50.09 99.08,-42.65 92.49,-36.06"/>
<polygon fill="black" stroke="black" points="111.31,-57.85 117.04,-60.6 114.28,-54.88 111.31,-57.85"/>
<polygon fill="black" stroke="black" points="93.99,-34.59 88.26,-31.84 91.02,-37.56 93.99,-34.59"/>
</g>
<!-- 2&#45;&gt;3 -->
<g id="edge6" class="edge">
<title>2&#45;&gt;3</title>
<path fill="none" stroke="black" d="M74.41,-43.75C74.41,-62.13 74.41,-86.75 74.41,-105.16"/>
<polygon fill="black" stroke="black" points="76.51,-43.93 74.41,-37.93 72.31,-43.93 76.51,-43.93"/>
<polygon fill="black" stroke="black" points="72.31,-105.12 74.41,-111.12 76.51,-105.12 72.31,-105.12"/>
</g>
<!-- 3&#45;&gt;1 -->
<g id="edge4" class="edge">
<title>3&#45;&gt;1</title>
<path fill="none" stroke="black" d="M92.26,-113.18C98.83,-106.61 106.27,-99.16 112.86,-92.57"/>
<polygon fill="black" stroke="black" points="91.06,-111.41 88.31,-117.13 94.03,-114.38 91.06,-111.41"/>
<polygon fill="black" stroke="black" points="114.33,-94.07 117.09,-88.34 111.36,-91.1 114.33,-94.07"/>
</g>
</g>
</svg>
