<?xml version="1.0" encoding="UTF-8" standalone="no"?>
<!DOCTYPE svg PUBLIC "-//W3C//DTD SVG 1.1//EN"
 "http://www.w3.org/Graphics/SVG/1.1/DTD/svg11.dtd">
<!-- Generated by graphviz version 12.0.0 (20240704.0754)
 -->
<!-- Pages: 1 -->
<svg width="220pt" height="220pt"
 viewBox="0.00 0.00 219.95 219.98" xmlns="http://www.w3.org/2000/svg" xmlns:xlink="http://www.w3.org/1999/xlink">
<g id="graph0" class="graph" transform="scale(1 1) rotate(0) translate(14.4 205.58)">
<polygon fill="white" stroke="none" points="-14.4,14.4 -14.4,-205.58 205.55,-205.58 205.55,14.4 -14.4,14.4"/>
<!-- 0 -->
<g id="node1" class="node">
<title>0</title>
<ellipse fill="none" stroke="black" cx="95.86" cy="-95.98" rx="18" ry="18"/>
<text text-anchor="middle" x="95.86" y="-91.3" font-family="monospace" font-size="14.00">0</text>
</g>
<!-- 1 -->
<g id="node2" class="node">
<title>1</title>
<ellipse fill="none" stroke="black" cx="173.15" cy="-95.98" rx="18" ry="18"/>
<text text-anchor="middle" x="173.15" y="-91.3" font-family="monospace" font-size="14.00">1</text>
</g>
<!-- 0&#45;&gt;1 -->
<g id="edge1" class="edge">
<title>0&#45;&gt;1</title>
<path fill="none" stroke="black" d="M121.41,-95.98C129.74,-95.98 138.99,-95.98 147.33,-95.98"/>
<polygon fill="black" stroke="black" points="121.69,-93.88 115.69,-95.98 121.69,-98.08 121.69,-93.88"/>
<polygon fill="black" stroke="black" points="147.18,-98.08 153.18,-95.98 147.18,-93.88 147.18,-98.08"/>
</g>
<!-- 2 -->
<g id="node3" class="node">
<title>2</title>
<ellipse fill="none" stroke="black" cx="96.06" cy="-18" rx="18" ry="18"/>
<text text-anchor="middle" x="96.06" y="-13.32" font-family="monospace" font-size="14.00">2</text>
</g>
<!-- 0&#45;&gt;2 -->
<g id="edge2" class="edge">
<title>0&#45;&gt;2</title>
<path fill="none" stroke="black" d="M95.93,-70.15C95.95,-61.68 95.97,-52.27 95.99,-43.8"/>
<polygon fill="black" stroke="black" points="93.83,-69.98 95.91,-75.98 98.03,-69.99 93.83,-69.98"/>
<polygon fill="black" stroke="black" points="98.09,-43.87 96.01,-37.86 93.89,-43.86 98.09,-43.87"/>
</g>
<!-- 3 -->
<g id="node4" class="node">
<title>3</title>
<ellipse fill="none" stroke="black" cx="18" cy="-95.1" rx="18" ry="18"/>
<text text-anchor="middle" x="18" y="-90.42" font-family="monospace" font-size="14.00">3</text>
</g>
<!-- 0&#45;&gt;3 -->
<g id="edge3" class="edge">
<title>0&#45;&gt;3</title>
<path fill="none" stroke="black" d="M70.07,-95.69C61.61,-95.59 52.22,-95.49 43.77,-95.39"/>
<polygon fill="black" stroke="black" points="69.87,-97.78 75.89,-95.75 69.92,-93.59 69.87,-97.78"/>
<polygon fill="black" stroke="black" points="43.86,-93.29 37.83,-95.32 43.81,-97.49 43.86,-93.29"/>
</g>
<!-- 4 -->
<g id="node5" class="node">
<title>4</title>
<ellipse fill="none" stroke="black" cx="95.39" cy="-173.18" rx="18" ry="18"/>
<text text-anchor="middle" x="95.39" y="-168.51" font-family="monospace" font-size="14.00">4</text>
</g>
<!-- 0&#45;&gt;4 -->
<g id="edge4" class="edge">
<title>0&#45;&gt;4</title>
<path fill="none" stroke="black" d="M95.7,-121.5C95.65,-129.82 95.6,-139.06 95.55,-147.4"/>
<polygon fill="black" stroke="black" points="97.8,-121.8 95.74,-115.79 93.6,-121.78 97.8,-121.8"/>
<polygon fill="black" stroke="black" points="93.45,-147.22 95.51,-153.24 97.65,-147.25 93.45,-147.22"/>
</g>
<!-- 1&#45;&gt;2 -->
<g id="edge6" class="edge">
<title>1&#45;&gt;2</title>
<path fill="none" stroke="black" d="M155.47,-78.1C143.09,-65.58 126.6,-48.9 114.14,-36.29"/>
<polygon fill="black" stroke="black" points="153.64,-79.23 159.35,-82.03 156.63,-76.28 153.64,-79.23"/>
<polygon fill="black" stroke="black" points="115.84,-35.02 110.13,-32.23 112.85,-37.98 115.84,-35.02"/>
</g>
<!-- 2&#45;&gt;3 -->
<g id="edge7" class="edge">
<title>2&#45;&gt;3</title>
<path fill="none" stroke="black" d="M78.13,-35.71C65.51,-48.17 48.69,-64.79 36.05,-77.27"/>
<polygon fill="black" stroke="black" points="79.3,-37.51 82.09,-31.8 76.35,-34.52 79.3,-37.51"/>
<polygon fill="black" stroke="black" points="34.78,-75.58 31.99,-81.29 37.73,-78.56 34.78,-75.58"/>
</g>
<!-- 3&#45;&gt;4 -->
<g id="edge8" class="edge">
<title>3&#45;&gt;4</title>
<path fill="none" stroke="black" d="M35.78,-113.04C48.29,-125.66 64.96,-142.48 77.5,-155.13"/>
<polygon fill="black" stroke="black" points="37.56,-111.85 31.84,-109.07 34.58,-114.81 37.56,-111.85"/>
<polygon fill="black" stroke="black" points="75.81,-156.41 81.53,-159.2 78.79,-153.46 75.81,-156.41"/>
</g>
<!-- 4&#45;&gt;1 -->
<g id="edge5" class="edge">
<title>4&#45;&gt;1</title>
<path fill="none" stroke="black" d="M113.22,-155.48C125.71,-143.08 142.34,-126.57 154.91,-114.08"/>
<polygon fill="black" stroke="black" points="112.08,-153.65 109.3,-159.37 115.04,-156.63 112.08,-153.65"/>
<polygon fill="black" stroke="black" points="156.18,-115.79 158.95,-110.07 153.22,-112.81 156.18,-115.79"/>
</g>
</g>
</svg>
