<?xml version="1.0" encoding="UTF-8" standalone="no"?>
<!DOCTYPE svg PUBLIC "-//W3C//DTD SVG 1.1//EN"
 "http://www.w3.org/Graphics/SVG/1.1/DTD/svg11.dtd">
<!-- Generated by graphviz version 12.0.0 (20240704.0754)
 -->
<!-- Pages: 1 -->
<svg width="209pt" height="209pt"
 viewBox="0.00 0.00 208.66 208.66" xmlns="http://www.w3.org/2000/svg" xmlns:xlink="http://www.w3.org/1999/xlink">
<g id="graph0" class="graph" transform="scale(1 1) rotate(0) translate(14.4 194.26)">
<polygon fill="white" stroke="none" points="-14.4,14.4 -14.4,-194.26 194.26,-194.26 194.26,14.4 -14.4,14.4"/>
<!-- 0 -->
<g id="node1" class="node">
<title>0</title>
<ellipse fill="none" stroke="black" cx="89.93" cy="-89.92" rx="18" ry="18"/>
<text text-anchor="middle" x="89.93" y="-85.25" font-family="monospace" font-size="14.00">0</text>
</g>
<!-- 1 -->
<g id="node2" class="node">
<title>1</title>
<ellipse fill="none" stroke="black" cx="161.86" cy="-89.92" rx="18" ry="18"/>
<text text-anchor="middle" x="161.86" y="-85.25" font-family="monospace" font-size="14.00">1</text>
</g>
<!-- 0&#45;&gt;1 -->
<g id="edge1" class="edge">
<title>0&#45;&gt;1</title>
<path fill="none" stroke="black" d="M115.53,-89.92C122.16,-89.92 129.31,-89.92 135.95,-89.92"/>
<polygon fill="black" stroke="black" points="115.59,-87.82 109.59,-89.92 115.59,-92.02 115.59,-87.82"/>
<polygon fill="black" stroke="black" points="135.95,-92.02 141.95,-89.92 135.95,-87.82 135.95,-92.02"/>
</g>
<!-- 2 -->
<g id="node3" class="node">
<title>2</title>
<ellipse fill="none" stroke="black" cx="89.93" cy="-18" rx="18" ry="18"/>
<text text-anchor="middle" x="89.93" y="-13.32" font-family="monospace" font-size="14.00">2</text>
</g>
<!-- 0&#45;&gt;2 -->
<g id="edge2" class="edge">
<title>0&#45;&gt;2</title>
<path fill="none" stroke="black" d="M89.93,-64.32C89.93,-57.69 89.93,-50.55 89.93,-43.9"/>
<polygon fill="black" stroke="black" points="87.83,-64.26 89.93,-70.26 92.03,-64.26 87.83,-64.26"/>
<polygon fill="black" stroke="black" points="92.03,-43.91 89.93,-37.91 87.83,-43.91 92.03,-43.91"/>
</g>
<!-- 3 -->
<g id="node4" class="node">
<title>3</title>
<ellipse fill="none" stroke="black" cx="18" cy="-89.93" rx="18" ry="18"/>
<text text-anchor="middle" x="18" y="-85.25" font-family="monospace" font-size="14.00">3</text>
</g>
<!-- 0&#45;&gt;3 -->
<g id="edge3" class="edge">
<title>0&#45;&gt;3</title>
<path fill="none" stroke="black" d="M64.32,-89.93C57.69,-89.93 50.55,-89.93 43.91,-89.93"/>
<polygon fill="black" stroke="black" points="64.26,-92.03 70.26,-89.93 64.26,-87.83 64.26,-92.03"/>
<polygon fill="black" stroke="black" points="43.91,-87.83 37.91,-89.93 43.91,-92.03 43.91,-87.83"/>
</g>
<!-- 4 -->
<g id="node5" class="node">
<title>4</title>
<ellipse fill="none" stroke="black" cx="89.93" cy="-161.86" rx="18" ry="18"/>
<text text-anchor="middle" x="89.93" y="-157.18" font-family="monospace" font-size="14.00">4</text>
</g>
<!-- 0&#45;&gt;4 -->
<g id="edge4" class="edge">
<title>0&#45;&gt;4</title>
<path fill="none" stroke="black" d="M89.93,-115.53C89.93,-122.16 89.93,-129.3 89.93,-135.95"/>
<polygon fill="black" stroke="black" points="92.03,-115.59 89.93,-109.59 87.83,-115.59 92.03,-115.59"/>
<polygon fill="black" stroke="black" points="87.83,-135.95 89.93,-141.95 92.03,-135.95 87.83,-135.95"/>
</g>
<!-- 1&#45;&gt;2 -->
<g id="edge6" class="edge">
<title>1&#45;&gt;2</title>
<path fill="none" stroke="black" d="M143.79,-71.85C132.78,-60.84 118.76,-46.83 107.79,-35.86"/>
<polygon fill="black" stroke="black" points="142.2,-73.24 147.93,-76 145.17,-70.27 142.2,-73.24"/>
<polygon fill="black" stroke="black" points="109.48,-34.58 103.75,-31.82 106.51,-37.55 109.48,-34.58"/>
</g>
<!-- 2&#45;&gt;3 -->
<g id="edge7" class="edge">
<title>2&#45;&gt;3</title>
<path fill="none" stroke="black" d="M71.86,-36.07C60.85,-47.08 46.83,-61.09 35.86,-72.06"/>
<polygon fill="black" stroke="black" points="73.24,-37.66 76,-31.93 70.27,-34.69 73.24,-37.66"/>
<polygon fill="black" stroke="black" points="34.58,-70.38 31.82,-76.11 37.55,-73.35 34.58,-70.38"/>
</g>
<!-- 3&#45;&gt;4 -->
<g id="edge8" class="edge">
<title>3&#45;&gt;4</title>
<path fill="none" stroke="black" d="M36.07,-108C47.08,-119.01 61.1,-133.02 72.07,-143.99"/>
<polygon fill="black" stroke="black" points="37.66,-106.61 31.93,-103.86 34.69,-109.58 37.66,-106.61"/>
<polygon fill="black" stroke="black" points="70.38,-145.28 76.11,-148.04 73.35,-142.31 70.38,-145.28"/>
</g>
<!-- 4&#45;&gt;1 -->
<g id="edge5" class="edge">
<title>4&#45;&gt;1</title>
<path fill="none" stroke="black" d="M108,-143.78C119.01,-132.77 133.02,-118.76 144,-107.79"/>
<polygon fill="black" stroke="black" points="106.62,-142.2 103.86,-147.93 109.59,-145.17 106.62,-142.2"/>
<polygon fill="black" stroke="black" points="145.28,-109.47 148.04,-103.74 142.31,-106.5 145.28,-109.47"/>
</g>
</g>
</svg>
