<?xml version="1.0" encoding="UTF-8" standalone="no"?>
<!DOCTYPE svg PUBLIC "-//W3C//DTD SVG 1.1//EN"
 "http://www.w3.org/Graphics/SVG/1.1/DTD/svg11.dtd">
<!-- Generated by graphviz version 12.0.0 (20240704.0754)
 -->
<!-- Pages: 1 -->
<svg width="195pt" height="189pt"
 viewBox="0.00 0.00 195.08 188.71" xmlns="http://www.w3.org/2000/svg" xmlns:xlink="http://www.w3.org/1999/xlink">
<g id="graph0" class="graph" transform="scale(1 1) rotate(0) translate(14.4 174.31)">
<polygon fill="white" stroke="none" points="-14.4,14.4 -14.4,-174.31 180.68,-174.31 180.68,14.4 -14.4,14.4"/>
<!-- 5 -->
<g id="node1" class="node">
<title>5</title>
<ellipse fill="none" stroke="black" cx="42.88" cy="-18" rx="18" ry="18"/>
<text text-anchor="middle" x="42.88" y="-13.33" font-family="monospace" font-size="14.00">5</text>
</g>
<!-- 1 -->
<g id="node2" class="node">
<title>1</title>
<ellipse fill="none" stroke="black" cx="123.4" cy="-18" rx="18" ry="18"/>
<text text-anchor="middle" x="123.4" y="-13.32" font-family="monospace" font-size="14.00">1</text>
</g>
<!-- 5&#45;&gt;1 -->
<g id="edge1" class="edge">
<title>5&#45;&gt;1</title>
<path fill="none" stroke="black" d="M68.59,-18C77.82,-18 88.23,-18 97.48,-18"/>
<polygon fill="black" stroke="black" points="68.67,-15.9 62.67,-18 68.67,-20.1 68.67,-15.9"/>
<polygon fill="black" stroke="black" points="97.41,-20.1 103.41,-18 97.41,-15.9 97.41,-20.1"/>
</g>
<!-- 2 -->
<g id="node3" class="node">
<title>2</title>
<ellipse fill="none" stroke="black" cx="148.28" cy="-94.57" rx="18" ry="18"/>
<text text-anchor="middle" x="148.28" y="-89.9" font-family="monospace" font-size="14.00">2</text>
</g>
<!-- 1&#45;&gt;2 -->
<g id="edge2" class="edge">
<title>1&#45;&gt;2</title>
<path fill="none" stroke="black" d="M131.34,-42.45C134.19,-51.23 137.41,-61.13 140.27,-69.92"/>
<polygon fill="black" stroke="black" points="133.36,-41.87 129.51,-36.82 129.37,-43.17 133.36,-41.87"/>
<polygon fill="black" stroke="black" points="138.25,-70.51 142.1,-75.56 142.25,-69.21 138.25,-70.51"/>
</g>
<!-- 3 -->
<g id="node4" class="node">
<title>3</title>
<ellipse fill="none" stroke="black" cx="83.14" cy="-141.91" rx="18" ry="18"/>
<text text-anchor="middle" x="83.14" y="-137.23" font-family="monospace" font-size="14.00">3</text>
</g>
<!-- 2&#45;&gt;3 -->
<g id="edge3" class="edge">
<title>2&#45;&gt;3</title>
<path fill="none" stroke="black" d="M127.44,-109.72C119.91,-115.19 111.43,-121.35 103.91,-126.82"/>
<polygon fill="black" stroke="black" points="128.66,-111.43 132.27,-106.2 126.19,-108.03 128.66,-111.43"/>
<polygon fill="black" stroke="black" points="102.71,-125.09 99.09,-130.32 105.17,-128.49 102.71,-125.09"/>
</g>
<!-- 4 -->
<g id="node5" class="node">
<title>4</title>
<ellipse fill="none" stroke="black" cx="18" cy="-94.58" rx="18" ry="18"/>
<text text-anchor="middle" x="18" y="-89.9" font-family="monospace" font-size="14.00">4</text>
</g>
<!-- 3&#45;&gt;4 -->
<g id="edge4" class="edge">
<title>3&#45;&gt;4</title>
<path fill="none" stroke="black" d="M62.3,-126.76C54.77,-121.3 46.28,-115.13 38.77,-109.67"/>
<polygon fill="black" stroke="black" points="61.04,-128.45 67.13,-130.28 63.51,-125.05 61.04,-128.45"/>
<polygon fill="black" stroke="black" points="40.04,-107.99 33.95,-106.17 37.57,-111.39 40.04,-107.99"/>
</g>
<!-- 4&#45;&gt;5 -->
<g id="edge5" class="edge">
<title>4&#45;&gt;5</title>
<path fill="none" stroke="black" d="M25.94,-70.13C28.8,-61.35 32.01,-51.45 34.87,-42.65"/>
<polygon fill="black" stroke="black" points="23.97,-69.41 24.11,-75.76 27.97,-70.7 23.97,-69.41"/>
<polygon fill="black" stroke="black" points="36.85,-43.37 36.7,-37.01 32.85,-42.07 36.85,-43.37"/>
</g>
<!-- 0 -->
<g id="node6" class="node">
<title>0</title>
<ellipse fill="none" stroke="black" cx="83.14" cy="-73.41" rx="18" ry="18"/>
<text text-anchor="middle" x="83.14" y="-68.74" font-family="monospace" font-size="14.00">0</text>
</g>
<!-- 0&#45;&gt;5 -->
<g id="edge10" class="edge">
<title>0&#45;&gt;5</title>
<path fill="none" stroke="black" d="M68.11,-52.72C64.82,-48.19 61.33,-43.4 58.04,-38.86"/>
<polygon fill="black" stroke="black" points="66.24,-53.72 71.46,-57.34 69.63,-51.25 66.24,-53.72"/>
<polygon fill="black" stroke="black" points="59.82,-37.73 54.59,-34.11 56.42,-40.2 59.82,-37.73"/>
</g>
<!-- 0&#45;&gt;1 -->
<g id="edge6" class="edge">
<title>0&#45;&gt;1</title>
<path fill="none" stroke="black" d="M98.17,-52.72C101.46,-48.19 104.95,-43.4 108.24,-38.86"/>
<polygon fill="black" stroke="black" points="96.65,-51.25 94.82,-57.34 100.04,-53.72 96.65,-51.25"/>
<polygon fill="black" stroke="black" points="109.86,-40.2 111.69,-34.11 106.46,-37.73 109.86,-40.2"/>
</g>
<!-- 0&#45;&gt;2 -->
<g id="edge7" class="edge">
<title>0&#45;&gt;2</title>
<path fill="none" stroke="black" d="M107.47,-81.31C112.79,-83.04 118.43,-84.88 123.76,-86.61"/>
<polygon fill="black" stroke="black" points="108.39,-79.41 102.04,-79.55 107.09,-83.4 108.39,-79.41"/>
<polygon fill="black" stroke="black" points="122.98,-88.56 129.34,-88.42 124.28,-84.57 122.98,-88.56"/>
</g>
<!-- 0&#45;&gt;3 -->
<g id="edge8" class="edge">
<title>0&#45;&gt;3</title>
<path fill="none" stroke="black" d="M83.14,-98.99C83.14,-104.59 83.14,-110.51 83.14,-116.12"/>
<polygon fill="black" stroke="black" points="85.24,-99.28 83.14,-93.28 81.04,-99.28 85.24,-99.28"/>
<polygon fill="black" stroke="black" points="81.04,-115.99 83.14,-121.99 85.24,-115.99 81.04,-115.99"/>
</g>
<!-- 0&#45;&gt;4 -->
<g id="edge9" class="edge">
<title>0&#45;&gt;4</title>
<path fill="none" stroke="black" d="M58.82,-81.32C53.49,-83.05 47.86,-84.88 42.53,-86.61"/>
<polygon fill="black" stroke="black" points="59.19,-83.4 64.24,-79.55 57.89,-79.41 59.19,-83.4"/>
<polygon fill="black" stroke="black" points="42,-84.57 36.94,-88.42 43.3,-88.57 42,-84.57"/>
</g>
</g>
</svg>
