<?xml version="1.0" encoding="UTF-8" standalone="no"?>
<!DOCTYPE svg PUBLIC "-//W3C//DTD SVG 1.1//EN"
 "http://www.w3.org/Graphics/SVG/1.1/DTD/svg11.dtd">
<!-- Generated by graphviz version 12.0.0 (20240704.0754)
 -->
<!-- Pages: 1 -->
<svg width="221pt" height="213pt"
 viewBox="0.00 0.00 221.14 213.49" xmlns="http://www.w3.org/2000/svg" xmlns:xlink="http://www.w3.org/1999/xlink">
<g id="graph0" class="graph" transform="scale(1 1) rotate(0) translate(14.4 199.09)">
<polygon fill="white" stroke="none" points="-14.4,14.4 -14.4,-199.09 206.74,-199.09 206.74,14.4 -14.4,14.4"/>
<!-- 5 -->
<g id="node1" class="node">
<title>5</title>
<ellipse fill="none" stroke="black" cx="47.86" cy="-18" rx="18" ry="18"/>
<text text-anchor="middle" x="47.86" y="-13.33" font-family="monospace" font-size="14.00">5</text>
</g>
<!-- 1 -->
<g id="node2" class="node">
<title>1</title>
<ellipse fill="none" stroke="black" cx="144.48" cy="-18" rx="18" ry="18"/>
<text text-anchor="middle" x="144.48" y="-13.32" font-family="monospace" font-size="14.00">1</text>
</g>
<!-- 5&#45;&gt;1 -->
<g id="edge1" class="edge">
<title>5&#45;&gt;1</title>
<path fill="none" stroke="black" d="M73.28,-18C87.26,-18 104.57,-18 118.63,-18"/>
<polygon fill="black" stroke="black" points="73.54,-15.9 67.54,-18 73.54,-20.1 73.54,-15.9"/>
<polygon fill="black" stroke="black" points="118.54,-20.1 124.54,-18 118.54,-15.9 118.54,-20.1"/>
</g>
<!-- 2 -->
<g id="node3" class="node">
<title>2</title>
<ellipse fill="none" stroke="black" cx="174.34" cy="-109.89" rx="18" ry="18"/>
<text text-anchor="middle" x="174.34" y="-105.21" font-family="monospace" font-size="14.00">2</text>
</g>
<!-- 1&#45;&gt;2 -->
<g id="edge2" class="edge">
<title>1&#45;&gt;2</title>
<path fill="none" stroke="black" d="M152.33,-42.18C156.65,-55.48 162.01,-71.94 166.35,-85.31"/>
<polygon fill="black" stroke="black" points="154.41,-41.78 150.56,-36.72 150.42,-43.08 154.41,-41.78"/>
<polygon fill="black" stroke="black" points="164.33,-85.87 168.18,-90.93 168.32,-84.58 164.33,-85.87"/>
</g>
<!-- 3 -->
<g id="node4" class="node">
<title>3</title>
<ellipse fill="none" stroke="black" cx="96.16" cy="-166.69" rx="18" ry="18"/>
<text text-anchor="middle" x="96.16" y="-162.01" font-family="monospace" font-size="14.00">3</text>
</g>
<!-- 2&#45;&gt;3 -->
<g id="edge3" class="edge">
<title>2&#45;&gt;3</title>
<path fill="none" stroke="black" d="M153.77,-124.83C142.46,-133.05 128.45,-143.23 117.08,-151.49"/>
<polygon fill="black" stroke="black" points="154.79,-126.69 158.41,-121.46 152.32,-123.29 154.79,-126.69"/>
<polygon fill="black" stroke="black" points="115.91,-149.74 112.29,-154.97 118.38,-153.14 115.91,-149.74"/>
</g>
<!-- 4 -->
<g id="node5" class="node">
<title>4</title>
<ellipse fill="none" stroke="black" cx="18" cy="-109.89" rx="18" ry="18"/>
<text text-anchor="middle" x="18" y="-105.22" font-family="monospace" font-size="14.00">4</text>
</g>
<!-- 3&#45;&gt;4 -->
<g id="edge4" class="edge">
<title>3&#45;&gt;4</title>
<path fill="none" stroke="black" d="M75.6,-151.75C64.29,-143.53 50.28,-133.35 38.91,-125.09"/>
<polygon fill="black" stroke="black" points="74.15,-153.29 80.24,-155.12 76.62,-149.89 74.15,-153.29"/>
<polygon fill="black" stroke="black" points="40.21,-123.44 34.13,-121.61 37.75,-126.84 40.21,-123.44"/>
</g>
<!-- 4&#45;&gt;5 -->
<g id="edge5" class="edge">
<title>4&#45;&gt;5</title>
<path fill="none" stroke="black" d="M25.86,-85.72C30.18,-72.42 35.53,-55.95 39.87,-42.59"/>
<polygon fill="black" stroke="black" points="23.94,-84.81 24.08,-91.17 27.94,-86.11 23.94,-84.81"/>
<polygon fill="black" stroke="black" points="41.84,-43.31 41.7,-36.96 37.85,-42.02 41.84,-43.31"/>
</g>
<!-- 0 -->
<g id="node6" class="node">
<title>0</title>
<ellipse fill="none" stroke="black" cx="96.17" cy="-84.49" rx="18" ry="18"/>
<text text-anchor="middle" x="96.17" y="-79.82" font-family="monospace" font-size="14.00">0</text>
</g>
<!-- 0&#45;&gt;5 -->
<g id="edge10" class="edge">
<title>0&#45;&gt;5</title>
<path fill="none" stroke="black" d="M81.09,-63.74C75.27,-55.73 68.62,-46.57 62.8,-38.57"/>
<polygon fill="black" stroke="black" points="79.33,-64.89 84.56,-68.51 82.73,-62.42 79.33,-64.89"/>
<polygon fill="black" stroke="black" points="64.67,-37.56 59.44,-33.94 61.27,-40.03 64.67,-37.56"/>
</g>
<!-- 0&#45;&gt;1 -->
<g id="edge6" class="edge">
<title>0&#45;&gt;1</title>
<path fill="none" stroke="black" d="M111.24,-63.74C117.07,-55.73 123.72,-46.57 129.53,-38.57"/>
<polygon fill="black" stroke="black" points="109.61,-62.42 107.78,-68.51 113,-64.89 109.61,-62.42"/>
<polygon fill="black" stroke="black" points="131.07,-40.03 132.89,-33.94 127.67,-37.56 131.07,-40.03"/>
</g>
<!-- 0&#45;&gt;2 -->
<g id="edge7" class="edge">
<title>0&#45;&gt;2</title>
<path fill="none" stroke="black" d="M120.51,-92.4C129.78,-95.41 140.33,-98.84 149.63,-101.86"/>
<polygon fill="black" stroke="black" points="121.31,-90.45 114.96,-90.6 120.01,-94.45 121.31,-90.45"/>
<polygon fill="black" stroke="black" points="148.97,-103.86 155.33,-103.71 150.27,-99.86 148.97,-103.86"/>
</g>
<!-- 0&#45;&gt;3 -->
<g id="edge8" class="edge">
<title>0&#45;&gt;3</title>
<path fill="none" stroke="black" d="M96.17,-110.09C96.17,-119.83 96.17,-130.93 96.17,-140.71"/>
<polygon fill="black" stroke="black" points="98.27,-110.25 96.17,-104.25 94.07,-110.25 98.27,-110.25"/>
<polygon fill="black" stroke="black" points="94.07,-140.7 96.17,-146.7 98.27,-140.7 94.07,-140.7"/>
</g>
<!-- 0&#45;&gt;4 -->
<g id="edge9" class="edge">
<title>0&#45;&gt;4</title>
<path fill="none" stroke="black" d="M71.83,-92.4C62.56,-95.41 52,-98.84 42.71,-101.87"/>
<polygon fill="black" stroke="black" points="72.32,-94.45 77.38,-90.6 71.03,-90.46 72.32,-94.45"/>
<polygon fill="black" stroke="black" points="42.07,-99.87 37.01,-103.72 43.36,-103.86 42.07,-99.87"/>
</g>
</g>
</svg>
